<svg width="18" height="19" viewBox="0 0 18 19" fill="none" xmlns="http://www.w3.org/2000/svg">
<path d="M1.5 9.13824C1.5 12.9979 4.40035 16.1784 8.13509 16.6084C8.68619 16.6718 9.22036 16.4369 9.61261 16.0436C10.1027 15.5522 10.1027 14.7556 9.61261 14.2642C9.22036 13.8709 8.90059 13.2843 9.19641 12.8138C10.3789 10.9331 16.5 15.2522 16.5 9.13824C16.5 4.98528 13.1421 1.61865 9 1.61865C4.85786 1.61865 1.5 4.98528 1.5 9.13824Z" stroke="#1C274C"/>
<circle opacity="0.5" cx="13.125" cy="8.74365" r="1.125" stroke="#1C274C"/>
<circle opacity="0.5" cx="4.875" cy="8.74365" r="1.125" stroke="#1C274C"/>
<path opacity="0.5" d="M8.25006 5.36841C8.25006 5.98973 7.74638 6.49341 7.12506 6.49341C6.50374 6.49341 6.00006 5.98973 6.00006 5.36841C6.00006 4.74709 6.50374 4.24341 7.12506 4.24341C7.74638 4.24341 8.25006 4.74709 8.25006 5.36841Z" stroke="#1C274C"/>
<path opacity="0.5" d="M12 5.36865C12 5.98997 11.4963 6.49365 10.875 6.49365C10.2537 6.49365 9.75 5.98997 9.75 5.36865C9.75 4.74733 10.2537 4.24365 10.875 4.24365C11.4963 4.24365 12 4.74733 12 5.36865Z" stroke="#1C274C"/>
</svg>
