<svg width="19" height="19" viewBox="0 0 19 19" fill="none" xmlns="http://www.w3.org/2000/svg">
<path opacity="0.5" d="M3.27881 16.978H15.2788" stroke="#1C274C" stroke-linecap="round"/>
<path d="M11.251 2.66909L10.6948 3.22522L5.5821 8.33797C5.23581 8.68426 5.06266 8.85741 4.91375 9.04833C4.73809 9.27354 4.58749 9.51721 4.46461 9.77504C4.36045 9.99361 4.28301 10.2259 4.12814 10.6905L3.47189 12.6593L3.31148 13.1405C3.23527 13.3692 3.29477 13.6212 3.46519 13.7916C3.6356 13.9621 3.88768 14.0216 4.11631 13.9454L4.59756 13.7849L6.56632 13.1287C7.03092 12.9738 7.26323 12.8964 7.48179 12.7922C7.73962 12.6693 7.9833 12.5187 8.20851 12.3431C8.39942 12.1942 8.57257 12.021 8.91885 11.6747L8.91887 11.6747L14.0316 6.56199L14.5877 6.00586C15.5092 5.08444 15.5092 3.59052 14.5877 2.66909C13.6663 1.74767 12.1724 1.74767 11.251 2.66909Z" stroke="#1C274C"/>
<path opacity="0.5" d="M10.6948 3.22534C10.6948 3.22534 10.7643 4.40711 11.807 5.44985C12.8498 6.49259 14.0315 6.56211 14.0315 6.56211M4.59747 13.7851L3.4718 12.6594" stroke="#1C274C"/>
</svg>
