<svg width="91" height="43" viewBox="0 0 91 43" fill="none" xmlns="http://www.w3.org/2000/svg">
<rect x="0.40686" y="0.00195312" width="90" height="43" rx="7" fill="#F2F2F2"/>
<circle cx="43.5527" cy="9.92415" r="3.33333" stroke="#1C274C"/>
<path opacity="0.5" d="M50.2193 19.5073C50.2193 21.5784 50.2193 23.2573 43.5527 23.2573C36.886 23.2573 36.886 21.5784 36.886 19.5073C36.886 17.4363 39.8708 15.7573 43.5527 15.7573C47.2346 15.7573 50.2193 17.4363 50.2193 19.5073Z" stroke="#1C274C"/>
<path d="M50.2932 15.3729L50.5965 14.9754L50.2932 15.3729ZM51.0527 12.1271L50.6981 12.4796C50.792 12.574 50.9196 12.6271 51.0527 12.6271C51.1858 12.6271 51.3135 12.574 51.4073 12.4796L51.0527 12.1271ZM51.8123 15.3729L51.509 14.9754L51.8123 15.3729ZM50.5965 14.9754C50.1987 14.6718 49.8196 14.4143 49.5156 14.0829C49.2288 13.7703 49.0527 13.4343 49.0527 13.0073H48.0527C48.0527 13.7572 48.3791 14.3234 48.7786 14.7589C49.161 15.1757 49.6521 15.5126 49.9898 15.7703L50.5965 14.9754ZM49.0527 13.0073C49.0527 12.6149 49.2814 12.2923 49.5832 12.1587C49.8576 12.0373 50.2651 12.0441 50.6981 12.4796L51.4073 11.7746C50.7154 11.0786 49.8729 10.9369 49.1785 11.2442C48.5116 11.5394 48.0527 12.2226 48.0527 13.0073H49.0527ZM49.9898 15.7703C50.1151 15.8659 50.2693 15.9836 50.4303 16.0746C50.5916 16.1659 50.8048 16.2575 51.0527 16.2575V15.2575C51.0506 15.2575 51.0139 15.2559 50.9227 15.2043C50.8314 15.1526 50.7308 15.0779 50.5965 14.9754L49.9898 15.7703ZM52.1156 15.7703C52.4534 15.5126 52.9445 15.1757 53.3268 14.7589C53.7263 14.3234 54.0527 13.7572 54.0527 13.0073H53.0527C53.0527 13.4343 52.8767 13.7703 52.5899 14.0829C52.2859 14.4143 51.9068 14.6718 51.509 14.9754L52.1156 15.7703ZM54.0527 13.0073C54.0527 12.2226 53.5938 11.5394 52.9269 11.2442C52.2325 10.9369 51.3901 11.0786 50.6981 11.7746L51.4073 12.4796C51.8403 12.0441 52.2479 12.0373 52.5223 12.1587C52.8241 12.2923 53.0527 12.6149 53.0527 13.0073H54.0527ZM51.509 14.9754C51.3747 15.0779 51.2741 15.1526 51.1827 15.2043C51.0916 15.2559 51.0548 15.2575 51.0527 15.2575V16.2575C51.3006 16.2575 51.5139 16.1659 51.6751 16.0746C51.8361 15.9836 51.9904 15.8659 52.1156 15.7703L51.509 14.9754Z" fill="#1C274C"/>
<path d="M24.7244 37.9241V31.2521C24.7244 31.0814 24.7298 30.9481 24.7404 30.8521C24.7511 30.7561 24.7991 30.6867 24.8844 30.6441C24.9698 30.5907 25.1031 30.5641 25.2844 30.5641H31.9404V31.4761H26.3724V33.6361H31.4764V34.5481H26.3724V37.9241H24.7244ZM36.2067 38.0201C35.5453 38.0201 35.0067 37.9881 34.5907 37.9241C34.1747 37.8707 33.8547 37.7694 33.6307 37.6201C33.4067 37.4707 33.252 37.2681 33.1667 37.0121C33.092 36.7561 33.0547 36.4361 33.0547 36.0521C33.0547 35.5081 33.1133 35.0974 33.2307 34.8201C33.3587 34.5321 33.572 34.3347 33.8707 34.2281C34.18 34.1214 34.5907 34.0681 35.1027 34.0681C35.3693 34.0681 35.6627 34.0734 35.9827 34.0841C36.3133 34.0947 36.628 34.1107 36.9267 34.1321C37.236 34.1427 37.5027 34.1587 37.7267 34.1801C37.9613 34.2014 38.116 34.2281 38.1907 34.2601C38.1907 33.8121 38.1533 33.4601 38.0787 33.2041C38.004 32.9481 37.8813 32.7561 37.7107 32.6281C37.5507 32.5001 37.348 32.4147 37.1027 32.3721C36.8573 32.3294 36.5693 32.3081 36.2387 32.3081C35.876 32.3081 35.5133 32.3187 35.1507 32.3401C34.7987 32.3614 34.4627 32.3987 34.1427 32.4521C33.8333 32.5054 33.5773 32.5747 33.3747 32.6601V32.3561C33.3747 32.1107 33.4387 31.9347 33.5667 31.8281C33.7053 31.7214 33.8707 31.6521 34.0627 31.6201C34.276 31.5667 34.5907 31.5241 35.0067 31.4921C35.4227 31.4601 35.8653 31.4494 36.3347 31.4601C36.932 31.4601 37.4387 31.4921 37.8547 31.5561C38.2813 31.6094 38.6227 31.7267 38.8787 31.9081C39.1453 32.0894 39.3373 32.3614 39.4547 32.7241C39.5827 33.0867 39.6467 33.5721 39.6467 34.1801V37.4441C39.5507 37.6467 39.2253 37.7961 38.6707 37.8921C38.116 37.9774 37.2947 38.0201 36.2067 38.0201ZM36.2067 37.3481C36.6333 37.3481 36.98 37.3374 37.2467 37.3161C37.524 37.2841 37.7373 37.2467 37.8867 37.2041C38.036 37.1507 38.1373 37.0867 38.1907 37.0121V34.8041C38.0947 34.7721 37.924 34.7454 37.6787 34.7241C37.4333 34.6921 37.1773 34.6654 36.9107 34.6441C36.644 34.6227 36.42 34.6121 36.2387 34.6121C35.844 34.6121 35.524 34.6387 35.2787 34.6921C35.0333 34.7454 34.8573 34.8681 34.7507 35.0601C34.644 35.2521 34.5907 35.5507 34.5907 35.9561C34.5907 36.2867 34.628 36.5534 34.7027 36.7561C34.7773 36.9587 34.9267 37.1081 35.1507 37.2041C35.3853 37.3001 35.7373 37.3481 36.2067 37.3481ZM41.887 37.9241C41.6417 37.9241 41.4764 37.8867 41.391 37.8121C41.3164 37.7374 41.279 37.5774 41.279 37.3321V31.9881C41.3964 31.9561 41.5457 31.9134 41.727 31.8601C41.919 31.8067 42.1377 31.7534 42.383 31.7001C42.639 31.6361 42.9164 31.5881 43.215 31.5561C43.5244 31.5241 43.8444 31.5081 44.175 31.5081C44.559 31.5081 44.8897 31.5401 45.167 31.6041C45.4444 31.6574 45.6844 31.7641 45.887 31.9241C46.0897 32.0734 46.255 32.2921 46.383 32.5801L46.127 32.5641C46.2124 32.3614 46.3404 32.1907 46.511 32.0521C46.6817 31.9027 46.8737 31.7907 47.087 31.7161C47.311 31.6307 47.5404 31.5721 47.775 31.5401C48.0097 31.5081 48.2284 31.4921 48.431 31.4921C49.071 31.4921 49.5724 31.5561 49.935 31.6841C50.3084 31.8014 50.5697 32.0041 50.719 32.2921C50.879 32.5801 50.959 32.9747 50.959 33.4761V37.3801C50.959 37.6041 50.9164 37.7534 50.831 37.8281C50.7564 37.8921 50.607 37.9241 50.383 37.9241H49.471C49.471 37.1774 49.471 36.4307 49.471 35.6841C49.471 34.9374 49.471 34.1854 49.471 33.4281C49.4604 32.9694 49.3537 32.6601 49.151 32.5001C48.9484 32.3401 48.639 32.2601 48.223 32.2601C48.031 32.2601 47.8284 32.2867 47.615 32.3401C47.4124 32.3934 47.2364 32.4681 47.087 32.5641C46.9484 32.6601 46.879 32.7721 46.879 32.9001V37.9241H45.375V33.0921C45.375 32.8361 45.2577 32.6387 45.023 32.5001C44.7884 32.3507 44.4844 32.2761 44.111 32.2761C43.887 32.2761 43.679 32.2974 43.487 32.3401C43.295 32.3721 43.135 32.4201 43.007 32.4841C42.879 32.5481 42.8044 32.6334 42.783 32.7401V37.9241H41.887ZM54.0788 37.9881C53.5135 37.9881 53.1295 37.8547 52.9268 37.5881C52.7241 37.3107 52.6228 36.9001 52.6228 36.3561L52.6388 31.5401H54.1268V36.2761C54.1268 36.6814 54.1748 36.9587 54.2708 37.1081C54.3775 37.2574 54.5535 37.3321 54.7988 37.3321C54.8948 37.3321 55.0015 37.3214 55.1188 37.3001C55.2361 37.2787 55.3108 37.2627 55.3428 37.2521V37.8601C55.3001 37.8707 55.2308 37.8867 55.1348 37.9081C55.0388 37.9294 54.9055 37.9454 54.7348 37.9561C54.5641 37.9774 54.3455 37.9881 54.0788 37.9881ZM53.4068 30.6601C53.1615 30.6601 52.9748 30.6281 52.8468 30.5641C52.7295 30.4894 52.6708 30.3561 52.6708 30.1641C52.6708 29.9721 52.7295 29.8441 52.8468 29.7801C52.9641 29.7054 53.1508 29.6681 53.4068 29.6681C53.6521 29.6681 53.8281 29.7054 53.9348 29.7801C54.0521 29.8441 54.1108 29.9721 54.1108 30.1641C54.1108 30.3561 54.0521 30.4894 53.9348 30.5641C53.8281 30.6281 53.6521 30.6601 53.4068 30.6601ZM57.9252 37.9881C57.3598 37.9881 56.9545 37.8761 56.7092 37.6521C56.4638 37.4174 56.3412 37.0067 56.3412 36.4201V30.4841C56.3412 30.3134 56.3518 30.1854 56.3732 30.1001C56.4052 30.0041 56.4638 29.9401 56.5492 29.9081C56.6345 29.8654 56.7625 29.8441 56.9332 29.8441H57.8612C57.8612 29.8654 57.8505 29.9507 57.8292 30.1001C57.8185 30.2494 57.8132 30.4254 57.8132 30.6281V36.2281C57.8132 36.6227 57.8612 36.9054 57.9572 37.0761C58.0532 37.2467 58.2345 37.3321 58.5012 37.3321C58.5865 37.3321 58.6878 37.3214 58.8052 37.3001C58.9332 37.2787 59.0132 37.2627 59.0452 37.2521V37.8601C58.9812 37.8707 58.8692 37.8921 58.7092 37.9241C58.5492 37.9667 58.2878 37.9881 57.9252 37.9881ZM62.9723 39.7001C62.4496 39.7001 61.959 39.6734 61.5003 39.6201C61.0523 39.5774 60.6843 39.5027 60.3963 39.3961C60.119 39.3001 59.9803 39.1774 59.9803 39.0281V38.5481C60.151 38.6441 60.3803 38.7241 60.6683 38.7881C60.967 38.8521 61.2763 38.9001 61.5963 38.9321C61.927 38.9747 62.2416 38.9961 62.5403 38.9961C63.0523 38.9961 63.463 38.9267 63.7723 38.7881C64.0923 38.6601 64.327 38.4521 64.4763 38.1641C64.6256 37.8761 64.7003 37.5081 64.7003 37.0601V36.2761C64.6043 36.4894 64.4496 36.6654 64.2363 36.8041C64.0336 36.9427 63.7776 37.0441 63.4683 37.1081C63.159 37.1614 62.7856 37.1881 62.3483 37.1881C61.6123 37.1881 61.0683 37.0814 60.7163 36.8681C60.3643 36.6547 60.135 36.3507 60.0283 35.9561C59.9323 35.5614 59.8843 35.1027 59.8843 34.5801V32.2281C59.8843 32.0681 59.895 31.9401 59.9163 31.8441C59.9376 31.7374 59.9856 31.6627 60.0603 31.6201C60.135 31.5667 60.2576 31.5401 60.4283 31.5401H61.4203C61.4203 31.8174 61.4203 32.0734 61.4203 32.3081C61.4203 32.5427 61.4203 32.7721 61.4203 32.9961C61.4203 33.2094 61.4203 33.4387 61.4203 33.6841C61.4203 33.9187 61.4203 34.1747 61.4203 34.4521C61.4203 35.0601 61.4896 35.5081 61.6283 35.7961C61.767 36.0734 61.959 36.2494 62.2043 36.3241C62.4496 36.3987 62.7323 36.4361 63.0523 36.4361C63.3723 36.4361 63.655 36.3934 63.9003 36.3081C64.1456 36.2121 64.3376 36.0307 64.4763 35.7641C64.615 35.4974 64.6843 35.0974 64.6843 34.5641V31.5401H65.6603C65.8523 31.5401 65.991 31.5667 66.0763 31.6201C66.1616 31.6734 66.2043 31.8281 66.2043 32.0841V36.9321C66.2043 37.8921 65.9483 38.5907 65.4363 39.0281C64.9243 39.4761 64.103 39.7001 62.9723 39.7001Z" fill="#1C274C" fill-opacity="0.6"/>
</svg>
