<svg width="21" height="21" viewBox="0 0 21 21" fill="none" xmlns="http://www.w3.org/2000/svg">
<circle cx="8.84554" cy="5.92415" r="3.33333" stroke="#1C274C"/>
<path opacity="0.5" d="M15.5122 15.5073C15.5122 17.5784 15.5122 19.2573 8.8455 19.2573C2.17883 19.2573 2.17883 17.5784 2.17883 15.5073C2.17883 13.4363 5.1636 11.7573 8.8455 11.7573C12.5274 11.7573 15.5122 13.4363 15.5122 15.5073Z" stroke="#1C274C"/>
<path d="M15.586 11.3729L15.8894 10.9754L15.586 11.3729ZM16.3456 8.1271L15.991 8.47962C16.0848 8.57402 16.2125 8.6271 16.3456 8.6271C16.4787 8.6271 16.6063 8.57402 16.7002 8.47962L16.3456 8.1271ZM17.1051 11.3729L16.8018 10.9754L17.1051 11.3729ZM15.8894 10.9754C15.4915 10.6718 15.1124 10.4143 14.8084 10.0829C14.5216 9.77027 14.3456 9.43431 14.3456 9.00726H13.3456C13.3456 9.75721 13.672 10.3234 14.0715 10.7589C14.4538 11.1757 14.9449 11.5126 15.2827 11.7703L15.8894 10.9754ZM14.3456 9.00726C14.3456 8.61491 14.5742 8.29228 14.8761 8.1587C15.1504 8.03728 15.558 8.04408 15.991 8.47962L16.7002 7.77459C16.0082 7.07857 15.1658 6.93694 14.4714 7.24424C13.8045 7.53938 13.3456 8.2226 13.3456 9.00726H14.3456ZM15.2827 11.7703C15.4079 11.8659 15.5622 11.9836 15.7232 12.0746C15.8844 12.1659 16.0977 12.2575 16.3456 12.2575V11.2575C16.3435 11.2575 16.3068 11.2559 16.2156 11.2043C16.1242 11.1526 16.0237 11.0779 15.8894 10.9754L15.2827 11.7703ZM17.4085 11.7703C17.7462 11.5126 18.2373 11.1757 18.6197 10.7589C19.0192 10.3234 19.3456 9.75721 19.3456 9.00726H18.3456C18.3456 9.43431 18.1695 9.77027 17.8827 10.0829C17.5788 10.4143 17.1996 10.6718 16.8018 10.9754L17.4085 11.7703ZM19.3456 9.00726C19.3456 8.2226 18.8867 7.53938 18.2198 7.24424C17.5254 6.93694 16.683 7.07857 15.991 7.77459L16.7002 8.47962C17.1332 8.04408 17.5407 8.03728 17.8151 8.1587C18.1169 8.29228 18.3456 8.61491 18.3456 9.00726H19.3456ZM16.8018 10.9754C16.6675 11.0779 16.567 11.1526 16.4756 11.2043C16.3844 11.2559 16.3477 11.2575 16.3456 11.2575V12.2575C16.5935 12.2575 16.8068 12.1659 16.968 12.0746C17.129 11.9836 17.2832 11.8659 17.4085 11.7703L16.8018 10.9754Z" fill="#1C274C"/>
</svg>
