<svg width="18" height="18" viewBox="0 0 18 18" fill="none" xmlns="http://www.w3.org/2000/svg">
<path d="M8.70484 15.2431C12.0461 15.2431 14.7546 12.534 14.7546 9.19211C14.7546 5.85024 12.0461 3.14111 8.70484 3.14111C5.36362 3.14111 2.65503 5.85024 2.65503 9.19211C2.65503 12.534 5.36362 15.2431 8.70484 15.2431Z" fill="#1C274C"/>
<path d="M11.8903 11.3125C11.8903 11.7116 11.7318 12.0944 11.4496 12.3766C11.1675 12.6588 10.7848 12.8173 10.3858 12.8173C9.98678 12.8173 9.60411 12.6588 9.32197 12.3766C9.03982 12.0944 8.88131 11.7116 8.88131 11.3125C8.88131 11.2751 8.88131 11.2383 8.88532 11.2011L7.07771 10.3192C6.85588 10.4939 6.58938 10.6026 6.30866 10.633C6.02795 10.6634 5.74436 10.6141 5.49032 10.4908C5.23628 10.3676 5.02204 10.1753 4.87211 9.93601C4.72217 9.69672 4.64259 9.42005 4.64246 9.13764V9.13207C4.64246 9.1236 4.64246 9.1149 4.64246 9.10643C4.64802 8.82979 4.72978 8.56006 4.87874 8.3269C5.0277 8.09375 5.23808 7.90622 5.48673 7.78495C5.73538 7.66367 6.01265 7.61336 6.28805 7.63955C6.56344 7.66574 6.82628 7.76741 7.04762 7.93337L8.88421 7.03764C8.88287 7.01267 8.8822 6.98725 8.8822 6.96184C8.88215 6.61836 8.99959 6.2852 9.21503 6.01772C9.43047 5.75023 9.73093 5.56453 10.0665 5.49147C10.402 5.4184 10.7525 5.46237 11.0596 5.61607C11.3667 5.76978 11.612 6.02395 11.7547 6.33637C11.8974 6.64879 11.9289 7.00065 11.8441 7.33347C11.7592 7.66629 11.563 7.96005 11.2881 8.16593C11.0132 8.3718 10.6762 8.47741 10.333 8.4652C9.98978 8.45298 9.66109 8.32368 9.40153 8.09878L7.64073 8.95818C7.64758 9.01738 7.65108 9.07693 7.6512 9.13653C7.6512 9.18498 7.6489 9.23305 7.64429 9.28076L9.42984 10.1515C9.64975 9.9699 9.91677 9.85456 10.1997 9.81897C10.4827 9.78338 10.77 9.82901 11.028 9.95054C11.286 10.0721 11.5042 10.2645 11.657 10.5053C11.8099 10.7462 11.8911 11.0255 11.8912 11.3108L11.8903 11.3125Z" fill="white"/>
<path d="M1.84544 0.692871C1.52088 0.692739 1.20357 0.788892 0.933657 0.969165C0.663744 1.14944 0.453352 1.40573 0.329097 1.70562C0.204843 2.00552 0.172309 2.33553 0.235611 2.65392C0.298913 2.97231 0.455207 3.26477 0.684721 3.4943C0.914235 3.72382 1.20666 3.88011 1.52499 3.94338C1.84333 4.00665 2.17327 3.97407 2.47309 3.84975C2.77291 3.72543 3.02912 3.51496 3.20932 3.24497C3.38952 2.97498 3.48561 2.65759 3.48544 2.33297C3.48538 1.89797 3.31257 1.4808 3.00501 1.17323C2.69746 0.86566 2.28035 0.692871 1.84544 0.692871Z" fill="#1BC469"/>
<path d="M3.48563 2.33298C3.48567 2.65742 3.38952 2.97458 3.20934 3.24435C3.02917 3.51413 2.77305 3.72441 2.47338 3.8486C2.17371 3.97279 1.84396 4.0053 1.52582 3.94203C1.20767 3.87877 0.915432 3.72256 0.686052 3.49317C0.456671 3.26377 0.300454 2.97149 0.237157 2.6533C0.173859 2.3351 0.206323 2.00527 0.330444 1.70553C0.454565 1.40579 0.664768 1.14959 0.934469 0.969342C1.20417 0.789091 1.52126 0.692882 1.84563 0.692882C2.0612 0.692087 2.2748 0.733965 2.47412 0.816103C2.67343 0.898241 2.85453 1.01902 3.00698 1.17147C3.15942 1.32392 3.2802 1.50504 3.36234 1.70439C3.44449 1.90373 3.48639 2.11737 3.48563 2.33298Z" fill="#1BC469"/>
<path d="M4.65918 4.34737C4.51564 4.46776 4.37678 4.59497 4.2426 4.72903C4.12729 4.84436 4.01719 4.96326 3.91228 5.08572L2.698 3.93897C3.01376 3.77092 3.27335 3.51399 3.44467 3.19995L4.65918 4.34737Z" fill="#1BC469"/>
<path d="M17.2041 2.33297C17.2041 2.6574 17.108 2.97457 16.9278 3.24434C16.7476 3.51412 16.4915 3.7244 16.1918 3.84859C15.8922 3.97277 15.5624 4.00529 15.2443 3.94202C14.9261 3.87876 14.6339 3.72255 14.4045 3.49315C14.1751 3.26376 14.0189 2.97148 13.9556 2.65329C13.8923 2.33509 13.9248 2.00526 14.0489 1.70552C14.173 1.40578 14.3832 1.14958 14.6529 0.96933C14.9226 0.78908 15.2397 0.692871 15.5641 0.692871C15.999 0.692871 16.4161 0.86566 16.7236 1.17323C17.0312 1.4808 17.204 1.89797 17.2041 2.33297Z" fill="#1BC469"/>
<path d="M14.7116 3.93892L13.4969 5.08523C13.3918 4.96306 13.2817 4.84417 13.1666 4.72854C13.0328 4.59478 12.894 4.46757 12.75 4.34689L13.9656 3.19946C14.1367 3.51357 14.396 3.77065 14.7116 3.93892Z" fill="#1BC469"/>
<path d="M3.48546 16.0513C3.48512 16.4527 3.3375 16.8399 3.07062 17.1396C2.80373 17.4393 2.43615 17.6306 2.03761 17.6772C1.63906 17.7238 1.23729 17.6224 0.908502 17.3923C0.579718 17.1623 0.346801 16.8195 0.253942 16.4291C0.161082 16.0386 0.214739 15.6277 0.404734 15.2742C0.594729 14.9207 0.907843 14.6493 1.28467 14.5114C1.6615 14.3735 2.07582 14.3787 2.44904 14.5261C2.82226 14.6735 3.1284 14.9528 3.30938 15.311C3.4253 15.5405 3.48561 15.7942 3.48546 16.0513Z" fill="#1BC469"/>
<path d="M4.65916 14.037L3.44465 15.1844C3.27363 14.8705 3.01444 14.6136 2.6991 14.4454L3.91271 13.2991C4.01762 13.4212 4.12773 13.5401 4.24303 13.6558C4.37676 13.7895 4.51547 13.9166 4.65916 14.037Z" fill="#1BC469"/>
<path d="M17.2041 16.0512C17.2043 16.3758 17.1081 16.6932 16.9279 16.9631C16.7477 17.2331 16.4914 17.4435 16.1916 17.5678C15.8918 17.6921 15.5619 17.7247 15.2435 17.6614C14.9252 17.5981 14.6328 17.4418 14.4033 17.2122C14.1738 16.9827 14.0176 16.6902 13.9543 16.3719C13.891 16.0535 13.9235 15.7235 14.0478 15.4236C14.1721 15.1237 14.3825 14.8674 14.6524 14.6872C14.9223 14.5069 15.2396 14.4108 15.5641 14.4109C15.9991 14.4109 16.4162 14.5837 16.7238 14.8913C17.0313 15.1989 17.2041 15.6162 17.2041 16.0512Z" fill="#1BC469"/>
<path d="M14.7115 14.4451C14.3961 14.6133 14.1369 14.8702 13.9659 15.1841L12.7503 14.0367C12.8938 13.9163 13.0327 13.7891 13.1669 13.655C13.282 13.5397 13.3921 13.4208 13.4972 13.2983L14.7115 14.4451Z" fill="#1BC469"/>
</svg>
