<svg width="56" height="56" viewBox="0 0 56 56" fill="none" xmlns="http://www.w3.org/2000/svg">
<g opacity="0.5">
<rect x="0.238281" y="0.312012" width="55" height="55" rx="7" fill="black" fill-opacity="0.15"/>
</g>
<path d="M13.8804 24.2827L17.6304 14.6327C17.8638 14.016 18.2054 13.541 18.6554 13.2077C19.1054 12.8577 19.8304 12.6827 20.8304 12.6827C21.6638 12.6827 22.3221 12.841 22.8054 13.1577C23.2888 13.4744 23.6638 13.966 23.9304 14.6327L27.7304 24.2827H24.1054L23.0304 21.5077H17.4554L16.4554 24.2827H13.8804ZM18.0054 20.1827H22.4054L20.9554 16.1327C20.9054 15.966 20.8304 15.816 20.7304 15.6827C20.6471 15.5327 20.4804 15.4577 20.2304 15.4577C19.9471 15.4577 19.7554 15.5327 19.6554 15.6827C19.5721 15.816 19.4971 15.966 19.4304 16.1327L18.0054 20.1827ZM34.2097 24.4077C33.1097 24.4077 32.2181 24.366 31.5347 24.2827C30.8514 24.216 30.3264 24.0744 29.9597 23.8577C29.5931 23.6244 29.3431 23.3077 29.2097 22.9077C29.0764 22.5077 29.0097 21.9994 29.0097 21.3827C29.0097 20.5327 29.1014 19.8827 29.2847 19.4327C29.4681 18.9827 29.7764 18.6827 30.2097 18.5327C30.6597 18.366 31.2597 18.2827 32.0097 18.2827C32.4264 18.2827 32.8931 18.291 33.4097 18.3077C33.9431 18.3077 34.4597 18.316 34.9597 18.3327C35.4597 18.3494 35.8931 18.3827 36.2597 18.4327C36.6431 18.466 36.9014 18.4994 37.0347 18.5327C37.0347 17.9327 36.9847 17.4577 36.8847 17.1077C36.7847 16.7577 36.6181 16.491 36.3847 16.3077C36.1514 16.1244 35.8514 16.0077 35.4847 15.9577C35.1347 15.9077 34.7097 15.8827 34.2097 15.8827C33.6431 15.8827 33.0681 15.8994 32.4847 15.9327C31.9181 15.9494 31.3764 15.991 30.8597 16.0577C30.3597 16.1077 29.9181 16.1827 29.5347 16.2827V15.7077C29.5347 15.291 29.6347 14.991 29.8347 14.8077C30.0347 14.6077 30.2931 14.4744 30.6097 14.4077C30.9764 14.3244 31.5097 14.266 32.2097 14.2327C32.9264 14.1994 33.6847 14.1827 34.4847 14.1827C35.5181 14.1827 36.3847 14.2327 37.0847 14.3327C37.7847 14.4327 38.3431 14.6327 38.7597 14.9327C39.1931 15.2327 39.5014 15.6744 39.6847 16.2577C39.8681 16.8244 39.9597 17.591 39.9597 18.5577V23.6077C39.7597 23.891 39.1764 24.0994 38.2097 24.2327C37.2597 24.3494 35.9264 24.4077 34.2097 24.4077ZM34.1847 23.1077C34.7514 23.1077 35.2181 23.0994 35.5847 23.0827C35.9681 23.0494 36.2764 22.9994 36.5097 22.9327C36.7431 22.866 36.9181 22.7827 37.0347 22.6827V19.5827C36.8681 19.5327 36.6014 19.491 36.2347 19.4577C35.8847 19.4077 35.5264 19.3744 35.1597 19.3577C34.7931 19.3244 34.4847 19.3077 34.2347 19.3077C33.7347 19.3077 33.3264 19.3494 33.0097 19.4327C32.6931 19.4994 32.4597 19.666 32.3097 19.9327C32.1764 20.1994 32.1097 20.616 32.1097 21.1827C32.1097 21.6327 32.1597 22.0077 32.2597 22.3077C32.3597 22.591 32.5597 22.7994 32.8597 22.9327C33.1597 23.0494 33.6014 23.1077 34.1847 23.1077Z" fill="#1C274C"/>
<path d="M15.5854 46.5835V40.7455C15.5854 40.5962 15.5901 40.4795 15.5994 40.3955C15.6087 40.3115 15.6507 40.2508 15.7254 40.2135C15.8001 40.1668 15.9167 40.1435 16.0754 40.1435H21.8994V40.9415H17.0274V42.8315H21.4934V43.6295H17.0274V46.5835H15.5854ZM26.1084 46.6675C25.6417 46.6675 25.2264 46.6348 24.8624 46.5695C24.5077 46.4948 24.1997 46.3595 23.9384 46.1635C23.6864 45.9675 23.495 45.6782 23.3644 45.2955C23.2337 44.9128 23.1684 44.4135 23.1684 43.7975C23.1684 43.1815 23.2337 42.6822 23.3644 42.2995C23.495 41.9168 23.6864 41.6275 23.9384 41.4315C24.1997 41.2355 24.5077 41.1048 24.8624 41.0395C25.2264 40.9648 25.6417 40.9275 26.1084 40.9275C26.5564 40.9275 26.9577 40.9648 27.3124 41.0395C27.6764 41.1048 27.9844 41.2355 28.2364 41.4315C28.4884 41.6275 28.6797 41.9168 28.8104 42.2995C28.9504 42.6822 29.0204 43.1815 29.0204 43.7975C29.0204 44.4228 28.9504 44.9268 28.8104 45.3095C28.6797 45.6922 28.4884 45.9815 28.2364 46.1775C27.9844 46.3642 27.6764 46.4948 27.3124 46.5695C26.9577 46.6348 26.5564 46.6675 26.1084 46.6675ZM26.1084 45.9675C26.4444 45.9675 26.729 45.9162 26.9624 45.8135C27.205 45.7108 27.387 45.5055 27.5084 45.1975C27.6297 44.8895 27.6904 44.4228 27.6904 43.7975C27.6904 43.1722 27.6297 42.7055 27.5084 42.3975C27.387 42.0895 27.205 41.8842 26.9624 41.7815C26.729 41.6788 26.4444 41.6275 26.1084 41.6275C25.7724 41.6275 25.483 41.6788 25.2404 41.7815C24.9977 41.8842 24.811 42.0895 24.6804 42.3975C24.559 42.7055 24.4984 43.1722 24.4984 43.7975C24.4984 44.4228 24.559 44.8895 24.6804 45.1975C24.811 45.5055 24.9977 45.7108 25.2404 45.8135C25.483 45.9162 25.7724 45.9675 26.1084 45.9675ZM31.0227 46.5835C30.7614 46.5835 30.6307 46.4528 30.6307 46.1915V41.3755C30.9107 41.2635 31.2887 41.1655 31.7647 41.0815C32.2407 40.9882 32.782 40.9415 33.3887 40.9415C33.986 40.9415 34.462 40.9788 34.8167 41.0535C35.1807 41.1282 35.456 41.2495 35.6427 41.4175C35.8294 41.5762 35.9507 41.7862 36.0067 42.0475C36.072 42.3088 36.1047 42.6308 36.1047 43.0135V46.0515C36.1047 46.1822 36.0907 46.2895 36.0627 46.3735C36.044 46.4575 35.9927 46.5135 35.9087 46.5415C35.834 46.5695 35.7174 46.5835 35.5587 46.5835H34.7887V42.7335C34.7887 42.3695 34.6767 42.1082 34.4527 41.9495C34.2287 41.7908 33.874 41.7115 33.3887 41.7115C33.2394 41.7115 33.0714 41.7255 32.8847 41.7535C32.698 41.7722 32.5207 41.8048 32.3527 41.8515C32.1847 41.8982 32.0494 41.9588 31.9467 42.0335V46.5835H31.0227ZM39.4943 46.6255C39.121 46.6255 38.827 46.5835 38.6123 46.4995C38.407 46.4155 38.2577 46.2662 38.1643 46.0515C38.071 45.8368 38.0243 45.5475 38.0243 45.1835V41.7115H37.4643V40.9975H38.0243V40.0735C38.0243 39.9055 38.0383 39.7842 38.0663 39.7095C38.0943 39.6255 38.141 39.5742 38.2063 39.5555C38.281 39.5275 38.3883 39.5135 38.5283 39.5135H39.3403C39.3403 39.5322 39.3403 39.5742 39.3403 39.6395C39.3403 39.6955 39.3403 39.7795 39.3403 39.8915V40.9975H40.6563V41.7115H39.3403V45.0575C39.3403 45.4215 39.3777 45.6828 39.4523 45.8415C39.527 45.9908 39.7043 46.0655 39.9843 46.0655C40.0777 46.0655 40.1803 46.0562 40.2923 46.0375C40.4137 46.0188 40.4977 46.0002 40.5443 45.9815V46.5275C40.4883 46.5368 40.367 46.5555 40.1803 46.5835C39.9937 46.6115 39.765 46.6255 39.4943 46.6255Z" fill="#1C274C"/>
</svg>
