<svg width="91" height="35" viewBox="0 0 91 35" fill="none" xmlns="http://www.w3.org/2000/svg">
<circle cx="43.6582" cy="5.92415" r="3.33333" stroke="#1C274C"/>
<path opacity="0.5" d="M50.3248 15.5073C50.3248 17.5784 50.3248 19.2573 43.6581 19.2573C36.9915 19.2573 36.9915 17.5784 36.9915 15.5073C36.9915 13.4363 39.9762 11.7573 43.6581 11.7573C47.34 11.7573 50.3248 13.4363 50.3248 15.5073Z" stroke="#1C274C"/>
<path d="M50.3986 11.3729L50.702 10.9754L50.3986 11.3729ZM51.1582 8.1271L50.8036 8.47962C50.8975 8.57402 51.0251 8.6271 51.1582 8.6271C51.2913 8.6271 51.4189 8.57402 51.5128 8.47962L51.1582 8.1271ZM51.9178 11.3729L51.6144 10.9754L51.9178 11.3729ZM50.702 10.9754C50.3042 10.6718 49.925 10.4143 49.621 10.0829C49.3342 9.77027 49.1582 9.43431 49.1582 9.00726H48.1582C48.1582 9.75721 48.4846 10.3234 48.8841 10.7589C49.2665 11.1757 49.7575 11.5126 50.0953 11.7703L50.702 10.9754ZM49.1582 9.00726C49.1582 8.61491 49.3868 8.29228 49.6887 8.1587C49.9631 8.03728 50.3706 8.04408 50.8036 8.47962L51.5128 7.77459C50.8208 7.07857 49.9784 6.93694 49.284 7.24424C48.6171 7.53938 48.1582 8.2226 48.1582 9.00726H49.1582ZM50.0953 11.7703C50.2206 11.8659 50.3748 11.9836 50.5358 12.0746C50.697 12.1659 50.9103 12.2575 51.1582 12.2575V11.2575C51.1561 11.2575 51.1194 11.2559 51.0282 11.2043C50.9368 11.1526 50.8363 11.0779 50.702 10.9754L50.0953 11.7703ZM52.2211 11.7703C52.5589 11.5126 53.0499 11.1757 53.4323 10.7589C53.8318 10.3234 54.1582 9.75721 54.1582 9.00726H53.1582C53.1582 9.43431 52.9822 9.77027 52.6954 10.0829C52.3914 10.4143 52.0123 10.6718 51.6144 10.9754L52.2211 11.7703ZM54.1582 9.00726C54.1582 8.2226 53.6993 7.53938 53.0324 7.24424C52.338 6.93694 51.4956 7.07857 50.8036 7.77459L51.5128 8.47962C51.9458 8.04408 52.3534 8.03728 52.6277 8.1587C52.9296 8.29228 53.1582 8.61491 53.1582 9.00726H54.1582ZM51.6144 10.9754C51.4801 11.0779 51.3796 11.1526 51.2882 11.2043C51.197 11.2559 51.1603 11.2575 51.1582 11.2575V12.2575C51.4061 12.2575 51.6194 12.1659 51.7806 12.0746C51.9416 11.9836 52.0958 11.8659 52.2211 11.7703L51.6144 10.9754Z" fill="#1C274C"/>
<path d="M21.4471 33.9241V27.2521C21.4471 27.0814 21.4524 26.9481 21.4631 26.8521C21.4737 26.7561 21.5217 26.6867 21.6071 26.6441C21.6924 26.5907 21.8257 26.5641 22.0071 26.5641H28.6631V27.4761H23.0951V29.6361H28.1991V30.5481H23.0951V33.9241H21.4471ZM31.5373 33.9241H30.5133C30.3533 33.9241 30.2307 33.8814 30.1453 33.7961C30.06 33.7107 30.0173 33.5507 30.0173 33.3161V27.8601C30.2733 27.7854 30.6307 27.7054 31.0893 27.6201C31.548 27.5347 32.0973 27.4921 32.7373 27.4921C33.3667 27.4921 33.8627 27.5347 34.2253 27.6201C34.588 27.6947 34.8547 27.8121 35.0253 27.9721C35.2067 28.1214 35.3187 28.3081 35.3613 28.5321C35.4147 28.7454 35.4413 28.9961 35.4413 29.2841H34.0013L33.9853 29.0601C33.9853 28.8041 33.916 28.6227 33.7773 28.5161C33.6493 28.3987 33.4947 28.3241 33.3133 28.2921C33.132 28.2601 32.9507 28.2441 32.7693 28.2441C32.492 28.2441 32.2413 28.2707 32.0173 28.3241C31.804 28.3774 31.644 28.4467 31.5373 28.5321V33.9241ZM38.0671 33.9881C37.5017 33.9881 37.1177 33.8547 36.9151 33.5881C36.7124 33.3107 36.6111 32.9001 36.6111 32.3561L36.6271 27.5401H38.1151V32.2761C38.1151 32.6814 38.1631 32.9587 38.2591 33.1081C38.3657 33.2574 38.5417 33.3321 38.7871 33.3321C38.8831 33.3321 38.9897 33.3214 39.1071 33.3001C39.2244 33.2787 39.2991 33.2627 39.3311 33.2521V33.8601C39.2884 33.8707 39.2191 33.8867 39.1231 33.9081C39.0271 33.9294 38.8937 33.9454 38.7231 33.9561C38.5524 33.9774 38.3337 33.9881 38.0671 33.9881ZM37.3951 26.6601C37.1497 26.6601 36.9631 26.6281 36.8351 26.5641C36.7177 26.4894 36.6591 26.3561 36.6591 26.1641C36.6591 25.9721 36.7177 25.8441 36.8351 25.7801C36.9524 25.7054 37.1391 25.6681 37.3951 25.6681C37.6404 25.6681 37.8164 25.7054 37.9231 25.7801C38.0404 25.8441 38.0991 25.9721 38.0991 26.1641C38.0991 26.3561 38.0404 26.4894 37.9231 26.5641C37.8164 26.6281 37.6404 26.6601 37.3951 26.6601ZM43.467 34.0201C42.8163 34.0201 42.267 33.9774 41.819 33.8921C41.3816 33.8067 41.0296 33.6467 40.763 33.4121C40.507 33.1774 40.3256 32.8521 40.219 32.4361C40.1123 32.0201 40.059 31.4814 40.059 30.8201C40.059 30.0307 40.1603 29.3907 40.363 28.9001C40.5656 28.4094 40.923 28.0521 41.435 27.8281C41.9576 27.5934 42.683 27.4761 43.611 27.4761C44.3363 27.4761 44.9123 27.5667 45.339 27.7481C45.7763 27.9187 46.091 28.1907 46.283 28.5641C46.475 28.9374 46.571 29.4121 46.571 29.9881V31.0121H42.075C42.075 30.8414 42.1123 30.7027 42.187 30.5961C42.2616 30.4894 42.4003 30.4361 42.603 30.4361H45.227L45.211 30.0201C45.2003 29.4227 45.0723 28.9854 44.827 28.7081C44.5923 28.4307 44.1656 28.2921 43.547 28.2921C43.035 28.2921 42.635 28.3721 42.347 28.5321C42.059 28.6921 41.8563 28.9534 41.739 29.3161C41.6216 29.6681 41.563 30.1587 41.563 30.7881C41.563 31.4387 41.627 31.9347 41.755 32.2761C41.8936 32.6067 42.1176 32.8307 42.427 32.9481C42.747 33.0654 43.1896 33.1241 43.755 33.1241C43.9576 33.1241 44.1923 33.1187 44.459 33.1081C44.7363 33.0974 45.0136 33.0814 45.291 33.0601C45.579 33.0387 45.835 33.0121 46.059 32.9801C46.283 32.9481 46.4323 32.9161 46.507 32.8841V33.1081C46.507 33.2254 46.4803 33.3427 46.427 33.4601C46.3736 33.5774 46.2616 33.6734 46.091 33.7481C45.867 33.8547 45.5363 33.9241 45.099 33.9561C44.6723 33.9987 44.1283 34.0201 43.467 34.0201ZM48.4185 33.9241C48.1198 33.9241 47.9705 33.7747 47.9705 33.4761V27.9721C48.2905 27.8441 48.7225 27.7321 49.2665 27.6361C49.8105 27.5294 50.4291 27.4761 51.1225 27.4761C51.8051 27.4761 52.3491 27.5187 52.7545 27.6041C53.1705 27.6894 53.4851 27.8281 53.6985 28.0201C53.9118 28.2014 54.0505 28.4414 54.1145 28.7401C54.1891 29.0387 54.2265 29.4067 54.2265 29.8441V33.3161C54.2265 33.4654 54.2105 33.5881 54.1785 33.6841C54.1571 33.7801 54.0985 33.8441 54.0025 33.8761C53.9171 33.9081 53.7838 33.9241 53.6025 33.9241H52.7225V29.5241C52.7225 29.1081 52.5945 28.8094 52.3385 28.6281C52.0825 28.4467 51.6771 28.3561 51.1225 28.3561C50.9518 28.3561 50.7598 28.3721 50.5465 28.4041C50.3331 28.4254 50.1305 28.4627 49.9385 28.5161C49.7465 28.5694 49.5918 28.6387 49.4745 28.7241V33.9241H48.4185ZM55.6683 30.7081C55.6683 29.8441 55.7857 29.1827 56.0203 28.7241C56.255 28.2547 56.5963 27.9347 57.0443 27.7641C57.4923 27.5827 58.031 27.4921 58.6603 27.4921C58.8523 27.4921 59.071 27.5027 59.3163 27.5241C59.5723 27.5347 59.823 27.5561 60.0683 27.5881C60.3137 27.6201 60.5323 27.6574 60.7243 27.7001C60.9163 27.7321 61.0497 27.7694 61.1243 27.8121L60.7243 28.0041V25.8441H62.1963L62.1803 30.7081C62.1803 31.4334 62.127 32.0147 62.0203 32.4521C61.9137 32.8787 61.7377 33.1987 61.4923 33.4121C61.247 33.6254 60.9057 33.7694 60.4683 33.8441C60.031 33.9187 59.487 33.9561 58.8363 33.9561C58.2283 33.9561 57.7163 33.9187 57.3003 33.8441C56.895 33.7587 56.5697 33.6041 56.3243 33.3801C56.0897 33.1561 55.919 32.8307 55.8123 32.4041C55.7163 31.9774 55.6683 31.4121 55.6683 30.7081ZM58.8043 33.1401C59.2203 33.1401 59.5563 33.1134 59.8123 33.0601C60.0683 32.9961 60.2603 32.8841 60.3883 32.7241C60.527 32.5641 60.6177 32.3401 60.6603 32.0521C60.703 31.7534 60.7243 31.3694 60.7243 30.9001L60.7083 28.4521C60.6017 28.4414 60.4577 28.4307 60.2763 28.4201C60.095 28.4094 59.903 28.4041 59.7003 28.4041C59.4977 28.3934 59.311 28.3881 59.1403 28.3881C58.6603 28.3881 58.2763 28.4521 57.9883 28.5801C57.7003 28.6974 57.4923 28.9267 57.3643 29.2681C57.2363 29.6094 57.1723 30.1001 57.1723 30.7401C57.1723 31.4227 57.2203 31.9347 57.3163 32.2761C57.423 32.6174 57.5937 32.8467 57.8283 32.9641C58.0737 33.0814 58.399 33.1401 58.8043 33.1401ZM66.247 33.9881C66.0443 33.9881 65.8043 33.9827 65.527 33.9721C65.2496 33.9614 64.967 33.9401 64.679 33.9081C64.4016 33.8654 64.151 33.8067 63.927 33.7321C63.7883 33.7001 63.6763 33.6574 63.591 33.6041C63.5163 33.5507 63.4576 33.4601 63.415 33.3321C63.383 33.1934 63.367 32.9854 63.367 32.7081C63.6336 32.8254 63.9323 32.9214 64.263 32.9961C64.5936 33.0601 64.919 33.1027 65.239 33.1241C65.5696 33.1454 65.8523 33.1561 66.087 33.1561C66.375 33.1561 66.6576 33.1454 66.935 33.1241C67.223 33.1027 67.4843 33.0547 67.719 32.9801C67.9643 32.9054 68.1563 32.7881 68.295 32.6281C68.4443 32.4681 68.519 32.2494 68.519 31.9721C68.519 31.5987 68.423 31.3587 68.231 31.2521C68.039 31.1454 67.7723 31.0921 67.431 31.0921H65.751C65.335 31.0921 64.9456 31.0654 64.583 31.0121C64.231 30.9587 63.943 30.8201 63.719 30.5961C63.5056 30.3721 63.399 29.9934 63.399 29.4601C63.399 28.8734 63.543 28.4361 63.831 28.1481C64.119 27.8601 64.5243 27.6734 65.047 27.5881C65.5803 27.5027 66.2043 27.4601 66.919 27.4601C67.1856 27.4601 67.495 27.4654 67.847 27.4761C68.2096 27.4867 68.5456 27.5187 68.855 27.5721C69.111 27.5934 69.3136 27.6361 69.463 27.7001C69.623 27.7534 69.7403 27.8334 69.815 27.9401C69.8896 28.0361 69.927 28.1854 69.927 28.3881V28.7561C69.831 28.6387 69.6656 28.5534 69.431 28.5001C69.1963 28.4361 68.919 28.3881 68.599 28.3561C68.2896 28.3241 67.9643 28.3081 67.623 28.3081C67.2923 28.2974 66.983 28.2921 66.695 28.2921C66.3856 28.2921 66.087 28.3134 65.799 28.3561C65.5216 28.3881 65.2976 28.4787 65.127 28.6281C64.9563 28.7774 64.871 29.0227 64.871 29.3641C64.871 29.6307 64.9243 29.8227 65.031 29.9401C65.1376 30.0574 65.287 30.1321 65.479 30.1641C65.671 30.1961 65.8896 30.2121 66.135 30.2121H67.895C68.3216 30.2121 68.695 30.2494 69.015 30.3241C69.335 30.3987 69.5856 30.5587 69.767 30.8041C69.9483 31.0494 70.039 31.4334 70.039 31.9561C70.039 32.5534 69.8736 32.9961 69.543 33.2841C69.2123 33.5721 68.7643 33.7641 68.199 33.8601C67.6336 33.9454 66.983 33.9881 66.247 33.9881Z" fill="#1C274C" fill-opacity="0.6"/>
</svg>
