<svg width="21" height="21" viewBox="0 0 21 21" fill="none" xmlns="http://www.w3.org/2000/svg">
<circle cx="8.65804" cy="5.92415" r="3.33333" stroke="#1C274C"/>
<path opacity="0.5" d="M15.3247 15.5073C15.3247 17.5784 15.3247 19.2573 8.658 19.2573C1.99133 19.2573 1.99133 17.5784 1.99133 15.5073C1.99133 13.4363 4.9761 11.7573 8.658 11.7573C12.3399 11.7573 15.3247 13.4363 15.3247 15.5073Z" stroke="#1C274C"/>
<path d="M15.3985 11.3729L15.7019 10.9754L15.3985 11.3729ZM16.1581 8.1271L15.8035 8.47962C15.8973 8.57402 16.025 8.6271 16.1581 8.6271C16.2912 8.6271 16.4188 8.57402 16.5127 8.47962L16.1581 8.1271ZM16.9176 11.3729L16.6143 10.9754L16.9176 11.3729ZM15.7019 10.9754C15.304 10.6718 14.9249 10.4143 14.6209 10.0829C14.3341 9.77027 14.1581 9.43431 14.1581 9.00726H13.1581C13.1581 9.75721 13.4845 10.3234 13.884 10.7589C14.2663 11.1757 14.7574 11.5126 15.0952 11.7703L15.7019 10.9754ZM14.1581 9.00726C14.1581 8.61491 14.3867 8.29228 14.6886 8.1587C14.9629 8.03728 15.3705 8.04408 15.8035 8.47962L16.5127 7.77459C15.8207 7.07857 14.9783 6.93694 14.2839 7.24424C13.617 7.53938 13.1581 8.2226 13.1581 9.00726H14.1581ZM15.0952 11.7703C15.2204 11.8659 15.3747 11.9836 15.5357 12.0746C15.6969 12.1659 15.9102 12.2575 16.1581 12.2575V11.2575C16.156 11.2575 16.1193 11.2559 16.0281 11.2043C15.9367 11.1526 15.8362 11.0779 15.7019 10.9754L15.0952 11.7703ZM17.221 11.7703C17.5587 11.5126 18.0498 11.1757 18.4322 10.7589C18.8317 10.3234 19.1581 9.75721 19.1581 9.00726H18.1581C18.1581 9.43431 17.982 9.77027 17.6952 10.0829C17.3913 10.4143 17.0121 10.6718 16.6143 10.9754L17.221 11.7703ZM19.1581 9.00726C19.1581 8.2226 18.6992 7.53938 18.0323 7.24424C17.3379 6.93694 16.4955 7.07857 15.8035 7.77459L16.5127 8.47962C16.9457 8.04408 17.3532 8.03728 17.6276 8.1587C17.9294 8.29228 18.1581 8.61491 18.1581 9.00726H19.1581ZM16.6143 10.9754C16.48 11.0779 16.3795 11.1526 16.2881 11.2043C16.1969 11.2559 16.1602 11.2575 16.1581 11.2575V12.2575C16.406 12.2575 16.6193 12.1659 16.7805 12.0746C16.9415 11.9836 17.0957 11.8659 17.221 11.7703L16.6143 10.9754Z" fill="#1C274C"/>
</svg>
