<svg width="91" height="43" viewBox="0 0 91 43" fill="none" xmlns="http://www.w3.org/2000/svg">
<rect x="0.21936" y="0.00195312" width="90" height="43" rx="7" fill="#1BC469"/>
<path opacity="0.5" d="M37.8248 13.6047C37.8248 10.94 37.8248 9.60772 38.1394 9.15949C38.454 8.71127 39.7068 8.28245 42.2123 7.42481L42.6896 7.26142C43.9956 6.81435 44.6487 6.59082 45.3248 6.59082C46.001 6.59082 46.654 6.81435 47.9601 7.26142L48.4374 7.42481C50.9429 8.28245 52.1956 8.71127 52.5102 9.15949C52.8248 9.60772 52.8248 10.94 52.8248 13.6047C52.8248 14.0072 52.8248 14.4437 52.8248 14.917C52.8248 19.6153 49.2924 21.8954 47.076 22.8635C46.4748 23.1262 46.1742 23.2575 45.3248 23.2575C44.4754 23.2575 44.1748 23.1262 43.5736 22.8635C41.3573 21.8954 37.8248 19.6153 37.8248 14.917C37.8248 14.4437 37.8248 14.0072 37.8248 13.6047Z" stroke="white"/>
<path d="M49.4915 14.924C49.4915 15.4712 49.3837 16.013 49.1743 16.5185C48.9649 17.024 48.658 17.4834 48.2711 17.8703C47.8842 18.2572 47.4248 18.5641 46.9193 18.7735C46.4138 18.9829 45.872 19.0907 45.3248 19.0907C44.7776 19.0907 44.2358 18.9829 43.7303 18.7735C43.2248 18.5641 42.7654 18.2572 42.3785 17.8703C41.9916 17.4834 41.6847 17.024 41.4753 16.5185C41.2659 16.013 41.1581 15.4712 41.1581 14.924C41.1581 14.3768 41.2659 13.835 41.4753 13.3295C41.6847 12.824 41.9916 12.3646 42.3785 11.9777C42.7654 11.5908 43.2248 11.2839 43.7303 11.0745C44.2358 10.8651 44.7776 10.7573 45.3248 10.7573C45.872 10.7573 46.4138 10.8651 46.9193 11.0745C47.4248 11.2839 47.8842 11.5908 48.2711 11.9777C48.658 12.3646 48.9649 12.824 49.1743 13.3295C49.3837 13.835 49.4915 14.3768 49.4915 14.924L49.4915 14.924Z" stroke="white"/>
<path d="M46.8646 16.5185C46.9484 16.013 46.9915 15.4712 46.9915 14.924C46.9915 14.3768 46.9484 13.835 46.8646 13.3295C46.7808 12.824 46.6581 12.3646 46.5033 11.9777C46.3486 11.5908 46.1648 11.2839 45.9626 11.0745C45.7604 10.8651 45.5437 10.7573 45.3248 10.7573C45.1059 10.7573 44.8892 10.8651 44.687 11.0745C44.4848 11.2839 44.3011 11.5908 44.1463 11.9777C43.9915 12.3646 43.8688 12.824 43.785 13.3295C43.7013 13.835 43.6581 14.3768 43.6581 14.924C43.6581 15.4712 43.7013 16.013 43.785 16.5185C43.8688 17.024 43.9915 17.4834 44.1463 17.8703C44.3011 18.2572 44.4848 18.5641 44.687 18.7735C44.8892 18.9829 45.1059 19.0907 45.3248 19.0907C45.5437 19.0907 45.7604 18.9829 45.9626 18.7735C46.1648 18.5641 46.3486 18.2572 46.5033 17.8703C46.6581 17.4834 46.7808 17.024 46.8646 16.5185Z" stroke="white"/>
<path d="M41.1581 14.9241H49.4915" stroke="white" stroke-linecap="round"/>
<path d="M26.6171 37.9241C26.6171 36.8574 26.6171 35.7961 26.6171 34.7401C26.6171 33.6734 26.6171 32.6067 26.6171 31.5401C26.6171 31.1774 26.6811 30.9267 26.8091 30.7881C26.9477 30.6494 27.1877 30.5747 27.5291 30.5641C27.9877 30.5534 28.4837 30.5481 29.0171 30.5481C29.5504 30.5481 30.0784 30.5481 30.6011 30.5481C31.1344 30.5481 31.6144 30.5587 32.0411 30.5801C32.4997 30.5907 32.8891 30.6761 33.2091 30.8361C33.5397 30.9854 33.7904 31.2201 33.9611 31.5401C34.1424 31.8494 34.2331 32.2547 34.2331 32.7561C34.2331 33.3214 34.1371 33.7854 33.9451 34.1481C33.7531 34.5107 33.4811 34.7774 33.1291 34.9481C32.7877 35.1081 32.3824 35.1881 31.9131 35.1881C31.3371 35.1774 30.7504 35.1721 30.1531 35.1721C29.5557 35.1721 28.9691 35.1721 28.3931 35.1721C28.3931 34.9267 28.3931 34.7454 28.3931 34.6281C28.4037 34.5001 28.4304 34.4147 28.4731 34.3721C28.5157 34.3187 28.5904 34.2921 28.6971 34.2921C28.8891 34.2921 29.1291 34.2921 29.4171 34.2921C29.7157 34.2921 30.0304 34.2921 30.3611 34.2921C30.6917 34.2921 30.9957 34.2921 31.2731 34.2921C31.5077 34.2921 31.7211 34.2494 31.9131 34.1641C32.1051 34.0681 32.2597 33.9081 32.3771 33.6841C32.4944 33.4601 32.5531 33.1561 32.5531 32.7721C32.5531 32.3774 32.4731 32.0734 32.3131 31.8601C32.1637 31.6361 31.9077 31.5134 31.5451 31.4921C31.2251 31.4601 30.8837 31.4441 30.5211 31.4441C30.1584 31.4441 29.8117 31.4494 29.4811 31.4601C29.1504 31.4601 28.8624 31.4654 28.6171 31.4761C28.5637 31.4761 28.4891 31.5027 28.3931 31.5561C28.3077 31.5987 28.2651 31.6894 28.2651 31.8281C28.2651 32.8414 28.2651 33.8547 28.2651 34.8681C28.2651 35.8814 28.2651 36.9001 28.2651 37.9241H26.6171ZM37.034 31.5401V35.8121C37.034 36.3027 37.1673 36.6494 37.434 36.8521C37.7006 37.0547 38.1166 37.1561 38.682 37.1561C39.29 37.1561 39.722 37.0494 39.978 36.8361C40.2446 36.6227 40.378 36.2814 40.378 35.8121V31.5401C40.3886 31.5401 40.4313 31.5401 40.506 31.5401C40.5913 31.5401 40.682 31.5401 40.778 31.5401C40.874 31.5401 40.9646 31.5401 41.05 31.5401C41.1353 31.5401 41.1886 31.5401 41.21 31.5401C41.3806 31.5401 41.514 31.5507 41.61 31.5721C41.706 31.5827 41.77 31.6307 41.802 31.7161C41.8446 31.7907 41.866 31.9187 41.866 32.1001V35.5881C41.866 36.1534 41.7806 36.6174 41.61 36.9801C41.4393 37.3321 41.1193 37.5934 40.65 37.7641C40.1913 37.9241 39.53 38.0041 38.666 38.0041C37.8553 38.0041 37.2206 37.9347 36.762 37.7961C36.314 37.6574 35.994 37.4227 35.802 37.0921C35.6206 36.7507 35.53 36.2867 35.53 35.7001V32.1001C35.53 31.8761 35.5673 31.7267 35.642 31.6521C35.7166 31.5774 35.866 31.5401 36.09 31.5401C36.25 31.5401 36.4046 31.5401 36.554 31.5401C36.714 31.5401 36.874 31.5401 37.034 31.5401ZM46.5897 37.9721C45.9497 37.9721 45.4217 37.9401 45.0057 37.8761C44.6004 37.8014 44.2857 37.6574 44.0617 37.4441C43.8484 37.2307 43.699 36.9161 43.6137 36.5001C43.539 36.0841 43.5017 35.5294 43.5017 34.8361L43.4857 29.8441H44.9577V31.5881C45.0004 31.5881 45.1017 31.5881 45.2617 31.5881C45.4217 31.5774 45.6084 31.5721 45.8217 31.5721C46.0457 31.5614 46.2644 31.5507 46.4777 31.5401C46.691 31.5294 46.8777 31.5241 47.0377 31.5241C47.8057 31.5241 48.403 31.6254 48.8297 31.8281C49.2564 32.0307 49.555 32.3667 49.7257 32.8361C49.907 33.3054 50.003 33.9401 50.0137 34.7401C50.0137 35.5081 49.9337 36.1107 49.7737 36.5481C49.6244 36.9854 49.4057 37.3054 49.1177 37.5081C48.8297 37.7107 48.4724 37.8387 48.0457 37.8921C47.619 37.9454 47.1337 37.9721 46.5897 37.9721ZM46.6057 37.1401C47.107 37.1401 47.491 37.0867 47.7577 36.9801C48.035 36.8627 48.227 36.6281 48.3337 36.2761C48.451 35.9241 48.5097 35.3907 48.5097 34.6761C48.499 34.0894 48.435 33.6307 48.3177 33.3001C48.2004 32.9694 48.0084 32.7347 47.7417 32.5961C47.4857 32.4467 47.139 32.3721 46.7017 32.3721C46.5844 32.3721 46.435 32.3774 46.2537 32.3881C46.0724 32.3881 45.891 32.3934 45.7097 32.4041C45.5284 32.4041 45.3684 32.4094 45.2297 32.4201C45.1017 32.4201 45.0164 32.4201 44.9737 32.4201V35.0121C44.9737 35.4814 44.9897 35.8547 45.0217 36.1321C45.0644 36.4094 45.139 36.6227 45.2457 36.7721C45.3524 36.9107 45.5124 37.0067 45.7257 37.0601C45.9497 37.1134 46.243 37.1401 46.6057 37.1401ZM53.101 37.9881C52.5356 37.9881 52.1303 37.8761 51.885 37.6521C51.6396 37.4174 51.517 37.0067 51.517 36.4201V30.4841C51.517 30.3134 51.5276 30.1854 51.549 30.1001C51.581 30.0041 51.6396 29.9401 51.725 29.9081C51.8103 29.8654 51.9383 29.8441 52.109 29.8441H53.037C53.037 29.8654 53.0263 29.9507 53.005 30.1001C52.9943 30.2494 52.989 30.4254 52.989 30.6281V36.2281C52.989 36.6227 53.037 36.9054 53.133 37.0761C53.229 37.2467 53.4103 37.3321 53.677 37.3321C53.7623 37.3321 53.8636 37.3214 53.981 37.3001C54.109 37.2787 54.189 37.2627 54.221 37.2521V37.8601C54.157 37.8707 54.045 37.8921 53.885 37.9241C53.725 37.9667 53.4636 37.9881 53.101 37.9881ZM56.6921 37.9881C56.1267 37.9881 55.7427 37.8547 55.5401 37.5881C55.3374 37.3107 55.2361 36.9001 55.2361 36.3561L55.2521 31.5401H56.7401V36.2761C56.7401 36.6814 56.7881 36.9587 56.8841 37.1081C56.9907 37.2574 57.1667 37.3321 57.4121 37.3321C57.5081 37.3321 57.6147 37.3214 57.7321 37.3001C57.8494 37.2787 57.9241 37.2627 57.9561 37.2521V37.8601C57.9134 37.8707 57.8441 37.8867 57.7481 37.9081C57.6521 37.9294 57.5187 37.9454 57.3481 37.9561C57.1774 37.9774 56.9587 37.9881 56.6921 37.9881ZM56.0201 30.6601C55.7747 30.6601 55.5881 30.6281 55.4601 30.5641C55.3427 30.4894 55.2841 30.3561 55.2841 30.1641C55.2841 29.9721 55.3427 29.8441 55.4601 29.7801C55.5774 29.7054 55.7641 29.6681 56.0201 29.6681C56.2654 29.6681 56.4414 29.7054 56.5481 29.7801C56.6654 29.8441 56.7241 29.9721 56.7241 30.1641C56.7241 30.3561 56.6654 30.4894 56.5481 30.5641C56.4414 30.6281 56.2654 30.6601 56.0201 30.6601ZM62.284 38.0201C61.42 38.0201 60.7213 37.9347 60.188 37.7641C59.6546 37.5934 59.2706 37.2787 59.036 36.8201C58.8013 36.3614 58.684 35.6894 58.684 34.8041C58.684 33.8867 58.8013 33.1881 59.036 32.7081C59.2706 32.2174 59.6546 31.8867 60.188 31.7161C60.7213 31.5347 61.42 31.4441 62.284 31.4441C62.5613 31.4441 62.8226 31.4547 63.068 31.4761C63.324 31.4974 63.6173 31.5347 63.948 31.5881C64.1293 31.6094 64.2733 31.6521 64.38 31.7161C64.4973 31.7801 64.5826 31.8761 64.636 32.0041C64.6893 32.1214 64.716 32.2974 64.716 32.5321C64.588 32.4787 64.4013 32.4307 64.156 32.3881C63.9106 32.3454 63.6493 32.3134 63.372 32.2921C63.0946 32.2707 62.8493 32.2601 62.636 32.2601C62.028 32.2601 61.5426 32.3401 61.18 32.5001C60.828 32.6494 60.5773 32.9001 60.428 33.2521C60.2893 33.6041 60.22 34.0894 60.22 34.7081C60.22 35.3267 60.2893 35.8174 60.428 36.1801C60.5773 36.5427 60.828 36.7987 61.18 36.9481C61.532 37.0974 62.0173 37.1721 62.636 37.1721C62.924 37.1721 63.2013 37.1614 63.468 37.1401C63.7346 37.1081 63.9746 37.0707 64.188 37.0281C64.412 36.9747 64.588 36.9267 64.716 36.8841V37.3161C64.716 37.5081 64.6093 37.6574 64.396 37.7641C64.1826 37.8601 63.8946 37.9241 63.532 37.9561C63.18 37.9987 62.764 38.0201 62.284 38.0201Z" fill="white"/>
</svg>
