<svg width="55" height="61" viewBox="0 0 55 61" fill="none" xmlns="http://www.w3.org/2000/svg">
<g opacity="0.5">
<rect y="0.118652" width="55" height="60" rx="10" fill="#D9D9D9"/>
</g>
<path opacity="0.5" d="M27.303 34.8684C20.2319 34.8684 16.6964 34.8684 14.4997 32.6717C12.303 30.475 12.303 26.9395 12.303 19.8684C12.303 12.7973 12.303 9.26181 14.4997 7.06511C16.6964 4.86841 20.2319 4.86841 27.303 4.86841C34.374 4.86841 37.9096 4.86841 40.1063 7.06511C42.303 9.26181 42.303 12.7973 42.303 19.8684C42.303 26.9395 42.303 30.475 40.1063 32.6717C37.9096 34.8684 34.374 34.8684 27.303 34.8684Z" fill="#1C274C"/>
<path fill-rule="evenodd" clip-rule="evenodd" d="M34.0569 10.4813C34.0569 9.58255 34.8124 8.854 35.7444 8.854H36.8694C37.8014 8.854 38.5569 9.58255 38.5569 10.4813C38.5569 11.38 37.8014 12.1085 36.8694 12.1085H35.7444C34.8124 12.1085 34.0569 11.38 34.0569 10.4813Z" fill="white"/>
<path fill-rule="evenodd" clip-rule="evenodd" d="M35.7444 8.854C34.8124 8.854 34.0569 9.58255 34.0569 10.4813C34.0569 11.38 34.8124 12.1085 35.7444 12.1085H36.8694C37.8014 12.1085 38.5569 11.38 38.5569 10.4813C38.5569 9.58255 37.8014 8.854 36.8694 8.854H35.7444Z" fill="#1C274C"/>
<path fill-rule="evenodd" clip-rule="evenodd" d="M27.303 12.7434C23.3679 12.7434 20.178 15.9334 20.178 19.8684C20.178 23.8034 23.3679 26.9934 27.303 26.9934C31.238 26.9934 34.428 23.8034 34.428 19.8684C34.428 15.9334 31.238 12.7434 27.303 12.7434ZM27.303 14.9934C24.6106 14.9934 22.428 17.176 22.428 19.8684C22.428 22.5608 24.6106 24.7434 27.303 24.7434C29.9954 24.7434 32.178 22.5608 32.178 19.8684C32.178 17.176 29.9954 14.9934 27.303 14.9934Z" fill="#1C274C"/>
<path d="M5.30076 50.8967C5.30076 50.234 5.37076 49.6927 5.51076 49.2727C5.65076 48.8434 5.87476 48.5074 6.18276 48.2647C6.50009 48.022 6.91076 47.854 7.41476 47.7607C7.92809 47.658 8.55342 47.6067 9.29076 47.6067C9.64542 47.6067 9.98142 47.6207 10.2988 47.6487C10.6254 47.6674 10.9614 47.7047 11.3068 47.7607C11.6148 47.8074 11.8154 47.882 11.9088 47.9847C12.0114 48.078 12.0628 48.2087 12.0628 48.3767V48.8387C11.8481 48.7454 11.5774 48.6707 11.2508 48.6147C10.9241 48.5494 10.5881 48.5027 10.2428 48.4747C9.90676 48.4374 9.60342 48.4187 9.33276 48.4187C8.71676 48.4187 8.21742 48.4887 7.83476 48.6287C7.46142 48.7687 7.19076 49.016 7.02276 49.3707C6.85476 49.7254 6.77076 50.234 6.77076 50.8967C6.77076 51.5594 6.85009 52.0727 7.00876 52.4367C7.17676 52.7914 7.45209 53.0387 7.83476 53.1787C8.22676 53.3187 8.75876 53.3887 9.43076 53.3887C9.69209 53.3887 9.97676 53.3747 10.2848 53.3467C10.5928 53.3094 10.9008 53.2627 11.2088 53.2067C11.5168 53.1507 11.8014 53.0854 12.0628 53.0107V53.4447C12.0628 53.594 12.0114 53.72 11.9088 53.8227C11.8154 53.9254 11.6054 54 11.2788 54.0467C10.9428 54.112 10.6068 54.154 10.2708 54.1727C9.93476 54.1914 9.59409 54.2007 9.24876 54.2007C8.49276 54.2007 7.85809 54.154 7.34476 54.0607C6.84076 53.9674 6.43942 53.7994 6.14076 53.5567C5.84209 53.314 5.62742 52.978 5.49676 52.5487C5.36609 52.1194 5.30076 51.5687 5.30076 50.8967ZM16.0767 54.2007C15.498 54.2007 15.0267 54.1727 14.6627 54.1167C14.2987 54.07 14.0187 53.9814 13.8227 53.8507C13.6267 53.72 13.4914 53.5427 13.4167 53.3187C13.3514 53.0947 13.3187 52.8147 13.3187 52.4787C13.3187 52.0027 13.37 51.6434 13.4727 51.4007C13.5847 51.1487 13.7714 50.976 14.0327 50.8827C14.3034 50.7894 14.6627 50.7427 15.1107 50.7427C15.344 50.7427 15.6007 50.7474 15.8807 50.7567C16.17 50.766 16.4454 50.78 16.7067 50.7987C16.9774 50.808 17.2107 50.822 17.4067 50.8407C17.612 50.8594 17.7474 50.8827 17.8127 50.9107C17.8127 50.5187 17.78 50.2107 17.7147 49.9867C17.6494 49.7627 17.542 49.5947 17.3927 49.4827C17.2527 49.3707 17.0754 49.296 16.8607 49.2587C16.646 49.2214 16.394 49.2027 16.1047 49.2027C15.7874 49.2027 15.47 49.212 15.1527 49.2307C14.8447 49.2494 14.5507 49.282 14.2707 49.3287C14 49.3754 13.776 49.436 13.5987 49.5107V49.2447C13.5987 49.03 13.6547 48.876 13.7667 48.7827C13.888 48.6894 14.0327 48.6287 14.2007 48.6007C14.3874 48.554 14.6627 48.5167 15.0267 48.4887C15.3907 48.4607 15.778 48.4514 16.1887 48.4607C16.7114 48.4607 17.1547 48.4887 17.5187 48.5447C17.892 48.5914 18.1907 48.694 18.4147 48.8527C18.648 49.0114 18.816 49.2494 18.9187 49.5667C19.0307 49.884 19.0867 50.3087 19.0867 50.8407V53.6967C19.0027 53.874 18.718 54.0047 18.2327 54.0887C17.7474 54.1634 17.0287 54.2007 16.0767 54.2007ZM16.0767 53.6127C16.45 53.6127 16.7534 53.6034 16.9867 53.5847C17.2294 53.5567 17.416 53.524 17.5467 53.4867C17.6774 53.44 17.766 53.384 17.8127 53.3187V51.3867C17.7287 51.3587 17.5794 51.3354 17.3647 51.3167C17.15 51.2887 16.926 51.2654 16.6927 51.2467C16.4594 51.228 16.2634 51.2187 16.1047 51.2187C15.7594 51.2187 15.4794 51.242 15.2647 51.2887C15.05 51.3354 14.896 51.4427 14.8027 51.6107C14.7094 51.7787 14.6627 52.04 14.6627 52.3947C14.6627 52.684 14.6954 52.9174 14.7607 53.0947C14.826 53.272 14.9567 53.4027 15.1527 53.4867C15.358 53.5707 15.666 53.6127 16.0767 53.6127ZM21.327 54.1167C21.1124 54.1167 20.9677 54.084 20.893 54.0187C20.8277 53.9534 20.795 53.8134 20.795 53.5987V48.9227C20.8977 48.8947 21.0284 48.8574 21.187 48.8107C21.355 48.764 21.5464 48.7174 21.761 48.6707C21.985 48.6147 22.2277 48.5727 22.489 48.5447C22.7597 48.5167 23.0397 48.5027 23.329 48.5027C23.665 48.5027 23.9544 48.5307 24.197 48.5867C24.4397 48.6334 24.6497 48.7267 24.827 48.8667C25.0044 48.9974 25.149 49.1887 25.261 49.4407L25.037 49.4267C25.1117 49.2494 25.2237 49.1 25.373 48.9787C25.5224 48.848 25.6904 48.75 25.877 48.6847C26.073 48.61 26.2737 48.5587 26.479 48.5307C26.6844 48.5027 26.8757 48.4887 27.053 48.4887C27.613 48.4887 28.0517 48.5447 28.369 48.6567C28.6957 48.7594 28.9244 48.9367 29.055 49.1887C29.195 49.4407 29.265 49.786 29.265 50.2247V53.6407C29.265 53.8367 29.2277 53.9674 29.153 54.0327C29.0877 54.0887 28.957 54.1167 28.761 54.1167H27.963C27.963 53.4634 27.963 52.81 27.963 52.1567C27.963 51.5034 27.963 50.8454 27.963 50.1827C27.9537 49.7814 27.8604 49.5107 27.683 49.3707C27.5057 49.2307 27.235 49.1607 26.871 49.1607C26.703 49.1607 26.5257 49.184 26.339 49.2307C26.1617 49.2774 26.0077 49.3427 25.877 49.4267C25.7557 49.5107 25.695 49.6087 25.695 49.7207V54.1167H24.379V49.8887C24.379 49.6647 24.2764 49.492 24.071 49.3707C23.8657 49.24 23.5997 49.1747 23.273 49.1747C23.077 49.1747 22.895 49.1934 22.727 49.2307C22.559 49.2587 22.419 49.3007 22.307 49.3567C22.195 49.4127 22.1297 49.4874 22.111 49.5807V54.1167H21.327ZM33.7868 54.2007C33.2175 54.2007 32.7368 54.1634 32.3448 54.0887C31.9622 54.014 31.6542 53.874 31.4208 53.6687C31.1968 53.4634 31.0382 53.1787 30.9448 52.8147C30.8515 52.4507 30.8048 51.9794 30.8048 51.4007C30.8048 50.71 30.8935 50.15 31.0708 49.7207C31.2482 49.2914 31.5608 48.9787 32.0088 48.7827C32.4662 48.5774 33.1008 48.4747 33.9128 48.4747C34.5475 48.4747 35.0515 48.554 35.4248 48.7127C35.8075 48.862 36.0828 49.1 36.2508 49.4267C36.4188 49.7534 36.5028 50.1687 36.5028 50.6727V51.5687H32.5688C32.5688 51.4194 32.6015 51.298 32.6668 51.2047C32.7322 51.1114 32.8535 51.0647 33.0308 51.0647H35.3268L35.3128 50.7007C35.3035 50.178 35.1915 49.7954 34.9768 49.5527C34.7715 49.31 34.3982 49.1887 33.8568 49.1887C33.4088 49.1887 33.0588 49.2587 32.8068 49.3987C32.5548 49.5387 32.3775 49.7674 32.2748 50.0847C32.1722 50.3927 32.1208 50.822 32.1208 51.3727C32.1208 51.942 32.1768 52.376 32.2888 52.6747C32.4102 52.964 32.6062 53.16 32.8768 53.2627C33.1568 53.3654 33.5442 53.4167 34.0388 53.4167C34.2162 53.4167 34.4215 53.412 34.6548 53.4027C34.8975 53.3934 35.1402 53.3794 35.3828 53.3607C35.6348 53.342 35.8588 53.3187 36.0548 53.2907C36.2508 53.2627 36.3815 53.2347 36.4468 53.2067V53.4027C36.4468 53.5054 36.4235 53.608 36.3768 53.7107C36.3302 53.8134 36.2322 53.8974 36.0828 53.9627C35.8868 54.056 35.5975 54.1167 35.2148 54.1447C34.8415 54.182 34.3655 54.2007 33.7868 54.2007ZM39.3374 54.1167H38.4414C38.3014 54.1167 38.194 54.0794 38.1194 54.0047C38.0447 53.93 38.0074 53.79 38.0074 53.5847V48.8107C38.2314 48.7454 38.544 48.6754 38.9454 48.6007C39.3467 48.526 39.8274 48.4887 40.3874 48.4887C40.938 48.4887 41.372 48.526 41.6894 48.6007C42.0067 48.666 42.24 48.7687 42.3894 48.9087C42.548 49.0394 42.646 49.2027 42.6834 49.3987C42.73 49.5854 42.7534 49.8047 42.7534 50.0567H41.4934L41.4794 49.8607C41.4794 49.6367 41.4187 49.478 41.2974 49.3847C41.1854 49.282 41.05 49.2167 40.8914 49.1887C40.7327 49.1607 40.574 49.1467 40.4154 49.1467C40.1727 49.1467 39.9534 49.17 39.7574 49.2167C39.5707 49.2634 39.4307 49.324 39.3374 49.3987V54.1167ZM46.6049 54.2007C46.0262 54.2007 45.5549 54.1727 45.1909 54.1167C44.8269 54.07 44.5469 53.9814 44.3509 53.8507C44.1549 53.72 44.0196 53.5427 43.9449 53.3187C43.8796 53.0947 43.8469 52.8147 43.8469 52.4787C43.8469 52.0027 43.8982 51.6434 44.0009 51.4007C44.1129 51.1487 44.2996 50.976 44.5609 50.8827C44.8316 50.7894 45.1909 50.7427 45.6389 50.7427C45.8722 50.7427 46.1289 50.7474 46.4089 50.7567C46.6982 50.766 46.9736 50.78 47.2349 50.7987C47.5056 50.808 47.7389 50.822 47.9349 50.8407C48.1402 50.8594 48.2756 50.8827 48.3409 50.9107C48.3409 50.5187 48.3082 50.2107 48.2429 49.9867C48.1776 49.7627 48.0702 49.5947 47.9209 49.4827C47.7809 49.3707 47.6036 49.296 47.3889 49.2587C47.1742 49.2214 46.9222 49.2027 46.6329 49.2027C46.3156 49.2027 45.9982 49.212 45.6809 49.2307C45.3729 49.2494 45.0789 49.282 44.7989 49.3287C44.5282 49.3754 44.3042 49.436 44.1269 49.5107V49.2447C44.1269 49.03 44.1829 48.876 44.2949 48.7827C44.4162 48.6894 44.5609 48.6287 44.7289 48.6007C44.9156 48.554 45.1909 48.5167 45.5549 48.4887C45.9189 48.4607 46.3062 48.4514 46.7169 48.4607C47.2396 48.4607 47.6829 48.4887 48.0469 48.5447C48.4202 48.5914 48.7189 48.694 48.9429 48.8527C49.1762 49.0114 49.3442 49.2494 49.4469 49.5667C49.5589 49.884 49.6149 50.3087 49.6149 50.8407V53.6967C49.5309 53.874 49.2462 54.0047 48.7609 54.0887C48.2756 54.1634 47.5569 54.2007 46.6049 54.2007ZM46.6049 53.6127C46.9782 53.6127 47.2816 53.6034 47.5149 53.5847C47.7576 53.5567 47.9442 53.524 48.0749 53.4867C48.2056 53.44 48.2942 53.384 48.3409 53.3187V51.3867C48.2569 51.3587 48.1076 51.3354 47.8929 51.3167C47.6782 51.2887 47.4542 51.2654 47.2209 51.2467C46.9876 51.228 46.7916 51.2187 46.6329 51.2187C46.2876 51.2187 46.0076 51.242 45.7929 51.2887C45.5782 51.3354 45.4242 51.4427 45.3309 51.6107C45.2376 51.7787 45.1909 52.04 45.1909 52.3947C45.1909 52.684 45.2236 52.9174 45.2889 53.0947C45.3542 53.272 45.4849 53.4027 45.6809 53.4867C45.8862 53.5707 46.1942 53.6127 46.6049 53.6127Z" fill="#1C274C"/>
</svg>
