<svg width="53" height="43" viewBox="0 0 53 43" fill="none" xmlns="http://www.w3.org/2000/svg">
<rect x="1.32861" y="0.00195312" width="50.6816" height="43" rx="7" fill="#F2F2F2"/>
<path d="M15.4237 5.27994C15.2734 4.93596 15.3491 4.53505 15.6144 4.26952C15.8798 4.004 16.2806 3.92801 16.6247 4.07802L36.5198 12.6037C36.8558 12.7473 37.0737 13.0775 37.0737 13.4429C37.0737 13.8082 36.8558 14.1384 36.5198 14.282L16.5964 22.7958C16.2541 22.9418 15.8573 22.8653 15.5939 22.6024C15.3304 22.3395 15.2529 21.943 15.3982 21.6003L18.2382 14.909C18.3751 14.5867 18.6843 14.3711 19.034 14.3541L21.2526 14.2455C21.7566 14.2488 22.1679 13.8428 22.1712 13.3388C22.1744 12.8348 21.7685 12.4235 21.2645 12.4203L18.9975 12.2825C18.6549 12.2614 18.353 12.0498 18.2163 11.7349L15.4237 5.27994Z" fill="#4CD964"/>
<path d="M7.29583 36.5569C7.5305 36.6956 7.8345 36.8022 8.20783 36.8769C8.59183 36.9409 8.9865 36.9836 9.39183 37.0049C9.79717 37.0156 10.1492 37.0209 10.4478 37.0209C10.5652 37.0209 10.6985 37.0209 10.8478 37.0209C11.0078 37.0102 11.1465 37.0049 11.2638 37.0049C11.6478 36.9942 11.9838 36.9516 12.2718 36.8769C12.5598 36.7916 12.7785 36.6529 12.9278 36.4609C13.0878 36.2689 13.1678 35.9969 13.1678 35.6449C13.1678 35.2076 13.0505 34.9249 12.8158 34.7969C12.5918 34.6689 12.2612 34.6049 11.8238 34.6049C11.6745 34.6049 11.5145 34.6049 11.3438 34.6049C11.1732 34.6049 10.9758 34.6049 10.7518 34.6049C10.5385 34.6049 10.2878 34.6049 9.99983 34.6049C9.67983 34.6049 9.35983 34.5889 9.03983 34.5569C8.71983 34.5249 8.43183 34.4556 8.17583 34.3489C7.91983 34.2316 7.71183 34.0502 7.55183 33.8049C7.39183 33.5489 7.31183 33.1916 7.31183 32.7329C7.31183 32.1996 7.40783 31.7782 7.59983 31.4689C7.79183 31.1596 8.0585 30.9356 8.39983 30.7969C8.75183 30.6476 9.15183 30.5516 9.59983 30.5089C10.0585 30.4662 10.5598 30.4449 11.1038 30.4449C11.4238 30.4449 11.7758 30.4502 12.1598 30.4609C12.5438 30.4716 12.9118 30.4982 13.2638 30.5409C13.6158 30.5729 13.8878 30.6316 14.0798 30.7169C14.3038 30.7382 14.4745 30.8076 14.5918 30.9249C14.7198 31.0316 14.7838 31.1702 14.7838 31.3409C14.7838 31.3729 14.7838 31.4262 14.7838 31.5009C14.7838 31.5756 14.7838 31.6449 14.7838 31.7089C14.7838 31.7729 14.7838 31.8209 14.7838 31.8529C14.6985 31.7462 14.5385 31.6662 14.3038 31.6129C14.0798 31.5489 13.8238 31.5009 13.5358 31.4689C13.2478 31.4369 12.9652 31.4156 12.6878 31.4049C12.4212 31.3836 12.1918 31.3729 11.9998 31.3729H10.9118C10.5492 31.3729 10.2238 31.4049 9.93583 31.4689C9.64783 31.5222 9.4185 31.6396 9.24783 31.8209C9.07717 31.9916 8.99183 32.2582 8.99183 32.6209C8.99183 32.8982 9.04517 33.1116 9.15183 33.2609C9.26917 33.3996 9.4345 33.4956 9.64783 33.5489C9.87183 33.5916 10.1332 33.6129 10.4318 33.6129C10.9225 33.6129 11.3385 33.6129 11.6798 33.6129C12.0212 33.6129 12.2825 33.6129 12.4638 33.6129C12.9438 33.6129 13.3652 33.6556 13.7278 33.7409C14.1012 33.8156 14.3892 33.9916 14.5918 34.2689C14.8052 34.5462 14.9118 34.9836 14.9118 35.5809C14.9118 36.1462 14.7892 36.5996 14.5438 36.9409C14.2985 37.2716 13.9625 37.5116 13.5358 37.6609C13.1092 37.7996 12.6185 37.8849 12.0638 37.9169C11.7332 37.9382 11.4132 37.9489 11.1038 37.9489C10.7945 37.9596 10.4692 37.9596 10.1278 37.9489C9.8185 37.9489 9.4985 37.9382 9.16783 37.9169C8.83717 37.8956 8.52783 37.8582 8.23983 37.8049C7.9625 37.7409 7.73317 37.6556 7.55183 37.5489C7.38117 37.4422 7.29583 37.2982 7.29583 37.1169V36.5569ZM17.0936 37.8689C16.8376 37.8689 16.6722 37.8316 16.5976 37.7569C16.5336 37.6822 16.5016 37.5276 16.5016 37.2929V29.8049H18.0056V31.6929C18.1336 31.6502 18.2989 31.6182 18.5016 31.5969C18.7149 31.5649 18.9389 31.5382 19.1736 31.5169C19.4189 31.4956 19.6429 31.4849 19.8456 31.4849C20.5176 31.4849 21.0509 31.5436 21.4456 31.6609C21.8402 31.7782 22.1336 31.9542 22.3256 32.1889C22.5282 32.4129 22.6616 32.6956 22.7256 33.0369C22.7896 33.3782 22.8216 33.7836 22.8216 34.2529V37.1329C22.8216 37.3462 22.8002 37.5062 22.7576 37.6129C22.7256 37.7196 22.6616 37.7889 22.5656 37.8209C22.4696 37.8529 22.3256 37.8689 22.1336 37.8689H21.3496V33.9649C21.3496 33.4849 21.2856 33.1222 21.1576 32.8769C21.0296 32.6316 20.8322 32.4662 20.5656 32.3809C20.3096 32.2849 19.9842 32.2369 19.5896 32.2369C19.4402 32.2369 19.2589 32.2476 19.0456 32.2689C18.8429 32.2796 18.6456 32.3009 18.4536 32.3329C18.2722 32.3542 18.1229 32.3916 18.0056 32.4449V37.8689H17.0936ZM27.398 37.9649C26.7366 37.9649 26.198 37.9329 25.782 37.8689C25.366 37.8156 25.046 37.7142 24.822 37.5649C24.598 37.4156 24.4433 37.2129 24.358 36.9569C24.2833 36.7009 24.246 36.3809 24.246 35.9969C24.246 35.4529 24.3046 35.0422 24.422 34.7649C24.55 34.4769 24.7633 34.2796 25.062 34.1729C25.3713 34.0662 25.782 34.0129 26.294 34.0129C26.5606 34.0129 26.854 34.0182 27.174 34.0289C27.5046 34.0396 27.8193 34.0556 28.118 34.0769C28.4273 34.0876 28.694 34.1036 28.918 34.1249C29.1526 34.1462 29.3073 34.1729 29.382 34.2049C29.382 33.7569 29.3446 33.4049 29.27 33.1489C29.1953 32.8929 29.0726 32.7009 28.902 32.5729C28.742 32.4449 28.5393 32.3596 28.294 32.3169C28.0486 32.2742 27.7606 32.2529 27.43 32.2529C27.0673 32.2529 26.7046 32.2636 26.342 32.2849C25.99 32.3062 25.654 32.3436 25.334 32.3969C25.0246 32.4502 24.7686 32.5196 24.566 32.6049V32.3009C24.566 32.0556 24.63 31.8796 24.758 31.7729C24.8966 31.6662 25.062 31.5969 25.254 31.5649C25.4673 31.5116 25.782 31.4689 26.198 31.4369C26.614 31.4049 27.0566 31.3942 27.526 31.4049C28.1233 31.4049 28.63 31.4369 29.046 31.5009C29.4726 31.5542 29.814 31.6716 30.07 31.8529C30.3366 32.0342 30.5286 32.3062 30.646 32.6689C30.774 33.0316 30.838 33.5169 30.838 34.1249V37.3889C30.742 37.5916 30.4166 37.7409 29.862 37.8369C29.3073 37.9222 28.486 37.9649 27.398 37.9649ZM27.398 37.2929C27.8246 37.2929 28.1713 37.2822 28.438 37.2609C28.7153 37.2289 28.9286 37.1916 29.078 37.1489C29.2273 37.0956 29.3286 37.0316 29.382 36.9569V34.7489C29.286 34.7169 29.1153 34.6902 28.87 34.6689C28.6246 34.6369 28.3686 34.6102 28.102 34.5889C27.8353 34.5676 27.6113 34.5569 27.43 34.5569C27.0353 34.5569 26.7153 34.5836 26.47 34.6369C26.2246 34.6902 26.0486 34.8129 25.942 35.0049C25.8353 35.1969 25.782 35.4956 25.782 35.9009C25.782 36.2316 25.8193 36.4982 25.894 36.7009C25.9686 36.9036 26.118 37.0529 26.342 37.1489C26.5766 37.2449 26.9286 37.2929 27.398 37.2929ZM33.9903 37.8689H32.9663C32.8063 37.8689 32.6837 37.8262 32.5983 37.7409C32.513 37.6556 32.4703 37.4956 32.4703 37.2609V31.8049C32.7263 31.7302 33.0837 31.6502 33.5423 31.5649C34.001 31.4796 34.5503 31.4369 35.1903 31.4369C35.8197 31.4369 36.3157 31.4796 36.6783 31.5649C37.041 31.6396 37.3077 31.7569 37.4783 31.9169C37.6597 32.0662 37.7717 32.2529 37.8143 32.4769C37.8677 32.6902 37.8943 32.9409 37.8943 33.2289H36.4543L36.4383 33.0049C36.4383 32.7489 36.369 32.5676 36.2303 32.4609C36.1023 32.3436 35.9477 32.2689 35.7663 32.2369C35.585 32.2049 35.4037 32.1889 35.2223 32.1889C34.945 32.1889 34.6943 32.2156 34.4703 32.2689C34.257 32.3222 34.097 32.3916 33.9903 32.4769V37.8689ZM42.2481 37.9649C41.5974 37.9649 41.0481 37.9222 40.6001 37.8369C40.1627 37.7516 39.8107 37.5916 39.5441 37.3569C39.2881 37.1222 39.1067 36.7969 39.0001 36.3809C38.8934 35.9649 38.8401 35.4262 38.8401 34.7649C38.8401 33.9756 38.9414 33.3356 39.1441 32.8449C39.3467 32.3542 39.7041 31.9969 40.2161 31.7729C40.7387 31.5382 41.4641 31.4209 42.3921 31.4209C43.1174 31.4209 43.6934 31.5116 44.1201 31.6929C44.5574 31.8636 44.8721 32.1356 45.0641 32.5089C45.2561 32.8822 45.3521 33.3569 45.3521 33.9329V34.9569H40.8561C40.8561 34.7862 40.8934 34.6476 40.9681 34.5409C41.0427 34.4342 41.1814 34.3809 41.3841 34.3809H44.0081L43.9921 33.9649C43.9814 33.3676 43.8534 32.9302 43.6081 32.6529C43.3734 32.3756 42.9467 32.2369 42.3281 32.2369C41.8161 32.2369 41.4161 32.3169 41.1281 32.4769C40.8401 32.6369 40.6374 32.8982 40.5201 33.2609C40.4027 33.6129 40.3441 34.1036 40.3441 34.7329C40.3441 35.3836 40.4081 35.8796 40.5361 36.2209C40.6747 36.5516 40.8987 36.7756 41.2081 36.8929C41.5281 37.0102 41.9707 37.0689 42.5361 37.0689C42.7387 37.0689 42.9734 37.0636 43.2401 37.0529C43.5174 37.0422 43.7947 37.0262 44.0721 37.0049C44.3601 36.9836 44.6161 36.9569 44.8401 36.9249C45.0641 36.8929 45.2134 36.8609 45.2881 36.8289V37.0529C45.2881 37.1702 45.2614 37.2876 45.2081 37.4049C45.1547 37.5222 45.0427 37.6182 44.8721 37.6929C44.6481 37.7996 44.3174 37.8689 43.8801 37.9009C43.4534 37.9436 42.9094 37.9649 42.2481 37.9649Z" fill="#1C274C" fill-opacity="0.6"/>
</svg>
