<svg width="23" height="19" viewBox="0 0 23 19" fill="none" xmlns="http://www.w3.org/2000/svg">
<path d="M0.423705 1.27994C0.273437 0.93596 0.349116 0.535053 0.614442 0.269525C0.879768 0.00399709 1.28062 -0.071987 1.62471 0.0780205L21.5198 8.60371C21.8558 8.74733 22.0737 9.07749 22.0737 9.44286C22.0737 9.80823 21.8558 10.1384 21.5198 10.282L1.59642 18.7958C1.25406 18.9418 0.857348 18.8653 0.593871 18.6024C0.330394 18.3395 0.252947 17.943 0.398152 17.6003L3.23822 10.909C3.37507 10.5867 3.68428 10.3711 4.03403 10.3541L6.2526 10.2455C6.75663 10.2488 7.16788 9.84285 7.17115 9.33882C7.17443 8.8348 6.76849 8.42355 6.26447 8.42027L3.99752 8.28247C3.65485 8.26141 3.353 8.04983 3.21632 7.73489L0.423705 1.27994Z" fill="#4CD964"/>
</svg>
