<svg width="31" height="31" viewBox="0 0 31 31" fill="none" xmlns="http://www.w3.org/2000/svg">
<path opacity="0.5" fill-rule="evenodd" clip-rule="evenodd" d="M0.50708 15.9426C0.50708 14.0875 0.50708 12.4757 0.546747 11.0676H30.4674C30.5071 12.4757 30.5071 14.0875 30.5071 15.9426C30.5071 23.0137 30.5071 26.5492 28.3104 28.7459C26.1137 30.9426 22.5782 30.9426 15.5071 30.9426C8.43602 30.9426 4.90048 30.9426 2.70378 28.7459C0.50708 26.5492 0.50708 23.0137 0.50708 15.9426Z" fill="#1C274C"/>
<path d="M20.0071 19.6926C20.0071 18.7426 19.0141 18.1019 17.028 16.8204C15.0149 15.5215 14.0083 14.872 13.2577 15.3489C12.5071 15.8258 12.5071 17.1147 12.5071 19.6926C12.5071 22.2705 12.5071 23.5595 13.2577 24.0364C14.0083 24.5132 15.0149 23.8637 17.0281 22.5648C19.0141 21.2834 20.0071 20.6427 20.0071 19.6926Z" fill="#1C274C"/>
<path d="M15.5068 0.942627C18.2747 0.942627 20.5008 0.942627 22.317 1.07437L17.1548 8.81767H10.1089L15.3589 0.942627H15.5068Z" fill="#1C274C"/>
<path d="M2.70352 3.13933C4.58207 1.26078 7.43973 0.988705 12.6503 0.9493L7.40474 8.81767H0.663086C0.88396 6.17152 1.41702 4.42583 2.70352 3.13933Z" fill="#1C274C"/>
<path d="M30.3506 8.81767C30.1297 6.17152 29.5966 4.42583 28.3102 3.13933C27.4142 2.24334 26.2954 1.71281 24.8049 1.39867L19.8589 8.81767H30.3506Z" fill="#1C274C"/>
</svg>
