<svg width="31" height="31" viewBox="0 0 31 31" fill="none" xmlns="http://www.w3.org/2000/svg">
<path d="M24.1205 15.8215C24.1205 16.9295 23.1336 17.8278 21.9161 17.8278C20.6987 17.8278 19.7117 16.9295 19.7117 15.8215C19.7117 14.7135 20.6987 13.8152 21.9161 13.8152C23.1336 13.8152 24.1205 14.7135 24.1205 15.8215Z" fill="#1C274C"/>
<path fill-rule="evenodd" clip-rule="evenodd" d="M25.5223 8.98051C24.1083 8.79951 22.2858 8.79953 20.0142 8.79956H10.5918C8.32016 8.79953 6.49764 8.79951 5.08362 8.98051C3.62068 9.16778 2.40223 9.56961 1.49637 10.5113C0.590506 11.453 0.313897 12.6053 0.303294 13.9498C0.293045 15.2494 0.533941 16.8936 0.834194 18.9429L1.4433 23.1006C1.67798 24.7027 1.86793 25.9994 2.16324 27.0148C2.47064 28.0717 2.92446 28.948 3.77603 29.6266C4.62759 30.3051 5.64193 30.5987 6.83366 30.7364C7.97855 30.8686 9.41593 30.8686 11.1918 30.8685H19.4141C21.19 30.8686 22.6274 30.8686 23.7723 30.7364C24.964 30.5987 25.9784 30.3051 26.8299 29.6266C27.6815 28.948 28.1353 28.0717 28.4427 27.0148C28.738 25.9994 28.928 24.7027 29.1627 23.1005L29.7718 18.9429C30.072 16.8936 30.3129 15.2494 30.3027 13.9498C30.2921 12.6053 30.0155 11.453 29.1096 10.5113C28.2037 9.56961 26.9853 9.16778 25.5223 8.98051ZM5.39064 10.9672C4.17912 11.1223 3.56635 11.4052 3.15491 11.8329C2.74347 12.2606 2.5164 12.8508 2.50762 13.9642C2.49861 15.1062 2.71635 16.6102 3.03068 18.7558L3.11403 19.3248L3.73334 18.9165C5.33149 17.8631 7.69277 17.9149 9.21258 19.0598L14.8531 23.309C15.3862 23.7106 16.3048 23.7856 16.9678 23.4346L17.3599 23.2271C19.2354 22.2341 21.7489 22.3388 23.4795 23.5122L26.5326 25.5822C26.6831 24.8388 26.818 23.9249 26.9874 22.7684L27.5753 18.7558C27.8896 16.6102 28.1074 15.1062 28.0983 13.9642C28.0896 12.8508 27.8625 12.2606 27.451 11.8329C27.0396 11.4052 26.4268 11.1223 25.2153 10.9672C23.9728 10.8082 22.306 10.8058 19.9276 10.8058H10.6783C8.29999 10.8058 6.63315 10.8082 5.39064 10.9672Z" fill="#1C274C"/>
<g opacity="0.7">
<path d="M6.76901 4.61841C4.68308 4.61841 2.97268 5.87802 2.40189 7.54907C2.38999 7.58391 2.37858 7.61892 2.36768 7.6541C2.9649 7.47325 3.58645 7.3551 4.21565 7.27443C5.83621 7.06668 7.88422 7.06679 10.2633 7.06691L10.4409 7.06692L20.6014 7.06691C22.9805 7.06679 25.0285 7.06668 26.649 7.27443C27.2782 7.3551 27.8998 7.47325 28.497 7.6541C28.4861 7.61892 28.4747 7.58391 28.4628 7.54907C27.892 5.87802 26.1816 4.61841 24.0957 4.61841H6.76901Z" fill="#1C274C"/>
</g>
<g opacity="0.4">
<path d="M10.068 0.868419H20.5382C20.8869 0.868332 21.1543 0.868266 21.388 0.891128C23.0497 1.05368 24.4099 2.05277 24.9866 3.39855H5.61963C6.1964 2.05277 7.55653 1.05368 9.21826 0.891128C9.45197 0.868266 9.71933 0.868332 10.068 0.868419Z" fill="#1C274C"/>
</g>
</svg>
