<svg width="33" height="32" viewBox="0 0 33 32" fill="none" xmlns="http://www.w3.org/2000/svg">
<path opacity="0.5" fill-rule="evenodd" clip-rule="evenodd" d="M1.5 29.7985C1.5 29.0705 2.07563 28.4802 2.78571 28.4802H30.2143C30.9244 28.4802 31.5 29.0705 31.5 29.7985C31.5 30.5266 30.9244 31.1168 30.2143 31.1168H2.78571C2.07563 31.1168 1.5 30.5266 1.5 29.7985Z" fill="#1BC469" stroke="#1BC469" stroke-width="1.5" stroke-linecap="round"/>
<path opacity="0.5" d="M26.6852 8.82147C28.4405 7.05934 28.4405 4.20237 26.6852 2.44025C24.9298 0.678121 22.0838 0.678121 20.3284 2.44025L19.3145 3.45807C19.3284 3.50016 19.3428 3.54283 19.3577 3.58605C19.7294 4.66136 20.4306 6.071 21.7497 7.39516C23.0687 8.71933 24.473 9.42322 25.5441 9.79629C25.587 9.81122 25.6293 9.82561 25.6711 9.83949L26.6852 8.82147Z" fill="#1BC469" stroke="#1BC469" stroke-width="1.20026"/>
<path d="M19.3576 3.41235L19.314 3.45618C19.3279 3.49827 19.3423 3.54094 19.3572 3.58416C19.7289 4.65947 20.43 6.06911 21.7491 7.39327C23.0682 8.71743 24.4724 9.42133 25.5436 9.7944C25.5861 9.8092 25.6281 9.82347 25.6695 9.83724L15.8846 19.6598C15.2249 20.322 14.895 20.6532 14.5313 20.938C14.1022 21.2739 13.638 21.5619 13.1468 21.7969C12.7305 21.9961 12.2879 22.1442 11.4028 22.4404L6.73539 24.0022C6.29982 24.1479 5.81961 24.0341 5.49496 23.7082C5.1703 23.3823 5.05694 22.9002 5.20213 22.463L6.75793 17.7776C7.05297 16.8891 7.20048 16.4449 7.39892 16.0269C7.63301 15.5338 7.91991 15.0678 8.25455 14.6371C8.53822 14.272 8.86807 13.9409 9.52771 13.2787L19.3576 3.41235Z" fill="#1BC469" stroke="#1BC469" stroke-width="1.20026"/>
</svg>
