<svg width="40" height="40" viewBox="0 0 40 40" fill="none" xmlns="http://www.w3.org/2000/svg">
<path d="M0 11.2C0 7.27963 0 5.31945 0.762954 3.82207C1.43407 2.50493 2.50493 1.43407 3.82207 0.762954C5.31945 0 7.27963 0 11.2 0H28.8C32.7204 0 34.6806 0 36.1779 0.762954C37.4951 1.43407 38.5659 2.50493 39.237 3.82207C40 5.31945 40 7.27963 40 11.2V28.8C40 32.7204 40 34.6806 39.237 36.1779C38.5659 37.4951 37.4951 38.5659 36.1779 39.237C34.6806 40 32.7204 40 28.8 40H11.2C7.27963 40 5.31945 40 3.82207 39.237C2.50493 38.5659 1.43407 37.4951 0.762954 36.1779C0 34.6806 0 32.7204 0 28.8V11.2Z" fill="white"/>
<path opacity="0.4" fill-rule="evenodd" clip-rule="evenodd" d="M15.0477 9.41093H24.0058V7.3252H15.0477V9.41093ZM13.0099 7.41085V7.42123C12.3106 7.48483 11.6189 7.62371 10.9458 7.83267V7.82488C10.9258 7.8333 10.907 7.83977 10.8889 7.84598C10.8652 7.85414 10.8428 7.86185 10.8207 7.8729C10.767 7.88588 10.7144 7.90535 10.6644 7.93001C10.5168 7.97803 10.3692 8.03514 10.2303 8.09355C10.1934 8.10782 10.1565 8.12437 10.1196 8.14092L10.1196 8.14092C10.0827 8.15747 10.0458 8.17402 10.0089 8.18829C9.95821 8.2123 9.90536 8.23859 9.85251 8.26487C9.79966 8.29115 9.7468 8.31744 9.69614 8.34145L9.44595 8.48551C9.39969 8.5091 9.35687 8.53677 9.31318 8.56501L9.31318 8.56501C9.28716 8.58182 9.26083 8.59884 9.23329 8.61531C8.85675 8.85801 8.50774 9.14225 8.1925 9.46543L8.17373 9.4849C8.13233 9.53317 8.0911 9.58 8.05043 9.62619C7.98173 9.70422 7.91463 9.78044 7.85099 9.8587L7.83222 9.87687C6.80894 11.289 6.29605 13.0295 6.38487 14.7933V15.3527H8.40516V14.7881C8.40516 12.3299 9.18825 10.7997 10.9308 10.0157C11.5963 9.7341 12.2994 9.56018 13.0149 9.49658H13.0337V7.41993L13.0099 7.41085ZM31.1637 9.85091L31.1725 9.86908C32.1945 11.2825 32.7049 13.0243 32.6148 14.7881V15.3527H30.5958V14.7739C30.6383 13.7329 30.4294 12.6972 29.9866 11.7614C29.5612 10.9606 28.8807 10.3389 28.0589 10.0015C27.4046 9.71982 26.7116 9.54461 26.0048 9.48231V7.41604C26.7041 7.48094 27.3959 7.61851 28.0701 7.82748V7.81709C28.108 7.83429 28.1369 7.84451 28.1865 7.86205L28.1952 7.86512C28.2182 7.87326 28.2397 7.8814 28.2609 7.88944C28.2905 7.90064 28.3196 7.91165 28.3516 7.92222C28.4899 7.9676 28.6192 8.02109 28.7523 8.07611L28.7757 8.08576C28.8371 8.10733 28.8949 8.13409 28.9471 8.15819C28.9639 8.166 28.9802 8.17352 28.9958 8.18051C29.1059 8.22853 29.2185 8.28564 29.3086 8.33366C29.3686 8.36483 29.4271 8.39819 29.482 8.42947C29.5117 8.44639 29.5403 8.4627 29.5675 8.47773C29.6123 8.50248 29.6513 8.52896 29.6888 8.55443C29.7161 8.57303 29.7427 8.59108 29.7702 8.60752C30.1479 8.85153 30.5007 9.13706 30.8197 9.45765L30.831 9.47712C30.9486 9.59523 31.0599 9.71982 31.1637 9.85091Z" fill="#1BC469"/>
<path d="M26.0624 5.96251V10.5585C26.0624 11.1376 25.5926 11.6066 25.0124 11.6066C24.4323 11.6066 23.9624 11.1376 23.9624 10.5585V5.97299C23.9572 5.39391 24.4244 4.92095 25.0046 4.91702C25.5847 4.91309 26.0585 5.37819 26.0624 5.95727V5.96251Z" fill="#1BC469"/>
<path d="M15.0375 5.97958V10.5642C15.0375 11.1458 14.5671 11.6174 13.9868 11.6174C13.4066 11.6174 12.9375 11.1458 12.9375 10.5642V5.97958C12.9375 5.39799 13.4066 4.92773 13.9868 4.92773C14.5671 4.92773 15.0375 5.39799 15.0375 5.97958Z" fill="#1BC469"/>
<path fill-rule="evenodd" clip-rule="evenodd" d="M6.375 26.6608V15.3525H32.625V26.6608C32.625 31.592 29.8711 34.0835 24.4133 34.0835H14.5742C9.12893 34.0835 6.375 31.592 6.375 26.6608ZM12.296 21.6392C12.296 22.3234 12.8343 22.8785 13.4977 22.8785C14.1737 22.8785 14.7119 22.3105 14.6994 21.6263C14.6994 20.9421 14.1611 20.387 13.5102 20.387H13.4977C12.8343 20.387 12.296 20.955 12.296 21.6392ZM18.292 21.6392C18.292 22.3234 18.8428 22.8785 19.5063 22.8785C20.1697 22.8785 20.708 22.3234 20.708 21.6263C20.708 20.955 20.1697 20.4 19.5063 20.387H19.4938C18.8303 20.4 18.292 20.955 18.292 21.6392ZM25.5023 22.8785C24.8389 22.8785 24.3006 22.3234 24.3006 21.6392C24.3006 20.9551 24.8264 20.4 25.5023 20.4C26.1658 20.4 26.7041 20.9551 26.7041 21.6392C26.7041 22.3234 26.1658 22.8785 25.5023 22.8785ZM25.5024 28.1712C24.8389 28.1712 24.3006 27.6161 24.2881 26.9319C24.2881 26.2477 24.8264 25.6926 25.4898 25.6926H25.5024C26.1658 25.6926 26.7041 26.2477 26.7041 26.9319C26.7041 27.6161 26.1658 28.1712 25.5024 28.1712ZM19.5063 28.1712C18.8428 28.1712 18.292 27.6161 18.292 26.9319C18.292 26.2477 18.8303 25.6926 19.4938 25.6797H19.5063C20.1697 25.6926 20.6955 26.2477 20.708 26.919C20.708 27.6161 20.1697 28.1712 19.5063 28.1712ZM13.4977 28.1712C12.8342 28.1712 12.296 27.6161 12.296 26.9319C12.2834 26.2477 12.8217 25.6797 13.4977 25.6797C14.1611 25.6797 14.6994 26.2348 14.6994 26.919C14.6994 27.6032 14.1611 28.1712 13.4977 28.1712Z" fill="#1BC469"/>
</svg>
