<svg width="158" height="43" viewBox="0 0 158 43" fill="none" xmlns="http://www.w3.org/2000/svg">
<rect width="158" height="43" rx="5" fill="white"/>
<circle cx="12" cy="22" r="1" fill="#1C274C"/>
<g clip-path="url(#clip0_277_101424)">
<path d="M34.0417 21.1191C30.7563 21.1191 28.0833 23.7921 28.0833 27.0774C28.0833 30.3435 30.7563 33 34.0417 33C37.327 33 40 30.327 40 27.0417C40 23.7756 37.327 21.1191 34.0417 21.1191ZM34.0417 32.0833C31.2623 32.0833 29 29.8375 29 27.0774C29 24.2972 31.2623 22.0357 34.0417 22.0357C36.821 22.0357 39.0833 24.2816 39.0833 27.0417C39.0833 29.8219 36.821 32.0833 34.0417 32.0833ZM35.2828 27.6338C35.4616 27.8126 35.4616 28.1032 35.2828 28.2819C35.193 28.3718 35.0757 28.4158 34.9583 28.4158C34.841 28.4158 34.7237 28.3708 34.6338 28.2819L33.7172 27.3653C33.631 27.2791 33.5833 27.1627 33.5833 27.0408V25.2074C33.5833 24.9544 33.7887 24.7491 34.0417 24.7491C34.2947 24.7491 34.5 24.9544 34.5 25.2074V26.851L35.2828 27.6338ZM35.875 12.8333H34.5V11.4583C34.5 11.2053 34.2947 11 34.0417 11C33.7887 11 33.5833 11.2053 33.5833 11.4583V12.8333H24.4167V11.4583C24.4167 11.2053 24.2113 11 23.9583 11C23.7053 11 23.5 11.2053 23.5 11.4583V12.8333H22.125C19.8508 12.8333 18 14.6841 18 16.9583V28.875C18 31.1493 19.8508 33 22.125 33H27.625C27.878 33 28.0833 32.7947 28.0833 32.5417C28.0833 32.2887 27.878 32.0833 27.625 32.0833H22.125C20.3558 32.0833 18.9167 30.6442 18.9167 28.875V19.25H39.0833V20.625C39.0833 20.878 39.2887 21.0833 39.5417 21.0833C39.7947 21.0833 40 20.878 40 20.625V16.9583C40 14.6841 38.1493 12.8333 35.875 12.8333ZM18.9167 18.3333V16.9583C18.9167 15.1892 20.3558 13.75 22.125 13.75H35.875C37.6442 13.75 39.0833 15.1892 39.0833 16.9583V18.3333H18.9167Z" fill="#1C274C"/>
</g>
<circle cx="46" cy="22" r="1" fill="#1C274C"/>
<path d="M63.858 22.468C63.858 23.1573 63.8213 23.788 63.748 24.36C63.6893 24.932 63.4913 25.4233 63.154 25.834C62.8313 26.23 62.3107 26.538 61.592 26.758C60.888 26.9633 59.8907 27.066 58.6 27.066C57.5733 27.066 56.73 27 56.07 26.868C55.4247 26.7213 54.9187 26.516 54.552 26.252C54.2 25.988 53.9433 25.68 53.782 25.328C53.6207 24.9613 53.5253 24.5507 53.496 24.096C53.4667 23.6267 53.452 23.1353 53.452 22.622V17.98C53.452 17.672 53.4593 17.4447 53.474 17.298C53.4887 17.1367 53.5547 17.0267 53.672 16.968C53.804 16.9093 54.0167 16.88 54.31 16.88H55.718V23.37C55.718 24.0153 55.8133 24.514 56.004 24.866C56.1947 25.2033 56.5027 25.438 56.928 25.57C57.368 25.702 57.9327 25.768 58.622 25.768C59.6927 25.768 60.4553 25.5847 60.91 25.218C61.3647 24.8513 61.592 24.2353 61.592 23.37V16.88H62.978C63.2713 16.88 63.4767 16.9093 63.594 16.968C63.726 17.0267 63.7993 17.1367 63.814 17.298C63.8433 17.4447 63.858 17.672 63.858 17.98V22.468ZM67.1463 27C66.7356 27 66.5303 26.7947 66.5303 26.384V18.816C66.9703 18.64 67.5643 18.486 68.3123 18.354C69.0603 18.2073 69.911 18.134 70.8643 18.134C71.803 18.134 72.551 18.1927 73.1083 18.31C73.6803 18.4273 74.113 18.618 74.4063 18.882C74.6996 19.1313 74.8903 19.4613 74.9783 19.872C75.081 20.2827 75.1323 20.7887 75.1323 21.39V26.164C75.1323 26.3693 75.1103 26.538 75.0663 26.67C75.037 26.802 74.9563 26.89 74.8243 26.934C74.707 26.978 74.5236 27 74.2743 27H73.0643V20.95C73.0643 20.378 72.8883 19.9673 72.5363 19.718C72.1843 19.4687 71.627 19.344 70.8643 19.344C70.6296 19.344 70.3656 19.366 70.0723 19.41C69.779 19.4393 69.5003 19.4907 69.2363 19.564C68.9723 19.6373 68.7596 19.7327 68.5983 19.85V27H67.1463ZM79.5789 27.088C78.8016 27.088 78.2442 26.934 77.9069 26.626C77.5696 26.3033 77.4009 25.7387 77.4009 24.932V16.77C77.4009 16.5353 77.4156 16.3593 77.4449 16.242C77.4889 16.11 77.5696 16.022 77.6869 15.978C77.8042 15.9193 77.9802 15.89 78.2149 15.89H79.4909C79.4909 15.9193 79.4762 16.0367 79.4469 16.242C79.4322 16.4473 79.4249 16.6893 79.4249 16.968V24.668C79.4249 25.2107 79.4909 25.5993 79.6229 25.834C79.7549 26.0687 80.0042 26.186 80.3709 26.186C80.4882 26.186 80.6276 26.1713 80.7889 26.142C80.9649 26.1127 81.0749 26.0907 81.1189 26.076V26.912C81.0309 26.9267 80.8769 26.956 80.6569 27C80.4369 27.0587 80.0776 27.088 79.5789 27.088ZM84.5167 27.088C83.7394 27.088 83.2114 26.9047 82.9327 26.538C82.654 26.1567 82.5147 25.592 82.5147 24.844L82.5367 18.222H84.5827V24.734C84.5827 25.2913 84.6487 25.6727 84.7807 25.878C84.9274 26.0833 85.1694 26.186 85.5067 26.186C85.6387 26.186 85.7854 26.1713 85.9467 26.142C86.108 26.1127 86.2107 26.0907 86.2547 26.076V26.912C86.196 26.9267 86.1007 26.9487 85.9687 26.978C85.8367 27.0073 85.6534 27.0293 85.4187 27.044C85.184 27.0733 84.8834 27.088 84.5167 27.088ZM83.5927 17.012C83.2554 17.012 82.9987 16.968 82.8227 16.88C82.6614 16.7773 82.5807 16.594 82.5807 16.33C82.5807 16.066 82.6614 15.89 82.8227 15.802C82.984 15.6993 83.2407 15.648 83.5927 15.648C83.93 15.648 84.172 15.6993 84.3187 15.802C84.48 15.89 84.5607 16.066 84.5607 16.33C84.5607 16.594 84.48 16.7773 84.3187 16.88C84.172 16.968 83.93 17.012 83.5927 17.012ZM88.4855 27C88.1481 27 87.9208 26.9487 87.8035 26.846C87.7008 26.7433 87.6495 26.5233 87.6495 26.186V18.838C87.8108 18.794 88.0161 18.7353 88.2655 18.662C88.5295 18.5887 88.8301 18.5153 89.1675 18.442C89.5195 18.354 89.9008 18.288 90.3115 18.244C90.7368 18.2 91.1768 18.178 91.6315 18.178C92.1595 18.178 92.6141 18.222 92.9955 18.31C93.3768 18.3833 93.7068 18.53 93.9855 18.75C94.2641 18.9553 94.4915 19.256 94.6675 19.652L94.3155 19.63C94.4328 19.3513 94.6088 19.1167 94.8435 18.926C95.0781 18.7207 95.3421 18.5667 95.6355 18.464C95.9435 18.3467 96.2588 18.266 96.5815 18.222C96.9041 18.178 97.2048 18.156 97.4835 18.156C98.3635 18.156 99.0528 18.244 99.5515 18.42C100.065 18.5813 100.424 18.86 100.629 19.256C100.849 19.652 100.959 20.1947 100.959 20.884V26.252C100.959 26.56 100.901 26.7653 100.783 26.868C100.681 26.956 100.475 27 100.167 27H98.9135C98.9135 25.9733 98.9135 24.9467 98.9135 23.92C98.9135 22.8933 98.9135 21.8593 98.9135 20.818C98.8988 20.1873 98.7521 19.762 98.4735 19.542C98.1948 19.322 97.7695 19.212 97.1975 19.212C96.9335 19.212 96.6548 19.2487 96.3615 19.322C96.0828 19.3953 95.8408 19.498 95.6355 19.63C95.4448 19.762 95.3495 19.916 95.3495 20.092V27H93.2815V20.356C93.2815 20.004 93.1201 19.7327 92.7975 19.542C92.4748 19.3367 92.0568 19.234 91.5435 19.234C91.2355 19.234 90.9495 19.2633 90.6855 19.322C90.4215 19.366 90.2015 19.432 90.0255 19.52C89.8495 19.608 89.7468 19.7253 89.7175 19.872V27H88.4855ZM105.249 27.088C104.472 27.088 103.944 26.9047 103.665 26.538C103.386 26.1567 103.247 25.592 103.247 24.844L103.269 18.222H105.315V24.734C105.315 25.2913 105.381 25.6727 105.513 25.878C105.66 26.0833 105.902 26.186 106.239 26.186C106.371 26.186 106.518 26.1713 106.679 26.142C106.84 26.1127 106.943 26.0907 106.987 26.076V26.912C106.928 26.9267 106.833 26.9487 106.701 26.978C106.569 27.0073 106.386 27.0293 106.151 27.044C105.916 27.0733 105.616 27.088 105.249 27.088ZM104.325 17.012C103.988 17.012 103.731 16.968 103.555 16.88C103.394 16.7773 103.313 16.594 103.313 16.33C103.313 16.066 103.394 15.89 103.555 15.802C103.716 15.6993 103.973 15.648 104.325 15.648C104.662 15.648 104.904 15.6993 105.051 15.802C105.212 15.89 105.293 16.066 105.293 16.33C105.293 16.594 105.212 16.7773 105.051 16.88C104.904 16.968 104.662 17.012 104.325 17.012ZM110.978 27.066C110.391 27.066 109.929 27 109.592 26.868C109.269 26.736 109.035 26.5013 108.888 26.164C108.741 25.8267 108.668 25.372 108.668 24.8V19.344H107.788V18.222H108.668V16.77C108.668 16.506 108.69 16.3153 108.734 16.198C108.778 16.066 108.851 15.9853 108.954 15.956C109.071 15.912 109.24 15.89 109.46 15.89H110.736C110.736 15.9193 110.736 15.9853 110.736 16.088C110.736 16.176 110.736 16.308 110.736 16.484V18.222H112.804V19.344H110.736V24.602C110.736 25.174 110.795 25.5847 110.912 25.834C111.029 26.0687 111.308 26.186 111.748 26.186C111.895 26.186 112.056 26.1713 112.232 26.142C112.423 26.1127 112.555 26.0833 112.628 26.054V26.912C112.54 26.9267 112.349 26.956 112.056 27C111.763 27.044 111.403 27.066 110.978 27.066ZM118.69 27.132C117.795 27.132 117.04 27.0733 116.424 26.956C115.822 26.8387 115.338 26.6187 114.972 26.296C114.62 25.9733 114.37 25.526 114.224 24.954C114.077 24.382 114.004 23.6413 114.004 22.732C114.004 21.6467 114.143 20.7667 114.422 20.092C114.7 19.4173 115.192 18.926 115.896 18.618C116.614 18.2953 117.612 18.134 118.888 18.134C119.885 18.134 120.677 18.2587 121.264 18.508C121.865 18.7427 122.298 19.1167 122.562 19.63C122.826 20.1433 122.958 20.796 122.958 21.588V22.996H116.776C116.776 22.7613 116.827 22.5707 116.93 22.424C117.032 22.2773 117.223 22.204 117.502 22.204H121.11L121.088 21.632C121.073 20.8107 120.897 20.2093 120.56 19.828C120.237 19.4467 119.65 19.256 118.8 19.256C118.096 19.256 117.546 19.366 117.15 19.586C116.754 19.806 116.475 20.1653 116.314 20.664C116.152 21.148 116.072 21.8227 116.072 22.688C116.072 23.5827 116.16 24.2647 116.336 24.734C116.526 25.1887 116.834 25.4967 117.26 25.658C117.7 25.8193 118.308 25.9 119.086 25.9C119.364 25.9 119.687 25.8927 120.054 25.878C120.435 25.8633 120.816 25.8413 121.198 25.812C121.594 25.7827 121.946 25.746 122.254 25.702C122.562 25.658 122.767 25.614 122.87 25.57V25.878C122.87 26.0393 122.833 26.2007 122.76 26.362C122.686 26.5233 122.532 26.6553 122.298 26.758C121.99 26.9047 121.535 27 120.934 27.044C120.347 27.1027 119.599 27.132 118.69 27.132ZM124.574 22.578C124.574 21.39 124.735 20.4807 125.058 19.85C125.381 19.2047 125.85 18.7647 126.466 18.53C127.082 18.2807 127.823 18.156 128.688 18.156C128.952 18.156 129.253 18.1707 129.59 18.2C129.942 18.2147 130.287 18.244 130.624 18.288C130.961 18.332 131.262 18.3833 131.526 18.442C131.79 18.486 131.973 18.5373 132.076 18.596L131.526 18.86V15.89H133.55L133.528 22.578C133.528 23.5753 133.455 24.3747 133.308 24.976C133.161 25.5627 132.919 26.0027 132.582 26.296C132.245 26.5893 131.775 26.7873 131.174 26.89C130.573 26.9927 129.825 27.044 128.93 27.044C128.094 27.044 127.39 26.9927 126.818 26.89C126.261 26.7727 125.813 26.56 125.476 26.252C125.153 25.944 124.919 25.4967 124.772 24.91C124.64 24.3233 124.574 23.546 124.574 22.578ZM128.886 25.922C129.458 25.922 129.92 25.8853 130.272 25.812C130.624 25.724 130.888 25.57 131.064 25.35C131.255 25.13 131.379 24.822 131.438 24.426C131.497 24.0153 131.526 23.4873 131.526 22.842L131.504 19.476C131.357 19.4613 131.159 19.4467 130.91 19.432C130.661 19.4173 130.397 19.41 130.118 19.41C129.839 19.3953 129.583 19.388 129.348 19.388C128.688 19.388 128.16 19.476 127.764 19.652C127.368 19.8133 127.082 20.1287 126.906 20.598C126.73 21.0673 126.642 21.742 126.642 22.622C126.642 23.5607 126.708 24.2647 126.84 24.734C126.987 25.2033 127.221 25.5187 127.544 25.68C127.881 25.8413 128.329 25.922 128.886 25.922Z" fill="#1C274C"/>
<circle cx="144" cy="22" r="1" fill="#1C274C"/>
<defs>
<clipPath id="clip0_277_101424">
<rect width="22" height="22" fill="white" transform="translate(18 11)"/>
</clipPath>
</defs>
</svg>
