<svg width="50" height="50" viewBox="0 0 50 50" fill="none" xmlns="http://www.w3.org/2000/svg">
<rect opacity="0.5" width="50" height="50" rx="7" fill="white"/>
<path d="M20.0723 14.7149C20.0723 17.6738 22.4709 20.0724 25.4298 20.0724C28.3886 20.0724 30.7873 17.6738 30.7873 14.7149C30.7873 11.7561 28.3886 9.35742 25.4298 9.35742C22.4709 9.35742 20.0723 11.7561 20.0723 14.7149Z" fill="white"/>
<path d="M8.46436 36.1449C8.46436 39.1038 10.863 41.5024 13.8219 41.5024C16.7807 41.5024 19.1794 39.1038 19.1794 36.1449C19.1794 33.1861 16.7807 30.7874 13.8219 30.7874C10.863 30.7874 8.46436 33.1861 8.46436 36.1449Z" fill="white"/>
<path d="M37.0377 41.5024C34.0788 41.5024 31.6802 39.1038 31.6802 36.1449C31.6802 33.1861 34.0788 30.7874 37.0377 30.7874C39.9966 30.7874 42.3952 33.1861 42.3952 36.1449C42.3952 39.1038 39.9966 41.5024 37.0377 41.5024Z" fill="white"/>
<path d="M16.8661 17.5049C17.4207 17.0155 17.4735 16.169 16.984 15.6145C16.4945 15.0599 15.6481 15.0071 15.0935 15.4966C11.8517 18.3579 9.80373 22.5485 9.80373 27.2158C9.80373 27.9555 10.4034 28.5552 11.1431 28.5552C11.8828 28.5552 12.4825 27.9555 12.4825 27.2158C12.4825 23.349 14.176 19.8793 16.8661 17.5049Z" fill="white"/>
<path d="M35.766 15.4966C35.2114 15.0071 34.365 15.0599 33.8755 15.6145C33.386 16.169 33.4388 17.0155 33.9934 17.5049C36.6836 19.8793 38.3771 23.349 38.3771 27.2158C38.3771 27.9555 38.9767 28.5552 39.7164 28.5552C40.4562 28.5552 41.0558 27.9555 41.0558 27.2158C41.0558 22.5485 39.0079 18.3579 35.766 15.4966Z" fill="white"/>
<path d="M22.192 39.7553C21.4756 39.5709 20.7454 40.0022 20.561 40.7185C20.3766 41.4349 20.8079 42.1651 21.5243 42.3495C22.774 42.6711 24.0829 42.8418 25.4298 42.8418C26.7766 42.8418 28.0856 42.6711 29.3353 42.3495C30.0517 42.1651 30.4829 41.4349 30.2985 40.7185C30.1142 40.0022 29.384 39.5709 28.6676 39.7553C27.6342 40.0213 26.5495 40.1631 25.4298 40.1631C24.31 40.1631 23.2254 40.0213 22.192 39.7553Z" fill="white"/>
</svg>
