<svg width="50" height="50" viewBox="0 0 50 50" fill="none" xmlns="http://www.w3.org/2000/svg">
<rect opacity="0.5" width="50" height="50" rx="7" fill="white"/>
<path d="M9.35742 15.6505C9.35742 14.9461 9.94087 14.375 10.6606 14.375H19.2114C19.223 12.8727 19.3858 10.8131 20.8767 9.3874C22.05 8.26537 23.6585 7.57178 25.4299 7.57178C27.2013 7.57178 28.8098 8.26537 29.9831 9.3874C31.474 10.8131 31.6368 12.8727 31.6484 14.375H40.1993C40.919 14.375 41.5024 14.9461 41.5024 15.6505C41.5024 16.355 40.919 16.9261 40.1993 16.9261H10.6606C9.94087 16.9261 9.35742 16.355 9.35742 15.6505Z" fill="#E74645"/>
<path opacity="0.5" d="M24.7078 43.2885H26.1522C31.1217 43.2885 33.6064 43.2885 35.222 41.7064C36.8375 40.1243 37.0028 37.5291 37.3333 32.3387L37.8097 24.8598C37.989 22.0436 38.0787 20.6355 37.2682 19.7431C36.4578 18.8508 35.0891 18.8508 32.3518 18.8508H18.5082C15.7709 18.8508 14.4023 18.8508 13.5918 19.7431C12.7814 20.6355 12.8711 22.0436 13.0504 24.8598L13.5267 32.3387C13.8573 37.5291 14.0226 40.1243 15.6381 41.7064C17.2536 43.2885 19.7384 43.2885 24.7078 43.2885Z" fill="#E74645"/>
<path fill-rule="evenodd" clip-rule="evenodd" d="M20.8322 24.5042C21.5682 24.4267 22.2246 24.992 22.2982 25.7668L23.1911 35.1659C23.2647 35.9407 22.7277 36.6316 21.9916 36.709C21.2556 36.7865 20.5992 36.2212 20.5256 35.4465L19.6327 26.0473C19.5591 25.2725 20.0961 24.5817 20.8322 24.5042Z" fill="#E74645"/>
<path fill-rule="evenodd" clip-rule="evenodd" d="M30.0279 24.5042C30.7639 24.5817 31.3009 25.2725 31.2273 26.0473L30.3344 35.4465C30.2608 36.2212 29.6045 36.7865 28.8684 36.709C28.1324 36.6316 27.5954 35.9407 27.669 35.1659L28.5619 25.7668C28.6355 24.992 29.2918 24.4267 30.0279 24.5042Z" fill="#E74645"/>
</svg>
