<svg width="21" height="21" viewBox="0 0 21 21" fill="none" xmlns="http://www.w3.org/2000/svg">
<path d="M2.09546 10.5002C2.09546 7.35747 2.09546 5.78612 3.07177 4.80981C4.04808 3.8335 5.61943 3.8335 8.76213 3.8335H12.0955C15.2382 3.8335 16.8095 3.8335 17.7858 4.80981C18.7621 5.78612 18.7621 7.35747 18.7621 10.5002V12.1668C18.7621 15.3095 18.7621 16.8809 17.7858 17.8572C16.8095 18.8335 15.2382 18.8335 12.0955 18.8335H8.76213C5.61943 18.8335 4.04808 18.8335 3.07177 17.8572C2.09546 16.8809 2.09546 15.3095 2.09546 12.1668V10.5002Z" stroke="#1C274C"/>
<path d="M15.4288 13.8332L13.7621 13.8332M13.7621 13.8332L12.0955 13.8332M13.7621 13.8332L13.7621 12.1665M13.7621 13.8332L13.7621 15.4998" stroke="#1C274C" stroke-linecap="round"/>
<path opacity="0.5" d="M6.26196 3.8335V2.5835" stroke="#1C274C" stroke-linecap="round"/>
<path opacity="0.5" d="M14.5955 3.8335V2.5835" stroke="#1C274C" stroke-linecap="round"/>
<path opacity="0.5" d="M2.09546 8H18.7621" stroke="#1C274C" stroke-linecap="round"/>
</svg>
