<svg width="40" height="52" viewBox="0 0 40 52" fill="none" xmlns="http://www.w3.org/2000/svg">
<mask id="mask0_277_99853" style="mask-type:alpha" maskUnits="userSpaceOnUse" x="0" y="0" width="40" height="5">
<rect y="0.430176" width="40" height="4.09789" rx="2.04895" fill="#F3B811"/>
</mask>
<g mask="url(#mask0_277_99853)">
<path d="M0 0.430176H14.8V15.7973V22.9686H10.5221C7.47084 22.9686 4.58657 21.5755 2.68959 19.1857L0 15.7973V0.430176Z" fill="#E52021"/>
<rect x="14.7998" y="0.430176" width="10.4" height="22.5384" fill="#F7F7F7"/>
<path d="M25.2002 0.430176H40.0002V15.7973L37.3106 19.1857C35.4136 21.5755 32.5293 22.9686 29.4781 22.9686H25.2002V15.7973V0.430176Z" fill="#268A42"/>
<rect y="0.430176" width="40" height="4.09789" rx="2.04895" fill="black" fill-opacity="0.05"/>
</g>
<path fill-rule="evenodd" clip-rule="evenodd" d="M14.7999 4.53003H4.3999V19.8971L5.5392 21.9397C5.99712 22.7607 6.56095 23.5007 7.20818 24.1466C7.52614 23.969 7.87431 23.8392 8.24434 23.768L9.36394 23.5524C9.52904 23.5207 9.68403 23.4482 9.81538 23.3412C9.94673 23.2342 10.0504 23.096 10.1175 22.9387L10.5725 21.8717C11.2724 20.2304 13.0766 19.3429 14.7697 19.8073L14.7999 19.8156V4.53003Z" fill="#E52021"/>
<path fill-rule="evenodd" clip-rule="evenodd" d="M25.1998 4.53003H14.7998V19.8157L15.8697 20.1093C16.032 20.1538 16.2024 20.1572 16.3662 20.119C16.5299 20.0808 16.6821 20.0023 16.8093 19.8902L17.6725 19.1306C19.0004 17.9621 21.0032 17.9621 22.3309 19.1306L23.194 19.8902C23.3212 20.0023 23.4734 20.0808 23.6372 20.119C23.801 20.1572 23.9714 20.1538 24.1336 20.1093L25.1998 19.8167V4.53003Z" fill="#F7F7F7"/>
<path fill-rule="evenodd" clip-rule="evenodd" d="M35.6002 4.53003H25.2002V19.8166L25.234 19.8073C26.9269 19.3427 28.7312 20.2304 29.4311 21.8717L29.8861 22.9386C29.9531 23.0959 30.0568 23.2342 30.1881 23.3412C30.3195 23.4481 30.4745 23.5207 30.6396 23.5524L31.7592 23.768C32.1284 23.8391 32.4758 23.9684 32.7931 24.1453C33.4399 23.4998 34.0033 22.7601 34.4609 21.9397L35.6002 19.8971V4.53003Z" fill="#268A42"/>
<path d="M19.7053 3.09717L20.1691 8.13971L22.0009 3.4353L21.0592 8.40746L24.1105 4.42232L21.8396 8.92128L25.8632 5.97825L22.4471 9.63954L27.1171 7.97704L22.8325 10.504L27.7705 10.2568L22.9645 11.4448L27.7705 12.6327L22.8325 12.3855L27.1171 14.9125L22.4471 13.25L25.8632 16.9113L21.8396 13.9682L24.1105 18.4672L21.0592 14.4821L22.0009 19.4542L20.1691 14.7498L19.7053 19.7923L19.2414 14.7498L17.4097 19.4542L18.3513 14.4821L15.3001 18.4672L17.5709 13.9682L13.5473 16.9113L16.9634 13.25L12.2935 14.9125L16.578 12.3855L11.6401 12.6327L16.446 11.4448L11.6401 10.2568L16.578 10.504L12.2935 7.97704L16.9634 9.63954L13.5473 5.97825L17.5709 8.92128L15.3001 4.42232L18.3513 8.40746L17.4097 3.4353L19.2414 8.13971L19.7053 3.09717Z" fill="#F7B70F"/>
<path fill-rule="evenodd" clip-rule="evenodd" d="M35.31 36.4095C35.2382 36.2767 35.2006 36.1288 35.2006 35.9785C35.2006 35.8282 35.2381 35.6802 35.3099 35.5474L35.7966 34.6468C36.5453 33.2612 36.1384 31.5148 34.8502 30.5846L34.0129 29.9801C33.8894 29.891 33.79 29.7737 33.7235 29.6383C33.6569 29.5029 33.6252 29.3536 33.6311 29.2035L33.6707 28.1851C33.7316 26.6186 32.5916 25.2181 31.0189 24.9276L29.9968 24.7388C29.846 24.711 29.7045 24.6475 29.5846 24.5538C29.4647 24.4601 29.37 24.3391 29.3088 24.2013L28.8935 23.267C28.2545 21.8297 26.6072 21.0523 25.0616 21.4592L24.057 21.7236C23.9089 21.7627 23.7533 21.7656 23.6038 21.7321C23.4542 21.6987 23.3153 21.6299 23.1992 21.5318L22.4112 20.8666C21.199 19.8433 19.3705 19.8433 18.1581 20.8666L17.3701 21.5318C17.2539 21.6299 17.1151 21.6987 16.9655 21.7321C16.816 21.7656 16.6604 21.7626 16.5123 21.7236L15.5077 21.4592C13.962 21.0525 12.3149 21.8297 11.6758 23.267L11.2604 24.2014C11.1992 24.3391 11.1045 24.4602 10.9846 24.5538C10.8647 24.6475 10.7232 24.711 10.5725 24.7388L9.55031 24.9276C7.9777 25.2181 6.83766 26.6186 6.89852 28.1851L6.93807 29.2035C6.94398 29.3536 6.91229 29.5029 6.84574 29.6383C6.7792 29.7736 6.67984 29.891 6.55633 29.9801L5.71901 30.5847C4.43081 31.5149 4.02397 33.2613 4.77262 34.6469L5.25925 35.5475C5.33108 35.6803 5.36864 35.8282 5.36864 35.9785C5.36864 36.1288 5.33108 36.2768 5.25925 36.4095L4.77262 37.3101C4.02397 38.6957 4.43081 40.4421 5.71901 41.3723L6.55626 41.9768C6.67978 42.066 6.77916 42.1833 6.8457 42.3187C6.91225 42.4541 6.94393 42.6035 6.938 42.7536L6.89845 43.7719C6.83758 45.3385 7.97762 46.739 9.55023 47.0294L10.0862 47.1284L10.0863 47.1282L10.5722 47.218C10.723 47.2458 10.8645 47.3093 10.9845 47.403C11.1044 47.4967 11.1991 47.6178 11.2603 47.7556L11.6756 48.6897C12.3146 50.1271 13.9619 50.9045 15.5075 50.4976L16.5121 50.2332C16.6602 50.1942 16.8158 50.1913 16.9653 50.2247C17.1149 50.2582 17.2538 50.327 17.3699 50.4251L18.1579 51.0902C18.2234 51.1452 18.2911 51.1976 18.3608 51.2473L18.3607 51.2476L18.361 51.2474C18.9295 51.6541 19.6069 51.8579 20.2846 51.8579C20.9519 51.8579 21.6191 51.6607 22.1822 51.2664L22.1821 51.2662C22.2611 51.211 22.3375 51.1523 22.411 51.0902L23.1991 50.4251C23.3152 50.3269 23.4541 50.2582 23.6036 50.2247C23.7532 50.1913 23.9088 50.1942 24.0569 50.2332L25.0614 50.4976C25.338 50.5703 25.6174 50.6052 25.894 50.6052C27.1638 50.6051 28.3686 49.8699 28.8934 48.6898L29.3088 47.7555C29.3699 47.6177 29.4646 47.4967 29.5845 47.403C29.7044 47.3093 29.8459 47.2458 29.9966 47.218L30.4492 47.1344L30.4493 47.1347L30.4493 47.1346L31.019 47.0293C32.5916 46.7389 33.7317 45.3384 33.6708 43.7717L33.6312 42.7535C33.6253 42.6034 33.657 42.4541 33.7235 42.3187C33.7901 42.1833 33.8894 42.066 34.0129 41.9768L34.8502 41.3723C36.1385 40.4421 36.5454 38.6958 35.7966 37.3101L35.31 36.4095Z" fill="#D5D5D5"/>
<ellipse cx="20.2843" cy="36.0637" rx="10.3868" ry="10.1755" fill="white"/>
</svg>
