<svg width="31" height="31" viewBox="0 0 31 31" fill="none" xmlns="http://www.w3.org/2000/svg">
<g clip-path="url(#clip0_2215_12818)">
<path d="M25.7403 24.1484C25.1101 23.0726 24.1342 22.4253 23.1958 21.9932C22.2561 21.5616 21.3265 21.329 20.7678 21.1182C20.3248 20.9536 19.8421 20.6966 19.4977 20.4181C19.3253 20.2806 19.1887 20.1379 19.1067 20.0135C19.022 19.8887 18.9962 19.7918 18.9962 19.7268C18.9962 19.282 18.9962 19.0808 18.9962 18.4043C19.589 17.7444 20.4409 16.7227 20.7901 15.1021C20.9127 15.0471 21.0336 14.9851 21.1497 14.9035C21.4404 14.7036 21.6861 14.4134 21.8943 14.0184C22.1047 13.6217 22.2902 13.1145 22.4884 12.4205C22.5883 12.0683 22.6354 11.7628 22.6354 11.4904C22.6354 11.1766 22.5708 10.9047 22.4521 10.6835C22.35 10.4905 22.2103 10.3518 22.0658 10.2488C23.9836 5.96802 21.5216 2.5179 21.5216 2.5179L22.2443 0.659944C22.2443 0.659944 19.1477 0.86637 16.3958 0.556936C8.44501 -0.336444 8.0007 5.23612 8.0007 7.713C8.0007 9.19695 8.22241 10.0594 8.41443 10.529C8.37558 10.5801 8.33368 10.6246 8.3014 10.6839C8.18316 10.9048 8.11853 11.1771 8.11853 11.4909C8.11941 11.7628 8.16523 12.0683 8.26607 12.4205C8.53144 13.3445 8.77062 13.9407 9.08052 14.3789C9.23591 14.5962 9.41181 14.7709 9.60382 14.9035C9.72078 14.9851 9.84171 15.0471 9.96347 15.1021C10.3135 16.7217 11.165 17.7439 11.7577 18.4039C11.7577 19.0804 11.7577 19.282 11.7577 19.7268C11.759 19.7822 11.7311 19.8839 11.639 20.0153C11.505 20.2121 11.2423 20.4465 10.9368 20.6447C10.6326 20.8441 10.286 21.013 9.99494 21.1152C9.61654 21.2487 9.07314 21.3975 8.47824 21.6079C7.5848 21.9243 6.56046 22.38 5.74038 23.1988C4.91901 24.014 4.33501 25.2095 4.33987 26.8506C4.33987 27.0592 4.34901 27.2757 4.36823 27.4987C4.38048 27.6388 4.42929 27.7545 4.48823 27.8532C4.60214 28.0369 4.7553 28.1796 4.94784 28.3245C5.28523 28.5746 5.75351 28.8208 6.36236 29.0635C8.1824 29.7866 11.2616 30.4601 15.3773 30.4609C18.7214 30.4605 21.3829 30.0149 23.2387 29.4606C24.1666 29.183 24.8915 28.8801 25.4123 28.5802C25.6736 28.4297 25.884 28.2804 26.0503 28.1181C26.1332 28.0368 26.2057 27.9522 26.2655 27.8531C26.3253 27.7544 26.3742 27.6388 26.3864 27.4991C26.4052 27.2757 26.4139 27.0601 26.4139 26.8523C26.4147 25.759 26.1607 24.8638 25.7403 24.1484ZM14.637 29.5404C14.6226 29.54 14.6081 29.54 14.5933 29.54L13.1395 26.1282L13.1582 26.143L14.4807 24.4897L14.6976 25.4023H14.7557L14.637 29.5404ZM12.8558 25.4631L11.1881 21.5516C11.3971 21.4302 11.6027 21.2967 11.7912 21.147C11.9064 21.0545 12.0165 20.9571 12.1173 20.8537L14.904 22.9024L12.8558 25.4631ZM12.5097 20.3229C12.6018 20.144 12.6646 19.9459 12.6655 19.7268C12.6655 19.2449 12.6655 19.0564 12.6655 18.2306V18.056L12.5494 17.9268C11.9301 17.2368 11.0916 16.3211 10.8005 14.694L10.7542 14.4335L10.5059 14.3453C10.3479 14.289 10.2279 14.231 10.1222 14.1581C9.96728 14.0486 9.8263 13.8988 9.66177 13.5925C9.49982 13.2878 9.32697 12.8322 9.13935 12.1709C9.05597 11.8824 9.02714 11.6577 9.02714 11.491C9.02714 11.2968 9.06423 11.1842 9.10226 11.1121C9.15945 11.0082 9.2297 10.9637 9.31917 10.928C9.38029 10.9044 9.44486 10.8956 9.48195 10.8926L9.83415 10.9672L10.34 11.8415C10.34 11.8415 10.3125 7.49351 10.7529 7.16269C11.3033 6.74936 14.4693 7.98845 15.4321 7.98845C16.3957 7.98845 19.4575 6.64636 20.0009 7.05271C20.6329 7.52538 20.5242 12.2543 20.5242 12.2543L21.0418 10.9149L21.254 10.8921C21.2911 10.8926 21.4263 10.9083 21.5185 10.9689C21.57 11.0026 21.6127 11.0414 21.6516 11.1121C21.6891 11.1841 21.7262 11.2967 21.7262 11.4905C21.7271 11.6577 21.6974 11.8824 21.615 12.1713C21.3644 13.0529 21.1401 13.5662 20.9336 13.8508C20.8306 13.9948 20.7363 14.0844 20.6312 14.1581C20.5264 14.231 20.4055 14.289 20.2475 14.3453L19.9992 14.4335L19.9534 14.694C19.6631 16.3211 18.8243 17.2368 18.2049 17.9268L18.088 18.056V18.2306C18.088 19.0564 18.088 19.2449 18.088 19.7268C18.0888 19.945 18.1486 20.1453 18.2398 20.3265L15.3771 22.4297L12.5097 20.3229ZM16.1585 29.5439C16.1441 29.5448 16.1314 29.5452 16.1165 29.5452L15.9974 25.4024H16.0576L16.2741 24.4898L17.5961 26.1426L17.6149 26.1282L16.1585 29.5439ZM17.8977 25.4631L15.8499 22.9029L18.634 20.8563C18.8243 21.0505 19.0438 21.2251 19.2817 21.3818C19.3733 21.4416 19.472 21.4909 19.568 21.5454L17.8977 25.4631Z" fill="#1CA2ED"/>
</g>
<defs>
<clipPath id="clip0_2215_12818">
<rect width="30" height="30" fill="white" transform="translate(0.376953 0.460938)"/>
</clipPath>
</defs>
</svg>
