<svg width="54" height="51" viewBox="0 0 54 51" fill="none" xmlns="http://www.w3.org/2000/svg">
<rect width="54" height="51" rx="7" fill="#1BC469"/>
<path d="M8.09613 43.688C8.33079 43.8267 8.63479 43.9333 9.00813 44.008C9.39213 44.072 9.78679 44.1147 10.1921 44.136C10.5975 44.1467 10.9495 44.152 11.2481 44.152C11.3655 44.152 11.4988 44.152 11.6481 44.152C11.8081 44.1413 11.9468 44.136 12.0641 44.136C12.4481 44.1253 12.7841 44.0827 13.0721 44.008C13.3601 43.9227 13.5788 43.784 13.7281 43.592C13.8881 43.4 13.9681 43.128 13.9681 42.776C13.9681 42.3387 13.8508 42.056 13.6161 41.928C13.3921 41.8 13.0615 41.736 12.6241 41.736C12.4748 41.736 12.3148 41.736 12.1441 41.736C11.9735 41.736 11.7761 41.736 11.5521 41.736C11.3388 41.736 11.0881 41.736 10.8001 41.736C10.4801 41.736 10.1601 41.72 9.84013 41.688C9.52013 41.656 9.23213 41.5867 8.97613 41.48C8.72013 41.3627 8.51213 41.1813 8.35213 40.936C8.19213 40.68 8.11213 40.3227 8.11213 39.864C8.11213 39.3307 8.20813 38.9093 8.40013 38.6C8.59213 38.2907 8.85879 38.0667 9.20013 37.928C9.55213 37.7787 9.95213 37.6827 10.4001 37.64C10.8588 37.5973 11.3601 37.576 11.9041 37.576C12.2241 37.576 12.5761 37.5813 12.9601 37.592C13.3441 37.6027 13.7121 37.6293 14.0641 37.672C14.4161 37.704 14.6881 37.7627 14.8801 37.848C15.1041 37.8693 15.2748 37.9387 15.3921 38.056C15.5201 38.1627 15.5841 38.3013 15.5841 38.472C15.5841 38.504 15.5841 38.5573 15.5841 38.632C15.5841 38.7067 15.5841 38.776 15.5841 38.84C15.5841 38.904 15.5841 38.952 15.5841 38.984C15.4988 38.8773 15.3388 38.7973 15.1041 38.744C14.8801 38.68 14.6241 38.632 14.3361 38.6C14.0481 38.568 13.7655 38.5467 13.4881 38.536C13.2215 38.5147 12.9921 38.504 12.8001 38.504H11.7121C11.3495 38.504 11.0241 38.536 10.7361 38.6C10.4481 38.6533 10.2188 38.7707 10.0481 38.952C9.87746 39.1227 9.79213 39.3893 9.79213 39.752C9.79213 40.0293 9.84546 40.2427 9.95213 40.392C10.0695 40.5307 10.2348 40.6267 10.4481 40.68C10.6721 40.7227 10.9335 40.744 11.2321 40.744C11.7228 40.744 12.1388 40.744 12.4801 40.744C12.8215 40.744 13.0828 40.744 13.2641 40.744C13.7441 40.744 14.1655 40.7867 14.5281 40.872C14.9015 40.9467 15.1895 41.1227 15.3921 41.4C15.6055 41.6773 15.7121 42.1147 15.7121 42.712C15.7121 43.2773 15.5895 43.7307 15.3441 44.072C15.0988 44.4027 14.7628 44.6427 14.3361 44.792C13.9095 44.9307 13.4188 45.016 12.8641 45.048C12.5335 45.0693 12.2135 45.08 11.9041 45.08C11.5948 45.0907 11.2695 45.0907 10.9281 45.08C10.6188 45.08 10.2988 45.0693 9.96813 45.048C9.63746 45.0267 9.32813 44.9893 9.04013 44.936C8.76279 44.872 8.53346 44.7867 8.35213 44.68C8.18146 44.5733 8.09613 44.4293 8.09613 44.248V43.688ZM17.8939 45C17.6379 45 17.4725 44.9627 17.3979 44.888C17.3339 44.8133 17.3019 44.6587 17.3019 44.424V36.936H18.8059V38.824C18.9339 38.7813 19.0992 38.7493 19.3019 38.728C19.5152 38.696 19.7392 38.6693 19.9739 38.648C20.2192 38.6267 20.4432 38.616 20.6459 38.616C21.3179 38.616 21.8512 38.6747 22.2459 38.792C22.6405 38.9093 22.9339 39.0853 23.1259 39.32C23.3285 39.544 23.4619 39.8267 23.5259 40.168C23.5899 40.5093 23.6219 40.9147 23.6219 41.384V44.264C23.6219 44.4773 23.6005 44.6373 23.5579 44.744C23.5259 44.8507 23.4619 44.92 23.3659 44.952C23.2699 44.984 23.1259 45 22.9339 45H22.1499V41.096C22.1499 40.616 22.0859 40.2533 21.9579 40.008C21.8299 39.7627 21.6325 39.5973 21.3659 39.512C21.1099 39.416 20.7845 39.368 20.3899 39.368C20.2405 39.368 20.0592 39.3787 19.8459 39.4C19.6432 39.4107 19.4459 39.432 19.2539 39.464C19.0725 39.4853 18.9232 39.5227 18.8059 39.576V45H17.8939ZM28.1983 45.096C27.5369 45.096 26.9983 45.064 26.5823 45C26.1663 44.9467 25.8463 44.8453 25.6223 44.696C25.3983 44.5467 25.2436 44.344 25.1583 44.088C25.0836 43.832 25.0463 43.512 25.0463 43.128C25.0463 42.584 25.1049 42.1733 25.2223 41.896C25.3503 41.608 25.5636 41.4107 25.8623 41.304C26.1716 41.1973 26.5823 41.144 27.0943 41.144C27.3609 41.144 27.6543 41.1493 27.9743 41.16C28.3049 41.1707 28.6196 41.1867 28.9183 41.208C29.2276 41.2187 29.4943 41.2347 29.7183 41.256C29.9529 41.2773 30.1076 41.304 30.1823 41.336C30.1823 40.888 30.1449 40.536 30.0703 40.28C29.9956 40.024 29.8729 39.832 29.7023 39.704C29.5423 39.576 29.3396 39.4907 29.0943 39.448C28.8489 39.4053 28.5609 39.384 28.2303 39.384C27.8676 39.384 27.5049 39.3947 27.1423 39.416C26.7903 39.4373 26.4543 39.4747 26.1343 39.528C25.8249 39.5813 25.5689 39.6507 25.3663 39.736V39.432C25.3663 39.1867 25.4303 39.0107 25.5583 38.904C25.6969 38.7973 25.8623 38.728 26.0543 38.696C26.2676 38.6427 26.5823 38.6 26.9983 38.568C27.4143 38.536 27.8569 38.5253 28.3263 38.536C28.9236 38.536 29.4303 38.568 29.8463 38.632C30.2729 38.6853 30.6143 38.8027 30.8703 38.984C31.1369 39.1653 31.3289 39.4373 31.4463 39.8C31.5743 40.1627 31.6383 40.648 31.6383 41.256V44.52C31.5423 44.7227 31.2169 44.872 30.6623 44.968C30.1076 45.0533 29.2863 45.096 28.1983 45.096ZM28.1983 44.424C28.6249 44.424 28.9716 44.4133 29.2383 44.392C29.5156 44.36 29.7289 44.3227 29.8783 44.28C30.0276 44.2267 30.1289 44.1627 30.1823 44.088V41.88C30.0863 41.848 29.9156 41.8213 29.6703 41.8C29.4249 41.768 29.1689 41.7413 28.9023 41.72C28.6356 41.6987 28.4116 41.688 28.2303 41.688C27.8356 41.688 27.5156 41.7147 27.2703 41.768C27.0249 41.8213 26.8489 41.944 26.7423 42.136C26.6356 42.328 26.5823 42.6267 26.5823 43.032C26.5823 43.3627 26.6196 43.6293 26.6943 43.832C26.7689 44.0347 26.9183 44.184 27.1423 44.28C27.3769 44.376 27.7289 44.424 28.1983 44.424ZM34.7906 45H33.7666C33.6066 45 33.484 44.9573 33.3986 44.872C33.3133 44.7867 33.2706 44.6267 33.2706 44.392V38.936C33.5266 38.8613 33.884 38.7813 34.3426 38.696C34.8013 38.6107 35.3506 38.568 35.9906 38.568C36.62 38.568 37.116 38.6107 37.4786 38.696C37.8413 38.7707 38.108 38.888 38.2786 39.048C38.46 39.1973 38.572 39.384 38.6146 39.608C38.668 39.8213 38.6946 40.072 38.6946 40.36H37.2546L37.2386 40.136C37.2386 39.88 37.1693 39.6987 37.0306 39.592C36.9026 39.4747 36.748 39.4 36.5666 39.368C36.3853 39.336 36.204 39.32 36.0226 39.32C35.7453 39.32 35.4946 39.3467 35.2706 39.4C35.0573 39.4533 34.8973 39.5227 34.7906 39.608V45ZM43.0484 45.096C42.3977 45.096 41.8484 45.0533 41.4004 44.968C40.963 44.8827 40.611 44.7227 40.3444 44.488C40.0884 44.2533 39.907 43.928 39.8004 43.512C39.6937 43.096 39.6404 42.5573 39.6404 41.896C39.6404 41.1067 39.7417 40.4667 39.9444 39.976C40.147 39.4853 40.5044 39.128 41.0164 38.904C41.539 38.6693 42.2644 38.552 43.1924 38.552C43.9177 38.552 44.4937 38.6427 44.9204 38.824C45.3577 38.9947 45.6724 39.2667 45.8644 39.64C46.0564 40.0133 46.1524 40.488 46.1524 41.064V42.088H41.6564C41.6564 41.9173 41.6937 41.7787 41.7684 41.672C41.843 41.5653 41.9817 41.512 42.1844 41.512H44.8084L44.7924 41.096C44.7817 40.4987 44.6537 40.0613 44.4084 39.784C44.1737 39.5067 43.747 39.368 43.1284 39.368C42.6164 39.368 42.2164 39.448 41.9284 39.608C41.6404 39.768 41.4377 40.0293 41.3204 40.392C41.203 40.744 41.1444 41.2347 41.1444 41.864C41.1444 42.5147 41.2084 43.0107 41.3364 43.352C41.475 43.6827 41.699 43.9067 42.0084 44.024C42.3284 44.1413 42.771 44.2 43.3364 44.2C43.539 44.2 43.7737 44.1947 44.0404 44.184C44.3177 44.1733 44.595 44.1573 44.8724 44.136C45.1604 44.1147 45.4164 44.088 45.6404 44.056C45.8644 44.024 46.0137 43.992 46.0884 43.96V44.184C46.0884 44.3013 46.0617 44.4187 46.0084 44.536C45.955 44.6533 45.843 44.7493 45.6724 44.824C45.4484 44.9307 45.1177 45 44.6804 45.032C44.2537 45.0747 43.7097 45.096 43.0484 45.096Z" fill="white"/>
<path d="M15.1305 6.70415C14.9302 6.24546 15.0311 5.71087 15.3849 5.3568C15.7387 5.00273 16.2732 4.9014 16.732 5.10143L43.2614 16.4701C43.7094 16.6616 44 17.1019 44 17.5891C44 18.0763 43.7094 18.5166 43.2614 18.7081L16.6943 30.061C16.2378 30.2556 15.7088 30.1536 15.3575 29.803C15.0061 29.4525 14.9028 28.9237 15.0965 28.4668L18.8836 19.5441C19.0661 19.1143 19.4784 18.8269 19.9448 18.8042L22.9032 18.6594C23.5753 18.6638 24.1237 18.1225 24.128 17.4504C24.1324 16.7783 23.5911 16.2299 22.919 16.2255L19.8961 16.0418C19.4392 16.0137 19.0367 15.7315 18.8544 15.3116L15.1305 6.70415Z" fill="white"/>
</svg>
