<svg width="26" height="26" viewBox="0 0 26 26" fill="none" xmlns="http://www.w3.org/2000/svg">
<g opacity="0.75">
<rect x="0.374512" y="0.399414" width="25" height="25" rx="7" fill="white"/>
</g>
<mask id="mask0_277_100363" style="mask-type:alpha" maskUnits="userSpaceOnUse" x="5" y="3" width="17" height="2">
<rect x="5" y="3" width="17" height="1.7416" rx="0.870802" fill="#F3B811"/>
</mask>
<g mask="url(#mask0_277_100363)">
<path d="M5 3H11.29V9.53102V12.5788C8.84462 12.5788 6.52031 11.4464 5 9.53102V3Z" fill="#E52021"/>
<rect x="11.2915" y="3" width="4.42" height="9.57883" fill="#F7F7F7"/>
<path d="M15.7085 3H21.9985V9.53102C20.4782 11.4464 18.1539 12.5788 15.7085 12.5788V9.53102V3Z" fill="#268A42"/>
<rect x="5" y="3" width="17" height="1.7416" rx="0.870802" fill="black" fill-opacity="0.05"/>
</g>
<path fill-rule="evenodd" clip-rule="evenodd" d="M11.295 4.74268H6.875V11.2737L7.25002 11.946C7.48303 12.3638 7.77525 12.7363 8.11286 13.0554C8.23595 12.992 8.36898 12.9451 8.50941 12.9181L8.98525 12.8264C9.05541 12.8129 9.12129 12.7821 9.17711 12.7367C9.23293 12.6912 9.27701 12.6325 9.30549 12.5656L9.49887 12.1121C9.79635 11.4146 10.5631 11.0374 11.2827 11.2348L11.295 11.2382V4.74268Z" fill="#E52021"/>
<path fill-rule="evenodd" clip-rule="evenodd" d="M15.712 4.74292H11.292V11.2392L11.7443 11.3633C11.8133 11.3823 11.8857 11.3837 11.9553 11.3675C12.0249 11.3512 12.0896 11.3178 12.1436 11.2702L12.5105 10.9474C13.0748 10.4508 13.926 10.4508 14.4903 10.9474L14.8571 11.2702C14.9112 11.3179 14.9759 11.3512 15.0455 11.3675C15.1151 11.3837 15.1875 11.3823 15.2565 11.3633L15.712 11.2383V4.74292Z" fill="#F7F7F7"/>
<path fill-rule="evenodd" clip-rule="evenodd" d="M20.1348 4.74268H15.7148V11.2388L15.7296 11.2348C16.4492 11.0373 17.216 11.4146 17.5134 12.1121L17.7068 12.5656C17.7353 12.6324 17.7793 12.6912 17.8352 12.7367C17.891 12.7821 17.9569 12.8129 18.027 12.8264L18.5029 12.9181C18.6427 12.945 18.7752 12.9916 18.8978 13.0546C19.2351 12.7357 19.527 12.3634 19.7598 11.946L20.1348 11.2737V4.74268Z" fill="#268A42"/>
<path d="M13.377 4.1333L13.5742 6.27638L14.3527 4.27701L13.9525 6.39018L15.2492 4.69649L14.2841 6.60855L15.9942 5.35776L14.5423 6.91381L16.527 6.20725L14.7061 7.28122L16.8047 7.17613L14.7622 7.68103L16.8047 8.18592L14.7061 8.08083L16.527 9.15481L14.5423 8.44825L15.9942 10.0043L14.2841 8.7535L15.2492 10.6656L13.9525 8.97188L14.3527 11.085L13.5742 9.08567L13.377 11.2288L13.1799 9.08567L12.4014 11.085L12.8016 8.97188L11.5048 10.6656L12.4699 8.7535L10.7599 10.0043L12.2117 8.44825L10.227 9.15481L12.048 8.08083L9.94931 8.18592L11.9918 7.68103L9.94931 7.17613L12.048 7.28122L10.227 6.20725L12.2117 6.91381L10.7599 5.35776L12.4699 6.60855L11.5048 4.69649L12.8016 6.39018L12.4014 4.27701L13.1799 6.27638L13.377 4.1333Z" fill="#F7B70F"/>
<path fill-rule="evenodd" clip-rule="evenodd" d="M19.6869 18.3039C19.6571 18.2488 19.6415 18.1874 19.6415 18.1251C19.6415 18.0627 19.6571 18.0013 19.6868 17.9462L19.8886 17.5726C20.1991 16.9978 20.0304 16.2733 19.4962 15.8875L19.149 15.6367C19.0978 15.5997 19.0566 15.551 19.029 15.4949C19.0014 15.4387 18.9882 15.3768 18.9907 15.3145L19.0071 14.892C19.0323 14.2422 18.5596 13.6612 17.9074 13.5407L17.4836 13.4623C17.4211 13.4508 17.3624 13.4245 17.3127 13.3856C17.2629 13.3467 17.2237 13.2965 17.1983 13.2394L17.0261 12.8518C16.7611 12.2555 16.078 11.933 15.437 12.1018L15.0205 12.2115C14.9591 12.2277 14.8945 12.2289 14.8325 12.215C14.7705 12.2012 14.7129 12.1726 14.6647 12.1319L14.338 11.856C13.8353 11.4315 13.0771 11.4315 12.5743 11.856L12.2475 12.1319C12.1994 12.1726 12.1418 12.2012 12.0798 12.215C12.0178 12.2289 11.9532 12.2277 11.8918 12.2115L11.4753 12.1018C10.8343 11.9331 10.1512 12.2555 9.88624 12.8518L9.71397 13.2394C9.6886 13.2966 9.64934 13.3468 9.59961 13.3856C9.54989 13.4245 9.49121 13.4508 9.4287 13.4623L9.00483 13.5407C8.3527 13.6612 7.87995 14.2422 7.90519 14.892L7.92159 15.3145C7.92404 15.3768 7.91089 15.4387 7.8833 15.4949C7.85571 15.551 7.8145 15.5997 7.76329 15.6367L7.41607 15.8875C6.88188 16.2734 6.71317 16.9979 7.02361 17.5727L7.22541 17.9463C7.2552 18.0014 7.27077 18.0628 7.27077 18.1251C7.27077 18.1874 7.2552 18.2488 7.22541 18.3039L7.02361 18.6775C6.71317 19.2523 6.88188 19.9768 7.41607 20.3627L7.76325 20.6135C7.81448 20.6504 7.85569 20.6991 7.88328 20.7553C7.91088 20.8115 7.92402 20.8734 7.92155 20.9357L7.90515 21.3581C7.87991 22.0081 8.35267 22.589 9.0048 22.7095L9.22705 22.7506L9.2271 22.7505L9.42861 22.7877C9.49112 22.7993 9.54981 22.8256 9.59954 22.8645C9.64927 22.9034 9.68854 22.9536 9.71391 23.0108L9.88615 23.3983C10.1511 23.9946 10.8342 24.3171 11.4752 24.1483L11.8917 24.0386C11.9532 24.0224 12.0177 24.0212 12.0797 24.0351C12.1417 24.0489 12.1993 24.0775 12.2475 24.1182L12.5742 24.3941C12.6014 24.4169 12.6294 24.4387 12.6584 24.4593L12.6583 24.4594L12.6584 24.4593C12.8942 24.628 13.1751 24.7126 13.4561 24.7126C13.7328 24.7126 14.0095 24.6308 14.243 24.4672L14.243 24.4671C14.2757 24.4442 14.3074 24.4199 14.3379 24.3941L14.6647 24.1182C14.7129 24.0775 14.7705 24.0489 14.8325 24.0351C14.8945 24.0212 14.959 24.0224 15.0204 24.0386L15.437 24.1483C15.5517 24.1784 15.6676 24.1929 15.7823 24.1929C16.3088 24.1929 16.8084 23.8879 17.026 23.3983L17.1983 23.0107C17.2236 22.9536 17.2629 22.9033 17.3126 22.8645C17.3623 22.8256 17.421 22.7993 17.4835 22.7877L17.6712 22.7531L17.6712 22.7532L17.6712 22.7531L17.9075 22.7095C18.5596 22.589 19.0324 22.008 19.0071 21.3581L18.9907 20.9357C18.9882 20.8734 19.0014 20.8115 19.029 20.7553C19.0566 20.6991 19.0978 20.6504 19.149 20.6135L19.4962 20.3627C20.0304 19.9768 20.1991 19.2523 19.8887 18.6775L19.6869 18.3039Z" fill="#D5D5D5"/>
<ellipse cx="13.4576" cy="18.158" rx="4.30721" ry="4.22127" fill="white"/>
<path d="M16.1737 17.8131C16.3204 17.6729 16.3724 17.4673 16.3091 17.2762C16.2457 17.0851 16.0804 16.9487 15.8778 16.9196L14.6049 16.7382C14.5933 16.7365 14.5822 16.7321 14.5727 16.7253C14.5632 16.7185 14.5555 16.7095 14.5503 16.6992L13.9813 15.569C13.8906 15.389 13.7069 15.2771 13.5021 15.2771C13.2972 15.2771 13.1135 15.3893 13.0229 15.569L12.4538 16.6992C12.4487 16.7096 12.441 16.7185 12.4315 16.7253C12.422 16.7321 12.4109 16.7366 12.3992 16.7382L11.1269 16.9196C10.9241 16.9487 10.7584 17.0851 10.6954 17.2762C10.6323 17.4673 10.684 17.6729 10.8308 17.8131L11.7514 18.6926C11.7689 18.7091 11.7764 18.7327 11.7724 18.7558L11.555 19.9976C11.5377 20.0939 11.5485 20.1931 11.5861 20.2838C11.6237 20.3744 11.6867 20.4528 11.7677 20.5099C11.8482 20.5677 11.9436 20.6022 12.0431 20.6093C12.1426 20.6164 12.2422 20.5959 12.3303 20.5501L13.4684 19.9637C13.4788 19.9582 13.4905 19.9554 13.5024 19.9554C13.5142 19.9554 13.5259 19.9582 13.5364 19.9637L14.6744 20.5501C14.7625 20.5957 14.862 20.6162 14.9614 20.6091C15.0609 20.602 15.1563 20.5676 15.2367 20.5099C15.3178 20.4528 15.3807 20.3744 15.4184 20.2838C15.456 20.1931 15.4668 20.0939 15.4495 19.9976L15.2321 18.7558C15.2301 18.7444 15.231 18.7327 15.2346 18.7217C15.2383 18.7107 15.2446 18.7007 15.253 18.6926L16.1737 17.8131Z" fill="#F3B811"/>
</svg>
