<svg width="30" height="30" viewBox="0 0 30 30" fill="none" xmlns="http://www.w3.org/2000/svg">
<rect width="30" height="30" rx="7" fill="#F2F2F2"/>
<path opacity="0.4" d="M23.6599 15.7301C23.2899 15.7301 22.9799 15.4501 22.9399 15.0801C22.6999 12.8801 21.5199 10.9001 19.6999 9.64007C19.3699 9.41007 19.2899 8.96007 19.5199 8.63007C19.7499 8.30007 20.1999 8.22007 20.5299 8.45007C22.6999 9.96007 24.0999 12.3201 24.3899 14.9301C24.4299 15.3301 24.1399 15.6901 23.7399 15.7301C23.7099 15.7301 23.6899 15.7301 23.6599 15.7301Z" fill="#292D32"/>
<path opacity="0.4" d="M7.0396 15.78C7.0196 15.78 6.9896 15.78 6.9696 15.78C6.5696 15.74 6.2796 15.38 6.3196 14.98C6.5896 12.37 7.9696 10.01 10.1196 8.48996C10.4396 8.25996 10.8996 8.33996 11.1296 8.65996C11.3596 8.98996 11.2796 9.43996 10.9596 9.66996C9.1596 10.95 7.9896 12.93 7.7696 15.12C7.7296 15.5 7.4096 15.78 7.0396 15.78Z" fill="#292D32"/>
<path opacity="0.4" d="M19.2899 24.1001C18.0599 24.6901 16.7399 24.9901 15.3599 24.9901C13.9199 24.9901 12.5499 24.6701 11.2699 24.0201C10.9099 23.8501 10.7699 23.4101 10.9499 23.0501C11.1199 22.6901 11.5599 22.5501 11.9199 22.7201C12.5499 23.0401 13.2199 23.2601 13.8999 23.3901C14.8199 23.5701 15.7599 23.5801 16.6799 23.4201C17.3599 23.3001 18.0299 23.0901 18.6499 22.7901C19.0199 22.6201 19.4599 22.7601 19.6199 23.1301C19.7999 23.4901 19.6599 23.9301 19.2899 24.1001Z" fill="#292D32"/>
<path d="M15.3498 5.01001C13.7998 5.01001 12.5298 6.27001 12.5298 7.83001C12.5298 9.39001 13.7898 10.65 15.3498 10.65C16.9098 10.65 18.1698 9.39001 18.1698 7.83001C18.1698 6.27001 16.9098 5.01001 15.3498 5.01001Z" fill="#292D32"/>
<path d="M8.34979 16.8701C6.79979 16.8701 5.52979 18.1301 5.52979 19.6901C5.52979 21.2501 6.78979 22.5101 8.34979 22.5101C9.90979 22.5101 11.1698 21.2501 11.1698 19.6901C11.1698 18.1301 9.89979 16.8701 8.34979 16.8701Z" fill="#292D32"/>
<path d="M22.2497 16.8701C20.6997 16.8701 19.4297 18.1301 19.4297 19.6901C19.4297 21.2501 20.6897 22.5101 22.2497 22.5101C23.8097 22.5101 25.0697 21.2501 25.0697 19.6901C25.0697 18.1301 23.8097 16.8701 22.2497 16.8701Z" fill="#292D32"/>
</svg>
