<svg width="30" height="30" viewBox="0 0 30 30" fill="none" xmlns="http://www.w3.org/2000/svg">
<rect width="30" height="30" rx="7" fill="#F2F2F2"/>
<path d="M15.5716 26.7186C20.8893 26.7186 25.2003 22.4531 25.2003 17.1912C25.2003 11.9294 20.8893 7.66382 15.5716 7.66382C10.2538 7.66382 5.94287 11.9294 5.94287 17.1912C5.94287 22.4531 10.2538 26.7186 15.5716 26.7186Z" fill="url(#paint0_radial_277_100253)"/>
<path opacity="0.64" d="M13.5285 15.2946C13.5285 15.2946 13.2698 13.4544 12.1308 13.1225C11.3328 12.89 9.36146 14.1485 9.64601 15.717C9.64601 15.717 11.5615 16.9238 13.5285 15.2946Z" fill="url(#paint1_radial_277_100253)"/>
<path opacity="0.64" d="M17.5571 15.0351C17.5571 15.0351 17.7853 13.1887 18.9832 12.8274C19.8227 12.5742 21.9425 13.7812 21.6802 15.3567C21.6802 15.3567 19.6816 16.6126 17.5571 15.0351Z" fill="url(#paint2_radial_277_100253)"/>
<path d="M13.9989 15.0149C13.9989 15.0149 12.6002 16.4136 9.36251 15.5805C9.0113 15.5225 9.30464 16.3476 10.8248 16.5369C12.6615 16.7651 14.5221 15.1779 13.9989 15.0149Z" fill="#FFF200"/>
<path d="M13.9523 14.9458C13.9523 14.9458 12.1141 15.9266 9.44464 15.5764C9.10018 15.5155 9.35823 16.0018 10.8479 16.2023C12.6475 16.4448 14.4657 15.1121 13.9523 14.9458Z" fill="url(#paint3_radial_277_100253)"/>
<path d="M13.9849 14.9368C13.9849 14.9368 12.5787 16.3982 9.40287 15.5418C9.05856 15.4814 9.39684 16.1374 10.8865 16.3381C12.686 16.5804 14.4981 15.1031 13.9849 14.9368Z" fill="#601B05"/>
<path d="M11.9161 12.4268C11.9161 12.4268 10.3493 12.1999 9.56836 13.3635C9.56836 13.3635 10.655 12.5655 12.124 12.7029C12.1732 12.4754 11.9161 12.4268 11.9161 12.4268Z" fill="url(#paint4_radial_277_100253)"/>
<path d="M11.9696 12.5068C11.9696 12.5068 10.4648 12.3843 9.53613 13.4098C9.53613 13.4098 10.6024 12.6772 12.0714 12.8146C12.2757 12.5958 11.9696 12.5068 11.9696 12.5068Z" fill="#FFF200"/>
<path d="M11.9442 12.4915C11.9442 12.4915 10.3985 12.3283 9.52295 13.4211C9.52295 13.4211 10.5897 12.614 12.0587 12.7515C12.2448 12.5765 11.9442 12.4915 11.9442 12.4915Z" fill="#601B05"/>
<path d="M17.2828 14.9449C17.2828 14.9449 18.8514 16.1541 21.954 14.9164C22.2947 14.8141 22.1111 15.6697 20.628 16.0506C18.8364 16.5104 16.785 15.173 17.2828 14.9449Z" fill="#FFF200"/>
<path d="M17.3189 14.8708C17.3189 14.8708 19.2693 15.6101 21.8708 14.9234C22.2045 14.8192 22.0118 15.3342 20.5606 15.7226C18.8075 16.1917 16.8313 15.1011 17.3189 14.8708Z" fill="url(#paint5_radial_277_100253)"/>
<path d="M17.2862 14.8672C17.2862 14.8672 18.8703 16.138 21.9089 14.8851C22.2424 14.781 21.9921 15.4746 20.5409 15.8633C18.7877 16.3321 16.7987 15.0973 17.2862 14.8672Z" fill="#601B05"/>
<path d="M18.6944 12.1319C18.6944 12.1319 20.1956 11.6328 21.1733 12.6404C21.1733 12.6404 19.9605 12.0464 18.5397 12.4404C18.4503 12.2253 18.6944 12.1319 18.6944 12.1319Z" fill="url(#paint6_radial_277_100253)"/>
<path d="M18.6562 12.2212C18.6562 12.2212 20.1148 11.8358 21.2132 12.6813C21.2132 12.6813 20.0326 12.1483 18.6115 12.5423C18.3711 12.3629 18.6562 12.2212 18.6562 12.2212Z" fill="#FFF200"/>
<path d="M18.677 12.2023C18.677 12.2023 20.1688 11.7692 21.2269 12.6903C21.2269 12.6903 20.032 12.084 18.611 12.4778C18.3966 12.3386 18.677 12.2023 18.677 12.2023Z" fill="#601B05"/>
<path d="M6.01318 16.0532C6.87432 13.0936 8.53088 11.5569 14.478 10.8626C17.3089 10.5322 19.7179 10.1874 21.5243 9.70594C19.8858 8.42825 17.8193 7.66382 15.5712 7.66382C10.643 7.66389 6.58207 11.3285 6.01318 16.0532Z" fill="url(#paint7_radial_277_100253)"/>
<path d="M7.50732 6.33764C7.50732 6.33764 7.79551 4.03652 10.6613 3.27993C13.5271 2.52297 16.9656 2.63131 17.7756 3.26161C18.5856 3.89219 21.2251 3.43231 21.9309 5.04558C22.6369 6.65907 24.0328 7.44491 24.0328 7.44491C24.0328 7.44491 26.7015 8.71621 25.7708 10.9364" fill="url(#paint8_radial_277_100253)"/>
<path d="M19.2992 6.5873L20.7486 5.9213C20.4706 5.12052 19.7844 4.29545 19.1555 3.6607C18.5785 3.57068 18.0639 3.48396 17.7777 3.26124C17.3032 2.89203 15.9274 2.70236 14.2935 2.76027C16.2452 3.56615 19.2992 6.5873 19.2992 6.5873Z" fill="url(#paint9_radial_277_100253)"/>
<path d="M20.2423 8.85864L17.7012 9.76389C17.7012 9.76389 21.6225 10.624 23.3635 12.9573C24.4808 14.4546 24.9443 15.5087 25.1332 16.0727C24.7659 12.9639 22.8873 10.3131 20.2423 8.85864Z" fill="url(#paint10_radial_277_100253)"/>
<path d="M17.6484 9.20072C17.6484 9.20072 21.5697 10.0609 23.3107 12.3941C25.0519 14.7277 25.1321 16.0729 25.1321 16.0729C25.1321 16.0729 26.7782 14.2337 25.8957 11.2363C25.0133 8.23879 22.2415 7.56445 22.2415 7.56445" fill="url(#paint11_radial_277_100253)"/>
<path d="M18.6235 9.47488C19.2804 9.68711 20.1856 10.0307 21.0725 10.5316C20.9254 9.59098 20.9554 8.27759 20.9554 8.27759L18.6235 9.47488Z" fill="url(#paint12_radial_277_100253)"/>
<path d="M19.6777 5.83506C19.1075 4.75035 17.5196 3.50578 16.6566 2.88022C16.5514 2.86255 16.4403 2.84667 16.3252 2.83252C16.6029 3.02822 17.0257 3.3368 17.4824 3.70809C18.2752 4.3506 19.1635 5.18264 19.5399 5.90568L19.6777 5.83506Z" fill="#F6D5D1"/>
<path d="M23.1398 10.1899L22.5743 9.34321L23.2845 8.61205L22.8757 7.79661C22.7965 7.76119 22.723 7.7303 22.6558 7.70386L23.097 8.58388L22.3761 9.32518L22.9494 10.1839L22.3208 11.0024L22.9846 11.793L22.907 11.9196C22.944 11.9584 22.9802 11.998 23.0158 12.0376L23.1748 11.7789L22.5189 10.9979L23.1398 10.1899ZM23.6591 10.2383L23.0936 9.39156L23.8038 8.66047L23.5504 8.15569C23.4666 8.10375 23.3841 8.05482 23.3044 8.01071L23.6158 8.63195L22.8954 9.37389L23.4685 10.2326L22.8398 11.0507L23.5036 11.8416L23.2282 12.2903C23.2553 12.3248 23.2837 12.3588 23.3099 12.3938C23.3168 12.4028 23.323 12.4115 23.3296 12.4208L23.6941 11.8275L23.0382 11.0465L23.6591 10.2383Z" fill="#DA6788"/>
<path opacity="0.45" d="M17.1709 7.02225L16.1658 6.75455L16.0807 5.72926L15.0507 5.58607L14.8472 4.57794L13.8084 4.54705L13.5001 3.56594L12.4644 3.64274L12.1594 2.96747C12.1064 2.97587 12.0534 2.98428 12.0005 2.99333L12.3671 3.80396L13.3885 3.72802L13.6932 4.69778L14.719 4.7281L14.9203 5.72358L15.9362 5.8644L16.0199 6.87518L17.0096 7.13813L16.9578 8.15014L17.8979 8.54938L17.818 8.93289L17.9688 8.97104L18.0758 8.45778L17.1179 8.05078L17.1709 7.02225ZM17.4983 7.69816L17.551 6.66899L16.5459 6.40151L16.4611 5.37628L15.4311 5.2331L15.2273 4.2249L14.1888 4.19429L13.8802 3.21282L12.8446 3.28933L12.6661 2.89404C12.6126 2.90094 12.5588 2.90812 12.5053 2.91567L12.7473 3.45113L13.769 3.3749L14.0738 4.34466L15.0996 4.37498L15.3007 5.37025L16.3165 5.51099L16.4004 6.52185L17.3896 6.78538L17.3378 7.79717L18.2784 8.19634L18.1099 9.00639L18.2604 9.04418L18.4558 8.10474L17.4983 7.69816Z" fill="#DA6788"/>
<path d="M24.293 7.5882C24.1357 7.49336 24.0329 7.44415 24.0329 7.44415C24.0329 7.44415 22.6369 6.65838 21.931 5.04482C21.8283 4.80982 21.6834 4.61979 21.51 4.46288C21.1127 4.53041 20.6516 4.67324 20.1097 4.89265C18.4049 5.58351 16.4956 5.34283 13.5337 4.54837C11.1754 3.91628 9.59998 4.42954 8.23181 4.78251C7.60397 5.57424 7.50732 6.33688 7.50732 6.33688L18.4819 9.10025C21.4773 8.61493 23.5341 7.90662 24.293 7.5882Z" fill="url(#paint13_radial_277_100253)"/>
<path d="M19.9731 9.96871C22.1379 9.43957 24.7329 8.66192 25.2922 8.40141C24.7344 7.77888 24.0358 7.44516 24.0358 7.44516C24.0358 7.44516 22.8714 6.78692 22.132 5.44263C21.7673 5.53092 21.3553 5.67612 20.8813 5.88325C19.1652 6.63266 17.2139 6.45801 14.1745 5.76586C11.1865 5.08541 9.46448 6.11071 7.83398 6.41957L19.9731 9.96871Z" fill="url(#paint14_radial_277_100253)"/>
<path d="M5.83971 15.8093C5.83971 15.8093 3.09024 14.4407 4.43096 10.6055C4.35559 9.39661 5.5256 6.1702 7.14978 5.88713C8.77411 5.60414 10.4683 4.53681 13.4542 5.23823C16.4401 5.93994 18.3562 6.12063 20.0381 5.37718C21.7199 4.63373 22.6331 4.66742 23.2624 5.45822C23.8916 6.24909 25.0268 7.53008 24.5864 7.79993C24.146 8.06971 20.0597 9.81079 13.8574 10.2487C7.65536 10.6866 6.77149 13.0685 6.46087 14.17C6.18017 15.1657 6.12433 16.0395 5.83971 15.8093Z" fill="url(#paint15_radial_277_100253)"/>
<path d="M19.6776 5.51758C18.5567 5.91854 17.309 5.93801 15.7072 5.68922C13.2535 6.82343 10.3784 10.2699 9.7832 11.0049C10.7914 10.6462 12.1144 10.3695 13.8574 10.2464C14.3403 10.2122 14.8087 10.1696 15.265 10.121C15.6393 9.60835 16.2272 8.94925 17.125 8.27692C18.6662 7.12302 19.4355 5.93744 19.6776 5.51758Z" fill="url(#paint16_radial_277_100253)"/>
<path d="M11.8468 5.00938L11.6724 5.51301L10.6304 5.54843L10.4562 6.56439L9.43291 6.75528L9.40619 7.78504L8.41857 8.10769L8.52015 9.13177L7.5774 9.56427L7.79094 10.5703L6.89946 11.0973L7.21792 12.0758L6.39715 12.7027L6.66725 13.5698C6.69608 13.502 6.72919 13.4318 6.76462 13.3606L6.57729 12.7591L7.39944 12.1312L7.08519 11.1666L7.96593 10.6455L7.75508 9.65214L8.68541 9.22509L8.5855 8.21481L9.55853 7.89704L9.5851 6.88346L10.5914 6.69587L10.7627 5.69766L11.7849 5.66281L12.0079 5.01843C11.9537 5.01477 11.8999 5.01182 11.8468 5.00938ZM6.9635 11.8486L6.64939 10.8836L7.52977 10.3629L7.31899 9.36943L8.24939 8.94231L8.14905 7.9321L9.12244 7.61397L9.1488 6.60067L10.1552 6.4128L10.3264 5.41459L11.3485 5.38003L11.4794 5.0022C11.4237 5.00248 11.3689 5.00371 11.3144 5.00486L11.2364 5.2303L10.1944 5.26537L10.0201 6.2819L8.99683 6.4725L8.96996 7.50168L7.98263 7.82462L8.08399 8.84863L7.14139 9.28142L7.35522 10.2875L6.46359 10.8144L6.78205 11.7926L5.96143 12.4196L6.41291 13.8702L6.56139 13.8248L6.14128 12.4763L6.9635 11.8486Z" fill="#DA6788"/>
<path d="M12.9433 10.3313C13.2653 9.95707 13.7333 9.42606 14.2895 8.83578C15.2246 7.84296 16.4045 6.68798 17.5304 5.853C17.448 5.85271 17.3654 5.85178 17.281 5.84912C15.4333 7.26008 13.5028 9.43691 12.7183 10.3562C12.7917 10.3475 12.8682 10.3397 12.9433 10.3313Z" fill="#F6D5D1"/>
<path d="M6.78398 13.3214C4.77171 12.876 4.58685 10.8387 4.70091 10.2369C5.24446 7.2404 7.80696 5.74208 7.80696 5.74208L7.80115 5.73755C7.58093 5.79668 7.3647 5.84797 7.14978 5.88555C5.52567 6.16862 4.35566 9.39503 4.43096 10.604C3.09024 14.4391 5.83971 15.8077 5.83971 15.8077C6.1244 16.0379 6.18017 15.1642 6.46095 14.1683C6.52709 13.934 6.61996 13.6411 6.78398 13.3214Z" fill="url(#paint17_radial_277_100253)"/>
<path d="M4.16406 11.58C4.19565 12.5152 4.5987 13.8619 6.36831 14.521C6.38058 14.4709 6.39336 14.4205 6.40651 14.3694C4.62549 13.6957 4.32162 12.3381 4.31676 11.4359C4.31676 11.1568 4.34733 10.9278 4.37448 10.7771C4.28372 11.0577 4.21336 11.326 4.16406 11.58Z" fill="#F6D5D1"/>
<path d="M25.7185 10.7221C25.7181 10.7209 25.7176 10.7194 25.7172 10.7183C25.6941 12.0196 25.3879 13.634 24.7095 14.7064C25.1043 15.5912 25.1332 16.072 25.1332 16.072C25.1332 16.072 26.3021 14.7655 26.1415 12.5607C26.1107 12.146 26.0344 11.703 25.8968 11.2353C25.8701 11.1447 25.8415 11.0564 25.8115 10.97C25.7821 10.8854 25.751 10.8029 25.7185 10.7221Z" fill="url(#paint18_radial_277_100253)"/>
<mask id="mask0_277_100253" style="mask-type:luminance" maskUnits="userSpaceOnUse" x="9" y="17" width="5" height="4">
<g opacity="0.72">
<path d="M13.6959 19.3245C13.5636 20.1029 12.4315 20.563 11.1673 20.3528C9.90337 20.1419 8.98617 19.3407 9.11869 18.5627C9.25091 17.7846 10.3829 17.3239 11.6468 17.5343C12.911 17.7449 13.8281 18.547 13.6959 19.3245Z" fill="url(#paint19_radial_277_100253)"/>
</g>
</mask>
<g mask="url(#mask0_277_100253)">
<path opacity="0.72" d="M13.6954 19.3235C13.5631 20.102 12.431 20.5621 11.1668 20.3518C9.90288 20.141 8.98569 19.3397 9.1182 18.5618C9.25042 17.7836 10.3825 17.3229 11.6464 17.5334C12.9105 17.7439 13.8276 18.546 13.6954 19.3235Z" fill="#ED1C24"/>
</g>
<mask id="mask1_277_100253" style="mask-type:luminance" maskUnits="userSpaceOnUse" x="17" y="17" width="6" height="4">
<g opacity="0.72">
<path d="M22.1056 18.1777C22.3196 18.9382 21.492 19.8303 20.2574 20.1708C19.0225 20.5108 17.8484 20.1705 17.6343 19.4105C17.4201 18.6505 18.2477 17.7578 19.4823 17.4176C20.7172 17.0772 21.8916 17.4183 22.1056 18.1777Z" fill="url(#paint20_radial_277_100253)"/>
</g>
</mask>
<g mask="url(#mask1_277_100253)">
<path opacity="0.72" d="M22.1056 18.1777C22.3196 18.9382 21.492 19.8303 20.2574 20.1708C19.0225 20.5108 17.8484 20.1705 17.6343 19.4105C17.4201 18.6505 18.2477 17.7578 19.4823 17.4176C20.7172 17.0772 21.8916 17.4183 22.1056 18.1777Z" fill="#ED1C24"/>
</g>
<path d="M20.1219 18.6578C20.1561 18.7371 18.1994 20.2286 15.6293 20.2644C13.0598 20.334 11.0427 18.9238 11.0736 18.843C11.0906 18.7255 13.097 19.5807 15.6134 19.5102C18.1308 19.4778 20.0999 18.5411 20.1219 18.6578Z" fill="#FFF200"/>
<path d="M20.1783 18.5827C20.2124 18.6649 18.1963 19.9984 15.6263 20.0336C13.0568 20.1036 11.0643 18.8522 11.0951 18.7688C11.1121 18.6473 13.0652 19.2094 15.5817 19.1379C18.0988 19.1062 20.1562 18.462 20.1783 18.5827Z" fill="url(#paint21_radial_277_100253)"/>
<path d="M20.1225 18.6557C20.1564 18.7229 18.1952 19.9952 15.6252 20.0334C13.0556 20.1003 11.0431 18.9096 11.0741 18.8409C11.0916 18.741 13.0951 19.461 15.6117 19.3933C18.1289 19.358 20.1009 18.5566 20.1225 18.6557Z" fill="#601B05"/>
<mask id="mask2_277_100253" style="mask-type:luminance" maskUnits="userSpaceOnUse" x="8" y="18" width="15" height="9">
<g opacity="0.87">
<path d="M15.395 26.6221C11.5182 26.513 8.44132 24.6279 8.52155 22.4119C8.60302 20.196 11.8128 18.4881 15.6908 18.5972C19.567 18.7063 22.6452 20.5912 22.5638 22.8072C22.4822 25.0232 19.2726 26.7313 15.395 26.6221Z" fill="url(#paint22_radial_277_100253)"/>
</g>
</mask>
<g mask="url(#mask2_277_100253)">
<path opacity="0.87" d="M15.3284 25.7037C11.3168 25.6038 8.13292 23.8781 8.21594 21.8495C8.30024 19.8209 11.6216 18.2574 15.6344 18.3573C19.6454 18.4572 22.8307 20.1827 22.7464 22.2113C22.662 24.24 19.3407 25.8036 15.3284 25.7037Z" fill="#ED1C24"/>
</g>
<path d="M10.0286 18.963C10.0286 18.963 9.7394 18.1453 9.03706 18.1453C8.33457 18.1453 8.68585 20.4552 8.89235 21.5385" fill="url(#paint23_radial_277_100253)"/>
<path d="M12.9534 26.6548C12.9534 26.6548 10.9702 26.8184 9.26238 23.0027C8.60128 21.3673 9.09712 20.0591 9.75815 18.7509C10.4193 17.4425 11.4658 15.5347 12.182 17.2245C12.9534 16.2434 13.9726 17.1429 13.5388 17.9197C14.365 17.4834 14.9022 18.5737 14.4685 19.2279C15.2741 19.1665 15.4875 20.0047 15.1568 20.7133C14.8264 21.4217 14.2205 22.3485 14.606 23.4932C14.9918 24.6381 15.9282 27.0364 12.9534 26.6548Z" fill="url(#paint24_radial_277_100253)"/>
<path d="M14.4709 19.2275C14.5013 19.1815 14.5257 19.1332 14.5469 19.0837C14.0517 19.7923 13.1956 21.0663 13.0677 21.6005C12.9432 22.115 12.9014 22.4654 12.9011 22.4678C12.8956 22.5127 12.9281 22.5534 12.9738 22.5589C12.977 22.5593 12.9805 22.5594 12.9837 22.5594C13.0247 22.5594 13.0605 22.529 13.0655 22.4872C13.0655 22.4861 13.1061 22.1447 13.2288 21.6381C13.3024 21.309 13.7563 20.5548 14.1886 19.9034C14.3506 19.6582 14.5096 19.4256 14.6452 19.2306C14.5902 19.2252 14.5328 19.2227 14.4709 19.2275ZM13.7157 17.8498C13.6591 17.8659 13.6013 17.8876 13.5413 17.9192C13.5824 17.8455 13.6102 17.771 13.6268 17.6968C13.1345 18.3317 11.8933 19.9673 11.7459 20.5785C11.6211 21.0928 11.5791 21.4435 11.5791 21.4457C11.5738 21.4907 11.6058 21.5314 11.6516 21.5368C11.6547 21.5371 11.658 21.5373 11.661 21.5373C11.7025 21.5373 11.7385 21.5067 11.7436 21.4653C11.7436 21.464 11.7838 21.1227 11.9067 20.6161C11.9783 20.2916 12.4945 19.5039 12.9888 18.8226C13.2636 18.4416 13.5315 18.0887 13.7157 17.8498ZM12.1026 17.0508C11.7865 17.4541 10.8834 18.6458 10.3061 19.8045C10.1331 20.2326 10.0307 20.8461 10.0299 20.8488C10.0225 20.8936 10.053 20.9359 10.0979 20.9437C10.1025 20.9444 10.107 20.9447 10.1115 20.9447C10.1512 20.9447 10.1866 20.9165 10.1932 20.8763C10.1932 20.8749 10.2968 20.2661 10.457 19.871C10.995 18.7899 11.832 17.6686 12.1815 17.2176C12.1557 17.1569 12.1292 17.1021 12.1026 17.0508Z" fill="#EC8F23"/>
<path d="M20.7852 19.0171C20.7852 19.0171 21.0743 18.1995 21.7767 18.1995C22.4791 18.1995 22.1279 20.5093 21.9213 21.5927" fill="url(#paint25_radial_277_100253)"/>
<path d="M17.8583 26.7096C17.8583 26.7096 19.8415 26.8729 21.5494 23.0574C22.2104 21.4219 21.7146 20.1138 21.0536 18.8056C20.3925 17.4972 19.346 15.5894 18.6297 17.2791C17.8583 16.298 16.8392 17.1976 17.2729 17.9744C16.4466 17.5381 15.9094 18.6285 16.3433 19.2826C15.5374 19.2212 15.3241 20.0594 15.6548 20.768C15.9852 21.4765 16.5911 22.4033 16.2056 23.5479C15.82 24.6927 14.8835 27.091 17.8583 26.7096Z" fill="url(#paint26_radial_277_100253)"/>
<path d="M16.1685 19.2862C16.304 19.4813 16.463 19.7138 16.6251 19.959C17.0573 20.6103 17.5113 21.3646 17.585 21.6937C17.7075 22.2005 17.7481 22.5418 17.7481 22.5429C17.7532 22.5846 17.789 22.6151 17.83 22.6151C17.8331 22.6151 17.8366 22.615 17.8398 22.6146C17.8856 22.6092 17.918 22.5684 17.9127 22.5235C17.9123 22.5211 17.8705 22.1706 17.7457 21.6562C17.6181 21.1219 16.7619 19.848 16.2668 19.1394C16.288 19.1889 16.3126 19.2372 16.3429 19.2832C16.2808 19.2784 16.2235 19.2808 16.1685 19.2862ZM17.8249 18.8783C18.3191 19.5596 18.8355 20.3473 18.907 20.6717C19.0298 21.1784 19.0701 21.5196 19.0701 21.521C19.0753 21.5624 19.1112 21.5929 19.1527 21.5929C19.1558 21.5929 19.1591 21.5928 19.1622 21.5925C19.208 21.5871 19.2399 21.5464 19.2346 21.5014C19.2346 21.4992 19.1927 21.1485 19.0679 20.6342C18.9204 20.023 17.6792 18.3873 17.1869 17.7525C17.2035 17.8265 17.2314 17.9012 17.2725 17.975C17.2124 17.9433 17.1546 17.9217 17.0981 17.9054C17.2821 18.1443 17.5502 18.4972 17.8249 18.8783ZM18.6321 17.2733C18.9817 17.7242 19.8187 18.8456 20.3566 19.9266C20.5169 20.3218 20.6204 20.9307 20.6204 20.932C20.6271 20.9721 20.6623 21.0004 20.7021 21.0004C20.7067 21.0004 20.7113 21.0001 20.7158 20.9994C20.7609 20.9915 20.7912 20.9494 20.7838 20.9045C20.783 20.9018 20.6806 20.2883 20.5076 19.86C19.9304 18.7015 19.0272 17.5098 18.7112 17.1064C18.6846 17.1578 18.658 17.2126 18.6321 17.2733Z" fill="#EC8F23"/>
<defs>
<radialGradient id="paint0_radial_277_100253" cx="0" cy="0" r="1" gradientUnits="userSpaceOnUse" gradientTransform="translate(15.6492 12.3507) scale(14.2101 14.0606)">
<stop offset="0.0714" stop-color="#F9EC00"/>
<stop offset="0.3407" stop-color="#F2BE1D"/>
<stop offset="0.6868" stop-color="#ED9D23"/>
<stop offset="1" stop-color="#E87326"/>
</radialGradient>
<radialGradient id="paint1_radial_277_100253" cx="0" cy="0" r="1" gradientUnits="userSpaceOnUse" gradientTransform="translate(12.3897 12.0065) scale(3.4166 3.98209)">
<stop offset="0.0714" stop-color="#F2BE1D"/>
<stop offset="0.6868" stop-color="#ED9D23"/>
<stop offset="1" stop-color="#E87326"/>
</radialGradient>
<radialGradient id="paint2_radial_277_100253" cx="0" cy="0" r="1" gradientUnits="userSpaceOnUse" gradientTransform="translate(18.6811 11.7183) rotate(178.598) scale(3.62017 3.98223)">
<stop offset="0.0714" stop-color="#F2BE1D"/>
<stop offset="0.6868" stop-color="#ED9D23"/>
<stop offset="1" stop-color="#E87326"/>
</radialGradient>
<radialGradient id="paint3_radial_277_100253" cx="0" cy="0" r="1" gradientUnits="userSpaceOnUse" gradientTransform="translate(11.7715 14.9108) scale(2.64135 2.61356)">
<stop offset="0.0714" stop-color="#F2BE1D"/>
<stop offset="0.6868" stop-color="#ED9D23"/>
<stop offset="1" stop-color="#E87326"/>
</radialGradient>
<radialGradient id="paint4_radial_277_100253" cx="0" cy="0" r="1" gradientUnits="userSpaceOnUse" gradientTransform="translate(11.5411 11.3796) rotate(3.19363) scale(1.44302 1.42794)">
<stop offset="0.0714" stop-color="#F2BE1D"/>
<stop offset="0.6868" stop-color="#ED9D23"/>
<stop offset="1" stop-color="#E87326"/>
</radialGradient>
<radialGradient id="paint5_radial_277_100253" cx="0" cy="0" r="1" gradientUnits="userSpaceOnUse" gradientTransform="translate(19.6276 15.3547) scale(1.72081 1.70271)">
<stop offset="0.0714" stop-color="#F2BE1D"/>
<stop offset="0.6868" stop-color="#ED9D23"/>
<stop offset="1" stop-color="#E87326"/>
</radialGradient>
<radialGradient id="paint6_radial_277_100253" cx="0" cy="0" r="1" gradientUnits="userSpaceOnUse" gradientTransform="translate(18.8752 11.0354) rotate(166.658) scale(1.44237 1.42882)">
<stop offset="0.0714" stop-color="#F2BE1D"/>
<stop offset="0.6868" stop-color="#ED9D23"/>
<stop offset="1" stop-color="#E87326"/>
</radialGradient>
<radialGradient id="paint7_radial_277_100253" cx="0" cy="0" r="1" gradientUnits="userSpaceOnUse" gradientTransform="translate(13.7687 11.8585) scale(6.24979 6.18405)">
<stop offset="0.0714" stop-color="#F9EC00"/>
<stop offset="0.3407" stop-color="#F2BE1D"/>
<stop offset="0.6868" stop-color="#ED9D23"/>
<stop offset="1" stop-color="#E87326"/>
</radialGradient>
<radialGradient id="paint8_radial_277_100253" cx="0" cy="0" r="1" gradientUnits="userSpaceOnUse" gradientTransform="translate(16.7376 6.84315) scale(7.15229 7.07706)">
<stop stop-color="white"/>
<stop offset="1" stop-color="#CEDAD9"/>
</radialGradient>
<radialGradient id="paint9_radial_277_100253" cx="0" cy="0" r="1" gradientUnits="userSpaceOnUse" gradientTransform="translate(17.521 4.66864) scale(2.66246 2.63446)">
<stop stop-color="#F1A7B8"/>
<stop offset="1" stop-color="#EE87A6"/>
</radialGradient>
<radialGradient id="paint10_radial_277_100253" cx="0" cy="0" r="1" gradientUnits="userSpaceOnUse" gradientTransform="translate(21.4173 12.4656) scale(3.68085 3.64214)">
<stop offset="0.0714" stop-color="#F9EC00"/>
<stop offset="0.3407" stop-color="#F2BE1D"/>
<stop offset="0.6868" stop-color="#ED9D23"/>
<stop offset="1" stop-color="#E87326"/>
</radialGradient>
<radialGradient id="paint11_radial_277_100253" cx="0" cy="0" r="1" gradientUnits="userSpaceOnUse" gradientTransform="translate(21.9022 11.8186) scale(4.27664 4.23166)">
<stop stop-color="white"/>
<stop offset="1" stop-color="#CEDAD9"/>
</radialGradient>
<radialGradient id="paint12_radial_277_100253" cx="0" cy="0" r="1" gradientUnits="userSpaceOnUse" gradientTransform="translate(19.8479 9.40471) scale(1.1825 1.17007)">
<stop stop-color="#F1A7B8"/>
<stop offset="1" stop-color="#EE87A6"/>
</radialGradient>
<radialGradient id="paint13_radial_277_100253" cx="0" cy="0" r="1" gradientUnits="userSpaceOnUse" gradientTransform="translate(15.9002 6.67491) scale(6.18253 6.11749)">
<stop stop-color="white"/>
<stop offset="1" stop-color="#CEDAD9"/>
</radialGradient>
<radialGradient id="paint14_radial_277_100253" cx="0" cy="0" r="1" gradientUnits="userSpaceOnUse" gradientTransform="translate(16.5631 7.70567) scale(6.38077 6.31365)">
<stop stop-color="white"/>
<stop offset="1" stop-color="#CEDAD9"/>
</radialGradient>
<radialGradient id="paint15_radial_277_100253" cx="0" cy="0" r="1" gradientUnits="userSpaceOnUse" gradientTransform="translate(14.3739 10.344) scale(8.28402 8.19688)">
<stop stop-color="white"/>
<stop offset="1" stop-color="#CEDAD9"/>
</radialGradient>
<radialGradient id="paint16_radial_277_100253" cx="0" cy="0" r="1" gradientUnits="userSpaceOnUse" gradientTransform="translate(14.7304 8.26127) scale(4.01019 3.96801)">
<stop stop-color="#F1A7B8"/>
<stop offset="1" stop-color="#EE87A6"/>
</radialGradient>
<radialGradient id="paint17_radial_277_100253" cx="0" cy="0" r="1" gradientUnits="userSpaceOnUse" gradientTransform="translate(5.93477 10.7913) scale(3.84644 3.80598)">
<stop stop-color="#F1A7B8"/>
<stop offset="1" stop-color="#EE87A6"/>
</radialGradient>
<radialGradient id="paint18_radial_277_100253" cx="0" cy="0" r="1" gradientUnits="userSpaceOnUse" gradientTransform="translate(25.4331 13.3951) scale(1.98021 1.95938)">
<stop stop-color="#F1A7B8"/>
<stop offset="1" stop-color="#EE87A6"/>
</radialGradient>
<radialGradient id="paint19_radial_277_100253" cx="0" cy="0" r="1" gradientUnits="userSpaceOnUse" gradientTransform="translate(11.4072 18.9435) rotate(9.45433) scale(1.88259 1.15954)">
<stop stop-color="white"/>
<stop offset="1"/>
</radialGradient>
<radialGradient id="paint20_radial_277_100253" cx="0" cy="0" r="1" gradientUnits="userSpaceOnUse" gradientTransform="translate(19.8701 18.7942) rotate(-15.4092) scale(1.8817 1.16004)">
<stop stop-color="white"/>
<stop offset="1"/>
</radialGradient>
<radialGradient id="paint21_radial_277_100253" cx="0" cy="0" r="1" gradientUnits="userSpaceOnUse" gradientTransform="translate(15.3798 17.5828) rotate(-1.17362) scale(2.21296 2.1897)">
<stop offset="0.0714" stop-color="#F2BE1D"/>
<stop offset="0.6868" stop-color="#ED9D23"/>
<stop offset="1" stop-color="#E87326"/>
</radialGradient>
<radialGradient id="paint22_radial_277_100253" cx="0" cy="0" r="1" gradientUnits="userSpaceOnUse" gradientTransform="translate(15.5427 22.6097) rotate(92.0922) scale(3.25743 5.69824)">
<stop stop-color="white"/>
<stop offset="1"/>
</radialGradient>
<radialGradient id="paint23_radial_277_100253" cx="0" cy="0" r="1" gradientUnits="userSpaceOnUse" gradientTransform="translate(8.2313 16.837) scale(4.61883 4.57024)">
<stop offset="0.0714" stop-color="#F9EC00"/>
<stop offset="0.3407" stop-color="#F2BE1D"/>
<stop offset="0.6868" stop-color="#ED9D23"/>
<stop offset="1" stop-color="#E87326"/>
</radialGradient>
<radialGradient id="paint24_radial_277_100253" cx="0" cy="0" r="1" gradientUnits="userSpaceOnUse" gradientTransform="translate(12.1538 19.0523) scale(6.8212 6.74945)">
<stop offset="0.0714" stop-color="#F9EC00"/>
<stop offset="0.3407" stop-color="#F2BE1D"/>
<stop offset="0.6868" stop-color="#ED9D23"/>
<stop offset="1" stop-color="#E87326"/>
</radialGradient>
<radialGradient id="paint25_radial_277_100253" cx="0" cy="0" r="1" gradientUnits="userSpaceOnUse" gradientTransform="translate(22.5823 16.8912) rotate(180) scale(4.61879 4.57021)">
<stop offset="0.0714" stop-color="#F9EC00"/>
<stop offset="0.3407" stop-color="#F2BE1D"/>
<stop offset="0.6868" stop-color="#ED9D23"/>
<stop offset="1" stop-color="#E87326"/>
</radialGradient>
<radialGradient id="paint26_radial_277_100253" cx="0" cy="0" r="1" gradientUnits="userSpaceOnUse" gradientTransform="translate(18.6579 19.1071) rotate(180) scale(6.8212 6.74945)">
<stop offset="0.0714" stop-color="#F9EC00"/>
<stop offset="0.3407" stop-color="#F2BE1D"/>
<stop offset="0.6868" stop-color="#ED9D23"/>
<stop offset="1" stop-color="#E87326"/>
</radialGradient>
</defs>
</svg>
