<svg width="21" height="21" viewBox="0 0 21 21" fill="none" xmlns="http://www.w3.org/2000/svg">
<path d="M0.205012 10.1262C0.240765 7.82344 0.258641 6.67207 0.844602 5.68642C0.951552 5.50652 1.10847 5.29276 1.24 5.14781C1.96059 4.35367 2.91198 4.35366 4.81476 4.35366C5.49456 4.35366 5.83447 4.35366 6.15848 4.23755C6.22581 4.21342 6.29243 4.1856 6.35818 4.15416C6.67461 4.00283 6.95842 3.74236 7.52603 3.22142C9.76543 1.16615 10.8851 0.138518 11.8249 0.584939C12.0051 0.67053 12.1795 0.794078 12.3353 0.946458C13.1478 1.74123 13.2095 3.59035 13.333 7.28859C13.3787 8.65795 13.4098 9.82994 13.4098 10.4818C13.4098 11.1337 13.3787 12.3057 13.333 13.6751C13.2095 17.3733 13.1478 19.2225 12.3353 20.0172C12.1795 20.1696 12.0051 20.2931 11.8249 20.3787C10.8851 20.8252 9.76543 19.7975 7.52603 17.7423C6.95842 17.2213 6.67461 16.9608 6.35818 16.8095C6.29243 16.7781 6.22581 16.7503 6.15848 16.7261C5.83447 16.61 5.49456 16.61 4.81476 16.61C2.91198 16.61 1.96059 16.61 1.24 15.8159C1.10847 15.6709 0.951553 15.4572 0.844602 15.2773C0.258641 14.2916 0.240765 13.1402 0.205012 10.8375C0.203134 10.7165 0.202148 10.5978 0.202148 10.4818C0.202148 10.3659 0.203134 10.2471 0.205012 10.1262Z" fill="white"/>
<path fill-rule="evenodd" clip-rule="evenodd" d="M17.7644 3.27365C18.0486 2.99106 18.4709 3.03688 18.7077 3.37599L18.1932 3.88767C18.7077 3.37599 18.7077 3.37599 18.7077 3.37599L18.7087 3.37746L18.7098 3.3791L18.7125 3.38295L18.7192 3.39283C18.7243 3.40039 18.7306 3.40991 18.738 3.42141C18.7529 3.4444 18.7724 3.4753 18.7957 3.51427C18.8423 3.59221 18.9045 3.7024 18.9767 3.84611C19.1213 4.13365 19.306 4.55478 19.488 5.11936C19.8525 6.25046 20.2023 7.9463 20.2023 10.2818C20.2023 12.6174 19.8525 14.3132 19.488 15.4443C19.306 16.0089 19.1213 16.43 18.9767 16.7176C18.9045 16.8613 18.8423 16.9715 18.7957 17.0494C18.7724 17.0884 18.7529 17.1193 18.738 17.1423C18.7306 17.1538 18.7243 17.1633 18.7192 17.1709L18.7125 17.1807L18.7098 17.1846L18.7087 17.1862C18.7087 17.1862 18.7077 17.1877 18.1932 16.676L18.7077 17.1877C18.4709 17.5268 18.0486 17.5726 17.7644 17.29C17.4816 17.0088 17.4423 16.5083 17.6753 16.1692C17.6753 16.1692 17.6769 16.1668 17.6784 16.1645C17.6831 16.1572 17.6925 16.1425 17.7058 16.1203C17.7324 16.0758 17.7749 16.0012 17.8282 15.8951C17.9348 15.6831 18.0849 15.3449 18.2378 14.8705C18.543 13.9235 18.8629 12.4222 18.8629 10.2818C18.8629 8.14146 18.543 6.64022 18.2378 5.69321C18.0849 5.21874 17.9348 4.88056 17.8282 4.66856C17.7749 4.56249 17.7324 4.48785 17.7058 4.4434C17.6925 4.42118 17.6831 4.4065 17.6784 4.3992C17.6769 4.39685 17.6753 4.39445 17.6753 4.39445" fill="white"/>
<path fill-rule="evenodd" clip-rule="evenodd" d="M16.0843 6.38686C16.4075 6.17249 16.8152 6.31151 16.9948 6.69739L16.4095 7.08555C16.9948 6.69739 16.9948 6.69739 16.9948 6.69739L16.9954 6.69879L16.9961 6.70027L16.9976 6.70352L17.001 6.71111L17.0096 6.73066C17.0161 6.74566 17.024 6.76458 17.0332 6.7875C17.0515 6.83335 17.0746 6.89516 17.1009 6.97354C17.1535 7.13037 17.2183 7.35304 17.2813 7.64634C17.4074 8.23347 17.5254 9.09959 17.5254 10.2826C17.5254 11.4657 17.4074 12.3318 17.2813 12.9189C17.2183 13.2122 17.1535 13.4349 17.1009 13.5917C17.0746 13.6701 17.0515 13.7319 17.0332 13.7778C17.024 13.8007 17.0161 13.8196 17.0096 13.8346L17.001 13.8542L16.9976 13.8618L16.9961 13.865L16.9954 13.8665C16.9954 13.8665 16.9948 13.8679 16.4095 13.4797L16.9948 13.8679C16.8152 14.2538 16.4075 14.3928 16.0843 14.1784C15.7638 13.9659 15.6465 13.4857 15.8196 13.1014L15.8241 13.0905C15.8302 13.0752 15.8419 13.0446 15.8575 12.998C15.8887 12.9051 15.9355 12.7481 15.984 12.5219C16.0811 12.07 16.1863 11.3375 16.1863 10.2826C16.1863 9.22772 16.0811 8.4953 15.984 8.04338C15.9355 7.81715 15.8887 7.66016 15.8575 7.56722C15.8419 7.52071 15.8302 7.49011 15.8241 7.47477L15.8196 7.46386C15.6465 7.07959 15.7638 6.59942 16.0843 6.38686Z" fill="white"/>
</svg>
