<svg width="26" height="26" viewBox="0 0 26 26" fill="none" xmlns="http://www.w3.org/2000/svg">
<path d="M1.01173 24.8808C1.01173 24.8808 1.12804 24.8506 1.32518 24.7823C3.12579 24.0331 4.26965 22.9496 4.72693 22.4562C5.51858 21.5859 6.14082 20.4934 6.13307 19.2555C6.13307 18.9375 6.09527 18.6037 6.00629 18.2451C5.67075 16.8653 4.80485 15.1211 3.9847 13.1667C3.17134 11.2083 2.40042 9.00142 2.39713 6.55755C2.39093 4.81492 2.81292 2.9697 3.83971 1.12524C2.59369 2.17991 -0.520791 5.42936 0.621333 10.8257C1.81909 16.4855 4.33071 20.3245 1.01173 24.8808Z" fill="#E54C3A"/>
<path d="M22.6528 12.8078C23.6251 12.2254 24.323 11.4555 24.7433 10.5009C25.1631 9.54678 25.3742 8.63191 25.3742 7.75682C25.3742 6.72278 25.2364 5.76224 24.9598 4.87383C24.6833 3.98581 24.2304 3.21008 23.599 2.54725C22.9686 1.88481 22.1605 1.36113 21.1738 0.976208C20.1877 0.592071 18.9853 0.399414 17.5659 0.399414H7.35492C7.34889 0.475458 7.34229 0.592071 7.34229 0.746314C7.35356 1.50734 7.48999 3.04918 8.58569 4.77446H8.59968L8.59735 4.76898H18.0313C18.0918 4.76898 18.1454 4.7727 18.2029 4.77446H18.2358C18.2567 4.77446 18.277 4.77701 18.2979 4.7776C18.3335 4.77936 18.3699 4.78054 18.4041 4.78269C18.4734 4.78661 18.5418 4.79308 18.6093 4.80229C19.2168 4.8705 19.5563 5.02376 19.5563 5.02376C19.5563 5.02376 21.6195 5.64877 22.98 8.43749C22.98 8.43749 22.3362 8.70462 21.4735 9.40332C20.3718 10.3784 19.4562 11.3477 18.8215 12.509C18.4179 13.2382 18.1056 14.0863 17.7517 14.9957H18.2356C18.9982 14.9957 19.6556 15.2877 20.2074 15.8705C20.7597 16.4538 21.0362 17.1302 21.0362 17.899C21.0362 18.8266 20.7729 19.5757 20.2474 20.1454C19.7209 20.7162 19.0374 21.0005 18.1963 21.0005H14.2471C13.5228 21.8333 12.7166 22.6014 11.8213 23.2707C10.745 24.075 9.68547 24.7392 8.55051 25.3756H17.5661C18.9857 25.3756 20.1941 25.1637 21.1937 24.7392C22.1933 24.3149 23.002 23.7583 23.6194 23.069C24.2367 22.3795 24.6835 21.5912 24.9598 20.7026C25.2364 19.8144 25.3742 18.9064 25.3742 17.9788C25.3742 16.9979 25.1575 16.0367 24.7237 15.0954C24.2897 14.1541 23.599 13.3915 22.6528 12.8078Z" fill="#26A75C"/>
<path d="M14.9475 6.61816C13.2382 6.71248 11.5386 6.64106 11.5388 6.64183C10.9433 6.6145 10.4387 6.57369 10.4387 6.57369C13.1597 10.4339 12.3353 13.8653 12.3353 13.8653C12.1011 12.5226 11.8086 10.2655 9.11422 8.13422C4.57635 4.46495 5.26275 0.423584 5.26275 0.423584C-0.126863 7.3708 5.32749 13.2339 6.49424 17.9326C7.66137 22.6325 2.28125 25.3998 2.28125 25.3998C3.58 25.2508 5.49459 24.7249 6.85847 23.9855C8.05273 23.337 9.12469 22.6804 10.2247 21.8716C11.9482 20.6038 13.3466 18.9257 14.4019 17.0795C14.7087 16.5424 14.9884 15.9912 15.2399 15.4262C15.7888 14.1952 16.1814 12.9022 16.8391 11.7192C17.5871 10.3737 18.6321 9.30707 19.7882 8.30053C19.8031 8.28783 20.1104 8.01853 20.1233 8.03278C18.8415 6.61816 16.6572 6.52403 14.9475 6.61816ZM17.8503 7.87012C17.7148 7.87012 17.6047 7.76117 17.6047 7.62643C17.6047 7.49168 17.7147 7.38273 17.8503 7.38273C17.986 7.38273 18.0957 7.49168 18.0957 7.62643C18.0956 7.76117 17.9858 7.87012 17.8503 7.87012Z" fill="#FAD117"/>
</svg>
