<svg width="143" height="125" viewBox="0 0 143 125" fill="none" xmlns="http://www.w3.org/2000/svg">
<path opacity="0.7" d="M143 46.0039C143 48.2754 142.602 50.3847 141.916 52.1493C141.851 52.3176 141.782 52.4829 141.712 52.6452V52.6472C141.395 53.3708 141.029 54.0268 140.621 54.6053C140.586 54.6547 140.55 54.7041 140.513 54.7524C140.477 54.8007 140.441 54.8492 140.404 54.8955C140.367 54.9439 140.33 54.9903 140.293 55.0366C140.255 55.0829 140.217 55.1283 140.179 55.1726C140.141 55.218 140.103 55.2623 140.064 55.3056C140.057 55.3157 140.048 55.3248 140.04 55.3338C140.012 55.3641 139.985 55.3943 139.958 55.4235C139.903 55.483 139.848 55.5404 139.793 55.5959C139.765 55.6241 139.738 55.6513 139.71 55.6795C139.706 55.6835 139.703 55.6866 139.7 55.6896C139.663 55.7249 139.625 55.7602 139.588 55.7954C139.566 55.8166 139.544 55.8367 139.522 55.8569C139.51 55.8669 139.499 55.877 139.488 55.8871C139.469 55.9032 139.45 55.9204 139.431 55.9365C139.401 55.9627 139.372 55.9889 139.341 56.0151C139.34 56.0151 139.34 56.0151 139.34 56.0151C139.309 56.0403 139.278 56.0665 139.248 56.0907C139.23 56.1048 139.213 56.1189 139.195 56.132C139.182 56.1431 139.169 56.1542 139.156 56.1643C139.133 56.1824 139.11 56.1996 139.087 56.2157C139.053 56.2409 139.02 56.266 138.986 56.2903C138.934 56.3286 138.881 56.3648 138.827 56.4001C138.823 56.4031 138.819 56.4062 138.815 56.4092C138.775 56.4344 138.736 56.4596 138.695 56.4848C138.681 56.4939 138.668 56.502 138.653 56.511C138.644 56.517 138.634 56.5221 138.624 56.5282C138.548 56.5745 138.471 56.6189 138.393 56.6592C138.353 56.6804 138.313 56.7005 138.274 56.7197C138.249 56.7318 138.224 56.7449 138.199 56.7559C138.139 56.7852 138.078 56.8124 138.018 56.8376C137.982 56.8527 137.946 56.8678 137.911 56.8809C137.892 56.889 137.874 56.8961 137.856 56.9021C137.845 56.9071 137.835 56.9102 137.824 56.9142C137.801 56.9223 137.777 56.9314 137.754 56.9384C137.682 56.9646 137.611 56.9867 137.538 57.0069C137.51 57.016 137.482 57.024 137.454 57.031C137.359 57.0572 137.263 57.0784 137.166 57.0965C137.118 57.1056 137.07 57.1136 137.021 57.1218H137.021C136.972 57.1289 136.923 57.1349 136.875 57.1409C136.777 57.1521 136.678 57.1601 136.579 57.1631C136.53 57.1662 136.481 57.1671 136.431 57.1671H116.69C116.659 57.1671 116.63 57.1671 116.599 57.1682C116.577 57.1702 116.554 57.1702 116.532 57.1712C116.525 57.1723 116.517 57.1723 116.51 57.1723C116.5 57.1733 116.491 57.1733 116.482 57.1753C116.397 57.1814 116.312 57.1915 116.228 57.2066C116.208 57.2096 116.188 57.2137 116.169 57.2177C116.138 57.2238 116.107 57.2309 116.076 57.2379C116.038 57.247 116.002 57.256 115.964 57.2661C115.959 57.2671 115.954 57.2691 115.949 57.2701C115.946 57.2701 115.943 57.2721 115.94 57.2732C115.938 57.2732 115.936 57.2742 115.935 57.2742C115.917 57.2803 115.9 57.2853 115.881 57.2914C115.851 57.3005 115.821 57.3095 115.792 57.3206C115.769 57.3276 115.745 57.3367 115.722 57.3458C115.681 57.361 115.641 57.3771 115.601 57.3942C115.588 57.4002 115.574 57.4063 115.56 57.4123C115.551 57.4154 115.542 57.4194 115.534 57.4244C115.512 57.4325 115.492 57.4425 115.47 57.4536C115.397 57.4889 115.324 57.5271 115.253 57.5685C115.221 57.5866 115.189 57.6058 115.158 57.6259C115.155 57.6259 115.154 57.627 115.152 57.629C115.147 57.6321 115.141 57.6361 115.135 57.6411C115.108 57.6562 115.082 57.6744 115.056 57.6914C115.035 57.7055 115.014 57.7196 114.993 57.7337C114.985 57.7398 114.976 57.7458 114.967 57.7529C114.952 57.764 114.936 57.7751 114.921 57.7872C114.899 57.8023 114.877 57.8184 114.855 57.8345C114.842 57.8456 114.827 57.8566 114.813 57.8687C114.795 57.8828 114.776 57.898 114.759 57.9121C114.745 57.9221 114.732 57.9333 114.719 57.9443C114.7 57.9604 114.681 57.9765 114.662 57.9937C114.629 58.0209 114.598 58.0491 114.566 58.0793C114.535 58.1086 114.503 58.1388 114.472 58.169C114.464 58.1771 114.455 58.1851 114.447 58.1932C114.424 58.2154 114.402 58.2375 114.38 58.2618C114.353 58.289 114.326 58.3172 114.299 58.3474C114.29 58.3575 114.28 58.3686 114.27 58.3787C114.258 58.3928 114.245 58.4069 114.232 58.421C114.191 58.4663 114.151 58.5127 114.111 58.5611C114.11 58.5621 114.11 58.5621 114.11 58.5621C114.092 58.5854 114.073 58.6085 114.056 58.6317C114.031 58.6619 114.007 58.6922 113.983 58.7244C113.968 58.7435 113.954 58.7617 113.94 58.7808C113.884 58.8554 113.829 58.933 113.775 59.0116C113.761 59.0328 113.747 59.0539 113.733 59.0741C113.729 59.0811 113.725 59.0872 113.72 59.0932C113.712 59.1063 113.703 59.1194 113.695 59.1326C113.69 59.1417 113.684 59.1496 113.679 59.1578C113.665 59.179 113.651 59.2001 113.638 59.2213C113.605 59.2736 113.573 59.3271 113.541 59.3825V59.3836C113.508 59.4379 113.477 59.4944 113.446 59.5508C113.41 59.6153 113.375 59.6808 113.34 59.7473C113.321 59.7835 113.302 59.8199 113.285 59.8571C113.272 59.8843 113.258 59.9105 113.245 59.9378C113.164 60.1061 113.087 60.2794 113.014 60.4598C113.002 60.4891 112.991 60.5193 112.979 60.5495C112.955 60.609 112.932 60.6694 112.91 60.7309C112.821 60.9721 112.74 61.2234 112.668 61.4823C112.659 61.5154 112.649 61.5481 112.64 61.5814C112.627 61.63 112.615 61.6795 112.602 61.7287C112.587 61.7864 112.573 61.8444 112.559 61.9026C112.545 61.9627 112.531 62.0225 112.517 62.0833C112.511 62.1095 112.505 62.1357 112.5 62.1629C112.492 62.2012 112.483 62.2395 112.476 62.2778C112.465 62.3332 112.454 62.3907 112.444 62.4461C112.444 62.4461 112.443 62.4471 112.443 62.4481C112.434 62.4945 112.426 62.5418 112.418 62.5902C112.407 62.6476 112.398 62.704 112.39 62.7615C112.386 62.7827 112.383 62.8028 112.38 62.824C112.376 62.8452 112.373 62.8654 112.37 62.8875C112.362 62.9409 112.355 62.9933 112.348 63.0467C112.34 63.1002 112.334 63.1536 112.327 63.208C112.324 63.2281 112.322 63.2493 112.32 63.2694C112.279 63.6201 112.253 63.9789 112.243 64.3437C112.237 64.4737 112.236 64.6037 112.236 64.7347C112.236 64.9948 112.244 65.2537 112.259 65.5067C112.263 65.5711 112.266 65.6346 112.272 65.6981C112.276 65.7616 112.281 65.8251 112.288 65.8866C112.294 65.9571 112.301 66.0266 112.308 66.0962C112.312 66.1344 112.317 66.1728 112.321 66.2111C112.323 66.2272 112.325 66.2433 112.327 66.2594C112.329 66.2746 112.331 66.2907 112.333 66.3057C112.338 66.3511 112.344 66.3965 112.351 66.4428C112.361 66.5154 112.371 66.5869 112.382 66.6584C112.389 66.7078 112.397 66.7572 112.406 66.8056C112.416 66.8661 112.426 66.9255 112.437 66.9849C112.457 67.1029 112.481 67.2197 112.506 67.3357C112.518 67.3941 112.531 67.4515 112.545 67.509C112.559 67.5655 112.572 67.6229 112.587 67.6793C112.601 67.7357 112.616 67.7922 112.63 67.8486C112.635 67.8647 112.639 67.8809 112.643 67.897C112.669 67.9927 112.696 68.0864 112.724 68.1802C112.756 68.2891 112.789 68.3949 112.826 68.5007C112.827 68.5007 112.827 68.5007 112.827 68.5007C112.827 68.5007 112.827 68.5006 112.826 68.5017C112.862 68.6065 112.899 68.7103 112.938 68.8131C112.957 68.8645 112.977 68.9139 112.997 68.9653C113.037 69.0661 113.078 69.1648 113.121 69.2616C113.122 69.2616 113.122 69.2616 113.121 69.2627C113.159 69.3474 113.197 69.4299 113.235 69.5106C113.264 69.5701 113.293 69.6286 113.323 69.6859C113.346 69.7323 113.369 69.7766 113.394 69.8219C113.397 69.829 113.4 69.835 113.404 69.8421C113.42 69.8743 113.438 69.9056 113.455 69.9358L113.467 69.9549C113.47 69.9609 113.474 69.968 113.477 69.9741C113.518 70.0497 113.562 70.1232 113.606 70.1928C113.61 70.1988 113.614 70.2048 113.617 70.2109C113.623 70.22 113.627 70.2281 113.633 70.2371C113.648 70.2633 113.664 70.2874 113.68 70.3106C113.712 70.36 113.743 70.4084 113.776 70.4558C113.807 70.5021 113.839 70.5485 113.871 70.5928C113.894 70.6271 113.917 70.6574 113.941 70.6876C114.003 70.7703 114.066 70.8508 114.132 70.9284C114.154 70.9557 114.177 70.9828 114.2 71.009C114.221 71.0333 114.243 71.0574 114.264 71.0816C114.273 71.0906 114.281 71.0988 114.289 71.1078C114.305 71.125 114.32 71.141 114.335 71.1572C114.35 71.1743 114.365 71.1905 114.381 71.2055C114.411 71.2388 114.442 71.269 114.473 71.2983C114.523 71.3466 114.573 71.394 114.624 71.4394C114.633 71.4474 114.641 71.4545 114.65 71.4615C114.684 71.4917 114.718 71.521 114.752 71.5492C114.787 71.5784 114.822 71.6056 114.857 71.6328C114.89 71.6601 114.923 71.6832 114.956 71.7064C114.99 71.7306 115.023 71.7538 115.057 71.7759C115.083 71.7941 115.108 71.8112 115.133 71.8263C115.142 71.8314 115.15 71.8364 115.159 71.8414C115.174 71.8515 115.189 71.8606 115.204 71.8697C115.292 71.922 115.381 71.9704 115.471 72.0138C115.478 72.0178 115.485 72.0219 115.493 72.0248C115.521 72.038 115.549 72.051 115.577 72.0631C115.612 72.0792 115.648 72.0944 115.684 72.1074C115.711 72.1195 115.738 72.1296 115.765 72.1376C115.793 72.1477 115.819 72.1568 115.847 72.1649L115.902 72.183C115.934 72.1941 115.964 72.2022 115.995 72.2102C116.001 72.2112 116.006 72.2123 116.012 72.2143C116.068 72.2284 116.125 72.2415 116.182 72.2516C116.202 72.2567 116.221 72.2596 116.24 72.2637C116.276 72.2707 116.31 72.2767 116.345 72.2787H116.35C116.387 72.2858 116.424 72.2899 116.461 72.2919C116.49 72.2949 116.518 72.2969 116.547 72.2969C116.556 72.2979 116.565 72.2979 116.575 72.2979C116.584 72.299 116.595 72.299 116.604 72.2999C116.633 72.301 116.661 72.3019 116.689 72.3019H130.241C130.27 72.3019 130.299 72.3019 130.328 72.303C130.357 72.304 130.386 72.3061 130.416 72.307C130.474 72.3111 130.532 72.3151 130.59 72.3222C130.643 72.3272 130.696 72.3343 130.749 72.3423C130.752 72.3423 130.755 72.3423 130.759 72.3434C130.762 72.3434 130.765 72.3443 130.768 72.3454C130.811 72.3524 130.853 72.3605 130.895 72.3686C130.916 72.3726 130.937 72.3766 130.958 72.3816C130.961 72.3816 130.964 72.3826 130.967 72.3836C130.984 72.3877 131.002 72.3917 131.02 72.3957C131.026 72.3977 131.031 72.3987 131.037 72.4007C131.073 72.4098 131.108 72.4199 131.143 72.4289C131.15 72.4299 131.157 72.4319 131.164 72.435C131.182 72.4401 131.199 72.445 131.217 72.4501C131.29 72.4723 131.363 72.4974 131.434 72.5257C131.49 72.5479 131.544 72.5691 131.598 72.5932C131.616 72.6002 131.634 72.6084 131.651 72.6164C131.669 72.6234 131.687 72.6316 131.704 72.6406C131.733 72.6547 131.762 72.6699 131.792 72.6849C131.801 72.6889 131.81 72.694 131.819 72.6981C131.96 72.7696 132.098 72.8512 132.233 72.942C132.274 72.9702 132.315 72.9984 132.356 73.0276C132.366 73.0346 132.376 73.0428 132.386 73.0498C132.397 73.0578 132.407 73.0659 132.418 73.073C132.423 73.076 132.427 73.0801 132.432 73.084C132.488 73.1254 132.542 73.1677 132.596 73.213C132.636 73.2453 132.675 73.2785 132.714 73.3128C132.792 73.3813 132.87 73.4519 132.945 73.5254C132.969 73.5486 132.992 73.5717 133.016 73.597C133.02 73.6 133.024 73.604 133.028 73.6091C133.079 73.6605 133.13 73.7139 133.18 73.7693C133.213 73.8056 133.246 73.8418 133.278 73.8792C133.303 73.9074 133.327 73.9355 133.351 73.9638C133.361 73.9758 133.37 73.9879 133.38 74C133.411 74.0373 133.442 74.0745 133.472 74.1129C133.484 74.1281 133.496 74.1441 133.508 74.1592C133.52 74.1733 133.532 74.1885 133.544 74.2056C133.574 74.2438 133.603 74.2832 133.632 74.3225C133.642 74.3356 133.654 74.3507 133.664 74.3668C133.693 74.4061 133.72 74.4454 133.749 74.4848C133.784 74.5362 133.82 74.5885 133.855 74.6429C133.888 74.6933 133.921 74.7447 133.954 74.7972C133.986 74.8486 134.019 74.9009 134.051 74.9554C134.061 74.9735 134.072 74.9907 134.083 75.0088C134.1 75.0381 134.118 75.0673 134.134 75.0975C134.151 75.1278 134.168 75.158 134.185 75.1883C134.234 75.2749 134.282 75.3626 134.328 75.4533C134.344 75.4826 134.359 75.5128 134.374 75.543C134.38 75.552 134.384 75.5631 134.389 75.5732C134.4 75.5964 134.412 75.6186 134.423 75.6418C134.533 75.8654 134.637 76.0993 134.733 76.3412C134.756 76.3976 134.779 76.4561 134.801 76.5145C134.826 76.5789 134.851 76.6455 134.874 76.711C134.886 76.7423 134.897 76.7745 134.908 76.8047C134.919 76.836 134.93 76.8672 134.941 76.8995C134.962 76.9619 134.983 77.0234 135.004 77.0869C135.004 77.0889 135.005 77.0909 135.006 77.094C135.017 77.1282 135.027 77.1615 135.038 77.1958C135.058 77.2583 135.077 77.3207 135.095 77.3842C135.111 77.4336 135.125 77.483 135.139 77.5334C135.14 77.5334 135.14 77.5334 135.139 77.5344C135.154 77.5847 135.168 77.6362 135.181 77.6875C135.195 77.7389 135.209 77.7894 135.222 77.8407C135.249 77.9435 135.275 78.0473 135.299 78.1531C135.331 78.2932 135.361 78.4353 135.39 78.5784C135.399 78.6207 135.407 78.664 135.415 78.7074C135.421 78.7346 135.425 78.7628 135.431 78.791C135.437 78.8283 135.444 78.8646 135.45 78.9009C135.457 78.9371 135.463 78.9735 135.469 79.0097C135.477 79.0571 135.484 79.1034 135.492 79.1508C135.499 79.1962 135.506 79.2415 135.512 79.2879C135.528 79.3896 135.542 79.4935 135.555 79.5973C135.562 79.6577 135.569 79.7202 135.576 79.7817C135.581 79.821 135.585 79.8603 135.59 79.9007C135.591 79.9017 135.591 79.9027 135.591 79.9037C135.594 79.942 135.598 79.9813 135.601 80.0206C135.608 80.0821 135.614 80.1436 135.619 80.206C135.623 80.2574 135.628 80.3098 135.632 80.3622C135.632 80.3652 135.632 80.3682 135.632 80.3703C135.635 80.4045 135.638 80.4387 135.639 80.4731C135.642 80.5184 135.645 80.5648 135.648 80.6101C135.649 80.6354 135.651 80.6605 135.652 80.6847C135.654 80.712 135.655 80.7402 135.657 80.7673C135.657 80.7865 135.658 80.8056 135.659 80.8248C135.659 80.8399 135.661 80.854 135.661 80.8691C135.664 80.9256 135.666 80.983 135.668 81.0404C135.669 81.0878 135.671 81.1361 135.671 81.1835C135.671 81.2137 135.672 81.245 135.673 81.2752C135.673 81.3065 135.674 81.3377 135.674 81.37C135.675 81.4264 135.676 81.4828 135.676 81.5393C135.676 81.5947 135.676 81.6501 135.674 81.7045C135.674 81.7358 135.673 81.767 135.673 81.7982C135.672 81.8446 135.671 81.8899 135.67 81.9353C135.67 81.9595 135.669 81.9827 135.668 82.0069V82.0139C135.667 82.0351 135.667 82.0562 135.665 82.0774C135.665 82.1137 135.664 82.148 135.662 82.1832C135.66 82.2185 135.659 82.2537 135.656 82.289C135.655 82.3213 135.654 82.3535 135.652 82.3858C135.651 82.418 135.649 82.4503 135.647 82.4826C135.646 82.5098 135.644 82.536 135.642 82.5632C135.639 82.6227 135.635 82.6811 135.63 82.7396C135.626 82.792 135.621 82.8434 135.617 82.8959C135.614 82.9301 135.611 82.9634 135.607 82.9976C135.603 83.056 135.597 83.1145 135.591 83.173C135.585 83.2264 135.579 83.2798 135.572 83.3322C135.568 83.3816 135.561 83.431 135.554 83.4803C135.548 83.5357 135.541 83.5901 135.533 83.6455C135.525 83.705 135.517 83.7645 135.508 83.8239C135.5 83.8763 135.492 83.9288 135.483 83.9802C135.479 84.0084 135.474 84.0376 135.469 84.0658C135.454 84.1535 135.439 84.2402 135.423 84.3258C135.416 84.3692 135.407 84.4115 135.399 84.4539C135.39 84.4972 135.381 84.5395 135.372 84.5818C135.356 84.6625 135.339 84.7411 135.321 84.8207C135.313 84.859 135.304 84.8972 135.295 84.9356C135.287 84.9738 135.278 85.0122 135.268 85.0505C135.25 85.1261 135.231 85.2016 135.211 85.2763C135.202 85.3105 135.194 85.3438 135.184 85.3771C135.148 85.5131 135.11 85.6482 135.069 85.7802C135.045 85.8568 135.021 85.9344 134.996 86.01C134.984 86.0462 134.972 86.0825 134.96 86.1198C134.948 86.1561 134.935 86.1934 134.922 86.2287C134.896 86.3053 134.869 86.3809 134.84 86.4574C134.834 86.4766 134.826 86.4967 134.819 86.5158C134.805 86.5532 134.791 86.5905 134.776 86.6277C134.776 86.6287 134.775 86.6297 134.775 86.6308C134.75 86.6942 134.725 86.7577 134.699 86.8192C134.596 87.0701 134.486 87.312 134.368 87.5438C134.355 87.57 134.342 87.5952 134.329 87.6214C134.314 87.6506 134.299 87.6799 134.283 87.709C134.268 87.7392 134.252 87.7674 134.236 87.7967C134.202 87.8622 134.166 87.9257 134.129 87.9882C134.11 88.0214 134.091 88.0547 134.072 88.087C134.053 88.1203 134.033 88.1525 134.014 88.1838C133.994 88.216 133.975 88.2482 133.954 88.2795C133.935 88.3117 133.915 88.342 133.895 88.3732C133.863 88.4236 133.831 88.472 133.797 88.5213C133.778 88.5496 133.758 88.5788 133.738 88.606C133.718 88.6342 133.699 88.6624 133.679 88.6887C133.666 88.7068 133.653 88.7249 133.64 88.7431C133.59 88.8126 133.538 88.8801 133.486 88.9456C133.427 89.0212 133.367 89.0948 133.305 89.1653C133.224 89.26 133.142 89.3507 133.058 89.4374C133.021 89.4757 132.983 89.513 132.946 89.5503C132.926 89.5684 132.906 89.5876 132.886 89.6067C132.877 89.6158 132.869 89.6239 132.859 89.6319C132.83 89.6591 132.802 89.6863 132.772 89.7115C132.737 89.7428 132.703 89.773 132.667 89.8032C132.663 89.8072 132.66 89.8102 132.656 89.8122C132.652 89.8152 132.648 89.8183 132.644 89.8213C132.605 89.8556 132.564 89.8889 132.524 89.9201C132.392 90.025 132.257 90.1207 132.119 90.2063C132.105 90.2154 132.09 90.2245 132.075 90.2336C132.027 90.2638 131.978 90.292 131.929 90.3182C131.905 90.3323 131.881 90.3444 131.857 90.3575C131.835 90.3685 131.814 90.3797 131.793 90.3908C131.768 90.4039 131.743 90.417 131.717 90.4281C131.681 90.4462 131.645 90.4623 131.609 90.4775C131.605 90.4806 131.602 90.4815 131.598 90.4826C131.512 90.5199 131.424 90.5541 131.336 90.5863C131.292 90.6014 131.248 90.6156 131.203 90.6297C131.163 90.6418 131.124 90.6529 131.085 90.6629C131.08 90.6639 131.074 90.666 131.069 90.6669C131.035 90.676 131.001 90.6841 130.967 90.6911C130.934 90.6992 130.902 90.7052 130.869 90.7123C130.869 90.7132 130.867 90.7132 130.866 90.7123C130.794 90.7264 130.721 90.7385 130.647 90.7476C130.605 90.7536 130.562 90.7587 130.519 90.7617C130.51 90.7627 130.502 90.7627 130.493 90.7627C130.483 90.7637 130.473 90.7647 130.463 90.7657C130.436 90.7677 130.408 90.7697 130.381 90.7708C130.335 90.7738 130.288 90.7748 130.241 90.7748H119.132C119.098 90.7748 119.064 90.7758 119.03 90.7768C118.993 90.7779 118.956 90.7809 118.919 90.7849C118.855 90.792 118.792 90.802 118.73 90.8131C118.696 90.8201 118.664 90.8272 118.631 90.8352C118.621 90.8373 118.609 90.8403 118.599 90.8423C118.577 90.8484 118.555 90.8534 118.534 90.8605C118.518 90.8655 118.501 90.8695 118.485 90.8756C118.469 90.8796 118.453 90.8857 118.437 90.8917C118.421 90.8978 118.405 90.9029 118.389 90.9089C118.305 90.9391 118.223 90.9744 118.141 91.0157C118.111 91.0309 118.08 91.047 118.049 91.0641C118.042 91.0671 118.035 91.0712 118.028 91.0752C117.994 91.0944 117.961 91.1145 117.928 91.1347C117.925 91.1357 117.924 91.1377 117.921 91.1387C117.886 91.1609 117.851 91.1841 117.816 91.2082C117.812 91.2103 117.807 91.2133 117.803 91.2163C117.787 91.2284 117.771 91.2395 117.756 91.2505C117.734 91.2667 117.713 91.2828 117.691 91.2989C117.639 91.3382 117.587 91.3795 117.538 91.4239C117.529 91.4319 117.52 91.44 117.512 91.4471C117.478 91.4773 117.446 91.5075 117.413 91.5388C117.388 91.5629 117.362 91.5882 117.337 91.6143C117.299 91.6526 117.261 91.693 117.223 91.7342C117.189 91.7725 117.155 91.8118 117.121 91.8512C117.111 91.8643 117.101 91.8764 117.091 91.8894C116.936 92.0779 116.791 92.2875 116.657 92.5153C116.632 92.5576 116.608 92.6009 116.584 92.6432C116.573 92.6624 116.563 92.6815 116.553 92.7007C116.543 92.7178 116.534 92.7349 116.525 92.7521C116.511 92.7773 116.498 92.8024 116.485 92.8287C116.481 92.8357 116.477 92.8439 116.473 92.8509C116.463 92.8721 116.452 92.8942 116.441 92.9153C116.438 92.9234 116.434 92.9305 116.431 92.9385C116.413 92.9748 116.395 93.0121 116.378 93.0494C116.36 93.0867 116.343 93.125 116.326 93.1633C116.315 93.1874 116.304 93.2127 116.294 93.2389C116.26 93.3165 116.228 93.3951 116.198 93.4747C116.085 93.7679 115.986 94.0793 115.905 94.4069C115.894 94.4512 115.883 94.4956 115.873 94.5409C115.865 94.5731 115.858 94.6064 115.851 94.6387C115.843 94.675 115.835 94.7123 115.827 94.7485C115.827 94.7496 115.827 94.7496 115.827 94.7506C115.819 94.7848 115.812 94.8201 115.805 94.8564V94.8573C115.795 94.9077 115.786 94.9581 115.778 95.0085C115.776 95.0176 115.774 95.0266 115.772 95.0367L115.751 95.1666C115.746 95.1939 115.742 95.221 115.738 95.2483C115.735 95.2644 115.733 95.2815 115.731 95.2977C115.727 95.3218 115.724 95.3471 115.721 95.3712C115.72 95.3742 115.719 95.3773 115.719 95.3813C115.712 95.4287 115.706 95.4761 115.701 95.5234C115.694 95.5718 115.689 95.6201 115.684 95.6685C115.68 95.7128 115.676 95.7571 115.671 95.8025C115.668 95.8418 115.664 95.8821 115.661 95.9225C115.659 95.9507 115.657 95.9799 115.655 96.0091C115.653 96.0332 115.651 96.0565 115.65 96.0806C115.649 96.1048 115.647 96.129 115.646 96.1532C115.645 96.1723 115.643 96.1925 115.642 96.2116C115.642 96.2247 115.641 96.2388 115.641 96.2519C115.639 96.2962 115.637 96.3395 115.636 96.3829C115.635 96.3959 115.635 96.4091 115.635 96.4232C115.633 96.4614 115.632 96.5008 115.631 96.5401V96.5673C115.63 96.6177 115.63 96.6691 115.63 96.7205C115.63 96.791 115.63 96.8605 115.632 96.9302V96.9453C115.633 96.9735 115.633 97.0007 115.635 97.0269C115.638 97.1287 115.642 97.2295 115.648 97.3292C115.648 97.3353 115.649 97.3413 115.649 97.3474C115.65 97.3574 115.65 97.3666 115.651 97.3766C115.653 97.4079 115.655 97.4401 115.657 97.4703C115.658 97.4835 115.659 97.4976 115.661 97.5117C115.662 97.5359 115.664 97.562 115.667 97.5883C115.668 97.6004 115.669 97.6125 115.67 97.6246C115.683 97.7657 115.698 97.9037 115.716 98.0408C115.721 98.0781 115.726 98.1144 115.732 98.1506C115.748 98.2655 115.767 98.3784 115.788 98.4903C115.796 98.5366 115.805 98.583 115.814 98.6294C115.838 98.7514 115.865 98.8712 115.894 98.9891C115.903 99.0264 115.912 99.0637 115.922 99.101C115.928 99.1272 115.935 99.1524 115.942 99.1776C115.952 99.2169 115.963 99.2552 115.974 99.2935C115.986 99.3398 116 99.3852 116.014 99.4296C116.026 99.4719 116.039 99.5152 116.053 99.5575C116.088 99.6673 116.125 99.7752 116.165 99.881C116.179 99.9193 116.194 99.9586 116.208 99.9959C116.221 100.028 116.233 100.06 116.246 100.092C116.256 100.115 116.264 100.138 116.274 100.161C116.291 100.201 116.307 100.24 116.325 100.279C116.359 100.356 116.394 100.432 116.43 100.506C116.437 100.521 116.444 100.536 116.451 100.551C116.454 100.556 116.457 100.561 116.46 100.567C116.468 100.584 116.476 100.6 116.485 100.615C116.506 100.66 116.53 100.703 116.553 100.748C116.587 100.809 116.62 100.869 116.656 100.928V100.929C116.695 100.997 116.736 101.062 116.777 101.126C116.799 101.159 116.823 101.193 116.845 101.228C116.865 101.256 116.885 101.285 116.904 101.313C116.948 101.374 116.992 101.433 117.037 101.49C117.082 101.547 117.128 101.602 117.174 101.656C117.221 101.709 117.269 101.761 117.317 101.81C117.364 101.86 117.413 101.909 117.463 101.953C117.487 101.976 117.512 101.999 117.537 102.021C117.563 102.043 117.588 102.064 117.614 102.084C117.665 102.126 117.717 102.166 117.77 102.203C117.796 102.223 117.823 102.241 117.849 102.259C117.875 102.277 117.901 102.294 117.927 102.311C117.954 102.329 117.981 102.345 118.009 102.359C118.063 102.39 118.118 102.42 118.173 102.446C118.201 102.459 118.228 102.473 118.257 102.484C118.285 102.496 118.313 102.508 118.341 102.519C118.341 102.519 118.341 102.519 118.341 102.519C118.37 102.531 118.397 102.542 118.426 102.55C118.426 102.55 118.426 102.55 118.427 102.55C118.455 102.561 118.483 102.571 118.512 102.578C118.571 102.596 118.631 102.611 118.691 102.624C118.712 102.628 118.733 102.633 118.755 102.636C118.791 102.644 118.827 102.649 118.863 102.654C118.893 102.659 118.921 102.663 118.951 102.663C118.952 102.663 118.952 102.663 118.952 102.663C118.982 102.666 119.012 102.668 119.042 102.669C119.051 102.669 119.061 102.67 119.071 102.67C119.076 102.67 119.082 102.671 119.086 102.671C119.102 102.673 119.117 102.673 119.132 102.673H124.226C124.32 102.673 124.414 102.676 124.507 102.685C124.527 102.685 124.546 102.685 124.564 102.688C124.605 102.691 124.647 102.695 124.688 102.7C124.72 102.702 124.751 102.706 124.782 102.711C124.788 102.711 124.795 102.713 124.802 102.714C124.815 102.715 124.829 102.717 124.842 102.72C124.844 102.72 124.846 102.721 124.849 102.722C124.897 102.73 124.946 102.738 124.995 102.748C125.044 102.758 125.092 102.768 125.141 102.781C125.241 102.804 125.338 102.832 125.435 102.862H125.441C125.441 102.861 125.442 102.861 125.442 102.862C125.449 102.863 125.455 102.865 125.461 102.868C125.463 102.868 125.464 102.868 125.465 102.87C125.539 102.896 125.613 102.922 125.685 102.951C125.716 102.962 125.747 102.974 125.778 102.986C125.784 102.987 125.79 102.989 125.795 102.992C125.801 102.993 125.805 102.995 125.809 102.998C125.815 103 125.82 103.002 125.825 103.005C125.841 103.012 125.857 103.02 125.872 103.028C125.921 103.047 125.969 103.069 126.017 103.094C126.07 103.118 126.124 103.144 126.177 103.172C126.181 103.173 126.185 103.176 126.19 103.178C126.194 103.181 126.197 103.183 126.201 103.186C126.223 103.197 126.246 103.209 126.268 103.221C126.29 103.233 126.312 103.245 126.334 103.258C126.347 103.265 126.36 103.273 126.373 103.28C126.388 103.288 126.402 103.297 126.416 103.306C126.432 103.316 126.448 103.326 126.464 103.337C126.491 103.352 126.516 103.369 126.543 103.386C126.603 103.422 126.662 103.463 126.72 103.505C126.748 103.525 126.777 103.544 126.804 103.566C126.895 103.63 126.985 103.699 127.074 103.774C127.093 103.789 127.112 103.805 127.132 103.821C127.201 103.877 127.268 103.935 127.335 103.998C127.351 104.013 127.367 104.028 127.384 104.043C127.404 104.062 127.424 104.082 127.443 104.102C127.491 104.146 127.538 104.193 127.586 104.24C127.614 104.267 127.641 104.296 127.669 104.326C127.739 104.399 127.809 104.474 127.877 104.555C127.882 104.559 127.888 104.564 127.892 104.57C127.897 104.575 127.901 104.581 127.906 104.586C127.923 104.606 127.94 104.626 127.958 104.645C127.975 104.665 127.992 104.686 128.009 104.706C128.036 104.738 128.063 104.771 128.088 104.802C128.096 104.811 128.103 104.82 128.111 104.829C128.12 104.84 128.129 104.851 128.137 104.861C128.144 104.871 128.152 104.88 128.158 104.889C128.17 104.906 128.182 104.921 128.193 104.936C128.251 105.011 128.31 105.088 128.367 105.17C128.402 105.214 128.437 105.264 128.47 105.317C128.501 105.357 128.533 105.404 128.562 105.45C128.6 105.505 128.637 105.561 128.676 105.622C128.742 105.725 128.808 105.832 128.872 105.94C128.9 105.987 128.927 106.036 128.955 106.083C128.982 106.131 129.009 106.18 129.036 106.229C129.071 106.293 129.104 106.356 129.138 106.419C129.147 106.437 129.157 106.454 129.166 106.472C129.201 106.54 129.237 106.611 129.271 106.682C129.309 106.758 129.346 106.835 129.382 106.913C129.394 106.94 129.406 106.966 129.418 106.992C129.428 107.014 129.439 107.037 129.449 107.061C129.455 107.073 129.461 107.085 129.466 107.098C129.477 107.121 129.487 107.143 129.497 107.166C129.526 107.234 129.556 107.302 129.584 107.371L129.586 107.374C129.611 107.434 129.635 107.494 129.659 107.554C129.724 107.715 129.786 107.879 129.845 108.045C129.867 108.104 129.887 108.161 129.906 108.219C129.913 108.238 129.92 108.258 129.926 108.277C129.965 108.391 130.003 108.507 130.038 108.624C130.056 108.68 130.073 108.737 130.09 108.794C130.1 108.826 130.11 108.86 130.119 108.893C130.137 108.954 130.155 109.016 130.172 109.078C130.213 109.222 130.25 109.368 130.287 109.517C130.296 109.551 130.304 109.585 130.312 109.619C130.316 109.637 130.32 109.653 130.324 109.671C130.37 109.862 130.412 110.057 130.451 110.253C130.452 110.257 130.453 110.262 130.454 110.266C130.468 110.338 130.482 110.41 130.495 110.482C130.499 110.504 130.503 110.526 130.507 110.55C130.519 110.614 130.53 110.679 130.541 110.744C130.547 110.776 130.552 110.808 130.557 110.84C130.565 110.891 130.573 110.942 130.581 110.993C130.584 111.007 130.586 111.02 130.587 111.034C130.603 111.133 130.617 111.232 130.63 111.331C130.642 111.415 130.653 111.499 130.663 111.585C130.673 111.667 130.682 111.751 130.691 111.835C130.692 111.848 130.694 111.861 130.695 111.874C130.704 111.961 130.713 112.047 130.72 112.134C130.729 112.223 130.736 112.31 130.742 112.4C130.743 112.409 130.744 112.418 130.745 112.427C130.746 112.446 130.748 112.467 130.749 112.486C130.753 112.551 130.758 112.616 130.762 112.681C130.762 112.685 130.762 112.689 130.762 112.693C130.767 112.767 130.771 112.841 130.774 112.915C130.777 112.968 130.779 113.022 130.781 113.075C130.783 113.141 130.785 113.206 130.787 113.273C130.788 113.301 130.79 113.329 130.79 113.357C130.792 113.419 130.793 113.48 130.794 113.543C130.794 113.547 130.794 113.552 130.794 113.556C130.796 113.649 130.796 113.741 130.796 113.834V113.836C130.796 113.932 130.796 114.028 130.794 114.123C130.793 114.16 130.793 114.195 130.791 114.231C130.791 114.275 130.789 114.319 130.788 114.363C130.788 114.364 130.788 114.364 130.789 114.365C130.789 114.366 130.789 114.366 130.788 114.367C130.788 114.367 130.788 114.367 130.788 114.368V114.369C130.788 114.383 130.787 114.397 130.787 114.411C130.786 114.454 130.784 114.496 130.783 114.538C130.783 114.54 130.783 114.541 130.783 114.542C130.783 114.546 130.783 114.549 130.783 114.552C130.781 114.599 130.779 114.647 130.777 114.695C130.776 114.714 130.775 114.732 130.774 114.751C130.771 114.816 130.768 114.879 130.764 114.944V114.947C130.762 114.984 130.759 115.021 130.757 115.059C130.753 115.123 130.749 115.187 130.744 115.251C130.743 115.254 130.743 115.256 130.743 115.257C130.74 115.291 130.737 115.327 130.734 115.362C130.731 115.396 130.729 115.429 130.727 115.464C130.725 115.483 130.723 115.503 130.721 115.522C130.712 115.628 130.702 115.733 130.691 115.837C130.683 115.911 130.675 115.986 130.666 116.059C130.664 116.077 130.662 116.095 130.659 116.113C130.65 116.185 130.641 116.256 130.631 116.327C130.623 116.392 130.614 116.457 130.604 116.521C130.596 116.57 130.589 116.619 130.581 116.668C130.577 116.702 130.571 116.736 130.566 116.771C130.56 116.805 130.554 116.839 130.548 116.874C130.542 116.913 130.536 116.949 130.53 116.988C130.52 117.05 130.509 117.111 130.497 117.172C130.488 117.225 130.478 117.279 130.468 117.331C130.467 117.334 130.466 117.337 130.465 117.34C130.463 117.35 130.46 117.361 130.458 117.373C130.425 117.542 130.391 117.708 130.353 117.871C130.346 117.905 130.338 117.94 130.33 117.974C130.31 118.058 130.29 118.141 130.269 118.224C130.252 118.292 130.234 118.361 130.216 118.43C130.216 118.43 130.216 118.43 130.216 118.431C130.195 118.512 130.172 118.594 130.149 118.675C130.131 118.737 130.114 118.797 130.096 118.858C130.094 118.864 130.093 118.869 130.091 118.875C130.075 118.929 130.058 118.983 130.041 119.037C130.036 119.053 130.03 119.07 130.025 119.086C130.011 119.132 129.996 119.178 129.981 119.225C129.966 119.272 129.95 119.32 129.934 119.367C129.926 119.392 129.917 119.417 129.908 119.442C129.888 119.503 129.867 119.563 129.845 119.624C129.818 119.7 129.79 119.777 129.761 119.853C129.733 119.928 129.704 120.003 129.675 120.077C129.652 120.137 129.628 120.195 129.603 120.255C129.596 120.271 129.59 120.286 129.586 120.299C129.573 120.329 129.56 120.356 129.547 120.387C129.538 120.406 129.53 120.426 129.521 120.445C129.511 120.468 129.501 120.491 129.491 120.515C129.475 120.552 129.459 120.588 129.442 120.624C129.422 120.67 129.401 120.714 129.381 120.757C129.365 120.793 129.349 120.827 129.332 120.861C129.324 120.88 129.314 120.899 129.305 120.918C129.257 121.017 129.208 121.116 129.157 121.212C129.149 121.23 129.139 121.247 129.13 121.265C129.126 121.272 129.122 121.279 129.118 121.286C129.092 121.336 129.066 121.385 129.039 121.434C129.039 121.436 129.038 121.437 129.036 121.439C129.032 121.448 129.027 121.457 129.022 121.465C128.944 121.608 128.863 121.746 128.781 121.881C128.765 121.907 128.748 121.933 128.732 121.959C128.711 121.993 128.691 122.026 128.67 122.057C128.649 122.09 128.628 122.122 128.608 122.153C128.589 122.183 128.569 122.213 128.55 122.241C128.427 122.423 128.302 122.597 128.172 122.761C128.153 122.786 128.134 122.81 128.114 122.834C128.082 122.876 128.049 122.916 128.016 122.955C127.978 123.002 127.939 123.047 127.9 123.092C127.852 123.147 127.804 123.201 127.755 123.254C127.715 123.297 127.674 123.34 127.633 123.383C127.626 123.391 127.618 123.399 127.61 123.407C127.598 123.419 127.586 123.43 127.575 123.442C127.554 123.464 127.532 123.485 127.511 123.506C127.435 123.58 127.359 123.652 127.281 123.72C127.247 123.75 127.212 123.781 127.178 123.811C127.168 123.82 127.159 123.828 127.149 123.836C127.124 123.858 127.099 123.878 127.074 123.901C127.026 123.938 126.979 123.975 126.93 124.012C126.882 124.05 126.833 124.086 126.784 124.121C126.749 124.147 126.714 124.171 126.679 124.195C126.649 124.215 126.62 124.235 126.59 124.254C126.551 124.28 126.513 124.305 126.474 124.329C126.421 124.363 126.368 124.395 126.314 124.427C126.284 124.442 126.255 124.459 126.225 124.472C126.181 124.497 126.137 124.521 126.092 124.542C126.076 124.55 126.06 124.558 126.044 124.565C126.026 124.575 126.008 124.584 125.989 124.592C125.97 124.601 125.952 124.609 125.933 124.617C125.918 124.624 125.901 124.632 125.886 124.639C125.793 124.681 125.7 124.719 125.606 124.752C125.606 124.752 125.606 124.751 125.605 124.751C125.579 124.76 125.554 124.77 125.528 124.779C125.524 124.781 125.519 124.783 125.515 124.785C125.492 124.793 125.47 124.8 125.447 124.806C125.444 124.811 125.439 124.811 125.434 124.811C125.431 124.812 125.429 124.813 125.426 124.813C125.4 124.821 125.375 124.829 125.349 124.836C125.255 124.864 125.16 124.888 125.063 124.91C124.993 124.926 124.923 124.938 124.853 124.951C124.844 124.951 124.833 124.954 124.82 124.956C124.736 124.969 124.65 124.978 124.565 124.985C124.54 124.987 124.516 124.989 124.491 124.989C124.403 124.997 124.314 125 124.226 125H16.737C16.6303 125 16.5235 124.996 16.4186 124.986C16.4144 124.987 16.4108 124.987 16.4067 124.985C16.3788 124.983 16.351 124.98 16.3231 124.978C16.3042 124.977 16.2851 124.975 16.2662 124.972C16.2217 124.967 16.1772 124.962 16.1327 124.955C16.1084 124.953 16.0841 124.949 16.0598 124.944C16.0378 124.941 16.0159 124.937 15.994 124.933C15.9353 124.924 15.8766 124.912 15.8184 124.899C15.7751 124.89 15.7319 124.879 15.6891 124.868C15.6868 124.867 15.685 124.867 15.6826 124.866C15.6535 124.859 15.6251 124.851 15.5966 124.843C15.59 124.842 15.5835 124.84 15.5776 124.838C15.5213 124.823 15.4655 124.806 15.4098 124.788C15.3125 124.757 15.217 124.722 15.1216 124.685C15.0872 124.671 15.0522 124.657 15.0184 124.642C15.0101 124.639 15.0024 124.636 14.9947 124.632C14.9757 124.624 14.9567 124.615 14.9377 124.606C14.8921 124.586 14.8464 124.565 14.8007 124.544C14.745 124.517 14.6892 124.488 14.6341 124.459C14.579 124.43 14.5238 124.4 14.4687 124.368C14.4206 124.34 14.3732 124.312 14.3257 124.282C14.308 124.272 14.2907 124.261 14.2735 124.25C14.2445 124.231 14.216 124.213 14.1876 124.194C14.1632 124.178 14.1389 124.161 14.1146 124.145C14.0666 124.113 14.0191 124.08 13.9723 124.046C13.8537 123.96 13.7362 123.869 13.6206 123.771C13.5346 123.701 13.4498 123.627 13.3662 123.549C13.2974 123.485 13.2292 123.419 13.1622 123.353C13.0821 123.273 13.0032 123.191 12.9255 123.106C12.7957 122.964 12.6682 122.816 12.5442 122.659C12.5116 122.618 12.4784 122.577 12.4463 122.533C12.4024 122.477 12.3591 122.42 12.3159 122.36C12.2803 122.312 12.2459 122.263 12.2109 122.214C12.1836 122.176 12.1569 122.137 12.1302 122.099C12.1118 122.072 12.0935 122.045 12.0751 122.018C12.014 121.927 11.9541 121.834 11.8948 121.738C11.8681 121.695 11.8414 121.652 11.8148 121.607C11.7816 121.554 11.7495 121.498 11.7169 121.444C11.7044 121.424 11.692 121.402 11.6801 121.381C11.6677 121.359 11.6558 121.338 11.6439 121.317C11.6007 121.24 11.5574 121.163 11.5153 121.085C11.4731 121.007 11.4317 120.927 11.3907 120.846C11.3806 120.827 11.3706 120.808 11.3611 120.789C11.3463 120.76 11.3315 120.73 11.3178 120.7C11.3065 120.678 11.2953 120.655 11.2846 120.633C11.2472 120.556 11.2111 120.478 11.1743 120.401C11.1648 120.38 11.1547 120.359 11.1452 120.337C11.128 120.301 11.1114 120.265 11.096 120.228C11.0782 120.187 11.0605 120.147 11.0432 120.108C10.9827 119.97 10.9246 119.831 10.8683 119.688C10.841 119.62 10.8143 119.55 10.7882 119.481C10.7686 119.429 10.7491 119.377 10.7301 119.325C10.7147 119.282 10.6998 119.24 10.6844 119.198C10.6726 119.164 10.6607 119.131 10.6494 119.098C10.6411 119.077 10.634 119.055 10.6269 119.033C10.6139 118.994 10.6002 118.955 10.5872 118.915C10.5682 118.862 10.5504 118.808 10.5332 118.753C10.5207 118.715 10.5089 118.676 10.4965 118.636C10.4573 118.514 10.4205 118.391 10.385 118.266C10.3707 118.217 10.3565 118.169 10.3435 118.119C10.3293 118.071 10.3162 118.022 10.3031 117.972C10.2907 117.926 10.2782 117.879 10.2664 117.833C10.242 117.742 10.2189 117.651 10.197 117.558C10.1857 117.515 10.1757 117.47 10.165 117.426C10.1175 117.223 10.073 117.018 10.0327 116.81C10.0215 116.758 10.0114 116.705 10.0019 116.652C9.99955 116.638 9.99656 116.623 9.99419 116.609C9.99063 116.59 9.98765 116.572 9.98409 116.555C9.97636 116.514 9.96868 116.473 9.96213 116.432C9.95976 116.421 9.95739 116.41 9.95621 116.399C9.94848 116.357 9.94137 116.313 9.93425 116.271C9.92595 116.22 9.91766 116.168 9.90936 116.117C9.90106 116.064 9.89333 116.013 9.88565 115.96C9.8791 115.92 9.87318 115.88 9.86725 115.841C9.86488 115.827 9.86308 115.814 9.86189 115.801C9.85653 115.766 9.85179 115.732 9.84705 115.696C9.84174 115.657 9.83695 115.618 9.83164 115.579C9.82628 115.541 9.82154 115.502 9.81679 115.463C9.81205 115.423 9.80731 115.385 9.80257 115.346C9.79664 115.297 9.79128 115.25 9.78654 115.202C9.77706 115.117 9.76814 115.03 9.76046 114.945C9.75392 114.881 9.74799 114.817 9.74206 114.752C9.73021 114.618 9.71954 114.484 9.71181 114.349C9.70882 114.321 9.70764 114.291 9.70527 114.262C9.70408 114.245 9.70346 114.228 9.70228 114.211C9.69815 114.149 9.69516 114.087 9.69218 114.024C9.688 113.95 9.68445 113.875 9.68208 113.8C9.68028 113.761 9.67852 113.724 9.67795 113.686C9.67558 113.638 9.6744 113.59 9.67378 113.542C9.67141 113.48 9.67022 113.419 9.66961 113.357C9.66899 113.336 9.66842 113.314 9.66842 113.292C9.66723 113.24 9.66723 113.189 9.66662 113.138C9.666 113.086 9.666 113.035 9.666 112.982V107.525C9.666 107.499 9.666 107.475 9.66482 107.449C9.66482 107.433 9.66482 107.416 9.6642 107.401C9.66482 107.391 9.6642 107.381 9.6642 107.371C9.66363 107.34 9.66302 107.308 9.66183 107.276C9.66064 107.239 9.65946 107.202 9.6577 107.163C9.65709 107.16 9.65709 107.156 9.65709 107.153C9.65647 107.139 9.6559 107.125 9.65529 107.11C9.65292 107.055 9.64936 107.001 9.64519 106.948C9.64457 106.935 9.64338 106.922 9.6422 106.908C9.63983 106.868 9.63627 106.828 9.63271 106.788C9.62916 106.747 9.62498 106.708 9.62086 106.668C9.61493 106.61 9.60839 106.554 9.60071 106.497C9.59715 106.467 9.59298 106.437 9.58885 106.407C9.58468 106.375 9.57994 106.344 9.57519 106.314C9.57458 106.309 9.57401 106.305 9.57339 106.3C9.56391 106.236 9.55381 106.175 9.54257 106.113C9.5384 106.089 9.53366 106.065 9.52891 106.041C9.52474 106.017 9.52 105.993 9.51526 105.969C9.5117 105.95 9.50814 105.932 9.50397 105.913C9.5016 105.901 9.49923 105.888 9.49624 105.877C9.48202 105.811 9.46717 105.744 9.45115 105.679C9.44816 105.665 9.4446 105.651 9.44105 105.636C9.43687 105.622 9.43332 105.607 9.42919 105.592C9.42028 105.556 9.41079 105.519 9.40074 105.483C9.38945 105.441 9.3776 105.399 9.36513 105.357C9.3574 105.33 9.3491 105.303 9.3408 105.277C9.33426 105.256 9.32776 105.233 9.32065 105.212C9.31354 105.191 9.30642 105.17 9.29931 105.149C9.29575 105.136 9.29158 105.123 9.28684 105.109C9.28684 105.109 9.28684 105.109 9.28627 105.108C9.27854 105.083 9.26967 105.058 9.26076 105.034C9.25009 105.003 9.2388 104.971 9.22756 104.941C9.21808 104.916 9.2086 104.891 9.1985 104.866C9.18128 104.82 9.1635 104.776 9.1451 104.732C9.14155 104.722 9.13799 104.712 9.13325 104.703C9.12552 104.684 9.11784 104.665 9.10892 104.646C9.10537 104.637 9.10181 104.629 9.09764 104.621C9.08991 104.602 9.08223 104.584 9.0745 104.567C9.05373 104.521 9.03177 104.475 9.01043 104.43C9.00986 104.428 9.00863 104.426 9.00806 104.424C8.99559 104.398 8.98255 104.373 8.96951 104.347C8.9541 104.318 8.93869 104.289 8.92385 104.26C8.91318 104.239 8.90071 104.216 8.88828 104.195C8.88235 104.184 8.87643 104.174 8.8705 104.164C8.8705 104.163 8.8705 104.163 8.86993 104.162C8.86936 104.161 8.86936 104.16 8.86874 104.16C8.86818 104.159 8.86756 104.159 8.86694 104.158C8.85509 104.137 8.84205 104.115 8.82901 104.092C8.81597 104.07 8.8035 104.048 8.79046 104.028C8.78273 104.015 8.77561 104.002 8.76793 103.99C8.72227 103.917 8.6748 103.847 8.6262 103.779C8.60841 103.754 8.5912 103.729 8.5728 103.705C8.55739 103.685 8.54255 103.666 8.52714 103.646C8.52415 103.643 8.52064 103.639 8.51765 103.636C8.4828 103.591 8.44705 103.548 8.41077 103.506C8.40887 103.504 8.40712 103.502 8.40522 103.5C8.38 103.471 8.35415 103.444 8.32845 103.416C8.29701 103.382 8.26586 103.348 8.23357 103.316C8.20986 103.293 8.18553 103.27 8.1612 103.248C8.14399 103.232 8.12621 103.217 8.109 103.202C8.06807 103.166 8.02597 103.132 7.98386 103.1C7.96902 103.089 7.95422 103.079 7.93938 103.068C7.93402 103.063 7.92809 103.058 7.9216 103.054C7.91268 103.046 7.90381 103.04 7.8949 103.035C7.88186 103.025 7.86882 103.016 7.85578 103.008C7.85279 103.005 7.84985 103.003 7.84629 103.002C7.83918 102.997 7.83207 102.993 7.82496 102.989C7.803 102.974 7.78048 102.96 7.75734 102.947C7.73301 102.932 7.7075 102.917 7.6826 102.903C7.66364 102.892 7.64405 102.882 7.62508 102.873C7.56875 102.844 7.51123 102.818 7.4531 102.795C7.42996 102.787 7.40743 102.778 7.38372 102.77C7.38254 102.769 7.38073 102.768 7.37955 102.768C7.37779 102.767 7.37656 102.767 7.37481 102.767C7.34873 102.759 7.32321 102.751 7.29652 102.742C7.27101 102.734 7.24493 102.728 7.21941 102.721C7.21287 102.719 7.20576 102.717 7.19865 102.716C7.15042 102.704 7.10139 102.697 7.05236 102.69C7.01874 102.685 6.98493 102.682 6.95097 102.679C6.93058 102.677 6.91005 102.676 6.88957 102.675C6.86235 102.674 6.83518 102.672 6.80782 102.672C5.40459 102.672 4.2653 100.737 4.2653 98.3521V95.0919C4.2653 95.0819 4.2653 95.0729 4.26592 95.0638C4.26592 95.0546 4.26592 95.0446 4.26649 95.0356C4.26705 94.9811 4.26767 94.9277 4.26947 94.8733C4.26947 94.8672 4.26947 94.8622 4.27004 94.8572C4.27123 94.8128 4.27303 94.7675 4.2754 94.7232C4.27597 94.706 4.27659 94.6899 4.27777 94.6728C4.27953 94.6396 4.28194 94.6063 4.28432 94.573C4.29024 94.4934 4.29679 94.4148 4.30508 94.3362C4.30926 94.2979 4.31338 94.2586 4.31812 94.2203C4.33116 94.1145 4.34601 94.0107 4.3626 93.9088C4.36796 93.8746 4.37389 93.8403 4.38039 93.8071C4.39286 93.7395 4.40647 93.672 4.42069 93.6065C4.43492 93.54 4.45033 93.4745 4.46636 93.41C4.48238 93.3445 4.49955 93.282 4.51738 93.2185C4.53279 93.163 4.54939 93.1086 4.56603 93.0552C4.58206 93.0049 4.59866 92.9555 4.61525 92.9061C4.63484 92.8496 4.65499 92.7942 4.67576 92.7398C4.69591 92.6894 4.71607 92.639 4.73684 92.5896C4.75462 92.5462 4.77302 92.5039 4.79198 92.4626C4.80265 92.4384 4.81332 92.4152 4.82461 92.391C4.83589 92.3678 4.84713 92.3436 4.85842 92.3205C4.87207 92.2933 4.88568 92.2651 4.90053 92.2378C4.91001 92.2197 4.91949 92.2016 4.92959 92.1835C4.93851 92.1663 4.94738 92.1492 4.95686 92.1331C4.96577 92.117 4.97526 92.1009 4.98474 92.0847C5.00314 92.0515 5.02149 92.0203 5.04108 91.988C5.06004 91.9557 5.0802 91.9245 5.09978 91.8943C5.1223 91.859 5.14606 91.8247 5.16977 91.7894C5.19291 91.7572 5.21605 91.7249 5.23976 91.6937C5.26409 91.6625 5.28841 91.6302 5.31269 91.6C5.33697 91.5698 5.36191 91.5405 5.38681 91.5123C5.40815 91.4871 5.42892 91.464 5.45087 91.4408C5.47932 91.4106 5.50839 91.3803 5.53746 91.3511C5.54396 91.3441 5.55112 91.338 5.55823 91.3309C5.5707 91.3189 5.58374 91.3068 5.59678 91.2947C5.646 91.2493 5.69641 91.2061 5.74743 91.1667C5.7682 91.1496 5.79016 91.1335 5.81149 91.1184C5.87082 91.075 5.93189 91.0358 5.99358 91.0005C6.02559 90.9833 6.05703 90.9663 6.08909 90.9491C6.1063 90.942 6.12228 90.934 6.13831 90.9259C6.1715 90.9098 6.20474 90.8957 6.23793 90.8836C6.267 90.8725 6.29664 90.8614 6.32689 90.8514C6.34942 90.8433 6.37199 90.8373 6.39508 90.8312C6.42709 90.8221 6.45971 90.8141 6.49177 90.807C6.52676 90.7999 6.56176 90.7939 6.59675 90.7889C6.66613 90.7799 6.73673 90.7748 6.80786 90.7748H13.8399C13.8867 90.7748 13.9336 90.7738 13.9799 90.7708H13.9893C14.0326 90.7688 14.0759 90.7657 14.1192 90.7617C14.1608 90.7587 14.2016 90.7547 14.2426 90.7486C14.2681 90.7456 14.2936 90.7426 14.3185 90.7376C14.3541 90.7336 14.3891 90.7275 14.4241 90.7204C14.4603 90.7144 14.4958 90.7083 14.5314 90.6992C14.5652 90.6932 14.5991 90.6851 14.6323 90.676C14.64 90.674 14.6471 90.672 14.6548 90.67C14.7022 90.6579 14.7491 90.6448 14.7959 90.6307C14.825 90.6216 14.8541 90.6125 14.8825 90.6025C14.8997 90.5974 14.9169 90.5913 14.9341 90.5853C14.9419 90.5833 14.9495 90.5813 14.9573 90.5783C14.9905 90.5652 15.0243 90.5541 15.0575 90.54C15.0646 90.538 15.0717 90.5349 15.0788 90.532C15.118 90.5168 15.1571 90.5007 15.1969 90.4826C15.2271 90.4694 15.2574 90.4564 15.287 90.4412C15.3001 90.4352 15.3137 90.4291 15.3268 90.4221C15.335 90.418 15.344 90.414 15.3523 90.41C15.4294 90.3737 15.5059 90.3324 15.5818 90.289C15.6239 90.2648 15.666 90.2396 15.7075 90.2125C15.7668 90.1762 15.8261 90.1369 15.8842 90.0965C15.9079 90.0814 15.9311 90.0653 15.9542 90.0482C15.9744 90.033 15.9951 90.0169 16.0153 90.0018C16.0817 89.9535 16.1475 89.9021 16.2128 89.8467C16.2264 89.8355 16.24 89.8245 16.2537 89.8134C16.2679 89.8013 16.2828 89.7881 16.297 89.7751C16.3106 89.765 16.3249 89.7529 16.3385 89.7398C16.3575 89.7237 16.3765 89.7066 16.3954 89.6894C16.4067 89.6794 16.418 89.6683 16.4292 89.6583C16.4678 89.623 16.5057 89.5867 16.5437 89.5494C16.5816 89.5131 16.619 89.4748 16.6564 89.4355C16.6937 89.3973 16.7311 89.3579 16.7679 89.3177C16.8414 89.239 16.9138 89.1554 16.9843 89.0688C16.9849 89.0688 16.9849 89.0688 16.9849 89.0688C17.0205 89.0254 17.0549 88.9821 17.0899 88.9377C17.0941 88.9327 17.0982 88.9277 17.1024 88.9226C17.1279 88.8894 17.1546 88.8571 17.1801 88.8208C17.1943 88.8027 17.208 88.7835 17.2216 88.7643C17.2803 88.6857 17.3378 88.6041 17.3947 88.5204C17.3989 88.5154 17.403 88.5093 17.4072 88.5033C17.4321 88.468 17.4559 88.4317 17.4796 88.3934C17.4837 88.3864 17.4885 88.3793 17.4926 88.3723C17.4991 88.3622 17.5057 88.3531 17.5122 88.342C17.5342 88.3098 17.5555 88.2755 17.5768 88.2403C17.5929 88.2141 17.6083 88.1889 17.6237 88.1636C17.6433 88.1324 17.6622 88.1011 17.6812 88.0679V88.067C17.7737 87.9107 17.8627 87.7484 17.9481 87.5802C18.7742 85.9617 19.2736 83.8504 19.2736 81.5396C19.2736 81.4953 19.2736 81.4509 19.273 81.4076C19.2724 81.3643 19.2724 81.3209 19.2712 81.2775C19.2712 81.2614 19.2712 81.2453 19.2706 81.2292C19.2712 81.2171 19.2706 81.205 19.27 81.1929C19.2694 81.1768 19.2688 81.1607 19.2682 81.1445C19.2682 81.1062 19.2664 81.0679 19.2647 81.0286C19.2647 81.0045 19.2641 80.9803 19.2629 80.9561C19.2635 80.9531 19.2635 80.951 19.2629 80.9481C19.2617 80.9239 19.2605 80.9007 19.2593 80.8776C19.2587 80.8433 19.2569 80.8091 19.2551 80.7747C19.2545 80.7475 19.2528 80.7204 19.251 80.6931C19.2498 80.6699 19.2486 80.6478 19.2468 80.6246C19.2451 80.5884 19.2433 80.552 19.2409 80.5168C19.2403 80.5077 19.2403 80.4997 19.2392 80.4916C19.2368 80.4584 19.2344 80.4251 19.2314 80.3918C19.2302 80.3748 19.2291 80.3566 19.2279 80.3375C19.2196 80.2185 19.2089 80.1016 19.1971 79.9847C19.1929 79.9434 19.1881 79.9011 19.184 79.8587C19.1715 79.7409 19.1573 79.624 19.1419 79.5081C19.1413 79.5031 19.1407 79.498 19.1401 79.4929C19.133 79.4415 19.1259 79.3901 19.1181 79.3387C19.0986 79.1987 19.0767 79.0596 19.0523 78.9224C19.044 78.8751 19.0357 78.8277 19.0268 78.7804C19.0179 78.731 19.0084 78.6816 18.9984 78.6322C18.996 78.6161 18.9931 78.6 18.9901 78.5848C18.9847 78.5586 18.9794 78.5314 18.9735 78.5052C18.9687 78.48 18.9634 78.4538 18.9581 78.4287C18.9533 78.4065 18.948 78.3853 18.9432 78.3642C18.9379 78.338 18.9325 78.3118 18.9266 78.2856C18.9201 78.2533 18.9124 78.2201 18.9047 78.1878C18.8957 78.1485 18.8869 78.1092 18.8774 78.0699C18.8709 78.0426 18.8644 78.0155 18.8578 77.9893C18.8448 77.9369 18.8317 77.8855 18.8181 77.8341C18.8121 77.8109 18.8062 77.7878 18.8003 77.7646C18.7944 77.7403 18.7878 77.7172 18.7813 77.694C18.7546 77.5932 18.7262 77.4924 18.6965 77.3937C18.671 77.305 18.6443 77.2183 18.6164 77.1327C18.5945 77.0631 18.5714 76.9946 18.5483 76.927C18.531 76.8736 18.5121 76.8202 18.4931 76.7678C18.4884 76.7527 18.483 76.7386 18.4777 76.7255C18.4682 76.6983 18.4581 76.6701 18.4481 76.6439C18.4202 76.5673 18.3917 76.4907 18.3615 76.4161C18.3567 76.402 18.3514 76.3889 18.3455 76.3748C18.3241 76.3214 18.3022 76.269 18.2802 76.2156C18.2572 76.1604 18.2339 76.106 18.2104 76.0516C18.1969 76.0206 18.1837 75.9893 18.1699 75.9585C18.1621 75.9404 18.1538 75.9223 18.145 75.9041L18.0987 75.8044C18.091 75.7853 18.0827 75.7671 18.0738 75.75C18.0459 75.6896 18.0168 75.6301 17.9872 75.5716C17.967 75.5313 17.9457 75.491 17.9249 75.4497C17.9231 75.4456 17.9214 75.4427 17.9196 75.4386C17.9142 75.4265 17.9077 75.4145 17.9006 75.4013C17.8976 75.3953 17.8947 75.3892 17.8911 75.3842C17.8769 75.357 17.8627 75.3299 17.8478 75.3026C17.8306 75.2704 17.8128 75.2371 17.7944 75.2049C17.7814 75.1817 17.7684 75.1585 17.7553 75.1353C17.69 75.0195 17.6218 74.9055 17.5525 74.7957C17.511 74.7282 17.4682 74.6627 17.4256 74.6002C17.4009 74.5631 17.3751 74.5279 17.35 74.4915C17.3064 74.4282 17.2628 74.3658 17.2182 74.306C17.1696 74.2402 17.1208 74.1749 17.0709 74.1124C17.0252 74.054 16.9789 73.9975 16.9315 73.9431C16.8995 73.9058 16.8681 73.8706 16.8366 73.8344C16.826 73.8212 16.8153 73.8091 16.8046 73.7981C16.7993 73.7921 16.7939 73.786 16.7886 73.7809C16.7884 73.7807 16.7882 73.7805 16.7879 73.7802C16.7399 73.7265 16.6916 73.6744 16.6427 73.6247C16.6101 73.5904 16.5774 73.5581 16.5442 73.5259C16.4683 73.4523 16.3912 73.3808 16.3135 73.3133C16.2839 73.2871 16.2542 73.2618 16.2246 73.2377C16.2097 73.2256 16.1955 73.2135 16.1801 73.2014C16.1356 73.1641 16.0905 73.1289 16.0455 73.0956C16.0093 73.0674 15.9726 73.0402 15.9358 73.014C15.8729 72.9697 15.81 72.9274 15.7466 72.887C15.7199 72.8699 15.6938 72.8528 15.6671 72.8376C15.6487 72.8255 15.6303 72.8144 15.6119 72.8043C15.5959 72.7953 15.5805 72.7862 15.5645 72.7781C15.5159 72.7499 15.4673 72.7237 15.4186 72.6995C15.3783 72.6783 15.3379 72.6582 15.297 72.6391C15.2953 72.6381 15.2935 72.6371 15.2917 72.6361C15.2845 72.631 15.2774 72.628 15.2703 72.626C15.268 72.624 15.2656 72.623 15.2632 72.623C15.2164 72.6009 15.1695 72.5797 15.122 72.5616C15.0983 72.5515 15.074 72.5424 15.0497 72.5323C15.0254 72.5222 15.001 72.5131 14.9768 72.5051C14.9315 72.4886 14.8856 72.4749 14.8399 72.4604C14.8201 72.4544 14.8003 72.4484 14.7804 72.4426C14.75 72.4333 14.72 72.4244 14.6901 72.4164C14.6632 72.4092 14.6362 72.4024 14.6092 72.3959C14.5658 72.3853 14.5222 72.3756 14.4784 72.3669C14.4348 72.3583 14.3911 72.35 14.3472 72.3432C14.3467 72.3432 14.3462 72.343 14.3457 72.3429C14.3226 72.3387 14.2989 72.3355 14.2752 72.3326C14.211 72.324 14.1467 72.3164 14.0819 72.3117C14.0599 72.3086 14.0374 72.3077 14.0149 72.3066C14.0131 72.3066 14.0113 72.3066 14.0101 72.3076C13.9817 72.3066 13.9532 72.3045 13.9247 72.3036C13.8963 72.3025 13.8684 72.3025 13.8399 72.3025H4.45336C4.03053 72.3025 3.62187 72.2028 3.2346 72.0153C3.1996 71.9982 3.16461 71.98 3.12961 71.9619C3.05962 71.9256 2.99082 71.8863 2.92263 71.843C2.71801 71.716 2.52051 71.5639 2.33074 71.3895C2.20442 71.2736 2.08227 71.1466 1.96362 71.0106C1.93399 70.9764 1.9043 70.9411 1.87524 70.9068C1.67181 70.6609 1.48023 70.3858 1.30412 70.0865V70.0855C1.25371 69.9999 1.20449 69.9122 1.15646 69.8225C1.10842 69.7328 1.06214 69.6421 1.01709 69.5494C0.903239 69.3156 0.797636 69.0697 0.700996 68.8138C0.662445 68.712 0.625695 68.6081 0.590083 68.5034C0.214666 67.3938 0 66.1069 0 64.7343C0 64.4733 0.00772926 64.2143 0.0231405 63.9604C0.0302533 63.8404 0.0391683 63.7225 0.0498376 63.6046C0.0510231 63.5865 0.0528249 63.5684 0.0545794 63.5503C0.0646797 63.4354 0.0771035 63.3215 0.0907602 63.2086C0.1038 63.0998 0.118026 62.993 0.134054 62.8871C0.138227 62.8558 0.142969 62.8247 0.148279 62.7934C0.173791 62.6281 0.202243 62.4659 0.234867 62.3056C0.456693 61.192 0.827321 60.1953 1.30654 59.382V59.381C2.11314 58.0145 3.22455 57.1679 4.45336 57.1679H11.1224C12.5992 57.1679 13.9371 56.1511 14.9044 54.5084C15.8711 52.8627 16.4707 50.5912 16.4707 48.0808C16.4707 40.7694 19.9592 34.8407 24.2619 34.8407H49.2183C50.2556 34.8407 51.2116 34.2471 51.9755 33.2514C52.1338 33.0458 52.2827 32.8251 52.4227 32.5863C53.2423 31.1946 53.7488 29.2677 53.7488 27.1423C53.7488 25.0552 53.2601 23.1606 52.4654 21.7749C51.6428 20.3368 50.4922 19.4439 49.2183 19.4439H40.1206C38.5425 19.4439 37.1114 18.3565 36.0753 16.597C35.041 14.8354 34.3999 12.4076 34.3999 9.72296C34.3999 4.35252 36.9626 0.000976563 40.1207 0.000976563H108.195C108.243 0.000976563 108.288 0.000976316 108.336 0.00701957C109.113 0.0503699 109.837 0.465582 110.443 1.15588C111.532 2.39145 112.252 4.49966 112.252 6.89416V15.6819C112.252 16.721 112.499 17.6602 112.899 18.3415C113.301 19.0227 113.855 19.444 114.467 19.444C115.371 19.444 116.19 20.0688 116.782 21.0726C117.375 22.0813 117.742 23.4741 117.742 25.01C117.742 30.326 120.227 34.6604 123.331 34.8348C123.396 34.8378 123.461 34.8408 123.528 34.8408H136.431C140.059 34.8397 143 39.8383 143 46.0039Z" fill="#D8E9FF"/>
<path d="M139.071 72.8982H140.621C139.482 74.0789 138.022 74.7878 136.431 74.7878H116.69C115.459 74.7878 114.346 75.4115 113.541 76.4218C112.734 77.4299 112.237 78.8246 112.237 80.3666C112.237 83.4483 114.23 85.9454 116.69 85.9454H130.241C131.74 85.9454 133.1 86.7072 134.083 87.9408C135.068 89.1721 135.676 90.8753 135.676 92.7556C135.676 96.5139 133.241 99.5634 130.241 99.5634H119.132C118.165 99.5634 117.289 100.054 116.657 100.848C116.021 101.642 115.63 102.737 115.63 103.948C115.63 106.371 117.199 108.334 119.132 108.334H124.226C126.041 108.334 127.684 109.255 128.872 110.744C130.061 112.233 130.796 114.291 130.796 116.565C130.796 121.11 127.855 124.795 124.226 124.795H16.7369C12.831 124.795 9.66553 120.827 9.66553 115.936V111.913C9.66553 110.926 9.34588 110.031 8.82958 109.382C8.31148 108.735 7.59682 108.334 6.80867 108.334C5.40507 108.334 4.26596 106.907 4.26596 105.149V102.746C4.26596 100.988 5.40502 99.5633 6.80867 99.5633H13.8396C15.3388 99.5633 16.6983 98.8015 17.6812 97.5679C18.666 96.3366 19.2741 94.6358 19.2741 92.7555C19.2741 88.9948 16.8398 85.9453 13.8396 85.9453H4.45336C3.22426 85.9453 2.11091 85.3216 1.3044 84.3113C0.497853 83.3032 0 81.9085 0 80.3665C0 78.8245 0.499702 77.4298 1.30625 76.4194V77.7934H3.72766V75.9844L6.58267 76.0005V73.0663H7.15772V72.4863H7.23307V73.0663H9.43953V73.0686H9.88043V72.4863H9.95578V73.0686H10.4867V78.9006H13.8874V81.0479H15.776V79.8005H17.5288V74.8523H18.4033V72.5439H18.5356V74.8523H20.63V70.5254H20.8357V74.8523H22.221V74.7925H22.2191V74.2424H22.221V73.7223H22.2191V72.8569H22.221V72.3068H22.2191V71.4414H22.221V70.889H22.2191V70.0237H22.221V69.4276H22.2191V68.5622H22.221V67.8026H22.2191V66.9373H22.221V66.3642H22.6343V65.7175H22.7005V66.3643H25.7594V65.7175H25.8256V66.3643H26.3841V70.889L26.7772 70.8914V70.889H26.7735V70.0237H26.7772V69.4276H26.7735V68.5622H26.7772V67.9684H26.7735V67.103H26.7772V67.1007H30.4865V67.103H31.124C31.1571 67.126 31.1902 67.149 31.2232 67.172V72.9419H31.9067V72.1088H39.735V78.5921H42.1271V66.6013H42.647V65.7636H42.7407V66.6013H44.6275V65.7636H44.7212V66.6013H47.3962V65.7636H47.4899V66.6013H49.1727V65.7636H49.2646V66.6013H49.9572V77.7936H52.5991V75.9846L55.715 76.0007V73.0663H56.3433V72.4863H56.426V73.0663H58.8328V73.0686H59.3141V72.4863H59.3968V73.0686H59.9774V78.9006H63.6867V81.0479H65.7499V79.8005H67.6624V74.8523H68.6178V72.5439H68.761V74.8523H71.0484V70.5254H71.2725V74.8523H73.8832V67.2135H81.0556V73.6969H83.2474V61.7061H83.7232V60.8683H83.8077V61.7061H85.5384V60.8683H85.6248V61.7061H88.0738V60.8683H88.1601V61.7061H89.7015V60.8683H89.786V61.7061H90.4199V72.8983H92.8413V71.0893L95.6963 71.1054V68.1709H96.2713V67.591H96.3466V68.1709H98.5531V68.1733H98.994V67.591H99.0693V68.1733H99.6021V74.0053H103.001V76.1526H104.891V74.9052H106.644V69.957H107.519V67.6486H107.649V69.957H109.743V65.6301H109.949V69.957H111.336V69.8971H111.334V69.3471H111.336V68.8269H111.334V67.9616H111.336V67.4115H111.334V66.5461H111.336V65.9937H111.334V65.1283H111.336V64.5322H111.334V63.667H111.336V62.9074H111.334V62.042H111.336V61.469H111.748V60.8223H111.814V61.469H114.875V60.8223H114.939V61.469H115.498V65.9938L115.891 65.9961V65.9938H115.887V65.1284H115.891V64.5323H115.887V63.667H115.891V63.0732H115.887V62.2078H115.891V62.2055H119.6V62.2078H120.238C120.271 62.2308 120.304 62.2538 120.337 62.2768V68.0444H121.02V67.2135H128.85V73.6968H131.241V61.7061H131.761V60.8683H131.854V61.7061H133.743V60.8683H133.835V61.7061H136.51V60.8683H136.603V61.7061H138.286V60.8683H138.378V61.7061H139.071V72.8982Z" fill="#DCEAFB"/>
<path d="M141.917 71.0889C141.851 71.2131 141.783 71.3352 141.713 71.4548V71.0889H141.917Z" fill="#DCEAFB"/>
<path d="M137.463 98.176C137.463 98.2928 137.367 98.3872 137.248 98.3872H5.75114C5.63306 98.3872 5.53638 98.2928 5.53638 98.176C5.53638 98.0599 5.63306 97.9648 5.75114 97.9648H137.248C137.367 97.9648 137.463 98.0599 137.463 98.176Z" fill="#1D3B77"/>
<path d="M43.835 108.918C41.4956 113.907 37.1419 113.432 33.9343 112.085C30.9173 110.818 28.1194 107.342 26.5195 102.538C25.9565 100.847 25.6761 98.6582 26.6215 97.2631C27.1407 96.497 27.8577 96.1472 28.5152 96.0265C27.7792 96.1617 26.6448 95.1237 25.964 94.6572C24.7587 93.8312 21.767 90.4552 24.0273 88.2714C24.8751 87.4525 25.7783 87.8108 26.1265 87.9865C24.8398 87.3372 23.2751 86.7805 22.3349 84.917C21.1394 82.5475 22.1172 78.4088 24.0272 79.701C22.8184 77.9974 21.3415 75.5571 20.9451 72.7745C20.6457 70.6723 21.2194 68.5283 22.4343 68.0122C23.1962 67.6885 24.0083 68.0616 24.6935 68.7446C25.9838 70.031 27.075 72.1768 27.8314 74.4336C27.3905 73.1182 27.6672 70.8476 28.1549 69.7231C28.4223 69.1066 28.824 68.6503 29.2576 68.6181C31.3527 68.4622 32.511 74.7357 32.7561 77.5941C32.4808 74.3828 33.5739 70.5696 35.5895 72.8417C37.0851 74.5277 38.2638 78.0515 37.9808 81.2953C38.0876 80.0715 38.3509 78.498 38.8306 77.5761C39.727 75.8535 40.5108 78.7849 40.7799 80.0319C41.3294 82.5787 41.41 85.4063 41.0114 88.0436C41.1738 86.9688 42.2277 85.3582 42.8223 85.1566C44.8073 84.4839 45.2328 93.2589 45.3816 95.4332C45.6754 99.7259 45.5751 104.523 44.1482 108.186C44.0483 108.442 43.9438 108.686 43.835 108.918Z" fill="url(#paint0_linear_277_92990)"/>
<path opacity="0.5" d="M48.3486 115.29L39.6102 100.094L40.1273 86.2168C40.1374 85.9476 40.0245 85.7145 39.8751 85.6965C39.7287 85.6733 39.5966 85.8819 39.5867 86.1514L39.1003 99.2074L34.363 90.97L35.2239 80.7911C35.2464 80.5242 35.1447 80.2749 34.9968 80.2341C34.8484 80.1937 34.7107 80.3768 34.6881 80.6436L33.8851 90.1389L29.9375 83.2744L30.1363 74.9726C30.1427 74.7029 30.0267 74.475 29.8772 74.4633C29.7325 74.4585 29.6013 74.6609 29.5949 74.9306L29.4166 82.3687L24.7658 74.2815C24.6583 74.0939 24.4865 74.0999 24.3827 74.2941C24.2789 74.4884 24.2819 74.7977 24.3897 74.9851L29.0306 83.0551L24.5608 83.5609C24.4114 83.5779 24.2979 83.8098 24.3073 84.0793C24.3163 84.3382 24.4355 84.5375 24.5775 84.5375C24.5832 84.5375 24.589 84.5372 24.5947 84.5366L29.5596 83.9748L33.4692 90.7732L27.7763 91.8911C27.6276 91.9202 27.5202 92.1615 27.5364 92.43C27.5514 92.6803 27.6689 92.8658 27.8053 92.8658C27.8152 92.8658 27.825 92.8648 27.8351 92.863L33.9774 91.657L38.7038 99.8755L31.7413 100.73C31.5921 100.749 31.4793 100.982 31.4894 101.251C31.4991 101.509 31.6181 101.707 31.7595 101.707C31.7657 101.707 31.7719 101.706 31.7781 101.705L39.23 100.791L47.9727 115.993C48.0252 116.085 48.0929 116.13 48.1607 116.13C48.2316 116.13 48.3026 116.08 48.3557 115.981C48.4595 115.786 48.4565 115.477 48.3486 115.29Z" fill="white"/>
<path d="M18.8635 97.5691C16.9532 96.2763 15.975 100.416 17.1713 102.784C18.094 104.612 19.6168 105.184 20.8876 105.817C20.4974 105.636 19.6574 105.375 18.8635 106.14C16.6036 108.322 19.5951 111.7 20.7996 112.526C21.481 112.993 22.615 114.029 23.3521 113.894C22.6936 114.016 21.9769 114.366 21.458 115.131C20.5123 116.526 20.7928 118.716 21.3551 120.407C21.9254 122.12 22.6489 123.665 23.4808 124.999H39.3499C40.4257 121.5 40.4839 117.193 40.2184 113.3C40.2062 113.115 40.1913 112.882 40.1737 112.609C39.9854 109.698 39.4746 102.408 37.6591 103.024C37.0643 103.227 36.0103 104.837 35.8477 105.912C36.0807 104.368 36.1498 102.76 36.0563 101.181C36.0387 100.856 36.0116 100.534 35.9791 100.211C35.8991 99.424 35.7772 98.6493 35.616 97.899C35.3463 96.6527 34.5633 93.7224 33.6664 95.4429C33.1868 96.3666 32.9239 97.9404 32.8169 99.1624C33.0337 96.6746 32.3915 94.023 31.4065 92.1607C31.2372 91.843 31.0583 91.5473 30.8727 91.2834C30.7278 91.0732 30.5787 90.8801 30.4256 90.7091C29.1832 89.3112 28.2918 90.2203 27.8555 91.8773C27.7783 92.1657 27.716 92.476 27.6685 92.801C27.5439 93.6394 27.5168 94.5754 27.5927 95.4625C27.422 93.4658 26.8055 89.8073 25.7365 87.8326C25.7271 87.8156 25.7176 87.7984 25.7081 87.7813H25.7067L25.7053 87.7789C25.2487 86.9552 24.7136 86.4396 24.0931 86.4861C23.963 86.4958 23.8357 86.5423 23.7137 86.6204H23.7124C23.4292 86.8062 23.1786 87.1605 22.9916 87.5908C22.5038 88.7149 22.2261 90.9853 22.6678 92.3025C21.9118 90.0444 20.8198 87.8986 19.53 86.6132C18.8444 85.9288 18.0329 85.5573 17.2701 85.88C16.0548 86.3957 15.4817 88.5413 15.7811 90.6431C16.1782 93.4242 17.655 95.8657 18.8635 97.5691Z" fill="url(#paint1_linear_277_92990)"/>
<path opacity="0.5" d="M19.1423 101.946C19.1518 102.205 19.271 102.406 19.4133 102.406H19.4309L24.395 101.844L28.305 108.64L22.612 109.76C22.463 109.789 22.356 110.031 22.3722 110.297C22.3871 110.549 22.505 110.735 22.6405 110.735C22.6513 110.735 22.6608 110.732 22.6703 110.732L28.8131 109.525L33.5388 117.744L26.5763 118.599C26.4272 118.616 26.3148 118.851 26.3256 119.12C26.3351 119.376 26.4543 119.574 26.5952 119.574H26.6142L34.0658 118.66L37.7116 125H38.492L34.4465 117.964L34.6551 112.365L34.9627 104.085C34.9736 103.816 34.8598 103.584 34.7107 103.564C34.5644 103.542 34.433 103.75 34.4221 104.019L34.1186 112.162L33.9357 117.077L29.1992 108.838L29.2656 108.061L30.0596 98.6595C30.0826 98.3931 29.981 98.1437 29.832 98.1022C29.6843 98.0631 29.5461 98.244 29.5231 98.5129L28.7779 107.34L28.721 108.007L24.7731 101.142L24.9505 93.7448L24.9722 92.8406C24.979 92.5717 24.8625 92.3444 24.7134 92.3322C24.5685 92.3274 24.4371 92.5302 24.4303 92.7989L24.4221 93.1167L24.2528 100.238L19.6017 92.1489C19.4946 91.9632 19.3226 91.968 19.2182 92.1637C19.1139 92.3567 19.118 92.6671 19.225 92.8528L23.8667 100.923L19.3971 101.428C19.2466 101.446 19.1342 101.678 19.1423 101.946Z" fill="white"/>
<path d="M99.171 108.919C101.51 113.908 105.864 113.433 109.072 112.086C112.089 110.819 114.887 107.343 116.486 102.539C117.049 100.848 117.33 98.6592 116.384 97.2641C115.865 96.4979 115.148 96.1482 114.491 96.0275C115.227 96.1626 116.361 95.1247 117.042 94.6581C118.247 93.8322 121.239 90.4562 118.979 88.2724C118.131 87.4535 117.228 87.8118 116.88 87.9875C118.166 87.3382 119.731 86.7815 120.671 84.918C121.867 82.5485 120.889 78.4097 118.979 79.7019C120.188 77.9984 121.664 75.5581 122.061 72.7755C122.36 70.6733 121.787 68.5293 120.572 68.0132C119.81 67.6895 118.998 68.0625 118.312 68.7456C117.022 70.032 115.931 72.1778 115.175 74.4346C115.615 73.1192 115.339 70.8485 114.851 69.7241C114.584 69.1076 114.182 68.6513 113.748 68.619C111.653 68.4632 110.495 74.7366 110.25 77.5951C110.525 74.3837 109.432 70.5706 107.416 72.8427C105.921 74.5286 104.742 78.0525 105.025 81.2963C104.918 80.0725 104.655 78.499 104.175 77.577C103.279 75.8545 102.495 78.7858 102.226 80.0329C101.677 82.5797 101.596 85.4073 101.995 88.0446C101.832 86.9697 100.778 85.3592 100.184 85.1576C98.1987 84.4848 97.7732 93.2599 97.6244 95.4341C97.3305 99.7269 97.4309 104.524 98.8577 108.187C98.9577 108.443 99.0621 108.687 99.171 108.919Z" fill="url(#paint2_linear_277_92990)"/>
<path opacity="0.5" d="M94.6572 115.29L103.396 100.095L102.878 86.2173C102.868 85.9481 102.981 85.715 103.131 85.697C103.277 85.6738 103.409 85.8824 103.419 86.1519L103.906 99.2079L108.643 90.9705L107.782 80.7916C107.759 80.5247 107.861 80.2754 108.009 80.2346C108.157 80.1942 108.295 80.3773 108.318 80.6441L109.121 90.1394L113.068 83.2749L112.87 74.9731C112.863 74.7034 112.979 74.4754 113.129 74.4638C113.273 74.459 113.405 74.6614 113.411 74.9311L113.589 82.3692L118.24 74.282C118.348 74.0944 118.519 74.1004 118.623 74.2946C118.727 74.4889 118.724 74.7982 118.616 74.9856L113.975 83.0556L118.445 83.5614C118.594 83.5784 118.708 83.8103 118.699 84.0798C118.69 84.3387 118.57 84.538 118.428 84.538C118.423 84.538 118.417 84.5377 118.411 84.537L113.446 83.9753L109.537 90.7737L115.229 91.8916C115.378 91.9207 115.486 92.162 115.47 92.4305C115.454 92.6808 115.337 92.8663 115.201 92.8663C115.191 92.8663 115.181 92.8653 115.171 92.8634L109.028 91.6575L104.302 99.876L111.265 100.731C111.414 100.749 111.527 100.982 111.516 101.251C111.507 101.509 111.388 101.707 111.246 101.707C111.24 101.707 111.234 101.707 111.228 101.706L103.776 100.791L95.0332 115.994C94.9806 116.085 94.9129 116.131 94.8452 116.131C94.7743 116.131 94.7032 116.081 94.6501 115.981C94.5463 115.787 94.5493 115.477 94.6572 115.29Z" fill="white"/>
<path d="M124.14 97.5691C126.05 96.2763 127.029 100.416 125.832 102.784C124.91 104.612 123.387 105.184 122.116 105.817C122.506 105.636 123.346 105.375 124.14 106.14C126.4 108.322 123.409 111.7 122.204 112.526C121.523 112.993 120.389 114.029 119.652 113.894C120.31 114.016 121.027 114.366 121.546 115.131C122.491 116.526 122.211 118.716 121.649 120.407C121.078 122.12 120.355 123.665 119.523 124.999H103.654C102.578 121.5 102.52 117.193 102.785 113.3C102.797 113.115 102.812 112.882 102.83 112.609C103.018 109.698 103.529 102.408 105.345 103.024C105.939 103.227 106.993 104.837 107.156 105.912C106.923 104.368 106.854 102.76 106.947 101.181C106.965 100.856 106.992 100.534 107.025 100.211C107.104 99.424 107.226 98.6493 107.388 97.899C107.657 96.6527 108.44 93.7224 109.337 95.4429C109.817 96.3666 110.08 97.9404 110.187 99.1624C109.97 96.6746 110.612 94.023 111.597 92.1607C111.766 91.843 111.945 91.5473 112.131 91.2834C112.276 91.0732 112.425 90.8801 112.578 90.7091C113.82 89.3112 114.712 90.2203 115.148 91.8773C115.225 92.1657 115.288 92.476 115.335 92.801C115.46 93.6394 115.487 94.5754 115.411 95.4625C115.582 93.4658 116.198 89.8073 117.267 87.8326C117.277 87.8156 117.286 87.7984 117.295 87.7813H117.297L117.298 87.7789C117.755 86.9552 118.29 86.4396 118.91 86.4861C119.041 86.4958 119.168 86.5423 119.29 86.6204H119.291C119.574 86.8062 119.825 87.1605 120.012 87.5908C120.5 88.7149 120.777 90.9853 120.336 92.3025C121.092 90.0444 122.184 87.8986 123.474 86.6132C124.159 85.9288 124.971 85.5573 125.733 85.88C126.949 86.3957 127.522 88.5413 127.222 90.6431C126.825 93.4242 125.349 95.8657 124.14 97.5691Z" fill="url(#paint3_linear_277_92990)"/>
<path opacity="0.5" d="M123.862 101.946C123.852 102.205 123.733 102.406 123.591 102.406H123.573L118.609 101.844L114.699 108.64L120.392 109.76C120.541 109.789 120.648 110.031 120.632 110.297C120.617 110.549 120.499 110.735 120.363 110.735C120.353 110.735 120.343 110.732 120.334 110.732L114.191 109.525L109.465 117.744L116.428 118.599C116.577 118.616 116.689 118.851 116.678 119.12C116.669 119.376 116.55 119.574 116.409 119.574H116.39L108.938 118.66L105.292 125H104.512L108.557 117.964L108.349 112.365L108.041 104.085C108.03 103.816 108.144 103.584 108.293 103.564C108.439 103.542 108.571 103.75 108.582 104.019L108.885 112.162L109.068 117.077L113.805 108.838L113.738 108.061L112.944 98.6595C112.921 98.3931 113.023 98.1437 113.172 98.1022C113.32 98.0631 113.458 98.244 113.481 98.5129L114.226 107.34L114.283 108.007L118.231 101.142L118.053 93.7448L118.032 92.8406C118.025 92.5717 118.141 92.3444 118.29 92.3322C118.435 92.3274 118.567 92.5302 118.573 92.7989L118.582 93.1167L118.751 100.238L123.402 92.1489C123.509 91.9632 123.681 91.968 123.786 92.1637C123.89 92.3567 123.886 92.6671 123.779 92.8528L119.137 100.923L123.607 101.428C123.757 101.446 123.87 101.678 123.862 101.946Z" fill="white"/>
<path d="M101.886 118.688H39.2407C38.6633 118.688 38.1952 117.844 38.1952 116.802V42.9679C38.1952 41.9264 38.6633 41.082 39.2407 41.082H101.886C102.463 41.082 102.931 41.9264 102.931 42.9679V116.802C102.931 117.844 102.463 118.688 101.886 118.688Z" fill="#C3D7F2"/>
<path d="M39.0502 115.811V43.9592C39.0502 43.2217 39.3815 42.624 39.7903 42.624H101.336C101.745 42.624 102.077 43.2218 102.077 43.9592V115.811C102.077 116.548 101.745 117.146 101.336 117.146H39.7903C39.3815 117.146 39.0502 116.548 39.0502 115.811Z" fill="#1A284D"/>
<path d="M41.1251 113.401V46.3691H99.9993V113.401H41.1251Z" fill="url(#paint4_linear_277_92990)"/>
<path d="M105.943 125H35.1827C34.5063 125 33.958 124.011 33.958 122.791V118.688H107.168V122.791C107.168 124.011 106.62 125 105.943 125Z" fill="#1A284D"/>
<path opacity="0.25" d="M79.3326 122.124H61.7931C61.4248 122.124 61.1263 121.586 61.1263 120.922V118.688H79.9994V120.922C79.9993 121.586 79.7008 122.124 79.3326 122.124Z" fill="#C3D7F2"/>
<path d="M83.8548 19.3352C87.7373 18.1541 89.9086 14.1095 88.7045 10.3012C87.5005 6.49291 83.377 4.36311 79.4946 5.54416C75.6121 6.7252 73.4408 10.7698 74.6448 14.5781C75.8489 18.3864 79.9723 20.5162 83.8548 19.3352Z" fill="#582E89"/>
<path d="M81.0254 18.3456C85.0904 18.3456 88.3857 15.1132 88.3857 11.1259C88.3857 7.1386 85.0904 3.90625 81.0254 3.90625C76.9604 3.90625 73.665 7.1386 73.665 11.1259C73.665 15.1132 76.9604 18.3456 81.0254 18.3456Z" fill="url(#paint5_linear_277_92990)"/>
<path d="M79.2229 8.56468C79.101 9.67537 79.8873 10.9714 81.0196 11.091C82.1519 11.2106 83.2015 10.1084 83.3234 8.99775C83.4453 7.88707 82.6139 7.00211 81.4815 6.88253C80.3492 6.76295 79.3448 7.454 79.2229 8.56468Z" fill="white"/>
<path d="M83.095 15.6363L78.09 15.1077C77.5631 15.0521 77.1333 14.6689 77.0268 14.1597L76.8481 13.3055C76.7173 12.6801 77.1097 12.0594 77.7414 11.9056C79.8585 11.3902 81.9544 11.7064 84.0347 12.6385C84.6175 12.8996 84.8833 13.5692 84.6504 14.1546L84.3607 14.8826C84.1606 15.3853 83.642 15.6942 83.095 15.6363Z" fill="white"/>
<path d="M119.128 20.2748H130.227C131.295 20.2748 132.16 19.4448 132.16 18.4211V18.231C132.16 18.7833 131.8 19.2555 131.293 19.4435C131.141 19.5001 130.977 19.5313 130.804 19.5313H119.903L119.128 20.2748Z" fill="#355BAF"/>
<path d="M115.176 10.0509V22.4153C115.176 23.0235 115.941 23.329 116.39 22.9023C116.39 22.9015 116.392 22.9 116.393 22.8993L119.128 20.2747L119.903 19.5313H130.804C130.977 19.5313 131.141 19.5001 131.293 19.4435C131.8 19.2554 132.16 18.7833 132.16 18.2309V10.0509C132.16 9.33268 131.553 8.75049 130.804 8.75049H116.531C115.955 8.75049 115.463 9.09472 115.267 9.58097C115.208 9.72671 115.176 9.88507 115.176 10.0509Z" fill="url(#paint6_linear_277_92990)"/>
<path d="M116.53 8.75049C115.354 8.75049 114.4 9.66522 114.4 10.7936V23.1587C114.4 23.7684 115.168 24.074 115.617 23.6427L116.389 22.9022C115.94 23.329 115.175 23.0234 115.175 22.4152V10.0509C115.175 9.88513 115.208 9.72671 115.267 9.58097C115.463 9.09472 115.955 8.75049 116.53 8.75049Z" fill="#355BAF"/>
<path d="M119.598 14.9642C120.164 14.9642 120.623 14.5244 120.623 13.9819C120.623 13.4393 120.164 12.9995 119.598 12.9995C119.033 12.9995 118.574 13.4393 118.574 13.9819C118.574 14.5244 119.033 14.9642 119.598 14.9642Z" fill="white"/>
<path d="M123.28 14.9637C123.845 14.9637 124.304 14.5239 124.304 13.9814C124.304 13.4388 123.845 12.999 123.28 12.999C122.714 12.999 122.256 13.4388 122.256 13.9814C122.256 14.5239 122.714 14.9637 123.28 14.9637Z" fill="white"/>
<path d="M126.96 14.9637C127.526 14.9637 127.984 14.5239 127.984 13.9814C127.984 13.4388 127.526 12.999 126.96 12.999C126.395 12.999 125.936 13.4388 125.936 13.9814C125.936 14.5239 126.395 14.9637 126.96 14.9637Z" fill="white"/>
<path d="M38.8288 40.9874H51.1036V37.9523H51.1003L51.1036 37.3044V34.4078H51.1069C50.9103 30.4797 48.3448 27.2898 45.0485 26.7779C45.0191 26.7722 44.9912 26.7664 44.9617 26.7626V26.7588C42.265 26.7645 39.5701 28.6681 38.9426 32.4811C38.8591 32.9872 38.8148 33.5086 38.8148 34.0435V38.7136H38.8181L38.8288 40.9874Z" fill="#82A5CF"/>
<path d="M109.08 83.0496H109.074V37.8446C109.074 33.0751 106.504 29.0108 102.895 27.4427C102.023 26.9769 101.055 26.7105 100.034 26.7046L57.4026 26.7334L57.4042 26.7296H45.8182C45.6626 26.7296 45.5102 26.7373 45.3578 26.7488H44.963V26.7642C44.9925 26.7679 45.0204 26.7737 45.0498 26.7793C48.3461 27.2913 50.9116 30.4812 51.1082 34.4093H51.1049V83.0496V112.165V112.703H51.1272C51.1657 113.249 51.2573 113.778 51.4028 114.277C51.4064 114.289 51.4099 114.301 51.4152 114.314C51.7325 115.312 52.2735 116.18 52.9645 116.842C53.844 117.684 54.9667 118.189 56.1899 118.189C56.3185 118.189 56.4454 118.185 56.5723 118.179L56.6323 118.75H109.069V112.703H109.074V106.264H109.08L109.08 83.0496Z" fill="white"/>
<path d="M101.984 37.3588L58.1741 37.4727L58.188 44.9349L101.998 44.821L101.984 37.3588Z" fill="#5477AD"/>
<path d="M67.9114 42.8289L68.1465 42.2113C68.4392 42.4863 68.9042 42.682 69.3534 42.682C69.9229 42.682 70.1632 42.4437 70.1632 42.1257C70.1632 41.2025 67.9898 41.8078 67.9898 40.2182C67.9898 39.5274 68.46 38.9404 69.4631 38.9404C69.902 38.9404 70.3618 39.0751 70.6804 39.3195L70.4662 39.937C70.1371 39.7107 69.7766 39.6007 69.4579 39.6007C68.8936 39.6007 68.6637 39.8576 68.6637 40.1816C68.6637 41.0925 70.832 40.4995 70.832 42.0707C70.832 42.7553 70.3565 43.3422 69.3534 43.3422C68.7839 43.3422 68.2144 43.1345 67.9114 42.8289Z" fill="white"/>
<path d="M71.9982 41.4169V39.002H72.6774V41.3863C72.6774 42.2668 73.0171 42.6458 73.6074 42.6458C74.1978 42.6458 74.5322 42.2668 74.5322 41.3863V39.002H75.2009V41.4169C75.2009 42.664 74.6001 43.3427 73.6022 43.3427C72.5991 43.3427 71.9982 42.6641 71.9982 41.4169Z" fill="white"/>
<path d="M79.068 43.2816L78.3208 42.0284C78.2738 42.0344 78.2268 42.0344 78.1798 42.0344H77.3542V43.2817H76.675V39.002H78.1797C79.1411 39.002 79.7367 39.5768 79.7367 40.5244C79.7367 41.1724 79.4545 41.6493 78.9581 41.8756L79.7993 43.2817H79.068V43.2816ZM78.1483 39.6744H77.3542V41.3802H78.1483C78.744 41.3802 79.0522 41.0623 79.0522 40.5243C79.0522 39.9863 78.744 39.6744 78.1483 39.6744Z" fill="white"/>
<path d="M84.3598 39.002L82.7662 43.2817H82.0974L80.4987 39.002H81.2354L82.4527 42.3035L83.6805 39.002H84.3598Z" fill="white"/>
<path d="M88.014 42.6153V43.2817H85.271V39.002H87.9408V39.6684H85.9502V40.781H87.7161V41.4353H85.9502V42.6153H88.014Z" fill="white"/>
<path d="M90.8296 41.7715V43.2817H90.1504V41.7839L88.7136 39.002H89.4398L90.5109 41.0869L91.5925 39.002H92.2613L90.8296 41.7715Z" fill="white"/>
<path d="M60.3435 48.1287L53.8741 48.1455L53.8883 55.7156L60.3576 55.6988L60.3435 48.1287Z" fill="#C3D7F2"/>
<path d="M106.299 48.9615L62.2963 49.0645L62.2984 50.3324L106.301 50.2294L106.299 48.9615Z" fill="#C3D7F2"/>
<path d="M106.304 51.1617L62.3008 51.2646L62.3029 52.5326L106.306 52.4296L106.304 51.1617Z" fill="#C3D7F2"/>
<path d="M83.8021 53.4211L62.3062 53.4639L62.308 54.7318L83.8039 54.6891L83.8021 53.4211Z" fill="#C3D7F2"/>
<path d="M58.7215 49.8945L56.1951 52.8509L55.514 52.0541C55.3427 51.8536 55.0648 51.8536 54.8937 52.0541C54.7223 52.2547 54.7223 52.5795 54.8937 52.7801L55.8849 53.9398C55.9706 54.0401 56.0829 54.0902 56.1951 54.0902C56.3073 54.0902 56.4197 54.04 56.5053 53.9398L59.3418 50.6204C59.5132 50.4199 59.5132 50.095 59.3418 49.8945C59.1704 49.694 58.8927 49.694 58.7215 49.8945Z" fill="white"/>
<path d="M60.3434 69.6895L53.8741 69.7065L53.888 77.2766L60.3573 77.2595L60.3434 69.6895Z" fill="#C3D7F2"/>
<path d="M106.301 70.522L62.2981 70.625L62.3003 71.893L106.303 71.79L106.301 70.522Z" fill="#C3D7F2"/>
<path d="M106.305 72.7217L62.3026 72.8247L62.3048 74.0927L106.308 73.9897L106.305 72.7217Z" fill="#C3D7F2"/>
<path d="M83.803 74.9817L62.3071 75.0244L62.309 76.2924L83.8049 76.2496L83.803 74.9817Z" fill="#C3D7F2"/>
<path d="M58.7224 71.4551L56.1961 74.4115L55.515 73.6147C55.3436 73.4142 55.0658 73.4142 54.8946 73.6147C54.7233 73.8152 54.7233 74.1401 54.8946 74.3406L55.8859 75.5003C55.9715 75.6006 56.0838 75.6507 56.1961 75.6507C56.3083 75.6507 56.4207 75.6006 56.5062 75.5003L59.3428 72.181C59.5141 71.9805 59.5141 71.6556 59.3428 71.4551C59.1714 71.2546 58.8936 71.2546 58.7224 71.4551Z" fill="white"/>
<path d="M60.3435 80.4695L53.8741 80.4858L53.8887 88.0559L60.358 88.0396L60.3435 80.4695Z" fill="#C3D7F2"/>
<path d="M106.303 81.3018L62.2999 81.4048L62.3021 82.6727L106.305 82.5698L106.303 81.3018Z" fill="#C3D7F2"/>
<path d="M106.305 83.502L62.3026 83.605L62.3048 84.8729L106.308 84.77L106.305 83.502Z" fill="#C3D7F2"/>
<path d="M83.8039 85.7614L62.308 85.8042L62.3098 87.0722L83.8057 87.0294L83.8039 85.7614Z" fill="#C3D7F2"/>
<path d="M58.7206 82.2344L56.1942 85.1908L55.5132 84.394C55.3418 84.1935 55.0639 84.1935 54.8928 84.394C54.7214 84.5945 54.7214 84.9194 54.8928 85.1199L55.8841 86.2796C55.9697 86.3799 56.082 86.43 56.1942 86.43C56.3065 86.43 56.4188 86.3799 56.5044 86.2796L59.341 82.9603C59.5123 82.7598 59.5123 82.4349 59.341 82.2344C59.1696 82.0339 58.8918 82.0339 58.7206 82.2344Z" fill="white"/>
<path d="M60.3434 58.9092L53.8741 58.9263L53.888 66.4964L60.3573 66.4793L60.3434 58.9092Z" fill="#C3D7F2"/>
<path d="M106.3 59.7417L62.2971 59.8447L62.2993 61.1127L106.302 61.0097L106.3 59.7417Z" fill="#C3D7F2"/>
<path d="M106.305 61.9415L62.3026 62.0444L62.3048 63.3124L106.308 63.2094L106.305 61.9415Z" fill="#C3D7F2"/>
<path d="M83.803 64.2019L62.3071 64.2446L62.309 65.5126L83.8049 65.4698L83.803 64.2019Z" fill="#C3D7F2"/>
<path d="M57.7398 62.697L58.8479 61.4002C59.0193 61.1997 59.0193 60.8748 58.8479 60.6743C58.6766 60.4738 58.3987 60.4738 58.2276 60.6743L57.1195 61.9711L56.0113 60.6743C55.84 60.4738 55.5621 60.4738 55.391 60.6743C55.2196 60.8748 55.2196 61.1997 55.391 61.4002L56.4991 62.697L55.391 63.9937C55.2196 64.1942 55.2196 64.5191 55.391 64.7196C55.4767 64.8198 55.5889 64.87 55.7011 64.87C55.8134 64.87 55.9258 64.8198 56.0113 64.7196L57.1195 63.4228L58.2276 64.7196C58.3133 64.8198 58.4255 64.87 58.5378 64.87C58.65 64.87 58.7624 64.8198 58.8479 64.7196C59.0193 64.5191 59.0193 64.1942 58.8479 63.9937L57.7398 62.697Z" fill="white"/>
<path d="M60.3413 91.2495L53.8719 91.2661L53.8862 98.8362L60.3555 98.8196L60.3413 91.2495Z" fill="#C3D7F2"/>
<path d="M106.301 92.0816L62.2986 92.1846L62.3008 93.4525L106.304 93.3495L106.301 92.0816Z" fill="#C3D7F2"/>
<path d="M106.304 94.2823L62.3013 94.3853L62.3034 95.6532L106.306 95.5502L106.304 94.2823Z" fill="#C3D7F2"/>
<path d="M83.8026 96.5422L62.3066 96.585L62.3085 97.8529L83.8044 97.8102L83.8026 96.5422Z" fill="#C3D7F2"/>
<path d="M57.7376 95.0377L58.8457 93.741C59.0171 93.5405 59.0171 93.2157 58.8457 93.0151C58.6744 92.8146 58.3965 92.8146 58.2254 93.0151L57.1173 94.3118L56.0091 93.0151C55.8378 92.8146 55.5599 92.8146 55.3888 93.0151C55.2174 93.2157 55.2174 93.5405 55.3888 93.741L56.4969 95.0377L55.3888 96.3345C55.2174 96.535 55.2174 96.8599 55.3888 97.0604C55.4745 97.1607 55.5867 97.2108 55.699 97.2108C55.8112 97.2108 55.9236 97.1606 56.0091 97.0604L57.1173 95.7637L58.2254 97.0604C58.3111 97.1607 58.4233 97.2108 58.5356 97.2108C58.6478 97.2108 58.7602 97.1606 58.8457 97.0604C59.0171 96.8599 59.0171 96.535 58.8457 96.3345L57.7376 95.0377Z" fill="white"/>
<path d="M60.3413 102.03L53.8719 102.047L53.8861 109.617L60.3554 109.6L60.3413 102.03Z" fill="#C3D7F2"/>
<path d="M106.302 102.862L62.2996 102.965L62.3017 104.233L106.304 104.13L106.302 102.862Z" fill="#C3D7F2"/>
<path d="M106.304 105.063L62.3013 105.166L62.3034 106.433L106.306 106.331L106.304 105.063Z" fill="#C3D7F2"/>
<path d="M83.8026 107.322L62.3066 107.365L62.3085 108.633L83.8044 108.59L83.8026 107.322Z" fill="#C3D7F2"/>
<path d="M57.7386 105.818L58.8467 104.521C59.0181 104.32 59.0181 103.995 58.8467 103.795C58.6754 103.594 58.3975 103.594 58.2264 103.795L57.1182 105.092L56.0101 103.795C55.8387 103.594 55.5609 103.594 55.3898 103.795C55.2184 103.995 55.2184 104.32 55.3898 104.521L56.4979 105.818L55.3898 107.114C55.2184 107.315 55.2184 107.64 55.3898 107.84C55.4755 107.94 55.5877 107.991 55.6999 107.991C55.8122 107.991 55.9245 107.94 56.0101 107.84L57.1182 106.544L58.2264 107.84C58.3121 107.94 58.4243 107.991 58.5365 107.991C58.6488 107.991 58.7611 107.94 58.8467 107.84C59.0181 107.64 59.0181 107.315 58.8467 107.114L57.7386 105.818Z" fill="white"/>
<path d="M120.757 102.52V108.353C120.757 114.095 116.779 118.75 111.872 118.75H56.6299C54.2065 118.672 52.1637 116.84 51.4128 114.314C51.7301 115.312 52.2711 116.18 52.9621 116.842C53.8416 117.684 54.9643 118.189 56.1874 118.189C60.1566 118.189 63.3715 114.425 63.3715 109.783V102.52H91.7964C91.8845 102.52 91.9691 102.522 92.0555 102.528V102.52L120.757 102.52Z" fill="#82A5CF"/>
<path d="M32.198 62.6158V88.6532C32.198 89.2427 31.8555 89.7173 31.4301 89.7173H0.742347C0.331826 89.7173 0 89.2575 0 88.6886V62.3151C0 61.7285 0.344541 61.251 0.767901 61.251H31.2153C31.7577 61.251 32.198 61.8612 32.198 62.6158Z" fill="white"/>
<path d="M33.0489 62.3146V89.8318C33.0489 90.4184 32.7043 90.896 32.281 90.896H0.767897C0.344599 90.896 0 90.4184 0 89.8318V88.6881C0 89.257 0.331823 89.7168 0.742344 89.7168H31.4301C31.8555 89.7168 32.198 89.2423 32.198 88.6527V62.6153C32.198 61.8606 31.7576 61.2505 31.2153 61.2505H32.281C32.7043 61.2505 33.0489 61.728 33.0489 62.3146Z" fill="#C2D6EF"/>
<path d="M5.30883 76.3652H2.04089V87.0802H5.30883V76.3652Z" fill="#9EBEFF"/>
<path d="M10.2794 71.1226H7.01147V87.0812H10.2794V71.1226Z" fill="#305EBB"/>
<path d="M25.1866 66.3398H21.9187V87.0812H25.1866V66.3398Z" fill="#305EBB"/>
<path d="M30.1564 76.3652H26.8884V87.0802H30.1564V76.3652Z" fill="#9EBEFF"/>
<path d="M15.2473 63.8857H11.9794V87.081H15.2473V63.8857Z" fill="#9EBEFF"/>
<path d="M20.217 74.0303H16.949V87.0807H20.217V74.0303Z" fill="#628AEC"/>
<path d="M59.0278 5.43477C59.0278 6.93562 58.5084 8.29435 57.6694 9.27823C56.8304 10.2622 55.6718 10.8713 54.3919 10.8713H30.7532C29.5219 10.8713 28.4033 10.3074 27.5743 9.39039C27.1048 8.54035 26.8323 7.52632 26.8323 6.43869C26.8323 4.93777 27.3517 3.57905 28.1892 2.59523C29.0282 1.61129 30.1868 1.00391 31.4667 1.00391H55.1053C56.3381 1.00391 57.4568 1.56609 58.2872 2.48813C58.7552 3.33646 59.0278 4.34879 59.0278 5.43477Z" fill="#1A284D"/>
<path d="M59.0285 5.43485C59.0285 6.9357 58.5092 8.29443 57.6702 9.2783C56.8312 10.2622 55.6726 10.8713 54.3926 10.8713H30.754C29.5227 10.8713 28.404 10.3075 27.575 9.39046C26.6789 8.39818 26.1196 6.99266 26.1196 5.43478C26.1196 3.93393 26.639 2.5752 27.4766 1.59133C28.3156 0.607385 29.4742 0 30.754 0H54.3926C56.0264 0 57.4632 0.99058 58.288 2.48821C58.756 3.33654 59.0285 4.34886 59.0285 5.43485Z" fill="url(#paint7_linear_277_92990)"/>
<path d="M31.1951 2.90412L31.7728 4.24912C31.8059 4.32606 31.8698 4.37941 31.9437 4.39176L33.2357 4.60748C33.4218 4.63856 33.4962 4.90131 33.3615 5.05217L32.4266 6.09906C32.3731 6.15899 32.3487 6.24526 32.3613 6.32982L32.582 7.80813C32.6138 8.02108 32.4192 8.18351 32.2527 8.08298L31.0971 7.38505C31.031 7.3451 30.952 7.3451 30.8859 7.38505L29.7303 8.08298C29.5638 8.18351 29.3692 8.02115 29.401 7.80813L29.6217 6.32982C29.6343 6.24526 29.6099 6.15892 29.5564 6.09906L28.6215 5.05211C28.4868 4.90125 28.5611 4.63849 28.7473 4.60741L30.0393 4.3917C30.1132 4.37935 30.1771 4.32599 30.2102 4.24905L30.7879 2.90406C30.8713 2.71036 31.1118 2.71036 31.1951 2.90412Z" fill="white"/>
<path d="M36.9846 2.90412L37.5624 4.24912C37.5955 4.32606 37.6593 4.37941 37.7333 4.39176L39.0253 4.60748C39.2114 4.63856 39.2858 4.90131 39.1511 5.05217L38.2162 6.09913C38.1627 6.15905 38.1383 6.24532 38.1509 6.32989L38.3716 7.8082C38.4034 8.02115 38.2088 8.18358 38.0423 8.08305L36.8867 7.38505C36.8205 7.3451 36.7415 7.3451 36.6754 7.38505L35.5198 8.08298C35.3534 8.18351 35.1588 8.02115 35.1905 7.80813L35.4112 6.32982C35.4238 6.24526 35.3995 6.15892 35.346 6.09906L34.4111 5.05211C34.2764 4.90125 34.3507 4.63849 34.5368 4.60741L35.8288 4.3917C35.9027 4.37935 35.9667 4.32599 35.9997 4.24905L36.5775 2.90406C36.6608 2.71036 36.9013 2.71036 36.9846 2.90412Z" fill="white"/>
<path d="M42.7768 2.90411L43.3546 4.24911C43.3877 4.32605 43.4515 4.3794 43.5255 4.39176L44.8175 4.60747C45.0036 4.63855 45.078 4.9013 44.9433 5.05216L44.0084 6.09912C43.9548 6.15904 43.9305 6.24532 43.9431 6.32988L44.1638 7.80819C44.1955 8.02114 44.001 8.18357 43.8345 8.08304L42.6789 7.38511C42.6128 7.34516 42.5338 7.34516 42.4677 7.38511L41.3121 8.08304C41.1456 8.18357 40.951 8.02121 40.9828 7.80819L41.2035 6.32988C41.2161 6.24532 41.1917 6.15898 41.1382 6.09912L40.2033 5.05216C40.0686 4.9013 40.1429 4.63855 40.3291 4.60747L41.6211 4.39176C41.695 4.3794 41.7589 4.32605 41.792 4.24911L42.3697 2.90411C42.453 2.71035 42.6935 2.71035 42.7768 2.90411Z" fill="white"/>
<path d="M48.5681 2.90411L49.146 4.24911C49.179 4.32605 49.2429 4.3794 49.3169 4.39176L50.6088 4.60747C50.795 4.63855 50.8693 4.9013 50.7346 5.05216L49.7997 6.09912C49.7462 6.15904 49.7218 6.24532 49.7344 6.32988L49.9552 7.80819C49.987 8.02114 49.7924 8.18357 49.6259 8.08304L48.4703 7.38511C48.4042 7.34516 48.3252 7.34516 48.259 7.38511L47.1034 8.08304C46.937 8.18357 46.7424 8.02121 46.7742 7.80819L46.9949 6.32988C47.0075 6.24532 46.9831 6.15898 46.9296 6.09912L45.9947 5.05216C45.86 4.9013 45.9343 4.63855 46.1205 4.60747L47.4124 4.39176C47.4863 4.3794 47.5503 4.32605 47.5833 4.24911L48.1612 2.90411C48.2444 2.71035 48.4849 2.71035 48.5681 2.90411Z" fill="white"/>
<path d="M54.3613 2.90411L54.9391 4.24911C54.9721 4.32605 55.036 4.3794 55.11 4.39176L56.4019 4.60747C56.5881 4.63855 56.6624 4.9013 56.5277 5.05216L55.5928 6.09912C55.5393 6.15904 55.5149 6.24532 55.5276 6.32988L55.7483 7.80819C55.7801 8.02114 55.5855 8.18357 55.419 8.08304L54.2634 7.38511C54.1973 7.34516 54.1183 7.34516 54.0521 7.38511L52.8965 8.08304C52.7301 8.18357 52.5355 8.02121 52.5673 7.80819L52.788 6.32988C52.8006 6.24532 52.7762 6.15898 52.7227 6.09912L51.7878 5.05216C51.6531 4.9013 51.7274 4.63855 51.9136 4.60747L53.2055 4.39176C53.2794 4.3794 53.3434 4.32605 53.3764 4.24911L53.9543 2.90411C54.0375 2.71035 54.278 2.71035 54.3613 2.90411Z" fill="white"/>
<path d="M54.3927 0.000488281C57.347 0.000488281 59.742 2.80908 59.742 6.27361V6.43925C59.742 7.9401 59.2226 9.29883 58.3836 10.2827C57.5447 11.2667 56.386 11.8757 55.1061 11.8757H31.469C28.5146 11.8757 26.1196 9.06715 26.1196 5.60256V5.43521C26.1196 6.99302 26.679 8.3986 27.575 9.39089C28.404 10.3078 29.5227 10.8718 30.754 10.8718H54.3926C55.6726 10.8718 56.8312 10.2627 57.6702 9.27873C58.5092 8.29485 59.0285 6.93612 59.0285 5.43527C59.0285 4.34929 58.756 3.33696 58.288 2.48863C57.4633 0.991003 56.0265 0.000488281 54.3927 0.000488281Z" fill="#1F664E"/>
<path d="M107.72 110.117C107.72 111.702 107.184 113.138 106.317 114.177C105.45 115.216 104.254 115.86 102.932 115.86H78.514C77.2421 115.86 76.0866 115.264 75.2303 114.295C74.7454 113.397 74.4639 112.326 74.4639 111.177C74.4639 109.592 75.0004 108.156 75.8655 107.117C76.7322 106.077 77.929 105.436 79.251 105.436H103.668C104.942 105.436 106.098 106.029 106.955 107.004C107.439 107.9 107.72 108.969 107.72 110.117Z" fill="#1A284D"/>
<path d="M107.72 110.116C107.72 111.702 107.184 113.137 106.317 114.177C105.451 115.216 104.254 115.86 102.932 115.86H78.5141C77.2422 115.86 76.0867 115.264 75.2304 114.295C74.3048 113.247 73.7271 111.762 73.7271 110.116C73.7271 108.53 74.2636 107.095 75.1287 106.056C75.9954 105.016 77.1922 104.375 78.5141 104.375H102.932C104.619 104.375 106.103 105.421 106.955 107.003C107.439 107.899 107.72 108.969 107.72 110.116Z" fill="url(#paint8_linear_277_92990)"/>
<path d="M78.9708 107.442L79.5676 108.863C79.6018 108.944 79.6678 109.001 79.7442 109.014L81.0787 109.242C81.271 109.274 81.3478 109.552 81.2086 109.711L80.2429 110.817C80.1876 110.881 80.1625 110.972 80.1755 111.061L80.4035 112.623C80.4363 112.848 80.2353 113.02 80.0633 112.913L78.8697 112.176C78.8014 112.134 78.7198 112.134 78.6515 112.176L77.4578 112.913C77.2858 113.02 77.0848 112.848 77.1177 112.623L77.3456 111.061C77.3587 110.972 77.3335 110.881 77.2782 110.817L76.3125 109.711C76.1734 109.552 76.2502 109.274 76.4424 109.242L77.777 109.014C77.8533 109.001 77.9193 108.944 77.9535 108.863L78.5504 107.442C78.6363 107.237 78.8848 107.237 78.9708 107.442Z" fill="white"/>
<path d="M84.9521 107.443L85.549 108.864C85.5831 108.945 85.6491 109.001 85.7255 109.014L87.06 109.242C87.2523 109.275 87.3291 109.553 87.19 109.712L86.2243 110.818C86.169 110.881 86.1438 110.972 86.1568 111.062L86.3848 112.624C86.4176 112.848 86.2166 113.02 86.0447 112.914L84.851 112.177C84.7827 112.134 84.7011 112.134 84.6328 112.177L83.4391 112.914C83.2672 113.02 83.0662 112.849 83.099 112.624L83.327 111.062C83.34 110.972 83.3148 110.881 83.2595 110.818L82.2938 109.712C82.1547 109.553 82.2314 109.275 82.4238 109.242L83.7583 109.014C83.8346 109.001 83.9007 108.945 83.9348 108.864L84.5316 107.443C84.6176 107.238 84.8661 107.238 84.9521 107.443Z" fill="white"/>
<path d="M90.9354 107.443L91.5322 108.864C91.5664 108.945 91.6324 109.001 91.7088 109.014L93.0433 109.242C93.2356 109.275 93.3124 109.553 93.1732 109.712L92.2075 110.818C92.1522 110.881 92.1271 110.972 92.1401 111.062L92.3681 112.624C92.4009 112.848 92.1999 113.02 92.0279 112.914L90.8342 112.177C90.766 112.134 90.6844 112.134 90.6161 112.177L89.4224 112.914C89.2504 113.02 89.0494 112.849 89.0823 112.624L89.3102 111.062C89.3232 110.972 89.2981 110.881 89.2428 110.818L88.2771 109.712C88.138 109.553 88.2148 109.275 88.407 109.242L89.7416 109.014C89.8179 109.001 89.8839 108.945 89.9181 108.864L90.515 107.443C90.601 107.238 90.8494 107.238 90.9354 107.443Z" fill="white"/>
<path d="M96.9141 107.443L97.511 108.864C97.5451 108.945 97.6111 109.001 97.6875 109.014L99.0221 109.242C99.2143 109.275 99.2911 109.553 99.152 109.712L98.1863 110.818C98.131 110.881 98.1059 110.972 98.1189 111.062L98.3468 112.624C98.3797 112.848 98.1787 113.02 98.0067 112.914L96.813 112.177C96.7447 112.134 96.6631 112.134 96.5948 112.177L95.4012 112.914C95.2292 113.02 95.0282 112.849 95.061 112.624L95.289 111.062C95.302 110.972 95.2768 110.881 95.2216 110.818L94.2559 109.712C94.1167 109.553 94.1935 109.275 94.3858 109.242L95.7203 109.014C95.7967 109.001 95.8627 108.945 95.8969 108.864L96.4937 107.443C96.5797 107.238 96.8281 107.238 96.9141 107.443Z" fill="white"/>
<path d="M102.898 107.443L103.495 108.864C103.529 108.945 103.595 109.001 103.672 109.014L105.006 109.242C105.198 109.275 105.275 109.553 105.136 109.712L104.17 110.818C104.115 110.881 104.09 110.972 104.103 111.062L104.331 112.624C104.364 112.848 104.163 113.02 103.991 112.914L102.797 112.177C102.729 112.134 102.647 112.134 102.579 112.177L101.385 112.914C101.213 113.02 101.012 112.849 101.045 112.624L101.273 111.062C101.286 110.972 101.261 110.881 101.206 110.818L100.24 109.712C100.101 109.553 100.178 109.275 100.37 109.242L101.704 109.014C101.781 109.001 101.847 108.945 101.881 108.864L102.478 107.443C102.564 107.238 102.812 107.238 102.898 107.443Z" fill="white"/>
<path d="M102.931 104.375C105.982 104.375 108.456 107.342 108.456 111.002V111.177C108.456 112.763 107.92 114.198 107.053 115.238C106.186 116.277 104.99 116.921 103.668 116.921H79.2515C76.1998 116.921 73.726 113.954 73.726 110.293V110.117C73.726 111.762 74.3037 113.247 75.2293 114.296C76.0856 115.264 77.2411 115.86 78.513 115.86H102.931C104.253 115.86 105.449 115.217 106.316 114.177C107.183 113.138 107.719 111.702 107.719 110.117C107.719 108.969 107.438 107.9 106.954 107.004C106.102 105.421 104.618 104.375 102.931 104.375Z" fill="#355BAF"/>
<path d="M31.9359 49.3254C36.4112 44.4732 36.4112 36.6061 31.9358 31.7539C27.4605 26.9016 20.2045 26.9016 15.7292 31.7538C11.2538 36.606 11.2539 44.4731 15.7292 49.3254C20.2046 54.1776 27.4605 54.1776 31.9359 49.3254Z" fill="#355BAF"/>
<path d="M25.0609 54.4863C31.3901 54.4863 36.5208 48.9234 36.5208 42.0613C36.5208 35.1991 31.3901 29.6362 25.0609 29.6362C18.7318 29.6362 13.601 35.1991 13.601 42.0613C13.601 48.9234 18.7318 54.4863 25.0609 54.4863Z" fill="url(#paint9_linear_277_92990)"/>
<path d="M20.8711 41.6885L17.5708 43.4333C17.2797 43.5872 17.1589 43.9678 17.3008 44.2834L20.3931 51.1589C20.535 51.4745 20.886 51.6055 21.1771 51.4516L24.4774 49.7068C24.7685 49.5529 24.8894 49.1724 24.7475 48.8567L21.6552 41.9813C21.5132 41.6656 21.1622 41.5346 20.8711 41.6885Z" fill="white"/>
<path d="M30.8713 37.8398C31.1852 35.4941 29.4287 35.7734 29.4287 35.7734L25.4545 37.8746L25.3551 37.4633C25.3551 37.4633 24.3862 34.3581 23.5325 33.6964C22.6788 33.0347 20.8862 33.5188 20.9686 33.8925C21.0512 34.2663 21.8289 35.7102 22.0614 36.6076C22.2939 37.505 22.3314 40.9171 22.3103 41.3457C22.3054 41.4448 22.2585 41.5834 22.1897 41.7378L25.1893 48.4072C25.7804 48.4723 26.2024 48.1925 26.2024 48.1925L31.9736 45.1413C33.034 43.885 32.0464 42.8303 32.0464 42.8303C32.8346 41.2541 31.8461 40.2926 31.8461 40.2926C32.6556 38.2877 30.8713 37.8398 30.8713 37.8398Z" fill="white"/>
<path d="M133.331 81.1237C136.348 77.6953 136.348 72.1367 133.331 68.7083C130.314 65.2799 125.423 65.2799 122.407 68.7083C119.39 72.1367 119.39 77.6953 122.407 81.1237C125.423 84.5521 130.314 84.5521 133.331 81.1237Z" fill="#355BAF"/>
<path d="M127.305 84.9668C131.572 84.9668 135.03 81.0363 135.03 76.1878C135.03 71.3392 131.572 67.4087 127.305 67.4087C123.039 67.4087 119.581 71.3392 119.581 76.1878C119.581 81.0363 123.039 84.9668 127.305 84.9668Z" fill="url(#paint10_linear_277_92990)"/>
<path d="M126.467 73.1103L124.63 71.2244C124.468 71.058 124.219 71.0724 124.072 71.2564L120.884 75.2662C120.737 75.4503 120.75 75.7342 120.912 75.9006L122.748 77.7866C122.91 77.953 123.16 77.9386 123.306 77.7545L126.495 73.7448C126.641 73.5608 126.628 73.2767 126.467 73.1103Z" fill="white"/>
<path d="M131.2 79.2038C132.632 78.8088 132.03 77.6339 132.03 77.6339L129.819 75.3628L130.031 75.1838C130.031 75.1838 131.578 73.6768 131.746 72.8956C131.913 72.1145 131.183 70.9678 130.988 71.1249C130.793 71.2822 130.156 72.2154 129.696 72.6172C129.237 73.019 127.278 73.9447 127.026 74.0427C126.967 74.0653 126.876 74.0685 126.769 74.0603L123.676 77.9499C123.787 78.3872 124.055 78.6134 124.055 78.6134L127.266 81.9114C128.257 82.3341 128.617 81.3542 128.617 81.3542C129.725 81.4991 130.031 80.5431 130.031 80.5431C131.391 80.5901 131.2 79.2038 131.2 79.2038Z" fill="white"/>
<defs>
<linearGradient id="paint0_linear_277_92990" x1="32.7143" y1="109.751" x2="34.9683" y2="74.6235" gradientUnits="userSpaceOnUse">
<stop stop-color="#19936C"/>
<stop offset="1" stop-color="#6FD45C"/>
</linearGradient>
<linearGradient id="paint1_linear_277_92990" x1="28.4205" y1="123.015" x2="26.347" y2="90.7011" gradientUnits="userSpaceOnUse">
<stop stop-color="#19936C"/>
<stop offset="1" stop-color="#6FD45C"/>
</linearGradient>
<linearGradient id="paint2_linear_277_92990" x1="110.292" y1="109.752" x2="108.038" y2="74.6245" gradientUnits="userSpaceOnUse">
<stop stop-color="#19936C"/>
<stop offset="1" stop-color="#6FD45C"/>
</linearGradient>
<linearGradient id="paint3_linear_277_92990" x1="114.583" y1="123.015" x2="116.657" y2="90.7011" gradientUnits="userSpaceOnUse">
<stop stop-color="#19936C"/>
<stop offset="1" stop-color="#6FD45C"/>
</linearGradient>
<linearGradient id="paint4_linear_277_92990" x1="70.5622" y1="113.54" x2="70.5622" y2="47.5351" gradientUnits="userSpaceOnUse">
<stop stop-color="#1E2B56"/>
<stop offset="1" stop-color="#354986"/>
</linearGradient>
<linearGradient id="paint5_linear_277_92990" x1="77.9406" y1="3.52633" x2="83.3261" y2="17.316" gradientUnits="userSpaceOnUse">
<stop stop-color="#C900FF"/>
<stop offset="1" stop-color="#8900AE"/>
</linearGradient>
<linearGradient id="paint6_linear_277_92990" x1="123.668" y1="8.00218" x2="123.668" y2="22.3851" gradientUnits="userSpaceOnUse">
<stop stop-color="#349CFF"/>
<stop offset="1" stop-color="#2F85FE"/>
</linearGradient>
<linearGradient id="paint7_linear_277_92990" x1="42.5741" y1="-0.621602" x2="42.5741" y2="11.3394" gradientUnits="userSpaceOnUse">
<stop stop-color="#55C793"/>
<stop offset="1" stop-color="#1EB06F"/>
</linearGradient>
<linearGradient id="paint8_linear_277_92990" x1="90.7236" y1="103.718" x2="90.7236" y2="116.354" gradientUnits="userSpaceOnUse">
<stop stop-color="#349CFF"/>
<stop offset="1" stop-color="#2F85FE"/>
</linearGradient>
<linearGradient id="paint9_linear_277_92990" x1="13.5984" y1="42.0613" x2="36.5235" y2="42.0613" gradientUnits="userSpaceOnUse">
<stop stop-color="#349CFF"/>
<stop offset="1" stop-color="#2F85FE"/>
</linearGradient>
<linearGradient id="paint10_linear_277_92990" x1="124.423" y1="68.0405" x2="131.578" y2="83.6997" gradientUnits="userSpaceOnUse">
<stop stop-color="#349CFF"/>
<stop offset="1" stop-color="#2F85FE"/>
</linearGradient>
</defs>
</svg>
