<svg width="160" height="190" viewBox="0 0 160 190" fill="none" xmlns="http://www.w3.org/2000/svg">
<rect width="160" height="190" rx="8" fill="white"/>
<path d="M131.231 7.01025H95.8126V41.442H131.231V7.01025Z" fill="#E0E0E0"/>
<path d="M128.832 7.01025H93.4138V41.442H128.832V7.01025Z" fill="#FAFAFA"/>
<path d="M128.843 41.452H93.4028V7H128.843L128.843 41.452ZM93.4249 41.4317H128.821V7.02028H93.4249V41.4317Z" fill="#E0E0E0"/>
<path d="M124.071 11.6387H98.175V36.8131H124.071V11.6387Z" fill="white"/>
<path d="M98.1751 36.9806C98.1956 37.0032 97.9494 37.2666 97.5359 37.6733C97.1224 38.0804 96.5413 38.6312 95.8898 39.2297C95.2381 39.8284 94.6396 40.3612 94.1981 40.7398C93.7565 41.1181 93.4719 41.342 93.4495 41.3212C93.4272 41.3 93.6714 41.0381 94.0852 40.6311C94.4987 40.2243 95.0814 39.672 95.7351 39.0718C96.3884 38.4716 96.9885 37.9373 97.43 37.559C97.8716 37.1804 98.1549 36.9579 98.1751 36.9806Z" fill="#E0E0E0"/>
<path d="M124.071 36.9186C124.095 36.8995 124.378 37.1287 124.814 37.5144C125.251 37.9003 125.841 38.442 126.483 39.0495C127.125 39.6573 127.697 40.2155 128.102 40.6273C128.508 41.039 128.748 41.3044 128.726 41.3253C128.703 41.3462 128.422 41.1184 127.986 40.7328C127.549 40.3469 126.957 39.8037 126.314 39.1941C125.671 38.5848 125.098 38.0252 124.692 37.6134C124.285 37.2016 124.047 36.9377 124.071 36.9186Z" fill="#E0E0E0"/>
<path d="M124 11.706C123.98 11.6834 124.226 11.42 124.639 11.0132C125.053 10.6062 125.634 10.0554 126.285 9.45693C126.937 8.85822 127.536 8.32505 127.977 7.94648C128.419 7.56821 128.703 7.34424 128.726 7.36511C128.748 7.38598 128.504 7.64815 128.09 8.05494C127.677 8.46202 127.094 9.014 126.44 9.61447C125.787 10.2147 125.187 10.7487 124.745 11.1273C124.304 11.5058 124.021 11.7286 124 11.706Z" fill="#E0E0E0"/>
<path d="M98.1041 11.7677C98.0799 11.7868 97.7975 11.5576 97.3613 11.1716C96.9248 10.786 96.3342 10.244 95.6925 9.63651C95.0505 9.02869 94.4788 8.47053 94.0732 8.05875C93.6673 7.64697 93.4274 7.38156 93.4498 7.3607C93.4722 7.33983 93.753 7.56761 94.1895 7.95324C94.626 8.33886 95.2182 8.88231 95.8614 9.4919C96.505 10.1012 97.078 10.6608 97.4836 11.0726C97.8898 11.4847 98.1284 11.7486 98.1041 11.7677Z" fill="#E0E0E0"/>
<path d="M124 36.8134C123.998 36.8116 123.996 36.7705 123.995 36.6911C123.993 36.6053 123.991 36.4895 123.989 36.3399C123.986 36.0242 123.982 35.5704 123.977 34.9808C123.971 33.7884 123.962 32.0531 123.951 29.8501C123.939 25.4411 123.921 19.1597 123.9 11.6389L124 11.7321C116.462 11.7362 107.609 11.7409 98.1779 11.7459H98.1754L98.2901 11.6389C98.2841 20.8789 98.2784 29.5233 98.274 36.8134L98.1754 36.7217C105.914 36.7411 112.357 36.7572 116.874 36.7684C119.131 36.7787 120.907 36.7869 122.127 36.7922C122.729 36.7969 123.193 36.8005 123.516 36.8028C123.669 36.8052 123.787 36.8066 123.875 36.8081C123.956 36.8102 123.998 36.8119 124 36.8134C124.002 36.8152 123.964 36.8169 123.886 36.8187C123.801 36.8199 123.686 36.8216 123.538 36.824C123.219 36.8263 122.761 36.8298 122.167 36.8345C120.952 36.8401 119.184 36.8484 116.937 36.8586C112.404 36.8698 105.94 36.8863 98.1751 36.9057L98.0767 36.906V36.8137C98.072 29.5236 98.0663 20.8794 98.0607 11.6392V11.5322H98.1754H98.1779C107.609 11.5372 116.462 11.5419 124 11.546H124.1L124.1 11.6392C124.079 19.1847 124.062 25.4863 124.049 29.9098C124.038 32.1039 124.029 33.8319 124.023 35.0196C124.018 35.6013 124.014 36.0492 124.012 36.3608C124.009 36.5062 124.007 36.6185 124.006 36.702C124.004 36.7778 124.002 36.8154 124 36.8134Z" fill="#E0E0E0"/>
<path d="M115.444 20.1968H106.803V28.2552H115.444V20.1968Z" fill="#EBEBEB"/>
<path d="M137.263 98.048C139.194 97.1189 141.467 96.9981 143.611 97.3285C144.762 97.506 145.963 97.8273 146.747 98.6341C147.53 99.4409 147.678 100.861 146.779 101.554C146.243 101.966 145.496 102.029 144.802 102.022C143.124 102.003 141.262 101.728 139.921 102.669C139.156 103.207 138.647 104.1 137.733 104.364C136.838 104.622 135.828 104.13 135.354 103.377C134.88 102.624 134.864 101.682 135.085 100.834C135.085 100.834 135.318 98.9839 137.263 98.048Z" fill="#EBEBEB"/>
<path d="M132.84 90.0846C134.02 91.6571 136.315 91.1366 137.379 90.1766C138.443 89.2167 138.893 87.8256 139.302 86.4988C140.237 83.4676 141.18 80.2877 140.484 77.201C140.276 76.2781 139.906 75.3578 139.211 74.6733C138.516 73.9887 137.447 73.5814 136.469 73.8221C135.312 74.1072 134.593 75.1638 134.073 76.1693C132.545 79.1244 131.736 82.4004 131.724 85.6808C131.719 87.213 131.913 88.8199 132.84 90.0846Z" fill="#EBEBEB"/>
<path d="M129.345 96.8964C130.627 95.4777 130.87 93.4082 130.3 91.6309C129.73 89.8533 128.441 88.3413 126.956 87.1069C125.214 85.6596 123.167 84.5333 120.967 83.8117C120.101 83.5278 119.188 83.3038 118.274 83.385C117.361 83.4664 116.44 83.902 116.014 84.6603C115.384 85.7813 115.988 87.141 116.642 88.2502C117.793 90.2045 119.11 92.0741 120.575 93.8361C121.754 95.2537 123.104 96.6519 124.901 97.2923C126.698 97.9328 128.564 97.8575 129.517 96.6954" fill="#EBEBEB"/>
<path d="M132.759 113.806C132.782 113.808 132.817 113.553 132.866 113.092C132.921 112.572 132.989 111.919 133.07 111.142C133.167 110.321 133.296 109.345 133.54 108.281C133.784 107.221 134.165 106.071 134.655 104.905C135.162 103.746 135.781 102.693 136.503 101.851C137.221 101.004 138.056 100.392 138.84 100.039C139.622 99.6783 140.324 99.5322 140.808 99.467C141.297 99.4203 141.571 99.3844 141.571 99.3641C141.572 99.3438 141.297 99.3406 140.795 99.353C140.298 99.3838 139.567 99.5014 138.743 99.8509C137.916 100.193 137.031 100.815 136.278 101.679C135.519 102.539 134.878 103.615 134.361 104.795C133.863 105.981 133.487 107.142 133.255 108.226C133.022 109.308 132.916 110.295 132.847 111.123C132.78 111.951 132.755 112.621 132.743 113.085C132.732 113.548 132.738 113.805 132.759 113.806Z" fill="#E0E0E0"/>
<path d="M132.904 112.306C132.914 112.305 132.921 112.191 132.924 111.974C132.923 111.725 132.922 111.411 132.921 111.026C132.919 110.203 132.919 109.012 132.966 107.542C133.044 104.601 133.316 101.436 133.84 96.9734C134.337 92.7774 135.003 87.8945 135.707 84.7196C135.858 83.9974 136.01 83.3476 136.153 82.7788C136.289 82.2086 136.406 81.7169 136.518 81.3192C136.615 80.9448 136.693 80.6397 136.756 80.3975C136.807 80.1859 136.828 80.0733 136.818 80.0704C136.807 80.0674 136.765 80.1747 136.694 80.3813C136.617 80.62 136.519 80.9207 136.399 81.2898C136.268 81.684 136.134 82.1725 135.981 82.7403C135.821 83.307 135.654 83.9551 135.489 84.6761C134.793 87.5527 134.055 91.5735 133.526 96.0463C133.001 100.518 132.764 104.589 132.743 107.537C132.724 109.011 132.758 110.205 132.798 111.028C132.823 111.413 132.844 111.727 132.86 111.976C132.878 112.193 132.893 112.306 132.904 112.306Z" fill="#E0E0E0"/>
<path d="M132.673 109.009C132.695 109.008 132.691 108.656 132.665 108.019C132.626 107.382 132.532 106.462 132.34 105.335C132.136 104.211 131.851 102.876 131.404 101.425C131.21 100.762 130.754 99.1734 129.651 96.7991C128.197 93.5821 126.221 90.9519 124.503 89.323C124.099 88.8906 123.65 88.5788 123.291 88.2731C123.105 88.1267 122.941 87.9803 122.774 87.8648C122.606 87.7567 122.449 87.6561 122.304 87.5627C121.738 87.202 121.422 87.0116 121.41 87.0289C121.359 87.0933 122.677 87.8163 124.341 89.4673C125.998 91.1144 127.918 93.7265 129.36 96.9164C130.164 98.6467 130.725 100.19 131.123 101.5C131.583 102.936 131.888 104.258 132.119 105.371C132.338 106.486 132.466 107.397 132.542 108.028C132.605 108.66 132.651 109.01 132.673 109.009Z" fill="#E0E0E0"/>
<path d="M124.786 118.305L125.63 129.085H140.48L141.323 118.305H124.786Z" fill="#E0E0E0"/>
<path d="M143.095 114.056H123.352V118.305H143.095V114.056Z" fill="#E0E0E0"/>
<path d="M123.352 128.673V129.851H124.279H142.769V128.673H123.352Z" fill="#EBEBEB"/>
<path d="M125.189 131.923L124.279 129.85H142.062L141.001 131.923H125.189Z" fill="#E0E0E0"/>
<path d="M141.048 121.828C141.051 121.831 141.028 121.864 140.978 121.927C140.919 122 140.846 122.09 140.757 122.202C140.546 122.453 140.256 122.799 139.891 123.234L139.853 123.28L139.816 123.232C139.272 122.531 138.546 121.594 137.691 120.491H137.813C137.181 121.325 136.477 122.255 135.721 123.254L135.655 123.34L135.582 123.259C134.809 122.402 133.971 121.472 133.1 120.506L133.243 120.504C133.2 120.554 133.153 120.609 133.107 120.664C132.337 121.563 131.592 122.434 130.888 123.258L130.814 123.344L130.745 123.254C129.992 122.26 129.288 121.332 128.652 120.492L128.774 120.497C127.742 121.594 126.867 122.523 126.196 123.237L126.15 123.285L126.115 123.231C125.775 122.698 125.504 122.274 125.308 121.966C125.223 121.829 125.155 121.718 125.101 121.629C125.055 121.552 125.034 121.511 125.037 121.509C125.041 121.507 125.071 121.543 125.124 121.616C125.184 121.701 125.26 121.808 125.353 121.94C125.559 122.242 125.844 122.659 126.2 123.182L126.12 123.176C126.781 122.453 127.641 121.512 128.656 120.403L128.72 120.333L128.778 120.408C129.42 121.244 130.13 122.169 130.891 123.158L130.749 123.155C131.451 122.33 132.194 121.458 132.962 120.556C133.009 120.501 133.056 120.447 133.099 120.397L133.169 120.314L133.242 120.395C134.11 121.363 134.946 122.295 135.716 123.154L135.577 123.159C136.341 122.165 137.052 121.24 137.691 120.41L137.753 120.329L137.813 120.41C138.65 121.525 139.361 122.472 139.894 123.181L139.818 123.179C140.197 122.755 140.498 122.418 140.718 122.173C140.815 122.067 140.895 121.982 140.959 121.913C141.014 121.854 141.044 121.826 141.048 121.828Z" fill="#F5F5F5"/>
<path d="M141.53 118.234C141.53 118.282 137.809 118.32 133.22 118.32C128.63 118.32 124.91 118.282 124.91 118.234C124.91 118.186 128.63 118.148 133.22 118.148C137.809 118.148 141.53 118.186 141.53 118.234Z" fill="#F5F5F5"/>
<path d="M142.28 129.966C142.28 130.014 138.236 130.053 133.249 130.053C128.26 130.053 124.217 130.014 124.217 129.966C124.217 129.919 128.26 129.88 133.249 129.88C138.236 129.88 142.28 129.919 142.28 129.966Z" fill="#F5F5F5"/>
<path d="M14.5989 119.029V131.83H34.6717H56.811V119.029H14.5989Z" fill="#F5F5F5"/>
<path d="M12.828 115.451V119.029H58.2869V115.451H34.6717H12.828Z" fill="#E0E0E0"/>
<path d="M35.5574 131.83H56.8111V119.029H58.287V115.451H34.6718V118.698L35.5574 131.83Z" fill="#E0E0E0"/>
<path d="M29.063 121.094H20.5026V123.021H29.063V121.094Z" fill="#E0E0E0"/>
<path d="M30.393 125.43H19.4011V129.499H30.393V125.43Z" fill="white"/>
<path d="M21.0931 102.667V115.467H41.1659H63.3053V102.667H21.0931Z" fill="#F5F5F5"/>
<path d="M19.3223 99.0874V102.666H64.7812V99.0874H41.166H19.3223Z" fill="#E0E0E0"/>
<path d="M42.0516 115.467H63.3053V102.666H64.7813V99.0874H41.166V102.335L42.0516 115.467Z" fill="#E0E0E0"/>
<path d="M35.5577 104.731H26.9972V106.658H35.5577V104.731Z" fill="#E0E0E0"/>
<path d="M36.8873 109.066H25.8953V113.135H36.8873V109.066Z" fill="white"/>
<path d="M152 131.924C152 131.966 119.986 132 80.5035 132C41.0074 132 9 131.966 9 131.924C9 131.881 41.0074 131.847 80.5035 131.847C119.986 131.847 152 131.881 152 131.924Z" fill="#263238"/>
<path d="M64.63 112L27.7463 111.979C23.3104 111.977 19.7156 108.594 19.7166 104.423L19.7339 17.4675C19.7348 13.2938 23.3343 9.91116 27.7728 9.91358L64.6564 9.93409C69.0924 9.93681 72.6868 13.3194 72.3805 17.4911L72.3631 104.446C72.6682 108.62 69.0687 112.003 64.63 112Z" fill="#263238"/>
<path d="M64.6769 12.4224L57.5258 12.4185C56.5668 12.4182 55.7889 13.1958 55.7892 14.1556L55.7886 15.3976C55.7886 16.3575 55.0108 17.1354 54.0521 17.1348L40.113 17.1269C39.1539 17.1266 38.3768 16.3478 38.3768 15.388L38.3771 14.146C38.3771 13.1861 37.5999 12.4076 36.6408 12.407L34.1258 12.4055L27.867 12.4019C24.7585 12.4003 22.2375 14.8119 22.2369 17.7881L22.2192 104.201C22.2186 107.176 24.7358 109.588 27.8427 109.59L64.6526 109.61C67.7608 109.612 70.2817 107.2 70.2827 104.224L70.3003 17.8107C70.301 14.8361 67.7838 12.4242 64.6769 12.4224Z" fill="#FF725E"/>
<path d="M66.78 22.3696C66.7803 22.3944 65.7879 22.4221 64.5641 22.4318C63.3397 22.4414 62.3472 22.4294 62.3469 22.4046C62.3466 22.3799 63.3387 22.3521 64.5632 22.3422C65.7873 22.3325 66.78 22.3449 66.78 22.3696Z" fill="white"/>
<path d="M66.7895 23.4563C66.7899 23.481 65.7974 23.5088 64.5736 23.5184C63.3492 23.5281 62.3568 23.516 62.3564 23.4913C62.3561 23.4665 63.3483 23.4388 64.5727 23.4291C65.7968 23.4195 66.7892 23.4315 66.7895 23.4563Z" fill="white"/>
<path d="M66.7989 24.542C66.7993 24.5667 65.8068 24.5945 64.583 24.6041C63.3586 24.6138 62.3662 24.6017 62.3658 24.577C62.3655 24.5522 63.3577 24.5245 64.5821 24.5145C65.8062 24.5049 66.7986 24.5172 66.7989 24.542Z" fill="white"/>
<path d="M26.4693 25.817C26.4709 25.8152 26.5027 25.8134 26.5616 25.8112C26.6341 25.8088 26.7186 25.8061 26.8179 25.8031C27.0596 25.7977 27.376 25.7904 27.7643 25.7817L27.7381 25.807C27.7347 25.6061 27.7312 25.3867 27.7271 25.1498C27.7284 25.0276 27.7161 24.9126 27.7287 24.7714C27.7542 24.6308 27.8853 24.5065 28.0464 24.492C28.1989 24.4893 28.3332 24.4826 28.4986 24.4899C28.6691 24.5098 28.8141 24.667 28.8091 24.8399C28.8125 25.1465 28.8163 25.4663 28.8204 25.7983L28.7766 25.7569C29.1598 25.7533 29.5592 25.7494 29.9708 25.7452L29.9254 25.7892C29.9213 25.3287 29.9165 24.8526 29.9121 24.3647C29.9112 24.2431 29.9099 24.1221 29.909 24.002C29.9084 23.89 29.8374 23.8152 29.741 23.7319C29.5642 23.5653 29.3902 23.4009 29.2191 23.2394C29.0483 23.078 28.8803 22.9193 28.7155 22.7636C28.6332 22.686 28.5519 22.6088 28.4715 22.5328C28.3877 22.4552 28.3218 22.3752 28.2244 22.3562C28.1302 22.3321 28.0262 22.3511 27.9506 22.4063C27.8784 22.4649 27.8012 22.5475 27.7284 22.6157C27.5815 22.7579 27.4384 22.8958 27.3001 23.0294C27.0306 23.2974 26.7498 23.5424 26.5459 23.7735C26.4598 23.9015 26.492 24.0578 26.4857 24.2002C26.4854 24.3417 26.485 24.4763 26.4847 24.603C26.4832 24.8499 26.4819 25.0665 26.4806 25.2518C26.4787 25.4175 26.4772 25.5545 26.4759 25.6667C26.4734 25.7633 26.4715 25.8149 26.4693 25.817C26.4671 25.8191 26.4642 25.772 26.4611 25.6794C26.4579 25.5689 26.4538 25.4341 26.4491 25.2708C26.4447 25.084 26.4397 24.8659 26.4337 24.6166C26.4311 24.4875 26.4286 24.3505 26.4258 24.2059C26.4245 24.1329 26.4233 24.0578 26.422 23.9811C26.4214 23.9 26.4431 23.8161 26.4879 23.7419C26.7088 23.4827 26.9723 23.2533 27.244 22.9775C27.3814 22.8426 27.5232 22.7035 27.6691 22.5605C27.7457 22.4887 27.8084 22.4169 27.8995 22.342C27.995 22.2717 28.1261 22.2464 28.2459 22.2769C28.3729 22.3037 28.4554 22.4033 28.5327 22.473C28.6137 22.5487 28.6953 22.6254 28.7779 22.7029C28.943 22.858 29.1116 23.0161 29.2831 23.177C29.4545 23.3384 29.6291 23.5023 29.8062 23.6685C29.8482 23.7111 29.8986 23.747 29.9396 23.8067C29.978 23.8638 30.0004 23.9311 30.0023 23.9995C30.0035 24.1202 30.0045 24.2419 30.0057 24.3641C30.0095 24.852 30.0133 25.3281 30.0171 25.7886L30.0174 25.8327L29.9717 25.833C29.5604 25.8354 29.1611 25.8378 28.7775 25.8402L28.7337 25.8405L28.7334 25.7989C28.7315 25.4669 28.73 25.1468 28.7281 24.8405C28.7331 24.7023 28.6209 24.5804 28.487 24.5629C28.3496 24.556 28.1876 24.5605 28.0539 24.5617C27.9257 24.572 27.8185 24.6706 27.7964 24.7841C27.7851 24.8991 27.7939 25.033 27.7914 25.1495C27.7914 25.3864 27.7917 25.6058 27.7917 25.8067V25.8324L27.7656 25.8321C27.3707 25.8293 27.0492 25.8272 26.803 25.8257C26.7057 25.8242 26.6234 25.8227 26.5525 25.8215C26.4958 25.8203 26.4677 25.8188 26.4693 25.817Z" fill="white"/>
<path d="M48.492 97.3544C52.2783 97.3544 55.3478 94.4156 55.3478 90.7905C55.3478 87.1653 52.2783 84.2266 48.492 84.2266C44.7057 84.2266 41.6362 87.1653 41.6362 90.7905C41.6362 94.4156 44.7057 97.3544 48.492 97.3544Z" fill="white"/>
<path d="M44.2871 92.3007L45.999 91.9151C46.2105 91.8674 46.3596 91.6869 46.3596 91.479V91.1411C46.3596 91.1411 46.2858 90.5674 46.8515 90.5315C47.2568 90.5059 49.8324 90.5315 49.8324 90.5315C49.8324 90.5315 50.51 90.5192 50.498 91.0303V91.5213C50.498 91.6902 50.6136 91.8393 50.7826 91.8885L52.6395 92.4259C52.8365 92.4829 53.0467 92.3876 53.1255 92.2056L53.3625 91.6577C53.406 91.5569 53.4274 91.4495 53.4214 91.3408C53.4101 91.1263 53.3234 90.7907 53.1025 90.5195C52.7344 90.0678 50.9991 88.9996 47.6892 89.1532C44.5376 89.2995 43.8502 90.5717 43.6696 90.8755C43.5571 91.0644 43.5234 91.527 43.6107 91.7231C43.6432 91.7956 43.6961 91.9172 43.7481 92.0367C43.836 92.2391 44.0642 92.3511 44.2871 92.3007Z" fill="#FF725E"/>
<g opacity="0.2">
<path d="M48.4919 74.3056C51.1143 74.3056 53.2402 72.2703 53.2402 69.7595C53.2402 67.2488 51.1143 65.2134 48.4919 65.2134C45.8695 65.2134 43.7437 67.2488 43.7437 69.7595C43.7437 72.2703 45.8695 74.3056 48.4919 74.3056Z" fill="white"/>
</g>
<path d="M47.1941 70.2943C47.4992 70.2943 47.7466 70.0574 47.7466 69.7653C47.7466 69.4732 47.4992 69.2363 47.1941 69.2363C46.889 69.2363 46.6416 69.4732 46.6416 69.7653C46.6416 70.0574 46.889 70.2943 47.1941 70.2943Z" fill="white"/>
<path d="M49.0444 69.7653C49.0444 70.0574 48.797 70.2943 48.4919 70.2943C48.1869 70.2943 47.9395 70.0574 47.9395 69.7653C47.9395 69.4732 48.1869 69.2363 48.4919 69.2363C48.797 69.2363 49.0444 69.4732 49.0444 69.7653Z" fill="white"/>
<path d="M50.3423 69.7653C50.3423 70.0574 50.0949 70.2943 49.7898 70.2943C49.4847 70.2943 49.2373 70.0574 49.2373 69.7653C49.2373 69.4732 49.4847 69.2363 49.7898 69.2363C50.0949 69.2363 50.3423 69.4732 50.3423 69.7653Z" fill="white"/>
<path d="M47.7466 68.5031C47.7466 68.7952 47.4992 69.0321 47.1941 69.0321C46.889 69.0321 46.6416 68.7952 46.6416 68.5031C46.6416 68.211 46.889 67.9741 47.1941 67.9741C47.4992 67.9741 47.7466 68.211 47.7466 68.5031Z" fill="white"/>
<path d="M49.0444 68.5031C49.0444 68.7952 48.797 69.0321 48.4919 69.0321C48.1869 69.0321 47.9395 68.7952 47.9395 68.5031C47.9395 68.211 48.1869 67.9741 48.4919 67.9741C48.797 67.9741 49.0444 68.211 49.0444 68.5031Z" fill="white"/>
<path d="M50.3423 68.5031C50.3423 68.7952 50.0949 69.0321 49.7898 69.0321C49.4847 69.0321 49.2373 68.7952 49.2373 68.5031C49.2373 68.211 49.4847 67.9741 49.7898 67.9741C50.0949 67.9741 50.3423 68.211 50.3423 68.5031Z" fill="white"/>
<path d="M47.7466 71.0143C47.7466 71.3064 47.4992 71.5433 47.1941 71.5433C46.889 71.5433 46.6416 71.3064 46.6416 71.0143C46.6416 70.7222 46.889 70.4854 47.1941 70.4854C47.4992 70.4854 47.7466 70.7222 47.7466 71.0143Z" fill="white"/>
<path d="M49.0444 71.0143C49.0444 71.3064 48.797 71.5433 48.4919 71.5433C48.1869 71.5433 47.9395 71.3064 47.9395 71.0143C47.9395 70.7222 48.1869 70.4854 48.4919 70.4854C48.797 70.4854 49.0444 70.7222 49.0444 71.0143Z" fill="white"/>
<path d="M50.3423 71.0143C50.3423 71.3064 50.0949 71.5433 49.7898 71.5433C49.4847 71.5433 49.2373 71.3064 49.2373 71.0143C49.2373 70.7222 49.4847 70.4854 49.7898 70.4854C50.0949 70.4854 50.3423 70.7222 50.3423 71.0143Z" fill="white"/>
<g opacity="0.2">
<path d="M34.8589 74.3056C37.4813 74.3056 39.6072 72.2703 39.6072 69.7595C39.6072 67.2488 37.4813 65.2134 34.8589 65.2134C32.2365 65.2134 30.1107 67.2488 30.1107 69.7595C30.1107 72.2703 32.2365 74.3056 34.8589 74.3056Z" fill="white"/>
</g>
<path d="M32.6298 69.1658V70.2427C32.6298 70.2883 32.6685 70.3254 32.7161 70.3254H33.3364C33.3556 70.3254 33.3745 70.3314 33.3896 70.3429L34.3569 71.0668C34.4136 71.1093 34.4965 71.0704 34.4965 71.0016V68.4862C34.4965 68.4189 34.4167 68.3797 34.3597 68.4189L33.4227 69.0638C33.4082 69.0737 33.3906 69.0792 33.3726 69.0792L32.7155 69.0828C32.6682 69.0831 32.6298 69.1202 32.6298 69.1658Z" fill="white"/>
<path d="M36.2948 71.5771C36.2689 71.5771 36.2428 71.5684 36.2223 71.5506C36.1775 71.5122 36.1737 71.4462 36.2138 71.4033C36.7546 70.8258 37.0108 70.2286 36.9758 69.629C36.9232 68.731 36.2295 68.1294 36.2226 68.1233C36.1775 68.085 36.1734 68.0192 36.2134 67.9764C36.2535 67.9335 36.3219 67.9293 36.3669 67.9679C36.3984 67.9948 37.1353 68.6339 37.193 69.6173C37.2314 70.2745 36.9566 70.9223 36.3758 71.5427C36.3543 71.5654 36.3247 71.5771 36.2948 71.5771Z" fill="white"/>
<path d="M35.6953 71.0689C35.6663 71.0689 35.6373 71.0578 35.6159 71.0361C35.5749 70.9941 35.5771 70.9283 35.6206 70.8888C36.0042 70.5445 36.1993 70.1694 36.1996 69.7738C36.2005 69.0949 35.6266 68.5696 35.6206 68.5644C35.5768 68.5249 35.5746 68.4591 35.6159 68.4172C35.6575 68.3752 35.7265 68.3731 35.7697 68.4124C35.7962 68.4359 36.4174 69.0023 36.4174 69.7723C36.4174 70.2283 36.1996 70.6549 35.7697 71.0406C35.7486 71.0596 35.7221 71.0689 35.6953 71.0689Z" fill="white"/>
<path d="M35.1646 70.544C35.1365 70.544 35.1085 70.5337 35.0873 70.5132C35.0451 70.4722 35.0454 70.4064 35.0883 70.3656C35.7568 69.7314 35.111 69.0138 35.0832 68.9836C35.0435 68.9405 35.048 68.8747 35.093 68.8367C35.1381 68.7987 35.2068 68.8026 35.2462 68.8454C35.2544 68.8545 36.0571 69.7398 35.2415 70.5138C35.22 70.534 35.1923 70.544 35.1646 70.544Z" fill="white"/>
<g opacity="0.2">
<path d="M60.9577 74.3056C63.5801 74.3056 65.706 72.2703 65.706 69.7595C65.706 67.2488 63.5801 65.2134 60.9577 65.2134C58.3353 65.2134 56.2095 67.2488 56.2095 69.7595C56.2095 72.2703 58.3353 74.3056 60.9577 74.3056Z" fill="white"/>
</g>
<path d="M60.9868 71.3318C60.9064 71.3318 60.8418 71.2697 60.8418 71.193V68.3258C60.8418 68.2489 60.9067 68.187 60.9868 68.187C61.0668 68.187 61.1317 68.2492 61.1317 68.3258V71.193C61.1321 71.2697 61.0671 71.3318 60.9868 71.3318Z" fill="white"/>
<path d="M62.41 69.8987H59.5054C59.4254 69.8987 59.3605 69.8365 59.3605 69.7599C59.3605 69.6833 59.4254 69.6211 59.5054 69.6211H62.41C62.4904 69.6211 62.555 69.6833 62.555 69.7599C62.5553 69.8365 62.4904 69.8987 62.41 69.8987Z" fill="white"/>
<path d="M42.5801 39.1052C43.8786 40.4462 44.5281 42.3746 44.5281 44.8915C44.5281 46.6745 44.1799 48.2026 43.484 49.4757C42.7875 50.749 41.8057 51.7152 40.5385 52.3743C39.2712 53.0336 37.8079 53.3628 36.1495 53.3628C35.273 53.3628 34.4363 53.2689 33.6383 53.0819C32.8403 52.8948 32.1595 52.6289 31.5963 52.2843L33.0045 49.6102C33.8025 50.1347 34.8271 50.3969 36.0789 50.3969C37.4713 50.3969 38.5744 50.0037 39.3881 49.2171C40.2016 48.4307 40.6396 47.2958 40.7024 45.8128C39.7165 46.7566 38.3553 47.2283 36.6188 47.2283C35.5702 47.2283 34.6159 47.0261 33.7555 46.6214C32.8948 46.2171 32.214 45.6441 31.7136 44.9024C31.2125 44.161 30.9625 43.3034 30.9625 42.3297C30.9625 41.2811 31.2361 40.3599 31.7842 39.5657C32.3316 38.7718 33.0785 38.1613 34.0256 37.7344C34.972 37.3074 36.0241 37.0938 37.1823 37.0938C39.482 37.0941 41.2813 37.7645 42.5801 39.1052ZM39.4937 43.8463C40.0178 43.4045 40.28 42.839 40.28 42.1495C40.28 41.4606 40.0254 40.8988 39.5173 40.4643C39.0087 40.0301 38.3087 39.8125 37.4168 39.8125C36.603 39.8125 35.9418 40.0225 35.4338 40.4416C34.9251 40.8611 34.6711 41.4302 34.6711 42.1492C34.6711 42.8683 34.9254 43.4413 35.4338 43.8683C35.9421 44.2953 36.6191 44.5086 37.4637 44.5086C38.2929 44.5092 38.9696 44.2883 39.4937 43.8463Z" fill="white"/>
<path d="M52.5548 37.3633V53.0928H48.7526V40.2845H45.467V37.3633H52.5548Z" fill="white"/>
<path d="M61.7547 37.3633V53.0928H57.9526V40.2845H54.667V37.3633H61.7547Z" fill="white"/>
<path d="M32.1898 59.4342V59.9653H30.1526V57.5356H32.1428V58.0667H30.863V58.4762H31.9903V58.9901H30.863V59.4342H32.1898Z" fill="white"/>
<path d="M34.8797 59.9656L34.8725 58.6778L34.2201 59.726H33.9011L33.2522 58.7125V59.9653H32.5888V57.5356H33.1797L34.0717 58.9379L34.9415 57.5356H35.5324L35.5397 59.9653L34.8797 59.9656Z" fill="white"/>
<path d="M38.0843 59.4342V59.9653H36.0471V57.5356H38.0374V58.0667H36.7575V58.4762H37.8848V58.9901H36.7575V59.4342H38.0843Z" fill="white"/>
<path d="M39.5923 59.3196H39.2009V59.9653H38.4833V57.5356H39.6434C39.8731 57.5356 40.0723 57.5722 40.2416 57.6449C40.4108 57.7179 40.5413 57.822 40.633 57.9572C40.7247 58.0927 40.7707 58.2517 40.7707 58.4343C40.7707 58.6102 40.7279 58.7635 40.6421 58.8941C40.5561 59.0248 40.4335 59.1271 40.274 59.2013L40.8215 59.9647H40.0531L39.5923 59.3196ZM39.933 58.1708C39.858 58.1084 39.7468 58.077 39.5993 58.077H39.2006V58.7885H39.5993C39.7468 58.7885 39.858 58.7577 39.933 58.6965C40.0077 58.6352 40.0452 58.5477 40.0452 58.4343C40.0455 58.3214 40.0077 58.2333 39.933 58.1708Z" fill="white"/>
<path d="M42.8657 58.6983H43.5001V59.7047C43.3551 59.8042 43.1884 59.8806 42.9999 59.9337C42.8115 59.9868 42.623 60.0137 42.4345 60.0137C42.1685 60.0137 41.9293 59.9599 41.7169 59.8522C41.5042 59.7448 41.3375 59.5948 41.2167 59.4029C41.0957 59.2107 41.0355 58.9934 41.0355 58.7502C41.0355 58.5073 41.0957 58.2898 41.2167 58.0976C41.3375 57.9056 41.5054 57.7557 41.7207 57.6483C41.9359 57.5405 42.1786 57.4868 42.4493 57.4868C42.686 57.4868 42.8988 57.5251 43.0876 57.6015C43.276 57.6778 43.4333 57.7877 43.5587 57.9313L43.1021 58.3269C42.9303 58.1464 42.7251 58.0562 42.4859 58.0562C42.2684 58.0562 42.0929 58.1193 41.9602 58.2454C41.8272 58.3715 41.7607 58.5399 41.7607 58.7502C41.7607 58.8845 41.791 59.0043 41.8515 59.1093C41.912 59.2146 41.9965 59.2967 42.1052 59.3558C42.2139 59.4147 42.3384 59.4443 42.4787 59.4443C42.6164 59.4443 42.7456 59.4177 42.8663 59.3646V58.6983H42.8657Z" fill="white"/>
<path d="M45.9943 59.4342V59.9653H43.957V57.5356H45.9473V58.0667H44.6677V58.4762H45.7951V58.9901H44.6677V59.4342H45.9943Z" fill="white"/>
<path d="M48.8071 57.5356V59.9653H48.2162L47.0961 58.6708V59.9653H46.3929V57.5356H46.9839L48.104 58.8304V57.5356H48.8071Z" fill="white"/>
<path d="M49.8639 59.8522C49.6524 59.7448 49.4863 59.5948 49.3653 59.4029C49.2443 59.2107 49.1841 58.9934 49.1841 58.7502C49.1841 58.5073 49.2443 58.2898 49.3653 58.0976C49.486 57.9056 49.6521 57.7557 49.8639 57.6483C50.0754 57.5405 50.3139 57.4868 50.5799 57.4868C50.8119 57.4868 51.0209 57.5263 51.2071 57.6048C51.3931 57.6836 51.5478 57.797 51.671 57.9449L51.2144 58.3405C51.0502 58.151 50.8507 58.0559 50.6162 58.0559C50.4785 58.0559 50.3555 58.0849 50.2484 58.1428C50.1409 58.2004 50.0574 58.2822 49.9981 58.3875C49.9389 58.4928 49.9093 58.6138 49.9093 58.7502C49.9093 58.8869 49.9389 59.0076 49.9981 59.1129C50.0574 59.2182 50.1409 59.2997 50.2484 59.3577C50.3559 59.4153 50.4785 59.4443 50.6162 59.4443C50.8507 59.4443 51.0502 59.3495 51.2144 59.1597L51.671 59.5553C51.5478 59.7035 51.3931 59.8169 51.2071 59.8954C51.0209 59.9741 50.8119 60.0134 50.5799 60.0134C50.3143 60.0137 50.0754 59.9599 49.8639 59.8522Z" fill="white"/>
<path d="M53.3386 59.0944V59.9655H52.6209V59.0841L51.6531 57.5361H52.4107L53.0127 58.5011L53.6143 57.5361H54.3102L53.3386 59.0944Z" fill="white"/>
<path d="M56.0953 59.8522C55.8838 59.7448 55.7177 59.5948 55.597 59.4029C55.476 59.2107 55.4158 58.9934 55.4158 58.7502C55.4158 58.5073 55.476 58.2898 55.597 58.0976C55.7177 57.9056 55.8838 57.7557 56.0953 57.6483C56.3067 57.5405 56.5453 57.4868 56.811 57.4868C57.043 57.4868 57.2519 57.5263 57.4382 57.6048C57.6241 57.6836 57.7789 57.797 57.9021 57.9449L57.4454 58.3405C57.2812 58.151 57.0817 58.0559 56.8472 58.0559C56.7095 58.0559 56.5866 58.0849 56.4795 58.1428C56.372 58.2004 56.2885 58.2822 56.2292 58.3875C56.17 58.4928 56.1403 58.6138 56.1403 58.7502C56.1403 58.8869 56.17 59.0076 56.2292 59.1129C56.2885 59.2182 56.372 59.2997 56.4795 59.3577C56.5869 59.4153 56.7095 59.4443 56.8472 59.4443C57.0817 59.4443 57.2809 59.3495 57.4454 59.1597L57.9021 59.5553C57.7789 59.7035 57.6241 59.8169 57.4382 59.8954C57.2519 59.9741 57.043 60.0134 56.811 60.0134C56.5456 60.0137 56.3067 59.9599 56.0953 59.8522Z" fill="white"/>
<path d="M59.8783 59.4934H58.8052L58.606 59.9653H57.8735L58.9936 57.5356H59.7005L60.8241 59.9653H60.0775L59.8783 59.4934ZM59.6681 58.9868L59.3419 58.2091L59.0157 58.9868H59.6681Z" fill="white"/>
<path d="M61.0273 57.5356H61.745V59.4204H62.9558V59.9653H61.0273V57.5356Z" fill="white"/>
<path d="M63.2385 57.5356H63.9562V59.4204H65.167V59.9653H63.2385V57.5356Z" fill="white"/>
<path d="M129.367 19.987L122.974 15.6188L122.157 22.8186L114.032 23.6116L120.272 29.4318L115.495 33.678L122.262 34.1418L123.048 39.8062L128.402 35.5876L135.657 39.8062L137.684 32.8251L145.694 31.7758L138.674 27.1175L142.459 20.9158L136.363 22.2161L134.649 14.5889L129.367 19.987Z" fill="white"/>
<path d="M129.367 19.9868C129.367 19.9868 129.484 19.8592 129.714 19.6202C129.946 19.3798 130.287 19.0274 130.732 18.5671C131.626 17.6463 132.938 16.2954 134.62 14.5634L134.672 14.5093L134.688 14.5807C135.163 16.6725 135.747 19.2505 136.417 22.205L136.351 22.1653C138.204 21.7676 140.259 21.3267 142.445 20.8576L142.586 20.8274L142.515 20.9443C141.346 22.8628 140.074 24.951 138.735 27.1493L138.715 27.0631C140.937 28.5354 143.289 30.0943 145.738 31.7171L145.894 31.8205L145.705 31.8455C143.154 32.1806 140.462 32.5345 137.695 32.898L137.761 32.8439C137.115 35.0698 136.432 37.4241 135.736 39.8254L135.707 39.9245L135.614 39.8701C133.827 38.8314 131.935 37.7309 130.018 36.6167C129.463 36.294 128.91 35.9721 128.359 35.6521L128.456 35.6456C126.641 37.0746 124.854 38.4825 123.1 39.8633L122.987 39.953L122.968 39.8151C122.701 37.8908 122.44 36.0012 122.183 34.1504L122.256 34.2148C119.939 34.0549 117.682 33.8994 115.49 33.7483L115.318 33.7366L115.443 33.6255C117.089 32.1644 118.685 30.7477 120.223 29.3822L120.222 29.4792C118.01 27.4132 115.927 25.4672 113.986 23.654L113.89 23.564L114.025 23.5508C116.996 23.2645 119.706 23.0032 122.152 22.7675L122.103 22.8128C122.429 19.9973 122.705 17.6048 122.935 15.6144L122.943 15.55L122.998 15.5885C125.058 17.0073 126.648 18.1021 127.727 18.8449C128.264 19.2167 128.673 19.4997 128.951 19.6925C129.226 19.8842 129.367 19.9868 129.367 19.9868C129.367 19.9868 129.227 19.8974 128.951 19.7122C128.672 19.5238 128.261 19.247 127.722 18.8837C126.634 18.1456 125.03 17.0578 122.95 15.6485L123.013 15.6223C122.792 17.6136 122.525 20.007 122.211 22.8237L122.207 22.8645L122.163 22.8689C119.717 23.1105 117.008 23.378 114.038 23.6713L114.077 23.5685C116.022 25.3787 118.108 27.3212 120.324 29.3836L120.376 29.4327L120.322 29.4806C118.786 30.8479 117.192 32.2664 115.548 33.7295L115.501 33.6064C117.693 33.7557 119.95 33.9097 122.267 34.0675L122.332 34.0719L122.34 34.1319C122.597 35.9824 122.86 37.872 123.128 39.796L122.995 39.7478C124.748 38.3664 126.535 36.9582 128.349 35.5286L128.395 35.4927L128.445 35.5221C128.996 35.8422 129.549 36.1638 130.104 36.4868C132.021 37.6016 133.913 38.702 135.699 39.7411L135.577 39.7857C136.275 37.3847 136.959 35.0304 137.606 32.8052L137.62 32.7578L137.672 32.7511C140.439 32.3895 143.132 32.038 145.683 31.7047L145.649 31.8332C143.203 30.2075 140.852 28.6456 138.632 27.1707L138.58 27.136L138.612 27.0843C139.955 24.8884 141.231 22.8025 142.404 20.8861L142.473 20.9731C140.286 21.4369 138.23 21.8731 136.375 22.2661L136.32 22.2779L136.309 22.2264C135.651 19.2696 135.076 16.6896 134.61 14.5963L134.679 14.6136C132.976 16.3404 131.649 17.6868 130.743 18.6047C130.295 19.0574 129.951 19.4036 129.717 19.6399C129.486 19.8724 129.367 19.9868 129.367 19.9868Z" fill="#263238"/>
<path d="M128.349 22.6433L127.926 28.3506C127.891 28.8173 127.489 29.1868 126.988 29.2118C126.459 29.2382 126.002 28.8738 125.947 28.3829L125.303 22.6409C125.254 22.2062 125.625 21.8297 126.094 21.8385L127.587 21.8662C128.032 21.8744 128.379 22.2289 128.349 22.6433Z" fill="#FF725E"/>
<path d="M125.404 31.8784C125.659 32.6103 126.502 33.0103 127.287 32.7722C128.072 32.5339 128.501 31.7476 128.245 31.0158C127.99 30.2839 127.147 29.8839 126.362 30.122C125.577 30.3603 125.148 31.1466 125.404 31.8784Z" fill="#FF725E"/>
<path d="M133.409 22.6433L132.986 28.3506C132.951 28.8173 132.549 29.1868 132.048 29.2118C131.52 29.2382 131.062 28.8738 131.007 28.3829L130.363 22.6409C130.314 22.2062 130.685 21.8297 131.154 21.8385L132.647 21.8662C133.092 21.8744 133.44 22.2289 133.409 22.6433Z" fill="#FF725E"/>
<path d="M130.464 31.8784C130.72 32.6103 131.563 33.0103 132.347 32.7722C133.132 32.5339 133.561 31.7476 133.306 31.0158C133.051 30.2839 132.207 29.8839 131.422 30.122C130.638 30.3603 130.208 31.1466 130.464 31.8784Z" fill="#FF725E"/>
<path d="M125.237 94.1494C125.218 93.5943 124.86 93.1036 124.364 92.7971C116.612 88.008 110.77 77.3937 110.181 68.4082C110.165 67.8964 110.148 67.3771 110.13 66.8538C110.13 66.8517 110.13 66.8494 110.13 66.8473C109.646 53.3363 107.62 37.7849 105.835 34.2631C102.037 26.7711 91.0905 25.8707 91.0905 25.8707C75.9787 24.8614 73.28 35.6996 71.7546 45.5717C70.806 51.7104 67.151 73.6406 67.151 73.6406L69.9285 74.6438C73.2009 83.6945 80.5694 91.0141 90.1466 94.3803C92.9324 95.3596 95.291 95.7523 96.3979 94.9104C100.798 99.0732 106.305 102.219 112.3 103.921C114.741 104.615 117.299 105.078 119.839 104.856C121.488 104.712 123.228 104.203 124.211 102.959C125.058 101.887 125.174 100.354 124.498 99.1815C123.821 98.0086 122.386 97.2559 120.961 97.3262C121.532 95.592 125.301 96.1021 125.237 94.1494Z" fill="#263238"/>
<path d="M96.4908 67.4721C96.4908 67.4721 102.013 65.2573 104.866 64.7549C107.719 64.2521 127.65 59.4568 127.65 59.4568L107.078 43.002L111.616 37.8481C111.616 37.8481 126.897 46.3591 137.761 53.1421C137.761 53.1421 137.839 53.1801 137.964 53.2719C144.143 57.8103 141.979 65.72 135.637 69.4339C132.478 71.2834 118.632 76.8585 115.947 78.0793C110.585 80.5166 110.669 80.4354 110.669 80.4354L96.4908 67.4721Z" fill="#FFBF9D"/>
<path d="M93.1007 29.8606L92.1552 29.0195L81.9386 32.8629C80.4604 32.9391 79.2906 34.0587 79.2455 35.4398L79.3353 66.5111C79.3224 68.6183 79.7746 70.443 81.1377 72.1224L82.5727 73.8907C85.8444 77.9223 92.5744 77.5905 95.1647 73.1485C95.3456 72.8382 95.4714 72.5658 95.5259 72.3448C95.5807 72.068 95.6614 71.8856 95.6778 71.65C95.982 69.1501 95.9993 66.9827 95.9993 66.9827C96.1815 64.2381 96.2413 63.112 96.242 63.1376C96.242 63.1376 102.5 62.466 104.191 54.9687C105.033 51.2401 104.874 46.1103 104.638 41.0617C104.31 34.0746 99.1175 29.8535 93.1007 29.8606Z" fill="#FFBF9D"/>
<path d="M92.4688 46.0462C92.4606 46.5589 91.9888 46.9755 91.4149 46.9772C90.8422 46.9793 90.3833 46.5663 90.3912 46.0532C90.3994 45.5405 90.8715 45.1236 91.4439 45.1216C92.0181 45.1195 92.477 45.5334 92.4688 46.0462Z" fill="#263238"/>
<path d="M102.606 46.3157C102.598 46.8284 102.126 47.245 101.552 47.2468C100.98 47.2488 100.521 46.8358 100.529 46.3228C100.537 45.81 101.009 45.3932 101.581 45.3911C102.156 45.3891 102.615 45.803 102.606 46.3157Z" fill="#263238"/>
<path d="M103.569 43.0587C103.433 43.179 102.675 42.5989 101.558 42.5492C100.442 42.4848 99.5934 42.9831 99.479 42.8496C99.4223 42.7902 99.566 42.5684 99.9357 42.3421C100.3 42.1171 100.912 41.9103 101.608 41.9453C102.304 41.9815 102.877 42.2483 103.2 42.5086C103.531 42.771 103.635 43.0052 103.569 43.0587Z" fill="#263238"/>
<path d="M92.2286 43.1667C92.0802 43.2735 91.3897 42.6237 90.2841 42.4675C89.1816 42.2963 88.2822 42.7105 88.1832 42.5669C88.1337 42.5025 88.2995 42.2951 88.6938 42.1062C89.0811 41.9171 89.7127 41.77 90.401 41.8715C91.0893 41.9742 91.6292 42.2945 91.9226 42.5846C92.2217 42.8767 92.3002 43.1197 92.2286 43.1667Z" fill="#263238"/>
<path d="M96.1325 50.759C96.1303 50.6996 96.8309 50.6202 97.9639 50.5384C98.2507 50.5243 98.5237 50.484 98.5813 50.3045C98.6589 50.1151 98.5552 49.8227 98.4332 49.5061C98.1994 48.849 97.9551 48.1603 97.6982 47.4387C96.6815 44.4964 95.9607 42.0824 96.0881 42.0454C96.2154 42.008 97.1432 44.3628 98.1596 47.3052C98.4033 48.0303 98.6368 48.7216 98.8584 49.3829C98.9501 49.6906 99.1174 50.0427 98.9501 50.4351C98.8625 50.6308 98.6453 50.7652 98.46 50.8026C98.2744 50.8461 98.1136 50.8414 97.9721 50.8426C96.8366 50.8467 96.1335 50.8184 96.1325 50.759Z" fill="#263238"/>
<path d="M96.2416 63.1372C96.2416 63.1372 90.777 63.2102 85.5427 59.9302C85.5427 59.9302 87.9884 65.2894 96.1303 64.9614L96.2416 63.1372Z" fill="#FF9A6C"/>
<path d="M88.2856 39.1047C88.3253 38.8049 89.4464 38.7034 90.6903 38.2863C91.9441 37.8921 92.8899 37.3223 93.1206 37.5341C93.2255 37.6367 93.1095 37.9353 92.7581 38.2924C92.4102 38.6484 91.8126 39.0438 91.0641 39.2876C90.3153 39.5303 89.5838 39.5668 89.0745 39.4894C88.5614 39.4126 88.2718 39.2459 88.2856 39.1047Z" fill="#263238"/>
<path d="M102.817 39.0944C102.607 39.3221 101.851 39.0403 100.926 38.9853C100.003 38.9003 99.2073 39.0644 99.0406 38.8082C98.9678 38.6841 99.1042 38.4529 99.4585 38.2443C99.808 38.0366 100.383 37.8804 101.018 37.928C101.653 37.9769 102.192 38.2169 102.501 38.4749C102.815 38.7338 102.91 38.9827 102.817 39.0944Z" fill="#263238"/>
<path d="M79.4494 48.6999C79.4494 48.6999 85.1725 50.3626 88.4111 37.1784C89.5186 32.6702 93.9961 29.0196 93.9961 29.0196L92.1801 28.5098C92.1801 28.5098 80.8941 31.4774 80.7044 31.6103C80.5146 31.7433 77.8572 37.0587 77.8572 37.0587L79.4494 48.6999Z" fill="#263238"/>
<path d="M80.8597 48.2087C80.8884 47.6459 80.2628 46.2863 79.6718 46.1718C78.0941 45.8659 75.2214 45.8512 74.9923 49.6192C74.679 54.7705 80.2845 54.0012 80.3031 53.8541C80.3179 53.7391 80.7601 50.1523 80.8597 48.2087Z" fill="#FFBF9D"/>
<path d="M78.7358 51.8137C78.7125 51.7957 78.6359 51.8713 78.4692 51.9322C78.3065 51.9914 78.0311 52.024 77.7496 51.9078C77.1789 51.6772 76.7405 50.7873 76.7701 49.8574C76.7843 49.3877 76.9167 48.947 77.1171 48.5866C77.3084 48.2189 77.5855 47.9692 77.8823 47.9365C78.178 47.8888 78.3759 48.0639 78.4348 48.2121C78.5001 48.3604 78.4588 48.4613 78.4874 48.4713C78.5019 48.4851 78.611 48.3916 78.5795 48.1766C78.5628 48.0727 78.5057 47.948 78.3819 47.8421C78.2558 47.7347 78.0642 47.6729 77.8581 47.6826C77.4307 47.6876 77.0257 48.033 76.8054 48.4284C76.5618 48.8243 76.4011 49.3191 76.385 49.8466C76.3573 50.8865 76.8672 51.8878 77.6523 52.1455C78.0346 52.2605 78.3652 52.1685 78.5398 52.0558C78.7185 51.9378 78.7544 51.824 78.7358 51.8137Z" fill="#FF9A6C"/>
<path d="M83.3309 46.1792C83.3287 46.1621 83.6354 46.161 84.1579 46.0236C84.6773 45.888 85.4072 45.5711 86.1233 44.959C86.4791 44.6533 86.8299 44.278 87.1482 43.8382C87.4609 43.3949 87.7417 42.8877 87.9821 42.3326C88.471 41.223 88.7839 39.9295 89.1709 38.5866C89.5586 37.2431 89.979 35.9741 90.4404 34.8459C90.8958 33.716 91.4007 32.732 91.8785 31.9357C92.3582 31.1397 92.8098 30.5307 93.1426 30.1257C93.3056 29.9209 93.4477 29.7729 93.5382 29.6688C93.6308 29.5661 93.6816 29.5138 93.6853 29.5167C93.6891 29.5197 93.6463 29.5779 93.5612 29.6859C93.4783 29.7953 93.3437 29.9483 93.1887 30.1571C92.8713 30.5704 92.4351 31.1844 91.9696 31.9825C91.506 32.7808 91.0134 33.7631 90.5671 34.8904C90.1148 36.0159 89.6998 37.2811 89.3131 38.6219C88.927 39.9607 88.6087 41.2601 88.1076 42.3803C87.8608 42.9404 87.5724 43.4528 87.2494 43.9014C86.9207 44.3462 86.5595 44.7242 86.1929 45.0305C85.4558 45.6438 84.7044 45.953 84.1734 46.0745C83.6382 46.1983 83.3309 46.1792 83.3309 46.1792Z" fill="#263238"/>
<path d="M75.7881 68.1581C75.7818 68.159 75.7619 68.0743 75.7282 67.9093C75.6938 67.7281 75.6475 67.4854 75.5889 67.1771C75.4713 66.5158 75.3043 65.5747 75.0925 64.3804L75.2258 64.3624C75.2539 64.5495 75.2848 64.7566 75.3166 64.9708L75.3106 64.9517C75.3453 65.0211 75.3856 65.1014 75.4263 65.1829L75.2879 65.2305C74.6343 63.1228 73.9173 60.2888 73.5183 56.9381C73.3121 55.2646 73.1952 53.4634 73.181 51.5739C73.2006 49.6912 73.1861 47.6911 73.7266 45.6934C73.9491 44.868 74.2885 44.0764 74.7304 43.3551C75.1716 42.6335 75.6982 41.9772 76.2564 41.3715C77.3787 40.1609 78.5877 39.1207 79.6917 38.0873C81.919 36.0419 83.9259 34.199 85.6168 32.6463C87.2997 31.1131 88.666 29.8679 89.6266 28.9927C90.0934 28.5744 90.4608 28.2452 90.7259 28.0078C90.8447 27.9046 90.9402 27.8219 91.0162 27.756C91.0827 27.7001 91.118 27.6731 91.1211 27.676C91.1243 27.6789 91.0946 27.7119 91.0341 27.7731C90.9629 27.8434 90.8731 27.9316 90.7615 28.0417C90.5047 28.2867 90.1482 28.6265 89.6956 29.058C88.7482 29.9461 87.4012 31.2093 85.7422 32.7649C84.0624 34.3278 82.0683 36.1829 79.8549 38.2418C78.755 39.2793 77.5486 40.3254 76.4439 41.5218C75.3393 42.7126 74.3884 44.1223 73.9705 45.7526C73.4404 47.7064 73.4489 49.6983 73.4256 51.5733C73.4351 53.4543 73.5441 55.2478 73.7404 56.9155C74.1199 60.2543 74.8085 63.0831 75.4304 65.1932L75.292 65.2408C75.2526 65.1591 75.2135 65.0782 75.1801 65.0081L75.1754 64.9984L75.1741 64.9887C75.1458 64.7743 75.118 64.5666 75.0931 64.3792L75.2264 64.3613C75.4118 65.5594 75.5577 66.5037 75.6604 67.1671C75.7046 67.4774 75.7392 67.7219 75.7654 67.9043C75.7862 68.0708 75.7944 68.1573 75.7881 68.1581Z" fill="#455A64"/>
<path d="M71.4433 44.3437C71.4354 44.3399 71.4691 44.2652 71.54 44.1257C71.6264 43.9634 71.7326 43.7636 71.8618 43.5212C72.1414 42.9961 72.5829 42.2536 73.1615 41.3546C73.7367 40.4533 74.4751 39.4102 75.345 38.2847C76.2256 37.1671 77.2439 35.9716 78.3876 34.777C79.5389 33.5882 80.7044 32.516 81.8018 31.5799C82.9083 30.653 83.9411 29.8567 84.8403 29.2271C85.7366 28.5947 86.4804 28.1057 87.0102 27.7907C87.2547 27.6451 87.4561 27.5253 87.62 27.428C87.7609 27.3471 87.8372 27.3079 87.8419 27.3147C87.8466 27.3215 87.7798 27.3738 87.648 27.4671C87.4917 27.5742 87.2995 27.706 87.0659 27.866C86.5544 28.2037 85.8283 28.7117 84.9496 29.3586C84.0678 30.0026 83.0511 30.8086 81.9584 31.7399C80.8749 32.6807 79.7204 33.7518 78.5751 34.9343C77.4374 36.1228 76.4191 37.3077 75.5322 38.4129C74.6564 39.5258 73.9056 40.5548 73.3134 41.4417C72.7175 42.3263 72.2535 43.0541 71.9482 43.5648C71.8026 43.7986 71.6825 43.9913 71.5851 44.1475C71.4997 44.2799 71.4508 44.3475 71.4433 44.3437Z" fill="#455A64"/>
<path d="M79.0815 66.5118C79.0815 66.5118 79.073 66.5089 79.061 66.5049C79.0692 66.5077 79.0727 66.5089 79.0815 66.5118Z" fill="#455A64"/>
<path d="M79.061 66.5047C79.039 66.4979 79.0213 66.4923 79.0052 66.4873C79.0267 66.4941 79.0465 66.5002 79.061 66.5047Z" fill="#455A64"/>
<path d="M120.57 131.631L112.658 109.121L112.035 87.728C111.84 84.039 111.549 78.6448 111.549 78.6448C108.968 71.1081 100.76 64.7446 100.76 64.7446L96.1026 65.3942C95.9242 70.098 88.2332 74.3696 82.7021 71.252C80.6564 69.8815 79.0818 66.5111 79.0818 66.5111L69.6824 70.754L76.1369 113.814C76.1369 113.814 69.7716 124.9 69.7716 131.631H120.57V131.631Z" fill="#455A64"/>
<path d="M79.0056 66.4875C78.9861 66.4816 78.9672 66.4757 78.9514 66.4707C78.964 66.4748 78.9817 66.4801 79.0056 66.4875Z" fill="#455A64"/>
<path d="M78.9513 66.4699C78.9094 66.4579 78.9189 66.4606 78.9513 66.4699V66.4699Z" fill="#455A64"/>
<g opacity="0.3">
<path d="M75.5072 108.676C76.6629 111.429 78.934 113.853 81.906 114.878C84.878 115.902 88.5317 115.323 90.6691 113.14C91.9811 111.8 92.6395 110.013 93.0571 108.24C93.4243 106.681 93.6313 105.094 93.8274 103.508C94.823 95.4546 95.5472 87.3198 94.7499 79.2475L93.5702 69.9287L90.1617 71.7223L88.5786 104.912L75.5072 108.676Z" fill="black"/>
</g>
<path d="M96.1936 65.2264C96.1936 65.2264 103.043 63.6208 108.612 63.4828L117.849 61.3071L119.426 76.7102L110.62 81.9856L96.1936 65.2264Z" fill="#455A64"/>
<path d="M79.9038 88.9116L63.6867 96.5063C63.6867 96.5063 59.1947 74.0433 69.6357 70.7539L70.2393 73.9445L79.9038 88.9116Z" fill="#455A64"/>
<path d="M111.036 69.5864C111.039 69.5861 111.044 69.6206 111.05 69.6879C111.057 69.7632 111.065 69.8621 111.075 69.9868C111.094 70.2592 111.121 70.6452 111.155 71.1373C111.224 72.1366 111.306 73.583 111.404 75.371C111.596 78.9467 111.821 83.8879 112.035 89.3462C112.25 94.8066 112.416 99.7502 112.524 103.329C112.572 105.111 112.612 106.556 112.64 107.567C112.649 108.06 112.656 108.446 112.662 108.719C112.662 108.845 112.663 108.943 112.663 109.019C112.662 109.087 112.661 109.121 112.658 109.121C112.655 109.121 112.651 109.087 112.646 109.02C112.642 108.944 112.636 108.845 112.629 108.72C112.616 108.447 112.598 108.061 112.576 107.568C112.536 106.559 112.479 105.114 112.408 103.332C112.27 99.7464 112.08 94.8078 111.871 89.3518C111.644 83.8982 111.438 78.9611 111.288 75.376C111.206 73.5948 111.138 72.1501 111.091 71.1405C111.07 70.6478 111.054 70.2616 111.042 69.9886C111.038 69.8632 111.035 69.7644 111.033 69.6888C111.032 69.6211 111.033 69.5867 111.036 69.5864Z" fill="#263238"/>
<path d="M63.6867 96.5062C63.6854 96.5038 63.7075 96.4906 63.7516 96.4671C63.8049 96.44 63.8698 96.4065 63.9495 96.3659C64.1374 96.2741 64.3939 96.1485 64.7185 95.9896C65.4021 95.6628 66.3697 95.2004 67.5601 94.6317C69.9774 93.4933 73.2964 91.9301 76.9624 90.2033C77.6377 89.8873 78.3012 89.577 78.9337 89.281L78.8943 89.3761C78.5744 88.5874 78.3005 87.8211 77.9116 87.128C77.5476 86.4167 77.2659 85.7113 76.9926 85.0459C76.4562 83.7133 75.9009 82.5536 75.4461 81.5811C74.9885 80.6097 74.6333 79.8246 74.4032 79.2786C74.2888 79.0053 74.2021 78.7935 74.1476 78.6485C74.0922 78.5038 74.0657 78.4276 74.0704 78.4258C74.0751 78.424 74.1114 78.497 74.1757 78.6382C74.245 78.7909 74.3389 78.9971 74.4571 79.2577C74.7036 79.7967 75.0733 80.5741 75.5441 81.5402C76.0121 82.5069 76.5797 83.6647 77.1266 84.9979C77.4039 85.6613 77.6894 86.364 78.0512 87.0645C78.4452 87.7596 78.7282 88.5427 79.0459 89.3216L79.0721 89.3861L79.0065 89.4167C78.3743 89.7132 77.7109 90.0241 77.0361 90.3404C73.3616 92.0516 70.035 93.6004 67.6121 94.7288C66.4119 95.2795 65.4365 95.7269 64.7472 96.0432C64.4169 96.1911 64.1557 96.3079 63.9647 96.3935C63.8818 96.4288 63.8143 96.4577 63.7592 96.4812C63.7125 96.5 63.688 96.5085 63.6867 96.5062Z" fill="#263238"/>
<path d="M97.4452 53.2889C96.8237 52.8859 96.0866 52.6396 95.3324 52.5832C95.0954 52.5655 94.8492 52.5673 94.6292 52.6517C94.2967 52.7791 94.0695 53.0809 93.9617 53.401C93.8536 53.721 93.8483 54.0622 93.8435 54.3979C93.8416 54.5256 93.8416 54.6591 93.9056 54.7718C94.0235 54.9786 94.3075 55.0389 94.5577 55.0583C95.4096 55.1248 96.2797 54.9757 97.0503 54.6306" fill="#FF9A6C"/>
<path d="M65.7498 95.5402C69.0628 102.73 75.3629 110.027 79.2454 111.362C85.0302 113.352 89.8188 112.363 92.0357 105.779C94.2522 99.1961 92.8318 69.9502 92.8318 69.9502L83.1875 69.4336L81.4014 94.6309C81.4014 94.6309 80.3362 92.6746 78.461 89.5873" fill="#FFBF9D"/>
<path d="M107.078 43.0021L104.65 41.3497L104.278 38.5074C104.278 38.5074 99.8908 38.6133 99.622 36.4188C99.622 36.4188 97.0922 37.0457 97.2151 34.7261C97.2151 34.7261 95.9276 33.911 96.3979 33.1588C96.8681 32.4063 100.502 31.2873 100.704 31.2246C100.905 31.1619 103.281 30.693 103.281 30.693L102.578 29.9611L100.697 30.1491C100.697 30.1491 99.5549 31.1522 98.6144 31.2776C97.674 31.4029 97.6068 31.0266 97.6068 31.0266C97.6068 31.0266 96.5321 29.9608 97.9428 28.8951C99.3535 27.8293 101.167 27.453 102.107 27.3904C103.048 27.3277 104.308 29.0192 104.308 29.0192L105.332 30.713C105.332 30.713 107.347 30.4621 108.018 31.9041V32.9073C108.018 32.9073 109.496 32.7193 110.101 34.3493L110.504 35.7913C110.504 35.7913 112.25 37.9229 112.317 38.8007" fill="#FFBF9D"/>
<path d="M112.317 38.8014C112.31 38.8023 112.303 38.7238 112.26 38.5787C112.215 38.4334 112.124 38.2248 111.982 37.9621C111.691 37.4394 111.191 36.7031 110.471 35.8153L110.466 35.8091L110.464 35.8017C110.341 35.3708 110.203 34.8851 110.054 34.3615L110.055 34.3647C109.921 34.0049 109.701 33.6378 109.351 33.3613C109.006 33.0889 108.517 32.923 108.026 32.9615L107.961 32.9665L107.96 32.908C107.959 32.5988 107.958 32.2561 107.957 31.9049L107.962 31.9275C107.768 31.5221 107.404 31.1644 106.921 30.9812C106.446 30.7908 105.887 30.7282 105.34 30.7767L105.294 30.7808L105.272 30.7449C104.951 30.2148 104.603 29.6418 104.245 29.0529L104.249 29.0582C104.031 28.7757 103.785 28.4998 103.518 28.2407C103.249 27.9853 102.953 27.7385 102.61 27.5746C102.435 27.4946 102.256 27.4532 102.065 27.4658C101.866 27.4799 101.666 27.5079 101.465 27.5396C101.065 27.6067 100.665 27.7011 100.269 27.8232C99.4799 28.068 98.7052 28.4242 98.0295 28.9272C97.6932 29.1708 97.4077 29.4918 97.3185 29.8768C97.2366 30.2598 97.3907 30.6767 97.6655 30.975L97.6794 30.99L97.6866 31.0147C97.7061 31.0815 97.8171 31.1624 97.934 31.1885C98.0534 31.2215 98.1868 31.2288 98.3204 31.2259C98.5927 31.2177 98.8568 31.165 99.1124 31.0609C99.6227 30.8535 100.094 30.534 100.531 30.1845C100.568 30.1539 100.604 30.1233 100.64 30.0936L100.661 30.076L100.687 30.0733C101.32 30.0101 101.948 29.9474 102.568 29.8854L102.609 29.8812L102.637 29.9104C102.874 30.156 103.108 30.3999 103.341 30.6423L103.434 30.7393L103.297 30.7676C102.47 30.9376 101.655 31.105 100.853 31.27C100.066 31.4865 99.3106 31.7631 98.5779 32.0413C98.2117 32.182 97.8552 32.3341 97.5107 32.4967C97.17 32.6609 96.8268 32.8362 96.5684 33.0709C96.4496 33.1877 96.3752 33.3401 96.3727 33.4981C96.3686 33.6563 96.43 33.8143 96.5183 33.957C96.7017 34.2406 96.9734 34.478 97.2551 34.6695L97.2857 34.6904L97.2873 34.7295C97.293 34.8751 97.2848 35.0216 97.3008 35.164C97.3298 35.3037 97.339 35.4487 97.4017 35.5764C97.4956 35.84 97.6787 36.0724 97.9312 36.2074C98.4361 36.4828 99.067 36.4672 99.6037 36.3586L99.6797 36.3433L99.6873 36.4116C99.7402 36.8961 100.046 37.3094 100.439 37.5797C100.831 37.8559 101.284 38.0269 101.727 38.1486C102.619 38.3866 103.491 38.4578 104.276 38.4599L104.322 38.4602L104.328 38.5017C104.47 39.6277 104.588 40.5667 104.686 41.3454L104.671 41.3222C105.453 41.8629 106.054 42.2794 106.467 42.5653C106.665 42.7045 106.817 42.8116 106.926 42.888C107.028 42.9613 107.077 43.0022 107.077 43.0022C107.077 43.0022 107.02 42.971 106.914 42.9028C106.803 42.8295 106.647 42.7271 106.445 42.5942C106.027 42.3144 105.418 41.9067 104.627 41.3775L104.615 41.3689L104.613 41.3539C104.507 40.5761 104.379 39.638 104.227 38.5134L104.278 38.5549C103.48 38.5581 102.604 38.4925 101.693 38.2551C101.241 38.1328 100.775 37.9616 100.362 37.6739C99.9492 37.3941 99.6126 36.947 99.5546 36.426L99.6378 36.4789C99.3481 36.5431 99.0522 36.5684 98.7481 36.5536C98.4465 36.5372 98.1335 36.4736 97.858 36.3192C97.5779 36.1706 97.3695 35.9082 97.2668 35.622C97.1984 35.4814 97.1877 35.3287 97.1565 35.1787C97.1388 35.0281 97.1464 34.8754 97.1407 34.7224L97.1729 34.7824C96.871 34.578 96.5933 34.3385 96.3891 34.0276C96.292 33.8717 96.2176 33.6899 96.2217 33.4954C96.2246 33.3007 96.3147 33.1139 96.4587 32.9724C96.7477 32.71 97.0931 32.5376 97.4401 32.3679C97.7897 32.202 98.1493 32.0478 98.5177 31.9057C99.2552 31.6242 100.012 31.3459 100.804 31.1271C101.611 30.9603 102.431 30.7905 103.263 30.6184L103.22 30.7438C102.987 30.5017 102.752 30.2578 102.516 30.0122L102.586 30.0372C101.965 30.0992 101.338 30.1619 100.705 30.2254L100.752 30.2051C100.715 30.236 100.677 30.2681 100.639 30.2999C100.191 30.6573 99.7134 30.9826 99.1764 31.2015C98.9088 31.3112 98.6119 31.3709 98.3251 31.3783C98.1802 31.3812 98.0323 31.3742 97.8864 31.3342C97.7452 31.2918 97.5851 31.2238 97.5256 31.0397L97.5467 31.0791C97.2353 30.7411 97.0689 30.2881 97.1596 29.8474C97.2094 29.6303 97.3185 29.4341 97.4509 29.2585C97.5243 29.1767 97.5965 29.0932 97.6765 29.0187C97.761 28.9493 97.842 28.874 97.9296 28.8105C98.6242 28.2948 99.4159 27.9329 100.22 27.685C100.623 27.5611 101.03 27.4658 101.439 27.3984C101.643 27.3664 101.847 27.3384 102.053 27.324C102.269 27.3084 102.491 27.3611 102.676 27.4482C103.047 27.6273 103.348 27.8829 103.624 28.1448C103.896 28.4113 104.143 28.6893 104.366 28.9814L104.368 28.9837L104.37 28.9867C104.725 29.5768 105.071 30.151 105.39 30.6823L105.322 30.6505C105.9 30.6017 106.469 30.6679 106.973 30.8703C107.481 31.0647 107.872 31.4512 108.073 31.8819L108.079 31.8928V31.9046C108.078 32.2558 108.076 32.5985 108.075 32.9077L108.01 32.8544C108.547 32.8153 109.052 32.9953 109.419 33.2854C109.786 33.5802 110.011 33.9646 110.145 34.335L110.146 34.3371L110.146 34.3385C110.29 34.8633 110.423 35.3502 110.542 35.7823L110.535 35.7688C111.248 36.6675 111.739 37.4117 112.019 37.9439C112.156 38.2113 112.242 38.4246 112.28 38.5734C112.317 38.7223 112.317 38.8014 112.317 38.8014Z" fill="#FF9A6C"/>
<path d="M107.997 39.9546C107.978 39.9708 107.816 39.8151 107.517 39.6127C107.218 39.4092 106.773 39.1715 106.242 38.9897C105.707 38.8144 105.217 38.6564 104.856 38.5943C104.494 38.5299 104.26 38.537 104.259 38.5117C104.257 38.4949 104.491 38.4484 104.873 38.4872C105.257 38.5249 105.756 38.6682 106.3 38.8461C106.845 39.0329 107.3 39.2956 107.588 39.5274C107.879 39.759 108.012 39.9431 107.997 39.9546Z" fill="#FF9A6C"/>
<path d="M108.707 35.8289C108.708 35.8395 108.577 35.8533 108.342 35.8692C108.072 35.8836 107.739 35.9013 107.346 35.9221C106.505 35.9601 105.343 36.0019 104.059 36.0386C103.418 36.0548 102.809 36.0701 102.248 36.0845C101.693 36.0901 101.196 36.1136 100.781 36.1628C100.365 36.2092 100.035 36.2766 99.8121 36.3413C99.5892 36.4049 99.4736 36.4611 99.4669 36.4499C99.4622 36.4431 99.5691 36.3678 99.7909 36.2851C100.012 36.2013 100.346 36.1166 100.764 36.0557C101.183 35.9921 101.688 35.9568 102.245 35.9436C102.806 35.9257 103.416 35.9063 104.056 35.886C105.34 35.8492 106.502 35.8245 107.344 35.8142C107.738 35.8127 108.071 35.8112 108.341 35.8101C108.576 35.8121 108.707 35.8183 108.707 35.8289Z" fill="#FF9A6C"/>
<path d="M106.686 33.1904C106.687 33.201 106.556 33.2251 106.316 33.2598C106.043 33.2978 105.705 33.3451 105.303 33.401C104.448 33.5193 103.269 33.6911 101.973 33.9143C100.676 34.1382 99.5083 34.3706 98.6646 34.5453C98.2687 34.6268 97.9343 34.6957 97.6645 34.751C97.4279 34.7983 97.2958 34.8195 97.2926 34.8092C97.2898 34.7989 97.4165 34.7583 97.6485 34.693C97.8801 34.6274 98.218 34.5406 98.6375 34.4397C99.4758 34.2376 100.643 33.9879 101.943 33.7634C103.242 33.5399 104.428 33.3842 105.288 33.2936C105.718 33.248 106.067 33.2166 106.309 33.2007C106.551 33.1839 106.685 33.1798 106.686 33.1904Z" fill="#FF9A6C"/>
<path d="M102.695 28.8613C102.735 28.8481 102.852 29.0955 102.834 29.4206C102.817 29.7459 102.675 29.9813 102.636 29.9645C102.592 29.9486 102.656 29.7097 102.67 29.4132C102.687 29.1167 102.649 28.8728 102.695 28.8613Z" fill="#FF9A6C"/>
<path d="M72.7338 48.7096C75.4001 52.0052 82.3415 61.5443 85.1695 64.9582C85.7655 65.6777 87.5011 65.4118 88.2669 64.8493C90.0883 63.5115 93.2784 61.1878 95.181 59.9134C95.9875 59.3733 96.1539 58.3187 95.5485 57.5848L82.0242 41.1868C81.3979 40.4275 80.2098 40.3304 79.4518 40.9764L72.9522 46.516C72.2837 47.0852 72.1882 48.0354 72.7338 48.7096Z" fill="#455A64"/>
<path d="M82.9419 98.4993L81.4011 94.6304L83.1872 69.4331C83.1872 69.4331 79.6299 63.3826 79.2344 62.0544C78.8391 60.7262 78.7399 56.8776 78.7399 56.8776L81.2256 59.5695C81.2256 59.5695 81.294 54.9425 81.294 53.3931C81.294 53.3931 81.6488 47.5753 81.7093 46.7686C81.7699 45.962 82.646 45.5278 83.2108 45.5278C83.7756 45.5278 84.3233 46.4895 84.3233 46.4895L85.0838 56.0039C85.0838 56.0039 86.3369 51.0009 86.8112 50.3367C87.2855 49.6727 88.9241 49.3556 90.0309 49.4294C90.042 49.4303 90.053 49.4309 90.0637 49.4318C90.9229 49.5047 91.2021 50.5549 90.4952 51.0165L89.0357 51.9693L88.4829 56.7417C88.4829 56.7417 89.8267 52.6097 90.5384 52.0932C91.2497 51.5766 92.5147 52.0932 92.7517 52.6836C92.9891 53.274 92.1192 54.4545 92.1192 54.4545L91.8819 57.4059C91.8819 57.4059 92.8305 56.1515 93.2967 55.4873C93.7628 54.8234 94.9648 55.4873 95.1104 55.7824C95.2557 56.0774 94.2535 59.2621 94.2535 59.2621L92.8305 69.9494L93.2787 85.3366" fill="#FFBF9D"/>
<path d="M93.2799 85.337C93.2799 85.337 93.2724 85.2473 93.2648 85.0717C93.2579 84.8928 93.2481 84.6316 93.2349 84.2895C93.2115 83.5973 93.1775 82.5792 93.1331 81.2607C93.0505 78.6164 92.9304 74.771 92.7798 69.9513V69.9477L92.7804 69.9439C93.1973 66.7836 93.6704 63.1977 94.1907 59.2552L94.1914 59.2505L94.1929 59.2455C94.3767 58.6527 94.5566 58.047 94.7253 57.4293C94.8088 57.1204 94.8917 56.8083 94.961 56.4926C94.996 56.3347 95.0266 56.1761 95.0483 56.0175C95.0556 55.9399 95.0606 55.8572 95.0489 55.8075C95.0187 55.7516 94.955 55.6948 94.8942 55.6442C94.6358 55.446 94.3048 55.3001 93.9708 55.2712C93.8044 55.2589 93.6357 55.2877 93.5068 55.3768C93.3801 55.4607 93.2947 55.6136 93.1873 55.7516C92.7769 56.3088 92.3612 56.8733 91.9411 57.444L91.793 57.6452L91.8125 57.401C91.8853 56.4879 91.966 55.4763 92.0476 54.4496L92.0489 54.432L92.0602 54.4161C92.2758 54.1098 92.4712 53.7789 92.6055 53.4315C92.6704 53.2582 92.7218 53.0767 92.7177 52.9008C92.7177 52.726 92.6253 52.5698 92.4911 52.4384C92.2203 52.1786 91.8349 52.0133 91.4438 51.9639C91.0577 51.913 90.6184 52.0165 90.4129 52.3377C90.1853 52.651 90.0104 53.0117 89.8443 53.3715C89.6807 53.7339 89.5251 54.1025 89.3798 54.477C89.086 55.2244 88.815 55.989 88.5584 56.7633L88.4069 56.7344C88.5799 55.2356 88.7674 53.6109 88.9578 51.9621L88.9615 51.9286L88.9912 51.9091C89.4494 51.61 89.9096 51.309 90.3719 51.0072C90.6061 50.8713 90.7659 50.6713 90.8056 50.4265C90.8437 50.1879 90.7678 49.9288 90.59 49.7517C90.4145 49.5625 90.1554 49.4972 89.8736 49.4984C89.5928 49.4893 89.3095 49.5034 89.0284 49.5343C88.4683 49.5993 87.9017 49.7211 87.4043 49.9685C87.1601 50.0947 86.9338 50.2571 86.8191 50.4877C86.6996 50.7219 86.6066 50.9819 86.5171 51.2387C86.3397 51.755 86.1815 52.2807 86.0286 52.8096C85.7239 53.8677 85.4383 54.9403 85.1644 56.0217L85.0425 56.5035L85.0031 56.0099C84.9003 54.7267 84.7903 53.3512 84.6797 51.9659C84.5325 50.1238 84.3866 48.2991 84.2426 46.4955L84.252 46.5255C84.0711 46.2293 83.8493 45.933 83.5653 45.7336C83.2886 45.5144 82.9025 45.6183 82.5814 45.7577C82.2608 45.906 81.987 46.1531 81.8656 46.4614C81.8023 46.6152 81.7884 46.7758 81.7799 46.9541L81.7471 47.4754C81.6598 48.8639 81.5732 50.2382 81.4877 51.5976C81.4502 52.2774 81.3907 52.9526 81.3718 53.6253C81.3642 54.2984 81.3566 54.9676 81.3491 55.6325C81.3339 56.9624 81.3188 58.2756 81.304 59.5705L81.3018 59.7626L81.1672 59.6167C80.3257 58.7045 79.4984 57.8079 78.6828 56.9239L78.8167 56.8756C78.8539 58.0706 78.9163 59.2499 79.0348 60.4033C79.1013 60.9776 79.1625 61.555 79.3267 62.0942C79.5177 62.6255 79.7821 63.14 80.0377 63.646C81.0853 65.6655 82.1855 67.5758 83.2467 69.4026L83.2561 69.4191L83.2549 69.4374C82.4124 81.0592 81.7667 89.9679 81.4288 94.6323L81.4272 94.6217C81.9369 95.9175 82.3176 96.885 82.5722 97.5322C82.6967 97.8529 82.79 98.0935 82.8534 98.2571C82.9148 98.418 82.9422 98.4995 82.9422 98.4995C82.9422 98.4995 82.906 98.4212 82.8401 98.2618C82.7736 98.0991 82.6759 97.8602 82.5457 97.5416C82.2857 96.8965 81.8968 95.9316 81.3759 94.6396L81.374 94.6346L81.3743 94.629C81.6976 89.9638 82.315 81.0533 83.1203 69.4294L83.1285 69.4638C82.0632 67.6367 80.9605 65.7284 79.9075 63.7048C79.65 63.1956 79.3859 62.6861 79.1864 62.134C79.0156 61.573 78.9554 60.9964 78.887 60.4178C78.7663 59.2584 78.703 58.0788 78.6645 56.8798L78.6582 56.6797L78.7984 56.8315C79.615 57.7152 80.443 58.6112 81.2851 59.5226L81.1483 59.5691C81.1622 58.2735 81.1764 56.9598 81.1905 55.6295C81.1978 54.9644 81.205 54.2949 81.2123 53.6215C81.2306 52.9484 81.2898 52.2724 81.327 51.592C81.4121 50.2315 81.4981 48.8556 81.5848 47.4657L81.6176 46.9438C81.6252 46.7747 81.6406 46.582 81.7131 46.4084C81.8524 46.0563 82.1587 45.7836 82.5086 45.6215C82.6847 45.54 82.8745 45.4824 83.0733 45.46C83.1688 45.4503 83.282 45.4465 83.3853 45.4788C83.49 45.5047 83.577 45.5574 83.6608 45.6097C83.9823 45.838 84.2023 46.1384 84.3964 46.4537L84.4043 46.4667L84.4055 46.484C84.5499 48.2879 84.6958 50.1126 84.843 51.9544C84.9536 53.3397 85.0636 54.7152 85.166 55.9984L85.0047 55.9866C85.2792 54.9032 85.565 53.8304 85.871 52.7696C86.0242 52.2392 86.1831 51.7123 86.3624 51.1917C86.4538 50.931 86.5442 50.6733 86.6747 50.418C86.8087 50.1521 87.0693 49.9673 87.3265 49.8355C87.8547 49.5737 88.4336 49.4516 89.0091 49.3843C89.2978 49.3525 89.5887 49.3384 89.8793 49.3478C90.1617 49.3431 90.5081 49.424 90.7088 49.6502C90.9209 49.8632 91.0092 50.1662 90.9641 50.4489C90.9376 50.5898 90.8837 50.728 90.793 50.8448C90.705 50.9593 90.5783 51.0593 90.4636 51.129C90.001 51.4308 89.5405 51.7312 89.0822 52.0303L89.1157 51.9777C88.924 53.6265 88.7353 55.2509 88.5613 56.7497L88.4097 56.7209C88.6684 55.9431 88.9401 55.178 89.236 54.4272C89.3823 54.0516 89.5389 53.6809 89.7044 53.3153C89.8736 52.9508 90.047 52.5896 90.2906 52.2551C90.3442 52.1707 90.4346 52.0918 90.5166 52.0236C90.6076 51.9612 90.7079 51.9147 90.8125 51.878C91.0237 51.8085 91.2484 51.8003 91.4624 51.825C91.8897 51.8806 92.2963 52.0536 92.5992 52.343C92.7476 52.4851 92.8667 52.6857 92.8655 52.897C92.8696 53.1029 92.8122 53.2947 92.7445 53.4774C92.6023 53.8421 92.4047 54.1751 92.1806 54.4931L92.1932 54.4596C92.11 55.4863 92.0281 56.4976 91.954 57.411L91.8254 57.3678C92.2459 56.7986 92.6613 56.2361 93.0716 55.6804L93.2254 55.4724C93.2821 55.403 93.3423 55.3242 93.4262 55.2727C93.5882 55.1609 93.7946 55.1291 93.9812 55.1436C94.3587 55.1783 94.6985 55.3315 94.9828 55.548C95.0515 55.6072 95.1211 55.6631 95.1719 55.7543C95.2053 55.8649 95.1873 55.9466 95.1826 56.0317C95.1596 56.197 95.128 56.3585 95.0924 56.5182C95.0218 56.8374 94.938 57.1501 94.8539 57.4602C94.6837 58.08 94.5021 58.6854 94.3168 59.2796L94.319 59.2702C93.7895 63.2115 93.308 66.7966 92.8834 69.956L92.8838 69.9486C93.0139 74.7686 93.1179 78.6146 93.1895 81.2592C93.2219 82.578 93.2471 83.5964 93.2642 84.2889C93.2711 84.6313 93.2761 84.8925 93.2799 85.0717C93.2821 85.2473 93.2799 85.337 93.2799 85.337Z" fill="#FF9A6C"/>
<path d="M81.401 64.9578C81.3783 64.9587 81.3459 64.5592 81.3118 63.9129C81.2778 63.2666 81.2415 62.3732 81.2122 61.3863C81.1826 60.3991 81.1653 59.5051 81.1605 58.8579C81.1561 58.2107 81.1646 57.8104 81.1873 57.8101C81.21 57.8098 81.2425 58.2092 81.2765 58.8555C81.3109 59.5018 81.3465 60.3949 81.3761 61.3819C81.4057 62.3685 81.4231 63.2619 81.4275 63.9091C81.4322 64.5563 81.4237 64.9572 81.401 64.9578Z" fill="#FF9A6C"/>
<path d="M97.0499 54.6309C97.0543 54.6391 96.9484 54.7015 96.742 54.788C96.5356 54.873 96.2264 54.9801 95.828 55.0548C95.4293 55.1283 94.9456 55.1704 94.4029 55.1124C94.2667 55.0921 94.1205 55.058 93.99 54.9706C93.8548 54.8871 93.7747 54.7232 93.7672 54.5788C93.7574 54.2952 93.7609 54.0246 93.8006 53.7292C93.8412 53.4389 93.9449 53.1506 94.1343 52.9244C94.3159 52.6943 94.6049 52.5423 94.8854 52.5175C95.4416 52.477 95.9131 52.5932 96.3011 52.7064C96.6868 52.8276 96.9765 52.9762 97.1668 53.0897C97.3572 53.2041 97.4508 53.2818 97.4451 53.2895C97.4291 53.3159 97.0269 53.0259 96.2664 52.81C95.8911 52.7126 95.4101 52.6123 94.9062 52.6579C94.6572 52.6855 94.4249 52.8114 94.2623 53.0165C94.0962 53.2183 94.0023 53.4763 93.9635 53.751C93.9257 54.0222 93.9213 54.312 93.9279 54.5659C93.9301 54.8206 94.1778 54.9406 94.4274 54.9739C94.9386 55.0362 95.419 55.0077 95.8079 54.9492C96.5923 54.8253 97.0386 54.6032 97.0499 54.6309Z" fill="#263238"/>
<path d="M133.202 61.0495C133.202 61.0677 132.876 61.0915 132.349 61.0621C131.822 61.0333 131.096 60.9383 130.32 60.7309C129.544 60.522 128.874 60.2422 128.412 60.006C127.948 59.7698 127.686 59.588 127.696 59.5727C127.71 59.5521 127.993 59.7004 128.464 59.9095C128.935 60.119 129.601 60.3782 130.365 60.5838C131.129 60.7879 131.841 60.8985 132.359 60.9544C132.878 61.0106 133.202 61.0253 133.202 61.0495Z" fill="#FF9A6C"/>
<path d="M63.1862 157.1C63.5062 157.26 63.9128 157.38 64.4062 157.46C64.8995 157.527 65.4128 157.573 65.9462 157.6C66.4795 157.613 66.9528 157.62 67.3662 157.62C67.5128 157.62 67.6928 157.62 67.9062 157.62C68.1328 157.62 68.3195 157.613 68.4662 157.6C68.8928 157.587 69.2595 157.54 69.5662 157.46C69.8728 157.367 70.1062 157.22 70.2662 157.02C70.4262 156.82 70.5062 156.54 70.5062 156.18C70.5062 155.74 70.3862 155.453 70.1462 155.32C69.9062 155.173 69.5395 155.1 69.0462 155.1C68.8862 155.1 68.6995 155.1 68.4862 155.1C68.2862 155.1 68.0462 155.1 67.7662 155.1C67.4862 155.1 67.1395 155.1 66.7262 155.1C66.3128 155.1 65.8995 155.08 65.4862 155.04C65.0728 155 64.6928 154.907 64.3462 154.76C64.0128 154.613 63.7462 154.38 63.5462 154.06C63.3462 153.727 63.2462 153.267 63.2462 152.68C63.2462 151.987 63.3662 151.447 63.6062 151.06C63.8462 150.66 64.1862 150.367 64.6262 150.18C65.0662 149.98 65.5862 149.853 66.1862 149.8C66.7862 149.747 67.4395 149.72 68.1462 149.72C68.5728 149.72 69.0395 149.727 69.5462 149.74C70.0528 149.753 70.5262 149.78 70.9662 149.82C71.4195 149.86 71.7662 149.92 72.0062 150C72.3795 150.027 72.6662 150.133 72.8662 150.32C73.0662 150.493 73.1662 150.713 73.1662 150.98C73.1662 151.02 73.1662 151.093 73.1662 151.2C73.1662 151.307 73.1662 151.413 73.1662 151.52C73.1662 151.627 73.1662 151.687 73.1662 151.7C73.0595 151.593 72.8595 151.507 72.5662 151.44C72.2862 151.373 71.9595 151.327 71.5862 151.3C71.2262 151.26 70.8662 151.233 70.5062 151.22C70.1462 151.207 69.8395 151.2 69.5862 151.2H68.0062C67.5928 151.2 67.2328 151.233 66.9262 151.3C66.6328 151.367 66.3995 151.493 66.2262 151.68C66.0662 151.853 65.9862 152.12 65.9862 152.48C65.9862 152.76 66.0395 152.98 66.1462 153.14C66.2662 153.287 66.4328 153.387 66.6462 153.44C66.8728 153.493 67.1528 153.52 67.4862 153.52C68.1928 153.52 68.7728 153.52 69.2262 153.52C69.6928 153.52 70.0195 153.52 70.2062 153.52C70.8328 153.52 71.3795 153.573 71.8462 153.68C72.3128 153.787 72.6728 154.02 72.9262 154.38C73.1928 154.74 73.3262 155.3 73.3262 156.06C73.3262 156.78 73.1728 157.353 72.8662 157.78C72.5728 158.207 72.1662 158.513 71.6462 158.7C71.1262 158.887 70.5195 159 69.8262 159.04C69.3062 159.08 68.8062 159.1 68.3262 159.1C67.8462 159.1 67.3395 159.1 66.8062 159.1C66.3528 159.087 65.9062 159.067 65.4662 159.04C65.0395 159.013 64.6528 158.96 64.3062 158.88C63.9728 158.8 63.6995 158.693 63.4862 158.56C63.2862 158.413 63.1862 158.22 63.1862 157.98V157.1ZM80.4626 159.14C79.4892 159.14 78.6492 159.073 77.9426 158.94C77.2492 158.807 76.6692 158.567 76.2026 158.22C75.7492 157.873 75.4092 157.393 75.1826 156.78C74.9692 156.153 74.8626 155.36 74.8626 154.4C74.8626 153.413 74.9759 152.613 75.2026 152C75.4426 151.373 75.7959 150.893 76.2626 150.56C76.7426 150.213 77.3359 149.973 78.0426 149.84C78.7626 149.707 79.6026 149.64 80.5626 149.64C81.5226 149.64 82.3492 149.707 83.0426 149.84C83.7492 149.973 84.3292 150.213 84.7826 150.56C85.2492 150.907 85.5892 151.393 85.8026 152.02C86.0292 152.633 86.1426 153.427 86.1426 154.4C86.1426 155.373 86.0226 156.173 85.7826 156.8C85.5559 157.413 85.2092 157.893 84.7426 158.24C84.2759 158.587 83.6826 158.827 82.9626 158.96C82.2559 159.08 81.4226 159.14 80.4626 159.14ZM80.5026 157.72C80.9826 157.72 81.4026 157.68 81.7626 157.6C82.1359 157.507 82.4426 157.34 82.6826 157.1C82.9226 156.86 83.1026 156.527 83.2226 156.1C83.3426 155.66 83.4026 155.093 83.4026 154.4C83.4026 153.693 83.3426 153.127 83.2226 152.7C83.1026 152.26 82.9226 151.92 82.6826 151.68C82.4426 151.44 82.1359 151.28 81.7626 151.2C81.4026 151.107 80.9826 151.06 80.5026 151.06C80.0092 151.06 79.5759 151.107 79.2026 151.2C78.8426 151.28 78.5426 151.44 78.3026 151.68C78.0759 151.92 77.9026 152.26 77.7826 152.7C77.6626 153.127 77.6026 153.693 77.6026 154.4C77.6026 155.093 77.6626 155.66 77.7826 156.1C77.9026 156.527 78.0759 156.86 78.3026 157.1C78.5426 157.34 78.8426 157.507 79.2026 157.6C79.5759 157.68 80.0092 157.72 80.5026 157.72ZM87.7174 157.1C88.0374 157.26 88.4441 157.38 88.9374 157.46C89.4308 157.527 89.9441 157.573 90.4774 157.6C91.0108 157.613 91.4841 157.62 91.8974 157.62C92.0441 157.62 92.2241 157.62 92.4374 157.62C92.6641 157.62 92.8508 157.613 92.9974 157.6C93.4241 157.587 93.7908 157.54 94.0974 157.46C94.4041 157.367 94.6374 157.22 94.7974 157.02C94.9574 156.82 95.0374 156.54 95.0374 156.18C95.0374 155.74 94.9174 155.453 94.6774 155.32C94.4374 155.173 94.0708 155.1 93.5774 155.1C93.4174 155.1 93.2308 155.1 93.0174 155.1C92.8174 155.1 92.5774 155.1 92.2974 155.1C92.0174 155.1 91.6708 155.1 91.2574 155.1C90.8441 155.1 90.4308 155.08 90.0174 155.04C89.6041 155 89.2241 154.907 88.8774 154.76C88.5441 154.613 88.2774 154.38 88.0774 154.06C87.8774 153.727 87.7774 153.267 87.7774 152.68C87.7774 151.987 87.8974 151.447 88.1374 151.06C88.3774 150.66 88.7174 150.367 89.1574 150.18C89.5974 149.98 90.1174 149.853 90.7174 149.8C91.3174 149.747 91.9708 149.72 92.6774 149.72C93.1041 149.72 93.5708 149.727 94.0774 149.74C94.5841 149.753 95.0574 149.78 95.4974 149.82C95.9508 149.86 96.2974 149.92 96.5374 150C96.9108 150.027 97.1974 150.133 97.3974 150.32C97.5974 150.493 97.6974 150.713 97.6974 150.98C97.6974 151.02 97.6974 151.093 97.6974 151.2C97.6974 151.307 97.6974 151.413 97.6974 151.52C97.6974 151.627 97.6974 151.687 97.6974 151.7C97.5908 151.593 97.3908 151.507 97.0974 151.44C96.8174 151.373 96.4908 151.327 96.1174 151.3C95.7574 151.26 95.3974 151.233 95.0374 151.22C94.6774 151.207 94.3708 151.2 94.1174 151.2H92.5374C92.1241 151.2 91.7641 151.233 91.4574 151.3C91.1641 151.367 90.9308 151.493 90.7574 151.68C90.5974 151.853 90.5174 152.12 90.5174 152.48C90.5174 152.76 90.5708 152.98 90.6774 153.14C90.7974 153.287 90.9641 153.387 91.1774 153.44C91.4041 153.493 91.6841 153.52 92.0174 153.52C92.7241 153.52 93.3041 153.52 93.7574 153.52C94.2241 153.52 94.5508 153.52 94.7374 153.52C95.3641 153.52 95.9108 153.573 96.3774 153.68C96.8441 153.787 97.2041 154.02 97.4574 154.38C97.7241 154.74 97.8574 155.3 97.8574 156.06C97.8574 156.78 97.7041 157.353 97.3974 157.78C97.1041 158.207 96.6974 158.513 96.1774 158.7C95.6574 158.887 95.0508 159 94.3574 159.04C93.8374 159.08 93.3374 159.1 92.8574 159.1C92.3774 159.1 91.8708 159.1 91.3374 159.1C90.8841 159.087 90.4374 159.067 89.9974 159.04C89.5708 159.013 89.1841 158.96 88.8374 158.88C88.5041 158.8 88.2308 158.693 88.0174 158.56C87.8174 158.413 87.7174 158.22 87.7174 157.98V157.1Z" fill="#1C274C"/>
<path d="M49.8131 175C49.5144 175 49.2637 174.973 49.0611 174.92C48.8584 174.856 48.7037 174.733 48.5971 174.552C48.4904 174.36 48.4051 174.077 48.3411 173.704L47.4611 167.64H48.6131L49.3971 173.272C49.4504 173.56 49.5197 173.752 49.6051 173.848C49.6904 173.944 49.8504 173.992 50.0851 173.992H50.5491L51.9251 167.64H53.1251L54.5811 173.992H55.0771C55.2584 173.992 55.3971 173.955 55.4931 173.88C55.5891 173.805 55.6531 173.677 55.6851 173.496L56.4051 167.64H57.3171L56.4851 173.768C56.4424 174.141 56.3571 174.419 56.2291 174.6C56.1011 174.771 55.9251 174.883 55.7011 174.936C55.4771 174.979 55.1891 175 54.8371 175H53.8131L52.5971 169.592L52.4691 169.016L52.3571 169.608L51.2051 175H49.8131ZM61.7972 175.112C61.1679 175.112 60.6559 175.08 60.2612 175.016C59.8665 174.952 59.5625 174.845 59.3492 174.696C59.1465 174.536 59.0025 174.328 58.9172 174.072C58.8425 173.816 58.8052 173.501 58.8052 173.128C58.8052 172.584 58.8692 172.168 58.9972 171.88C59.1252 171.592 59.3492 171.395 59.6692 171.288C59.9892 171.181 60.4159 171.128 60.9492 171.128C61.2159 171.128 61.5039 171.139 61.8132 171.16C62.1332 171.171 62.4372 171.187 62.7252 171.208C63.0239 171.219 63.2799 171.235 63.4932 171.256C63.7172 171.277 63.8665 171.304 63.9412 171.336C63.9412 170.845 63.8985 170.456 63.8132 170.168C63.7279 169.88 63.5945 169.667 63.4132 169.528C63.2425 169.389 63.0239 169.299 62.7572 169.256C62.5012 169.213 62.2025 169.192 61.8612 169.192C61.5092 169.192 61.1519 169.208 60.7892 169.24C60.4372 169.261 60.1119 169.304 59.8132 169.368C59.5145 169.421 59.2852 169.496 59.1252 169.592V169.352C59.1252 169.128 59.1892 168.973 59.3172 168.888C59.4559 168.792 59.6105 168.728 59.7812 168.696C59.9839 168.643 60.2772 168.6 60.6612 168.568C61.0559 168.536 61.4665 168.525 61.8932 168.536C62.4372 168.536 62.9012 168.563 63.2852 168.616C63.6799 168.669 64.0052 168.787 64.2612 168.968C64.5172 169.139 64.7092 169.4 64.8372 169.752C64.9652 170.104 65.0292 170.584 65.0292 171.192V174.488C64.9652 174.701 64.6825 174.861 64.1812 174.968C63.6799 175.064 62.8852 175.112 61.7972 175.112ZM61.7972 174.568C62.2879 174.568 62.6772 174.552 62.9652 174.52C63.2639 174.488 63.4879 174.445 63.6372 174.392C63.7972 174.339 63.8985 174.269 63.9412 174.184V171.8C63.8452 171.768 63.6639 171.736 63.3972 171.704C63.1412 171.672 62.8692 171.645 62.5812 171.624C62.2932 171.592 62.0479 171.576 61.8452 171.576C61.3865 171.576 61.0132 171.603 60.7252 171.656C60.4479 171.709 60.2452 171.843 60.1172 172.056C59.9999 172.269 59.9412 172.6 59.9412 173.048C59.9412 173.4 59.9839 173.688 60.0692 173.912C60.1545 174.136 60.3252 174.301 60.5812 174.408C60.8479 174.515 61.2532 174.568 61.7972 174.568ZM67.9316 175H67.2276C67.0889 175 66.9822 174.968 66.9076 174.904C66.8436 174.829 66.8116 174.696 66.8116 174.504V168.936C67.0462 168.861 67.3662 168.781 67.7716 168.696C68.1876 168.611 68.6996 168.568 69.3076 168.568C69.8836 168.568 70.3369 168.611 70.6676 168.696C71.0089 168.771 71.2542 168.877 71.4036 169.016C71.5636 169.155 71.6649 169.325 71.7076 169.528C71.7609 169.72 71.7876 169.939 71.7876 170.184H70.7156L70.6996 169.96C70.6889 169.715 70.6089 169.539 70.4596 169.432C70.3102 169.315 70.1342 169.245 69.9316 169.224C69.7289 169.192 69.5262 169.176 69.3236 169.176C69.0142 169.176 68.7369 169.203 68.4916 169.256C68.2569 169.309 68.0702 169.379 67.9316 169.464V175ZM73.4296 175C73.1842 175 73.0616 174.872 73.0616 174.616V169.08C73.3709 168.941 73.7762 168.819 74.2776 168.712C74.7896 168.605 75.3762 168.552 76.0376 168.552C76.6562 168.552 77.1576 168.595 77.5416 168.68C77.9256 168.765 78.2189 168.893 78.4216 169.064C78.6242 169.235 78.7576 169.459 78.8216 169.736C78.8962 170.003 78.9336 170.328 78.9336 170.712V174.52C78.9336 174.637 78.9176 174.733 78.8856 174.808C78.8642 174.883 78.8162 174.936 78.7416 174.968C78.6776 174.989 78.5762 175 78.4376 175H77.8136V170.488C77.8136 170.061 77.6749 169.747 77.3976 169.544C77.1202 169.341 76.6669 169.24 76.0376 169.24C75.8349 169.24 75.6109 169.256 75.3656 169.288C75.1309 169.32 74.9069 169.368 74.6936 169.432C74.4802 169.485 74.3042 169.56 74.1656 169.656V175H73.4296ZM92.1541 171.848C92.1541 172.307 92.1327 172.733 92.0901 173.128C92.0474 173.512 91.9141 173.848 91.6901 174.136C91.4767 174.424 91.1247 174.648 90.6341 174.808C90.1541 174.968 89.4714 175.048 88.5861 175.048C87.8821 175.048 87.3061 175 86.8581 174.904C86.4207 174.797 86.0794 174.648 85.8341 174.456C85.5994 174.264 85.4287 174.04 85.3221 173.784C85.2154 173.528 85.1461 173.245 85.1141 172.936C85.0927 172.616 85.0821 172.285 85.0821 171.944V168.28C85.0821 168.109 85.0874 167.976 85.0981 167.88C85.1087 167.784 85.1514 167.72 85.2261 167.688C85.3007 167.656 85.4127 167.64 85.5621 167.64H86.3141V172.488C86.3141 172.968 86.3887 173.341 86.5381 173.608C86.6981 173.864 86.9434 174.045 87.2741 174.152C87.6154 174.259 88.0527 174.312 88.5861 174.312C89.4181 174.312 90.0154 174.173 90.3781 173.896C90.7514 173.608 90.9381 173.139 90.9381 172.488V167.64H91.6581C91.8181 167.64 91.9354 167.656 92.0101 167.688C92.0847 167.72 92.1274 167.784 92.1381 167.88C92.1487 167.976 92.1541 168.109 92.1541 168.28V171.848ZM96.5203 175.064C96.339 175.064 96.1096 175.059 95.8323 175.048C95.5656 175.037 95.2883 175.016 95.0003 174.984C94.723 174.941 94.4723 174.883 94.2483 174.808C94.1416 174.765 94.0563 174.723 93.9923 174.68C93.9283 174.637 93.8803 174.563 93.8483 174.456C93.827 174.349 93.8163 174.189 93.8163 173.976C94.051 174.093 94.3283 174.189 94.6483 174.264C94.9683 174.328 95.2883 174.371 95.6083 174.392C95.9283 174.413 96.195 174.424 96.4083 174.424C96.7283 174.424 97.0376 174.413 97.3363 174.392C97.6456 174.36 97.923 174.301 98.1683 174.216C98.4136 174.12 98.6056 173.981 98.7443 173.8C98.8936 173.619 98.9683 173.379 98.9683 173.08C98.9683 172.643 98.8563 172.365 98.6323 172.248C98.4083 172.12 98.1043 172.056 97.7203 172.056H96.1043C95.7096 172.056 95.3363 172.035 94.9843 171.992C94.643 171.939 94.3603 171.805 94.1363 171.592C93.923 171.368 93.8163 170.995 93.8163 170.472C93.8163 169.907 93.955 169.485 94.2323 169.208C94.5096 168.931 94.899 168.749 95.4003 168.664C95.9123 168.579 96.5043 168.536 97.1763 168.536C97.4216 168.536 97.715 168.541 98.0563 168.552C98.3976 168.563 98.723 168.595 99.0323 168.648C99.2456 168.68 99.4216 168.723 99.5603 168.776C99.7096 168.819 99.8163 168.883 99.8803 168.968C99.955 169.053 99.9923 169.176 99.9923 169.336V169.656C99.8963 169.549 99.7363 169.464 99.5123 169.4C99.2883 169.336 99.027 169.288 98.7283 169.256C98.4403 169.224 98.1416 169.208 97.8323 169.208C97.523 169.197 97.235 169.192 96.9683 169.192C96.627 169.192 96.2963 169.213 95.9763 169.256C95.6563 169.299 95.395 169.405 95.1923 169.576C95.0003 169.736 94.9043 170.013 94.9043 170.408C94.9043 170.707 94.9683 170.925 95.0963 171.064C95.2243 171.203 95.395 171.293 95.6083 171.336C95.8323 171.368 96.083 171.384 96.3603 171.384H98.0083C98.4136 171.384 98.771 171.421 99.0803 171.496C99.4003 171.56 99.6456 171.715 99.8163 171.96C99.9976 172.195 100.088 172.568 100.088 173.08C100.088 173.645 99.9336 174.072 99.6243 174.36C99.315 174.648 98.8883 174.84 98.3443 174.936C97.811 175.021 97.203 175.064 96.5203 175.064ZM104.507 175.096C103.889 175.096 103.366 175.053 102.939 174.968C102.523 174.883 102.187 174.723 101.931 174.488C101.686 174.253 101.505 173.928 101.387 173.512C101.281 173.085 101.227 172.536 101.227 171.864C101.227 171.096 101.323 170.467 101.515 169.976C101.707 169.485 102.049 169.123 102.539 168.888C103.03 168.653 103.718 168.536 104.603 168.536C105.286 168.536 105.83 168.627 106.235 168.808C106.651 168.989 106.95 169.267 107.131 169.64C107.323 170.013 107.419 170.499 107.419 171.096V172.008H102.907C102.907 171.88 102.939 171.773 103.003 171.688C103.067 171.592 103.185 171.544 103.355 171.544H106.411L106.395 171.08C106.385 170.419 106.241 169.939 105.963 169.64C105.697 169.341 105.227 169.192 104.555 169.192C103.99 169.192 103.547 169.277 103.227 169.448C102.907 169.619 102.683 169.896 102.555 170.28C102.427 170.664 102.363 171.187 102.363 171.848C102.363 172.552 102.433 173.091 102.571 173.464C102.721 173.827 102.966 174.077 103.307 174.216C103.649 174.344 104.113 174.408 104.699 174.408C104.902 174.408 105.131 174.403 105.387 174.392C105.654 174.371 105.921 174.349 106.187 174.328C106.454 174.307 106.689 174.28 106.891 174.248C107.105 174.205 107.254 174.163 107.339 174.12V174.312C107.339 174.419 107.307 174.52 107.243 174.616C107.19 174.712 107.073 174.792 106.891 174.856C106.657 174.952 106.337 175.016 105.931 175.048C105.537 175.08 105.062 175.096 104.507 175.096ZM110.041 175H109.337C109.198 175 109.092 174.968 109.017 174.904C108.953 174.829 108.921 174.696 108.921 174.504V168.936C109.156 168.861 109.476 168.781 109.881 168.696C110.297 168.611 110.809 168.568 111.417 168.568C111.993 168.568 112.446 168.611 112.777 168.696C113.118 168.771 113.364 168.877 113.513 169.016C113.673 169.155 113.774 169.325 113.817 169.528C113.87 169.72 113.897 169.939 113.897 170.184H112.825L112.809 169.96C112.798 169.715 112.718 169.539 112.569 169.432C112.42 169.315 112.244 169.245 112.041 169.224C111.838 169.192 111.636 169.176 111.433 169.176C111.124 169.176 110.846 169.203 110.601 169.256C110.366 169.309 110.18 169.379 110.041 169.464V175Z" fill="#1C274C"/>
</svg>
