<svg width="15" height="17" viewBox="0 0 15 17" fill="none" xmlns="http://www.w3.org/2000/svg">
<path d="M7.99711 15.0487C11.2626 15.0487 13.9097 12.4015 13.9097 9.13603C13.9097 5.87057 11.2626 3.22339 7.99711 3.22339C4.73165 3.22339 2.08447 5.87057 2.08447 9.13603C2.08447 12.4015 4.73165 15.0487 7.99711 15.0487Z" fill="url(#paint0_radial_277_100065)"/>
<mask id="mask0_277_100065" style="mask-type:luminance" maskUnits="userSpaceOnUse" x="4" y="8" width="4" height="3">
<g opacity="0.72">
<path d="M7.0139 9.37487C6.93258 9.85792 6.23735 10.1434 5.46119 10.013C4.68504 9.88213 4.12183 9.38486 4.20311 8.90204C4.2843 8.41913 4.97953 8.1332 5.75564 8.26379C6.53184 8.39452 7.095 8.89227 7.0139 9.37487Z" fill="url(#paint1_radial_277_100065)"/>
</g>
</mask>
<g mask="url(#mask0_277_100065)">
<path opacity="0.72" d="M7.0139 9.37487C6.93258 9.85792 6.23735 10.1434 5.46119 10.013C4.68504 9.88213 4.12183 9.38486 4.20311 8.90204C4.2843 8.41913 4.97953 8.1332 5.75564 8.26379C6.53184 8.39452 7.095 8.89227 7.0139 9.37487Z" fill="#ED1C24"/>
</g>
<mask id="mask1_277_100065" style="mask-type:luminance" maskUnits="userSpaceOnUse" x="9" y="8" width="4" height="2">
<g opacity="0.72">
<path d="M12.1784 8.66418C12.3098 9.13608 11.8017 9.68979 11.0435 9.90108C10.2852 10.1121 9.56413 9.9009 9.43283 9.42932C9.30134 8.9576 9.80944 8.40366 10.5675 8.19241C11.3258 7.9813 12.0469 8.1929 12.1784 8.66418Z" fill="url(#paint2_radial_277_100065)"/>
</g>
</mask>
<g mask="url(#mask1_277_100065)">
<path opacity="0.72" d="M12.1779 8.66393C12.3093 9.13583 11.8012 9.68955 11.043 9.90084C10.2847 10.1119 9.56364 9.90066 9.43234 9.42907C9.30085 8.95735 9.80896 8.40342 10.5671 8.19217C11.3253 7.98106 12.0465 8.19266 12.1779 8.66393Z" fill="#ED1C24"/>
</g>
<path d="M10.9598 8.96181C10.9807 9.01104 9.7792 9.9366 8.20108 9.95885C6.62323 10.002 5.38463 9.12683 5.40353 9.07671C5.41406 9.00377 6.6461 9.53456 8.19136 9.49078C9.73707 9.47067 10.9462 8.88936 10.9598 8.96181Z" fill="#FFF200"/>
<path d="M10.9935 8.91606C11.0144 8.96712 9.77634 9.79463 8.19818 9.81657C6.62037 9.85995 5.39684 9.0834 5.41574 9.03159C5.42627 8.95615 6.62554 9.30503 8.1708 9.26071C9.71651 9.24101 10.9799 8.8412 10.9935 8.91606Z" fill="url(#paint3_radial_277_100065)"/>
<path d="M10.9594 8.95985C10.9801 9.00163 9.77586 9.79116 8.1977 9.81492C6.61989 9.85643 5.3841 9.11742 5.40305 9.07479C5.41388 9.01282 6.6441 9.4597 8.18949 9.41757C9.73516 9.39572 10.946 8.89837 10.9594 8.95985Z" fill="#601B05"/>
<path d="M6.51542 5.46396C6.51542 5.46396 5.5533 5.3232 5.07373 6.04527C5.07373 6.04527 5.74105 5.55005 6.64307 5.63534C6.67321 5.49414 6.51542 5.46396 6.51542 5.46396Z" fill="url(#paint4_radial_277_100065)"/>
<path d="M6.54748 5.51356C6.54748 5.51356 5.62348 5.43759 5.05322 6.07401C5.05322 6.07401 5.70792 5.61941 6.60999 5.70466C6.73541 5.56885 6.54748 5.51356 6.54748 5.51356Z" fill="#FFF200"/>
<path d="M6.53324 5.50463C6.53324 5.50463 5.58405 5.40333 5.04639 6.08148C5.04639 6.08148 5.70149 5.58065 6.60355 5.66594C6.71783 5.55733 6.53324 5.50463 6.53324 5.50463Z" fill="#601B05"/>
<path d="M9.34295 5.54268C9.34295 5.54268 10.262 5.22519 10.8675 5.84538C10.8675 5.84538 10.1197 5.48298 9.24932 5.73485C9.19345 5.60172 9.34295 5.54268 9.34295 5.54268Z" fill="url(#paint5_radial_277_100065)"/>
<path d="M9.31912 5.59886C9.31912 5.59886 10.2129 5.35216 10.8916 5.87132C10.8916 5.87132 10.1638 5.54647 9.29335 5.79829C9.14479 5.68825 9.31912 5.59886 9.31912 5.59886Z" fill="#FFF200"/>
<path d="M9.33294 5.58671C9.33294 5.58671 10.2466 5.31037 10.9012 5.87661C10.9012 5.87661 10.1643 5.5065 9.29384 5.75823C9.16142 5.67281 9.33294 5.58671 9.33294 5.58671Z" fill="#601B05"/>
<mask id="mask2_277_100065" style="mask-type:luminance" maskUnits="userSpaceOnUse" x="2" y="11" width="6" height="5">
<g opacity="0.87">
<path d="M7.59024 14.9316C7.23271 15.6992 5.85059 15.8131 4.50338 15.1854C3.15608 14.5578 2.35398 13.4266 2.71156 12.6589C3.06909 11.8913 4.45126 11.7775 5.79829 12.4051C7.14577 13.0327 7.94787 14.164 7.59024 14.9316Z" fill="url(#paint6_radial_277_100065)"/>
</g>
</mask>
<g mask="url(#mask2_277_100065)">
<path opacity="0.87" d="M7.59024 14.9316C7.23271 15.6992 5.85059 15.8131 4.50338 15.1854C3.15608 14.5578 2.35398 13.4266 2.71156 12.6589C3.06909 11.8913 4.45126 11.7775 5.79829 12.4051C7.14577 13.0327 7.94787 14.164 7.59024 14.9316Z" fill="#ED1C24"/>
</g>
<mask id="mask3_277_100065" style="mask-type:luminance" maskUnits="userSpaceOnUse" x="6" y="10" width="7" height="6">
<g opacity="0.87">
<path d="M12.4097 12.0218C12.7647 13.1168 11.8139 14.4064 10.2858 14.9019C8.75775 15.3974 7.23112 14.9109 6.87613 13.8159C6.521 12.721 7.4718 11.4313 8.99985 10.9359C10.5279 10.4405 12.0547 10.9268 12.4097 12.0218Z" fill="url(#paint7_radial_277_100065)"/>
</g>
</mask>
<g mask="url(#mask3_277_100065)">
<path opacity="0.87" d="M12.4092 12.0218C12.7642 13.1168 11.8134 14.4064 10.2853 14.9019C8.75726 15.3974 7.23064 14.9109 6.87564 13.8159C6.52052 12.721 7.47131 11.4313 8.99936 10.9359C10.5275 10.4405 12.0542 10.9268 12.4092 12.0218Z" fill="#ED1C24"/>
</g>
<path d="M2.12744 8.42978C2.65623 6.59306 3.6735 5.63941 7.32532 5.20862C9.06364 5.00353 10.5429 4.78956 11.6522 4.49075C10.6461 3.69783 9.37717 3.22339 7.99665 3.22339C4.97042 3.22343 2.47677 5.49768 2.12744 8.42978Z" fill="url(#paint8_radial_277_100065)"/>
<path d="M3.0459 2.40055C3.0459 2.40055 3.2229 0.972501 4.98267 0.502921C6.74243 0.0331634 8.85385 0.100444 9.3512 0.491552C9.84865 0.882883 11.4695 0.597533 11.9029 1.59867C12.3364 2.60002 13.1936 3.08766 13.1936 3.08766C13.1936 3.08766 14.8323 3.87665 14.2608 5.25441" fill="url(#paint9_radial_277_100065)"/>
<path d="M10.2862 2.55595L11.1762 2.14264C11.0055 1.64568 10.5841 1.13366 10.1979 0.739698C9.84373 0.683876 9.52757 0.630016 9.35182 0.4918C9.06054 0.262717 8.21568 0.144965 7.2124 0.180946C8.41087 0.681067 10.2862 2.55595 10.2862 2.55595Z" fill="url(#paint10_radial_277_100065)"/>
<path d="M10.8655 3.96436L9.30518 4.52614C9.30518 4.52614 11.713 5.05997 12.7821 6.5079C13.4682 7.4372 13.7528 8.09132 13.8689 8.44128C13.6432 6.51204 12.4897 4.867 10.8655 3.96436Z" fill="url(#paint11_radial_277_100065)"/>
<path d="M9.27246 4.17682C9.27246 4.17682 11.6803 4.7107 12.7494 6.15867C13.8186 7.60682 13.8679 8.44161 13.8679 8.44161C13.8679 8.44161 14.8787 7.30021 14.3367 5.44008C13.7949 3.57991 12.0929 3.16138 12.0929 3.16138" fill="url(#paint12_radial_277_100065)"/>
<path d="M9.87109 4.34772C10.2745 4.47942 10.8303 4.69268 11.3749 5.00353C11.2846 4.41981 11.303 3.60474 11.303 3.60474L9.87109 4.34772Z" fill="url(#paint13_radial_277_100065)"/>
<path d="M10.5196 2.08795C10.1693 1.41479 9.19438 0.64238 8.66438 0.254214C8.59978 0.243202 8.53156 0.233348 8.46094 0.224609C8.63139 0.346062 8.89106 0.537514 9.1715 0.767934C9.65834 1.16667 10.2038 1.68302 10.4349 2.13173L10.5196 2.08795Z" fill="#F6D5D1"/>
<path d="M12.645 4.79086L12.2977 4.26541L12.7338 3.81166L12.4829 3.30561C12.4343 3.28358 12.3891 3.26441 12.3478 3.24805L12.6187 3.79414L12.1761 4.25422L12.5282 4.78707L12.1421 5.29499L12.5497 5.78561L12.502 5.86426C12.5248 5.8883 12.547 5.91286 12.5689 5.93747L12.6665 5.77688L12.2637 5.29227L12.645 4.79086ZM12.9639 4.82077L12.6166 4.29533L13.0528 3.84158L12.8972 3.52836C12.8457 3.49612 12.7951 3.46576 12.7461 3.43838L12.9373 3.82388L12.495 4.28436L12.8469 4.81721L12.4608 5.32495L12.8685 5.81575L12.6994 6.09424C12.716 6.11559 12.7334 6.13668 12.7495 6.15849C12.7537 6.16406 12.7576 6.16945 12.7616 6.17521L12.9854 5.80702L12.5826 5.32237L12.9639 4.82077Z" fill="#DA6788"/>
<path opacity="0.45" d="M8.97912 2.82574L8.36196 2.65957L8.30966 2.02328L7.67721 1.93446L7.55224 1.30883L6.91435 1.28962L6.72503 0.680751L6.08906 0.728413L5.9018 0.309305C5.86921 0.314521 5.8367 0.319782 5.8042 0.325356L6.02927 0.828375L6.65655 0.781292L6.84359 1.38307L7.47354 1.40188L7.59709 2.01971L8.22085 2.10706L8.27226 2.73438L8.88001 2.89752L8.84826 3.52565L9.42556 3.77341L9.37656 4.0115L9.46912 4.03509L9.5348 3.71657L8.94662 3.46403L8.97912 2.82574ZM9.18016 3.2452L9.21253 2.60646L8.59533 2.44056L8.54325 1.80427L7.9108 1.71541L7.7856 1.08978L7.14793 1.07079L6.95844 0.461744L6.32251 0.509228L6.21292 0.263916C6.18006 0.268241 6.14702 0.27261 6.11416 0.277336L6.26272 0.609636L6.89009 0.562286L7.07722 1.16406L7.70713 1.18292L7.83068 1.80057L8.45443 1.88792L8.50589 2.51524L9.11337 2.67878L9.08154 3.30664L9.6591 3.55436L9.55571 4.05707L9.64805 4.08052L9.76807 3.49756L9.18016 3.2452Z" fill="#DA6788"/>
<path d="M13.3538 3.17722C13.2572 3.11836 13.1941 3.08782 13.1941 3.08782C13.1941 3.08782 12.3369 2.60018 11.9034 1.59883C11.8403 1.45299 11.7514 1.33506 11.6449 1.23764C11.401 1.27955 11.1178 1.36823 10.785 1.50435C9.73816 1.93313 8.56573 1.78377 6.74689 1.29069C5.29883 0.898426 4.33144 1.21695 3.49131 1.436C3.10573 1.92734 3.04639 2.40066 3.04639 2.40066L9.78542 4.11557C11.6248 3.81439 12.8878 3.37478 13.3538 3.17722Z" fill="url(#paint14_radial_277_100065)"/>
<path d="M10.6993 4.65351C12.0286 4.32518 13.622 3.84258 13.9655 3.68087C13.6229 3.29462 13.194 3.08747 13.194 3.08747C13.194 3.08747 12.4791 2.67897 12.0249 1.84473C11.8011 1.89952 11.548 1.98963 11.257 2.11817C10.2032 2.58329 9.005 2.47482 7.13863 2.04536C5.30379 1.62309 4.24634 2.25933 3.24512 2.45101L10.6993 4.65351Z" fill="url(#paint15_radial_277_100065)"/>
<path d="M2.02096 8.27788C2.02096 8.27788 0.332665 7.42847 1.15595 5.04847C1.10962 4.29822 1.82812 2.29591 2.82547 2.12024C3.82286 1.94466 4.86318 1.28229 6.69673 1.71763C8.53015 2.15306 9.70682 2.26524 10.7396 1.80386C11.7724 1.34248 12.3331 1.36335 12.7195 1.85411C13.1059 2.34491 13.803 3.13992 13.5325 3.30739C13.2621 3.47481 10.7529 4.55531 6.94436 4.82706C3.13592 5.09885 2.59313 6.57697 2.40244 7.26052C2.23007 7.87852 2.19582 8.42073 2.02096 8.27788Z" fill="url(#paint16_radial_277_100065)"/>
<path d="M10.5182 1.89258C9.8298 2.14141 9.06368 2.15354 8.08006 1.99914C6.57337 2.70297 4.8079 4.84181 4.44238 5.29797C5.06155 5.07539 5.87386 4.9036 6.94424 4.82727C7.24069 4.80601 7.52836 4.77961 7.80858 4.74943C8.03838 4.43126 8.39934 4.02227 8.95074 3.60504C9.89708 2.88885 10.3695 2.15314 10.5182 1.89258Z" fill="url(#paint17_radial_277_100065)"/>
<path d="M5.70918 1.57584L5.60204 1.88843L4.96227 1.91032L4.85527 2.54086L4.22687 2.65932L4.21051 3.29837L3.604 3.49861L3.66638 4.13409L3.08752 4.40254L3.2186 5.02688L2.67122 5.35396L2.86678 5.96118L2.36278 6.35028L2.52864 6.88835C2.54629 6.8463 2.56667 6.8027 2.58843 6.75856L2.47344 6.38528L2.97828 5.99565L2.78532 5.39699L3.3261 5.07361L3.19662 4.45707L3.76786 4.19205L3.70651 3.56509L4.304 3.36784L4.32028 2.73886L4.93815 2.62245L5.04342 2.00293L5.6711 1.98135L5.80802 1.58145C5.77481 1.57914 5.74172 1.57735 5.70918 1.57584ZM2.71059 5.82011L2.51771 5.22128L3.05832 4.89812L2.92888 4.28163L3.50021 4.01661L3.43855 3.38964L4.03627 3.19217L4.05245 2.56333L4.67041 2.44674L4.77555 1.82721L5.40318 1.80586L5.48353 1.57129C5.44933 1.57147 5.41571 1.57223 5.38223 1.57298L5.33434 1.71285L4.69449 1.73465L4.58748 2.3655L3.95913 2.48379L3.94264 3.12248L3.33631 3.32285L3.39855 3.95838L2.81974 4.22696L2.95104 4.85126L2.40357 5.17834L2.59913 5.78538L2.09521 6.17448L2.37245 7.07467L2.46363 7.04654L2.2057 6.20961L2.71059 5.82011Z" fill="#DA6788"/>
<path d="M6.38285 4.8792C6.58058 4.64695 6.86799 4.31746 7.20947 3.9511C7.78374 3.33496 8.50817 2.6182 9.19956 2.10002C9.149 2.09984 9.09826 2.09926 9.04646 2.09766C7.91183 2.97324 6.72638 4.32419 6.24463 4.89462C6.28971 4.88927 6.33674 4.88446 6.38285 4.8792Z" fill="#F6D5D1"/>
<path d="M2.6008 6.73522C1.36514 6.45883 1.25163 5.19446 1.32172 4.82105C1.65544 2.96146 3.22897 2.03162 3.22897 2.03162L3.22545 2.02881C3.09022 2.0655 2.9574 2.09734 2.82547 2.12061C1.82812 2.29628 1.10962 4.29859 1.15595 5.04884C0.332665 7.42884 2.02096 8.27825 2.02096 8.27825C2.19582 8.4211 2.23002 7.87889 2.40248 7.26089C2.44305 7.1154 2.50003 6.93362 2.6008 6.73522Z" fill="url(#paint18_radial_277_100065)"/>
<path d="M0.992676 5.65425C1.01207 6.23468 1.25957 7.07035 2.34622 7.47938C2.3538 7.44835 2.3616 7.41705 2.36967 7.38535C1.27606 6.96722 1.08938 6.12477 1.08644 5.56486C1.08644 5.39164 1.10526 5.24955 1.12193 5.15601C1.06615 5.33016 1.02295 5.49669 0.992676 5.65425Z" fill="#F6D5D1"/>
<path d="M14.2276 5.12208C14.2273 5.12128 14.2269 5.12039 14.2267 5.11963C14.2125 5.92726 14.0245 6.92915 13.6079 7.59469C13.8504 8.14372 13.8682 8.44213 13.8682 8.44213C13.8682 8.44213 14.5859 7.63134 14.4873 6.26313C14.4684 6.00573 14.4215 5.73077 14.3369 5.4406C14.3206 5.38434 14.3031 5.32963 14.2846 5.27595C14.2666 5.22338 14.2475 5.1722 14.2276 5.12208Z" fill="url(#paint19_radial_277_100065)"/>
<mask id="mask4_277_100065" style="mask-type:luminance" maskUnits="userSpaceOnUse" x="3" y="12" width="5" height="5">
<g opacity="0.87">
<path d="M7.29806 15.6168C6.90017 16.1848 5.86337 16.1452 4.98253 15.5281C4.1016 14.9111 3.7104 13.9503 4.10829 13.3824C4.50599 12.8144 5.54275 12.8539 6.42368 13.4709C7.30443 14.0879 7.69581 15.0488 7.29806 15.6168Z" fill="url(#paint20_radial_277_100065)"/>
</g>
</mask>
<g mask="url(#mask4_277_100065)">
<path opacity="0.87" d="M7.29806 15.6168C6.90017 16.1848 5.86337 16.1452 4.98253 15.5281C4.1016 14.9111 3.7104 13.9503 4.10829 13.3824C4.50599 12.8144 5.54275 12.8539 6.42368 13.4709C7.30443 14.0879 7.69581 15.0488 7.29806 15.6168Z" fill="#ED1C24"/>
</g>
<mask id="mask5_277_100065" style="mask-type:luminance" maskUnits="userSpaceOnUse" x="9" y="12" width="3" height="4">
<g opacity="0.87">
<path d="M10.795 12.514C11.1903 12.6388 11.2723 13.4974 10.9776 14.4319C10.6829 15.3662 10.1233 16.0227 9.72782 15.8979C9.3323 15.7732 9.2504 14.9146 9.54507 13.9802C9.83982 13.0457 10.3994 12.3893 10.795 12.514Z" fill="url(#paint21_radial_277_100065)"/>
</g>
</mask>
<g mask="url(#mask5_277_100065)">
<path opacity="0.87" d="M10.795 12.514C11.1903 12.6388 11.2723 13.4974 10.9776 14.4319C10.6829 15.3662 10.1233 16.0227 9.72782 15.8979C9.3323 15.7732 9.2504 14.9146 9.54507 13.9802C9.83982 13.0457 10.3994 12.3893 10.795 12.514Z" fill="#ED1C24"/>
</g>
<path d="M7.26665 6.73074C7.67773 7.34995 7.59948 8.15089 7.02058 8.42572C6.44359 8.70287 5.66499 8.45533 5.35302 7.96666C5.03895 7.47568 5.22992 6.82361 5.70792 6.41578C6.18802 6.01018 6.85383 6.10899 7.26665 6.73074Z" fill="url(#paint22_radial_277_100065)"/>
<path d="M7.34043 6.82424C7.75133 7.44345 7.67326 8.24439 7.09427 8.51909C6.51741 8.79619 5.7389 8.54874 5.42675 8.06025C5.11273 7.56923 5.30356 6.91698 5.78161 6.50919C6.26167 6.10368 6.92756 6.20258 7.34043 6.82424Z" fill="#FFF200"/>
<path d="M7.25439 6.80497C7.64715 7.3969 7.57252 8.1623 7.01916 8.42505C6.46776 8.68984 5.72362 8.45323 5.42526 7.98623C5.12519 7.51705 5.30764 6.89361 5.7646 6.50379C6.22343 6.11621 6.85968 6.21077 7.25439 6.80497Z" fill="url(#paint23_radial_277_100065)"/>
<path d="M6.9051 6.43896C7.00608 6.51793 7.10105 6.61896 7.18296 6.74237C7.5717 7.32556 7.50469 8.09694 6.95267 8.36477C6.54529 8.57192 6.02243 8.48876 5.67773 8.25941C6.02399 8.51997 6.57993 8.62528 7.00947 8.41016C7.5635 8.14447 7.62966 7.37255 7.23798 6.78553C7.14109 6.63969 7.02677 6.52314 6.9051 6.43896Z" fill="url(#paint24_radial_277_100065)"/>
<path d="M7.08006 7.0669C7.33861 7.37944 7.28475 7.85067 6.96012 8.11931C6.63531 8.38807 6.16252 8.35249 5.90401 8.03999C5.64528 7.72744 5.69892 7.25639 6.02377 6.98762C6.34862 6.71881 6.82133 6.75435 7.08006 7.0669Z" fill="url(#paint25_radial_277_100065)"/>
<path d="M6.87263 7.23933C7.03947 7.44131 7.00487 7.74583 6.79505 7.91954C6.58523 8.09307 6.27954 8.0701 6.11248 7.86795C5.94559 7.66624 5.98015 7.36163 6.18984 7.1881C6.39975 7.01449 6.70534 7.03745 6.87263 7.23933Z" fill="#3C2415"/>
<path d="M6.21665 7.07833C6.31729 7.1997 6.29629 7.38286 6.17002 7.48737C6.04375 7.59214 5.86001 7.57796 5.75934 7.45669C5.65897 7.33501 5.67971 7.15177 5.80602 7.04744C5.93237 6.94306 6.1162 6.95666 6.21665 7.07833Z" fill="#F2F2F2"/>
<path d="M6.94703 7.37378C6.98841 7.42336 6.97972 7.49808 6.92822 7.54053C6.87677 7.58338 6.80173 7.57763 6.76066 7.52818C6.71987 7.47865 6.72834 7.40396 6.77979 7.36121C6.83133 7.31885 6.90615 7.32442 6.94703 7.37378Z" fill="#F2F2F2"/>
<path d="M9.25036 6.66823C8.83928 7.28744 8.91753 8.08838 9.49648 8.36321C10.0735 8.64035 10.852 8.39281 11.164 7.90415C11.4781 7.41317 11.2871 6.7611 10.8091 6.35327C10.329 5.94767 9.66323 6.04652 9.25036 6.66823Z" fill="url(#paint26_radial_277_100065)"/>
<path d="M9.17655 6.76079C8.76565 7.38 8.84372 8.18095 9.42271 8.45569C9.99952 8.73274 10.7781 8.48529 11.0902 7.99681C11.4042 7.50578 11.2134 6.85353 10.7353 6.44575C10.2553 6.04019 9.58942 6.13909 9.17655 6.76079Z" fill="#FFF200"/>
<path d="M9.26232 6.7402C8.86956 7.33213 8.9442 8.09753 9.49756 8.36032C10.049 8.62508 10.7931 8.38846 11.0915 7.92146C11.3915 7.45229 11.2091 6.82884 10.7521 6.43902C10.2933 6.05157 9.65704 6.14605 9.26232 6.7402Z" fill="url(#paint27_radial_277_100065)"/>
<path d="M9.61167 6.37476C9.51069 6.45372 9.41572 6.55475 9.33381 6.67816C8.94507 7.26135 9.01213 8.03273 9.5641 8.30056C9.97148 8.50771 10.4944 8.42455 10.8391 8.1952C10.4928 8.45576 9.93684 8.56108 9.50734 8.34595C8.95327 8.08026 8.88711 7.30834 9.27879 6.72132C9.37568 6.57553 9.49 6.45893 9.61167 6.37476Z" fill="url(#paint28_radial_277_100065)"/>
<path d="M9.43606 7.00366C9.17746 7.31621 9.23132 7.78744 9.55595 8.05607C9.88081 8.32488 10.3536 8.28925 10.6121 7.97675C10.8708 7.6642 10.8172 7.19315 10.4923 6.92439C10.1675 6.65562 9.69475 6.69107 9.43606 7.00366Z" fill="url(#paint29_radial_277_100065)"/>
<path d="M9.64418 7.17512C9.47729 7.3771 9.51193 7.68162 9.72171 7.85533C9.93153 8.02886 10.2373 8.0059 10.4043 7.80374C10.5712 7.60204 10.5367 7.29742 10.3269 7.1239C10.117 6.95028 9.81142 6.97324 9.64418 7.17512Z" fill="#3C2415"/>
<path d="M10.3242 7.07102C10.2153 7.20224 10.2381 7.40043 10.3747 7.51341C10.5113 7.62674 10.71 7.61145 10.8189 7.48028C10.9275 7.34857 10.905 7.15048 10.7684 7.03745C10.6318 6.92465 10.4329 6.93936 10.3242 7.07102Z" fill="#F2F2F2"/>
<path d="M9.56864 7.31034C9.52727 7.35996 9.53601 7.43464 9.5875 7.47709C9.639 7.51993 9.71395 7.51418 9.75501 7.46474C9.79581 7.41525 9.78734 7.34052 9.73593 7.29776C9.68443 7.25536 9.60953 7.26093 9.56864 7.31034Z" fill="#F2F2F2"/>
<mask id="mask6_277_100065" style="mask-type:luminance" maskUnits="userSpaceOnUse" x="3" y="9" width="6" height="6">
<g opacity="0.87">
<path d="M6.02067 14.0463C4.85038 14.0088 3.9345 12.9595 3.9744 11.7028C4.01488 10.4461 4.99671 9.45791 6.16723 9.49568C7.33721 9.53317 8.25345 10.5823 8.21297 11.839C8.17271 13.0956 7.19092 14.084 6.02067 14.0463Z" fill="url(#paint30_radial_277_100065)"/>
</g>
</mask>
<g mask="url(#mask6_277_100065)">
<path opacity="0.87" d="M6.02019 14.0466C4.84989 14.009 3.93401 12.9598 3.97391 11.7031C4.0144 10.4464 4.99622 9.45816 6.16674 9.49592C7.33672 9.53342 8.25296 10.5825 8.21248 11.8393C8.17222 13.0959 7.19043 14.0843 6.02019 14.0466Z" fill="#ED1C24"/>
</g>
<mask id="mask7_277_100065" style="mask-type:luminance" maskUnits="userSpaceOnUse" x="6" y="9" width="5" height="5">
<g opacity="0.87">
<path d="M8.18278 13.6636C7.01253 13.6259 6.09661 12.5768 6.13651 11.32C6.17699 10.0633 7.15882 9.07518 8.32934 9.11286C9.49932 9.15044 10.4156 10.1995 10.3751 11.4562C10.3348 12.7128 9.35303 13.7012 8.18278 13.6636Z" fill="url(#paint31_radial_277_100065)"/>
</g>
</mask>
<g mask="url(#mask7_277_100065)">
<path opacity="0.87" d="M8.18278 13.6636C7.01253 13.6259 6.09661 12.5768 6.13651 11.32C6.17699 10.0633 7.15882 9.07518 8.32934 9.11286C9.49932 9.15044 10.4156 10.1995 10.3751 11.4562C10.3348 12.7128 9.35303 13.7012 8.18278 13.6636Z" fill="#ED1C24"/>
</g>
<mask id="mask8_277_100065" style="mask-type:luminance" maskUnits="userSpaceOnUse" x="9" y="9" width="5" height="6">
<g opacity="0.87">
<path d="M11.3966 14.1885C10.125 14.1476 9.12982 13.0075 9.17324 11.6421C9.21725 10.2766 10.284 9.20284 11.556 9.24381C12.8272 9.28461 13.8227 10.4245 13.7788 11.7901C13.735 13.1554 12.6682 14.2294 11.3966 14.1885Z" fill="url(#paint32_radial_277_100065)"/>
</g>
</mask>
<g mask="url(#mask8_277_100065)">
<path opacity="0.87" d="M11.3966 14.1885C10.125 14.1476 9.12982 13.0075 9.17324 11.6421C9.21725 10.2766 10.284 9.20284 11.556 9.24381C12.8272 9.28461 13.8227 10.4245 13.7788 11.7901C13.735 13.1554 12.6682 14.2294 11.3966 14.1885Z" fill="#ED1C24"/>
</g>
<path d="M11.1806 11.8741C11.1806 11.8741 11.2261 11.7543 11.0038 11.4675C10.7814 11.1808 10.8831 10.6015 10.9816 10.4091C11.0798 10.2165 11.2616 10.3487 11.4343 10.3213C11.6071 10.2941 11.7425 10.3373 11.7276 10.5487C11.9481 10.4174 12.0861 10.4759 12.1994 10.6834C12.3126 10.8908 12.5176 11.0676 12.7134 11.085C12.9092 11.1024 13.0521 11.1926 12.8878 11.4758C12.7234 11.7592 12.4976 12.1649 12.0225 12.1111C11.5475 12.0575 11.4747 12.0046 11.3774 12.1005" fill="url(#paint33_radial_277_100065)"/>
<path opacity="0.61" d="M12.4609 12.009L11.7682 10.5279C11.7547 10.5347 11.7418 10.5402 11.7276 10.5486C11.7425 10.3373 11.6072 10.294 11.4344 10.3212C11.3056 10.3417 11.1717 10.2734 11.0711 10.3172L11.9037 12.0965C11.9406 12.1013 11.9794 12.1063 12.0226 12.111C12.2002 12.1313 12.3431 12.087 12.4609 12.009ZM11.6259 12.0576L10.9259 10.5612C10.8557 10.8168 10.8249 11.2367 11.0038 11.4675C11.226 11.7542 11.1806 11.874 11.1806 11.874L11.3775 12.1004C11.437 12.0418 11.4876 12.0389 11.6259 12.0576ZM12.8879 11.4757C12.9483 11.3713 12.9669 11.2931 12.9567 11.2351L12.925 11.1673C12.8822 11.1167 12.8036 11.0929 12.7135 11.0849C12.5176 11.0675 12.3127 10.8907 12.1995 10.6832C12.1448 10.5827 12.0838 10.5179 12.0107 10.4921L12.643 11.8435C12.7432 11.7269 12.8207 11.5914 12.8879 11.4757Z" fill="#F2F2F2"/>
<path d="M8.85557 15.4872C8.85557 15.4872 8.81009 15.5892 9.03235 15.8333C9.25466 16.0775 9.15314 16.5707 9.05474 16.7346C8.95647 16.8986 8.77451 16.7861 8.60179 16.8092C8.42928 16.8325 8.29365 16.7958 8.30859 16.6157C8.08816 16.7276 7.9499 16.6776 7.83687 16.501C7.72353 16.3244 7.51853 16.1739 7.32279 16.159C7.12693 16.1443 6.98416 16.0674 7.1486 15.8261C7.31285 15.5848 7.53859 15.2394 8.01361 15.2851C8.48881 15.3307 8.56139 15.3759 8.65904 15.2941" fill="url(#paint34_radial_277_100065)"/>
<path opacity="0.61" d="M7.1486 15.826C7.12091 15.8665 7.10277 15.902 7.09131 15.9337L7.20393 16.1388C7.23916 16.1492 7.27955 16.1557 7.3228 16.159C7.51858 16.1738 7.72354 16.3243 7.83688 16.5009C7.90848 16.613 7.99043 16.6735 8.09672 16.6747L7.43649 15.4726C7.31486 15.5799 7.22484 15.7141 7.1486 15.826ZM9.01448 16.7835L8.20212 15.3053C8.14733 15.2988 8.08562 15.292 8.01357 15.2851C7.86064 15.2704 7.73366 15.2965 7.62634 15.3464L8.42773 16.805C8.47637 16.8181 8.53643 16.818 8.60175 16.8091C8.75325 16.7888 8.91135 16.8726 9.01448 16.7835ZM8.47918 15.3375L9.13219 16.5259C9.18462 16.308 9.191 16.0075 9.03245 15.8332C8.81023 15.5891 8.85567 15.4871 8.85567 15.4871L8.65909 15.2941C8.6104 15.3347 8.56809 15.344 8.47918 15.3375Z" fill="#F2F2F2"/>
<path d="M11.1793 11.7617C11.1793 11.7617 9.61908 11.7667 8.99621 12.203C8.37317 12.6392 8.11042 13.4208 8.29148 14.2612C8.47232 15.1017 8.48472 15.18 8.52186 15.4157C8.56471 15.5859 8.67648 15.6808 8.79464 15.6139C8.91275 15.5469 9.52166 15.5313 10.1075 15.471C10.6934 15.4106 12.0792 15.015 11.752 13.2483C11.4932 12.0179 11.4932 12.0179 11.4932 12.0179C11.4932 12.0179 11.4282 11.7064 11.1793 11.7617Z" fill="url(#paint35_radial_277_100065)"/>
<path d="M10.2415 15.2082C9.36587 15.3465 8.54384 14.7485 8.40563 13.8729C8.26732 12.9972 8.86522 12.1753 9.74093 12.037C10.6165 11.8987 11.4386 12.4967 11.5769 13.3722C11.7152 14.2478 11.1173 15.0699 10.2415 15.2082Z" fill="url(#paint36_radial_277_100065)"/>
<mask id="mask9_277_100065" style="mask-type:luminance" maskUnits="userSpaceOnUse" x="8" y="12" width="2" height="3">
<path d="M9.00868 12.726C9.41869 12.6614 9.82143 13.0536 9.90802 13.6021C9.99465 14.1507 9.7324 14.648 9.32225 14.7127C8.91206 14.7774 8.5094 14.3851 8.42277 13.8367C8.33618 13.2879 8.59853 12.7908 9.00868 12.726Z" fill="url(#paint37_linear_277_100065)"/>
</mask>
<g mask="url(#mask9_277_100065)">
<path d="M9.00916 12.726C9.41918 12.6614 9.82192 13.0536 9.90851 13.6021C9.99514 14.1507 9.73288 14.648 9.32274 14.7127C8.91255 14.7774 8.50989 14.3851 8.42326 13.8367C8.33667 13.2879 8.59902 12.7908 9.00916 12.726Z" fill="#F2F2F2"/>
</g>
<mask id="mask10_277_100065" style="mask-type:luminance" maskUnits="userSpaceOnUse" x="9" y="12" width="3" height="3">
<path d="M10.8949 14.4819C10.4848 14.5466 10.0821 14.1544 9.99551 13.6057C9.90897 13.0574 10.1712 12.56 10.5813 12.4953C10.9915 12.4305 11.3943 12.8228 11.4808 13.3712C11.5675 13.9199 11.3051 14.4171 10.8949 14.4819Z" fill="url(#paint38_linear_277_100065)"/>
</mask>
<g mask="url(#mask10_277_100065)">
<path d="M10.8949 14.4819C10.4848 14.5466 10.0821 14.1544 9.99551 13.6057C9.90897 13.0574 10.1712 12.56 10.5813 12.4953C10.9915 12.4305 11.3943 12.8228 11.4808 13.3712C11.5675 13.9199 11.3051 14.4171 10.8949 14.4819Z" fill="#F2F2F2"/>
</g>
<path d="M11.4729 13.4222C11.4322 13.4287 11.3872 13.3566 11.3721 13.2612C11.3571 13.1659 11.3778 13.0835 11.4182 13.0771C11.4589 13.0706 11.5039 13.1427 11.519 13.2381C11.5339 13.3334 11.5132 13.4158 11.4729 13.4222Z" fill="#F2F2F2"/>
<path d="M11.096 12.4174C11.0771 12.4409 11.0174 12.4241 10.9624 12.38C10.9074 12.3362 10.878 12.2813 10.8968 12.2579C10.9156 12.2345 10.9753 12.2513 11.0302 12.2955C11.0852 12.3394 11.1146 12.3942 11.096 12.4174Z" fill="#F2F2F2"/>
<path opacity="0.61" d="M8.23535 13.7451L9.07499 15.5585C9.25196 15.5395 9.49005 15.5238 9.74543 15.5035L8.47326 12.7845C8.31735 13.0663 8.23566 13.3942 8.23535 13.7451ZM10.6543 15.3474L9.14263 12.116C9.08962 12.1429 9.03977 12.1718 8.99519 12.2029C8.8629 12.2955 8.748 12.4044 8.64889 12.5255L10.0304 15.4783C10.0559 15.4759 10.0812 15.4735 10.1064 15.4709C10.2523 15.456 10.4479 15.4201 10.6543 15.3474ZM11.7939 13.5855L10.9439 11.7683C10.7789 11.7758 10.5422 11.7911 10.2843 11.8232L11.59 14.6137C11.7387 14.3537 11.8234 14.0179 11.7939 13.5855ZM11.4098 14.8633L10.0064 11.8637C9.79448 11.8993 9.58091 11.9478 9.39102 12.0129L10.902 15.2426C11.0832 15.1522 11.2609 15.0291 11.4098 14.8633Z" fill="#F2F2F2"/>
<path d="M10.3427 10.6966C10.3427 10.6966 10.3862 10.576 10.1592 10.2931C9.93202 10.0101 10.0241 9.42927 10.1193 9.23514C10.2144 9.04106 10.3984 9.17014 10.5705 9.14C10.7428 9.10981 10.879 9.1507 10.8677 9.36235C11.0859 9.22725 11.2251 9.28356 11.3416 9.48902C11.4582 9.69469 11.6661 9.868 11.8623 9.88213C12.0583 9.89609 12.2026 9.98401 12.0431 10.27C11.8835 10.5561 11.6644 10.9655 11.1885 10.9196C10.7127 10.8738 10.6392 10.8222 10.5432 10.9197" fill="#2A3990"/>
<path opacity="0.5" d="M11.6252 10.8101L10.908 9.34095C10.8946 9.34799 10.8818 9.35374 10.8679 9.3623C10.8792 9.15065 10.743 9.10977 10.5707 9.13995C10.4423 9.16238 10.3073 9.0963 10.2075 9.142L11.0696 10.9072C11.1065 10.9113 11.1454 10.9155 11.1887 10.9196C11.3667 10.9368 11.5089 10.8901 11.6252 10.8101Z" fill="#99DBF9"/>
<path opacity="0.5" d="M10.7905 10.872L10.0657 9.38745C9.99976 9.64427 9.976 10.0646 10.1586 10.2923C10.3856 10.5752 10.3422 10.6958 10.3422 10.6958L10.5427 10.9189C10.6013 10.8593 10.652 10.8556 10.7905 10.872Z" fill="#99DBF9"/>
<path opacity="0.5" d="M12.0434 10.269C12.1022 10.1635 12.1195 10.0852 12.1083 10.0273L12.0755 9.95997C12.0317 9.90999 11.9528 9.88765 11.8626 9.88109C11.6665 9.86696 11.4586 9.69365 11.342 9.48798C11.2855 9.38846 11.2235 9.32484 11.1499 9.30005L11.8047 10.6408C11.9031 10.5225 11.9782 10.3856 12.0434 10.269Z" fill="#99DBF9"/>
<path d="M8.07973 14.3827C8.07973 14.3827 8.0363 14.5033 8.26325 14.7863C8.49023 15.0692 8.39839 15.6501 8.30324 15.8442C8.20809 16.0383 8.02395 15.9092 7.85185 15.9394C7.6797 15.9696 7.54354 15.9287 7.55482 15.717C7.33653 15.8521 7.19746 15.7959 7.08087 15.5904C6.96419 15.3847 6.75646 15.2114 6.5602 15.1973C6.36424 15.1833 6.21974 15.0954 6.37949 14.8094C6.53911 14.5233 6.75798 14.114 7.23384 14.1598C7.70976 14.2054 7.78332 14.2572 7.87927 14.1597" fill="#2A3990"/>
<path opacity="0.5" d="M6.37995 14.8086C6.35302 14.8564 6.33563 14.8985 6.32471 14.9358L6.44143 15.1746C6.47701 15.1864 6.51741 15.1933 6.56066 15.1964C6.75688 15.2105 6.96465 15.3838 7.08133 15.5895C7.1553 15.7197 7.23827 15.7894 7.3447 15.7891L6.66084 14.3887C6.54144 14.5167 6.45387 14.6757 6.37995 14.8086Z" fill="#99DBF9"/>
<path opacity="0.5" d="M8.26357 15.9025L7.42237 14.1802C7.36748 14.1737 7.30564 14.1666 7.23355 14.1597C7.08035 14.145 6.95399 14.1779 6.84766 14.2381L7.67731 15.9375C7.72631 15.952 7.78624 15.9509 7.85151 15.9394C8.00252 15.913 8.1621 16.0087 8.26357 15.9025Z" fill="#99DBF9"/>
<path opacity="0.5" d="M7.7002 14.2131L8.37621 15.5977C8.42423 15.3409 8.4249 14.9881 8.26292 14.7861C8.03597 14.5031 8.0794 14.3825 8.0794 14.3825L7.87899 14.1594C7.83123 14.2078 7.78901 14.2193 7.7002 14.2131Z" fill="#99DBF9"/>
<path d="M10.3395 10.5823C10.3395 10.5823 8.77967 10.6132 8.16403 11.0599C7.5483 11.5064 7.29875 12.2924 7.49368 13.1296C7.68856 13.9667 7.70221 14.0449 7.74336 14.2798C7.78906 14.4495 7.9024 14.5425 8.01935 14.4737C8.13625 14.4047 8.74481 14.3789 9.32973 14.3089C9.91447 14.2389 11.2935 13.8201 10.9369 12.0591C10.6576 10.8332 10.6576 10.8332 10.6576 10.8332C10.6576 10.8332 10.5875 10.5227 10.3395 10.5823Z" fill="#2A3990"/>
<path d="M9.46128 14.0449C8.58811 14.1979 7.75622 13.6138 7.60343 12.7404C7.4505 11.8672 8.03462 11.0353 8.90783 10.8824C9.78109 10.7297 10.613 11.3137 10.7658 12.187C10.9187 13.0602 10.3346 13.8921 9.46128 14.0449Z" fill="url(#paint39_radial_277_100065)"/>
<mask id="mask11_277_100065" style="mask-type:luminance" maskUnits="userSpaceOnUse" x="7" y="11" width="3" height="3">
<path d="M8.18563 11.584C8.59475 11.5125 9.00374 11.8979 9.09951 12.4449C9.19532 12.992 8.94127 13.4936 8.53242 13.5652C8.12339 13.6368 7.71409 13.2512 7.61832 12.7042C7.52259 12.157 7.77673 11.6556 8.18563 11.584Z" fill="url(#paint40_linear_277_100065)"/>
</mask>
<g mask="url(#mask11_277_100065)">
<path d="M8.18563 11.584C8.59475 11.5125 9.00374 11.8979 9.09951 12.4449C9.19532 12.992 8.94127 13.4936 8.53242 13.5652C8.12339 13.6368 7.71409 13.2512 7.61832 12.7042C7.52259 12.157 7.77673 11.6556 8.18563 11.584Z" fill="#F2F2F2"/>
</g>
<mask id="mask12_277_100065" style="mask-type:luminance" maskUnits="userSpaceOnUse" x="9" y="11" width="2" height="3">
<path d="M10.1019 13.3063C9.69295 13.3779 9.28374 12.9925 9.18819 12.4454C9.09237 11.8983 9.34629 11.3968 9.75528 11.3252C10.1643 11.2537 10.5735 11.6392 10.6693 12.1862C10.7651 12.7333 10.511 13.2347 10.1019 13.3063Z" fill="url(#paint41_linear_277_100065)"/>
</mask>
<g mask="url(#mask12_277_100065)">
<path d="M10.1019 13.3063C9.69295 13.3779 9.28374 12.9925 9.18819 12.4454C9.09237 11.8983 9.34629 11.3968 9.75528 11.3252C10.1643 11.2537 10.5735 11.6392 10.6693 12.1862C10.7651 12.7333 10.511 13.2347 10.1019 13.3063Z" fill="#F2F2F2"/>
</g>
<path d="M10.5576 12.0781C10.5742 12.1731 10.6204 12.2445 10.6608 12.2374C10.7012 12.2304 10.7205 12.1476 10.7039 12.0525C10.6873 11.9574 10.6411 11.8861 10.6007 11.8932C10.5602 11.9002 10.5409 11.983 10.5576 12.0781Z" fill="#F2F2F2"/>
<path d="M10.2679 11.241C10.2493 11.2646 10.1895 11.2488 10.1337 11.2057C10.078 11.1628 10.0476 11.1084 10.0659 11.0848C10.0843 11.061 10.1444 11.0768 10.2001 11.12C10.2558 11.163 10.2862 11.2173 10.2679 11.241Z" fill="#F2F2F2"/>
<path d="M4.97816 12.1077C4.97816 12.1077 4.86687 12.0442 4.54902 12.219C4.23117 12.3938 3.67482 12.2032 3.5 12.0759C3.32522 11.9487 3.48408 11.7897 3.48408 11.615C3.48408 11.4401 3.54784 11.313 3.75441 11.3607C3.65904 11.1223 3.7384 10.9951 3.96097 10.9157C4.18355 10.8362 4.39011 10.6613 4.43773 10.4706C4.48544 10.2799 4.59686 10.1528 4.85109 10.3594C5.10536 10.566 5.47088 10.8522 5.34376 11.3131C5.21661 11.774 5.15316 11.8375 5.23257 11.9488" fill="url(#paint42_linear_277_100065)"/>
<path d="M8.2203 14.9714C8.2203 14.9714 8.33163 15.035 8.64944 14.8602C8.96734 14.6853 9.52364 14.876 9.69846 15.0032C9.87324 15.1304 9.71438 15.2894 9.71438 15.4642C9.71438 15.639 9.65066 15.7661 9.44405 15.7185C9.53947 15.9569 9.46006 16.0841 9.23749 16.1635C9.01491 16.2429 8.80835 16.4178 8.76073 16.6085C8.71302 16.7993 8.60169 16.9263 8.34737 16.7197C8.09305 16.5132 7.72758 16.227 7.8547 15.766C7.98186 15.3051 8.04535 15.2417 7.96589 15.1303" fill="url(#paint43_linear_277_100065)"/>
<path d="M4.86668 12.0918C4.86668 12.0918 4.62823 13.6337 4.96209 14.317C5.29582 15.0004 6.02703 15.3819 6.88527 15.3342C7.74355 15.2865 7.823 15.2865 8.06144 15.2865C8.23631 15.2707 8.34755 15.1752 8.29984 15.048C8.25218 14.921 8.33172 14.317 8.36347 13.7289C8.39521 13.1407 8.22053 11.7103 6.42442 11.758C5.16879 11.8216 5.16879 11.8216 5.16879 11.8216C5.16879 11.8216 4.85076 11.8375 4.86668 12.0918Z" fill="url(#paint44_linear_277_100065)"/>
<path d="M6.51982 15.1593C7.40639 15.1593 8.1251 14.4406 8.1251 13.554C8.1251 12.6674 7.40639 11.9487 6.51982 11.9487C5.63326 11.9487 4.91455 12.6674 4.91455 13.554C4.91455 14.4406 5.63326 15.1593 6.51982 15.1593Z" fill="url(#paint45_linear_277_100065)"/>
<path opacity="0.52" d="M4.91455 13.5542C4.91455 13.7207 4.94001 13.8813 4.98705 14.0324H8.05265C8.09973 13.8813 8.12514 13.7207 8.12514 13.5542C8.12514 13.362 8.08956 13.1786 8.02768 13.0078H5.01197C4.95009 13.1786 4.91455 13.362 4.91455 13.5542Z" fill="#F2F2F2"/>
<mask id="mask13_277_100065" style="mask-type:luminance" maskUnits="userSpaceOnUse" x="5" y="13" width="3" height="3">
<path d="M6.48704 15.1353C7.04241 15.1353 7.49263 14.7987 7.49263 14.3836C7.49263 13.9684 7.04241 13.6318 6.48704 13.6318C5.93166 13.6318 5.48145 13.9684 5.48145 14.3836C5.48145 14.7987 5.93166 15.1353 6.48704 15.1353Z" fill="url(#paint46_linear_277_100065)"/>
</mask>
<g mask="url(#mask13_277_100065)">
<path d="M6.48704 15.1353C7.04241 15.1353 7.49263 14.7987 7.49263 14.3836C7.49263 13.9684 7.04241 13.6318 6.48704 13.6318C5.93166 13.6318 5.48145 13.9684 5.48145 14.3836C5.48145 14.7987 5.93166 15.1353 6.48704 15.1353Z" fill="#F2F2F2"/>
</g>
<mask id="mask14_277_100065" style="mask-type:luminance" maskUnits="userSpaceOnUse" x="5" y="12" width="3" height="2">
<path d="M6.5032 13.5474C7.05859 13.5474 7.50883 13.2108 7.50883 12.7957C7.50883 12.3805 7.05859 12.0439 6.5032 12.0439C5.9478 12.0439 5.49756 12.3805 5.49756 12.7957C5.49756 13.2108 5.9478 13.5474 6.5032 13.5474Z" fill="url(#paint47_linear_277_100065)"/>
</mask>
<g mask="url(#mask14_277_100065)">
<path d="M6.5032 13.5474C7.05859 13.5474 7.50883 13.2108 7.50883 12.7957C7.50883 12.3805 7.05859 12.0439 6.5032 12.0439C5.9478 12.0439 5.49756 12.3805 5.49756 12.7957C5.49756 13.2108 5.9478 13.5474 6.5032 13.5474Z" fill="#F2F2F2"/>
</g>
<path d="M6.37644 12.1329C6.47296 12.1329 6.55121 12.0997 6.55121 12.0587C6.55121 12.0176 6.47296 11.9844 6.37644 11.9844C6.27991 11.9844 6.20166 12.0176 6.20166 12.0587C6.20166 12.0997 6.27991 12.1329 6.37644 12.1329Z" fill="#F2F2F2"/>
<path d="M5.50167 12.2757C5.52185 12.298 5.49599 12.3543 5.44381 12.4018C5.39182 12.4493 5.33315 12.4697 5.31297 12.4476C5.29288 12.4254 5.31866 12.369 5.37092 12.3216C5.42287 12.2741 5.48158 12.2537 5.50167 12.2757Z" fill="#F2F2F2"/>
<path d="M7.37157 10.814C7.37157 10.814 7.33042 10.6926 6.97663 10.6126C6.6227 10.5326 6.3329 10.0209 6.28653 9.80975C6.24002 9.59859 6.46438 9.58499 6.58035 9.45413C6.69632 9.32327 6.82825 9.27048 6.95126 9.44311C7.03793 9.20146 7.18172 9.15888 7.40095 9.24711C7.62032 9.33535 7.89082 9.34146 8.05307 9.23035C8.21523 9.11929 8.38283 9.09811 8.43611 9.42127C8.48934 9.74452 8.57298 10.2011 8.1722 10.4617C7.77137 10.7223 7.68171 10.7277 7.66735 10.8637" fill="url(#paint48_radial_277_100065)"/>
<path opacity="0.61" d="M8.44561 10.1042L6.96936 9.40143C6.9633 9.4152 6.95692 9.42769 6.95135 9.44312C6.82829 9.27048 6.69636 9.32327 6.58044 9.45413C6.4939 9.55173 6.34717 9.58414 6.29736 9.68187L8.07131 10.5262C8.10269 10.5063 8.13582 10.4854 8.17229 10.4617C8.32215 10.3643 8.40432 10.2393 8.44561 10.1042ZM7.8321 10.6726L6.34034 9.9625C6.44878 10.2045 6.69195 10.5481 6.97663 10.6126C7.33046 10.6925 7.37157 10.8139 7.37157 10.8139L7.66736 10.8636C7.6761 10.7806 7.71346 10.7461 7.8321 10.6726ZM8.43615 9.42127C8.41653 9.30205 8.38122 9.22995 8.33655 9.19169L8.26878 9.15946C8.2035 9.14764 8.1278 9.17921 8.05312 9.23035C7.89087 9.34146 7.62036 9.33531 7.401 9.24712C7.29484 9.20436 7.20665 9.19312 7.13375 9.2197L8.48105 9.86089C8.48422 9.70698 8.45787 9.55302 8.43615 9.42127Z" fill="#F2F2F2"/>
<path d="M7.8973 15.1084C7.8973 15.1084 7.9385 15.2298 8.29229 15.3098C8.64613 15.3898 8.93602 15.9015 8.98239 16.1127C9.02885 16.3238 8.8045 16.3374 8.68857 16.4682C8.5726 16.599 8.44063 16.6519 8.31766 16.4792C8.23094 16.7209 8.08711 16.7634 7.86792 16.6752C7.6486 16.587 7.37806 16.5809 7.21581 16.692C7.05365 16.8031 6.88605 16.8243 6.83277 16.501C6.77949 16.1778 6.69585 15.7212 7.09667 15.4606C7.4975 15.2 7.58721 15.1947 7.60152 15.0586" fill="url(#paint49_radial_277_100065)"/>
<path opacity="0.61" d="M6.83264 16.501C6.84147 16.5552 6.854 16.5989 6.8688 16.635L7.10889 16.7492C7.14389 16.7362 7.17992 16.7165 7.21572 16.692C7.37797 16.5809 7.64852 16.587 7.86784 16.6752C8.00677 16.7311 8.1152 16.7339 8.19813 16.6674L6.79104 15.9975C6.77722 16.1721 6.80785 16.3509 6.83264 16.501ZM8.98775 16.1827L7.25714 15.359C7.21001 15.388 7.15731 15.4211 7.09654 15.4605C6.96747 15.5445 6.88908 15.6489 6.84334 15.7623L8.55085 16.5751C8.5982 16.556 8.64448 16.5178 8.68844 16.4682C8.79001 16.3535 8.97464 16.3289 8.98775 16.1827ZM7.49505 15.2121L8.88609 15.8743C8.76393 15.6434 8.54461 15.367 8.29216 15.3098C7.93833 15.2298 7.89717 15.1084 7.89717 15.1084L7.60139 15.0586C7.59426 15.1262 7.56835 15.1615 7.49505 15.2121Z" fill="#F2F2F2"/>
<path d="M7.29872 10.7282C7.29872 10.7282 6.09757 11.7239 5.89408 12.4567C5.69046 13.1895 5.98464 13.9599 6.65855 14.4936C7.33247 15.0272 7.39191 15.0799 7.57029 15.238C7.71168 15.3423 7.85823 15.3445 7.90687 15.2178C7.95552 15.091 8.41564 14.6918 8.82949 14.2728C9.24334 13.8538 10.0615 12.6674 8.68579 11.5117C7.70396 10.7264 7.70396 10.7264 7.70396 10.7264C7.70396 10.7264 7.45557 10.5273 7.29872 10.7282Z" fill="url(#paint50_radial_277_100065)"/>
<path d="M8.76744 13.9831C8.17944 14.6464 7.1648 14.7075 6.50145 14.1195C5.83797 13.5315 5.77688 12.5169 6.36488 11.8534C6.95293 11.19 7.96766 11.1289 8.63101 11.7169C9.29436 12.3049 9.35544 13.3196 8.76744 13.9831Z" fill="url(#paint51_radial_277_100065)"/>
<mask id="mask15_277_100065" style="mask-type:luminance" maskUnits="userSpaceOnUse" x="6" y="12" width="2" height="3">
<path d="M6.23773 12.8516C6.51322 12.5409 7.07331 12.5876 7.48894 12.9561C7.90457 13.3244 8.01818 13.8749 7.74291 14.1857C7.46741 14.4964 6.90714 14.4497 6.49151 14.0812C6.07592 13.7128 5.96236 13.1623 6.23773 12.8516Z" fill="url(#paint52_linear_277_100065)"/>
</mask>
<g mask="url(#mask15_277_100065)">
<path d="M7.48875 12.9558C7.07309 12.5874 6.5129 12.5407 6.23752 12.8514C5.96214 13.1621 6.07586 13.7126 6.49152 14.081C6.90718 14.4494 7.46738 14.4962 7.74276 14.1855C8.01813 13.8748 7.90441 13.3242 7.48875 12.9558Z" fill="#F2F2F2"/>
</g>
<mask id="mask16_277_100065" style="mask-type:luminance" maskUnits="userSpaceOnUse" x="7" y="11" width="2" height="3">
<path d="M8.80821 13.0073C8.5328 13.318 7.97267 13.2712 7.55699 12.9027C7.14145 12.5344 7.02775 11.9838 7.30312 11.6731C7.57861 11.3624 8.13888 11.4092 8.55438 11.7775C8.97005 12.1459 9.08366 12.6966 8.80821 13.0073Z" fill="url(#paint53_linear_277_100065)"/>
</mask>
<g mask="url(#mask16_277_100065)">
<path d="M8.80821 13.0073C8.5328 13.318 7.97267 13.2712 7.55699 12.9027C7.14145 12.5344 7.02775 11.9838 7.30312 11.6731C7.57861 11.3624 8.13888 11.4092 8.55438 11.7775C8.97005 12.1459 9.08366 12.6966 8.80821 13.0073Z" fill="#F2F2F2"/>
</g>
<path d="M8.40081 11.7611C8.47302 11.8251 8.55363 11.8521 8.58086 11.8214C8.60809 11.7906 8.57162 11.7138 8.4994 11.6498C8.42719 11.5858 8.34658 11.5588 8.31935 11.5896C8.29213 11.6203 8.32859 11.6971 8.40081 11.7611Z" fill="#F2F2F2"/>
<path d="M7.65134 11.2873C7.65165 11.3173 7.59507 11.3421 7.52489 11.3431C7.45476 11.3442 7.39738 11.3206 7.39697 11.2908C7.39657 11.261 7.45315 11.236 7.52346 11.2351C7.5936 11.2341 7.65089 11.2576 7.65134 11.2873Z" fill="#F2F2F2"/>
<path opacity="0.61" d="M6.28856 14.1301L8.08947 14.9961C8.214 14.8689 8.38784 14.7055 8.57198 14.5275L5.86156 13.2373C5.92032 13.554 6.06581 13.8591 6.28856 14.1301ZM9.17434 13.8292L5.95323 12.2957C5.92928 12.3503 5.90922 12.4043 5.89468 12.4567C5.85144 12.6122 5.83195 12.7693 5.83253 12.9257L8.77614 14.3268C8.7942 14.3088 8.81226 14.2907 8.83009 14.2726C8.93317 14.1684 9.06132 14.0165 9.17434 13.8292ZM8.93389 11.7446L7.12263 10.8823C6.99997 10.993 6.82711 11.1553 6.64832 11.344L9.43009 12.6679C9.37961 12.3727 9.23154 12.0596 8.93389 11.7446ZM9.44984 12.9751L6.45954 11.5519C6.31865 11.7142 6.18463 11.8873 6.0794 12.0583L9.29896 13.5906C9.38135 13.4057 9.44034 13.1978 9.44984 12.9751Z" fill="#F2F2F2"/>
<path d="M4.6238 13.7517C4.69888 13.7673 4.77606 13.7685 4.84954 13.7592C4.79283 13.5524 4.77816 13.3561 4.77691 13.2211C4.48068 13.206 4.08092 13.1879 3.70132 12.9369C2.71227 12.3768 2.3208 10.7183 2.3208 10.7183C0.881076 11.8966 1.19719 14.4657 3.09927 15.305C5.00162 16.1443 5.7043 15.1814 5.81527 14.6637C5.92611 14.1461 5.13137 13.9604 4.6238 13.7517Z" fill="url(#paint54_radial_277_100065)"/>
<path d="M13.8654 9.95483C13.8654 9.95483 13.6094 11.6395 12.6688 12.2777C12.3186 12.5524 11.9322 12.6064 11.6402 12.6452C11.6547 12.739 11.6666 12.8337 11.6717 12.9305C11.6766 13.0176 11.6766 13.1037 11.6738 13.1892C11.7213 13.1858 11.7688 13.1781 11.8153 13.1644C11.3262 13.4135 10.5491 13.6628 10.7016 14.1699C10.854 14.6768 11.6323 15.5797 13.4604 14.5893C15.2884 13.5989 15.3957 11.0127 13.8654 9.95483Z" fill="url(#paint55_radial_277_100065)"/>
<defs>
<radialGradient id="paint0_radial_277_100065" cx="0" cy="0" r="1" gradientUnits="userSpaceOnUse" gradientTransform="translate(8.04479 6.132) scale(8.72589 8.7259)">
<stop offset="0.0714" stop-color="#F9EC00"/>
<stop offset="0.3407" stop-color="#F2BE1D"/>
<stop offset="0.6868" stop-color="#ED9D23"/>
<stop offset="1" stop-color="#E87326"/>
</radialGradient>
<radialGradient id="paint1_radial_277_100065" cx="0" cy="0" r="1" gradientUnits="userSpaceOnUse" gradientTransform="translate(5.60851 9.1384) rotate(9.553) scale(1.1564 0.719411)">
<stop stop-color="white"/>
<stop offset="1"/>
</radialGradient>
<radialGradient id="paint2_radial_277_100065" cx="0" cy="0" r="1" gradientUnits="userSpaceOnUse" gradientTransform="translate(10.8056 9.04667) rotate(-15.5651) scale(1.15636 0.719375)">
<stop stop-color="white"/>
<stop offset="1"/>
</radialGradient>
<radialGradient id="paint3_radial_277_100065" cx="0" cy="0" r="1" gradientUnits="userSpaceOnUse" gradientTransform="translate(8.04683 8.29566) rotate(-1.18609) scale(1.35892)">
<stop offset="0.0714" stop-color="#F2BE1D"/>
<stop offset="0.6868" stop-color="#ED9D23"/>
<stop offset="1" stop-color="#E87326"/>
</radialGradient>
<radialGradient id="paint4_radial_277_100065" cx="0" cy="0" r="1" gradientUnits="userSpaceOnUse" gradientTransform="translate(6.28514 4.81413) rotate(3.22751) scale(0.886134)">
<stop offset="0.0714" stop-color="#F2BE1D"/>
<stop offset="0.6868" stop-color="#ED9D23"/>
<stop offset="1" stop-color="#E87326"/>
</radialGradient>
<radialGradient id="paint5_radial_277_100065" cx="0" cy="0" r="1" gradientUnits="userSpaceOnUse" gradientTransform="translate(9.44816 4.86143) rotate(166.043) scale(0.886029)">
<stop offset="0.0714" stop-color="#F2BE1D"/>
<stop offset="0.6868" stop-color="#ED9D23"/>
<stop offset="1" stop-color="#E87326"/>
</radialGradient>
<radialGradient id="paint6_radial_277_100065" cx="0" cy="0" r="1" gradientUnits="userSpaceOnUse" gradientTransform="translate(5.15092 13.7953) rotate(24.9777) scale(2.18321 1.24417)">
<stop stop-color="white"/>
<stop offset="1"/>
</radialGradient>
<radialGradient id="paint7_radial_277_100065" cx="0" cy="0" r="1" gradientUnits="userSpaceOnUse" gradientTransform="translate(9.64295 12.9189) rotate(-17.9623) scale(2.35969 1.69123)">
<stop stop-color="white"/>
<stop offset="1"/>
</radialGradient>
<radialGradient id="paint8_radial_277_100065" cx="0" cy="0" r="1" gradientUnits="userSpaceOnUse" gradientTransform="translate(6.88984 5.8266) scale(3.83777 3.83777)">
<stop offset="0.0714" stop-color="#F9EC00"/>
<stop offset="0.3407" stop-color="#F2BE1D"/>
<stop offset="0.6868" stop-color="#ED9D23"/>
<stop offset="1" stop-color="#E87326"/>
</radialGradient>
<radialGradient id="paint9_radial_277_100065" cx="0" cy="0" r="1" gradientUnits="userSpaceOnUse" gradientTransform="translate(8.71386 2.71422) scale(4.39196 4.39196)">
<stop stop-color="white"/>
<stop offset="1" stop-color="#CEDAD9"/>
</radialGradient>
<radialGradient id="paint10_radial_277_100065" cx="0" cy="0" r="1" gradientUnits="userSpaceOnUse" gradientTransform="translate(9.19433 1.36528) scale(1.63487)">
<stop stop-color="#F1A7B8"/>
<stop offset="1" stop-color="#EE87A6"/>
</radialGradient>
<radialGradient id="paint11_radial_277_100065" cx="0" cy="0" r="1" gradientUnits="userSpaceOnUse" gradientTransform="translate(11.587 6.20284) scale(2.26026)">
<stop offset="0.0714" stop-color="#F9EC00"/>
<stop offset="0.3407" stop-color="#F2BE1D"/>
<stop offset="0.6868" stop-color="#ED9D23"/>
<stop offset="1" stop-color="#E87326"/>
</radialGradient>
<radialGradient id="paint12_radial_277_100065" cx="0" cy="0" r="1" gradientUnits="userSpaceOnUse" gradientTransform="translate(11.8845 5.8015) scale(2.62609 2.62609)">
<stop stop-color="white"/>
<stop offset="1" stop-color="#CEDAD9"/>
</radialGradient>
<radialGradient id="paint13_radial_277_100065" cx="0" cy="0" r="1" gradientUnits="userSpaceOnUse" gradientTransform="translate(10.623 4.30415) scale(0.726105)">
<stop stop-color="#F1A7B8"/>
<stop offset="1" stop-color="#EE87A6"/>
</radialGradient>
<radialGradient id="paint14_radial_277_100065" cx="0" cy="0" r="1" gradientUnits="userSpaceOnUse" gradientTransform="translate(8.20008 2.61044) scale(3.79647)">
<stop stop-color="white"/>
<stop offset="1" stop-color="#CEDAD9"/>
</radialGradient>
<radialGradient id="paint15_radial_277_100065" cx="0" cy="0" r="1" gradientUnits="userSpaceOnUse" gradientTransform="translate(8.60528 3.2491) scale(3.91817)">
<stop stop-color="white"/>
<stop offset="1" stop-color="#CEDAD9"/>
</radialGradient>
<radialGradient id="paint16_radial_277_100065" cx="0" cy="0" r="1" gradientUnits="userSpaceOnUse" gradientTransform="translate(7.26151 4.88618) scale(5.08687 5.08687)">
<stop stop-color="white"/>
<stop offset="1" stop-color="#CEDAD9"/>
</radialGradient>
<radialGradient id="paint17_radial_277_100065" cx="0" cy="0" r="1" gradientUnits="userSpaceOnUse" gradientTransform="translate(7.48031 3.59528) scale(2.46252 2.46252)">
<stop stop-color="#F1A7B8"/>
<stop offset="1" stop-color="#EE87A6"/>
</radialGradient>
<radialGradient id="paint18_radial_277_100065" cx="0" cy="0" r="1" gradientUnits="userSpaceOnUse" gradientTransform="translate(2.07931 5.16509) scale(2.36196)">
<stop stop-color="#F1A7B8"/>
<stop offset="1" stop-color="#EE87A6"/>
</radialGradient>
<radialGradient id="paint19_radial_277_100065" cx="0" cy="0" r="1" gradientUnits="userSpaceOnUse" gradientTransform="translate(14.0522 6.78087) scale(1.21597)">
<stop stop-color="#F1A7B8"/>
<stop offset="1" stop-color="#EE87A6"/>
</radialGradient>
<radialGradient id="paint20_radial_277_100065" cx="0" cy="0" r="1" gradientUnits="userSpaceOnUse" gradientTransform="translate(5.70316 14.4995) rotate(35.0102) scale(1.57982 1.01887)">
<stop stop-color="white"/>
<stop offset="1"/>
</radialGradient>
<radialGradient id="paint21_radial_277_100065" cx="0" cy="0" r="1" gradientUnits="userSpaceOnUse" gradientTransform="translate(10.2613 14.2059) rotate(-72.497) scale(1.43933 0.609279)">
<stop stop-color="white"/>
<stop offset="1"/>
</radialGradient>
<radialGradient id="paint22_radial_277_100065" cx="0" cy="0" r="1" gradientUnits="userSpaceOnUse" gradientTransform="translate(5.50999 6.52086) rotate(-33.1787) scale(1.23179 1.29327)">
<stop offset="0.0714" stop-color="#F2BE1D"/>
<stop offset="0.6868" stop-color="#ED9D23"/>
<stop offset="1" stop-color="#E87326"/>
</radialGradient>
<radialGradient id="paint23_radial_277_100065" cx="0" cy="0" r="1" gradientUnits="userSpaceOnUse" gradientTransform="translate(6.38678 7.46746) rotate(-33.1787) scale(1.09454 1.14917)">
<stop offset="0.2802" stop-color="white"/>
<stop offset="0.648" stop-color="#FBFEFF"/>
<stop offset="0.7804" stop-color="#F3FAFE"/>
<stop offset="0.8749" stop-color="#E7F6FD"/>
<stop offset="0.9507" stop-color="#D6EFFB"/>
<stop offset="1" stop-color="#C5E9FA"/>
</radialGradient>
<radialGradient id="paint24_radial_277_100065" cx="0" cy="0" r="1" gradientUnits="userSpaceOnUse" gradientTransform="translate(6.5646 7.68557) rotate(-33.18) scale(0.94188 0.994753)">
<stop offset="0.2802" stop-color="white"/>
<stop offset="0.6375" stop-color="#F8FAFC"/>
<stop offset="0.7662" stop-color="#EBF1F4"/>
<stop offset="0.8579" stop-color="#D7E4EB"/>
<stop offset="0.9315" stop-color="#BFD3DC"/>
<stop offset="0.9944" stop-color="#A0BDCB"/>
<stop offset="1" stop-color="#9DBBC9"/>
</radialGradient>
<radialGradient id="paint25_radial_277_100065" cx="0" cy="0" r="1" gradientUnits="userSpaceOnUse" gradientTransform="translate(6.49201 7.55342) rotate(-33.18) scale(0.749013)">
<stop offset="0.2802" stop-color="#9BB9C7"/>
<stop offset="0.6174" stop-color="#9AB7C5"/>
<stop offset="0.7389" stop-color="#96B3C0"/>
<stop offset="0.8255" stop-color="#8EAAB7"/>
<stop offset="0.8954" stop-color="#839DAA"/>
<stop offset="0.9547" stop-color="#768D99"/>
<stop offset="1" stop-color="#687E88"/>
</radialGradient>
<radialGradient id="paint26_radial_277_100065" cx="0" cy="0" r="1" gradientUnits="userSpaceOnUse" gradientTransform="translate(11.007 6.4583) rotate(-146.821) scale(1.2318 1.29328)">
<stop offset="0.0714" stop-color="#F2BE1D"/>
<stop offset="0.6868" stop-color="#ED9D23"/>
<stop offset="1" stop-color="#E87326"/>
</radialGradient>
<radialGradient id="paint27_radial_277_100065" cx="0" cy="0" r="1" gradientUnits="userSpaceOnUse" gradientTransform="translate(10.1299 7.40271) rotate(-146.821) scale(1.09454 1.14917)">
<stop offset="0.2802" stop-color="white"/>
<stop offset="0.648" stop-color="#FBFEFF"/>
<stop offset="0.7804" stop-color="#F3FAFE"/>
<stop offset="0.8749" stop-color="#E7F6FD"/>
<stop offset="0.9507" stop-color="#D6EFFB"/>
<stop offset="1" stop-color="#C5E9FA"/>
</radialGradient>
<radialGradient id="paint28_radial_277_100065" cx="0" cy="0" r="1" gradientUnits="userSpaceOnUse" gradientTransform="translate(9.9522 7.62137) rotate(-146.82) scale(0.941902 0.994776)">
<stop offset="0.2802" stop-color="white"/>
<stop offset="0.6375" stop-color="#F8FAFC"/>
<stop offset="0.7662" stop-color="#EBF1F4"/>
<stop offset="0.8579" stop-color="#D7E4EB"/>
<stop offset="0.9315" stop-color="#BFD3DC"/>
<stop offset="0.9944" stop-color="#A0BDCB"/>
<stop offset="1" stop-color="#9DBBC9"/>
</radialGradient>
<radialGradient id="paint29_radial_277_100065" cx="0" cy="0" r="1" gradientUnits="userSpaceOnUse" gradientTransform="translate(10.0242 7.4902) rotate(-146.82) scale(0.749031)">
<stop offset="0.2802" stop-color="#9BB9C7"/>
<stop offset="0.6174" stop-color="#9AB7C5"/>
<stop offset="0.7389" stop-color="#96B3C0"/>
<stop offset="0.8255" stop-color="#8EAAB7"/>
<stop offset="0.8954" stop-color="#839DAA"/>
<stop offset="0.9547" stop-color="#768D99"/>
<stop offset="1" stop-color="#687E88"/>
</radialGradient>
<radialGradient id="paint30_radial_277_100065" cx="0" cy="0" r="1" gradientUnits="userSpaceOnUse" gradientTransform="translate(6.09371 11.7711) rotate(91.8391) scale(1.84687 1.72025)">
<stop stop-color="white"/>
<stop offset="1"/>
</radialGradient>
<radialGradient id="paint31_radial_277_100065" cx="0" cy="0" r="1" gradientUnits="userSpaceOnUse" gradientTransform="translate(8.2558 11.3883) rotate(91.8391) scale(1.84689 1.72026)">
<stop stop-color="white"/>
<stop offset="1"/>
</radialGradient>
<radialGradient id="paint32_radial_277_100065" cx="0" cy="0" r="1" gradientUnits="userSpaceOnUse" gradientTransform="translate(11.476 11.7162) rotate(91.8391) scale(2.00679 1.86921)">
<stop stop-color="white"/>
<stop offset="1"/>
</radialGradient>
<radialGradient id="paint33_radial_277_100065" cx="0" cy="0" r="1" gradientUnits="userSpaceOnUse" gradientTransform="translate(11.9156 11.1665) rotate(81.0312) scale(0.997144)">
<stop offset="0.0055" stop-color="#F38EB2"/>
<stop offset="0.8901" stop-color="#EE5488"/>
</radialGradient>
<radialGradient id="paint34_radial_277_100065" cx="0" cy="0" r="1" gradientUnits="userSpaceOnUse" gradientTransform="translate(8.1206 16.0896) rotate(-100.5) scale(0.853022 0.992569)">
<stop offset="0.0055" stop-color="#F38EB2"/>
<stop offset="0.8901" stop-color="#EE5488"/>
</radialGradient>
<radialGradient id="paint35_radial_277_100065" cx="0" cy="0" r="1" gradientUnits="userSpaceOnUse" gradientTransform="translate(10.008 13.6765) rotate(81.0313) scale(1.79093)">
<stop offset="0.0055" stop-color="#F38EB2"/>
<stop offset="0.8901" stop-color="#EE5488"/>
</radialGradient>
<radialGradient id="paint36_radial_277_100065" cx="0" cy="0" r="1" gradientUnits="userSpaceOnUse" gradientTransform="translate(9.99126 13.6226) rotate(81.0313) scale(1.60527)">
<stop offset="0.0055" stop-color="#FFFEF2"/>
<stop offset="0.8901" stop-color="#F2839B"/>
</radialGradient>
<linearGradient id="paint37_linear_277_100065" x1="8.00832" y1="13.902" x2="9.16543" y2="13.7193" gradientUnits="userSpaceOnUse">
<stop stop-color="white"/>
<stop offset="1"/>
</linearGradient>
<linearGradient id="paint38_linear_277_100065" x1="11.8952" y1="13.306" x2="10.7382" y2="13.4886" gradientUnits="userSpaceOnUse">
<stop stop-color="white"/>
<stop offset="1"/>
</linearGradient>
<radialGradient id="paint39_radial_277_100065" cx="0" cy="0" r="1" gradientUnits="userSpaceOnUse" gradientTransform="translate(9.18462 12.4637) rotate(80.0723) scale(1.60527)">
<stop offset="0.0055" stop-color="#FFFEF2"/>
<stop offset="0.8901" stop-color="#1B75BC"/>
</radialGradient>
<linearGradient id="paint40_linear_277_100065" x1="7.20503" y1="12.7766" x2="8.35897" y2="12.5746" gradientUnits="userSpaceOnUse">
<stop stop-color="white"/>
<stop offset="1"/>
</linearGradient>
<linearGradient id="paint41_linear_277_100065" x1="11.0827" y1="12.1138" x2="9.92875" y2="12.3158" gradientUnits="userSpaceOnUse">
<stop stop-color="white"/>
<stop offset="1"/>
</linearGradient>
<linearGradient id="paint42_linear_277_100065" x1="3.41797" y1="11.2714" x2="5.36978" y2="11.2714" gradientUnits="userSpaceOnUse">
<stop stop-color="#009445"/>
<stop offset="1" stop-color="#006838"/>
</linearGradient>
<linearGradient id="paint43_linear_277_100065" x1="9.78051" y1="15.8078" x2="7.8287" y2="15.8078" gradientUnits="userSpaceOnUse">
<stop stop-color="#009445"/>
<stop offset="1" stop-color="#006838"/>
</linearGradient>
<linearGradient id="paint44_linear_277_100065" x1="4.7842" y1="13.5475" x2="8.3666" y2="13.5475" gradientUnits="userSpaceOnUse">
<stop stop-color="#009445"/>
<stop offset="1" stop-color="#006838"/>
</linearGradient>
<linearGradient id="paint45_linear_277_100065" x1="6.8238" y1="13.5343" x2="3.5099" y2="13.7488" gradientUnits="userSpaceOnUse">
<stop stop-color="#7FB539"/>
<stop offset="1" stop-color="#006838"/>
</linearGradient>
<linearGradient id="paint46_linear_277_100065" x1="6.48702" y1="15.5552" x2="6.48702" y2="14.3837" gradientUnits="userSpaceOnUse">
<stop stop-color="white"/>
<stop offset="1"/>
</linearGradient>
<linearGradient id="paint47_linear_277_100065" x1="6.50317" y1="11.6241" x2="6.50317" y2="12.7956" gradientUnits="userSpaceOnUse">
<stop stop-color="white"/>
<stop offset="1"/>
</linearGradient>
<radialGradient id="paint48_radial_277_100065" cx="0" cy="0" r="1" gradientUnits="userSpaceOnUse" gradientTransform="translate(7.48905 9.80058) rotate(41.5541) scale(0.99713)">
<stop offset="0.0055" stop-color="#F38EB2"/>
<stop offset="0.8901" stop-color="#EE5488"/>
</radialGradient>
<radialGradient id="paint49_radial_277_100065" cx="0" cy="0" r="1" gradientUnits="userSpaceOnUse" gradientTransform="translate(7.77976 16.1218) rotate(-138.446) scale(0.997161)">
<stop offset="0.0055" stop-color="#F38EB2"/>
<stop offset="0.8901" stop-color="#EE5488"/>
</radialGradient>
<radialGradient id="paint50_radial_277_100065" cx="0" cy="0" r="1" gradientUnits="userSpaceOnUse" gradientTransform="translate(7.61183 12.951) rotate(41.5541) scale(1.79093)">
<stop offset="0.0055" stop-color="#F38EB2"/>
<stop offset="0.8901" stop-color="#EE5488"/>
</radialGradient>
<radialGradient id="paint51_radial_277_100065" cx="0" cy="0" r="1" gradientUnits="userSpaceOnUse" gradientTransform="translate(7.56619 12.9182) rotate(41.5541) scale(1.60528)">
<stop offset="0.0055" stop-color="#FFFEF2"/>
<stop offset="0.8901" stop-color="#F2839B"/>
</radialGradient>
<linearGradient id="paint52_linear_277_100065" x1="6.21324" y1="14.3953" x2="6.99028" y2="13.5187" gradientUnits="userSpaceOnUse">
<stop stop-color="white"/>
<stop offset="1"/>
</linearGradient>
<linearGradient id="paint53_linear_277_100065" x1="8.83275" y1="11.4635" x2="8.05573" y2="12.3401" gradientUnits="userSpaceOnUse">
<stop stop-color="white"/>
<stop offset="1"/>
</linearGradient>
<radialGradient id="paint54_radial_277_100065" cx="0" cy="0" r="1" gradientUnits="userSpaceOnUse" gradientTransform="translate(6.39865 13.3428) rotate(7.25578) scale(6.12911 6.12911)">
<stop offset="0.0714" stop-color="#F9EC00"/>
<stop offset="0.3407" stop-color="#F2BE1D"/>
<stop offset="0.6868" stop-color="#ED9D23"/>
<stop offset="1" stop-color="#E87326"/>
</radialGradient>
<radialGradient id="paint55_radial_277_100065" cx="0" cy="0" r="1" gradientUnits="userSpaceOnUse" gradientTransform="translate(8.9436 11.9949) rotate(-7.9729) scale(6.77119 6.77119)">
<stop offset="0.0714" stop-color="#F9EC00"/>
<stop offset="0.3407" stop-color="#F2BE1D"/>
<stop offset="0.6868" stop-color="#ED9D23"/>
<stop offset="1" stop-color="#E87326"/>
</radialGradient>
</defs>
</svg>
