<svg width="13" height="11" viewBox="0 0 13 11" fill="none" xmlns="http://www.w3.org/2000/svg">
<path d="M7.18965 4.48121L6.95402 4.80445L7.18965 4.48121ZM8.2998 1.0636L8.02911 1.35809C8.18216 1.49876 8.41745 1.49876 8.5705 1.35809L8.2998 1.0636ZM9.40997 4.48122L9.64559 4.80445L9.40997 4.48122ZM8.29981 5.00549L8.29981 5.40549H8.29981L8.29981 5.00549ZM7.42527 4.15798C7.0097 3.85504 6.56456 3.48534 6.22724 3.09433C5.88031 2.69216 5.6998 2.32763 5.6998 2.02876H4.8998C4.8998 2.62095 5.23708 3.17127 5.6215 3.61689C6.01553 4.07365 6.51531 4.48465 6.95402 4.80445L7.42527 4.15798ZM5.6998 2.02876C5.6998 1.37491 6.02298 0.9916 6.42115 0.857603C6.8335 0.718838 7.4354 0.812361 8.02911 1.35809L8.5705 0.769103C7.81425 0.0739776 6.91616 -0.153068 6.16599 0.0993867C5.40165 0.35661 4.8998 1.07631 4.8998 2.02876H5.6998ZM9.64559 4.80445C10.0843 4.48465 10.5841 4.07366 10.9781 3.61689C11.3625 3.17127 11.6998 2.62095 11.6998 2.02875H10.8998C10.8998 2.32764 10.7193 2.69217 10.3724 3.09433C10.0351 3.48535 9.58991 3.85505 9.17434 4.15798L9.64559 4.80445ZM11.6998 2.02875C11.6998 1.0763 11.198 0.356607 10.4336 0.0993855C9.68345 -0.153068 8.78536 0.0739775 8.02911 0.769103L8.5705 1.35809C9.16421 0.812361 9.76611 0.718838 10.1785 0.857602C10.5766 0.991598 10.8998 1.37491 10.8998 2.02875H11.6998ZM6.95402 4.80445C7.41002 5.13685 7.756 5.40549 8.29981 5.40549L8.29981 4.60549C8.06171 4.60549 7.92822 4.52461 7.42527 4.15798L6.95402 4.80445ZM9.17434 4.15798C8.67139 4.52461 8.5379 4.60549 8.29981 4.60549L8.29981 5.40549C8.84362 5.40549 9.1896 5.13686 9.64559 4.80445L9.17434 4.15798Z" fill="white"/>
<path d="M0.5 10.2329H2.09525C2.8088 10.2329 3.53002 10.2961 4.22447 10.4177C5.45287 10.6328 6.74624 10.6589 7.98726 10.4882C8.59915 10.404 9.20074 10.2752 9.74528 10.0518C10.2369 9.85014 10.839 9.56587 11.2435 9.24745C11.6474 8.92949 12.068 8.40911 12.3665 8.00235C12.6225 7.65355 12.4987 7.22562 12.0938 6.96573C11.644 6.67704 10.9765 6.6771 10.5268 6.96586L9.25113 7.78496C8.75673 8.10241 8.21669 8.39463 7.57335 8.48185C7.496 8.49234 7.41494 8.50189 7.33037 8.51022M7.33037 8.51022C7.30491 8.51273 7.27913 8.51512 7.25305 8.5174M7.33037 8.51022C7.43329 8.49147 7.53548 8.43753 7.63136 8.3664C8.08538 8.02957 8.1141 7.4619 7.72015 7.08578C7.62875 6.99851 7.52179 6.92573 7.40287 6.86544C5.42828 5.86437 2.35606 6.62682 0.5 7.74565M7.33037 8.51022C7.30461 8.51491 7.27881 8.5174 7.25305 8.5174M7.25305 8.5174C6.88361 8.54964 6.45141 8.55797 5.97184 8.51948" stroke="white" stroke-width="0.8" stroke-linecap="round"/>
</svg>
