<svg width="17" height="22" viewBox="0 0 17 22" fill="none" xmlns="http://www.w3.org/2000/svg">
<path d="M11.943 5.96624C14.624 8.08976 15.9644 9.15152 15.9644 10.9675C15.9644 12.7835 14.624 13.8452 11.943 15.9687C11.2029 16.555 10.4689 17.1069 9.79437 17.5668C9.20261 17.9703 8.53244 18.3876 7.83858 18.7973C5.16393 20.3766 3.8266 21.1662 2.62717 20.2919C1.42774 19.4177 1.31873 17.5875 1.10071 13.9272C1.03906 12.892 1 11.8772 1 10.9675C1 10.0578 1.03906 9.04298 1.10071 8.00783C1.31873 4.34747 1.42774 2.51729 2.62717 1.64304C3.8266 0.768792 5.16393 1.55842 7.83858 3.13769C8.53243 3.54738 9.20261 3.96474 9.79437 4.36821C10.4689 4.82812 11.2029 5.38004 11.943 5.96624Z" stroke="#1BC469" stroke-width="1.5"/>
</svg>
