<svg width="58" height="34" viewBox="0 0 58 34" fill="none" xmlns="http://www.w3.org/2000/svg">
<mask id="path-1-inside-1_607_1602" fill="white">
<path d="M21.4631 6.79497V27.2396C21.4631 27.4148 21.3988 27.5829 21.2845 27.7068C21.1701 27.8307 21.015 27.9003 20.8533 27.9003C20.6916 27.9003 20.5365 27.8307 20.4221 27.7068C20.3078 27.5829 20.2435 27.4148 20.2435 27.2396V6.79497C20.2435 6.61975 20.3078 6.4517 20.4221 6.32779C20.5365 6.20389 20.6916 6.13428 20.8533 6.13428C21.015 6.13428 21.1701 6.20389 21.2845 6.32779C21.3988 6.4517 21.4631 6.61975 21.4631 6.79497ZM15.3751 8.5815C15.2134 8.5815 15.0583 8.65111 14.944 8.77501C14.8296 8.89892 14.7654 9.06697 14.7654 9.2422V24.7924C14.7654 24.9676 14.8296 25.1357 14.944 25.2596C15.0583 25.3835 15.2134 25.4531 15.3751 25.4531C15.5369 25.4531 15.692 25.3835 15.8063 25.2596C15.9207 25.1357 15.9849 24.9676 15.9849 24.7924V9.2422C15.9849 9.06697 15.9207 8.89892 15.8063 8.77501C15.692 8.65111 15.5369 8.5815 15.3751 8.5815ZM26.3302 12.4981C26.1685 12.4981 26.0134 12.5677 25.8991 12.6916C25.7847 12.8155 25.7205 12.9836 25.7205 13.1588V20.8758C25.7205 21.051 25.7847 21.219 25.8991 21.3429C26.0134 21.4669 26.1685 21.5365 26.3302 21.5365C26.4919 21.5365 26.647 21.4669 26.7614 21.3429C26.8758 21.219 26.94 21.051 26.94 20.8758V13.1588C26.94 12.9836 26.8758 12.8155 26.7614 12.6916C26.647 12.5677 26.4919 12.4981 26.3302 12.4981ZM9.897 7.0434C9.73528 7.0434 9.58018 7.11301 9.46583 7.23691C9.35148 7.36082 9.28723 7.52887 9.28723 7.7041V26.3358C9.28723 26.511 9.35148 26.679 9.46583 26.803C9.58018 26.9269 9.73528 26.9965 9.897 26.9965C10.0587 26.9965 10.2138 26.9269 10.3282 26.803C10.4425 26.679 10.5068 26.511 10.5068 26.3358V7.7041C10.5068 7.52887 10.4425 7.36082 10.3282 7.23691C10.2138 7.11301 10.0587 7.0434 9.897 7.0434ZM4.42007 14.4022C4.25835 14.4022 4.10325 14.4719 3.9889 14.5958C3.87455 14.7197 3.8103 14.8877 3.8103 15.0629V18.9716C3.8103 19.1469 3.87455 19.3149 3.9889 19.4388C4.10325 19.5627 4.25835 19.6323 4.42007 19.6323C4.58179 19.6323 4.73689 19.5627 4.85124 19.4388C4.96559 19.3149 5.02984 19.1469 5.02984 18.9716V15.0629C5.02984 14.8877 4.96559 14.7197 4.85124 14.5958C4.73689 14.4719 4.58179 14.4022 4.42007 14.4022Z"/>
</mask>
<path d="M20.8533 6.13428V4.63428V6.13428ZM3.8103 18.9716H2.3103V18.9716L3.8103 18.9716ZM5.02984 18.9716L6.52984 18.9716V18.9716H5.02984ZM19.9631 6.79497V27.2396H22.9631V6.79497H19.9631ZM19.9631 27.2396C19.9631 27.0541 20.03 26.8544 20.1822 26.6895L22.3868 28.7241C22.7677 28.3114 22.9631 27.7756 22.9631 27.2396H19.9631ZM20.1822 26.6895C20.3381 26.5205 20.5766 26.4003 20.8533 26.4003V29.4003C21.4534 29.4003 22.0021 29.1409 22.3868 28.7241L20.1822 26.6895ZM20.8533 26.4003C21.13 26.4003 21.3685 26.5205 21.5244 26.6895L19.3198 28.7241C19.7045 29.1409 20.2532 29.4003 20.8533 29.4003V26.4003ZM21.5244 26.6895C21.6766 26.8544 21.7435 27.0541 21.7435 27.2396H18.7435C18.7435 27.7756 18.9389 28.3114 19.3198 28.7241L21.5244 26.6895ZM21.7435 27.2396V6.79497H18.7435V27.2396H21.7435ZM21.7435 6.79497C21.7435 6.98047 21.6766 7.18019 21.5244 7.34511L19.3198 5.31047C18.9389 5.72321 18.7435 6.25902 18.7435 6.79497H21.7435ZM21.5244 7.34511C21.3685 7.51409 21.13 7.63428 20.8533 7.63428V4.63428C20.2532 4.63428 19.7045 4.89369 19.3198 5.31047L21.5244 7.34511ZM20.8533 7.63428C20.5766 7.63428 20.3381 7.51408 20.1822 7.34511L22.3868 5.31047C22.0021 4.89369 21.4534 4.63428 20.8533 4.63428V7.63428ZM20.1822 7.34511C20.03 7.1802 19.9631 6.98048 19.9631 6.79497H22.9631C22.9631 6.25901 22.7677 5.7232 22.3868 5.31047L20.1822 7.34511ZM15.3751 7.0815C14.775 7.0815 14.2263 7.34091 13.8417 7.75769L16.0463 9.79234C15.8903 9.96131 15.6518 10.0815 15.3751 10.0815V7.0815ZM13.8417 7.75769C13.4608 8.17043 13.2654 8.70625 13.2654 9.2422H16.2654C16.2654 9.42769 16.1985 9.62741 16.0463 9.79234L13.8417 7.75769ZM13.2654 9.2422V24.7924H16.2654V9.2422H13.2654ZM13.2654 24.7924C13.2654 25.3283 13.4608 25.8641 13.8417 26.2769L16.0463 24.2422C16.1985 24.4072 16.2654 24.6069 16.2654 24.7924H13.2654ZM13.8417 26.2769C14.2263 26.6937 14.775 26.9531 15.3751 26.9531V23.9531C15.6519 23.9531 15.8903 24.0733 16.0463 24.2422L13.8417 26.2769ZM15.3751 26.9531C15.9753 26.9531 16.524 26.6937 16.9086 26.2769L14.704 24.2422C14.86 24.0733 15.0984 23.9531 15.3751 23.9531V26.9531ZM16.9086 26.2769C17.2895 25.8641 17.4849 25.3283 17.4849 24.7924H14.4849C14.4849 24.6069 14.5518 24.4072 14.704 24.2422L16.9086 26.2769ZM17.4849 24.7924V9.2422H14.4849V24.7924H17.4849ZM17.4849 9.2422C17.4849 8.70625 17.2895 8.17043 16.9086 7.75769L14.704 9.79234C14.5518 9.62741 14.4849 9.42769 14.4849 9.2422H17.4849ZM16.9086 7.75769C16.524 7.34091 15.9753 7.0815 15.3751 7.0815V10.0815C15.0985 10.0815 14.86 9.96131 14.704 9.79234L16.9086 7.75769ZM26.3302 10.9981C25.7301 10.9981 25.1814 11.2575 24.7968 11.6743L27.0014 13.709C26.8454 13.8779 26.6069 13.9981 26.3302 13.9981V10.9981ZM24.7968 11.6743C24.4158 12.087 24.2205 12.6229 24.2205 13.1588H27.2205C27.2205 13.3443 27.1536 13.544 27.0014 13.709L24.7968 11.6743ZM24.2205 13.1588V20.8758H27.2205V13.1588H24.2205ZM24.2205 20.8758C24.2205 21.4117 24.4158 21.9475 24.7968 22.3603L27.0014 20.3256C27.1536 20.4906 27.2205 20.6903 27.2205 20.8758H24.2205ZM24.7968 22.3603C25.1814 22.7771 25.7301 23.0365 26.3302 23.0365V20.0365C26.6069 20.0365 26.8454 20.1566 27.0014 20.3256L24.7968 22.3603ZM26.3302 23.0365C26.9304 23.0365 27.479 22.7771 27.8637 22.3603L25.6591 20.3256C25.8151 20.1566 26.0535 20.0365 26.3302 20.0365V23.0365ZM27.8637 22.3603C28.2446 21.9475 28.44 21.4117 28.44 20.8758H25.44C25.44 20.6903 25.5069 20.4906 25.6591 20.3256L27.8637 22.3603ZM28.44 20.8758V13.1588H25.44V20.8758H28.44ZM28.44 13.1588C28.44 12.6229 28.2446 12.087 27.8637 11.6743L25.6591 13.709C25.5069 13.544 25.44 13.3443 25.44 13.1588H28.44ZM27.8637 11.6743C27.479 11.2575 26.9304 10.9981 26.3302 10.9981V13.9981C26.0535 13.9981 25.8151 13.8779 25.6591 13.709L27.8637 11.6743ZM9.897 5.5434C9.29686 5.5434 8.74819 5.80281 8.36353 6.21959L10.5681 8.25423C10.4122 8.42321 10.1737 8.5434 9.897 8.5434V5.5434ZM8.36353 6.21959C7.98261 6.63233 7.78723 7.16814 7.78723 7.7041H10.7872C10.7872 7.88959 10.7203 8.08931 10.5681 8.25423L8.36353 6.21959ZM7.78723 7.7041V26.3358H10.7872V7.7041H7.78723ZM7.78723 26.3358C7.78723 26.8717 7.98261 27.4075 8.36353 27.8203L10.5681 25.7856C10.7203 25.9506 10.7872 26.1503 10.7872 26.3358H7.78723ZM8.36353 27.8203C8.74819 28.2371 9.29686 28.4965 9.897 28.4965V25.4965C10.1737 25.4965 10.4122 25.6167 10.5681 25.7856L8.36353 27.8203ZM9.897 28.4965C10.4971 28.4965 11.0458 28.2371 11.4305 27.8203L9.22588 25.7856C9.38182 25.6167 9.6203 25.4965 9.897 25.4965V28.4965ZM11.4305 27.8203C11.8114 27.4075 12.0068 26.8717 12.0068 26.3358H9.00677C9.00677 26.1503 9.07366 25.9506 9.22588 25.7856L11.4305 27.8203ZM12.0068 26.3358V7.7041H9.00677V26.3358H12.0068ZM12.0068 7.7041C12.0068 7.16814 11.8114 6.63232 11.4305 6.21959L9.22588 8.25423C9.07366 8.08931 9.00677 7.8896 9.00677 7.7041H12.0068ZM11.4305 6.21959C11.0458 5.80281 10.4971 5.5434 9.897 5.5434V8.5434C9.6203 8.5434 9.38182 8.42321 9.22588 8.25423L11.4305 6.21959ZM4.42007 12.9022C3.81993 12.9022 3.27126 13.1617 2.88661 13.5784L5.09119 15.6131C4.93524 15.7821 4.69677 15.9022 4.42007 15.9022V12.9022ZM2.88661 13.5784C2.50568 13.9912 2.3103 14.527 2.3103 15.0629H5.3103C5.3103 15.2484 5.24341 15.4482 5.09119 15.6131L2.88661 13.5784ZM2.3103 15.0629V18.9716H5.3103V15.0629H2.3103ZM2.3103 18.9716C2.3103 19.5076 2.50569 20.0434 2.88661 20.4561L5.09119 18.4215C5.24341 18.5864 5.3103 18.7861 5.3103 18.9716L2.3103 18.9716ZM2.88661 20.4561C3.27126 20.8729 3.81992 21.1323 4.42007 21.1323V18.1323C4.69678 18.1323 4.93525 18.2525 5.09119 18.4215L2.88661 20.4561ZM4.42007 21.1323C5.02022 21.1323 5.56888 20.8729 5.95354 20.4561L3.74895 18.4215C3.90489 18.2525 4.14336 18.1323 4.42007 18.1323V21.1323ZM5.95354 20.4561C6.33446 20.0434 6.52984 19.5076 6.52984 18.9716L3.52984 18.9716C3.52984 18.7861 3.59673 18.5864 3.74895 18.4215L5.95354 20.4561ZM6.52984 18.9716V15.0629H3.52984V18.9716H6.52984ZM6.52984 15.0629C6.52984 14.527 6.33446 13.9912 5.95354 13.5784L3.74895 15.6131C3.59673 15.4482 3.52984 15.2484 3.52984 15.0629H6.52984ZM5.95354 13.5784C5.56888 13.1617 5.02021 12.9022 4.42007 12.9022V15.9022C4.14337 15.9022 3.9049 15.7821 3.74895 15.6131L5.95354 13.5784Z" fill="#1BC469" mask="url(#path-1-inside-1_607_1602)"/>
<mask id="path-3-inside-2_607_1602" fill="white">
<path d="M47.9748 6.79497V27.2396C47.9748 27.4148 47.9105 27.5829 47.7962 27.7068C47.6818 27.8307 47.5267 27.9003 47.365 27.9003C47.2033 27.9003 47.0482 27.8307 46.9338 27.7068C46.8195 27.5829 46.7553 27.4148 46.7553 27.2396V6.79497C46.7553 6.61975 46.8195 6.4517 46.9338 6.32779C47.0482 6.20389 47.2033 6.13428 47.365 6.13428C47.5267 6.13428 47.6818 6.20389 47.7962 6.32779C47.9105 6.4517 47.9748 6.61975 47.9748 6.79497ZM41.8869 8.5815C41.7251 8.5815 41.5701 8.65111 41.4557 8.77501C41.3413 8.89892 41.2771 9.06697 41.2771 9.2422V24.7924C41.2771 24.9676 41.3413 25.1357 41.4557 25.2596C41.5701 25.3835 41.7251 25.4531 41.8869 25.4531C42.0486 25.4531 42.2037 25.3835 42.318 25.2596C42.4324 25.1357 42.4966 24.9676 42.4966 24.7924V9.2422C42.4966 9.06697 42.4324 8.89892 42.318 8.77501C42.2037 8.65111 42.0486 8.5815 41.8869 8.5815ZM52.8419 12.4981C52.6802 12.4981 52.5251 12.5677 52.4108 12.6916C52.2964 12.8155 52.2322 12.9836 52.2322 13.1588V20.8758C52.2322 21.051 52.2964 21.219 52.4108 21.3429C52.5251 21.4669 52.6802 21.5365 52.8419 21.5365C53.0037 21.5365 53.1588 21.4669 53.2731 21.3429C53.3875 21.219 53.4517 21.051 53.4517 20.8758V13.1588C53.4517 12.9836 53.3875 12.8155 53.2731 12.6916C53.1588 12.5677 53.0037 12.4981 52.8419 12.4981ZM36.4087 7.0434C36.247 7.0434 36.0919 7.11301 35.9775 7.23691C35.8632 7.36082 35.799 7.52887 35.799 7.7041V26.3358C35.799 26.511 35.8632 26.679 35.9775 26.803C36.0919 26.9269 36.247 26.9965 36.4087 26.9965C36.5704 26.9965 36.7255 26.9269 36.8399 26.803C36.9542 26.679 37.0185 26.511 37.0185 26.3358V7.7041C37.0185 7.52887 36.9542 7.36082 36.8399 7.23691C36.7255 7.11301 36.5704 7.0434 36.4087 7.0434ZM30.9318 14.4022C30.7701 14.4022 30.615 14.4719 30.5006 14.5958C30.3863 14.7197 30.322 14.8877 30.322 15.0629V18.9716C30.322 19.1469 30.3863 19.3149 30.5006 19.4388C30.615 19.5627 30.7701 19.6323 30.9318 19.6323C31.0935 19.6323 31.2486 19.5627 31.363 19.4388C31.4773 19.3149 31.5416 19.1469 31.5416 18.9716V15.0629C31.5416 14.8877 31.4773 14.7197 31.363 14.5958C31.2486 14.4719 31.0935 14.4022 30.9318 14.4022Z"/>
</mask>
<path d="M47.365 6.13428V4.63428V6.13428ZM30.322 18.9716H28.822H30.322ZM31.5416 18.9716H33.0416H31.5416ZM46.4748 6.79497V27.2396H49.4748V6.79497H46.4748ZM46.4748 27.2396C46.4748 27.0541 46.5417 26.8544 46.6939 26.6895L48.8985 28.7241C49.2794 28.3114 49.4748 27.7756 49.4748 27.2396H46.4748ZM46.6939 26.6895C46.8498 26.5205 47.0883 26.4003 47.365 26.4003V29.4003C47.9652 29.4003 48.5138 29.1409 48.8985 28.7241L46.6939 26.6895ZM47.365 26.4003C47.6417 26.4003 47.8802 26.5205 48.0361 26.6895L45.8316 28.7241C46.2162 29.1409 46.7649 29.4003 47.365 29.4003V26.4003ZM48.0361 26.6895C48.1884 26.8544 48.2553 27.0541 48.2553 27.2396H45.2553C45.2553 27.7755 45.4506 28.3114 45.8316 28.7241L48.0361 26.6895ZM48.2553 27.2396V6.79497H45.2553V27.2396H48.2553ZM48.2553 6.79497C48.2553 6.98047 48.1884 7.18018 48.0361 7.34511L45.8316 5.31047C45.4506 5.72321 45.2553 6.25903 45.2553 6.79497H48.2553ZM48.0361 7.34511C47.8802 7.51409 47.6417 7.63428 47.365 7.63428V4.63428C46.7649 4.63428 46.2162 4.89369 45.8316 5.31047L48.0361 7.34511ZM47.365 7.63428C47.0883 7.63428 46.8498 7.51408 46.6939 7.34511L48.8985 5.31047C48.5138 4.89369 47.9652 4.63428 47.365 4.63428V7.63428ZM46.6939 7.34511C46.5417 7.1802 46.4748 6.98049 46.4748 6.79497H49.4748C49.4748 6.25901 49.2794 5.72319 48.8985 5.31047L46.6939 7.34511ZM41.8869 7.0815C41.2867 7.0815 40.7381 7.3409 40.3534 7.75769L42.558 9.79234C42.402 9.96132 42.1636 10.0815 41.8869 10.0815V7.0815ZM40.3534 7.75769C39.9725 8.17043 39.7771 8.70625 39.7771 9.2422H42.7771C42.7771 9.42769 42.7102 9.62741 42.558 9.79234L40.3534 7.75769ZM39.7771 9.2422V24.7924H42.7771V9.2422H39.7771ZM39.7771 24.7924C39.7771 25.3283 39.9725 25.8641 40.3534 26.2769L42.558 24.2422C42.7102 24.4072 42.7771 24.6069 42.7771 24.7924H39.7771ZM40.3534 26.2769C40.7381 26.6937 41.2867 26.9531 41.8869 26.9531V23.9531C42.1636 23.9531 42.4021 24.0733 42.558 24.2422L40.3534 26.2769ZM41.8869 26.9531C42.487 26.9531 43.0357 26.6937 43.4203 26.2769L41.2157 24.2422C41.3717 24.0733 41.6102 23.9531 41.8869 23.9531V26.9531ZM43.4203 26.2769C43.8013 25.8642 43.9966 25.3283 43.9966 24.7924H40.9966C40.9966 24.6069 41.0635 24.4072 41.2157 24.2422L43.4203 26.2769ZM43.9966 24.7924V9.2422H40.9966V24.7924H43.9966ZM43.9966 9.2422C43.9966 8.70625 43.8013 8.17043 43.4203 7.75769L41.2157 9.79234C41.0635 9.62741 40.9966 9.4277 40.9966 9.2422H43.9966ZM43.4203 7.75769C43.0357 7.34091 42.487 7.0815 41.8869 7.0815V10.0815C41.6102 10.0815 41.3717 9.96131 41.2157 9.79234L43.4203 7.75769ZM52.8419 10.9981C52.2418 10.9981 51.6931 11.2575 51.3085 11.6743L53.5131 13.709C53.3571 13.8779 53.1186 13.9981 52.8419 13.9981V10.9981ZM51.3085 11.6743C50.9276 12.087 50.7322 12.6229 50.7322 13.1588H53.7322C53.7322 13.3443 53.6653 13.544 53.5131 13.709L51.3085 11.6743ZM50.7322 13.1588V20.8758H53.7322V13.1588H50.7322ZM50.7322 20.8758C50.7322 21.4117 50.9276 21.9475 51.3085 22.3603L53.5131 20.3256C53.6653 20.4906 53.7322 20.6903 53.7322 20.8758H50.7322ZM51.3085 22.3603C51.6931 22.7771 52.2418 23.0365 52.8419 23.0365V20.0365C53.1186 20.0365 53.3571 20.1566 53.5131 20.3256L51.3085 22.3603ZM52.8419 23.0365C53.4421 23.0365 53.9908 22.7771 54.3754 22.3603L52.1708 20.3256C52.3268 20.1566 52.5653 20.0365 52.8419 20.0365V23.0365ZM54.3754 22.3603C54.7563 21.9475 54.9517 21.4117 54.9517 20.8758H51.9517C51.9517 20.6903 52.0186 20.4906 52.1708 20.3256L54.3754 22.3603ZM54.9517 20.8758V13.1588H51.9517V20.8758H54.9517ZM54.9517 13.1588C54.9517 12.6229 54.7563 12.087 54.3754 11.6743L52.1708 13.709C52.0186 13.544 51.9517 13.3443 51.9517 13.1588H54.9517ZM54.3754 11.6743C53.9908 11.2575 53.4421 10.9981 52.8419 10.9981V13.9981C52.5652 13.9981 52.3268 13.8779 52.1708 13.709L54.3754 11.6743ZM36.4087 5.5434C35.8086 5.5434 35.2599 5.80281 34.8753 6.21959L37.0798 8.25423C36.9239 8.42321 36.6854 8.5434 36.4087 8.5434V5.5434ZM34.8753 6.21959C34.4943 6.63233 34.299 7.16815 34.299 7.7041H37.299C37.299 7.88959 37.2321 8.0893 37.0798 8.25423L34.8753 6.21959ZM34.299 7.7041V26.3358H37.299V7.7041H34.299ZM34.299 26.3358C34.299 26.8717 34.4943 27.4075 34.8753 27.8203L37.0798 25.7856C37.2321 25.9506 37.299 26.1503 37.299 26.3358H34.299ZM34.8753 27.8203C35.2599 28.2371 35.8086 28.4965 36.4087 28.4965V25.4965C36.6854 25.4965 36.9239 25.6167 37.0798 25.7856L34.8753 27.8203ZM36.4087 28.4965C37.0089 28.4965 37.5575 28.2371 37.9422 27.8203L35.7376 25.7856C35.8935 25.6167 36.132 25.4965 36.4087 25.4965V28.4965ZM37.9422 27.8203C38.3231 27.4075 38.5185 26.8717 38.5185 26.3358H35.5185C35.5185 26.1503 35.5854 25.9506 35.7376 25.7856L37.9422 27.8203ZM38.5185 26.3358V7.7041H35.5185V26.3358H38.5185ZM38.5185 7.7041C38.5185 7.16814 38.3231 6.63232 37.9422 6.21959L35.7376 8.25423C35.5854 8.08931 35.5185 7.8896 35.5185 7.7041H38.5185ZM37.9422 6.21959C37.5575 5.80281 37.0089 5.5434 36.4087 5.5434V8.5434C36.132 8.5434 35.8935 8.42321 35.7376 8.25423L37.9422 6.21959ZM30.9318 12.9022C30.3317 12.9022 29.783 13.1617 29.3983 13.5784L31.6029 15.6131C31.447 15.7821 31.2085 15.9022 30.9318 15.9022V12.9022ZM29.3983 13.5784C29.0174 13.9912 28.822 14.527 28.822 15.0629H31.822C31.822 15.2484 31.7551 15.4482 31.6029 15.6131L29.3983 13.5784ZM28.822 15.0629V18.9716H31.822V15.0629H28.822ZM28.822 18.9716C28.822 19.5076 29.0174 20.0434 29.3983 20.4561L31.6029 18.4215C31.7551 18.5864 31.822 18.7861 31.822 18.9716H28.822ZM29.3983 20.4561C29.783 20.8729 30.3316 21.1323 30.9318 21.1323V18.1323C31.2085 18.1323 31.447 18.2525 31.6029 18.4215L29.3983 20.4561ZM30.9318 21.1323C31.5319 21.1323 32.0806 20.8729 32.4653 20.4561L30.2607 18.4215C30.4166 18.2525 30.6551 18.1323 30.9318 18.1323V21.1323ZM32.4653 20.4561C32.8462 20.0434 33.0416 19.5076 33.0416 18.9716H30.0416C30.0416 18.7861 30.1085 18.5864 30.2607 18.4215L32.4653 20.4561ZM33.0416 18.9716V15.0629H30.0416V18.9716H33.0416ZM33.0416 15.0629C33.0416 14.527 32.8462 13.9912 32.4653 13.5784L30.2607 15.6131C30.1085 15.4482 30.0416 15.2484 30.0416 15.0629H33.0416ZM32.4653 13.5784C32.0806 13.1616 31.5319 12.9022 30.9318 12.9022V15.9022C30.6551 15.9022 30.4166 15.7821 30.2607 15.6131L32.4653 13.5784Z" fill="#1BC469" mask="url(#path-3-inside-2_607_1602)"/>
</svg>
