<svg width="160" height="190" viewBox="0 0 160 190" fill="none" xmlns="http://www.w3.org/2000/svg">
<rect width="160" height="190" rx="8" fill="white"/>
<path d="M19.3733 81.888C17.7509 72.829 14.4096 64.2144 11.64 55.4578C10.1189 50.6486 8.75244 45.6635 9.03806 40.6123C9.64946 29.7995 17.7095 20.8803 26.6642 15.2605C35.3584 9.80415 45.5009 6.48785 55.6551 7.07912C65.8093 7.67039 75.9092 12.4436 82.0857 20.7983C86.5545 26.843 89.7405 35.1804 96.8936 36.9649C106.546 39.3729 114.484 27.7891 124.377 26.9028C127.608 26.6134 130.834 27.5094 133.861 28.7117C140.013 31.1551 145.865 35.1131 149.189 40.9969C152.513 46.8807 152.769 54.9119 148.612 60.2004C145.423 64.2586 140.187 66.2509 137.278 70.5286C134.943 73.9627 134.706 78.6157 136.19 82.4588C136.19 82.4593 136.19 82.4597 136.19 82.4602C136.19 82.4604 136.19 82.4607 136.19 82.461C137.518 85.8989 137.635 89.107 140.302 91.3104C146.854 96.7251 151.599 106.036 151.982 114.742C152.156 118.723 151.091 122.906 148.399 125.758C146.185 128.102 143.069 129.356 139.934 129.839C133.277 130.864 125.947 130.202 119.199 130.359C111.739 130.532 104.28 130.706 96.8196 130.879C81.8998 131.226 66.9801 131.572 52.0603 131.919C45.7071 132.067 39.2511 132.202 33.115 130.493C26.9788 128.784 21.0959 124.944 18.3259 119.031C15.2098 112.378 17.9565 107.518 19.3808 101.048C20.7618 94.7743 20.5001 88.18 19.3733 81.888Z" fill="#EEF5E5"/>
<path d="M112.99 43.9709L102.069 40.9445C101.243 40.7157 100.761 39.8682 100.993 39.0515L101.368 37.7247C101.6 36.9081 102.457 36.4316 103.282 36.6604L114.204 39.6868C115.029 39.9156 115.511 40.7631 115.28 41.5797L114.904 42.9065C114.673 43.7232 113.816 44.1997 112.99 43.9709Z" fill="#425729"/>
<path d="M111.911 43.8147L103.073 41.3657L96.2962 50.0877C94.735 52.0969 93.4676 54.4125 92.5673 56.9431L83.9579 81.1415L107.348 87.623L112.769 62.2178C113.341 59.5398 113.465 56.8569 113.16 54.2925L111.911 43.8147Z" fill="#C6D4B7"/>
<path d="M110.683 57.7979L96.7722 53.9429L90.7587 75.1695L104.67 79.0245L110.683 57.7979Z" fill="#FBFFFD"/>
<path d="M137.268 42.8094C136.735 49.3595 135.899 56.0541 134.04 62.3802C132.747 66.7793 130.479 74.6432 126.353 77.3645C126.537 77.1825 122.805 75.7859 118.395 74.2201C112.244 72.0364 104.774 69.5241 104.765 69.5213C104.517 69.4377 109.104 57.5182 109.402 56.7982C112.31 49.7777 115.653 42.1876 120.986 36.6006C123.001 34.4883 125.669 32.3191 128.787 32.4457C130 32.4948 131.118 32.8045 132.116 33.3097C135.543 35.0436 137.571 39.0826 137.268 42.8094Z" fill="#FBA467"/>
<path d="M75.4709 79.0748L65.3355 83.0184C61.9576 84.3327 58.1419 82.6898 56.813 79.3488L45.9117 51.9424C44.5828 48.6014 46.2439 44.8276 49.6219 43.5133L59.7573 39.5697C63.1352 38.2554 66.9509 39.8983 68.2798 43.2392L79.1811 70.6457C80.51 73.9866 78.8489 77.7605 75.4709 79.0748Z" fill="#8CAA61"/>
<path d="M67.7033 47.9695L49.5953 55.0151L53.924 65.8977L72.0319 58.8521L67.7033 47.9695Z" fill="#C6D4B7"/>
<path d="M72.7764 61.1241L54.9453 68.062L56.5247 72.0327L74.3558 65.0948L72.7764 61.1241Z" fill="#C6D4B7"/>
<path d="M94.3449 69.3677H48.061V124.695H94.3449V69.3677Z" fill="#5F7650"/>
<path d="M130.137 69.3677H94.3441V124.695H130.137V69.3677Z" fill="#4C6142"/>
<path d="M93.5638 70.2916C93.351 72.4518 88.359 74.3244 81.9297 73.7048C75.5003 73.0853 69.441 71.4263 70.3661 69.4581C72.0215 65.9366 76.3283 66.9314 82.7003 65.8821C88.8628 64.8672 93.7767 68.1314 93.5638 70.2916Z" fill="#FDA266"/>
<path d="M79.3484 72.0352C83.0574 72.0352 86.0641 70.5483 86.0641 68.7141C86.0641 66.88 83.0574 65.3931 79.3484 65.3931C75.6394 65.3931 72.6327 66.88 72.6327 68.7141C72.6327 70.5483 75.6394 72.0352 79.3484 72.0352Z" fill="#FFEEDA"/>
<path d="M70.9535 56.9673C71.7126 55.1716 71.166 53.2354 69.7327 52.6428C68.2995 52.0502 66.5222 53.0255 65.7632 54.8213C65.0041 56.617 65.5507 58.5532 66.984 59.1458C68.4173 59.7384 70.1945 58.7631 70.9535 56.9673Z" fill="#FCA168"/>
<path d="M69.7462 56.4683C70.2342 55.3138 70.0085 54.121 69.2421 53.8041C68.4756 53.4872 67.4587 54.1662 66.9707 55.3207C66.4827 56.4752 66.7084 57.668 67.4749 57.9849C68.2413 58.3018 69.2582 57.6228 69.7462 56.4683Z" fill="#FFEDC4"/>
<path d="M88.3678 55.1567C89.4088 54.0161 89.0685 52.0342 87.6077 50.7299C86.1468 49.4256 84.1187 49.2929 83.0777 50.4334C82.0367 51.5739 82.377 53.5559 83.8378 54.8602C85.2987 56.1644 87.3268 56.2972 88.3678 55.1567Z" fill="#FCA168"/>
<path d="M87.4236 54.3131C87.9802 53.7033 87.6701 52.5291 86.731 51.6905C85.7918 50.852 84.5792 50.6667 84.0225 51.2765C83.4658 51.8864 83.7759 53.0606 84.7151 53.8992C85.6542 54.7377 86.8669 54.923 87.4236 54.3131Z" fill="#FFEDC4"/>
<path d="M78.7334 68.1183C83.9773 67.792 87.9797 63.6198 87.6731 58.7995C87.3664 53.9792 82.8667 50.3361 77.6228 50.6625C72.379 50.9889 68.3765 55.161 68.6832 59.9813C68.9899 64.8016 73.4896 68.4447 78.7334 68.1183Z" fill="#FDA266"/>
<path d="M72.7764 60.3363C73.1937 60.3363 73.532 60.0017 73.532 59.589C73.532 59.1763 73.1937 58.8418 72.7764 58.8418C72.3592 58.8418 72.0209 59.1763 72.0209 59.589C72.0209 60.0017 72.3592 60.3363 72.7764 60.3363Z" fill="#935121"/>
<path d="M83.1992 59.5886C83.6242 59.5886 83.9687 59.2478 83.9687 58.8275C83.9687 58.4071 83.6242 58.0664 83.1992 58.0664C82.7742 58.0664 82.4297 58.4071 82.4297 58.8275C82.4297 59.2478 82.7742 59.5886 83.1992 59.5886Z" fill="#935121"/>
<path d="M78.2328 64.3765C79.4846 64.3765 80.4993 63.3728 80.4993 62.1348C80.4993 60.8967 79.4846 59.8931 78.2328 59.8931C76.981 59.8931 75.9662 60.8967 75.9662 62.1348C75.9662 63.3728 76.981 64.3765 78.2328 64.3765Z" fill="#FFEEDA"/>
<path d="M78.169 61.4928C78.6764 61.4425 79.0678 61.2045 79.0431 60.9611C79.0185 60.7178 78.5871 60.5613 78.0797 60.6116C77.5722 60.6619 77.1809 60.8999 77.2055 61.1432C77.2302 61.3866 77.6615 61.5431 78.169 61.4928Z" fill="#754D2C"/>
<path d="M42.2094 67.1181L43.3543 67.1354C43.3543 67.1354 44.548 62.7114 42.9778 62.3452C42.9801 62.4117 42.5741 63.1721 42.3514 63.5839C42.2581 63.7564 42.2094 63.9489 42.2094 64.1445V67.1181H42.2094Z" fill="#FFBAB9"/>
<path d="M137.268 42.8093C136.735 49.3594 135.899 56.054 134.04 62.3801C132.748 66.7792 130.48 74.6431 126.353 77.3644C126.537 77.1824 122.805 75.7858 118.395 74.22C118.395 74.22 123.269 66.2534 123.176 66.0354C118.226 65.6502 115.731 62.8844 115.219 62.2476C115.143 62.1528 115.064 62.0598 114.982 61.9696C113.178 59.9789 114.189 59.346 115.152 59.1483C115.69 59.0378 116.242 59.2462 116.576 59.6781C117.912 61.4063 121.446 61.9147 123.705 62.0603C124.887 62.1366 125.983 61.4434 126.41 60.3499C127.102 58.5793 128.036 56.0743 127.895 55.7958C121.727 55.7958 119.136 49.5946 119.665 49.1654C120.265 48.6793 126.681 51.556 128.291 51.2136C128.787 51.1083 129.76 50.0749 129.907 49.5955C131.223 45.3021 131.846 37.8515 132.116 33.3096C135.543 35.0435 137.571 39.0825 137.268 42.8093Z" fill="#F2924B"/>
<path d="M87.8652 91.3675H42.1985L48.0611 69.3677H94.345L87.8652 91.3675Z" fill="#789464"/>
<path d="M132.605 91.3675H99.5896L94.3441 69.3677H132.605V91.3675Z" fill="#5B794C"/>
<path d="M35.1387 69.4585C41.5242 69.4585 46.7008 64.3388 46.7008 58.0232C46.7008 51.7077 41.5242 46.5879 35.1387 46.5879C28.7531 46.5879 23.5766 51.7077 23.5766 58.0232C23.5766 64.3388 28.7531 69.4585 35.1387 69.4585Z" fill="#F28338"/>
<path d="M35.1384 65.9368C39.5962 65.9368 43.21 62.3627 43.21 57.9538C43.21 53.5448 39.5962 49.9707 35.1384 49.9707C30.6807 49.9707 27.0669 53.5448 27.0669 57.9538C27.0669 62.3627 30.6807 65.9368 35.1384 65.9368Z" fill="#FFA969" stroke="white" stroke-width="16" stroke-miterlimit="10"/>
<path d="M37.4746 55.3542C37.3586 55.2242 37.2233 55.1076 37.0687 55.0044C36.914 54.9012 36.7401 54.8114 36.5469 54.7349C36.3536 54.6585 36.1468 54.5972 35.9265 54.5514C35.7062 54.5055 35.4723 54.4825 35.225 54.4825C34.506 54.4825 33.9784 54.6182 33.6422 54.8891C33.3059 55.1601 33.1377 55.5285 33.1377 55.9941C33.1377 56.3148 33.2169 56.5668 33.3755 56.7499C33.5338 56.9331 33.7831 57.082 34.1234 57.1965C34.4635 57.3112 34.8963 57.4295 35.4221 57.5515C36.0095 57.6737 36.5159 57.8187 36.9412 57.9866C37.3662 58.1547 37.6949 58.3817 37.9268 58.6681C38.1587 58.9544 38.2747 59.3419 38.2747 59.8304C38.2747 60.2045 38.2011 60.5289 38.0544 60.8038C37.9074 61.0787 37.7025 61.3077 37.4398 61.4908C37.1769 61.674 36.8638 61.8094 36.5005 61.8973C36.137 61.9851 35.739 62.029 35.3061 62.029C34.8809 62.029 34.473 61.9849 34.0828 61.8971C33.6923 61.8093 33.3232 61.6792 32.9753 61.5071C32.6275 61.3351 32.3028 61.1154 32.0013 60.8477L32.4071 60.194C32.5539 60.347 32.7298 60.4904 32.9348 60.624C33.1395 60.7579 33.3676 60.8783 33.6189 60.9853C33.87 61.0925 34.1407 61.1746 34.4306 61.2319C34.7205 61.2892 35.02 61.3179 35.3293 61.3179C35.9863 61.3179 36.4985 61.1996 36.8658 60.9631C37.2328 60.7265 37.4166 60.3757 37.4166 59.9101C37.4166 59.5743 37.3238 59.3051 37.1383 59.1028C36.9527 58.9005 36.6744 58.7344 36.3034 58.6046C35.9323 58.4749 35.4761 58.3487 34.9351 58.2265C34.3629 58.0968 33.8799 57.9518 33.4856 57.7915C33.0913 57.6313 32.7956 57.4193 32.5985 57.1558C32.4014 56.8924 32.3028 56.5432 32.3028 56.1079C32.3028 55.604 32.4284 55.1784 32.6797 54.8309C32.9308 54.4836 33.2768 54.2202 33.7175 54.0406C34.1582 53.8612 34.6644 53.7715 35.2366 53.7715C35.5998 53.7715 35.9381 53.8079 36.2512 53.8804C36.5643 53.9532 36.8542 54.0582 37.1209 54.1958C37.3876 54.3334 37.6369 54.5055 37.8688 54.7119L37.4746 55.3542Z" fill="#FDFDFF"/>
<path d="M35.1386 52.8843V63.0239" stroke="white" stroke-width="20" stroke-miterlimit="10"/>
<path d="M77.3999 129.233H55.9262C55.5263 129.233 55.202 128.912 55.202 128.517V125.611C55.202 125.215 55.5263 124.895 55.9262 124.895H77.3999C77.7999 124.895 78.1241 125.215 78.1241 125.611V128.517C78.1241 128.912 77.7999 129.233 77.3999 129.233Z" fill="#D87736" stroke="#E94E1B" stroke-miterlimit="10"/>
<path d="M69.1277 129.233H55.7602C55.4519 129.233 55.202 128.986 55.202 128.681V125.447C55.202 125.142 55.4519 124.895 55.7602 124.895H69.1277C69.4359 124.895 69.6858 125.142 69.6858 125.447V128.681C69.6858 128.986 69.4359 129.233 69.1277 129.233Z" fill="#F2924B" stroke="#E94E1B" stroke-miterlimit="10"/>
<path d="M58.5358 129.233H55.8266C55.6066 129.233 55.4283 129.057 55.4283 128.839V125.288C55.4283 125.071 55.6066 124.895 55.8266 124.895H58.5358C58.7558 124.895 58.9341 125.071 58.9341 125.288V128.839C58.9341 129.057 58.7558 129.233 58.5358 129.233Z" fill="#EFB075" stroke="#E94E1B" stroke-miterlimit="10"/>
<path d="M76.736 125.578H55.2624C54.8625 125.578 54.5382 125.257 54.5382 124.861V121.956C54.5382 121.56 54.8625 121.239 55.2624 121.239H76.736C77.136 121.239 77.4603 121.56 77.4603 121.956V124.861C77.4603 125.257 77.136 125.578 76.736 125.578Z" fill="#D87736" stroke="#E94E1B" stroke-miterlimit="10"/>
<path d="M68.4639 125.578H55.0964C54.7881 125.578 54.5382 125.33 54.5382 125.026V121.791C54.5382 121.486 54.7881 121.239 55.0964 121.239H68.4639C68.7721 121.239 69.022 121.486 69.022 121.791V125.026C69.022 125.33 68.7721 125.578 68.4639 125.578Z" fill="#F2924B" stroke="#E94E1B" stroke-miterlimit="10"/>
<path d="M57.8719 125.578H55.1627C54.9427 125.578 54.7643 125.401 54.7643 125.184V121.633C54.7643 121.416 54.9427 121.239 55.1627 121.239H57.8719C58.0919 121.239 58.2703 121.416 58.2703 121.633V125.184C58.2702 125.401 58.0919 125.578 57.8719 125.578Z" fill="#EFB075" stroke="#E94E1B" stroke-miterlimit="10"/>
<path d="M75.3847 121.239H53.911C53.5111 121.239 53.1868 120.919 53.1868 120.523V117.617C53.1868 117.222 53.5111 116.901 53.911 116.901H75.3847C75.7847 116.901 76.1089 117.222 76.1089 117.617V120.523C76.1089 120.919 75.7847 121.239 75.3847 121.239Z" fill="#D87736" stroke="#E94E1B" stroke-miterlimit="10"/>
<path d="M67.1125 121.239H53.745C53.4367 121.239 53.1868 120.992 53.1868 120.687V117.453C53.1868 117.148 53.4367 116.901 53.745 116.901H67.1125C67.4208 116.901 67.6707 117.148 67.6707 117.453V120.687C67.6707 120.992 67.4208 121.239 67.1125 121.239Z" fill="#F2924B" stroke="#E94E1B" stroke-miterlimit="10"/>
<path d="M56.5213 121.239H53.8121C53.5921 121.239 53.4138 121.063 53.4138 120.845V117.295C53.4138 117.077 53.5922 116.901 53.8121 116.901H56.5213C56.7414 116.901 56.9197 117.077 56.9197 117.295V120.845C56.9197 121.063 56.7414 121.239 56.5213 121.239Z" fill="#EFB075" stroke="#E94E1B" stroke-miterlimit="10"/>
<path d="M77.3999 116.87H55.9262C55.5263 116.87 55.202 116.549 55.202 116.153V113.248C55.202 112.852 55.5263 112.531 55.9262 112.531H77.3999C77.7999 112.531 78.1241 112.852 78.1241 113.248V116.153C78.1241 116.549 77.7999 116.87 77.3999 116.87Z" fill="#D87736" stroke="#E94E1B" stroke-miterlimit="10"/>
<path d="M69.1277 116.87H55.7602C55.4519 116.87 55.202 116.622 55.202 116.318V113.083C55.202 112.778 55.4519 112.531 55.7602 112.531H69.1277C69.4359 112.531 69.6858 112.778 69.6858 113.083V116.318C69.6858 116.622 69.4359 116.87 69.1277 116.87Z" fill="#F2924B" stroke="#E94E1B" stroke-miterlimit="10"/>
<path d="M58.5358 116.87H55.8266C55.6066 116.87 55.4283 116.693 55.4283 116.476V112.925C55.4283 112.708 55.6066 112.531 55.8266 112.531H58.5358C58.7558 112.531 58.9341 112.708 58.9341 112.925V116.476C58.9341 116.693 58.7558 116.87 58.5358 116.87Z" fill="#EFB075" stroke="#E94E1B" stroke-miterlimit="10"/>
<path d="M75.3847 112.603H53.911C53.5111 112.603 53.1868 112.282 53.1868 111.887V108.981C53.1868 108.585 53.5111 108.265 53.911 108.265H75.3847C75.7847 108.265 76.1089 108.585 76.1089 108.981V111.887C76.1089 112.282 75.7847 112.603 75.3847 112.603Z" fill="#D87736" stroke="#E94E1B" stroke-miterlimit="10"/>
<path d="M67.1125 112.603H53.745C53.4367 112.603 53.1868 112.356 53.1868 112.051V108.817C53.1868 108.512 53.4367 108.265 53.745 108.265H67.1125C67.4208 108.265 67.6707 108.512 67.6707 108.817V112.051C67.6707 112.356 67.4208 112.603 67.1125 112.603Z" fill="#F2924B" stroke="#E94E1B" stroke-miterlimit="10"/>
<path d="M56.5213 112.603H53.8121C53.5921 112.603 53.4138 112.427 53.4138 112.209V108.659C53.4138 108.441 53.5922 108.265 53.8121 108.265H56.5213C56.7414 108.265 56.9197 108.441 56.9197 108.659V112.209C56.9197 112.427 56.7414 112.603 56.5213 112.603Z" fill="#EFB075" stroke="#E94E1B" stroke-miterlimit="10"/>
<path d="M29.0258 67.5277C29.0258 67.5277 28.3349 64.3677 29.6306 62.9946C29.7715 63.0643 30.1257 64.0214 30.2872 64.4753C30.3417 64.6286 30.365 64.791 30.3557 64.9532L30.1988 67.7016L29.0258 67.5277Z" fill="#FFBAB9"/>
<path d="M38.9514 123.504L39.1657 127.25L40.62 127.499L41.1154 123.504H38.9514Z" fill="#FFBAB9"/>
<path d="M39.156 127.058C39.156 127.058 38.3568 128.746 39.0896 128.907C39.0896 128.907 43.5141 129.05 44.7081 129.039C44.887 129.037 44.9944 128.842 44.899 128.692L44.8679 128.644C44.783 128.51 44.6541 128.41 44.5032 128.361L40.6649 126.925C40.6649 126.925 40.4699 127.379 39.156 127.058Z" fill="#432918"/>
<path d="M25.7171 121.073L24.5027 124.759L25.788 125.476L27.5768 121.866L25.7171 121.073Z" fill="#FFBAB9"/>
<path d="M24.5583 124.574C24.5583 124.574 23.2324 125.899 23.8679 126.293C23.8679 126.293 27.9866 127.899 29.1151 128.285C29.2842 128.342 29.4517 128.194 29.4126 128.022L29.3999 127.965C29.3651 127.812 29.2777 127.675 29.1525 127.578L26.0248 124.95C26.0248 124.95 25.6867 125.314 24.5583 124.574Z" fill="#432918"/>
<path d="M35.4846 76.6898L35.1386 79.4139H37.5986V76.4595L35.4846 76.6898Z" fill="#FFBAB9"/>
<path d="M43.144 96.1326V108.399L42.3 125.195L38.224 125.269H38.2196L37.3343 125.285L37.3348 125.276L37.9531 112.768C37.9584 112.663 37.9563 112.558 37.9474 112.453L37.0402 101.955L37.0355 101.9L31.9448 114.533L28.0112 124.236C28.0112 124.236 24.0775 123.229 24.0775 123.046C24.1575 118.37 27.1519 113.144 27.9541 111.826C28.0859 111.61 28.1827 111.374 28.2413 111.128L31.9448 95.5835L43.144 96.1326Z" fill="#B0CC8F"/>
<path d="M43.6888 97.2315L31.2906 98.3319L33.0885 91.3677L43.6888 97.2315Z" fill="#97A97E"/>
<path d="M28.705 67.48C28.705 67.48 26.206 77.1834 30.0008 81.5775C30.0934 81.669 29.8045 95.9495 29.8045 95.9495L43.6881 97.2311L43.1439 81.9436C43.1439 81.9436 46.7536 74.6203 43.8844 67.0223C43.9769 66.9307 42.2091 67.1181 42.2091 67.1181C42.2091 67.1181 41.154 76.796 39.123 78C38.9909 78.0783 38.867 78.1692 38.7583 78.2771C38.2071 78.8241 36.1051 80.3395 34.6733 78.5992C34.5331 78.4288 34.3634 78.2837 34.1714 78.1731C33.2592 77.6474 30.3848 75.1194 30.4636 67.48C30.7413 67.5715 28.705 67.48 28.705 67.48Z" fill="#ECD582"/>
<path d="M36.1335 77.2704C36.1335 77.2704 37.5978 78.2552 39.6479 77.7338C39.7064 77.7917 40.3507 75.1849 38.4764 73.6787C38.535 73.7946 35.0207 74.0842 35.0207 74.0842L34.3178 75.7824L36.1335 77.2704Z" fill="#FFBAB9"/>
<path d="M36.1343 77.2706C36.1343 77.2706 33.7329 78.1974 33.0886 75.3009C33.1472 75.4747 32.5029 70.1277 37.3643 72.0192C37.3643 72.0192 38.726 70.5008 39.1801 72.969C39.2972 73.2734 37.1886 74.8186 35.7829 74.5094C35.9 74.6058 35.2599 75.243 36.1364 75.9961C36.1343 75.9961 33.8722 75.2065 35.794 76.9916C35.8108 77.0055 36.1343 77.2706 36.1343 77.2706Z" fill="#432918"/>
<path d="M38.2234 125.27H38.219L37.3342 125.277L37.9525 112.768C37.9578 112.663 37.9557 112.558 37.9468 112.453L37.0396 101.956C37.417 100.816 38.0075 100.878 38.0075 100.878C38.0075 100.878 38.9746 112.355 38.951 112.408C39.3036 114.533 38.2234 125.27 38.2234 125.27Z" fill="#97A97E"/>
<path d="M112.043 57.7158L109.541 60.3839L106.956 58.013C105.621 56.7878 103.787 56.2398 101.991 56.5352C99.1681 56.9993 97.506 58.5023 97.3095 61.3173C97.1873 63.0676 97.8808 64.7772 99.1809 65.9707C100.001 66.7239 110.006 76.1583 110.058 76.1023L119.905 65.6022C121.172 64.2516 121.721 62.3876 121.379 60.5767C120.856 57.8039 119.465 56.2429 117.197 55.9097C115.285 55.6288 113.358 56.3142 112.043 57.7158Z" fill="#E30613"/>
<path d="M41.8888 34.9641L41.1604 35.7407L40.4082 35.0506C40.0196 34.6941 39.4859 34.5345 38.9629 34.6205C38.1414 34.7556 37.6576 35.193 37.6005 36.0124C37.5649 36.5218 37.7667 37.0194 38.1451 37.3667C38.3839 37.5859 41.2958 40.3319 41.3108 40.3156L44.177 37.2595C44.5457 36.8664 44.7055 36.3239 44.606 35.7968C44.4536 34.9898 44.049 34.5355 43.3888 34.4385C42.8323 34.3567 42.2714 34.5562 41.8888 34.9641Z" fill="#E30613"/>
<path d="M135.572 118.094L136.985 121.079C137.052 121.69 136.782 122.175 136.278 122.572L133.991 118.947L135.572 118.094Z" fill="#FFBAB9"/>
<path d="M119.458 63.7325C119.458 63.7325 120.168 62.3011 117.92 60.7462C117.872 60.7129 117.805 60.7458 117.803 60.8039L117.785 61.414C117.769 61.9234 117.911 62.4256 118.125 62.8892L118.672 64.0757L119.458 63.7325Z" fill="#FFBAB9"/>
<path d="M105.993 72.8705L103.622 69.6534C103.542 69.545 103.369 69.5874 103.35 69.7202C103.216 70.6605 103.125 73.1551 105.993 72.8705Z" fill="#FFBAB9"/>
<path d="M121.161 121.77L120.619 125.022C120.627 125.879 120.227 126.302 119.585 126.469L119.369 121.589L121.161 121.77Z" fill="#FFBAB9"/>
<path d="M136.985 117.88L133.535 120.344L125.87 109.73L120.983 100.064L120.624 108.856C120.611 109.171 120.717 109.477 120.912 109.725C122.527 111.786 122.612 122.145 122.612 122.145H117.725L115.905 110.962C115.905 110.962 113.892 93.2404 113.988 93.2404C116.039 93.9781 118.01 94.0878 119.736 93.8992C122.266 93.6228 124.271 92.7061 125.238 92.1866C125.647 91.9673 125.87 91.8188 125.87 91.8188L126.025 91.9416L126.828 92.5771C126.828 92.5771 127.025 93.612 127.31 95.1197C127.907 98.2776 128.89 103.509 129.266 105.648C129.353 106.142 129.669 106.572 130.126 106.793C133.198 108.272 136.985 117.88 136.985 117.88Z" fill="#6D894C"/>
<path d="M127.31 95.1195C127.31 95.1204 127.31 95.1206 127.31 95.1206C119.106 97.2051 117.92 94.6713 118.063 94.4198L119.736 93.899L125.239 92.1864L126.025 91.9414L126.828 92.5769C126.828 92.5769 127.025 93.6118 127.31 95.1195Z" fill="#3B4726"/>
<path d="M125.485 77.5086C125.485 77.5086 125.008 67.1788 119.929 63.7671H118.205C118.205 63.7671 122.421 75.9568 122.325 76.8275C122.229 76.8452 116.48 76.087 116.48 76.087C116.48 76.087 108.56 75.5605 105.685 71.8646C105.589 71.9593 104.314 72.7225 104.314 72.7225C104.314 72.7225 107.945 79.1196 113.985 79.783C114.084 79.8778 113.989 93.2401 113.989 93.2401C113.989 93.2401 122.996 97.8838 126.828 92.5768L125.175 85.0041C125.064 84.4953 125.026 83.9736 125.063 83.4544L125.485 77.5086Z" fill="#D8DAB9"/>
<path d="M117.805 72.3204C117.805 72.3204 116.727 69.9038 119.286 69.6195C119.259 69.6195 121.415 68.6955 122.205 72.3204C122.133 72.3204 127.364 78.578 121.479 80.7488C121.349 81.0331 118.522 84.3887 118.333 86.4499C118.288 86.6631 115.074 80.762 119.286 76.0437L118.684 72.7469L117.805 72.3204Z" fill="#663E29"/>
<path d="M119.287 76.0436C120.105 76.0436 120.768 74.8858 120.768 73.4576C120.768 72.0294 120.105 70.8716 119.287 70.8716C118.468 70.8716 117.805 72.0294 117.805 73.4576C117.805 74.8858 118.468 76.0436 119.287 76.0436Z" fill="#FFBAB9"/>
<path d="M122.247 125.707C122.297 126.2 121.867 126.699 121.52 127.005C121.375 127.132 121.216 127.246 121.098 127.398C120.899 127.653 120.841 127.977 120.695 128.261C120.532 128.578 120.315 128.867 120.073 129.13C119.81 129.416 119.517 129.672 119.218 129.919C118.953 130.139 118.679 130.377 118.347 130.491C118.208 130.539 118.012 130.475 118.075 130.282L119.127 128.234C119.213 127.97 119.39 127.61 119.464 127.249L119.585 126.469C120.109 126.136 120.47 125.668 120.619 125.022C120.619 125.022 120.825 125.045 120.825 125.045C121 125.065 121.208 124.967 121.398 124.985C121.586 125.002 121.774 125.059 121.927 125.17C122.126 125.315 122.227 125.505 122.247 125.707Z" fill="#423728"/>
<path d="M138.701 121.471C138.712 121.528 138.715 121.589 138.709 121.655C138.67 122.102 138.42 122.507 138.118 122.83C137.987 122.971 137.839 123.099 137.736 123.261C137.563 123.535 137.537 123.863 137.42 124.159C137.288 124.491 137.101 124.799 136.886 125.084C136.652 125.393 136.385 125.676 136.112 125.951C135.87 126.195 135.62 126.458 135.301 126.604C135.167 126.665 134.966 126.62 135.01 126.421L135.856 124.283C135.916 124.012 136.057 123.636 136.095 123.27L136.181 122.417C136.67 122.036 136.909 121.793 136.995 121.136C137.449 120.777 138.578 120.826 138.701 121.471Z" fill="#423728"/>
<path d="M122.613 122.145H121.503C118.113 105.786 120.122 99.565 120.04 99.4574C120.627 97.9076 120.984 100.064 120.984 100.064L120.625 108.856C120.612 109.171 120.717 109.477 120.912 109.726C122.528 111.786 122.613 122.145 122.613 122.145Z" fill="#3B4726"/>
<path d="M120.234 17.8777L121.586 15.3877L110.367 7L120.234 17.8777Z" fill="#4C6142"/>
<path d="M125.516 13.5814L121.586 15.3876L110.367 7L125.508 13.1937C125.68 13.2642 125.685 13.5037 125.516 13.5814Z" fill="#789464"/>
<path d="M110.367 7L114.402 17.3965C114.507 17.666 114.807 17.8069 115.084 17.7168L120.234 16.0429L110.367 7Z" fill="#789464"/>
<path d="M52.1483 76.3081C52.6719 76.2235 53.2923 76.1675 53.9645 76.1675C55.1873 76.1675 56.0638 76.4542 56.6419 76.9884C57.2328 77.5177 57.5776 78.2746 57.5776 79.3272C57.5776 80.3989 57.2391 81.2661 56.627 81.8699C56.0025 82.4783 54.9807 82.8121 53.7009 82.8121C53.0893 82.8121 52.5825 82.7885 52.1483 82.7393L52.1483 76.3081ZM53.0056 82.0903C53.2221 82.125 53.5382 82.1301 53.8639 82.1301C55.6933 82.1344 56.6785 81.1266 56.6785 79.3593C56.6888 77.8155 55.806 76.8413 54.0059 76.8413C53.5644 76.8413 53.2334 76.8818 53.0056 76.9273V82.0903Z" fill="white"/>
<path d="M64.3305 79.4212C64.3305 81.6638 62.9489 82.8614 61.2642 82.8614C59.5114 82.8614 58.2937 81.5193 58.2937 79.544C58.2937 77.473 59.5896 76.1118 61.3539 76.1118C63.1587 76.1118 64.3305 77.4792 64.3305 79.4212ZM59.1964 79.5244C59.1964 80.9231 59.9644 82.1747 61.3105 82.1747C62.6662 82.1747 63.4278 80.9433 63.4278 79.4583C63.4278 78.157 62.7414 76.7985 61.3213 76.7985C59.9027 76.7985 59.1964 78.0948 59.1964 79.5244Z" fill="white"/>
<path d="M65.4347 82.7545V76.2183H66.3732L68.4901 79.5217C68.9731 80.2884 69.3569 80.9755 69.6692 81.6501L69.691 81.6399C69.6136 80.7674 69.5981 79.9703 69.5981 78.9577V76.2183H70.4018V82.7545H69.5348L67.4343 79.4414C66.9791 78.709 66.5348 77.9636 66.2048 77.2529L66.1756 77.2631C66.2266 78.0913 66.2384 78.879 66.2384 79.9595V82.7544H65.4347V82.7545Z" fill="white"/>
<path d="M72.9587 80.7002L72.2759 82.7545H71.3909L73.6385 76.2183H74.665L76.922 82.7545H76.0092L75.3014 80.7002H72.9587ZM75.129 80.0402L74.4747 78.1592C74.3313 77.7314 74.232 77.3421 74.1342 76.9668H74.1112C74.0165 77.3489 73.9133 77.7481 73.7835 78.1478L73.1323 80.0402H75.129Z" fill="white"/>
<path d="M78.3935 76.9314H76.3804V76.2183H81.2742V76.9314H79.2516V82.7545H78.3935V76.9314Z" fill="white"/>
<path d="M85.4253 79.6903H82.8632V82.0513H85.7287V82.7545H82.0051V76.2183H85.5777V76.9215H82.8632V78.9915H85.4253V79.6903Z" fill="white"/>
<path d="M94.3449 53.0299C91.2567 50.5702 87.2523 47.3634 84.8183 44.2676C82.6777 41.545 78.4827 40.2195 75.4049 38.8801C73.2917 37.9604 70.9547 37.5643 68.6821 37.243C66.4293 36.9245 64.2187 36.1563 62.04 35.5058C57.383 34.1155 52.7733 32.5718 48.2095 30.9067C45.8617 30.0501 43.4424 29.1077 41.719 27.3132C39.7932 25.3081 38.6859 21.8231 39.667 19.1325C40.077 18.0083 40.9722 17.1062 41.9976 16.4738C44.1383 15.1534 46.8641 14.5634 49.3669 14.6375C54.701 14.7956 60.2216 16.1841 65.3793 17.4607C70.8306 18.8099 76.2075 20.4297 81.6018 21.9819C86.9758 23.5283 92.4307 25.0195 97.6785 26.9577C102.753 28.8321 107.662 31.147 112.329 33.8671C116.238 36.1455 120.011 38.7235 124.244 40.3393C128.477 41.9552 133.353 42.523 137.5 40.7032C141.648 38.8833 144.675 34.2039 143.533 29.8604C142.768 26.951 140.32 24.6757 137.523 23.4998C134.726 22.3238 131.607 22.1184 128.57 22.2372C126.911 22.3022 125.218 22.4557 123.614 22.0309C122.01 21.6061 120.535 19.4931 120.235 17.8777" stroke="#4C6142" stroke-width="3" stroke-miterlimit="10"/>
<path d="M54.9609 154.44C54.9609 155.467 54.8476 156.287 54.6209 156.9C54.3943 157.513 54.0543 157.973 53.6009 158.28C53.1476 158.573 52.5743 158.773 51.8809 158.88C51.2009 158.973 50.4009 159.02 49.4809 159.02C48.9476 159.02 48.4276 159.02 47.9209 159.02C47.4276 159.02 46.9543 159.013 46.5009 159C46.0476 159 45.6209 159 45.2209 159C44.8343 159 44.4943 159 44.2009 159V151.1C44.2009 150.647 44.2809 150.32 44.4409 150.12C44.6009 149.92 44.9276 149.813 45.4209 149.8C45.7276 149.8 46.0743 149.8 46.4609 149.8C46.8476 149.787 47.2409 149.78 47.6409 149.78C48.0543 149.78 48.4609 149.78 48.8609 149.78C49.2743 149.78 49.6409 149.78 49.9609 149.78C50.8276 149.793 51.5743 149.86 52.2009 149.98C52.8409 150.1 53.3609 150.32 53.7609 150.64C54.1743 150.96 54.4743 151.427 54.6609 152.04C54.8609 152.64 54.9609 153.44 54.9609 154.44ZM46.8609 157.62C46.9809 157.62 47.1409 157.62 47.3409 157.62C47.5543 157.62 47.7743 157.627 48.0009 157.64C48.2409 157.64 48.4743 157.64 48.7009 157.64C48.9276 157.64 49.1143 157.64 49.2609 157.64C49.8076 157.64 50.2676 157.6 50.6409 157.52C51.0276 157.44 51.3343 157.287 51.5609 157.06C51.7876 156.82 51.9543 156.493 52.0609 156.08C52.1676 155.653 52.2209 155.113 52.2209 154.46C52.2209 153.54 52.1276 152.847 51.9409 152.38C51.7543 151.9 51.4476 151.58 51.0209 151.42C50.5943 151.247 50.0009 151.16 49.2409 151.16C49.0676 151.16 48.8409 151.16 48.5609 151.16C48.2809 151.16 48.0076 151.167 47.7409 151.18C47.4743 151.18 47.2476 151.187 47.0609 151.2C47.0076 151.267 46.9609 151.347 46.9209 151.44C46.8809 151.52 46.8609 151.66 46.8609 151.86V157.62ZM60.8358 159.12C60.1291 159.12 59.5024 159.073 58.9558 158.98C58.4091 158.873 57.9424 158.68 57.5558 158.4C57.1824 158.107 56.8958 157.687 56.6958 157.14C56.4958 156.593 56.3958 155.887 56.3958 155.02C56.3958 154.153 56.4958 153.447 56.6958 152.9C56.8958 152.353 57.1824 151.94 57.5558 151.66C57.9424 151.367 58.4091 151.173 58.9558 151.08C59.5024 150.973 60.1291 150.92 60.8358 150.92C61.5558 150.92 62.1824 150.973 62.7158 151.08C63.2624 151.173 63.7224 151.367 64.0958 151.66C64.4691 151.94 64.7491 152.353 64.9358 152.9C65.1358 153.447 65.2358 154.153 65.2358 155.02C65.2358 155.9 65.1358 156.613 64.9358 157.16C64.7491 157.693 64.4691 158.107 64.0958 158.4C63.7224 158.68 63.2624 158.873 62.7158 158.98C62.1691 159.073 61.5424 159.12 60.8358 159.12ZM60.8358 157.9C61.2624 157.9 61.6158 157.827 61.8958 157.68C62.1891 157.533 62.4091 157.253 62.5558 156.84C62.7024 156.427 62.7758 155.82 62.7758 155.02C62.7758 154.22 62.7024 153.613 62.5558 153.2C62.4091 152.787 62.1891 152.507 61.8958 152.36C61.6158 152.213 61.2624 152.14 60.8358 152.14C60.4224 152.14 60.0691 152.213 59.7758 152.36C59.4824 152.507 59.2558 152.787 59.0958 153.2C58.9358 153.613 58.8558 154.22 58.8558 155.02C58.8558 155.82 58.9358 156.427 59.0958 156.84C59.2558 157.253 59.4824 157.533 59.7758 157.68C60.0691 157.827 60.4224 157.9 60.8358 157.9ZM67.6288 159C67.1888 159 66.9688 158.773 66.9688 158.32V151.54C67.3688 151.38 67.9354 151.247 68.6688 151.14C69.4154 151.02 70.2421 150.96 71.1488 150.96C72.0954 150.96 72.8421 151.013 73.3888 151.12C73.9488 151.227 74.3621 151.407 74.6288 151.66C74.9088 151.913 75.0888 152.247 75.1688 152.66C75.2621 153.073 75.3088 153.587 75.3088 154.2V158.06C75.3088 158.3 75.2888 158.493 75.2488 158.64C75.2221 158.773 75.1354 158.873 74.9888 158.94C74.8554 158.993 74.6421 159.02 74.3488 159.02L72.9088 159V153.64C72.9088 153.173 72.7621 152.833 72.4688 152.62C72.1754 152.407 71.7421 152.3 71.1688 152.3C70.9688 152.3 70.7554 152.32 70.5288 152.36C70.3021 152.387 70.0888 152.433 69.8888 152.5C69.6888 152.553 69.5221 152.627 69.3888 152.72V159H67.6288ZM81.0836 159.1C80.2036 159.1 79.4903 159.067 78.9436 159C78.3969 158.947 77.9769 158.833 77.6836 158.66C77.3903 158.473 77.1903 158.22 77.0836 157.9C76.9769 157.58 76.9236 157.173 76.9236 156.68C76.9236 156 76.9969 155.48 77.1436 155.12C77.2903 154.76 77.5369 154.52 77.8836 154.4C78.2436 154.267 78.7236 154.2 79.3236 154.2C79.6569 154.2 80.0303 154.207 80.4436 154.22C80.8703 154.22 81.2836 154.227 81.6836 154.24C82.0836 154.253 82.4303 154.28 82.7236 154.32C83.0303 154.347 83.2369 154.373 83.3436 154.4C83.3436 153.92 83.3036 153.54 83.2236 153.26C83.1436 152.98 83.0103 152.767 82.8236 152.62C82.6369 152.473 82.3969 152.38 82.1036 152.34C81.8236 152.3 81.4836 152.28 81.0836 152.28C80.6303 152.28 80.1703 152.293 79.7036 152.32C79.2503 152.333 78.8169 152.367 78.4036 152.42C78.0036 152.46 77.6503 152.52 77.3436 152.6V152.14C77.3436 151.807 77.4236 151.567 77.5836 151.42C77.7436 151.26 77.9503 151.153 78.2036 151.1C78.4969 151.033 78.9236 150.987 79.4836 150.96C80.0569 150.933 80.6636 150.92 81.3036 150.92C82.1303 150.92 82.8236 150.96 83.3836 151.04C83.9436 151.12 84.3903 151.28 84.7236 151.52C85.0703 151.76 85.3169 152.113 85.4636 152.58C85.6103 153.033 85.6836 153.647 85.6836 154.42V158.46C85.5236 158.687 85.0569 158.853 84.2836 158.96C83.5236 159.053 82.4569 159.1 81.0836 159.1ZM81.0636 158.06C81.5169 158.06 81.8903 158.053 82.1836 158.04C82.4903 158.013 82.7369 157.973 82.9236 157.92C83.1103 157.867 83.2503 157.8 83.3436 157.72V155.24C83.2103 155.2 82.9969 155.167 82.7036 155.14C82.4236 155.1 82.1369 155.073 81.8436 155.06C81.5503 155.033 81.3036 155.02 81.1036 155.02C80.7036 155.02 80.3769 155.053 80.1236 155.12C79.8703 155.173 79.6836 155.307 79.5636 155.52C79.4569 155.733 79.4036 156.067 79.4036 156.52C79.4036 156.88 79.4436 157.18 79.5236 157.42C79.6036 157.647 79.7636 157.813 80.0036 157.92C80.2436 158.013 80.5969 158.06 81.0636 158.06ZM90.2561 159.08C89.6294 159.08 89.1361 159.013 88.7761 158.88C88.4294 158.733 88.1828 158.5 88.0361 158.18C87.8894 157.847 87.8161 157.393 87.8161 156.82V152.3H86.9961V151.02H87.8161V149.84C87.8161 149.56 87.8361 149.353 87.8761 149.22C87.9161 149.087 87.9961 149 88.1161 148.96C88.2494 148.92 88.4428 148.9 88.6961 148.9H90.2561C90.2561 148.94 90.2494 149.007 90.2361 149.1C90.2361 149.18 90.2361 149.287 90.2361 149.42V151.02H92.1561V152.3H90.2561V156.6C90.2561 157.12 90.3028 157.5 90.3961 157.74C90.5028 157.967 90.7694 158.08 91.1961 158.08C91.3294 158.08 91.4828 158.067 91.6561 158.04C91.8428 158.013 91.9694 157.987 92.0361 157.96V158.9C91.9561 158.913 91.7561 158.947 91.4361 159C91.1161 159.053 90.7228 159.08 90.2561 159.08ZM95.6303 159.08C94.8436 159.08 94.297 158.913 93.9903 158.58C93.697 158.233 93.5503 157.693 93.5503 156.96V151.02H95.9903V156.84C95.9903 157.307 96.0503 157.633 96.1703 157.82C96.2903 157.993 96.5036 158.08 96.8103 158.08C96.957 158.08 97.097 158.067 97.2303 158.04C97.3636 158.013 97.4503 157.993 97.4903 157.98V158.9C97.437 158.913 97.3436 158.933 97.2103 158.96C97.077 158.987 96.8836 159.013 96.6303 159.04C96.377 159.067 96.0436 159.08 95.6303 159.08ZM94.7903 149.98C94.4036 149.98 94.1236 149.933 93.9503 149.84C93.777 149.733 93.6903 149.54 93.6903 149.26C93.6903 148.98 93.777 148.787 93.9503 148.68C94.137 148.573 94.4236 148.52 94.8103 148.52C95.197 148.533 95.4703 148.593 95.6303 148.7C95.8036 148.793 95.8836 148.98 95.8703 149.26C95.8703 149.54 95.7903 149.733 95.6303 149.84C95.4703 149.933 95.1903 149.98 94.7903 149.98ZM102.691 159.12C101.985 159.12 101.358 159.073 100.811 158.98C100.265 158.873 99.7979 158.68 99.4113 158.4C99.0379 158.107 98.7513 157.687 98.5513 157.14C98.3513 156.593 98.2513 155.887 98.2513 155.02C98.2513 154.153 98.3513 153.447 98.5513 152.9C98.7513 152.353 99.0379 151.94 99.4113 151.66C99.7979 151.367 100.265 151.173 100.811 151.08C101.358 150.973 101.985 150.92 102.691 150.92C103.411 150.92 104.038 150.973 104.571 151.08C105.118 151.173 105.578 151.367 105.951 151.66C106.325 151.94 106.605 152.353 106.791 152.9C106.991 153.447 107.091 154.153 107.091 155.02C107.091 155.9 106.991 156.613 106.791 157.16C106.605 157.693 106.325 158.107 105.951 158.4C105.578 158.68 105.118 158.873 104.571 158.98C104.025 159.073 103.398 159.12 102.691 159.12ZM102.691 157.9C103.118 157.9 103.471 157.827 103.751 157.68C104.045 157.533 104.265 157.253 104.411 156.84C104.558 156.427 104.631 155.82 104.631 155.02C104.631 154.22 104.558 153.613 104.411 153.2C104.265 152.787 104.045 152.507 103.751 152.36C103.471 152.213 103.118 152.14 102.691 152.14C102.278 152.14 101.925 152.213 101.631 152.36C101.338 152.507 101.111 152.787 100.951 153.2C100.791 153.613 100.711 154.22 100.711 155.02C100.711 155.82 100.791 156.427 100.951 156.84C101.111 157.253 101.338 157.533 101.631 157.68C101.925 157.827 102.278 157.9 102.691 157.9ZM109.484 159C109.044 159 108.824 158.773 108.824 158.32V151.54C109.224 151.38 109.791 151.247 110.524 151.14C111.271 151.02 112.098 150.96 113.004 150.96C113.951 150.96 114.698 151.013 115.244 151.12C115.804 151.227 116.218 151.407 116.484 151.66C116.764 151.913 116.944 152.247 117.024 152.66C117.118 153.073 117.164 153.587 117.164 154.2V158.06C117.164 158.3 117.144 158.493 117.104 158.64C117.078 158.773 116.991 158.873 116.844 158.94C116.711 158.993 116.498 159.02 116.204 159.02L114.764 159V153.64C114.764 153.173 114.618 152.833 114.324 152.62C114.031 152.407 113.598 152.3 113.024 152.3C112.824 152.3 112.611 152.32 112.384 152.36C112.158 152.387 111.944 152.433 111.744 152.5C111.544 152.553 111.378 152.627 111.244 152.72V159H109.484Z" fill="#1C274C"/>
<path d="M30.6497 171.32C30.6497 170.563 30.7244 169.939 30.8737 169.448C31.0337 168.957 31.2844 168.573 31.6257 168.296C31.967 168.019 32.4044 167.827 32.9377 167.72C33.4817 167.613 34.1377 167.56 34.9057 167.56C35.3004 167.56 35.679 167.576 36.0417 167.608C36.415 167.629 36.7937 167.672 37.1777 167.736C37.4977 167.789 37.7004 167.864 37.7857 167.96C37.8817 168.045 37.9297 168.168 37.9297 168.328V168.728C37.727 168.632 37.4444 168.552 37.0817 168.488C36.719 168.413 36.3457 168.36 35.9617 168.328C35.5777 168.296 35.2364 168.28 34.9377 168.28C34.191 168.28 33.5937 168.371 33.1457 168.552C32.7084 168.723 32.3937 169.027 32.2017 169.464C32.0097 169.901 31.9137 170.52 31.9137 171.32C31.9137 172.12 32.0044 172.744 32.1857 173.192C32.367 173.629 32.6817 173.939 33.1297 174.12C33.5884 174.301 34.2177 174.392 35.0177 174.392C35.3057 174.392 35.631 174.376 35.9937 174.344C36.3564 174.312 36.7084 174.264 37.0497 174.2C37.391 174.125 37.6844 174.051 37.9297 173.976V174.344C37.9297 174.483 37.8817 174.605 37.7857 174.712C37.6897 174.808 37.4764 174.877 37.1457 174.92C36.7724 174.995 36.399 175.043 36.0257 175.064C35.6524 175.096 35.2684 175.112 34.8737 175.112C34.0844 175.112 33.4177 175.059 32.8737 174.952C32.3297 174.835 31.8924 174.643 31.5617 174.376C31.2417 174.099 31.007 173.715 30.8577 173.224C30.719 172.733 30.6497 172.099 30.6497 171.32ZM40.5097 175H39.8057C39.667 175 39.5604 174.968 39.4857 174.904C39.4217 174.829 39.3897 174.696 39.3897 174.504V168.936C39.6244 168.861 39.9444 168.781 40.3497 168.696C40.7657 168.611 41.2777 168.568 41.8857 168.568C42.4617 168.568 42.915 168.611 43.2457 168.696C43.587 168.771 43.8324 168.877 43.9817 169.016C44.1417 169.155 44.243 169.325 44.2857 169.528C44.339 169.72 44.3657 169.939 44.3657 170.184H43.2937L43.2777 169.96C43.267 169.715 43.187 169.539 43.0377 169.432C42.8884 169.315 42.7124 169.245 42.5097 169.224C42.307 169.192 42.1044 169.176 41.9017 169.176C41.5924 169.176 41.315 169.203 41.0697 169.256C40.835 169.309 40.6484 169.379 40.5097 169.464V175ZM48.6637 175.096C48.045 175.096 47.5224 175.053 47.0957 174.968C46.6797 174.883 46.3437 174.723 46.0877 174.488C45.8424 174.253 45.661 173.928 45.5437 173.512C45.437 173.085 45.3837 172.536 45.3837 171.864C45.3837 171.096 45.4797 170.467 45.6717 169.976C45.8637 169.485 46.205 169.123 46.6957 168.888C47.1864 168.653 47.8744 168.536 48.7597 168.536C49.4424 168.536 49.9864 168.627 50.3917 168.808C50.8077 168.989 51.1064 169.267 51.2877 169.64C51.4797 170.013 51.5757 170.499 51.5757 171.096V172.008H47.0637C47.0637 171.88 47.0957 171.773 47.1597 171.688C47.2237 171.592 47.341 171.544 47.5117 171.544H50.5677L50.5517 171.08C50.541 170.419 50.397 169.939 50.1197 169.64C49.853 169.341 49.3837 169.192 48.7117 169.192C48.1464 169.192 47.7037 169.277 47.3837 169.448C47.0637 169.619 46.8397 169.896 46.7117 170.28C46.5837 170.664 46.5197 171.187 46.5197 171.848C46.5197 172.552 46.589 173.091 46.7277 173.464C46.877 173.827 47.1224 174.077 47.4637 174.216C47.805 174.344 48.269 174.408 48.8557 174.408C49.0584 174.408 49.2877 174.403 49.5437 174.392C49.8104 174.371 50.077 174.349 50.3437 174.328C50.6104 174.307 50.845 174.28 51.0477 174.248C51.261 174.205 51.4104 174.163 51.4957 174.12V174.312C51.4957 174.419 51.4637 174.52 51.3997 174.616C51.3464 174.712 51.229 174.792 51.0477 174.856C50.813 174.952 50.493 175.016 50.0877 175.048C49.693 175.08 49.2184 175.096 48.6637 175.096ZM55.7972 175.112C55.1679 175.112 54.6559 175.08 54.2612 175.016C53.8665 174.952 53.5625 174.845 53.3492 174.696C53.1465 174.536 53.0025 174.328 52.9172 174.072C52.8425 173.816 52.8052 173.501 52.8052 173.128C52.8052 172.584 52.8692 172.168 52.9972 171.88C53.1252 171.592 53.3492 171.395 53.6692 171.288C53.9892 171.181 54.4159 171.128 54.9492 171.128C55.2159 171.128 55.5039 171.139 55.8132 171.16C56.1332 171.171 56.4372 171.187 56.7252 171.208C57.0239 171.219 57.2799 171.235 57.4932 171.256C57.7172 171.277 57.8665 171.304 57.9412 171.336C57.9412 170.845 57.8985 170.456 57.8132 170.168C57.7279 169.88 57.5945 169.667 57.4132 169.528C57.2425 169.389 57.0239 169.299 56.7572 169.256C56.5012 169.213 56.2025 169.192 55.8612 169.192C55.5092 169.192 55.1519 169.208 54.7892 169.24C54.4372 169.261 54.1119 169.304 53.8132 169.368C53.5145 169.421 53.2852 169.496 53.1252 169.592V169.352C53.1252 169.128 53.1892 168.973 53.3172 168.888C53.4559 168.792 53.6105 168.728 53.7812 168.696C53.9839 168.643 54.2772 168.6 54.6612 168.568C55.0559 168.536 55.4665 168.525 55.8932 168.536C56.4372 168.536 56.9012 168.563 57.2852 168.616C57.6799 168.669 58.0052 168.787 58.2612 168.968C58.5172 169.139 58.7092 169.4 58.8372 169.752C58.9652 170.104 59.0292 170.584 59.0292 171.192V174.488C58.9652 174.701 58.6825 174.861 58.1812 174.968C57.6799 175.064 56.8852 175.112 55.7972 175.112ZM55.7972 174.568C56.2879 174.568 56.6772 174.552 56.9652 174.52C57.2639 174.488 57.4879 174.445 57.6372 174.392C57.7972 174.339 57.8985 174.269 57.9412 174.184V171.8C57.8452 171.768 57.6639 171.736 57.3972 171.704C57.1412 171.672 56.8692 171.645 56.5812 171.624C56.2932 171.592 56.0479 171.576 55.8452 171.576C55.3865 171.576 55.0132 171.603 54.7252 171.656C54.4479 171.709 54.2452 171.843 54.1172 172.056C53.9999 172.269 53.9412 172.6 53.9412 173.048C53.9412 173.4 53.9839 173.688 54.0692 173.912C54.1545 174.136 54.3252 174.301 54.5812 174.408C54.8479 174.515 55.2532 174.568 55.7972 174.568ZM62.4116 175.048C62.0489 175.048 61.7662 175.005 61.5636 174.92C61.3609 174.824 61.2116 174.664 61.1156 174.44C61.0196 174.216 60.9716 173.912 60.9716 173.528V169.24H60.3636V168.616H60.9716V167.464C60.9716 167.304 60.9822 167.187 61.0036 167.112C61.0356 167.027 61.0836 166.973 61.1476 166.952C61.2116 166.931 61.3022 166.92 61.4196 166.92H62.1076C62.1076 166.941 62.1022 166.989 62.0916 167.064C62.0916 167.128 62.0916 167.224 62.0916 167.352V168.616H63.5796V169.24H62.0916V173.4C62.0916 173.816 62.1342 174.109 62.2196 174.28C62.3049 174.451 62.4969 174.536 62.7956 174.536C62.9129 174.536 63.0356 174.525 63.1636 174.504C63.2916 174.483 63.3822 174.461 63.4356 174.44V174.936C63.3716 174.947 63.2489 174.968 63.0676 175C62.8862 175.032 62.6676 175.048 62.4116 175.048ZM67.7418 175.096C67.1231 175.096 66.6005 175.053 66.1738 174.968C65.7578 174.883 65.4218 174.723 65.1658 174.488C64.9205 174.253 64.7391 173.928 64.6218 173.512C64.5151 173.085 64.4618 172.536 64.4618 171.864C64.4618 171.096 64.5578 170.467 64.7498 169.976C64.9418 169.485 65.2831 169.123 65.7738 168.888C66.2645 168.653 66.9525 168.536 67.8378 168.536C68.5205 168.536 69.0645 168.627 69.4698 168.808C69.8858 168.989 70.1845 169.267 70.3658 169.64C70.5578 170.013 70.6538 170.499 70.6538 171.096V172.008H66.1418C66.1418 171.88 66.1738 171.773 66.2378 171.688C66.3018 171.592 66.4191 171.544 66.5898 171.544H69.6458L69.6298 171.08C69.6191 170.419 69.4751 169.939 69.1978 169.64C68.9311 169.341 68.4618 169.192 67.7898 169.192C67.2245 169.192 66.7818 169.277 66.4618 169.448C66.1418 169.619 65.9178 169.896 65.7898 170.28C65.6618 170.664 65.5978 171.187 65.5978 171.848C65.5978 172.552 65.6671 173.091 65.8058 173.464C65.9551 173.827 66.2005 174.077 66.5418 174.216C66.8831 174.344 67.3471 174.408 67.9338 174.408C68.1365 174.408 68.3658 174.403 68.6218 174.392C68.8885 174.371 69.1551 174.349 69.4218 174.328C69.6885 174.307 69.9231 174.28 70.1258 174.248C70.3391 174.205 70.4885 174.163 70.5738 174.12V174.312C70.5738 174.419 70.5418 174.52 70.4778 174.616C70.4245 174.712 70.3071 174.792 70.1258 174.856C69.8911 174.952 69.5711 175.016 69.1658 175.048C68.7711 175.08 68.2965 175.096 67.7418 175.096ZM84.2007 171.384C84.2007 172.259 84.1047 172.947 83.9127 173.448C83.7207 173.939 83.4434 174.296 83.0807 174.52C82.7287 174.744 82.2914 174.888 81.7687 174.952C81.2567 175.005 80.6754 175.032 80.0247 175.032C79.7154 175.032 79.39 175.027 79.0487 175.016C78.718 175.016 78.3874 175.016 78.0567 175.016C77.7367 175.016 77.4434 175.011 77.1767 175C76.9207 175 76.7127 175 76.5527 175V168.664C76.5527 168.323 76.5954 168.072 76.6807 167.912C76.7767 167.752 77.0167 167.661 77.4007 167.64C77.5714 167.629 77.7954 167.624 78.0727 167.624C78.35 167.624 78.6434 167.624 78.9527 167.624C79.2727 167.613 79.582 167.608 79.8807 167.608C80.1794 167.608 80.43 167.613 80.6327 167.624C81.2194 167.645 81.7314 167.693 82.1687 167.768C82.6167 167.843 82.99 168.003 83.2887 168.248C83.598 168.493 83.8274 168.867 83.9767 169.368C84.126 169.859 84.2007 170.531 84.2007 171.384ZM77.7847 174.312C77.8594 174.312 77.9927 174.317 78.1847 174.328C78.3874 174.328 78.606 174.328 78.8407 174.328C79.0754 174.328 79.2994 174.333 79.5127 174.344C79.7367 174.344 79.9074 174.344 80.0247 174.344C80.5687 174.344 81.0274 174.307 81.4007 174.232C81.774 174.157 82.0727 174.019 82.2967 173.816C82.5314 173.603 82.6967 173.304 82.7927 172.92C82.8994 172.525 82.9527 172.013 82.9527 171.384C82.9527 170.531 82.862 169.885 82.6807 169.448C82.51 169 82.2167 168.696 81.8007 168.536C81.3954 168.376 80.8247 168.296 80.0887 168.296C79.9394 168.296 79.726 168.296 79.4487 168.296C79.182 168.296 78.9154 168.301 78.6487 168.312C78.382 168.312 78.174 168.323 78.0247 168.344C77.95 168.387 77.8914 168.445 77.8487 168.52C77.806 168.584 77.7847 168.717 77.7847 168.92V174.312ZM88.8181 175.096C88.3274 175.096 87.8847 175.059 87.4901 174.984C87.1061 174.909 86.7701 174.76 86.4821 174.536C86.2047 174.312 85.9914 173.981 85.8421 173.544C85.6927 173.107 85.6181 172.531 85.6181 171.816C85.6181 171.101 85.6927 170.525 85.8421 170.088C85.9914 169.651 86.2047 169.32 86.4821 169.096C86.7701 168.872 87.1061 168.723 87.4901 168.648C87.8847 168.573 88.3274 168.536 88.8181 168.536C89.2981 168.536 89.7301 168.573 90.1141 168.648C90.5087 168.723 90.8447 168.872 91.1221 169.096C91.3994 169.32 91.6127 169.651 91.7621 170.088C91.9114 170.525 91.9861 171.101 91.9861 171.816C91.9861 172.541 91.9114 173.123 91.7621 173.56C91.6127 173.997 91.3994 174.328 91.1221 174.552C90.8447 174.765 90.5087 174.909 90.1141 174.984C89.7301 175.059 89.2981 175.096 88.8181 175.096ZM88.8181 174.472C89.2447 174.472 89.6074 174.408 89.9061 174.28C90.2154 174.152 90.4501 173.901 90.6101 173.528C90.7701 173.155 90.8501 172.584 90.8501 171.816C90.8501 171.048 90.7701 170.477 90.6101 170.104C90.4501 169.731 90.2154 169.48 89.9061 169.352C89.6074 169.224 89.2447 169.16 88.8181 169.16C88.3914 169.16 88.0234 169.224 87.7141 169.352C87.4154 169.48 87.1807 169.731 87.0101 170.104C86.8501 170.477 86.7701 171.048 86.7701 171.816C86.7701 172.584 86.8501 173.155 87.0101 173.528C87.1807 173.901 87.4154 174.152 87.7141 174.28C88.0234 174.408 88.3914 174.472 88.8181 174.472ZM94.0233 175C93.778 175 93.6553 174.872 93.6553 174.616V169.08C93.9646 168.941 94.37 168.819 94.8713 168.712C95.3833 168.605 95.97 168.552 96.6313 168.552C97.25 168.552 97.7513 168.595 98.1353 168.68C98.5193 168.765 98.8126 168.893 99.0153 169.064C99.218 169.235 99.3513 169.459 99.4153 169.736C99.49 170.003 99.5273 170.328 99.5273 170.712V174.52C99.5273 174.637 99.5113 174.733 99.4793 174.808C99.458 174.883 99.41 174.936 99.3353 174.968C99.2713 174.989 99.17 175 99.0313 175H98.4073V170.488C98.4073 170.061 98.2686 169.747 97.9913 169.544C97.714 169.341 97.2606 169.24 96.6313 169.24C96.4286 169.24 96.2046 169.256 95.9593 169.288C95.7246 169.32 95.5006 169.368 95.2873 169.432C95.074 169.485 94.898 169.56 94.7593 169.656V175H94.0233ZM104.078 175.112C103.449 175.112 102.937 175.08 102.542 175.016C102.148 174.952 101.844 174.845 101.63 174.696C101.428 174.536 101.284 174.328 101.198 174.072C101.124 173.816 101.086 173.501 101.086 173.128C101.086 172.584 101.15 172.168 101.278 171.88C101.406 171.592 101.63 171.395 101.95 171.288C102.27 171.181 102.697 171.128 103.23 171.128C103.497 171.128 103.785 171.139 104.094 171.16C104.414 171.171 104.718 171.187 105.006 171.208C105.305 171.219 105.561 171.235 105.774 171.256C105.998 171.277 106.148 171.304 106.222 171.336C106.222 170.845 106.18 170.456 106.094 170.168C106.009 169.88 105.876 169.667 105.694 169.528C105.524 169.389 105.305 169.299 105.038 169.256C104.782 169.213 104.484 169.192 104.142 169.192C103.79 169.192 103.433 169.208 103.07 169.24C102.718 169.261 102.393 169.304 102.094 169.368C101.796 169.421 101.566 169.496 101.406 169.592V169.352C101.406 169.128 101.47 168.973 101.598 168.888C101.737 168.792 101.892 168.728 102.062 168.696C102.265 168.643 102.558 168.6 102.942 168.568C103.337 168.536 103.748 168.525 104.174 168.536C104.718 168.536 105.182 168.563 105.566 168.616C105.961 168.669 106.286 168.787 106.542 168.968C106.798 169.139 106.99 169.4 107.118 169.752C107.246 170.104 107.31 170.584 107.31 171.192V174.488C107.246 174.701 106.964 174.861 106.462 174.968C105.961 175.064 105.166 175.112 104.078 175.112ZM104.078 174.568C104.569 174.568 104.958 174.552 105.246 174.52C105.545 174.488 105.769 174.445 105.918 174.392C106.078 174.339 106.18 174.269 106.222 174.184V171.8C106.126 171.768 105.945 171.736 105.678 171.704C105.422 171.672 105.15 171.645 104.862 171.624C104.574 171.592 104.329 171.576 104.126 171.576C103.668 171.576 103.294 171.603 103.006 171.656C102.729 171.709 102.526 171.843 102.398 172.056C102.281 172.269 102.222 172.6 102.222 173.048C102.222 173.4 102.265 173.688 102.35 173.912C102.436 174.136 102.606 174.301 102.862 174.408C103.129 174.515 103.534 174.568 104.078 174.568ZM110.693 175.048C110.33 175.048 110.047 175.005 109.845 174.92C109.642 174.824 109.493 174.664 109.397 174.44C109.301 174.216 109.253 173.912 109.253 173.528V169.24H108.645V168.616H109.253V167.464C109.253 167.304 109.263 167.187 109.285 167.112C109.317 167.027 109.365 166.973 109.429 166.952C109.493 166.931 109.583 166.92 109.701 166.92H110.389C110.389 166.941 110.383 166.989 110.373 167.064C110.373 167.128 110.373 167.224 110.373 167.352V168.616H111.861V169.24H110.373V173.4C110.373 173.816 110.415 174.109 110.501 174.28C110.586 174.451 110.778 174.536 111.077 174.536C111.194 174.536 111.317 174.525 111.445 174.504C111.573 174.483 111.663 174.461 111.717 174.44V174.936C111.653 174.947 111.53 174.968 111.349 175C111.167 175.032 110.949 175.048 110.693 175.048ZM114.435 175.064C113.934 175.064 113.598 174.931 113.427 174.664C113.257 174.397 113.171 174.008 113.171 173.496V168.616H114.291V173.432C114.291 173.869 114.339 174.163 114.435 174.312C114.531 174.461 114.702 174.536 114.947 174.536C115.033 174.536 115.139 174.525 115.267 174.504C115.395 174.483 115.475 174.467 115.507 174.456V174.952C115.475 174.963 115.411 174.979 115.315 175C115.23 175.011 115.113 175.021 114.963 175.032C114.825 175.053 114.649 175.064 114.435 175.064ZM113.747 167.688C113.566 167.688 113.422 167.661 113.315 167.608C113.209 167.555 113.155 167.443 113.155 167.272C113.155 167.101 113.203 166.989 113.299 166.936C113.406 166.883 113.55 166.856 113.731 166.856C113.934 166.856 114.083 166.883 114.179 166.936C114.275 166.989 114.318 167.101 114.307 167.272C114.307 167.443 114.259 167.555 114.163 167.608C114.067 167.661 113.929 167.688 113.747 167.688ZM119.49 175.096C118.999 175.096 118.557 175.059 118.162 174.984C117.778 174.909 117.442 174.76 117.154 174.536C116.877 174.312 116.663 173.981 116.514 173.544C116.365 173.107 116.29 172.531 116.29 171.816C116.29 171.101 116.365 170.525 116.514 170.088C116.663 169.651 116.877 169.32 117.154 169.096C117.442 168.872 117.778 168.723 118.162 168.648C118.557 168.573 118.999 168.536 119.49 168.536C119.97 168.536 120.402 168.573 120.786 168.648C121.181 168.723 121.517 168.872 121.794 169.096C122.071 169.32 122.285 169.651 122.434 170.088C122.583 170.525 122.658 171.101 122.658 171.816C122.658 172.541 122.583 173.123 122.434 173.56C122.285 173.997 122.071 174.328 121.794 174.552C121.517 174.765 121.181 174.909 120.786 174.984C120.402 175.059 119.97 175.096 119.49 175.096ZM119.49 174.472C119.917 174.472 120.279 174.408 120.578 174.28C120.887 174.152 121.122 173.901 121.282 173.528C121.442 173.155 121.522 172.584 121.522 171.816C121.522 171.048 121.442 170.477 121.282 170.104C121.122 169.731 120.887 169.48 120.578 169.352C120.279 169.224 119.917 169.16 119.49 169.16C119.063 169.16 118.695 169.224 118.386 169.352C118.087 169.48 117.853 169.731 117.682 170.104C117.522 170.477 117.442 171.048 117.442 171.816C117.442 172.584 117.522 173.155 117.682 173.528C117.853 173.901 118.087 174.152 118.386 174.28C118.695 174.408 119.063 174.472 119.49 174.472ZM124.695 175C124.45 175 124.327 174.872 124.327 174.616V169.08C124.637 168.941 125.042 168.819 125.543 168.712C126.055 168.605 126.642 168.552 127.303 168.552C127.922 168.552 128.423 168.595 128.807 168.68C129.191 168.765 129.485 168.893 129.687 169.064C129.89 169.235 130.023 169.459 130.087 169.736C130.162 170.003 130.199 170.328 130.199 170.712V174.52C130.199 174.637 130.183 174.733 130.151 174.808C130.13 174.883 130.082 174.936 130.007 174.968C129.943 174.989 129.842 175 129.703 175H129.079V170.488C129.079 170.061 128.941 169.747 128.663 169.544C128.386 169.341 127.933 169.24 127.303 169.24C127.101 169.24 126.877 169.256 126.631 169.288C126.397 169.32 126.173 169.368 125.959 169.432C125.746 169.485 125.57 169.56 125.431 169.656V175H124.695Z" fill="#1C274C"/>
</svg>
