<svg width="24" height="25" viewBox="0 0 24 25" fill="none" xmlns="http://www.w3.org/2000/svg">
<path opacity="0.5" d="M4.17157 3.67157C3 4.84315 3 6.72876 3 10.5V14.5C3 18.2712 3 20.1569 4.17157 21.3284C5.34315 22.5 7.22876 22.5 11 22.5H13C16.7712 22.5 18.6569 22.5 19.8284 21.3284C21 20.1569 21 18.2712 21 14.5V10.5C21 6.72876 21 4.84315 19.8284 3.67157C18.6569 2.5 16.7712 2.5 13 2.5H11C7.22876 2.5 5.34315 2.5 4.17157 3.67157Z" fill="#1BC469"/>
<path d="M6 12.5C6 11.0858 6 10.3787 6.43934 9.93934C6.87868 9.5 7.58579 9.5 9 9.5H15C16.4142 9.5 17.1213 9.5 17.5607 9.93934C18 10.3787 18 11.0858 18 12.5V16.5C18 17.9142 18 18.6213 17.5607 19.0607C17.1213 19.5 16.4142 19.5 15 19.5H9C7.58579 19.5 6.87868 19.5 6.43934 19.0607C6 18.6213 6 17.9142 6 16.5V12.5Z" fill="#1BC469"/>
<path d="M7 5.75C6.58579 5.75 6.25 6.08579 6.25 6.5C6.25 6.91421 6.58579 7.25 7 7.25H12C12.4142 7.25 12.75 6.91421 12.75 6.5C12.75 6.08579 12.4142 5.75 12 5.75H7Z" fill="#1BC469"/>
</svg>
