<svg width="31" height="31" viewBox="0 0 31 31" fill="none" xmlns="http://www.w3.org/2000/svg">
<g clip-path="url(#clip0_2215_12920)">
<path d="M26.9072 25.4835L26.6943 24.1285C26.516 22.9925 25.8023 22.0116 24.7755 21.4933L20.2981 19.2288C19.6962 18.9248 19.5366 17.9912 19.5366 17.9912C19.4989 17.9303 19.4286 17.8973 19.3579 17.9084C19.287 17.9189 19.2295 17.9703 19.2108 18.0395L18.6864 20.0571L15.3763 26.6679L12.0669 20.0571L11.5419 18.0395C11.5239 17.9703 11.4657 17.9188 11.3948 17.9084C11.324 17.8973 11.2544 17.9303 11.2165 17.9912C11.2165 17.9912 11.0569 18.9248 10.4552 19.2288L5.97721 21.4933C4.95135 22.0116 4.23774 22.9925 4.05943 24.1285L3.84604 25.4835C3.77098 25.9674 3.87076 26.6773 4.30354 27.0322C4.88279 27.5056 7.02276 30.4601 15.3763 30.4601C23.7305 30.4601 25.8699 27.5056 26.4496 27.0322C26.8832 26.6773 26.983 25.9674 26.9072 25.4835Z" fill="#DA6788"/>
<path d="M11.124 10.6538C11.0258 7.9017 15.2196 8.02082 17.1084 4.95268C17.6805 5.99271 18.669 7.51281 19.579 8.74592C19.5933 14.6611 20.0069 18.9981 24.2479 16.8774C24.2479 16.8774 22.0032 15.524 21.8886 13.6337C21.6916 10.3895 22.1382 8.01361 21.8886 6.32846C21.8688 6.19064 21.8391 6.05084 21.8073 5.91039C21.4913 2.69793 18.6674 0.471367 15.3962 0.462109C15.3836 0.460938 15.3759 0.460938 15.3759 0.460938C11.7296 0.460938 9.25605 3.67445 8.8633 6.32846C8.61369 8.01361 9.06029 10.3895 8.8633 13.6337C8.74863 15.524 6.50391 16.8774 6.50391 16.8774C10.8289 19.0403 11.2815 15.0671 11.124 10.6538Z" fill="#DA6788"/>
</g>
<defs>
<clipPath id="clip0_2215_12920">
<rect width="30" height="30" fill="white" transform="translate(0.376953 0.460938)"/>
</clipPath>
</defs>
</svg>
