<svg width="31" height="31" viewBox="0 0 31 31" fill="none" xmlns="http://www.w3.org/2000/svg">
<rect x="0.798218" y="0.12793" width="30" height="30" rx="7" fill="#F2F2F2"/>
<path opacity="0.5" d="M13.5281 21.6209H24.0854M24.0854 15.0209H16.5445M24.0854 8.4209H19.5608" stroke="#1C274C" stroke-linecap="round"/>
<path opacity="0.5" d="M15.5177 8.4209L7.58386 8.4209M12.7034 15.0209H7.58386M7.58386 21.6209H10.0173" stroke="#1C274C" stroke-linecap="round"/>
<path d="M17.7715 10.071C16.8338 10.071 16.0736 9.33227 16.0736 8.421C16.0736 7.50973 16.8338 6.771 17.7715 6.771C18.7092 6.771 19.4694 7.50973 19.4694 8.421C19.4694 9.33227 18.7092 10.071 17.7715 10.071Z" stroke="#1BC469"/>
<path d="M14.3753 16.6711C13.4375 16.6711 12.6774 15.9324 12.6774 15.0211C12.6774 14.1098 13.4375 13.3711 14.3753 13.3711C15.313 13.3711 16.0732 14.1098 16.0732 15.0211C16.0732 15.9324 15.313 16.6711 14.3753 16.6711Z" stroke="#1BC469"/>
<path d="M11.8273 23.2712C12.765 23.2712 13.5252 22.5325 13.5252 21.6212C13.5252 20.7099 12.765 19.9712 11.8273 19.9712C10.8896 19.9712 10.1294 20.7099 10.1294 21.6212C10.1294 22.5325 10.8896 23.2712 11.8273 23.2712Z" stroke="#1BC469"/>
</svg>
