<svg width="24" height="25" viewBox="0 0 24 25" fill="none" xmlns="http://www.w3.org/2000/svg">
<path opacity="0.5" fill-rule="evenodd" clip-rule="evenodd" d="M17.5 2.25C17.5 1.83579 17.8358 1.5 18.25 1.5C18.6642 1.5 19 1.83579 19 2.25V22.25C19 22.6642 18.6642 23 18.25 23C17.8358 23 17.5 22.6642 17.5 22.25V14.1V4.1V2.25Z" fill="#ED1C24"/>
<path d="M10.6514 4.28947L10.8551 4.20801C12.4179 3.58288 14.1288 3.4258 15.7793 3.75591L17.5 4.10004V14.1L15.7793 13.7559C14.1288 13.4258 12.4179 13.5829 10.8551 14.208C9.16152 14.8854 7.29757 15.0119 5.52803 14.5695L5.31356 14.5159C4.6885 14.3597 4.25 13.798 4.25 13.1538V5.78673C4.25 5.00617 4.98355 4.43343 5.7408 4.62274C7.37202 5.03055 9.09027 4.91393 10.6514 4.28947Z" fill="#ED1C24"/>
</svg>
