<svg width="24" height="25" viewBox="0 0 24 25" fill="none" xmlns="http://www.w3.org/2000/svg">
<path fill-rule="evenodd" clip-rule="evenodd" d="M18 14.5C18 18.9183 14.4183 22.5 10 22.5C8.76449 22.5 7.5944 22.2199 6.54976 21.7198C6.19071 21.5479 5.78393 21.4876 5.39939 21.5904L4.17335 21.9185C3.20701 22.177 2.32295 21.293 2.58151 20.3267L2.90955 19.1006C3.01245 18.7161 2.95209 18.3093 2.7802 17.9502C2.28008 16.9056 2 15.7355 2 14.5C2 10.0817 5.58172 6.5 10 6.5C14.4183 6.5 18 10.0817 18 14.5ZM6.5 15.5C7.05228 15.5 7.5 15.0523 7.5 14.5C7.5 13.9477 7.05228 13.5 6.5 13.5C5.94772 13.5 5.5 13.9477 5.5 14.5C5.5 15.0523 5.94772 15.5 6.5 15.5ZM10 15.5C10.5523 15.5 11 15.0523 11 14.5C11 13.9477 10.5523 13.5 10 13.5C9.44772 13.5 9 13.9477 9 14.5C9 15.0523 9.44772 15.5 10 15.5ZM13.5 15.5C14.0523 15.5 14.5 15.0523 14.5 14.5C14.5 13.9477 14.0523 13.5 13.5 13.5C12.9477 13.5 12.5 13.9477 12.5 14.5C12.5 15.0523 12.9477 15.5 13.5 15.5Z" fill="#DA6788"/>
<path opacity="0.6" d="M17.9841 15.0084C18.092 14.9638 18.1984 14.9163 18.3033 14.8661C18.595 14.7264 18.9255 14.6774 19.238 14.761L20.2341 15.0275C21.0193 15.2376 21.7376 14.5193 21.5275 13.7342L21.261 12.738C21.1774 12.4256 21.2264 12.095 21.3661 11.8033C21.7724 10.9545 22 10.0038 22 9C22 5.41015 19.0898 2.5 15.5 2.5C12.7899 2.5 10.4673 4.1585 9.49155 6.5159C9.65967 6.50535 9.82921 6.5 9.99999 6.5C14.4183 6.5 18 10.0817 18 14.5C18 14.6708 17.9946 14.8403 17.9841 15.0084Z" fill="#DA6788"/>
</svg>
