<svg width="25" height="24" viewBox="0 0 25 24" fill="none" xmlns="http://www.w3.org/2000/svg">
<path opacity="0.4" d="M20.6599 12.7301C20.2899 12.7301 19.9799 12.4501 19.9399 12.0801C19.6999 9.88007 18.5199 7.90007 16.6999 6.64007C16.3699 6.41007 16.2899 5.96007 16.5199 5.63007C16.7499 5.30007 17.1999 5.22007 17.5299 5.45007C19.6999 6.96007 21.0999 9.32007 21.3899 11.9301C21.4299 12.3301 21.1399 12.6901 20.7399 12.7301C20.7099 12.7301 20.6899 12.7301 20.6599 12.7301Z" fill="#292D32"/>
<path opacity="0.4" d="M4.0396 12.78C4.0196 12.78 3.9896 12.78 3.9696 12.78C3.5696 12.74 3.2796 12.38 3.3196 11.98C3.5896 9.36996 4.9696 7.00996 7.11961 5.48996C7.43961 5.25996 7.8996 5.33996 8.1296 5.65996C8.3596 5.98996 8.2796 6.43996 7.9596 6.66996C6.1596 7.94996 4.9896 9.92996 4.7696 12.12C4.7296 12.5 4.4096 12.78 4.0396 12.78Z" fill="#292D32"/>
<path opacity="0.4" d="M16.2899 21.1001C15.0599 21.6901 13.7399 21.9901 12.3599 21.9901C10.9199 21.9901 9.54991 21.6701 8.26991 21.0201C7.90991 20.8501 7.76991 20.4101 7.94991 20.0501C8.11991 19.6901 8.55991 19.5501 8.91991 19.7201C9.54991 20.0401 10.2199 20.2601 10.8999 20.3901C11.8199 20.5701 12.7599 20.5801 13.6799 20.4201C14.3599 20.3001 15.0299 20.0901 15.6499 19.7901C16.0199 19.6201 16.4599 19.7601 16.6199 20.1301C16.7999 20.4901 16.6599 20.9301 16.2899 21.1001Z" fill="#292D32"/>
<path d="M12.3498 2.01001C10.7998 2.01001 9.52979 3.27001 9.52979 4.83001C9.52979 6.39001 10.7898 7.65001 12.3498 7.65001C13.9098 7.65001 15.1698 6.39001 15.1698 4.83001C15.1698 3.27001 13.9098 2.01001 12.3498 2.01001Z" fill="#292D32"/>
<path d="M5.34979 13.8701C3.79979 13.8701 2.52979 15.1301 2.52979 16.6901C2.52979 18.2501 3.78979 19.5101 5.34979 19.5101C6.90979 19.5101 8.16979 18.2501 8.16979 16.6901C8.16979 15.1301 6.89979 13.8701 5.34979 13.8701Z" fill="#292D32"/>
<path d="M19.2497 13.8701C17.6997 13.8701 16.4297 15.1301 16.4297 16.6901C16.4297 18.2501 17.6897 19.5101 19.2497 19.5101C20.8097 19.5101 22.0697 18.2501 22.0697 16.6901C22.0697 15.1301 20.8097 13.8701 19.2497 13.8701Z" fill="#292D32"/>
</svg>
