<svg width="26" height="26" viewBox="0 0 26 26" fill="none" xmlns="http://www.w3.org/2000/svg">
<g opacity="0.75">
<rect x="0.360718" y="0.62793" width="25" height="25" rx="7" fill="white"/>
</g>
<circle cx="11.8816" cy="7.62791" r="3.66667" fill="#1C274C"/>
<path fill-rule="evenodd" clip-rule="evenodd" d="M15.1014 21.8247C15.5712 22.2946 16.3274 22.2946 17.8399 22.2946C19.3523 22.2946 20.1085 22.2946 20.5783 21.8247C21.0482 21.3549 21.0482 20.5987 21.0482 19.0863C21.0482 17.5738 21.0482 16.8176 20.5783 16.3478C20.1085 15.8779 19.3523 15.8779 17.8399 15.8779C16.3274 15.8779 15.5712 15.8779 15.1014 16.3478C14.6315 16.8176 14.6315 17.5738 14.6315 19.0863C14.6315 20.5987 14.6315 21.3549 15.1014 21.8247ZM16.9476 20.4397C16.304 19.9789 15.5482 19.4376 15.5482 18.4994C15.5482 17.4636 16.8087 16.7291 17.8399 17.7249C18.8711 16.7291 20.1315 17.4636 20.1315 18.4994C20.1315 19.4376 19.3757 19.9789 18.7322 20.4397C18.6653 20.4876 18.5996 20.5346 18.5361 20.5811C18.2982 20.7555 18.069 20.9196 17.8399 20.9196C17.6107 20.9196 17.3815 20.7555 17.1436 20.5811C17.0801 20.5346 17.0144 20.4876 16.9476 20.4397Z" fill="#1C274C"/>
<path opacity="0.5" d="M15.1762 21.8936C15.1505 21.8718 15.1256 21.8489 15.1014 21.8247C14.6316 21.3549 14.6316 20.5987 14.6316 19.0863C14.6316 17.5738 14.6316 16.8176 15.1014 16.3478C15.5712 15.8779 16.3275 15.8779 17.8399 15.8779C17.9775 15.8779 18.1088 15.8779 18.2342 15.8783C16.9663 14.6451 14.5962 13.8154 11.8816 13.8154C7.83146 13.8154 4.54822 15.6623 4.54822 17.9404C4.54822 20.2186 4.54822 22.0654 11.8816 22.0654C13.2039 22.0654 14.2878 22.0054 15.1762 21.8936Z" fill="#1C274C"/>
</svg>
