<svg width="25" height="24" viewBox="0 0 25 24" fill="none" xmlns="http://www.w3.org/2000/svg">
<path opacity="0.5" fill-rule="evenodd" clip-rule="evenodd" d="M6.62357 1.75C6.62357 1.33579 6.28898 1 5.87624 1C5.4635 1 5.12891 1.33579 5.12891 1.75V21.75C5.12891 22.1642 5.4635 22.5 5.87624 22.5C6.28898 22.5 6.62357 22.1642 6.62357 21.75V13.6V3.6V1.75Z" fill="#ED1C24"/>
<path d="M13.4472 3.78996L13.2443 3.7085C11.6871 3.08337 9.98225 2.92629 8.33759 3.2564L6.62305 3.60053V13.6005L8.33759 13.2564C9.98225 12.9263 11.6871 13.0834 13.2443 13.7085C14.9318 14.3859 16.7892 14.5124 18.5524 14.07L18.7661 14.0164C19.389 13.8602 19.8259 13.2985 19.8259 12.6542V5.28722C19.8259 4.50666 19.095 3.93392 18.3404 4.12323C16.715 4.53104 15.0028 4.41442 13.4472 3.78996Z" fill="#ED1C24"/>
</svg>
