<svg width="25" height="25" viewBox="0 0 25 25" fill="none" xmlns="http://www.w3.org/2000/svg">
<path d="M20.344 16.765L21.047 12.6852C21.2226 11.6662 20.4418 10.7342 19.4125 10.7342H14.2498C13.7382 10.7342 13.3485 10.2733 13.4314 9.76598L14.0917 5.72142C14.1989 5.06435 14.1683 4.392 14.0017 3.74752C13.8637 3.21364 13.4533 2.78495 12.9135 2.61093L12.769 2.56435C12.4428 2.45918 12.0867 2.48365 11.7792 2.63239C11.4406 2.79611 11.193 3.09473 11.1012 3.44989L10.6271 5.28374C10.4763 5.86723 10.2566 6.43045 9.97338 6.96262C9.5595 7.74017 8.9196 8.36246 8.25445 8.93769L6.82083 10.1775C6.41661 10.5271 6.20434 11.0506 6.25033 11.5844L7.05961 20.9771C7.13384 21.8386 7.85157 22.5 8.71228 22.5H13.3444C16.8133 22.5 19.7737 20.0744 20.344 16.765Z" fill="#1BC469"/>
<path opacity="0.5" fill-rule="evenodd" clip-rule="evenodd" d="M3.10378 9.98508C3.50362 9.96777 3.84608 10.2696 3.88056 10.6698L4.8487 21.9063C4.91089 22.6281 4.34437 23.2502 3.62098 23.2502C2.93959 23.2502 2.38867 22.6954 2.38867 22.0129V10.7344C2.38867 10.3327 2.70395 10.0024 3.10378 9.98508Z" fill="#1BC469"/>
</svg>
