<svg width="25" height="25" viewBox="0 0 25 25" fill="none" xmlns="http://www.w3.org/2000/svg">
<path opacity="0.5" d="M3.14258 10.9167C3.14258 7.71907 3.14258 6.12028 3.52009 5.58241C3.89761 5.04454 5.4009 4.52996 8.40749 3.50079L8.9803 3.30472C10.5476 2.76824 11.3312 2.5 12.1426 2.5C12.954 2.5 13.7376 2.76824 15.3049 3.30472L15.8777 3.50079C18.8843 4.52996 20.3875 5.04454 20.7651 5.58241C21.1426 6.12028 21.1426 7.71907 21.1426 10.9167V12.4914C21.1426 18.1294 16.9036 20.8655 14.244 22.0273C13.5226 22.3424 13.1618 22.5 12.1426 22.5C11.1233 22.5 10.7626 22.3424 10.0411 22.0273C7.38154 20.8655 3.14258 18.1294 3.14258 12.4914V10.9167Z" fill="#CEDAD9"/>
<path d="M10.1729 9.46967C9.88002 9.17678 9.40514 9.17678 9.11225 9.46967C8.81935 9.76256 8.81935 10.2374 9.11225 10.5303L11.0819 12.5L9.11227 14.4697C8.81938 14.7626 8.81938 15.2374 9.11227 15.5303C9.40516 15.8232 9.88004 15.8232 10.1729 15.5303L12.1426 13.5607L14.1122 15.5303C14.4051 15.8232 14.88 15.8232 15.1729 15.5303C15.4658 15.2374 15.4658 14.7625 15.1729 14.4696L13.2032 12.5L15.1729 10.5303C15.4658 10.2375 15.4658 9.76258 15.1729 9.46969C14.88 9.1768 14.4051 9.1768 14.1122 9.46969L12.1426 11.4394L10.1729 9.46967Z" fill="#ED1C24"/>
</svg>
