<svg width="25" height="25" viewBox="0 0 25 25" fill="none" xmlns="http://www.w3.org/2000/svg">
<path opacity="0.5" d="M3.14258 10.9167C3.14258 7.71907 3.14258 6.12028 3.52009 5.58241C3.89761 5.04454 5.4009 4.52996 8.40749 3.50079L8.9803 3.30472C10.5476 2.76824 11.3312 2.5 12.1426 2.5C12.954 2.5 13.7376 2.76824 15.3049 3.30472L15.8777 3.50079C18.8843 4.52996 20.3875 5.04454 20.7651 5.58241C21.1426 6.12028 21.1426 7.71907 21.1426 10.9167C21.1426 11.3996 21.1426 11.9234 21.1426 12.4914C21.1426 18.1294 16.9036 20.8655 14.244 22.0273C13.5226 22.3424 13.1618 22.5 12.1426 22.5C11.1233 22.5 10.7626 22.3424 10.0411 22.0273C7.38154 20.8655 3.14258 18.1294 3.14258 12.4914C3.14258 11.9234 3.14258 11.3996 3.14258 10.9167Z" fill="#990A58"/>
<path fill-rule="evenodd" clip-rule="evenodd" d="M11.0926 15.9508C11.7148 16.4174 12.5704 16.4174 13.1926 15.9508L16.5926 13.4008C16.924 13.1523 16.9911 12.6822 16.7426 12.3508C16.4941 12.0194 16.024 11.9523 15.6926 12.2008L12.2926 14.7508C12.2037 14.8174 12.0815 14.8174 11.9926 14.7508L8.59262 12.2008C8.26125 11.9523 7.79115 12.0194 7.54262 12.3508C7.29409 12.6822 7.36125 13.1523 7.69262 13.4008L11.0926 15.9508ZM11.6926 12.4008C11.9593 12.6008 12.326 12.6008 12.5926 12.4008L14.5926 10.9008C14.924 10.6523 14.9912 10.1822 14.7426 9.85078C14.4941 9.51941 14.024 9.45225 13.6926 9.70078L12.1426 10.8633L10.5926 9.70078C10.2613 9.45225 9.79115 9.51941 9.54262 9.85078C9.29409 10.1822 9.36125 10.6523 9.69262 10.9008L11.6926 12.4008Z" fill="white"/>
</svg>
