<svg width="25" height="25" viewBox="0 0 25 25" fill="none" xmlns="http://www.w3.org/2000/svg">
<path opacity="0.5" d="M3.52009 5.58241C3.14258 6.12028 3.14258 7.71907 3.14258 10.9167V12.4914C3.14258 18.1294 7.38154 20.8655 10.0411 22.0273C10.7626 22.3424 11.1233 22.5 12.1426 22.5C13.1618 22.5 13.5226 22.3424 14.244 22.0273C16.9036 20.8655 21.1426 18.1294 21.1426 12.4914V10.9167C21.1426 7.71907 21.1426 6.12028 20.7651 5.58241C20.3875 5.04454 18.8843 4.52996 15.8777 3.50079L15.3049 3.30472C13.7376 2.76824 12.954 2.5 12.1426 2.5C11.3312 2.5 10.5476 2.76824 8.9803 3.30472L8.40749 3.50079C5.4009 4.52996 3.89761 5.04454 3.52009 5.58241Z" fill="#020288"/>
<path d="M15.1426 13.25C15.5568 13.25 15.8926 12.9142 15.8926 12.5C15.8926 12.0858 15.5568 11.75 15.1426 11.75H9.14258C8.72836 11.75 8.39258 12.0858 8.39258 12.5C8.39258 12.9142 8.72836 13.25 9.14258 13.25H15.1426Z" fill="white"/>
</svg>
