<svg width="143" height="176" viewBox="0 0 143 176" fill="none" xmlns="http://www.w3.org/2000/svg">
<path fill-rule="evenodd" clip-rule="evenodd" d="M22.362 8.43701H118.942C124.9 8.43701 129.775 13.2838 129.775 19.2074V87.3869C129.775 93.3107 124.9 98.1576 118.942 98.1576H22.362C16.4037 98.1576 11.5286 93.3108 11.5286 87.3869V19.2074C11.5286 13.2837 16.4036 8.43701 22.362 8.43701Z" fill="url(#paint0_linear_277_92745)"/>
<path opacity="0.5" fill-rule="evenodd" clip-rule="evenodd" d="M102.301 119.239L63.6779 96.8842C62.2445 96.2204 60.1382 95.5943 58.7323 96.4624L55.135 98.6833C54.4113 99.1302 52.0316 100.613 53.6233 101.49C58.3059 104.07 88.2252 121.786 92.9802 124.407C93.8795 124.903 95.195 125.082 96.576 124.966C97.9509 124.85 99.3784 124.473 100.47 123.791L101.907 122.892C102.923 122.257 103.486 121.564 103.54 120.899C103.593 120.249 103.181 119.646 102.301 119.239Z" fill="#6D6AFD"/>
<path fill-rule="evenodd" clip-rule="evenodd" d="M101.276 116.696C101.27 118.601 100.6 119.942 99.5281 120.573L97.8274 121.609C91.9936 119.087 94.1586 89.1255 93.8031 80.6078L95.5944 35.9072C94.0883 33.2401 88.2936 30.9125 89.6461 25.4656L72.5473 17.3541C71.7881 16.831 51.8345 5.12048 55.4163 2.92444C56.0153 2.55736 56.6081 2.18751 57.1997 1.839C58.5221 1.04623 60.2075 1.5364 61.4453 2.25979L95.4692 22.0367C98.8087 23.9864 101.428 28.7048 101.418 32.4776L101.276 116.696Z" fill="#303A7D"/>
<path fill-rule="evenodd" clip-rule="evenodd" d="M53.6801 6.8014C53.6852 4.93361 54.3236 3.60722 55.358 2.96107C56.4474 2.28027 57.9763 2.3539 59.6671 3.34353L93.691 23.1198C96.9837 25.0468 99.6498 29.7262 99.6392 33.5613L99.4973 117.779C99.4866 121.614 96.8028 123.164 93.5095 121.237L59.4864 101.461C56.1894 99.5317 53.5271 94.854 53.5377 91.0193L53.6801 6.8014Z" fill="#3E4992"/>
<path fill-rule="evenodd" clip-rule="evenodd" d="M55.5013 10.4219C55.511 6.89214 57.9778 5.46378 61.0118 7.23945L92.3272 25.4415C95.3579 27.2153 97.8119 31.5221 97.802 35.052L97.6715 114.158C97.6617 117.687 95.1915 119.114 92.1603 117.34L60.8453 99.138C57.8107 97.3625 55.3603 93.0572 55.3701 89.5277L55.5013 10.4219Z" fill="url(#paint1_linear_277_92745)"/>
<path opacity="0.5" fill-rule="evenodd" clip-rule="evenodd" d="M18.5645 106.629L34.7031 97.3144C36.4623 96.4998 38.9804 95.8514 40.7729 96.7967C42.4062 97.6582 45.0967 99.421 46.2863 100.108C47.1898 100.631 50.3265 102.535 48.3728 103.612C42.6257 106.779 36.9382 110.341 31.1023 113.558C29.9985 114.166 28.384 114.386 26.6891 114.243C25.0015 114.101 23.2705 113.603 21.9092 112.801C20.9393 112.229 19.9856 111.666 19.0474 111.113C17.7814 110.366 17.1103 109.482 17.0438 108.666C16.9787 107.868 17.4846 107.128 18.5645 106.629Z" fill="#6D6AFD"/>
<path fill-rule="evenodd" clip-rule="evenodd" d="M41.8702 52.6609C40.658 51.9544 36.3544 45.6831 34.0712 42.2372C32.7755 40.2817 33.0542 38.4481 35.046 37.7472C38.9861 36.3608 40.1221 41.3582 41.3788 43.7423C42.783 46.406 44.3299 48.5201 44.6686 50.5712C44.9175 52.0785 43.1318 53.396 41.8702 52.6609Z" fill="#7662E3"/>
<path fill-rule="evenodd" clip-rule="evenodd" d="M25.9228 100.91C25.8251 101.236 25.8673 101.507 25.6972 101.935C25.5271 102.362 25.3247 102.839 25.1319 103.581C24.834 104.728 25.1577 106.264 24.7536 107.886C24.5505 108.535 24.55 109.055 24.9596 109.628C25.361 110.189 26.1208 111.09 27.1445 111.056C27.3784 111.048 27.858 110.954 28.2382 110.525C28.6376 110.075 28.9721 109.418 28.9362 108.602C28.9225 108.293 28.773 107.296 28.8282 106.389C28.8765 105.594 29.0322 105.157 29.0383 104.286C29.0446 103.365 29.0097 102.097 29.0121 101.503L25.9228 100.91Z" fill="#16193B"/>
<path fill-rule="evenodd" clip-rule="evenodd" d="M35.0909 96.1898C34.7718 97.0057 34.5672 97.3546 34.5219 98.4935C34.6872 99.0948 35.0982 99.3391 35.5526 99.7545L35.8789 99.8273C36.6807 100.274 36.9351 101.839 37.6707 102.552C38.1899 103.055 39.2427 103.328 40.2899 103.534C41.4091 103.755 42.4871 103.429 42.2189 102.532C41.5527 100.304 38.4769 97.7879 38.4736 95.2983L35.0909 96.1898Z" fill="#16193B"/>
<path fill-rule="evenodd" clip-rule="evenodd" d="M40.252 80.3107C40.0534 84.5788 38.9149 92.5666 38.9389 96.7726C37.8326 97.8657 35.6875 97.5274 35.0181 96.4087C34.6881 92.5387 34.3306 87.0406 34.339 84.9169C34.346 83.1493 34.5473 81.5238 35.0368 79.9366C34.5404 75.2665 32.0549 68.8942 32.8101 64.5003C33.1418 62.5704 34.4471 60.493 34.8543 58.9009C37.8852 62.8201 40.3291 60.9416 41.6375 60.6011C41.5925 61.9553 41.6988 61.7745 41.6161 63.1979C41.3367 68.0105 40.9738 73.1495 40.575 78.1431C40.5634 78.8892 40.4749 79.7087 40.252 80.3107Z" fill="url(#paint2_linear_277_92745)"/>
<path opacity="0.3" fill-rule="evenodd" clip-rule="evenodd" d="M34.5004 88.9653C34.3998 87.2848 34.3355 85.8216 34.339 84.9169C34.346 83.1493 34.5473 81.5238 35.0368 79.9366C34.5404 75.2665 32.0549 68.8942 32.8101 64.5003C33.1418 62.5704 34.4471 60.493 34.8543 58.9009C37.8852 62.8201 40.3291 60.9416 41.6375 60.6012C41.6324 60.7522 41.6293 60.884 41.6276 61.0011L37.4285 64.0816L38.4487 63.8498C38.2568 69.3958 37.4401 74.4516 37.187 79.9209C36.0396 83.0223 35.3419 85.6714 34.5201 88.8677L34.5004 88.9653Z" fill="#1E2353"/>
<path fill-rule="evenodd" clip-rule="evenodd" d="M33.1702 83.4133C32.2959 87.6815 29.8027 98.0389 29.1607 102.245C27.7807 103.01 26.056 102.61 25.6068 101.491C25.698 97.6212 25.9057 90.6606 26.2501 88.537C26.5368 86.7694 27.2295 84.0428 27.9703 82.4554C27.9674 72.4836 26.9415 69.8258 28.3921 65.4318C29.0293 63.502 30.6086 61.64 31.268 60.0479C32.0744 61.3591 33.3227 63.2201 36.114 62.9898C36.387 62.9674 38.7553 61.2862 39.5273 61.0933C38.3918 67.0259 35.3777 74.7752 33.8365 81.2458C33.7068 81.9918 33.4884 82.8113 33.1702 83.4133Z" fill="url(#paint3_linear_277_92745)"/>
<path fill-rule="evenodd" clip-rule="evenodd" d="M36.7246 38.1461C37.0282 38.1623 37.3027 38.2385 37.5922 38.3756C39.6912 39.37 40.4733 42.6666 40.9993 45.5758C41.4555 48.0992 41.3108 50.1868 41.3909 52.5192C41.4548 54.38 41.8092 56.0811 41.8477 57.8438C41.8592 58.3658 41.9723 58.9004 41.8218 59.4993C41.7694 59.8955 41.712 60.5195 41.7377 60.825C40.0718 64.5311 31.1622 65.0758 29.6156 62.8705C29.7807 62.471 29.8256 62.2434 29.8745 61.8618C29.0799 61.122 29.5895 59.0461 29.3505 57.6415C29.1709 56.5868 28.9461 55.5139 28.5826 54.7612C27.059 51.6066 25.0715 49.2352 24.5395 46.7685C24.1732 45.0697 26.1911 42.7795 28.9265 40.8471C31.5586 38.9875 35.2238 37.8152 36.7246 38.1461Z" fill="url(#paint4_linear_277_92745)"/>
<path fill-rule="evenodd" clip-rule="evenodd" d="M40.9766 47.3191C40.5389 47.8049 39.8016 48.5728 38.826 49.407L40.2286 51.2585L40.9766 47.3191ZM30.0634 55.3526C30.1975 55.3529 30.314 55.4671 30.3237 55.6078C30.3333 55.7485 30.2325 55.8625 30.0984 55.862C29.9643 55.8618 29.8478 55.7475 29.8381 55.6068C29.8284 55.4661 29.9293 55.3522 30.0634 55.3526ZM31.4179 53.7501C31.5519 53.7504 31.6685 53.8646 31.6782 54.0053C31.6878 54.1461 31.5869 54.2599 31.4529 54.2596C31.3187 54.2593 31.2022 54.145 31.1926 54.0044C31.1829 53.8636 31.2838 53.7498 31.4179 53.7501ZM33.1972 54.7409C33.3313 54.7412 33.4478 54.8554 33.4576 54.9961C33.4672 55.1368 33.3663 55.2507 33.2322 55.2505C33.0981 55.2501 32.9816 55.1358 32.9719 54.9951C32.9623 54.8545 33.0632 54.7407 33.1972 54.7409ZM34.5059 52.7049C34.64 52.7052 34.7565 52.8194 34.7663 52.9602C34.7759 53.101 34.675 53.2148 34.541 53.2145C34.4069 53.2142 34.2904 53.0999 34.2807 52.9592C34.2711 52.8185 34.3719 52.7047 34.5059 52.7049ZM36.3618 53.3025C36.4959 53.3029 36.6125 53.4172 36.622 53.5578C36.6317 53.6985 36.5309 53.8125 36.3967 53.8121C36.2627 53.8118 36.1462 53.6976 36.1366 53.5569C36.1269 53.4162 36.2277 53.3022 36.3618 53.3025ZM37.2922 51.0893C37.4264 51.0895 37.5429 51.2038 37.5526 51.3445C37.5622 51.4853 37.4614 51.5991 37.3273 51.5988C37.1932 51.5985 37.0767 51.4843 37.067 51.3435C37.0574 51.2028 37.1583 51.089 37.2922 51.0893ZM39.1453 51.414C39.2794 51.4143 39.3959 51.5286 39.4057 51.6693C39.4153 51.8101 39.3144 51.9239 39.1804 51.9236C39.0463 51.9233 38.9298 51.8091 38.9201 51.6683C38.9104 51.5276 39.0113 51.4138 39.1453 51.414ZM39.9521 49.0238C40.0862 49.0242 40.2027 49.1385 40.2125 49.2791C40.2221 49.4198 40.1213 49.5338 39.9871 49.5334C39.853 49.5331 39.7365 49.4189 39.7269 49.2782C39.7172 49.1375 39.8181 49.0235 39.9521 49.0238ZM41.3521 49.5623C41.3205 49.5204 41.3001 49.4691 41.2963 49.4137C41.2918 49.3491 41.3108 49.2903 41.3454 49.2455L41.3521 49.5623ZM28.3478 54.0166C28.482 54.017 28.5985 54.1311 28.6081 54.272C28.6157 54.3815 28.5562 54.4748 28.4662 54.5106C28.3888 54.3549 28.3104 54.2011 28.2312 54.0491C28.2648 54.0285 28.3045 54.0166 28.3478 54.0166ZM38.43 49.7383C37.7204 50.3185 36.9036 50.9161 35.9985 51.4617L37.892 53.2638L38.43 49.7383ZM35.579 51.7066C34.8275 52.1328 34.0211 52.5182 33.1698 52.8264L34.9352 54.9019L35.579 51.7066ZM32.6097 53.0154C31.7785 53.2763 30.9084 53.4589 30.0086 53.5325L31.6357 55.9192L32.6097 53.0154ZM29.6779 53.5544C29.1085 53.5836 28.528 53.5688 27.9384 53.5009C27.8419 53.3244 27.7448 53.1499 27.6472 52.9778C29.4709 53.248 31.2139 52.9845 32.8044 52.435L32.8135 52.4078L32.8294 52.4263C37.6348 50.7556 41.0403 46.4822 41.0535 46.4659L41.1285 46.3472C41.1803 46.7188 41.2203 47.0819 41.2512 47.439L40.552 51.1219C40.8833 50.7926 41.1554 50.5022 41.3613 50.274L41.3677 50.9999C39.5231 52.9406 34.808 57.1936 29.2055 56.8209C29.1721 56.6551 29.137 56.4908 29.0998 56.3299C29.924 56.3936 30.7295 56.352 31.5092 56.2293L29.8825 53.8433L29.0259 56.0261C28.9843 55.864 28.9401 55.7063 28.8929 55.5543L29.6779 53.5544ZM31.8641 56.168C32.9063 55.9695 33.8998 55.6293 34.8278 55.2057L32.9337 52.9791L31.8641 56.168ZM35.2096 55.0251C36.1284 54.575 36.9777 54.0482 37.7401 53.5044L35.8739 51.7284L35.2096 55.0251ZM38.2019 53.1652L38.7251 49.7371L40.1034 51.5565C39.5739 52.0559 38.9337 52.6126 38.2019 53.1652Z" fill="#9789E9"/>
<path opacity="0.25" fill-rule="evenodd" clip-rule="evenodd" d="M31.4622 63.8991C30.6076 63.6829 29.9447 63.3386 29.6157 62.8695C29.7809 62.47 29.8258 62.2425 29.8745 61.8608C29.0799 61.1212 29.5897 59.0452 29.3506 57.6405C29.171 56.5858 28.9463 55.5128 28.5829 54.7602C27.0591 51.6056 25.0716 49.2344 24.5396 46.7675C24.3458 45.8689 24.8192 44.8049 25.7129 43.7159C26.6349 43.5637 27.5135 43.6823 28.085 44.1722C29.6077 45.4777 29.9652 48.5322 30.4349 50.6078C31.1469 53.754 33.2424 52.6579 34.7681 51.8366C34.1008 52.6096 33.0962 53.0512 32.0891 53.3054C31.7345 53.3949 31.4469 54.0997 31.4997 54.8222C31.6576 56.9821 31.8815 59.7296 31.8815 61.9283C34.788 62.9955 38.1851 62.1307 39.7988 61.4266C37.2971 63.0077 34.4039 63.1471 31.8403 62.7849C31.5142 63.083 31.4503 63.4733 31.4622 63.8991Z" fill="url(#paint5_linear_277_92745)"/>
<path fill-rule="evenodd" clip-rule="evenodd" d="M25.8569 62.2041C26.3192 62.375 27.1191 62.4714 27.457 62.5941C27.6318 62.6575 28.8918 63.1414 29.6066 63.4453C30.3709 63.7702 30.6905 64.3955 31.2367 65.052C31.6427 65.5954 31.8505 66.005 31.9507 66.2976C32.054 66.5997 31.3915 67.3527 31.0459 67.3445C30.2613 67.3261 29.312 66.5437 29.0933 66.4791C27.2372 65.9303 26.4138 66.004 25.668 65.4212C25.3496 65.1725 25.0197 64.3249 24.3299 63.6417L25.1783 62.4883L25.8569 62.2041Z" fill="url(#paint6_linear_277_92745)"/>
<path fill-rule="evenodd" clip-rule="evenodd" d="M24.2921 44.5384C21.9851 46.8243 19.6523 50.8364 17.3819 53.7938C16.5675 54.8549 17.0085 55.7334 17.6528 56.6933C18.9524 58.6294 20.4584 60.7546 23.2358 63.1485C23.4438 63.3277 23.6753 63.3408 23.9851 63.4271C24.1595 63.5733 24.4034 63.8368 24.5895 63.9896C24.3588 63.6886 25.6027 62.1778 26.2293 62.2784C26.0682 62.0763 26.0261 61.9948 25.859 61.7624C25.8373 61.473 25.8319 61.2859 25.7244 61.039C25.0677 59.5308 23.3688 57.0296 21.9338 55.4362C23.7878 53.9188 25.4607 52.1816 26.915 50.4797C27.2947 50.0356 27.4992 49.8197 27.8726 49.3587C29.4572 47.4025 28.9996 44.6449 27.5961 43.7056C26.7694 43.1526 25.7047 43.1386 24.2921 44.5384Z" fill="url(#paint7_linear_277_92745)"/>
<path fill-rule="evenodd" clip-rule="evenodd" d="M34.4172 39.4991C34.4086 39.3408 34.408 39.1808 34.4007 39.0105C34.3804 38.5251 34.0448 37.6557 33.9112 36.5654L29.5411 35.8506C30.0187 38.121 29.7665 38.6759 29.8 40.6139C30.2796 42.409 34.9009 42.1209 34.4821 39.9764C34.4513 39.8193 34.4258 39.659 34.4172 39.4991Z" fill="#FFA698"/>
<path fill-rule="evenodd" clip-rule="evenodd" d="M34.4172 39.4991C34.4086 39.3408 34.408 39.1808 34.4008 39.0105C34.3804 38.5251 34.0448 37.6557 33.9112 36.5654L29.5411 35.8506C29.6495 36.3661 29.7207 36.795 29.7665 37.1723C29.9854 38.7001 32.0246 40.9506 34.4821 39.9764C34.4513 39.8192 34.4258 39.659 34.4172 39.4991Z" fill="url(#paint8_linear_277_92745)"/>
<path fill-rule="evenodd" clip-rule="evenodd" d="M34.814 38.7633C34.223 38.6618 32.6365 38.4515 32.0939 38.33C30.9065 38.0642 30.6447 37.165 29.8046 35.9483C28.7011 35.7159 28.2096 35.3601 27.8973 34.8487C27.1559 33.6349 27.2761 31.9158 27.9191 30.7182C28.4811 29.6716 29.3798 29.0469 30.5881 28.7986C32.9357 28.3162 34.5321 29.5631 35.4625 31.3887C35.5422 31.5451 35.5848 31.7004 35.6054 31.8818C35.6539 32.311 35.6494 32.3787 35.7109 32.6671C35.8406 33.2742 36.2996 33.31 36.4526 34.0674C36.6609 35.0982 36.6903 37.2781 36.5085 37.7259C36.3687 38.0701 35.3209 38.63 34.814 38.7633Z" fill="#FFA698"/>
<path fill-rule="evenodd" clip-rule="evenodd" d="M35.0009 30.6177C35.1689 30.8595 35.3219 31.118 35.4602 31.3892C35.5399 31.5456 35.5825 31.7009 35.6031 31.8822C35.6516 32.3114 35.6471 32.3792 35.7086 32.6676C35.8383 33.2746 36.2973 33.3104 36.4503 34.0679C36.5516 34.5692 36.6107 35.3423 36.6236 36.0557C35.7081 37.7341 33.9381 36.9761 33.649 36.8177C32.2937 36.0754 31.492 34.4167 31.4584 32.5476C32.6001 32.4412 34.1968 31.6469 35.0009 30.6177Z" fill="url(#paint9_linear_277_92745)"/>
<path fill-rule="evenodd" clip-rule="evenodd" d="M27.0363 34.5052C27.4056 35.1968 28.7622 36.7914 29.4793 37.2871C30.1564 37.7551 29.7454 37.1464 29.6805 36.5905C29.5408 36.5418 29.4019 36.479 29.2883 36.2853C28.9524 35.7121 28.6267 34.6905 29.5957 34.7006C30.0946 34.7057 30.4838 35.1941 30.6702 35.6667C30.7709 35.7409 30.8738 35.7897 30.9779 35.7986C31.1418 35.8125 31.453 35.7931 31.2957 35.4033C30.7526 34.056 31.3337 33.6854 30.7901 32.9755C30.3827 32.4434 30.3064 32.1705 30.3565 31.8903C30.8115 31.7592 31.2813 32.0807 31.8795 32.0759C32.2952 32.0725 33.9081 31.5489 34.7391 30.4531C35.5424 29.3938 35.0722 28.0428 33.8175 27.6011C33.1193 27.3552 32.5126 27.4851 31.5067 27.3058C29.5873 26.9636 27.8919 28.1488 27.3768 29.7085C25.6024 30.9794 26.2106 32.9588 27.0363 34.5052Z" fill="#562E65"/>
<path fill-rule="evenodd" clip-rule="evenodd" d="M30.6226 30.9996C30.7865 31.5905 31.7769 31.9286 32.7934 31.5396C33.7359 31.1789 34.8874 30.4008 34.8549 29.0619C34.8435 28.5912 34.3403 27.9696 33.7624 27.8796C33.3675 27.818 32.9849 28.0204 32.6615 28.3786C32.1131 28.9856 31.8811 30.0095 31.477 30.4166C31.0926 30.8038 30.6052 30.9369 30.6226 30.9996Z" fill="url(#paint10_linear_277_92745)"/>
<path fill-rule="evenodd" clip-rule="evenodd" d="M29.5896 34.7012C28.6205 34.6912 28.9462 35.7128 29.2822 36.286C29.5131 36.6798 29.8489 36.5328 30.0833 36.8262C30.3626 37.1759 30.7294 37.2598 30.9884 37.1653C31.514 36.9736 30.9263 36.2847 30.7603 35.9887C30.6531 35.4487 30.2046 34.7075 29.5896 34.7012Z" fill="#FFA698"/>
<path fill-rule="evenodd" clip-rule="evenodd" d="M39.2931 42.91C39.0169 42.4516 38.285 41.7074 37.6548 41.1257C36.8523 40.385 36.4719 39.5915 36.2934 38.3159C36.2556 38.0449 36.5263 37.6086 36.8448 37.538C36.9659 37.5113 37.1099 37.4926 37.3831 37.4726C37.5748 37.1411 37.627 37.0888 37.9088 36.8171C38.1295 36.6046 38.2815 36.5736 38.5801 36.6709C39.0356 36.8193 39.4309 36.981 39.6168 37.1361C39.7965 37.2859 40.1469 37.7808 40.4458 38.2614C40.7041 38.6764 41.0516 39.4684 40.975 39.7977C40.8066 40.5208 40.6043 40.6915 40.746 41.1278L41.1281 42.3036L39.2931 42.91Z" fill="#FFB79D"/>
<path fill-rule="evenodd" clip-rule="evenodd" d="M36.9601 37.4841C37.1136 37.1092 37.0874 37.0794 37.3437 36.7539C37.5441 36.4993 37.6989 36.4445 38.0252 36.5025C38.5228 36.5912 38.9593 36.7026 39.176 36.8376C39.3852 36.9679 39.8225 37.4345 40.2038 37.8935C40.533 38.2899 40.6187 38.4775 40.8689 39.0725L40.4455 39.17L39.4834 38.957C37.983 38.9666 37.1996 37.5651 36.9601 37.4841Z" fill="#FFB79D"/>
<path fill-rule="evenodd" clip-rule="evenodd" d="M39.7405 39.2566C39.4622 39.2727 39.5472 39.3314 39.2914 39.2199C39.2871 39.4675 39.117 39.7232 39.0096 39.6929C38.848 39.6231 38.7565 39.5109 38.7286 39.3653C38.6751 39.0873 38.7948 38.7458 39.0599 38.5669C39.17 38.4925 39.5741 38.4854 40.1181 38.4784C40.4014 38.4748 40.5259 38.4546 40.6393 38.5839C40.7079 38.6622 40.7871 38.8105 40.8527 39.0064C40.9821 39.3928 41.0317 39.7228 40.9149 39.9395C40.5701 39.6838 40.2345 39.0454 39.7405 39.2566Z" fill="#FF9989"/>
<path fill-rule="evenodd" clip-rule="evenodd" d="M36.8863 37.5156C37.0396 37.1406 37.0868 37.0783 37.343 36.7529C37.4129 36.6641 37.4773 36.5995 37.5453 36.5557L39.0086 38.585C38.8822 38.754 38.5022 39.5013 39.0335 39.6963C38.5627 39.5245 37.618 38.7977 36.8863 37.5156Z" fill="#FF9989"/>
<path fill-rule="evenodd" clip-rule="evenodd" d="M36.5304 39.2492C36.3015 38.8384 36.3361 38.5183 36.2273 38.1236C36.1507 37.8453 36.2536 37.4928 36.5899 37.4183C36.7177 37.3899 36.8698 37.3703 37.1583 37.3491L37.5275 37.4143C37.7922 38.0029 37.404 38.405 37.0644 38.4353C36.998 38.502 37.3068 39.754 37.4421 40.2159C37.483 40.3552 36.8275 39.9069 36.5304 39.2492Z" fill="#FFB79D"/>
<path fill-rule="evenodd" clip-rule="evenodd" d="M37.5279 37.3965C37.5328 37.7902 37.1753 38.2661 36.4928 38.2452C36.7924 38.4647 37.105 38.4602 37.3372 38.3405C37.6844 38.1616 37.852 37.7254 37.5279 37.3965Z" fill="#FF9989"/>
<path fill-rule="evenodd" clip-rule="evenodd" d="M38.5242 41.9763C38.8112 42.3692 40.7043 41.6996 40.8437 41.3223L41.1899 42.0179C41.402 42.1808 41.7672 42.5101 41.8851 42.6922C43.5847 45.321 44.1976 47.7895 44.9425 50.8593C45.424 52.8434 43.4507 53.9536 42.1871 53.3215C39.7526 52.1039 39.0099 45.7789 38.7107 43.561C38.69 43.4081 38.855 42.9724 38.8153 42.8244C38.73 42.6037 38.5842 42.1106 38.5242 41.9763Z" fill="url(#paint11_linear_277_92745)"/>
<path opacity="0.25" fill-rule="evenodd" clip-rule="evenodd" d="M38.5242 41.9756C38.5922 42.0686 38.7498 42.1019 38.9528 42.0939C39.0207 42.486 39.0774 42.7066 39.2252 42.8364C40.1474 42.6249 40.3624 42.4786 41.1899 42.0173C40.804 42.6084 40.0559 43.1572 39.576 43.3394C39.6945 44.7247 41.2845 52.3551 43.7989 53.318C43.2785 53.5489 42.6792 53.5667 42.1871 53.3208C39.7526 52.1031 39.0098 45.7782 38.7107 43.5603C38.6899 43.4074 38.855 42.9716 38.8153 42.8237C38.73 42.603 38.5844 42.1099 38.5242 41.9756Z" fill="url(#paint12_linear_277_92745)"/>
<path fill-rule="evenodd" clip-rule="evenodd" d="M56.2362 9.86385C56.2412 8.07294 57.4927 7.34821 59.032 8.24912C70.6268 14.9885 82.2292 21.7083 93.8234 28.4475C95.3612 29.3475 96.6063 31.5327 96.6013 33.3236L96.535 35.0463C96.5301 36.837 95.2768 37.5609 93.7389 36.6612C82.1462 29.9228 70.5413 23.2015 58.9477 16.4625C57.4079 15.5617 56.1647 13.3772 56.1697 11.5865L56.2362 9.86385Z" fill="#833DF4"/>
<path fill-rule="evenodd" clip-rule="evenodd" d="M85.6293 27.5513C85.6313 27.2353 85.6987 26.9689 85.8169 26.7615C85.9106 26.5974 86.0365 26.4691 86.1876 26.3811C86.3381 26.2935 86.5109 26.2481 86.6984 26.2485C86.9402 26.249 87.207 26.3261 87.4824 26.4872L90.1476 28.0272C90.5807 28.2807 90.9713 28.7058 91.256 29.1921C91.5146 29.6336 91.6891 30.1315 91.7317 30.602L91.803 30.6429C91.9888 30.7518 92.1552 30.9349 92.2732 31.1419C92.3907 31.3481 92.4631 31.5848 92.4625 31.802L92.4498 32.1433C92.4482 32.2843 92.416 32.4067 92.3607 32.5043C92.3121 32.5895 92.2463 32.6565 92.1671 32.7026C92.0889 32.7489 91.9993 32.7723 91.902 32.7722C91.7874 32.7718 91.6638 32.7372 91.5393 32.6647L91.4647 32.6218C91.3294 32.8172 91.1448 32.9497 90.9252 33.0116C90.6869 33.0788 90.412 33.0595 90.121 32.9435C90.0361 32.9095 89.947 32.8658 89.8552 32.8122L87.1882 31.2714C86.7432 31.011 86.3428 30.5686 86.056 30.0649C85.7694 29.5616 85.5927 28.9905 85.5941 28.4719L85.6293 27.5513ZM86.2475 27.0143C86.1702 27.1497 86.1263 27.3336 86.1259 27.5603L86.0908 28.481C86.0919 28.9079 86.2428 29.3861 86.4866 29.8143C86.7315 30.2443 87.0681 30.6189 87.4375 30.8351L90.1015 32.3753C90.1681 32.4142 90.2356 32.4472 90.3023 32.4738C90.4903 32.5488 90.6577 32.5641 90.7927 32.5261C90.9156 32.4914 91.0178 32.4087 91.0887 32.2843C91.105 32.2555 91.1208 32.2218 91.1356 32.1839L91.2411 31.9127C91.3548 31.9783 91.7144 32.1647 91.7855 32.2278C91.8331 32.2555 91.8726 32.269 91.9019 32.269C91.9095 32.269 91.9156 32.2678 91.9196 32.2654C91.9227 32.2644 91.9263 32.26 91.9298 32.2537C91.9444 32.2281 91.9529 32.1879 91.953 32.1345L91.9656 31.7942C91.964 31.6682 91.9172 31.5239 91.8424 31.3927C91.7664 31.2593 91.6639 31.1442 91.5535 31.0794L91.2482 30.903L91.2436 30.7617C91.2299 30.3378 91.0729 29.8682 90.8273 29.4488C90.5837 29.0331 90.2559 28.673 89.898 28.4637L87.2328 26.9237C87.0347 26.8077 86.8534 26.7524 86.6983 26.752C86.5986 26.7518 86.5095 26.7743 86.4349 26.8176C86.3611 26.8605 86.2973 26.927 86.2475 27.0143Z" fill="white"/>
<path opacity="0.5" fill-rule="evenodd" clip-rule="evenodd" d="M63.2119 27.4261L63.2032 30.4574C60.9733 29.1522 59.1563 30.1996 59.149 32.8027C59.1416 35.4018 60.9466 38.5683 63.1769 39.8732C65.4142 41.1822 67.2293 40.1341 67.2364 37.5349C67.2371 37.4185 67.2321 37.2971 67.2251 37.1745L69.8236 38.4658C69.8338 38.6609 69.8385 38.8618 69.838 39.0569C69.8261 43.3305 66.8385 45.0499 63.1686 42.9023C59.4984 40.7552 56.5355 35.5546 56.5476 31.2809C56.5596 27.0029 59.5416 25.2786 63.2119 27.4261Z" fill="white"/>
<path fill-rule="evenodd" clip-rule="evenodd" d="M65.0081 36.0272C65.1825 36.3457 65.2708 36.6658 65.27 36.9918C65.2692 37.3266 65.1683 37.5486 64.9768 37.6672C64.7781 37.78 64.537 37.7575 64.2623 37.5967C64.0088 37.4486 63.7896 37.2352 63.6098 36.9593C63.4301 36.6897 63.313 36.3923 63.2585 36.0709L63.849 36.4166C63.8935 36.5486 63.9538 36.6611 64.0267 36.7641C64.1 36.8588 64.1854 36.9337 64.2746 36.9859C64.3978 37.0581 64.4996 37.0654 64.589 37.0139C64.675 36.9662 64.7201 36.8533 64.7204 36.6973C64.7209 36.5396 64.682 36.3856 64.5966 36.2317C64.5185 36.0881 64.4241 35.979 64.3062 35.9099C64.2439 35.8732 64.1886 35.8616 64.1259 35.8586C64.0686 35.8645 64.0078 35.8809 63.9507 35.9183L63.4958 35.5357L63.8563 33.8382L65.232 34.643L65.2304 35.2456L64.2757 34.6869L64.1492 35.2414C64.183 35.2488 64.217 35.2624 64.2509 35.276C64.2794 35.2865 64.3132 35.3062 64.342 35.3229C64.6113 35.4808 64.8302 35.713 65.0081 36.0272ZM62.3128 34.2588C62.3843 34.2089 62.4187 34.1252 62.4189 33.9942C62.4193 33.8569 62.3857 33.725 62.3075 33.5937C62.2345 33.4595 62.151 33.3646 62.0509 33.3063C61.9492 33.2467 61.8581 33.2392 61.7846 33.2817C61.7061 33.3272 61.6717 33.4197 61.6714 33.5505C61.6711 33.6877 61.7046 33.8115 61.7777 33.9455C61.8506 34.0736 61.9415 34.1724 62.0538 34.2384C62.1534 34.2966 62.2448 34.3043 62.3128 34.2588ZM62.0456 32.6936C62.3094 32.8479 62.5288 33.0823 62.7082 33.4039C62.8826 33.7222 62.9712 34.0219 62.9703 34.296C62.97 34.4018 62.9538 34.4964 62.9301 34.595C62.9013 34.6822 62.8331 34.8068 62.7377 34.9737L61.9747 36.2588L61.4974 35.6963L62.0179 34.8335C61.7648 34.6854 61.551 34.4559 61.3783 34.1511C61.2042 33.8411 61.1209 33.5301 61.1218 33.2229C61.1229 32.9217 61.2126 32.7245 61.3934 32.62C61.5742 32.5155 61.7868 32.5421 62.0456 32.6936Z" fill="white"/>
<path opacity="0.25" fill-rule="evenodd" clip-rule="evenodd" d="M63.2161 27.4258C66.7217 29.477 69.5855 34.3115 69.8279 38.4655L67.2293 37.1742C67.0792 34.641 65.3433 31.7066 63.2075 30.4572L63.2161 27.4258Z" fill="white"/>
<path fill-rule="evenodd" clip-rule="evenodd" d="M75.6295 48.584C75.7172 48.4587 75.7658 48.1973 75.7668 47.7874C75.7679 47.3717 75.7277 47.0641 75.6491 46.8609C75.5674 46.6558 75.4638 46.5167 75.3389 46.4434C75.2516 46.3924 75.1742 46.3777 75.1068 46.4035C75.039 46.431 74.9863 46.515 74.9494 46.6512C74.9128 46.7868 74.8973 47.0063 74.8965 47.3148C74.8955 47.7133 74.9356 48.0148 75.0176 48.2143C75.0944 48.4091 75.2045 48.5522 75.3328 48.6271C75.4579 48.7002 75.5565 48.6854 75.6295 48.584ZM73.4488 47.0777L73.142 47.2722L74.1106 47.8391L74.1091 48.3947L72.2291 47.2948L72.2299 47.0054L73.0716 46.5002C73.2746 46.383 73.4098 46.2704 73.4779 46.1641C73.5456 46.0581 73.5823 45.9468 73.5825 45.8262C73.5827 45.7055 73.5469 45.5888 73.4748 45.462C73.4075 45.344 73.319 45.2558 73.2102 45.1923C73.0969 45.1259 73.0077 45.1218 72.9301 45.1722C72.8574 45.2218 72.816 45.33 72.809 45.4946L72.3074 45.2013C72.3232 44.8671 72.4177 44.6498 72.5892 44.5563C72.7608 44.4629 72.9783 44.4886 73.2432 44.6434C73.4093 44.7406 73.5539 44.8675 73.6769 45.018C73.8066 45.1785 73.905 45.3513 73.9821 45.5458C74.0541 45.7454 74.0948 45.9207 74.0941 46.0833C74.0936 46.2711 74.0471 46.4433 73.9527 46.605C73.86 46.7696 73.693 46.9253 73.4488 47.0777ZM76.1627 47.0404C76.2394 47.3213 76.2811 47.672 76.28 48.0819C76.2788 48.5033 76.2353 48.8059 76.1573 48.9943C76.0795 49.1789 75.9702 49.2897 75.8352 49.3199C75.6999 49.3502 75.5337 49.3067 75.3263 49.1856C75.124 49.067 74.9531 48.9135 74.8136 48.7224C74.6739 48.5255 74.566 48.2993 74.4892 48.0242C74.4124 47.7569 74.3722 47.4128 74.3736 46.997C74.3751 46.4166 74.4537 46.0463 74.609 45.8704C74.7808 45.6872 75.0198 45.6829 75.3258 45.8621C75.5233 45.9775 75.694 46.137 75.8336 46.328C75.9778 46.5276 76.0861 46.7653 76.1627 47.0404Z" fill="white"/>
<path fill-rule="evenodd" clip-rule="evenodd" d="M72.2931 37.9979L72.2946 37.4365L74.0763 38.479L74.0752 38.791L72.8401 40.9945L72.4114 40.5018L73.4331 38.665L72.2931 37.9979ZM75.8751 40.9262C76.0359 41.2141 76.1191 41.5162 76.118 41.8187C76.1173 42.1252 76.0279 42.3338 75.8463 42.4385C75.663 42.5424 75.4456 42.5189 75.1874 42.3678C74.9537 42.231 74.7567 42.0428 74.5925 41.7896C74.4269 41.5409 74.319 41.2668 74.2669 40.9638L74.8113 41.2824C74.8521 41.41 74.9046 41.5135 74.977 41.6039C75.0442 41.6967 75.1165 41.7643 75.1987 41.8122C75.3123 41.8786 75.411 41.8886 75.4886 41.8362C75.5729 41.7896 75.6095 41.69 75.6097 41.5386C75.6102 41.395 75.5744 41.2586 75.5023 41.1187C75.4301 40.9864 75.3363 40.8838 75.2327 40.823C75.1753 40.7892 75.1191 40.7739 75.0666 40.7739C75.0088 40.7708 74.9575 40.7946 74.8998 40.8279L74.4809 40.4676L74.8179 38.913L76.0864 39.6551L76.0847 40.2029L75.1997 39.6851L75.0895 40.2079C75.1209 40.2128 75.1453 40.2215 75.1767 40.2339C75.2079 40.2465 75.2342 40.2619 75.2657 40.2802C75.5093 40.4226 75.7113 40.6367 75.8751 40.9262Z" fill="white"/>
<path opacity="0.5" fill-rule="evenodd" clip-rule="evenodd" d="M77.2843 44.7631C77.3829 44.8209 77.4599 44.958 77.4595 45.0731L77.4584 45.458C77.4582 45.5729 77.3807 45.6177 77.2819 45.5601L71.8247 42.3915C71.7276 42.3347 71.649 42.1984 71.6492 42.0837L71.6503 41.6985C71.6506 41.5836 71.7299 41.5379 71.8271 41.5946L77.2843 44.7631Z" fill="white"/>
<path opacity="0.5" fill-rule="evenodd" clip-rule="evenodd" d="M77.2974 38.4399C77.3962 38.4976 77.4732 38.6405 77.4727 38.7535L77.4717 39.1347C77.4715 39.2496 77.3939 39.3003 77.2953 39.2426L71.838 36.074C71.7409 36.0173 71.6623 35.8753 71.6625 35.7603L71.6636 35.3791C71.6637 35.266 71.7431 35.2146 71.8402 35.2712L77.2974 38.4399Z" fill="white"/>
<path fill-rule="evenodd" clip-rule="evenodd" d="M70.9265 34.5508C71.209 34.7159 71.4378 35.1143 71.4368 35.4335C71.436 35.7624 71.2055 35.8953 70.923 35.7299C70.6491 35.5697 70.4231 35.1698 70.4244 34.8408C70.4253 34.5215 70.6522 34.3907 70.9265 34.5508Z" fill="white"/>
<path fill-rule="evenodd" clip-rule="evenodd" d="M70.9134 40.8513C71.2041 41.0214 71.4393 41.434 71.4384 41.7694C71.4372 42.1077 71.2005 42.2342 70.9099 42.0644C70.6281 41.8989 70.3957 41.498 70.3966 41.1595C70.398 40.8249 70.6314 40.6864 70.9134 40.8513Z" fill="white"/>
<path fill-rule="evenodd" clip-rule="evenodd" d="M56.0181 74.7503C56.0227 73.0749 56.5965 71.8841 57.5232 71.3056C58.4992 70.6962 59.8717 70.761 61.3884 71.6488L91.9067 89.3875C94.8601 91.1161 97.2517 95.3134 97.2422 98.7533L97.1149 113.382C97.1053 116.822 94.698 118.212 91.744 116.484L61.2262 98.745C58.2689 97.0147 55.8808 92.819 55.8904 89.3794L56.0181 74.7503Z" fill="url(#paint13_linear_277_92745)"/>
<path opacity="0.5" fill-rule="evenodd" clip-rule="evenodd" d="M59.1504 97.0389L59.1866 83.6464L58.8283 83.3723L58.7925 96.6342C58.9093 96.7727 59.0287 96.9077 59.1504 97.0389ZM59.0103 82.3059C58.8045 82.1488 58.6342 82.2119 58.633 82.4492C58.6317 82.6819 58.8015 83.0053 59.0069 83.162C59.216 83.322 59.387 83.2589 59.3877 83.0257C59.3887 82.7887 59.2192 82.4655 59.0103 82.3059ZM65.0048 100.94L65.0591 82.3429L64.6978 82.0668L64.6432 100.729L65.0048 100.94ZM64.8866 81.0056C64.6778 80.846 64.5068 80.9089 64.5059 81.1459C64.505 81.3793 64.6743 81.7027 64.8837 81.8622C65.0855 82.0165 65.2561 81.9532 65.2573 81.7203C65.258 81.483 65.0889 81.1602 64.8866 81.0056ZM70.8573 104.341L70.929 81.0379L70.5776 80.7694L70.506 104.137L70.8573 104.341ZM70.7561 79.7006C70.5469 79.5403 70.3831 79.6087 70.3826 79.85C70.3817 80.0797 70.544 80.3969 70.7529 80.5566C70.9652 80.7188 71.1292 80.6506 71.1301 80.4213C71.1308 80.1803 70.9683 79.8629 70.7561 79.7006ZM76.7152 107.746L76.7875 84.3568L76.4295 84.0837L76.3572 107.538L76.7152 107.746ZM76.6114 83.0164C76.4057 82.8599 76.2349 82.9227 76.2337 83.1598C76.2329 83.393 76.4024 83.7159 76.6081 83.8732C76.8172 84.0326 76.9877 83.9696 76.9885 83.7367C76.9899 83.4993 76.8206 83.1766 76.6114 83.0164ZM82.5698 111.15L82.6294 91.1347L82.2679 90.8584L82.208 110.939L82.5698 111.15ZM82.4497 89.7962C82.2478 89.6413 82.0766 89.7006 82.0761 89.9417C82.0751 90.1708 82.2445 90.4936 82.4464 90.6478C82.6589 90.8103 82.8265 90.745 82.8269 90.5157C82.8284 90.2747 82.6619 89.9582 82.4497 89.7962ZM88.4201 114.55L88.4633 99.0678L88.1055 98.7944L88.0618 114.342L88.4201 114.55ZM88.2906 97.7302C88.0815 97.5706 87.9105 97.6338 87.9095 97.8707C87.9089 98.1041 88.0783 98.4268 88.2873 98.5868C88.4932 98.7438 88.6633 98.6805 88.6645 98.4476C88.6653 98.2101 88.4964 97.8874 88.2906 97.7302ZM94.2692 117.225L94.3027 104.654L93.9483 104.384L93.9139 117.219C94.0349 117.227 94.1531 117.229 94.2692 117.225ZM94.1301 103.321C93.9243 103.163 93.7571 103.225 93.7563 103.459C93.7553 103.696 93.9213 104.016 94.1264 104.173C94.3359 104.333 94.5065 104.27 94.5077 104.033C94.5087 103.8 94.3392 103.481 94.1301 103.321Z" fill="#3856D8"/>
<path opacity="0.5" fill-rule="evenodd" clip-rule="evenodd" d="M95.8882 98.951C95.8337 98.8573 95.7669 98.7811 95.6999 98.7302C95.612 98.663 95.5241 98.639 95.4636 98.6744C94.9257 99.0159 94.4307 99.3033 93.962 99.5419C93.5013 99.7861 93.0617 99.9723 92.6518 100.123C90.7402 100.805 89.2499 100.523 87.6549 99.3035C86.0899 98.0781 84.444 95.897 82.27 92.863C79.8378 89.4681 77.7727 87.0671 75.8184 85.5739C75.5296 85.3534 75.2436 85.1526 74.9593 84.9716C72.7502 83.5627 70.6711 83.3592 68.3343 84.2362C68.0907 84.3197 67.8579 84.4174 67.6249 84.5094C65.8315 85.2197 64.1508 85.8837 62.0181 84.2543C60.9087 83.4067 59.677 81.9385 58.2439 79.5334C58.19 79.441 58.124 79.3654 58.0576 79.3149C57.9691 79.2473 57.8801 79.2238 57.8195 79.2634C57.7189 79.3331 57.7366 79.5656 57.8625 79.776C59.4637 82.4651 60.8269 84.094 62.0478 85.0268C64.3465 86.7832 66.1389 86.0693 68.0525 85.3128C68.2907 85.2251 68.5235 85.1333 68.7617 85.0455C70.9902 84.2057 72.9583 84.3874 75.0275 85.7045C75.2836 85.8681 75.5417 86.0493 75.8019 86.2483C77.6452 87.6565 79.6266 89.9622 81.9753 93.2404C84.2306 96.3817 85.9427 98.6489 87.6418 99.9805C87.6742 100.006 87.7069 100.031 87.7392 100.056C89.4194 101.34 91.0387 101.659 93.0715 100.939C93.4924 100.79 93.9396 100.592 94.4162 100.348C94.8878 100.099 95.3933 99.8077 95.9312 99.4661C96.0371 99.3975 96.0193 99.1739 95.8882 98.951Z" fill="#3856D8"/>
<path fill-rule="evenodd" clip-rule="evenodd" d="M95.3656 97.4995C95.3112 97.4065 95.2446 97.3311 95.1777 97.2812C95.0898 97.2151 95.0021 97.1923 94.942 97.2286C94.4053 97.5791 93.9113 97.8747 93.4436 98.1208C92.9839 98.3725 92.5453 98.5657 92.1361 98.7233C90.2287 99.435 88.7415 99.1752 87.1495 97.9774C85.5872 96.7731 83.9441 94.6124 81.7737 91.605C79.3454 88.24 77.284 85.8653 75.3334 84.3986C75.0452 84.182 74.7597 83.9853 74.4759 83.808C72.2709 82.4296 70.1961 82.2571 67.8642 83.1713C67.6212 83.2587 67.3889 83.3602 67.1563 83.4558C65.3668 84.1947 63.6898 84.8856 61.5609 83.2851C60.4538 82.4524 59.2242 80.9999 57.7933 78.6117C57.7396 78.52 57.6736 78.4451 57.6073 78.3954C57.5192 78.329 57.4302 78.3071 57.3697 78.3474C57.2695 78.419 57.2871 78.6515 57.4127 78.8604C59.0114 81.5309 60.3724 83.1425 61.5909 84.0588C63.8855 85.784 65.6738 85.0417 67.5834 84.2545C67.8211 84.163 68.0536 84.0674 68.2912 83.9759C70.5148 83.1006 72.4789 83.2529 74.544 84.5414C74.7996 84.7016 75.0572 84.8792 75.3171 85.0745C77.1569 86.458 79.135 88.7381 81.4798 91.9876C83.7313 95.1013 85.4404 97.3473 87.1365 98.6557C87.1686 98.6805 87.2014 98.7056 87.2336 98.7296C88.9106 99.9908 90.527 100.287 92.5552 99.5343C92.975 99.3782 93.4214 99.1733 93.8968 98.9213C94.3675 98.6652 94.8719 98.3655 95.4084 98.0152C95.5144 97.9446 95.4966 97.721 95.3656 97.4995Z" fill="#00FFFF"/>
<path fill-rule="evenodd" clip-rule="evenodd" d="M56.0905 42.9788C56.0943 41.6301 57.0367 41.0844 58.1957 41.7629C70.5055 48.9178 82.8053 56.0856 95.1135 63.2397C96.2715 63.9173 97.2089 65.5628 97.2052 66.9113L97.1552 68.2083C97.1515 69.5567 96.2078 70.1017 95.0499 69.4242C82.7401 62.2692 70.4403 55.1018 58.1321 47.9473C56.9727 47.2689 56.0366 45.624 56.0405 44.2758L56.0905 42.9788Z" fill="url(#paint14_linear_277_92745)"/>
<path opacity="0.5" fill-rule="evenodd" clip-rule="evenodd" d="M57.0863 44.199C57.0878 43.7017 57.4351 43.5005 57.8626 43.7506C62.4019 46.389 90.362 62.7456 94.9008 65.3837C95.3279 65.6336 95.6735 66.2404 95.6721 66.7376L95.6538 67.216C95.6524 67.7132 95.3045 67.9142 94.8775 67.6644C90.338 65.0258 62.3779 48.6695 57.8391 46.0313C57.4117 45.7812 57.0663 45.1745 57.0678 44.6773L57.0863 44.199Z" fill="white"/>
<path fill-rule="evenodd" clip-rule="evenodd" d="M57.0853 44.199C57.0868 43.7017 57.4342 43.5005 57.8616 43.7506C62.401 46.389 76.2586 54.4716 80.7975 57.1097C81.2245 57.3596 81.5701 57.9663 81.5688 58.4637L81.5504 58.9419C81.5489 59.4392 81.201 59.6403 80.774 59.3904C76.2346 56.7518 62.377 48.6695 57.8383 46.0313C57.4107 45.7812 57.0656 45.1745 57.0668 44.6774L57.0853 44.199Z" fill="white"/>
<path opacity="0.5" fill-rule="evenodd" clip-rule="evenodd" d="M78.4739 34.7202C78.4818 31.8483 80.4888 30.6861 82.9573 32.1309L101.743 44.9844L101.447 65.5204L99.657 66.8876L82.8219 56.9543C80.353 55.5097 78.3592 52.0068 78.3672 49.1352L78.4739 34.7202Z" fill="url(#paint15_linear_277_92745)"/>
<path fill-rule="evenodd" clip-rule="evenodd" d="M80.5927 34.5319C80.5952 33.6152 80.2751 33.0469 80.6627 32.5457C80.9094 32.2271 81.768 31.8408 82.131 31.7134C82.8339 31.4667 83.7261 31.5944 84.6961 32.162L112.738 48.7076C114.995 50.0284 116.822 53.2354 116.815 55.8641L116.718 69.0574C116.716 69.8722 116.547 70.9157 115.931 71.4877C115.491 71.8952 114.721 72.3034 114.148 72.3506C113.561 72.3992 113.334 71.8485 112.614 71.4274L84.5723 54.8818C82.3126 53.5596 80.4877 50.3535 80.495 47.7253L80.5927 34.5319Z" fill="#D0E7FF"/>
<path fill-rule="evenodd" clip-rule="evenodd" d="M79.9369 34.9213C79.9443 32.2927 81.7812 31.2291 84.0405 32.5514L112.082 49.0969C114.339 50.4176 116.167 53.6249 116.159 56.2534L116.062 69.4466C116.055 72.0749 114.215 73.1372 111.958 71.8165L83.9166 55.2709C81.6568 53.9488 79.8321 50.7427 79.8394 48.1144L79.9369 34.9213Z" fill="white"/>
<path fill-rule="evenodd" clip-rule="evenodd" d="M79.8482 34.929C79.8555 32.2931 81.6976 31.1891 83.9632 32.5151L112.077 49.0924C114.438 50.4169 116.166 53.6767 116.159 56.3127L116.15 58.809L79.8394 37.4572L79.8482 34.929Z" fill="url(#paint16_linear_277_92745)"/>
<path fill-rule="evenodd" clip-rule="evenodd" d="M83.3289 35.1509C83.8206 35.2826 84.2605 35.8724 84.3115 36.4681C84.3623 37.0637 84.0051 37.4399 83.5133 37.3081C83.0215 37.1762 82.5816 36.5865 82.5308 35.9907C82.4798 35.3951 82.8372 35.019 83.3289 35.1509Z" fill="white"/>
<path fill-rule="evenodd" clip-rule="evenodd" d="M86.0857 36.8457C86.5775 36.9775 87.0172 37.5672 87.0682 38.1629C87.1192 38.7586 86.7618 39.1347 86.2701 39.003C85.7783 38.8711 85.3385 38.2814 85.2876 37.6856C85.2365 37.0899 85.5939 36.7138 86.0857 36.8457Z" fill="white"/>
<path fill-rule="evenodd" clip-rule="evenodd" d="M88.8372 38.541C89.329 38.6728 89.7689 39.2625 89.8198 39.8582C89.8708 40.4539 89.5134 40.83 89.0217 40.6983C88.53 40.5664 88.09 39.9767 88.0391 39.3809C87.9882 38.7852 88.3455 38.4092 88.8372 38.541Z" fill="white"/>
<path opacity="0.2" fill-rule="evenodd" clip-rule="evenodd" d="M85.651 42.9999C88.3857 43.7329 90.8324 47.0128 91.1155 50.3256C91.3987 53.6385 89.4114 55.7301 86.6767 54.997C83.942 54.2641 81.4954 50.9843 81.2122 47.6713C80.929 44.3585 82.9162 42.2669 85.651 42.9999Z" fill="#6D6AFD"/>
<path fill-rule="evenodd" clip-rule="evenodd" d="M85.8822 45.764C87.3566 46.1591 88.6756 47.9276 88.8284 49.7137C88.9811 51.4999 87.9096 52.6274 86.4352 52.2323C84.9608 51.8371 83.6416 50.0688 83.489 48.2825C83.3363 46.4964 84.4078 45.3688 85.8822 45.764Z" fill="url(#paint17_linear_277_92745)"/>
<path opacity="0.2" fill-rule="evenodd" clip-rule="evenodd" d="M92.6178 49.6676C92.6198 48.9662 93.11 48.6906 93.7129 49.0536L111.986 59.5569C112.588 59.9196 113.076 60.7838 113.074 61.4852L113.074 62.8729C113.072 63.5743 112.581 63.8496 111.979 63.4869L93.7055 52.9836C93.1025 52.6205 92.6155 51.7567 92.6175 51.0553L92.6178 49.6676Z" fill="#6D6AFD"/>
<path opacity="0.2" fill-rule="evenodd" clip-rule="evenodd" d="M92.6177 54.7725C92.6188 54.3582 92.9084 54.1956 93.2643 54.4099L104.055 60.6123C104.411 60.8265 104.698 61.3368 104.697 61.7511V62.5704C104.696 62.9846 104.406 63.1471 104.05 62.9329L93.2601 56.7307C92.9041 56.5162 92.6164 56.0062 92.6175 55.5919L92.6177 54.7725Z" fill="#6D6AFD"/>
<path opacity="0.5" fill-rule="evenodd" clip-rule="evenodd" d="M108.31 50.5228C108.31 50.2617 108.493 50.1561 108.717 50.2874L112.615 52.4109C112.839 52.5421 113.02 52.8606 113.02 53.1216L113.019 54.0929C113.019 54.354 112.836 54.4595 112.612 54.3282L108.714 52.2048C108.49 52.0735 108.309 51.7551 108.31 51.4941L108.31 50.5228Z" fill="white"/>
<path opacity="0.5" fill-rule="evenodd" clip-rule="evenodd" d="M58.5725 49.5098L75.4266 59.4146L75.3716 78.807L58.517 68.9005L58.5725 49.5098ZM77.8201 60.7926L94.674 70.6978L94.619 90.09L77.7646 80.1837L77.8201 60.7926Z" fill="white"/>
<path opacity="0.5" fill-rule="evenodd" clip-rule="evenodd" d="M53.9914 50.1304L63.4788 55.6404C65.9235 57.0712 67.9029 60.5453 67.8951 63.3926L67.7898 77.6836C67.7818 80.5306 65.7893 81.6814 63.3441 80.2508L53.5654 74.5699L53.6107 70.5526L53.9914 50.1304Z" fill="url(#paint18_linear_277_92745)"/>
<path fill-rule="evenodd" clip-rule="evenodd" d="M47.0393 50.3654C47.0418 49.4487 46.7218 48.8803 47.1094 48.3792C47.3561 48.0605 48.2146 47.6743 48.5777 47.5469C49.2806 47.3002 50.1728 47.4279 51.1427 47.9954L61.9685 54.2829C64.2252 55.6037 66.0526 58.8107 66.0453 61.4394L65.9481 74.6327C65.946 75.4476 65.7775 76.4911 65.1609 77.063C64.7217 77.4703 63.9512 77.8787 63.3787 77.926C62.7911 77.9745 62.5639 77.4239 61.8441 77.0027L51.0188 70.7152C48.759 69.3929 46.9342 66.187 46.9416 63.5587L47.0393 50.3654Z" fill="#D0E7FF"/>
<path fill-rule="evenodd" clip-rule="evenodd" d="M46.3799 50.7548C46.3873 48.1262 48.2241 47.0626 50.4835 48.3849L61.3092 54.6722C63.566 55.993 65.3934 59.2003 65.3862 61.8289L65.2889 75.022C65.2816 77.6502 63.4422 78.7126 61.1849 77.3919L50.3596 71.1044C48.0999 69.7824 46.2752 66.5762 46.2824 63.948L46.3799 50.7548Z" fill="url(#paint19_linear_277_92745)"/>
<path fill-rule="evenodd" clip-rule="evenodd" d="M56.0568 66.2327C54.1638 65.1709 52.5086 62.5986 52.3587 60.4853C52.209 58.3733 53.6212 57.5202 55.5143 58.582C57.4062 59.6432 59.0626 62.2174 59.2124 64.3295C59.3623 66.4427 57.949 67.2939 56.0568 66.2327ZM63.0819 65.4046L61.851 64.7142C61.6168 63.5557 61.17 62.3563 60.5666 61.2051L61.3692 60.7224C60.9123 59.8814 60.387 59.0653 59.8088 58.2974L59.0065 58.7813C58.2062 57.7503 57.2914 56.8332 56.3207 56.1191L56.2231 54.7437C55.8853 54.506 55.5425 54.2877 55.1958 54.0932C54.8479 53.8981 54.5088 53.734 54.1784 53.5969L54.276 54.9723C53.3305 54.6115 52.4749 54.5356 51.761 54.7175L50.8206 53.2559C50.3079 53.4118 49.8598 53.682 49.4892 54.0589L50.4296 55.5192C49.9464 56.0609 49.6397 56.8378 49.5572 57.8187L48.3265 57.1282C48.3065 57.4751 48.3094 57.842 48.3368 58.2292C48.3644 58.6163 48.4157 59.0118 48.4883 59.4105L49.7192 60.101C49.9533 61.2593 50.4001 62.4589 51.0035 63.6088L50.201 64.0927C50.658 64.9336 51.183 65.7498 51.7613 66.5177L52.5638 66.0337C53.3638 67.0648 54.279 67.9819 55.2495 68.6961L55.3471 70.07C55.6846 70.309 56.0275 70.5273 56.3754 70.7224C56.7221 70.917 57.0611 71.081 57.3915 71.2167L57.2939 69.8429C58.2397 70.2035 59.0952 70.2793 59.809 70.0976L60.7496 71.5592C61.2624 71.4032 61.7102 71.1328 62.0808 70.756L61.1404 69.2944C61.6237 68.754 61.9302 67.9771 62.0128 66.9964L63.2437 67.6868C63.2635 67.3398 63.2605 66.9716 63.2332 66.5845C63.2058 66.1976 63.1546 65.8035 63.0819 65.4046Z" fill="white"/>
<path fill-rule="evenodd" clip-rule="evenodd" d="M42.9118 23.2665L30.421 15.9104L33.3209 1.96264L33.3215 1.95889L33.3218 1.95719L33.3223 1.95485L33.3228 1.95152L33.323 1.95081L33.3238 1.94656L33.3241 1.94542L33.3248 1.94216L33.3255 1.93926L33.3258 1.93777L33.3268 1.93323V1.93274L33.3279 1.92841L33.3285 1.92601L33.3291 1.92367L33.3301 1.91913L33.3304 1.91864L33.3317 1.9136L33.3321 1.91204L33.333 1.9085L33.3341 1.9046L33.3346 1.90333L33.3361 1.89808L33.3363 1.89716L33.3378 1.89277L33.3388 1.88958L33.3395 1.88724L33.3413 1.88179H33.3414L33.3433 1.87612L33.344 1.87378L33.3451 1.87052L33.3467 1.86584L33.347 1.86485L33.3491 1.85911L33.3497 1.85762L33.3512 1.85323L33.3527 1.8494L33.3535 1.84749L33.3558 1.8416L33.356 1.84111L33.3583 1.83572L33.3593 1.83268L33.3607 1.82977L33.3629 1.82438L33.3632 1.82389L33.3657 1.81794L33.3666 1.81602L33.3684 1.81212L33.3705 1.80759L33.3711 1.8061L33.3741 1.80008L33.3744 1.79909L33.3768 1.79412L33.3785 1.79086L33.3798 1.78831L33.3828 1.78243H33.383L33.3861 1.77648L33.3874 1.774L33.3893 1.7706L33.392 1.76585L33.3926 1.76486L33.396 1.75898L33.3968 1.75763L33.3993 1.75324L33.4018 1.74934L33.403 1.7475L33.4067 1.74176L33.4069 1.7414L33.4104 1.7363L33.4122 1.73346L33.4142 1.73077L33.4177 1.72567L33.4181 1.72532L33.4219 1.71986L33.4233 1.71816L33.426 1.71461L33.43 1.70937L33.4342 1.70413L33.4349 1.70328L33.4385 1.69902L33.441 1.69612L33.4428 1.6942L33.4473 1.68931L33.4519 1.68443L33.4538 1.68251L33.4565 1.67982L33.4605 1.67606L33.4612 1.67535L33.4661 1.67096L33.4671 1.66976L33.4708 1.66657L33.4742 1.66373L33.4758 1.66239L33.4809 1.65835L33.4812 1.65799L33.4861 1.65445L33.4886 1.65247L33.4912 1.65069L33.4961 1.64722L33.4965 1.64701L33.5019 1.64354L33.5037 1.64233L33.5073 1.64028C33.5581 1.61058 33.6198 1.60215 33.6936 1.63149L46.1832 8.98738C45.7743 8.75997 44.1129 19.1536 42.9118 23.2665Z" fill="url(#paint20_linear_277_92745)"/>
<path fill-rule="evenodd" clip-rule="evenodd" d="M33.3208 1.95996C38.5669 8.05232 44.8244 11.8148 44.2124 17.102L42.9116 23.2638L30.4209 15.9077L33.3208 1.95996Z" fill="#E23B93"/>
<path fill-rule="evenodd" clip-rule="evenodd" d="M42.7464 7.70443L42.4642 21.8504L29.3638 14.1865L29.4029 0.163086L42.7464 7.70443Z" fill="#F2F4FF"/>
<path fill-rule="evenodd" clip-rule="evenodd" d="M42.5063 7.82647L42.7799 7.66504L42.7409 21.6892L42.4672 21.8493L42.5063 7.82647Z" fill="#C5DBF1"/>
<path fill-rule="evenodd" clip-rule="evenodd" d="M29.4007 0.161502L29.6755 0L42.7746 7.66458L42.5009 7.82601L29.4007 0.161502Z" fill="#DCE8F8"/>
<path fill-rule="evenodd" clip-rule="evenodd" d="M42.0072 18.8156L42.0045 19.7L29.8793 12.6056L29.8821 11.7215L42.0072 18.8156ZM42.0344 8.64761L42.0332 9.53194L29.908 2.43783L29.9107 1.55371L42.0344 8.64761ZM42.0304 10.0996L29.9068 3.0056L29.9041 3.88971L42.0278 10.9836L42.0304 10.0996ZM42.0265 11.5526L29.9014 4.45862L29.9002 5.34288L42.0239 12.4366L42.0265 11.5526ZM42.0227 13.0055L29.8975 5.91157L29.8948 6.79569L42.02 13.8897L42.0227 13.0055ZM42.0188 14.4577L29.8937 7.36346L29.891 8.24779L42.0163 15.3417L42.0188 14.4577ZM42.015 15.9106L29.8898 8.81634L29.8871 9.70074L42.0122 16.7946L42.015 15.9106ZM42.011 17.3635L29.8859 10.2696L29.8833 11.1537L42.0084 18.2476L42.011 17.3635Z" fill="#C5DBF1"/>
<path fill-rule="evenodd" clip-rule="evenodd" d="M39.5351 13.1288L42.5129 23.7401L42.5132 23.7404C42.5532 23.8499 42.6373 24.0138 42.6966 24.0782L30.2069 16.7232C30.0974 16.6602 30.0386 16.4882 30.023 16.3857L27.0453 5.77369L27.0478 5.77518L26.4895 3.78578C26.4611 3.63413 26.5673 3.45802 26.5973 3.42578C27.1159 3.90462 29.8854 5.62225 30.3962 5.9269C31.2514 6.606 31.2807 7.44476 32.5762 8.83705C32.8243 9.10351 32.9096 9.17374 33.2172 9.35728L39.5351 13.1288Z" fill="url(#paint21_linear_277_92745)"/>
<path fill-rule="evenodd" clip-rule="evenodd" d="M39.6853 12.7205C39.7057 12.7018 39.7268 12.6865 39.7464 12.6749C39.8439 12.6184 39.9317 12.6425 39.961 12.7404L42.9105 23.2663L45.8099 9.31837C45.8356 9.18812 45.9251 9.06056 46.0216 9.00408C46.0419 8.99246 46.0624 8.98346 46.0818 8.97807C46.2014 8.94583 46.2715 9.04901 46.2379 9.20534L43.3217 23.2465C43.2713 23.4899 43.2102 23.673 43.1447 23.796C43.079 23.9243 42.9992 24.0123 42.9098 24.0643C42.8211 24.1165 42.7441 24.1155 42.6785 24.0699C42.6128 24.0195 42.5561 23.91 42.5092 23.742L39.5311 13.1293C39.4992 13.0108 39.5683 12.8267 39.6853 12.7205Z" fill="#E23B93"/>
<path fill-rule="evenodd" clip-rule="evenodd" d="M33.6071 8.94794L39.9073 12.6581C39.7433 12.5767 39.4919 12.9501 39.535 13.1277L33.172 9.38064C32.9598 9.25556 32.8283 9.18243 32.6415 9.03298C31.737 8.30909 31.3102 7.31726 30.7194 6.51499C30.5511 6.28645 30.3819 6.1258 30.2127 5.99519C30.0558 5.90853 29.9726 5.86232 30.0004 5.87614L26.489 3.78158C26.4625 3.63049 26.5674 3.4568 26.5972 3.42477C26.6637 3.35305 26.7676 3.26483 26.8622 3.31507L30.3798 5.41332C30.352 5.39957 30.435 5.44556 30.5921 5.53223C30.7612 5.66291 30.9303 5.82349 31.0987 6.05203C31.724 6.90099 32.1713 7.85541 33.1856 8.66511C33.3302 8.78055 33.4491 8.85482 33.6071 8.94794Z" fill="#FB84B6"/>
<path fill-rule="evenodd" clip-rule="evenodd" d="M114.356 37.5964C112.12 36.2865 110.17 33.1972 109.999 30.6937C109.828 28.1916 111.501 27.2232 113.736 28.5332C115.971 29.8423 117.922 32.934 118.093 35.4359C118.264 37.9393 116.59 38.9055 114.356 37.5964Z" fill="url(#paint22_linear_277_92745)"/>
<path fill-rule="evenodd" clip-rule="evenodd" d="M115.452 31.2803L116.045 31.5808L113.413 35.6415L111.089 32.1492L111.854 32.4524L113.081 33.6331L115.452 31.2803Z" fill="white"/>
<path fill-rule="evenodd" clip-rule="evenodd" d="M60.172 24.8352C58.6762 23.9963 57.3686 21.964 57.2502 20.2943C57.1319 18.6255 58.2476 17.9516 59.7433 18.7905C61.2381 19.6289 62.5469 21.6627 62.665 23.3314C62.7835 25.0011 61.6668 25.6735 60.172 24.8352Z" fill="white"/>
<path fill-rule="evenodd" clip-rule="evenodd" d="M64.1152 23.0742L64.1124 24.1014L75.6517 30.8533L75.6545 29.825L64.1152 23.0742Z" fill="white"/>
<path fill-rule="evenodd" clip-rule="evenodd" d="M64.1071 25.9282L68.1893 28.3157L68.192 27.2889L64.1111 24.9014L64.1071 25.9282Z" fill="white"/>
<path fill-rule="evenodd" clip-rule="evenodd" d="M71.8556 25.7332L64.1208 21.207L64.118 22.2339L71.8529 26.7599L71.8556 25.7332Z" fill="white"/>
<path opacity="0.2" fill-rule="evenodd" clip-rule="evenodd" d="M0.0302841 15.5121C0.0325917 14.6975 0.60188 14.3679 1.30207 14.7778L13.2814 21.784C13.9807 22.1933 14.5471 23.1873 14.5448 24.0019L14.5147 32.6953C14.5124 33.5099 13.9424 33.839 13.2428 33.4297L1.26368 26.4235C0.563348 26.0137 -0.00216157 25.0201 6.21157e-06 24.2055L0.0302841 15.5121Z" fill="url(#paint23_linear_277_92745)"/>
<path opacity="0.5" fill-rule="evenodd" clip-rule="evenodd" d="M5.29349 96.7642C5.2958 95.9544 5.86166 95.6266 6.5578 96.034L18.4663 102.999C19.1616 103.406 19.7245 104.394 19.7222 105.204L19.6924 113.846C19.6901 114.656 19.1234 114.983 18.428 114.576L6.51969 107.611C5.82341 107.204 5.26133 106.216 5.2635 105.406L5.29349 96.7642Z" fill="url(#paint24_linear_277_92745)"/>
<path opacity="0.2" fill-rule="evenodd" clip-rule="evenodd" d="M116.073 80.1938C116.075 79.5295 116.54 79.2607 117.111 79.5948L126.879 85.3079C127.449 85.6417 127.911 86.4522 127.909 87.1164L127.884 94.2052C127.882 94.8693 127.418 95.1379 126.847 94.804L117.079 89.0909C116.508 88.7568 116.047 87.9466 116.049 87.2824L116.073 80.1938Z" fill="white"/>
<path opacity="0.5" d="M133.234 42.2467C138.627 42.2467 143 37.8155 143 32.3494C143 26.8833 138.627 22.4521 133.234 22.4521C127.84 22.4521 123.467 26.8833 123.467 32.3494C123.467 37.8155 127.84 42.2467 133.234 42.2467Z" fill="url(#paint25_linear_277_92745)"/>
<path opacity="0.5" fill-rule="evenodd" clip-rule="evenodd" d="M4.34576 11.6108C5.67951 11.6108 6.76074 12.7066 6.76074 14.0582C6.76074 15.4098 5.67951 16.5055 4.34576 16.5055C3.01202 16.5055 1.93079 15.4098 1.93079 14.0582C1.93079 12.7065 3.01202 11.6108 4.34576 11.6108Z" fill="url(#paint26_linear_277_92745)"/>
<path opacity="0.5" d="M121.009 7.29045C122.849 7.29045 124.342 5.77823 124.342 3.91281C124.342 2.04738 122.849 0.535156 121.009 0.535156C119.168 0.535156 117.676 2.04738 117.676 3.91281C117.676 5.77823 119.168 7.29045 121.009 7.29045Z" fill="url(#paint27_linear_277_92745)"/>
<path opacity="0.5" fill-rule="evenodd" clip-rule="evenodd" d="M114.964 101.316C118.3 101.316 121.005 104.057 121.005 107.438C121.005 110.819 118.3 113.559 114.964 113.559C111.628 113.559 108.924 110.819 108.924 107.438C108.924 104.057 111.628 101.316 114.964 101.316ZM114.964 102.946C112.517 102.946 110.532 104.957 110.532 107.438C110.532 109.918 112.517 111.929 114.964 111.929C117.412 111.929 119.397 109.918 119.397 107.438C119.397 104.957 117.412 102.946 114.964 102.946Z" fill="url(#paint28_linear_277_92745)"/>
<path opacity="0.5" fill-rule="evenodd" clip-rule="evenodd" d="M19.7201 65.2979C22.129 65.2979 24.0817 67.2767 24.0817 69.7179C24.0817 72.1589 22.129 74.1377 19.7201 74.1377C17.3113 74.1377 15.3586 72.1589 15.3586 69.7179C15.3586 67.2767 17.3113 65.2979 19.7201 65.2979ZM19.7201 66.4746C17.9528 66.4746 16.52 67.9267 16.52 69.7179C16.52 71.5088 17.9528 72.9608 19.7201 72.9608C21.4876 72.9608 22.9204 71.5088 22.9204 69.7179C22.9204 67.9267 21.4876 66.4746 19.7201 66.4746Z" fill="url(#paint29_linear_277_92745)"/>
<path d="M41.237 150.1C41.557 150.26 41.9636 150.38 42.457 150.46C42.9503 150.527 43.4636 150.573 43.997 150.6C44.5303 150.613 45.0036 150.62 45.417 150.62C45.5636 150.62 45.7436 150.62 45.957 150.62C46.1836 150.62 46.3703 150.613 46.517 150.6C46.9436 150.587 47.3103 150.54 47.617 150.46C47.9236 150.367 48.157 150.22 48.317 150.02C48.477 149.82 48.557 149.54 48.557 149.18C48.557 148.74 48.437 148.453 48.197 148.32C47.957 148.173 47.5903 148.1 47.097 148.1C46.937 148.1 46.7503 148.1 46.537 148.1C46.337 148.1 46.097 148.1 45.817 148.1C45.537 148.1 45.1903 148.1 44.777 148.1C44.3636 148.1 43.9503 148.08 43.537 148.04C43.1236 148 42.7436 147.907 42.397 147.76C42.0636 147.613 41.797 147.38 41.597 147.06C41.397 146.727 41.297 146.267 41.297 145.68C41.297 144.987 41.417 144.447 41.657 144.06C41.897 143.66 42.237 143.367 42.677 143.18C43.117 142.98 43.637 142.853 44.237 142.8C44.837 142.747 45.4903 142.72 46.197 142.72C46.6236 142.72 47.0903 142.727 47.597 142.74C48.1036 142.753 48.577 142.78 49.017 142.82C49.4703 142.86 49.817 142.92 50.057 143C50.4303 143.027 50.717 143.133 50.917 143.32C51.117 143.493 51.217 143.713 51.217 143.98C51.217 144.02 51.217 144.093 51.217 144.2C51.217 144.307 51.217 144.413 51.217 144.52C51.217 144.627 51.217 144.687 51.217 144.7C51.1103 144.593 50.9103 144.507 50.617 144.44C50.337 144.373 50.0103 144.327 49.637 144.3C49.277 144.26 48.917 144.233 48.557 144.22C48.197 144.207 47.8903 144.2 47.637 144.2H46.057C45.6436 144.2 45.2836 144.233 44.977 144.3C44.6836 144.367 44.4503 144.493 44.277 144.68C44.117 144.853 44.037 145.12 44.037 145.48C44.037 145.76 44.0903 145.98 44.197 146.14C44.317 146.287 44.4836 146.387 44.697 146.44C44.9236 146.493 45.2036 146.52 45.537 146.52C46.2436 146.52 46.8236 146.52 47.277 146.52C47.7436 146.52 48.0703 146.52 48.257 146.52C48.8836 146.52 49.4303 146.573 49.897 146.68C50.3636 146.787 50.7236 147.02 50.977 147.38C51.2436 147.74 51.377 148.3 51.377 149.06C51.377 149.78 51.2236 150.353 50.917 150.78C50.6236 151.207 50.217 151.513 49.697 151.7C49.177 151.887 48.5703 152 47.877 152.04C47.357 152.08 46.857 152.1 46.377 152.1C45.897 152.1 45.3903 152.1 44.857 152.1C44.4036 152.087 43.957 152.067 43.517 152.04C43.0903 152.013 42.7036 151.96 42.357 151.88C42.0236 151.8 41.7503 151.693 41.537 151.56C41.337 151.413 41.237 151.22 41.237 150.98V150.1ZM57.0734 154.22C56.3667 154.22 55.7067 154.187 55.0934 154.12C54.4934 154.053 54.0067 153.947 53.6334 153.8C53.26 153.667 53.0734 153.493 53.0734 153.28V152.56C53.2867 152.68 53.58 152.78 53.9534 152.86C54.3267 152.94 54.7267 153 55.1534 153.04C55.58 153.093 55.98 153.12 56.3534 153.12C56.9934 153.12 57.5 153.04 57.8734 152.88C58.26 152.733 58.5334 152.493 58.6934 152.16C58.8667 151.827 58.9534 151.4 58.9534 150.88V150C58.82 150.267 58.6267 150.48 58.3734 150.64C58.12 150.8 57.8 150.92 57.4134 151C57.0267 151.067 56.56 151.1 56.0134 151.1C55.12 151.1 54.4534 150.967 54.0134 150.7C53.5867 150.42 53.3067 150.033 53.1734 149.54C53.04 149.047 52.9734 148.473 52.9734 147.82V144.96C52.9734 144.76 52.9867 144.593 53.0134 144.46C53.0534 144.313 53.1334 144.207 53.2534 144.14C53.3734 144.06 53.5667 144.02 53.8334 144.02H55.4534C55.4534 144.367 55.4534 144.68 55.4534 144.96C55.4534 145.227 55.4534 145.487 55.4534 145.74C55.4534 145.98 55.4534 146.24 55.4534 146.52C55.4534 146.787 55.4534 147.093 55.4534 147.44C55.4534 148.2 55.52 148.76 55.6534 149.12C55.8 149.467 56 149.687 56.2534 149.78C56.52 149.873 56.8334 149.92 57.1934 149.92C57.5534 149.92 57.86 149.867 58.1134 149.76C58.3667 149.64 58.56 149.413 58.6934 149.08C58.84 148.747 58.9134 148.24 58.9134 147.56V144.02H60.5734C60.8534 144.02 61.06 144.067 61.1934 144.16C61.3267 144.24 61.3934 144.453 61.3934 144.8V150.7C61.3934 151.9 61.0534 152.787 60.3734 153.36C59.7067 153.933 58.6067 154.22 57.0734 154.22ZM66.5738 152.08C66.2805 152.08 65.9538 152.073 65.5938 152.06C65.2472 152.047 64.8938 152.02 64.5338 151.98C64.1872 151.94 63.8738 151.873 63.5938 151.78C63.3805 151.727 63.2072 151.667 63.0738 151.6C62.9538 151.52 62.8605 151.38 62.7938 151.18C62.7405 150.967 62.7138 150.64 62.7138 150.2C63.0872 150.347 63.4872 150.467 63.9138 150.56C64.3405 150.64 64.7605 150.7 65.1738 150.74C65.5872 150.767 65.9605 150.78 66.2938 150.78C66.5872 150.78 66.9005 150.773 67.2338 150.76C67.5672 150.733 67.8738 150.687 68.1538 150.62C68.4472 150.54 68.6805 150.413 68.8538 150.24C69.0405 150.067 69.1338 149.833 69.1338 149.54C69.1338 149.153 69.0338 148.9 68.8338 148.78C68.6338 148.66 68.3605 148.6 68.0138 148.6H65.8338C65.2605 148.6 64.7405 148.573 64.2738 148.52C63.8205 148.453 63.4538 148.273 63.1738 147.98C62.9072 147.687 62.7738 147.193 62.7738 146.5C62.7738 145.74 62.9605 145.18 63.3338 144.82C63.7205 144.447 64.2605 144.2 64.9538 144.08C65.6472 143.96 66.4805 143.9 67.4538 143.9C67.8005 143.9 68.2072 143.907 68.6738 143.92C69.1538 143.933 69.5805 143.973 69.9538 144.04C70.3272 144.08 70.6205 144.14 70.8338 144.22C71.0472 144.287 71.2005 144.4 71.2938 144.56C71.4005 144.72 71.4538 144.953 71.4538 145.26V145.76C71.3605 145.627 71.1538 145.527 70.8338 145.46C70.5272 145.38 70.1605 145.327 69.7338 145.3C69.3072 145.26 68.8605 145.24 68.3938 145.24C67.9405 145.227 67.5205 145.22 67.1338 145.22C66.7872 145.22 66.4605 145.247 66.1538 145.3C65.8605 145.34 65.6205 145.44 65.4338 145.6C65.2605 145.747 65.1738 146 65.1738 146.36C65.1738 146.627 65.2272 146.827 65.3338 146.96C65.4538 147.08 65.6138 147.16 65.8138 147.2C66.0138 147.227 66.2405 147.24 66.4938 147.24H68.8738C69.4072 147.24 69.8805 147.287 70.2938 147.38C70.7072 147.473 71.0272 147.68 71.2538 148C71.4805 148.307 71.5938 148.8 71.5938 149.48C71.5938 150.253 71.3805 150.827 70.9538 151.2C70.5272 151.56 69.9338 151.8 69.1738 151.92C68.4138 152.027 67.5472 152.08 66.5738 152.08ZM75.7971 152.08C75.1704 152.08 74.6771 152.013 74.3171 151.88C73.9704 151.733 73.7238 151.5 73.5771 151.18C73.4304 150.847 73.3571 150.393 73.3571 149.82V145.3H72.5371V144.02H73.3571V142.84C73.3571 142.56 73.3771 142.353 73.4171 142.22C73.4571 142.087 73.5371 142 73.6571 141.96C73.7904 141.92 73.9838 141.9 74.2371 141.9H75.7971C75.7971 141.94 75.7904 142.007 75.7771 142.1C75.7771 142.18 75.7771 142.287 75.7771 142.42V144.02H77.6971V145.3H75.7971V149.6C75.7971 150.12 75.8438 150.5 75.9371 150.74C76.0438 150.967 76.3104 151.08 76.7371 151.08C76.8704 151.08 77.0238 151.067 77.1971 151.04C77.3838 151.013 77.5104 150.987 77.5771 150.96V151.9C77.4971 151.913 77.2971 151.947 76.9771 152C76.6571 152.053 76.2638 152.08 75.7971 152.08ZM83.1941 152.12C82.3141 152.12 81.5875 152.067 81.0141 151.96C80.4408 151.84 79.9875 151.64 79.6541 151.36C79.3208 151.08 79.0808 150.68 78.9341 150.16C78.7875 149.64 78.7141 148.973 78.7141 148.16C78.7141 147.147 78.8475 146.333 79.1141 145.72C79.3941 145.107 79.8741 144.66 80.5541 144.38C81.2475 144.1 82.2075 143.96 83.4341 143.96C84.3941 143.96 85.1608 144.067 85.7341 144.28C86.3075 144.493 86.7208 144.833 86.9741 145.3C87.2275 145.753 87.3541 146.34 87.3541 147.06V148.46H81.7541C81.7541 148.22 81.8075 148.02 81.9141 147.86C82.0341 147.687 82.2408 147.6 82.5341 147.6H85.1741V147.12C85.1608 146.48 85.0208 146.007 84.7541 145.7C84.5008 145.393 84.0341 145.24 83.3541 145.24C82.7808 145.24 82.3341 145.327 82.0141 145.5C81.7075 145.673 81.4875 145.967 81.3541 146.38C81.2341 146.793 81.1741 147.373 81.1741 148.12C81.1741 148.84 81.2475 149.387 81.3941 149.76C81.5408 150.133 81.7941 150.387 82.1541 150.52C82.5275 150.64 83.0408 150.7 83.6941 150.7C83.9341 150.7 84.2341 150.693 84.5941 150.68C84.9675 150.667 85.3408 150.653 85.7141 150.64C86.1008 150.613 86.4408 150.587 86.7341 150.56C87.0275 150.52 87.2141 150.487 87.2941 150.46V150.78C87.2941 150.94 87.2608 151.113 87.1941 151.3C87.1408 151.473 87.0141 151.613 86.8141 151.72C86.5608 151.88 86.1341 151.987 85.5341 152.04C84.9475 152.093 84.1675 152.12 83.1941 152.12ZM89.8555 152C89.4822 152 89.2355 151.947 89.1155 151.84C88.9955 151.72 88.9355 151.467 88.9355 151.08V144.56C89.1089 144.493 89.3355 144.433 89.6155 144.38C89.8955 144.313 90.2089 144.253 90.5555 144.2C90.9022 144.133 91.2689 144.08 91.6555 144.04C92.0555 144 92.4489 143.98 92.8355 143.98C93.3422 143.98 93.7755 144.02 94.1355 144.1C94.5089 144.18 94.8222 144.327 95.0755 144.54C95.3422 144.74 95.5689 145.04 95.7555 145.44H95.3755C95.4955 145.133 95.6622 144.887 95.8755 144.7C96.0889 144.5 96.3422 144.353 96.6355 144.26C96.9289 144.153 97.2222 144.08 97.5155 144.04C97.8089 144 98.0755 143.98 98.3155 143.98C99.1822 143.98 99.8622 144.06 100.356 144.22C100.849 144.367 101.202 144.633 101.416 145.02C101.642 145.393 101.756 145.92 101.756 146.6V151.16C101.756 151.52 101.689 151.753 101.556 151.86C101.436 151.953 101.196 152 100.836 152H99.3155C99.3155 151.08 99.3155 150.167 99.3155 149.26C99.3155 148.353 99.3155 147.44 99.3155 146.52C99.3155 145.973 99.2022 145.613 98.9755 145.44C98.7489 145.253 98.4089 145.16 97.9555 145.16C97.7422 145.16 97.5289 145.193 97.3155 145.26C97.1022 145.313 96.9222 145.393 96.7755 145.5C96.6422 145.607 96.5755 145.733 96.5755 145.88V152H94.1355V146.2C94.1355 145.867 94.0089 145.62 93.7555 145.46C93.5022 145.287 93.1689 145.2 92.7555 145.2C92.5022 145.2 92.2755 145.22 92.0755 145.26C91.8755 145.287 91.7089 145.34 91.5755 145.42C91.4555 145.487 91.3889 145.58 91.3755 145.7V152H89.8555Z" fill="#1C274C"/>
<path d="M14.7304 166.88C14.9544 167.029 15.2424 167.141 15.5944 167.216C15.9571 167.28 16.3304 167.323 16.7144 167.344C17.1091 167.355 17.4504 167.36 17.7384 167.36C17.8451 167.36 17.9678 167.36 18.1064 167.36C18.2451 167.36 18.3678 167.355 18.4744 167.344C18.9011 167.333 19.2744 167.285 19.5944 167.2C19.9144 167.104 20.1651 166.949 20.3464 166.736C20.5278 166.512 20.6184 166.197 20.6184 165.792C20.6184 165.301 20.4904 164.981 20.2344 164.832C19.9784 164.683 19.6051 164.608 19.1144 164.608C18.9544 164.608 18.7838 164.608 18.6024 164.608C18.4211 164.608 18.2291 164.608 18.0264 164.608C17.8238 164.608 17.5891 164.608 17.3224 164.608C17.0238 164.608 16.7198 164.597 16.4104 164.576C16.1011 164.544 15.8184 164.475 15.5624 164.368C15.3064 164.251 15.1038 164.075 14.9544 163.84C14.8051 163.595 14.7304 163.248 14.7304 162.8C14.7304 162.277 14.8211 161.867 15.0024 161.568C15.1944 161.269 15.4611 161.051 15.8024 160.912C16.1438 160.773 16.5331 160.683 16.9704 160.64C17.4184 160.597 17.8931 160.576 18.3944 160.576C18.6931 160.576 19.0291 160.581 19.4024 160.592C19.7864 160.603 20.1438 160.629 20.4744 160.672C20.8158 160.715 21.0824 160.789 21.2744 160.896C21.4451 160.917 21.5731 160.971 21.6584 161.056C21.7544 161.141 21.8024 161.248 21.8024 161.376C21.8024 161.419 21.8024 161.472 21.8024 161.536C21.8024 161.589 21.8024 161.643 21.8024 161.696C21.8024 161.749 21.8024 161.787 21.8024 161.808C21.7064 161.701 21.5464 161.616 21.3224 161.552C21.0984 161.488 20.8424 161.44 20.5544 161.408C20.2771 161.365 20.0051 161.339 19.7384 161.328C19.4718 161.307 19.2531 161.296 19.0824 161.296H18.1384C17.7544 161.296 17.3971 161.328 17.0664 161.392C16.7358 161.456 16.4691 161.589 16.2664 161.792C16.0744 161.984 15.9784 162.293 15.9784 162.72C15.9784 163.051 16.0424 163.296 16.1704 163.456C16.3091 163.616 16.5011 163.723 16.7464 163.776C16.9918 163.819 17.2851 163.84 17.6264 163.84C18.0424 163.84 18.4104 163.84 18.7304 163.84C19.0504 163.84 19.3118 163.84 19.5144 163.84C19.9838 163.84 20.3998 163.883 20.7624 163.968C21.1251 164.043 21.4078 164.219 21.6104 164.496C21.8131 164.763 21.9144 165.184 21.9144 165.76C21.9144 166.325 21.7864 166.773 21.5304 167.104C21.2851 167.435 20.9438 167.669 20.5064 167.808C20.0798 167.947 19.5891 168.032 19.0344 168.064C18.7678 168.075 18.5118 168.08 18.2664 168.08C18.0211 168.091 17.7651 168.091 17.4984 168.08C17.2531 168.08 16.9704 168.069 16.6504 168.048C16.3304 168.027 16.0211 167.995 15.7224 167.952C15.4344 167.899 15.1944 167.824 15.0024 167.728C14.8211 167.621 14.7304 167.483 14.7304 167.312V166.88ZM24.0881 168C23.8747 168 23.7414 167.968 23.6881 167.904C23.6454 167.84 23.6241 167.707 23.6241 167.504V159.936H24.7441V161.84C24.8614 161.787 25.0321 161.749 25.2561 161.728C25.4907 161.696 25.7307 161.669 25.9761 161.648C26.2321 161.627 26.4667 161.616 26.6801 161.616C27.3201 161.616 27.8321 161.68 28.2161 161.808C28.6001 161.925 28.8827 162.101 29.0641 162.336C29.2454 162.56 29.3627 162.843 29.4161 163.184C29.4801 163.515 29.5121 163.893 29.5121 164.32V167.376C29.5121 167.557 29.4961 167.696 29.4641 167.792C29.4427 167.877 29.3947 167.936 29.3201 167.968C29.2454 167.989 29.1334 168 28.9841 168H28.4241V164.064C28.4241 163.552 28.3494 163.163 28.2001 162.896C28.0614 162.629 27.8481 162.448 27.5601 162.352C27.2721 162.256 26.9201 162.208 26.5041 162.208C26.3441 162.208 26.1467 162.219 25.9121 162.24C25.6881 162.251 25.4641 162.272 25.2401 162.304C25.0267 162.336 24.8614 162.379 24.7441 162.432V168H24.0881ZM34.0784 168.112C33.4491 168.112 32.9371 168.08 32.5424 168.016C32.1478 167.952 31.8438 167.845 31.6304 167.696C31.4278 167.536 31.2838 167.328 31.1984 167.072C31.1238 166.816 31.0864 166.501 31.0864 166.128C31.0864 165.584 31.1504 165.168 31.2784 164.88C31.4064 164.592 31.6304 164.395 31.9504 164.288C32.2704 164.181 32.6971 164.128 33.2304 164.128C33.4971 164.128 33.7851 164.139 34.0944 164.16C34.4144 164.171 34.7184 164.187 35.0064 164.208C35.3051 164.219 35.5611 164.235 35.7744 164.256C35.9984 164.277 36.1478 164.304 36.2224 164.336C36.2224 163.845 36.1798 163.456 36.0944 163.168C36.0091 162.88 35.8758 162.667 35.6944 162.528C35.5238 162.389 35.3051 162.299 35.0384 162.256C34.7824 162.213 34.4838 162.192 34.1424 162.192C33.7904 162.192 33.4331 162.208 33.0704 162.24C32.7184 162.261 32.3931 162.304 32.0944 162.368C31.7958 162.421 31.5664 162.496 31.4064 162.592V162.352C31.4064 162.128 31.4704 161.973 31.5984 161.888C31.7371 161.792 31.8918 161.728 32.0624 161.696C32.2651 161.643 32.5584 161.6 32.9424 161.568C33.3371 161.536 33.7478 161.525 34.1744 161.536C34.7184 161.536 35.1824 161.563 35.5664 161.616C35.9611 161.669 36.2864 161.787 36.5424 161.968C36.7984 162.139 36.9904 162.4 37.1184 162.752C37.2464 163.104 37.3104 163.584 37.3104 164.192V167.488C37.2464 167.701 36.9638 167.861 36.4624 167.968C35.9611 168.064 35.1664 168.112 34.0784 168.112ZM34.0784 167.568C34.5691 167.568 34.9584 167.552 35.2464 167.52C35.5451 167.488 35.7691 167.445 35.9184 167.392C36.0784 167.339 36.1798 167.269 36.2224 167.184V164.8C36.1264 164.768 35.9451 164.736 35.6784 164.704C35.4224 164.672 35.1504 164.645 34.8624 164.624C34.5744 164.592 34.3291 164.576 34.1264 164.576C33.6678 164.576 33.2944 164.603 33.0064 164.656C32.7291 164.709 32.5264 164.843 32.3984 165.056C32.2811 165.269 32.2224 165.6 32.2224 166.048C32.2224 166.4 32.2651 166.688 32.3504 166.912C32.4358 167.136 32.6064 167.301 32.8624 167.408C33.1291 167.515 33.5344 167.568 34.0784 167.568ZM40.2128 168H39.5088C39.3701 168 39.2635 167.968 39.1888 167.904C39.1248 167.829 39.0928 167.696 39.0928 167.504V161.936C39.3275 161.861 39.6475 161.781 40.0528 161.696C40.4688 161.611 40.9808 161.568 41.5888 161.568C42.1648 161.568 42.6181 161.611 42.9488 161.696C43.2901 161.771 43.5355 161.877 43.6848 162.016C43.8448 162.155 43.9461 162.325 43.9888 162.528C44.0421 162.72 44.0688 162.939 44.0688 163.184H42.9968L42.9808 162.96C42.9701 162.715 42.8901 162.539 42.7408 162.432C42.5915 162.315 42.4155 162.245 42.2128 162.224C42.0101 162.192 41.8075 162.176 41.6048 162.176C41.2955 162.176 41.0181 162.203 40.7728 162.256C40.5381 162.309 40.3515 162.379 40.2128 162.464V168ZM48.3668 168.096C47.7481 168.096 47.2255 168.053 46.7988 167.968C46.3828 167.883 46.0468 167.723 45.7908 167.488C45.5455 167.253 45.3641 166.928 45.2468 166.512C45.1401 166.085 45.0868 165.536 45.0868 164.864C45.0868 164.096 45.1828 163.467 45.3748 162.976C45.5668 162.485 45.9081 162.123 46.3988 161.888C46.8895 161.653 47.5775 161.536 48.4628 161.536C49.1455 161.536 49.6895 161.627 50.0948 161.808C50.5108 161.989 50.8095 162.267 50.9908 162.64C51.1828 163.013 51.2788 163.499 51.2788 164.096V165.008H46.7668C46.7668 164.88 46.7988 164.773 46.8628 164.688C46.9268 164.592 47.0441 164.544 47.2148 164.544H50.2708L50.2548 164.08C50.2441 163.419 50.1001 162.939 49.8228 162.64C49.5561 162.341 49.0868 162.192 48.4148 162.192C47.8495 162.192 47.4068 162.277 47.0868 162.448C46.7668 162.619 46.5428 162.896 46.4148 163.28C46.2868 163.664 46.2228 164.187 46.2228 164.848C46.2228 165.552 46.2921 166.091 46.4308 166.464C46.5801 166.827 46.8255 167.077 47.1668 167.216C47.5081 167.344 47.9721 167.408 48.5588 167.408C48.7615 167.408 48.9908 167.403 49.2468 167.392C49.5135 167.371 49.7801 167.349 50.0468 167.328C50.3135 167.307 50.5481 167.28 50.7508 167.248C50.9641 167.205 51.1135 167.163 51.1988 167.12V167.312C51.1988 167.419 51.1668 167.52 51.1028 167.616C51.0495 167.712 50.9321 167.792 50.7508 167.856C50.5161 167.952 50.1961 168.016 49.7908 168.048C49.3961 168.08 48.9215 168.096 48.3668 168.096ZM56.7617 166.88C56.9857 167.029 57.2737 167.141 57.6257 167.216C57.9884 167.28 58.3617 167.323 58.7457 167.344C59.1404 167.355 59.4817 167.36 59.7697 167.36C59.8764 167.36 59.999 167.36 60.1377 167.36C60.2764 167.36 60.399 167.355 60.5057 167.344C60.9324 167.333 61.3057 167.285 61.6257 167.2C61.9457 167.104 62.1964 166.949 62.3777 166.736C62.559 166.512 62.6497 166.197 62.6497 165.792C62.6497 165.301 62.5217 164.981 62.2657 164.832C62.0097 164.683 61.6364 164.608 61.1457 164.608C60.9857 164.608 60.815 164.608 60.6337 164.608C60.4524 164.608 60.2604 164.608 60.0577 164.608C59.855 164.608 59.6204 164.608 59.3537 164.608C59.055 164.608 58.751 164.597 58.4417 164.576C58.1324 164.544 57.8497 164.475 57.5937 164.368C57.3377 164.251 57.135 164.075 56.9857 163.84C56.8364 163.595 56.7617 163.248 56.7617 162.8C56.7617 162.277 56.8524 161.867 57.0337 161.568C57.2257 161.269 57.4924 161.051 57.8337 160.912C58.175 160.773 58.5644 160.683 59.0017 160.64C59.4497 160.597 59.9244 160.576 60.4257 160.576C60.7244 160.576 61.0604 160.581 61.4337 160.592C61.8177 160.603 62.175 160.629 62.5057 160.672C62.847 160.715 63.1137 160.789 63.3057 160.896C63.4764 160.917 63.6044 160.971 63.6897 161.056C63.7857 161.141 63.8337 161.248 63.8337 161.376C63.8337 161.419 63.8337 161.472 63.8337 161.536C63.8337 161.589 63.8337 161.643 63.8337 161.696C63.8337 161.749 63.8337 161.787 63.8337 161.808C63.7377 161.701 63.5777 161.616 63.3537 161.552C63.1297 161.488 62.8737 161.44 62.5857 161.408C62.3084 161.365 62.0364 161.339 61.7697 161.328C61.503 161.307 61.2844 161.296 61.1137 161.296H60.1697C59.7857 161.296 59.4284 161.328 59.0977 161.392C58.767 161.456 58.5004 161.589 58.2977 161.792C58.1057 161.984 58.0097 162.293 58.0097 162.72C58.0097 163.051 58.0737 163.296 58.2017 163.456C58.3404 163.616 58.5324 163.723 58.7777 163.776C59.023 163.819 59.3164 163.84 59.6577 163.84C60.0737 163.84 60.4417 163.84 60.7617 163.84C61.0817 163.84 61.343 163.84 61.5457 163.84C62.015 163.84 62.431 163.883 62.7937 163.968C63.1564 164.043 63.439 164.219 63.6417 164.496C63.8444 164.763 63.9457 165.184 63.9457 165.76C63.9457 166.325 63.8177 166.773 63.5617 167.104C63.3164 167.435 62.975 167.669 62.5377 167.808C62.111 167.947 61.6204 168.032 61.0657 168.064C60.799 168.075 60.543 168.08 60.2977 168.08C60.0524 168.091 59.7964 168.091 59.5297 168.08C59.2844 168.08 59.0017 168.069 58.6817 168.048C58.3617 168.027 58.0524 167.995 57.7537 167.952C57.4657 167.899 57.2257 167.824 57.0337 167.728C56.8524 167.621 56.7617 167.483 56.7617 167.312V166.88ZM68.3753 169.776C67.8953 169.776 67.442 169.749 67.0153 169.696C66.5886 169.653 66.242 169.584 65.9753 169.488C65.7086 169.392 65.5753 169.285 65.5753 169.168V168.768C65.746 168.864 65.97 168.944 66.2473 169.008C66.5353 169.072 66.8393 169.12 67.1593 169.152C67.4793 169.195 67.7886 169.216 68.0873 169.216C68.5993 169.216 69.0153 169.147 69.3353 169.008C69.666 168.869 69.9113 168.645 70.0713 168.336C70.242 168.027 70.3273 167.637 70.3273 167.168V166.304C70.2313 166.517 70.0766 166.699 69.8633 166.848C69.65 166.997 69.3833 167.104 69.0633 167.168C68.754 167.232 68.3913 167.264 67.9753 167.264C67.218 167.264 66.658 167.157 66.2953 166.944C65.9433 166.731 65.714 166.427 65.6073 166.032C65.5113 165.637 65.4633 165.179 65.4633 164.656V162.24C65.4633 162.08 65.4686 161.957 65.4793 161.872C65.5006 161.776 65.538 161.712 65.5913 161.68C65.6553 161.637 65.7566 161.616 65.8953 161.616H66.5993C66.5993 161.893 66.5993 162.16 66.5993 162.416C66.5993 162.661 66.5993 162.907 66.5993 163.152C66.5993 163.387 66.5993 163.627 66.5993 163.872C66.5993 164.117 66.5993 164.379 66.5993 164.656C66.5993 165.264 66.6793 165.712 66.8393 166C67.01 166.288 67.234 166.469 67.5113 166.544C67.7993 166.619 68.114 166.656 68.4553 166.656C68.7966 166.656 69.106 166.613 69.3833 166.528C69.6606 166.432 69.8846 166.251 70.0553 165.984C70.226 165.717 70.3113 165.317 70.3113 164.784V161.616H70.9993C71.1593 161.616 71.2713 161.643 71.3353 161.696C71.41 161.739 71.4473 161.872 71.4473 162.096V167.04C71.4473 167.989 71.1966 168.683 70.6953 169.12C70.2046 169.557 69.4313 169.776 68.3753 169.776ZM75.4266 168.064C75.2452 168.064 75.0159 168.059 74.7386 168.048C74.4719 168.037 74.1946 168.016 73.9066 167.984C73.6292 167.941 73.3786 167.883 73.1546 167.808C73.0479 167.765 72.9626 167.723 72.8986 167.68C72.8346 167.637 72.7866 167.563 72.7546 167.456C72.7332 167.349 72.7226 167.189 72.7226 166.976C72.9572 167.093 73.2346 167.189 73.5546 167.264C73.8746 167.328 74.1946 167.371 74.5146 167.392C74.8346 167.413 75.1012 167.424 75.3146 167.424C75.6346 167.424 75.9439 167.413 76.2426 167.392C76.5519 167.36 76.8292 167.301 77.0746 167.216C77.3199 167.12 77.5119 166.981 77.6506 166.8C77.7999 166.619 77.8746 166.379 77.8746 166.08C77.8746 165.643 77.7626 165.365 77.5386 165.248C77.3146 165.12 77.0106 165.056 76.6266 165.056H75.0106C74.6159 165.056 74.2426 165.035 73.8906 164.992C73.5492 164.939 73.2666 164.805 73.0426 164.592C72.8292 164.368 72.7226 163.995 72.7226 163.472C72.7226 162.907 72.8612 162.485 73.1386 162.208C73.4159 161.931 73.8052 161.749 74.3066 161.664C74.8186 161.579 75.4106 161.536 76.0826 161.536C76.3279 161.536 76.6212 161.541 76.9626 161.552C77.3039 161.563 77.6292 161.595 77.9386 161.648C78.1519 161.68 78.3279 161.723 78.4666 161.776C78.6159 161.819 78.7226 161.883 78.7866 161.968C78.8612 162.053 78.8986 162.176 78.8986 162.336V162.656C78.8026 162.549 78.6426 162.464 78.4186 162.4C78.1946 162.336 77.9332 162.288 77.6346 162.256C77.3466 162.224 77.0479 162.208 76.7386 162.208C76.4292 162.197 76.1412 162.192 75.8746 162.192C75.5332 162.192 75.2026 162.213 74.8826 162.256C74.5626 162.299 74.3012 162.405 74.0986 162.576C73.9066 162.736 73.8106 163.013 73.8106 163.408C73.8106 163.707 73.8746 163.925 74.0026 164.064C74.1306 164.203 74.3012 164.293 74.5146 164.336C74.7386 164.368 74.9892 164.384 75.2666 164.384H76.9146C77.3199 164.384 77.6772 164.421 77.9866 164.496C78.3066 164.56 78.5519 164.715 78.7226 164.96C78.9039 165.195 78.9946 165.568 78.9946 166.08C78.9946 166.645 78.8399 167.072 78.5306 167.36C78.2212 167.648 77.7946 167.84 77.2506 167.936C76.7172 168.021 76.1092 168.064 75.4266 168.064ZM81.9897 168.048C81.627 168.048 81.3444 168.005 81.1417 167.92C80.939 167.824 80.7897 167.664 80.6937 167.44C80.5977 167.216 80.5497 166.912 80.5497 166.528V162.24H79.9417V161.616H80.5497V160.464C80.5497 160.304 80.5604 160.187 80.5817 160.112C80.6137 160.027 80.6617 159.973 80.7257 159.952C80.7897 159.931 80.8804 159.92 80.9977 159.92H81.6857C81.6857 159.941 81.6804 159.989 81.6697 160.064C81.6697 160.128 81.6697 160.224 81.6697 160.352V161.616H83.1577V162.24H81.6697V166.4C81.6697 166.816 81.7124 167.109 81.7977 167.28C81.883 167.451 82.075 167.536 82.3737 167.536C82.491 167.536 82.6137 167.525 82.7417 167.504C82.8697 167.483 82.9604 167.461 83.0137 167.44V167.936C82.9497 167.947 82.827 167.968 82.6457 168C82.4644 168.032 82.2457 168.048 81.9897 168.048ZM87.3199 168.096C86.7013 168.096 86.1786 168.053 85.7519 167.968C85.3359 167.883 84.9999 167.723 84.7439 167.488C84.4986 167.253 84.3173 166.928 84.1999 166.512C84.0933 166.085 84.0399 165.536 84.0399 164.864C84.0399 164.096 84.1359 163.467 84.3279 162.976C84.5199 162.485 84.8613 162.123 85.3519 161.888C85.8426 161.653 86.5306 161.536 87.4159 161.536C88.0986 161.536 88.6426 161.627 89.0479 161.808C89.4639 161.989 89.7626 162.267 89.9439 162.64C90.1359 163.013 90.2319 163.499 90.2319 164.096V165.008H85.7199C85.7199 164.88 85.7519 164.773 85.8159 164.688C85.8799 164.592 85.9973 164.544 86.1679 164.544H89.2239L89.2079 164.08C89.1973 163.419 89.0533 162.939 88.7759 162.64C88.5093 162.341 88.0399 162.192 87.3679 162.192C86.8026 162.192 86.3599 162.277 86.0399 162.448C85.7199 162.619 85.4959 162.896 85.3679 163.28C85.2399 163.664 85.1759 164.187 85.1759 164.848C85.1759 165.552 85.2453 166.091 85.3839 166.464C85.5333 166.827 85.7786 167.077 86.1199 167.216C86.4613 167.344 86.9253 167.408 87.5119 167.408C87.7146 167.408 87.9439 167.403 88.1999 167.392C88.4666 167.371 88.7333 167.349 88.9999 167.328C89.2666 167.307 89.5013 167.28 89.7039 167.248C89.9173 167.205 90.0666 167.163 90.1519 167.12V167.312C90.1519 167.419 90.1199 167.52 90.0559 167.616C90.0026 167.712 89.8853 167.792 89.7039 167.856C89.4693 167.952 89.1493 168.016 88.7439 168.048C88.3493 168.08 87.8746 168.096 87.3199 168.096ZM92.2134 168C92.0214 168 91.8934 167.973 91.8294 167.92C91.7654 167.856 91.7334 167.728 91.7334 167.536V162.08C91.8188 162.048 91.9414 162.005 92.1014 161.952C92.2614 161.899 92.4534 161.845 92.6774 161.792C92.9014 161.728 93.1574 161.68 93.4454 161.648C93.7441 161.605 94.0694 161.584 94.4214 161.584C94.7841 161.584 95.0988 161.616 95.3654 161.68C95.6321 161.733 95.8614 161.835 96.0534 161.984C96.2454 162.123 96.4054 162.315 96.5334 162.56H96.3094C96.3948 162.379 96.5174 162.224 96.6774 162.096C96.8374 161.957 97.0241 161.851 97.2374 161.776C97.4508 161.701 97.6694 161.648 97.8934 161.616C98.1281 161.584 98.3521 161.568 98.5654 161.568C99.1628 161.568 99.6321 161.627 99.9734 161.744C100.315 161.861 100.555 162.059 100.693 162.336C100.843 162.613 100.917 162.981 100.917 163.44V167.568C100.917 167.739 100.885 167.856 100.821 167.92C100.757 167.973 100.64 168 100.469 168H99.7974C99.7974 167.232 99.7974 166.469 99.7974 165.712C99.7974 164.944 99.7974 164.176 99.7974 163.408C99.7974 162.939 99.6801 162.619 99.4454 162.448C99.2214 162.267 98.8854 162.176 98.4374 162.176C98.2241 162.176 97.9948 162.203 97.7494 162.256C97.5148 162.309 97.3121 162.389 97.1414 162.496C96.9708 162.603 96.8854 162.725 96.8854 162.864V168H95.7654V162.992C95.7654 162.768 95.6321 162.581 95.3654 162.432C95.1094 162.272 94.7788 162.192 94.3734 162.192C94.1281 162.192 93.8934 162.213 93.6694 162.256C93.4454 162.288 93.2588 162.341 93.1094 162.416C92.9601 162.48 92.8748 162.571 92.8534 162.688V168H92.2134ZM108.138 168.064C107.637 168.064 107.301 167.931 107.13 167.664C106.96 167.397 106.874 167.008 106.874 166.496V161.616H107.994V166.432C107.994 166.869 108.042 167.163 108.138 167.312C108.234 167.461 108.405 167.536 108.65 167.536C108.736 167.536 108.842 167.525 108.97 167.504C109.098 167.483 109.178 167.467 109.21 167.456V167.952C109.178 167.963 109.114 167.979 109.018 168C108.933 168.011 108.816 168.021 108.666 168.032C108.528 168.053 108.352 168.064 108.138 168.064ZM107.45 160.688C107.269 160.688 107.125 160.661 107.018 160.608C106.912 160.555 106.858 160.443 106.858 160.272C106.858 160.101 106.906 159.989 107.002 159.936C107.109 159.883 107.253 159.856 107.434 159.856C107.637 159.856 107.786 159.883 107.882 159.936C107.978 159.989 108.021 160.101 108.01 160.272C108.01 160.443 107.962 160.555 107.866 160.608C107.77 160.661 107.632 160.688 107.45 160.688ZM110.664 168C110.419 168 110.296 167.872 110.296 167.616V162.08C110.605 161.941 111.011 161.819 111.512 161.712C112.024 161.605 112.611 161.552 113.272 161.552C113.891 161.552 114.392 161.595 114.776 161.68C115.16 161.765 115.453 161.893 115.656 162.064C115.859 162.235 115.992 162.459 116.056 162.736C116.131 163.003 116.168 163.328 116.168 163.712V167.52C116.168 167.637 116.152 167.733 116.12 167.808C116.099 167.883 116.051 167.936 115.976 167.968C115.912 167.989 115.811 168 115.672 168H115.048V163.488C115.048 163.061 114.909 162.747 114.632 162.544C114.355 162.341 113.901 162.24 113.272 162.24C113.069 162.24 112.845 162.256 112.6 162.288C112.365 162.32 112.141 162.368 111.928 162.432C111.715 162.485 111.539 162.56 111.4 162.656V168H110.664ZM117.647 162.368H118.175V161.424C118.175 160.923 118.271 160.544 118.463 160.288C118.655 160.032 119.028 159.904 119.583 159.904C119.839 159.904 120.079 159.915 120.303 159.936C120.538 159.947 120.746 159.963 120.927 159.984C121.119 160.005 121.284 160.021 121.423 160.032V160.688C121.348 160.656 121.242 160.635 121.103 160.624C120.964 160.603 120.81 160.587 120.639 160.576C120.479 160.565 120.314 160.56 120.143 160.56C119.791 160.56 119.556 160.635 119.439 160.784C119.332 160.923 119.279 161.173 119.279 161.536V162.368H121.103V162.992H119.279V168H118.575C118.415 168 118.308 167.968 118.255 167.904C118.202 167.84 118.175 167.728 118.175 167.568V162.992H117.647V162.368ZM125.224 168.096C124.734 168.096 124.291 168.059 123.896 167.984C123.512 167.909 123.176 167.76 122.888 167.536C122.611 167.312 122.398 166.981 122.248 166.544C122.099 166.107 122.024 165.531 122.024 164.816C122.024 164.101 122.099 163.525 122.248 163.088C122.398 162.651 122.611 162.32 122.888 162.096C123.176 161.872 123.512 161.723 123.896 161.648C124.291 161.573 124.734 161.536 125.224 161.536C125.704 161.536 126.136 161.573 126.52 161.648C126.915 161.723 127.251 161.872 127.528 162.096C127.806 162.32 128.019 162.651 128.168 163.088C128.318 163.525 128.392 164.101 128.392 164.816C128.392 165.541 128.318 166.123 128.168 166.56C128.019 166.997 127.806 167.328 127.528 167.552C127.251 167.765 126.915 167.909 126.52 167.984C126.136 168.059 125.704 168.096 125.224 168.096ZM125.224 167.472C125.651 167.472 126.014 167.408 126.312 167.28C126.622 167.152 126.856 166.901 127.016 166.528C127.176 166.155 127.256 165.584 127.256 164.816C127.256 164.048 127.176 163.477 127.016 163.104C126.856 162.731 126.622 162.48 126.312 162.352C126.014 162.224 125.651 162.16 125.224 162.16C124.798 162.16 124.43 162.224 124.12 162.352C123.822 162.48 123.587 162.731 123.416 163.104C123.256 163.477 123.176 164.048 123.176 164.816C123.176 165.584 123.256 166.155 123.416 166.528C123.587 166.901 123.822 167.152 124.12 167.28C124.43 167.408 124.798 167.472 125.224 167.472Z" fill="#1C274C"/>
<defs>
<linearGradient id="paint0_linear_277_92745" x1="98.5926" y1="16.419" x2="49.9108" y2="78.9853" gradientUnits="userSpaceOnUse">
<stop stop-color="#6D6AFE"/>
<stop offset="1" stop-color="#3FB0F7"/>
</linearGradient>
<linearGradient id="paint1_linear_277_92745" x1="65.5103" y1="9.06281" x2="88.8801" y2="118.421" gradientUnits="userSpaceOnUse">
<stop stop-color="#965CF2"/>
<stop offset="1" stop-color="#FF8ADC"/>
</linearGradient>
<linearGradient id="paint2_linear_277_92745" x1="40.1327" y1="67.718" x2="32.9707" y2="88.6559" gradientUnits="userSpaceOnUse">
<stop stop-color="#40457F"/>
<stop offset="1" stop-color="#1E2353"/>
</linearGradient>
<linearGradient id="paint3_linear_277_92745" x1="36.4126" y1="68.9675" x2="23.6459" y2="92.9946" gradientUnits="userSpaceOnUse">
<stop stop-color="#40457F"/>
<stop offset="1" stop-color="#1E2353"/>
</linearGradient>
<linearGradient id="paint4_linear_277_92745" x1="32.1858" y1="43.735" x2="36.953" y2="61.2782" gradientUnits="userSpaceOnUse">
<stop stop-color="#A77EF7"/>
<stop offset="1" stop-color="#5E65D6"/>
</linearGradient>
<linearGradient id="paint5_linear_277_92745" x1="29.956" y1="46.7506" x2="34.3735" y2="61.1015" gradientUnits="userSpaceOnUse">
<stop stop-color="#A77EF7"/>
<stop offset="1" stop-color="#5E65D6"/>
</linearGradient>
<linearGradient id="paint6_linear_277_92745" x1="28.0945" y1="65.2295" x2="28.4646" y2="63.7979" gradientUnits="userSpaceOnUse">
<stop stop-color="#FF8A78"/>
<stop offset="1" stop-color="#FFA799"/>
</linearGradient>
<linearGradient id="paint7_linear_277_92745" x1="22.265" y1="47.8037" x2="25.5817" y2="61.8866" gradientUnits="userSpaceOnUse">
<stop stop-color="#A77EF7"/>
<stop offset="1" stop-color="#5E65D6"/>
</linearGradient>
<linearGradient id="paint8_linear_277_92745" x1="32.2872" y1="37.3879" x2="31.4616" y2="38.9211" gradientUnits="userSpaceOnUse">
<stop stop-color="#FF8A78"/>
<stop offset="1" stop-color="#FFA799"/>
</linearGradient>
<linearGradient id="paint9_linear_277_92745" x1="34.0006" y1="32.9564" x2="34.1229" y2="36.8846" gradientUnits="userSpaceOnUse">
<stop stop-color="#FFB89E"/>
<stop offset="1" stop-color="#FFA799"/>
</linearGradient>
<linearGradient id="paint10_linear_277_92745" x1="33.6346" y1="30.141" x2="32.3105" y2="29.666" gradientUnits="userSpaceOnUse">
<stop stop-color="#8A4791"/>
<stop offset="1" stop-color="#562E65"/>
</linearGradient>
<linearGradient id="paint11_linear_277_92745" x1="40.1718" y1="43.691" x2="43.3936" y2="52.1449" gradientUnits="userSpaceOnUse">
<stop stop-color="#A77EF7"/>
<stop offset="1" stop-color="#5E65D6"/>
</linearGradient>
<linearGradient id="paint12_linear_277_92745" x1="39.7729" y1="43.4103" x2="42.7367" y2="52.5536" gradientUnits="userSpaceOnUse">
<stop stop-color="#A77EF7"/>
<stop offset="1" stop-color="#5E65D6"/>
</linearGradient>
<linearGradient id="paint13_linear_277_92745" x1="77.9876" y1="88.3056" x2="74.4128" y2="102.416" gradientUnits="userSpaceOnUse">
<stop stop-color="#A77EF7"/>
<stop offset="1" stop-color="#5E65D6"/>
</linearGradient>
<linearGradient id="paint14_linear_277_92745" x1="69.1126" y1="58.2685" x2="82.048" y2="53.7818" gradientUnits="userSpaceOnUse">
<stop stop-color="#FA5DB1"/>
<stop offset="1" stop-color="#FEBFBF"/>
</linearGradient>
<linearGradient id="paint15_linear_277_92745" x1="88.6884" y1="50.0914" x2="115.68" y2="31.0456" gradientUnits="userSpaceOnUse">
<stop stop-color="#6D6AFE"/>
<stop offset="1" stop-color="#3FB0F7"/>
</linearGradient>
<linearGradient id="paint16_linear_277_92745" x1="98.1564" y1="49.5505" x2="97.3642" y2="36.0003" gradientUnits="userSpaceOnUse">
<stop stop-color="#6D6AFE"/>
<stop offset="1" stop-color="#3FB0F7"/>
</linearGradient>
<linearGradient id="paint17_linear_277_92745" x1="86.1034" y1="51.6902" x2="86.233" y2="45.5453" gradientUnits="userSpaceOnUse">
<stop stop-color="#6D6AFE"/>
<stop offset="1" stop-color="#3FB0F7"/>
</linearGradient>
<linearGradient id="paint18_linear_277_92745" x1="57.7138" y1="67.9989" x2="76.1445" y2="49.5676" gradientUnits="userSpaceOnUse">
<stop stop-color="#6D6AFE"/>
<stop offset="1" stop-color="#3FB0F7"/>
</linearGradient>
<linearGradient id="paint19_linear_277_92745" x1="51.7654" y1="53.595" x2="59.6512" y2="71.1346" gradientUnits="userSpaceOnUse">
<stop stop-color="#1C8EF4"/>
<stop offset="1" stop-color="#00CFDD"/>
</linearGradient>
<linearGradient id="paint20_linear_277_92745" x1="40.2553" y1="14.8136" x2="33.046" y2="6.31404" gradientUnits="userSpaceOnUse">
<stop stop-color="#FA5DB1"/>
<stop offset="1" stop-color="#FEBFBF"/>
</linearGradient>
<linearGradient id="paint21_linear_277_92745" x1="41.2507" y1="19.6751" x2="27.0075" y2="9.09976" gradientUnits="userSpaceOnUse">
<stop stop-color="#FA5DB1"/>
<stop offset="1" stop-color="#FEBFBF"/>
</linearGradient>
<linearGradient id="paint22_linear_277_92745" x1="115.072" y1="29.1584" x2="112.834" y2="37.4552" gradientUnits="userSpaceOnUse">
<stop stop-color="#FA5DB1"/>
<stop offset="1" stop-color="#FEBFBF"/>
</linearGradient>
<linearGradient id="paint23_linear_277_92745" x1="6.26257" y1="26.4915" x2="8.35956" y2="21.6632" gradientUnits="userSpaceOnUse">
<stop stop-color="#965CF2"/>
<stop offset="1" stop-color="#FF8ADC"/>
</linearGradient>
<linearGradient id="paint24_linear_277_92745" x1="11.2781" y1="98.6107" x2="14.0583" y2="113.53" gradientUnits="userSpaceOnUse">
<stop stop-color="#FA79B6"/>
<stop offset="1" stop-color="#FFBFAB"/>
</linearGradient>
<linearGradient id="paint25_linear_277_92745" x1="133.255" y1="24.7761" x2="133.216" y2="38.0878" gradientUnits="userSpaceOnUse">
<stop stop-color="#6D6AFE"/>
<stop offset="1" stop-color="#3FB0F7"/>
</linearGradient>
<linearGradient id="paint26_linear_277_92745" x1="4.35106" y1="12.1855" x2="4.34156" y2="15.4771" gradientUnits="userSpaceOnUse">
<stop stop-color="#1C8EF4"/>
<stop offset="1" stop-color="#00CFDD"/>
</linearGradient>
<linearGradient id="paint27_linear_277_92745" x1="121.016" y1="1.32824" x2="121.003" y2="5.87112" gradientUnits="userSpaceOnUse">
<stop stop-color="#FA5DB1"/>
<stop offset="1" stop-color="#FEBFBF"/>
</linearGradient>
<linearGradient id="paint28_linear_277_92745" x1="108.924" y1="107.438" x2="121.005" y2="107.438" gradientUnits="userSpaceOnUse">
<stop stop-color="#A77EF7"/>
<stop offset="1" stop-color="#5E65D6"/>
</linearGradient>
<linearGradient id="paint29_linear_277_92745" x1="17.8832" y1="67.443" x2="20.6004" y2="70.7195" gradientUnits="userSpaceOnUse">
<stop stop-color="#1C8EF4"/>
<stop offset="1" stop-color="#00CFDD"/>
</linearGradient>
</defs>
</svg>
