<svg width="35" height="35" viewBox="0 0 35 35" fill="none" xmlns="http://www.w3.org/2000/svg">
<rect width="35" height="35" rx="7" fill="white"/>
<path d="M15.0563 8.9795L8.83399 14.5104C7.67077 15.5444 7.08916 16.0614 6.87482 16.6719C6.68659 17.208 6.68659 17.7922 6.87482 18.3283C7.08916 18.9387 7.67077 19.4557 8.83399 20.4897L15.0563 26.0206C15.5842 26.4899 15.8481 26.7245 16.0723 26.7329C16.267 26.7401 16.454 26.6562 16.578 26.5058C16.7206 26.3326 16.7206 25.9795 16.7206 25.2732V21.7858C19.7558 21.7858 22.9615 22.7606 25.3022 24.491C26.5208 25.3919 27.1302 25.8424 27.3623 25.8246C27.5885 25.8073 27.732 25.7189 27.8494 25.5248C27.9698 25.3256 27.8635 24.7032 27.6508 23.4585C26.2695 15.3758 20.7071 13.2144 16.7206 13.2144V9.72691C16.7206 9.02064 16.7206 8.66751 16.578 8.49438C16.454 8.34397 16.267 8.25999 16.0723 8.26728C15.8481 8.27567 15.5842 8.51028 15.0563 8.9795Z" fill="#1C274C"/>
</svg>
