<svg width="20" height="18" viewBox="0 0 20 18" fill="none" xmlns="http://www.w3.org/2000/svg">
<path d="M0.0900315 1.17527C-0.0481602 0.85894 0.0214371 0.490254 0.265439 0.246067C0.509441 0.0018797 0.878074 -0.0679976 1.19451 0.0699538L19.4906 7.91043C19.7996 8.04251 20 8.34613 20 8.68214C20 9.01815 19.7996 9.32177 19.4906 9.45385L1.1685 17.2834C0.853651 17.4177 0.488822 17.3473 0.246521 17.1055C0.00421959 16.8638 -0.0670026 16.4991 0.0665319 16.184L2.67835 10.0304C2.8042 9.73402 3.08855 9.53576 3.41019 9.52015L5.45046 9.42028C5.91398 9.42329 6.29217 9.04998 6.29519 8.58646C6.2982 8.12295 5.92489 7.74475 5.46137 7.74174L3.37662 7.61501C3.06149 7.59564 2.7839 7.40106 2.6582 7.11144L0.0900315 1.17527Z" fill="#4CD964"/>
</svg>
