<svg width="40" height="40" viewBox="0 0 40 40" fill="none" xmlns="http://www.w3.org/2000/svg">
<path d="M0 11.2C0 7.27963 0 5.31945 0.762954 3.82207C1.43407 2.50493 2.50493 1.43407 3.82207 0.762954C5.31945 0 7.27963 0 11.2 0H28.8C32.7204 0 34.6806 0 36.1779 0.762954C37.4951 1.43407 38.5659 2.50493 39.237 3.82207C40 5.31945 40 7.27963 40 11.2V28.8C40 32.7204 40 34.6806 39.237 36.1779C38.5659 37.4951 37.4951 38.5659 36.1779 39.237C34.6806 40 32.7204 40 28.8 40H11.2C7.27963 40 5.31945 40 3.82207 39.237C2.50493 38.5659 1.43407 37.4951 0.762954 36.1779C0 34.6806 0 32.7204 0 28.8V11.2Z" fill="white"/>
<path fill-rule="evenodd" clip-rule="evenodd" d="M14.4418 6.28312C17.628 4.43177 21.5445 4.46413 24.7008 6.36788C27.8261 8.31041 29.7256 11.7772 29.7079 15.5066C29.6352 19.2115 27.5984 22.6941 25.0524 25.3863C23.5829 26.9472 21.9391 28.3274 20.1544 29.4987C19.9706 29.605 19.7693 29.6761 19.5603 29.7087C19.3593 29.7001 19.1634 29.6407 18.9905 29.5358C16.2659 27.7757 13.8755 25.5291 11.9345 22.904C10.3103 20.7127 9.38751 18.0653 9.29151 15.3214C9.2894 11.5848 11.2555 8.13447 14.4418 6.28312ZM16.283 16.8676C16.819 18.189 18.0841 19.0509 19.4876 19.0509C20.4071 19.0575 21.2909 18.6892 21.9423 18.028C22.5936 17.3669 22.9582 16.4678 22.955 15.5312C22.9599 14.1016 22.1182 12.8099 20.8229 12.2593C19.5276 11.7087 18.0343 12.0078 17.0401 13.017C16.0459 14.0262 15.747 15.5463 16.283 16.8676Z" fill="#1BC469"/>
<path opacity="0.4" d="M19.4997 34.0837C23.5268 34.0837 26.7913 33.4307 26.7913 32.6253C26.7913 31.8199 23.5268 31.167 19.4997 31.167C15.4726 31.167 12.208 31.8199 12.208 32.6253C12.208 33.4307 15.4726 34.0837 19.4997 34.0837Z" fill="#1BC469"/>
</svg>
