<svg width="136" height="43" viewBox="0 0 136 43" fill="none" xmlns="http://www.w3.org/2000/svg">
<g opacity="0.5">
<rect width="136" height="43" rx="5" fill="white"/>
<circle cx="12" cy="22" r="1" fill="#1C274C"/>
<g clip-path="url(#clip0_277_101438)">
<path d="M30.6776 15.8289C31.6951 15.2863 32.9335 14.3797 33.4826 12.9992C33.6595 12.5537 33.6045 12.066 33.3304 11.6627C33.049 11.2474 32.5833 10.999 32.0837 10.999H25.9164C25.4177 10.999 24.9512 11.2474 24.6697 11.6627C24.3957 12.066 24.3407 12.5537 24.5167 12.9992C25.0657 14.3797 26.3042 15.2863 27.3217 15.8289C22.8016 17.0683 18.9167 23.0028 18.9167 27.7291C18.9167 30.6349 21.2817 32.9999 24.1876 32.9999H33.8126C36.7184 32.9999 39.0834 30.6349 39.0834 27.7291C39.0834 23.0028 35.1986 17.0683 30.6776 15.8289ZM25.3692 12.6609C25.283 12.4446 25.3692 12.2649 25.4278 12.1788C25.5387 12.0147 25.7212 11.9175 25.9164 11.9175H32.0837C32.2781 11.9175 32.4614 12.0147 32.5723 12.1788C32.631 12.2659 32.7172 12.4446 32.631 12.6619C31.9087 14.4787 29.5721 15.3679 29.0001 15.5613C28.4272 15.3688 26.0952 14.4851 25.3701 12.6609H25.3692ZM33.8126 32.0833H24.1876C21.7868 32.0833 19.8334 30.1299 19.8334 27.7291C19.8334 22.8259 24.2783 16.4999 29.0001 16.4999C33.7218 16.4999 38.1667 22.8259 38.1667 27.7291C38.1667 30.1299 36.2133 32.0833 33.8126 32.0833ZM32.6667 26.9261C32.6667 28.2534 31.5869 29.3333 30.2596 29.3333H29.4584V30.7083C29.4584 30.9613 29.2531 31.1666 29.0001 31.1666C28.7471 31.1666 28.5417 30.9613 28.5417 30.7083V29.3333H27.6929C26.7955 29.3333 25.9595 28.8511 25.5103 28.0738C25.3829 27.8547 25.4581 27.5742 25.6772 27.4477C25.8962 27.3194 26.1758 27.3954 26.3032 27.6145C26.5892 28.1095 27.1227 28.4166 27.6929 28.4166H30.2596C31.0809 28.4166 31.7501 27.7484 31.7501 26.9261C31.7501 26.19 31.223 25.5713 30.4961 25.4549L27.3592 24.9507C26.1859 24.7619 25.3343 23.7627 25.3343 22.5738C25.3343 21.2464 26.4142 20.1666 27.7415 20.1666H28.5427V18.7916C28.5427 18.5386 28.748 18.3333 29.001 18.3333C29.254 18.3333 29.4593 18.5386 29.4593 18.7916V20.1666H30.3082C31.2047 20.1666 32.0416 20.6497 32.4907 21.427C32.6182 21.6461 32.543 21.9266 32.3239 22.0531C32.103 22.1796 31.8252 22.1044 31.6978 21.8863C31.4118 21.3913 30.8783 21.0842 30.3082 21.0842H27.7415C26.9202 21.0842 26.251 21.7524 26.251 22.5747C26.251 23.3108 26.7781 23.9295 27.505 24.0459L30.6418 24.5501C31.8152 24.7389 32.6667 25.7372 32.6667 26.9261Z" fill="black"/>
</g>
<circle cx="46" cy="22" r="1" fill="#1C274C"/>
<path d="M55.916 16.88V25.746H62.604V27H53.672V17.738C53.672 17.5473 53.6793 17.3933 53.694 17.276C53.7087 17.144 53.7747 17.0487 53.892 16.99C54.0093 16.9167 54.1927 16.88 54.442 16.88H55.916ZM66.0401 27.088C65.2628 27.088 64.7348 26.9047 64.4561 26.538C64.1775 26.1567 64.0381 25.592 64.0381 24.844L64.0601 18.222H66.1061V24.734C66.1061 25.2913 66.1721 25.6727 66.3041 25.878C66.4508 26.0833 66.6928 26.186 67.0301 26.186C67.1621 26.186 67.3088 26.1713 67.4701 26.142C67.6315 26.1127 67.7341 26.0907 67.7781 26.076V26.912C67.7195 26.9267 67.6241 26.9487 67.4921 26.978C67.3601 27.0073 67.1768 27.0293 66.9421 27.044C66.7075 27.0733 66.4068 27.088 66.0401 27.088ZM65.1161 17.012C64.7788 17.012 64.5221 16.968 64.3461 16.88C64.1848 16.7773 64.1041 16.594 64.1041 16.33C64.1041 16.066 64.1848 15.89 64.3461 15.802C64.5075 15.6993 64.7641 15.648 65.1161 15.648C65.4535 15.648 65.6955 15.6993 65.8421 15.802C66.0035 15.89 66.0841 16.066 66.0841 16.33C66.0841 16.594 66.0035 16.7773 65.8421 16.88C65.6955 16.968 65.4535 17.012 65.1161 17.012ZM70.0089 27C69.6716 27 69.4442 26.9487 69.3269 26.846C69.2242 26.7433 69.1729 26.5233 69.1729 26.186V18.838C69.3342 18.794 69.5396 18.7353 69.7889 18.662C70.0529 18.5887 70.3536 18.5153 70.6909 18.442C71.0429 18.354 71.4242 18.288 71.8349 18.244C72.2602 18.2 72.7002 18.178 73.1549 18.178C73.6829 18.178 74.1376 18.222 74.5189 18.31C74.9002 18.3833 75.2302 18.53 75.5089 18.75C75.7876 18.9553 76.0149 19.256 76.1909 19.652L75.8389 19.63C75.9562 19.3513 76.1322 19.1167 76.3669 18.926C76.6016 18.7207 76.8656 18.5667 77.1589 18.464C77.4669 18.3467 77.7822 18.266 78.1049 18.222C78.4276 18.178 78.7282 18.156 79.0069 18.156C79.8869 18.156 80.5762 18.244 81.0749 18.42C81.5882 18.5813 81.9476 18.86 82.1529 19.256C82.3729 19.652 82.4829 20.1947 82.4829 20.884V26.252C82.4829 26.56 82.4242 26.7653 82.3069 26.868C82.2042 26.956 81.9989 27 81.6909 27H80.4369C80.4369 25.9733 80.4369 24.9467 80.4369 23.92C80.4369 22.8933 80.4369 21.8593 80.4369 20.818C80.4222 20.1873 80.2756 19.762 79.9969 19.542C79.7182 19.322 79.2929 19.212 78.7209 19.212C78.4569 19.212 78.1782 19.2487 77.8849 19.322C77.6062 19.3953 77.3642 19.498 77.1589 19.63C76.9682 19.762 76.8729 19.916 76.8729 20.092V27H74.8049V20.356C74.8049 20.004 74.6436 19.7327 74.3209 19.542C73.9982 19.3367 73.5802 19.234 73.0669 19.234C72.7589 19.234 72.4729 19.2633 72.2089 19.322C71.9449 19.366 71.7249 19.432 71.5489 19.52C71.3729 19.608 71.2702 19.7253 71.2409 19.872V27H70.0089ZM86.7725 27.088C85.9952 27.088 85.4672 26.9047 85.1885 26.538C84.9099 26.1567 84.7705 25.592 84.7705 24.844L84.7925 18.222H86.8385V24.734C86.8385 25.2913 86.9045 25.6727 87.0365 25.878C87.1832 26.0833 87.4252 26.186 87.7625 26.186C87.8945 26.186 88.0412 26.1713 88.2025 26.142C88.3639 26.1127 88.4665 26.0907 88.5105 26.076V26.912C88.4519 26.9267 88.3565 26.9487 88.2245 26.978C88.0925 27.0073 87.9092 27.0293 87.6745 27.044C87.4399 27.0733 87.1392 27.088 86.7725 27.088ZM85.8485 17.012C85.5112 17.012 85.2545 16.968 85.0785 16.88C84.9172 16.7773 84.8365 16.594 84.8365 16.33C84.8365 16.066 84.9172 15.89 85.0785 15.802C85.2399 15.6993 85.4965 15.648 85.8485 15.648C86.1859 15.648 86.4279 15.6993 86.5745 15.802C86.7359 15.89 86.8165 16.066 86.8165 16.33C86.8165 16.594 86.7359 16.7773 86.5745 16.88C86.4279 16.968 86.1859 17.012 85.8485 17.012ZM92.5013 27.066C91.9146 27.066 91.4526 27 91.1153 26.868C90.7926 26.736 90.558 26.5013 90.4113 26.164C90.2646 25.8267 90.1913 25.372 90.1913 24.8V19.344H89.3113V18.222H90.1913V16.77C90.1913 16.506 90.2133 16.3153 90.2573 16.198C90.3013 16.066 90.3746 15.9853 90.4773 15.956C90.5946 15.912 90.7633 15.89 90.9833 15.89H92.2593C92.2593 15.9193 92.2593 15.9853 92.2593 16.088C92.2593 16.176 92.2593 16.308 92.2593 16.484V18.222H94.3273V19.344H92.2593V24.602C92.2593 25.174 92.318 25.5847 92.4353 25.834C92.5526 26.0687 92.8313 26.186 93.2713 26.186C93.418 26.186 93.5793 26.1713 93.7553 26.142C93.946 26.1127 94.078 26.0833 94.1513 26.054V26.912C94.0633 26.9267 93.8726 26.956 93.5793 27C93.286 27.044 92.9266 27.066 92.5013 27.066ZM100.213 27.132C99.3183 27.132 98.563 27.0733 97.947 26.956C97.3457 26.8387 96.8617 26.6187 96.495 26.296C96.143 25.9733 95.8937 25.526 95.747 24.954C95.6003 24.382 95.527 23.6413 95.527 22.732C95.527 21.6467 95.6663 20.7667 95.945 20.092C96.2237 19.4173 96.715 18.926 97.419 18.618C98.1377 18.2953 99.135 18.134 100.411 18.134C101.408 18.134 102.2 18.2587 102.787 18.508C103.388 18.7427 103.821 19.1167 104.085 19.63C104.349 20.1433 104.481 20.796 104.481 21.588V22.996H98.299C98.299 22.7613 98.3503 22.5707 98.453 22.424C98.5557 22.2773 98.7463 22.204 99.025 22.204H102.633L102.611 21.632C102.596 20.8107 102.42 20.2093 102.083 19.828C101.76 19.4467 101.174 19.256 100.323 19.256C99.619 19.256 99.069 19.366 98.673 19.586C98.277 19.806 97.9983 20.1653 97.837 20.664C97.6757 21.148 97.595 21.8227 97.595 22.688C97.595 23.5827 97.683 24.2647 97.859 24.734C98.0497 25.1887 98.3577 25.4967 98.783 25.658C99.223 25.8193 99.8317 25.9 100.609 25.9C100.888 25.9 101.21 25.8927 101.577 25.878C101.958 25.8633 102.34 25.8413 102.721 25.812C103.117 25.7827 103.469 25.746 103.777 25.702C104.085 25.658 104.29 25.614 104.393 25.57V25.878C104.393 26.0393 104.356 26.2007 104.283 26.362C104.21 26.5233 104.056 26.6553 103.821 26.758C103.513 26.9047 103.058 27 102.457 27.044C101.87 27.1027 101.122 27.132 100.213 27.132ZM106.097 22.578C106.097 21.39 106.259 20.4807 106.581 19.85C106.904 19.2047 107.373 18.7647 107.989 18.53C108.605 18.2807 109.346 18.156 110.211 18.156C110.475 18.156 110.776 18.1707 111.113 18.2C111.465 18.2147 111.81 18.244 112.147 18.288C112.485 18.332 112.785 18.3833 113.049 18.442C113.313 18.486 113.497 18.5373 113.599 18.596L113.049 18.86V15.89H115.073L115.051 22.578C115.051 23.5753 114.978 24.3747 114.831 24.976C114.685 25.5627 114.443 26.0027 114.105 26.296C113.768 26.5893 113.299 26.7873 112.697 26.89C112.096 26.9927 111.348 27.044 110.453 27.044C109.617 27.044 108.913 26.9927 108.341 26.89C107.784 26.7727 107.337 26.56 106.999 26.252C106.677 25.944 106.442 25.4967 106.295 24.91C106.163 24.3233 106.097 23.546 106.097 22.578ZM110.409 25.922C110.981 25.922 111.443 25.8853 111.795 25.812C112.147 25.724 112.411 25.57 112.587 25.35C112.778 25.13 112.903 24.822 112.961 24.426C113.02 24.0153 113.049 23.4873 113.049 22.842L113.027 19.476C112.881 19.4613 112.683 19.4467 112.433 19.432C112.184 19.4173 111.92 19.41 111.641 19.41C111.363 19.3953 111.106 19.388 110.871 19.388C110.211 19.388 109.683 19.476 109.287 19.652C108.891 19.8133 108.605 20.1287 108.429 20.598C108.253 21.0673 108.165 21.742 108.165 22.622C108.165 23.5607 108.231 24.2647 108.363 24.734C108.51 25.2033 108.745 25.5187 109.067 25.68C109.405 25.8413 109.852 25.922 110.409 25.922Z" fill="#1C274C"/>
<circle cx="128" cy="22" r="1" fill="#1C274C"/>
</g>
<defs>
<clipPath id="clip0_277_101438">
<rect width="22" height="22" fill="white" transform="translate(18 11)"/>
</clipPath>
</defs>
</svg>
