<svg width="33" height="34" viewBox="0 0 33 34" fill="none" xmlns="http://www.w3.org/2000/svg">
<rect x="0.5" y="0.674805" width="32" height="32" rx="4.5" fill="#ECECEC"/>
<rect x="0.5" y="0.674805" width="32" height="32" rx="4.5" stroke="#A8A8A8" stroke-dasharray="12 6"/>
<path fill-rule="evenodd" clip-rule="evenodd" d="M22.1689 16.1582C20.0476 16.1582 18.987 16.1582 18.328 15.4992C17.6689 14.8402 17.6689 13.7795 17.6689 11.6582C17.6689 9.53688 17.6689 8.47622 18.328 7.81721C18.987 7.1582 20.0476 7.1582 22.1689 7.1582C24.2903 7.1582 25.3509 7.1582 26.0099 7.81721C26.6689 8.47622 26.6689 9.53688 26.6689 11.6582C26.6689 13.7795 26.6689 14.8402 26.0099 15.4992C25.3509 16.1582 24.2903 16.1582 22.1689 16.1582ZM22.9189 9.6582C22.9189 9.24399 22.5832 8.9082 22.1689 8.9082C21.7547 8.9082 21.4189 9.24399 21.4189 9.6582V10.9082H20.1689C19.7547 10.9082 19.4189 11.244 19.4189 11.6582C19.4189 12.0724 19.7547 12.4082 20.1689 12.4082H21.4189V13.6582C21.4189 14.0724 21.7547 14.4082 22.1689 14.4082C22.5832 14.4082 22.9189 14.0724 22.9189 13.6582V12.4082H24.1689C24.5832 12.4082 24.9189 12.0724 24.9189 11.6582C24.9189 11.244 24.5832 10.9082 24.1689 10.9082H22.9189V9.6582Z" fill="#1C274C"/>
<path opacity="0.5" d="M26.6687 17.8561C26.6672 19.3256 26.656 20.5747 26.5725 21.5996C26.4756 22.789 26.277 23.7828 25.8326 24.6082C25.6365 24.9722 25.3956 25.2983 25.1023 25.5916C24.2699 26.4239 23.2094 26.801 21.8655 26.9817C20.5525 27.1582 18.8697 27.1582 16.7223 27.1582H16.6156C14.4682 27.1582 12.7854 27.1582 11.4724 26.9817C10.1285 26.801 9.06797 26.4239 8.23558 25.5916C7.49765 24.8536 7.11657 23.9352 6.91392 22.7958C6.71485 21.6766 6.67844 20.2841 6.67087 18.5549C6.66895 18.1151 6.66895 17.6499 6.66895 17.1591V17.1048C6.66893 14.9575 6.66892 13.2747 6.84545 11.9617C7.02614 10.6177 7.4032 9.55722 8.23558 8.72484C9.06797 7.89246 10.1285 7.5154 11.4724 7.33471C12.6401 7.17772 14.1424 7.16035 15.971 7.15844C16.3563 7.15804 16.6689 7.47056 16.6689 7.85588C16.6689 8.24119 16.3561 8.5534 15.9708 8.55381C14.1164 8.55577 12.7365 8.57267 11.6583 8.71762C10.4691 8.8775 9.75216 9.18159 9.22224 9.7115C8.69233 10.2414 8.38825 10.9584 8.22836 12.1476C8.06578 13.3569 8.06429 14.9459 8.06429 17.1582C8.06429 17.4284 8.0643 17.6896 8.06461 17.9426L8.9959 17.1278C9.8436 16.386 11.1212 16.4286 11.9177 17.225L15.9081 21.2155C16.5474 21.8548 17.5537 21.9419 18.2934 21.4221L18.5708 21.2271C19.6352 20.4791 21.0753 20.5658 22.0423 21.4361L24.6753 23.8058C24.9403 23.2492 25.0977 22.5179 25.1818 21.4863C25.261 20.5143 25.2719 19.3337 25.2734 17.8561C25.2738 17.4708 25.586 17.1582 25.9713 17.1582C26.3566 17.1582 26.6691 17.4707 26.6687 17.8561Z" fill="#1C274C"/>
</svg>
