<svg width="40" height="40" viewBox="0 0 40 40" fill="none" xmlns="http://www.w3.org/2000/svg">
<path d="M0 11.2C0 7.27963 0 5.31945 0.762954 3.82207C1.43407 2.50493 2.50493 1.43407 3.82207 0.762954C5.31945 0 7.27963 0 11.2 0H28.8C32.7204 0 34.6806 0 36.1779 0.762954C37.4951 1.43407 38.5659 2.50493 39.237 3.82207C40 5.31945 40 7.27963 40 11.2V28.8C40 32.7204 40 34.6806 39.237 36.1779C38.5659 37.4951 37.4951 38.5659 36.1779 39.237C34.6806 40 32.7204 40 28.8 40H11.2C7.27963 40 5.31945 40 3.82207 39.237C2.50493 38.5659 1.43407 37.4951 0.762954 36.1779C0 34.6806 0 32.7204 0 28.8V11.2Z" fill="white"/>
<path fill-rule="evenodd" clip-rule="evenodd" d="M7.05218 31.948C9.18786 34.0837 12.6252 34.0837 19.4998 34.0837C26.3745 34.0837 29.8118 34.0837 31.9475 31.948C34.0832 29.8123 34.0832 26.375 34.0832 19.5003C34.0832 12.6257 34.0832 9.18835 31.9475 7.05267C29.8118 4.91699 26.3745 4.91699 19.4998 4.91699C12.6252 4.91699 9.18786 4.91699 7.05218 7.05267C4.9165 9.18835 4.9165 12.6257 4.9165 19.5003C4.9165 26.375 4.9165 29.8123 7.05218 31.948Z" fill="#1BC469"/>
<path d="M21.5748 27.3189L26.6966 13.9521C27.1072 12.8804 26.1193 11.8924 25.0475 12.3031L11.6808 17.4249C10.4697 17.889 10.4303 19.5871 11.6222 19.9493L16.6928 21.49C17.0872 21.6099 17.3898 21.9125 17.5096 22.3069L19.0504 27.3774C19.4125 28.5694 21.1107 28.53 21.5748 27.3189Z" fill="white"/>
</svg>
