<svg width="27" height="26" viewBox="0 0 27 26" fill="none" xmlns="http://www.w3.org/2000/svg">
<path d="M1.41016 16.7982V12.9816C1.41016 11.276 1.41016 10.4232 1.8167 9.75526C2.22325 9.08734 2.94681 8.7514 4.39394 8.07952L5.71785 7.46484" stroke="#1BC469" stroke-width="1.5" stroke-linecap="round" stroke-linejoin="round"/>
<path d="M21.7171 12.1309V18.9648C21.7171 20.3088 21.0974 21.5671 20.0121 22.2183C18.2048 23.3025 15.3122 24.7975 13.1017 24.7975C10.8912 24.7975 7.99858 23.3025 6.19135 22.2183C5.10602 21.5671 4.48633 20.3088 4.48633 18.9648V12.1309" stroke="#1BC469" stroke-width="1.5" stroke-linecap="round"/>
<path d="M2.13867 5.64664L10.3739 1.46405C12.1228 0.575785 14.0828 0.575785 15.8317 1.46405L24.067 5.6467C25.8584 6.55651 25.8584 9.70592 24.067 10.6157L15.8318 14.7983C14.0829 15.6866 12.1229 15.6866 10.374 14.7983L4.48747 11.8086" stroke="#1C274D" stroke-width="1.5" stroke-linecap="round"/>
</svg>
