<svg width="22" height="22" viewBox="0 0 22 22" fill="none" xmlns="http://www.w3.org/2000/svg">
<path opacity="0.5" d="M21.8341 6.09277C21.7469 6.09277 21.676 6.16549 21.676 6.25489V15.4889C21.676 16.5713 20.817 17.4518 19.7609 17.4518H14.0785C13.8317 17.4518 13.5995 17.5505 13.4246 17.7293L10.5434 20.6825C10.4702 20.7575 10.369 20.7784 10.2732 20.7376C10.1774 20.6969 10.12 20.6093 10.12 20.5028V18.399C10.12 17.8766 9.70514 17.4514 9.19541 17.4514H8.23335C7.1773 17.4514 6.31827 16.5708 6.31827 15.4884V12.3795C6.31827 12.2901 6.24733 12.2174 6.16011 12.2174C6.0729 12.2174 6.00195 12.2901 6.00195 12.3795V15.4884C6.00195 16.7496 7.00288 17.7756 8.23335 17.7756H9.19541C9.53071 17.7756 9.80365 18.0553 9.80365 18.399V20.5028C9.80365 20.7413 9.93695 20.9461 10.1521 21.0368C10.2239 21.0674 10.2985 21.0822 10.3717 21.0822C10.5167 21.0822 10.6577 21.0234 10.7671 20.9113L13.6483 17.9581C13.7631 17.8404 13.9158 17.7756 14.0785 17.7756H19.7609C20.9914 17.7756 21.9923 16.7496 21.9923 15.4884V6.25489C21.9923 6.16549 21.9214 6.09277 21.8341 6.09277Z" fill="#1C274C"/>
<path opacity="0.5" d="M6.40171 11.7342L8.61142 13.9992C8.70225 14.0923 8.81974 14.1414 8.94039 14.1414C9.00139 14.1414 9.0633 14.1289 9.12295 14.1034C9.3019 14.0274 9.41306 13.857 9.41306 13.6588V12.0455C9.41306 11.8028 9.60556 11.605 9.8428 11.605C9.93001 11.605 10.001 11.5323 10.001 11.4429C10.001 11.3535 9.93001 11.2808 9.8428 11.2808C9.43159 11.2808 9.09674 11.6235 9.09674 12.0455V13.6588C9.09674 13.756 9.02444 13.7945 9.0023 13.8037C8.98015 13.813 8.90243 13.8385 8.8351 13.7695L6.62539 11.5045C6.4844 11.36 6.29732 11.2808 6.09804 11.2808H1.74053C0.951085 11.2808 0.308506 10.6226 0.308506 9.81296V2.65728C0.308506 1.8481 0.950633 1.18946 1.74053 1.18946H10.5803C11.3697 1.18946 12.0123 1.84764 12.0123 2.65728V8.94913C12.0123 9.03852 12.0832 9.11124 12.1705 9.11124C12.2577 9.11124 12.3286 9.03852 12.3286 8.94913V4.19412H15.617L15.5447 4.49657C15.227 5.8259 14.56 7.04036 13.6156 8.00795L12.9753 8.66381C12.9134 8.72727 12.9134 8.82963 12.9753 8.89309C13.0372 8.95654 13.137 8.95654 13.1989 8.89309L13.8393 8.23722C14.8244 7.22749 15.5203 5.96069 15.8519 4.57346L15.8605 4.53687L19.5574 8.32615L19.5217 8.33495C18.1683 8.67446 16.9324 9.38776 15.9473 10.3975L15.311 11.0497C15.2491 11.1131 15.2491 11.2155 15.311 11.2789C15.3418 11.3104 15.3824 11.3266 15.4231 11.3266C15.4638 11.3266 15.504 11.3109 15.5347 11.2789L16.171 10.6268C17.1154 9.65919 18.2998 8.97553 19.5972 8.64992L20.5059 8.42203C20.636 8.38961 20.735 8.29095 20.7712 8.15894C20.8073 8.02694 20.7721 7.88984 20.6776 7.79303L16.3816 3.38911C16.2867 3.2923 16.1534 3.25617 16.0246 3.29323C15.8958 3.33028 15.7995 3.43172 15.7679 3.56512L15.6951 3.86989H12.3291V2.65728C12.3291 1.66932 11.545 0.865234 10.5807 0.865234H1.74053C0.776658 0.865234 -0.0078125 1.66885 -0.0078125 2.65728V9.81343C-0.0078125 10.8014 0.776206 11.6055 1.74053 11.6055H6.09804C6.21282 11.605 6.32037 11.6509 6.40171 11.7342ZM16.0743 3.64247C16.0802 3.61746 16.0987 3.60865 16.1091 3.60588C16.1195 3.60263 16.1398 3.60078 16.1574 3.61884L16.5677 4.03941C16.5094 4.30713 16.5221 4.58272 16.6012 4.83794L15.9487 4.1691L16.0743 3.64247Z" fill="#1C274C"/>
<path d="M20.6059 3.94675L19.0916 5.49887C19.0749 5.51601 19.0482 5.51601 19.032 5.49887L18.6668 5.12416C18.6501 5.10702 18.6501 5.07969 18.6668 5.06302L20.1811 3.5109C20.1978 3.49376 20.2245 3.49376 20.2407 3.5109L20.6059 3.88561C20.6221 3.90229 20.6221 3.93008 20.6059 3.94675Z" fill="#1C274C"/>
<path d="M19.2611 2.54777L18.3126 4.51583C18.3022 4.53713 18.2769 4.54593 18.2561 4.53528L17.7929 4.30091C17.7721 4.29026 17.7636 4.26432 17.774 4.24301L18.7225 2.27496C18.7328 2.25365 18.7582 2.24485 18.7789 2.25551L19.2421 2.48988C19.2629 2.50053 19.2715 2.52647 19.2611 2.54777Z" fill="#1C274C"/>
<path d="M19.8911 6.41218L21.8112 5.44043C21.832 5.42978 21.8405 5.40384 21.8302 5.38253L21.6015 4.90777C21.5911 4.88647 21.5658 4.87767 21.545 4.88832L19.625 5.86007C19.6042 5.87073 19.5956 5.89666 19.606 5.91797L19.8346 6.39273C19.845 6.41404 19.8703 6.42284 19.8911 6.41218Z" fill="#1C274C"/>
<path d="M16.033 14.6257C15.7935 14.5725 15.5766 14.4423 15.4144 14.2538L14.0081 12.6169L14.9684 11.6327C15.0185 11.5813 15.0185 11.4979 14.9684 11.4465L12.8188 9.24266C12.7686 9.19125 12.6873 9.19125 12.6371 9.24266L10.0519 11.8921C9.90458 12.0431 9.90458 12.2876 10.0519 12.4386L11.8499 14.2816C11.9973 14.4326 12.2358 14.4326 12.3832 14.2816L13.0266 13.622L13.5766 13.9926C14.0117 14.2858 14.3949 14.6521 14.7108 15.0764L15.1415 15.6554C15.2138 15.7522 15.3529 15.7619 15.437 15.6758L16.1302 14.9653C16.2409 14.8522 16.1853 14.6591 16.033 14.6257ZM12.2602 13.5836L11.9082 13.2228C11.8716 13.1853 11.8716 13.1241 11.9082 13.0866L13.4406 11.516C13.4772 11.4784 13.5368 11.4784 13.5734 11.516L13.9254 11.8768C13.962 11.9143 13.962 11.9754 13.9254 12.0129L12.3931 13.5836C12.3565 13.6211 12.2969 13.6211 12.2602 13.5836Z" fill="#1C274C"/>
<path d="M4.4797 9.0718V9.14405C4.4797 9.27791 4.37395 9.3863 4.24336 9.3863H2.97266C2.84207 9.3863 2.73633 9.27791 2.73633 9.14405V6.12041C2.73633 5.98655 2.84207 5.87817 2.97266 5.87817H4.24336C4.37395 5.87817 4.4797 5.98655 4.4797 6.12041V6.20054L4.76032 6.00878C4.94333 5.88373 5.09742 5.71883 5.2113 5.52615L5.88008 4.39645C5.99441 4.20377 6.05451 3.98237 6.05451 3.7568V3.1014C6.05451 3.01942 6.07123 2.93836 6.10377 2.86332C6.17336 2.70306 6.35275 2.62618 6.51272 2.6887C6.5204 2.69148 6.52808 2.69473 6.53577 2.69797C6.77346 2.79107 6.9524 2.99672 7.01567 3.24915C7.01702 3.25471 7.01838 3.26027 7.01973 3.26583C7.13948 3.74615 7.15756 4.24731 7.07306 4.73504C7.04504 4.89622 7.01702 5.05695 6.99443 5.1871C6.96867 5.33625 7.08029 5.47288 7.22805 5.47288H9.19239C9.39438 5.47288 9.55842 5.64102 9.55842 5.84806V6.14496C9.55842 6.352 9.39438 6.52014 9.19239 6.52014C9.39438 6.52014 9.55842 6.68827 9.55842 6.89531V7.19221C9.55842 7.39925 9.39438 7.56739 9.19239 7.56739H8.93075H9.06722C9.26921 7.56739 9.43325 7.73552 9.43325 7.94256V8.24131C9.43325 8.44836 9.26921 8.61649 9.06722 8.61649H8.93075C9.13229 8.61649 9.29587 8.7837 9.29678 8.99028L9.29813 9.28718C9.29904 9.49514 9.135 9.66421 8.93211 9.66421H5.77976C5.60082 9.66421 5.42458 9.61696 5.26868 9.5271L4.4797 9.0718Z" fill="#1C274C"/>
<g opacity="0.5">
<path d="M21.1736 14.073V15.3722C21.1736 16.2004 20.5184 16.872 19.7104 16.872H17.6824C16.6661 16.872 16.3032 15.4941 17.1822 14.9702L19.9228 13.3356C20.4777 13.0049 21.1736 13.4153 21.1736 14.073Z" fill="#1C274C"/>
</g>
</svg>
