<svg width="26" height="26" viewBox="0 0 26 26" fill="none" xmlns="http://www.w3.org/2000/svg">
<path opacity="0.5" d="M19.3934 19.9918C21.7603 19.9666 23.0795 19.8183 23.9554 18.9425C25.0098 17.888 25.0098 16.191 25.0098 12.7969V7.99688C25.0098 4.60276 25.0098 2.90571 23.9554 1.85129C22.9009 0.796875 21.2039 0.796875 17.8098 0.796875L8.20977 0.796875C4.81565 0.796876 3.1186 0.796876 2.06418 1.85129C1.00977 2.90571 1.00977 4.60276 1.00977 7.99688L1.00977 12.7969C1.00977 16.191 1.00977 17.888 2.06418 18.9425C2.98624 19.8645 4.39973 19.9803 7.00977 19.9948" stroke="#1C274D" stroke-width="1.5"/>
<path opacity="0.5" d="M9.41016 5.59668L16.6102 5.59668" stroke="#1C274D" stroke-width="1.5" stroke-linecap="round"/>
<path opacity="0.5" d="M7.00977 9.79688H19.0098" stroke="#1C274D" stroke-width="1.5" stroke-linecap="round"/>
<ellipse cx="13.0102" cy="17.5961" rx="3.6" ry="3.6" stroke="#1BC469" stroke-width="1.5"/>
<path d="M13.0105 21.5101L10.2951 24.1134C9.90622 24.4863 9.71177 24.6727 9.54711 24.7372C9.17188 24.8842 8.75565 24.7584 8.55827 24.4383C8.47165 24.2979 8.44465 24.0445 8.39067 23.5379C8.36019 23.2518 8.34495 23.1088 8.29869 22.989C8.19512 22.7207 7.9775 22.5121 7.69774 22.4128C7.57278 22.3685 7.42358 22.3539 7.12519 22.3246C6.59669 22.2729 6.33244 22.247 6.18594 22.164C5.8521 21.9747 5.72089 21.5757 5.87422 21.2159C5.9415 21.0581 6.13594 20.8717 6.52483 20.4988L8.29869 18.7982L9.54711 17.5498" stroke="#1BC469" stroke-width="1.5"/>
<path d="M13.0109 21.5073L15.7264 24.1107C16.1153 24.4835 16.3097 24.6699 16.4744 24.7344C16.8496 24.8814 17.2658 24.7556 17.4632 24.4356C17.5498 24.2951 17.5768 24.0418 17.6308 23.5351C17.6613 23.249 17.6765 23.106 17.7228 22.9862C17.8264 22.718 18.044 22.5093 18.3237 22.41C18.4487 22.3657 18.5979 22.3511 18.8963 22.3219C19.4248 22.2701 19.689 22.2442 19.8355 22.1612C20.1694 21.972 20.3006 21.5729 20.1473 21.2132C20.08 21.0553 19.8855 20.8689 19.4967 20.4961L17.7228 18.7955L16.6109 17.6836" stroke="#1BC469" stroke-width="1.5"/>
</svg>
