<svg width="20" height="20" viewBox="0 0 20 20" fill="none" xmlns="http://www.w3.org/2000/svg">
<path d="M19.2969 9.74609C19.2969 13.9887 19.2969 16.1101 17.9789 17.4281C16.6608 18.7461 14.5395 18.7461 10.2969 18.7461C6.05423 18.7461 3.93291 18.7461 2.61489 17.4281C1.29688 16.1101 1.29688 13.9887 1.29688 9.74609C1.29688 5.50345 1.29688 3.38213 2.61489 2.06411C3.93291 0.746094 6.05423 0.746094 10.2969 0.746094" stroke="#1C274C" stroke-linecap="round"/>
<path opacity="0.5" d="M1.29688 10.1962L2.8733 8.81685C3.69345 8.09923 4.92952 8.14039 5.70011 8.91098L9.56087 12.7717C10.1794 13.3902 11.153 13.4746 11.8686 12.9716L12.137 12.783C13.1668 12.0593 14.5601 12.1431 15.4957 12.9852L18.3969 15.5962" stroke="#1C274C" stroke-linecap="round"/>
<path d="M13.952 6.65937L14.2799 6.28192L13.952 6.65937ZM15.6977 2.51758L15.3432 2.87019C15.437 2.96454 15.5646 3.01758 15.6977 3.01758C15.8307 3.01758 15.9583 2.96454 16.0522 2.87019L15.6977 2.51758ZM17.4434 6.65937L17.1154 6.28192L17.4434 6.65937ZM15.6977 7.59157L15.6977 7.09157H15.6977L15.6977 7.59157ZM14.2799 6.28192C13.837 5.89714 13.4056 5.46177 13.0886 5.01448C12.7668 4.56048 12.5977 4.1433 12.5977 3.78436H11.5977C11.5977 4.44074 11.8968 5.06241 12.2727 5.59276C12.6534 6.12981 13.1492 6.62429 13.624 7.03682L14.2799 6.28192ZM12.5977 3.78436C12.5977 2.88889 13.0058 2.3871 13.4629 2.21886C13.9279 2.0477 14.6299 2.1531 15.3432 2.87019L16.0522 2.16497C15.1455 1.25345 14.0475 0.938094 13.1175 1.28041C12.1795 1.62565 11.5977 2.57157 11.5977 3.78436H12.5977ZM17.7713 7.03682C18.2461 6.6243 18.7419 6.12982 19.1226 5.59276C19.4985 5.06241 19.7977 4.44073 19.7977 3.78435H18.7977C18.7977 4.1433 18.6285 4.56049 18.3067 5.01449C17.9897 5.46178 17.5583 5.89715 17.1154 6.28192L17.7713 7.03682ZM19.7977 3.78435C19.7977 2.57156 19.2158 1.62565 18.2778 1.28041C17.3478 0.938094 16.2498 1.25345 15.3432 2.16497L16.0522 2.87019C16.7654 2.1531 17.4674 2.0477 17.9324 2.21886C18.3895 2.3871 18.7977 2.88888 18.7977 3.78435H19.7977ZM13.624 7.03682C14.314 7.63624 14.8092 8.09157 15.6977 8.09157L15.6977 7.09157C15.2407 7.09157 15.0206 6.92542 14.2799 6.28192L13.624 7.03682ZM17.1154 6.28192C16.3747 6.92543 16.1546 7.09157 15.6977 7.09157L15.6977 8.09157C16.5861 8.09157 17.0813 7.63625 17.7713 7.03682L17.1154 6.28192Z" fill="#1C274C"/>
</svg>
