<svg width="28" height="28" viewBox="0 0 28 28" fill="none" xmlns="http://www.w3.org/2000/svg">
<path opacity="0.5" d="M7.66016 21.0066C4.94137 20.9915 3.46899 20.8709 2.50851 19.9104C1.41016 18.8121 1.41016 17.0443 1.41016 13.5088L1.41016 8.50879C1.41016 4.97326 1.41016 3.20549 2.50851 2.10714C3.60685 1.00879 5.37462 1.00879 8.91016 1.00879L18.9102 1.00879C22.4457 1.00879 24.2135 1.00879 25.3118 2.10714C26.4102 3.20549 26.4102 4.97325 26.4102 8.50879V13.5088C26.4102 17.0443 26.4102 18.8121 25.3118 19.9104C24.3995 20.8228 23.0253 20.9773 20.5597 21.0035L19.5352 21.0066" stroke="#1C274D" stroke-width="1.5"/>
<path opacity="0.5" d="M10.1602 6.00879L17.6602 6.00879" stroke="#1C274D" stroke-width="1.5" stroke-linecap="round"/>
<path opacity="0.5" d="M7.66016 10.3838H20.1602" stroke="#1C274D" stroke-width="1.5" stroke-linecap="round"/>
<path d="M12.5243 15.9404C13.3234 15.2595 14.4986 15.2595 15.2977 15.9404C15.6401 16.2322 16.0659 16.4085 16.5143 16.4443C17.5608 16.5278 18.3919 17.3589 18.4754 18.4054C18.5112 18.8539 18.6875 19.2796 18.9793 19.622C19.6603 20.4211 19.6603 21.5963 18.9793 22.3954C18.6875 22.7378 18.5112 23.1635 18.4754 23.612C18.3919 24.6585 17.5608 25.4895 16.5143 25.573C16.0659 25.6088 15.6401 25.7852 15.2977 26.077C14.4986 26.7579 13.3234 26.7579 12.5243 26.077C12.1819 25.7852 11.7562 25.6088 11.3077 25.573C10.2612 25.4895 9.43019 24.6585 9.34668 23.612C9.31089 23.1635 9.13455 22.7378 8.84274 22.3954C8.16179 21.5963 8.16179 20.4211 8.84274 19.622C9.13455 19.2796 9.31089 18.8539 9.34668 18.4054C9.43019 17.3589 10.2612 16.5278 11.3077 16.4443C11.7562 16.4085 12.1819 16.2322 12.5243 15.9404Z" stroke="#1BC469" stroke-width="1.5"/>
<path d="M12.0352 21.2588L13.1066 22.2588L15.7852 19.7588" stroke="#1BC469" stroke-width="1.5" stroke-linecap="round" stroke-linejoin="round"/>
</svg>
