<svg width="23" height="23" viewBox="0 0 23 23" fill="none" xmlns="http://www.w3.org/2000/svg">
<path d="M13.5013 19.4091C13.2183 19.3432 12.9357 19.293 12.6526 19.2583V18.2423C13.1501 17.9152 13.4873 17.3799 13.5568 16.7733H13.5835L13.8254 16.6657C13.9739 16.5998 14.0764 16.4602 14.0945 16.2985L14.1464 15.8422C14.1676 15.657 14.0227 15.4948 13.8363 15.4948H13.6503H13.6236L13.6304 15.3534C13.685 14.2426 12.7998 13.3125 11.6884 13.3125C10.5769 13.3125 9.69168 14.2431 9.7463 15.3534L9.75308 15.4948H9.72825H9.54226C9.35582 15.4948 9.21136 15.657 9.23213 15.8422L9.28404 16.2985C9.30255 16.4602 9.40502 16.5998 9.55309 16.6657L9.79506 16.7733H9.82034C9.89031 17.3799 10.2271 17.9152 10.7246 18.2423V19.2583C10.4456 19.2926 10.167 19.3423 9.88805 19.4064C9.18743 19.5686 8.71659 20.2259 8.79334 20.9414L8.88136 21.7618C9.69981 22.2591 10.6605 22.5455 11.6884 22.5455C12.7158 22.5455 13.6769 22.2591 14.4954 21.7618L14.5834 20.9414C14.6619 20.2304 14.1974 19.5713 13.5013 19.4091Z" fill="#1C274C"/>
<path d="M4.14258 3.48659C4.43556 3.48659 4.68475 3.2824 4.75336 2.99736C4.97276 2.09072 5.7894 1.41718 6.76313 1.41718C7.73687 1.41718 8.55305 2.09072 8.7729 2.99736C8.84197 3.2824 9.09116 3.48659 9.38368 3.48659C9.38368 2.03832 8.21042 0.864258 6.76313 0.864258C5.31585 0.864258 4.14258 2.03832 4.14258 3.48659Z" fill="#EBECED"/>
<path d="M15.3634 6.8936C15.6686 6.8936 15.9246 6.67089 15.9769 6.37004C16.2248 4.95294 17.4603 3.87555 18.9478 3.87555C20.4348 3.87555 21.6708 4.95249 21.9187 6.37004C21.9715 6.67089 22.227 6.8936 22.5322 6.8936H22.5421C22.5421 4.90686 20.9327 3.29688 18.9478 3.29688C16.9624 3.29688 15.3535 4.90731 15.3535 6.8936H15.3634Z" fill="#EBECED"/>
<path d="M2.19467 10.3658C2.5492 10.3658 2.8366 10.0782 2.8366 9.72342C2.8366 9.36865 2.5492 9.08105 2.19467 9.08105C1.84014 9.08105 1.55273 9.36865 1.55273 9.72342C1.55273 10.0782 1.84014 10.3658 2.19467 10.3658Z" fill="#EBECED"/>
<path d="M6.28906 16.7081C6.73011 16.7081 7.11112 16.4068 7.22081 15.9795C7.73048 13.9851 9.53846 12.5101 11.6904 12.5101C13.8424 12.5101 15.6504 13.9846 16.16 15.9795C16.2693 16.4068 16.6507 16.7081 17.0918 16.7081C16.8778 13.9101 14.5417 11.7061 11.6904 11.7061C8.83919 11.7061 6.50304 13.9101 6.28906 16.7081Z" fill="#EBECED"/>
<path d="M11.6919 11.5474C9.95299 11.5474 8.39781 12.3483 7.37442 13.6005L3.99231 10.9371C3.92369 10.8833 3.82437 10.895 3.7702 10.9633C3.71603 11.0319 3.72822 11.1313 3.79684 11.1855L7.18121 13.8512C6.51174 14.7718 6.11629 15.9039 6.11629 17.1267C6.11629 20.2031 8.61721 22.7057 11.6914 22.7057C14.7657 22.7057 17.2666 20.2031 17.2666 17.1267C17.2666 14.0504 14.7661 11.5474 11.6919 11.5474ZM11.6919 22.389C8.79191 22.389 6.43274 20.0282 6.43274 17.1263C6.43274 14.2243 8.79191 11.8636 11.6919 11.8636C14.5919 11.8636 16.9511 14.2243 16.9511 17.1263C16.9511 20.0282 14.5919 22.389 11.6919 22.389Z" fill="#2A3853"/>
<path d="M18.9478 3.1382C17.3028 3.1382 15.9025 4.2034 15.3973 5.68012L9.50391 3.94049C9.52829 3.79277 9.54138 3.64098 9.54138 3.48649C9.54138 1.9533 8.29498 0.706055 6.76283 0.706055C5.23068 0.706055 3.98428 1.9533 3.98428 3.48649C3.98428 4.32311 4.35626 5.07434 4.94266 5.58435L2.92793 8.41854C2.71124 8.29612 2.46115 8.22565 2.19481 8.22565C1.37004 8.22565 0.699219 8.89693 0.699219 9.72225C0.699219 10.5476 1.37004 11.2189 2.19481 11.2189C3.01957 11.2189 3.6904 10.5476 3.6904 9.72225C3.6904 9.27684 3.49447 8.87615 3.18479 8.60195L5.19185 5.77815C5.23384 5.80706 5.27672 5.83552 5.32051 5.86217C5.32141 5.86262 5.32232 5.86307 5.32322 5.86398C5.74305 6.11966 6.23601 6.26693 6.76238 6.26693C8.02999 6.26693 9.10124 5.41269 9.43394 4.24947L15.307 5.98324C15.2344 6.27461 15.1951 6.57953 15.1951 6.89303C15.1951 8.08968 15.758 9.15668 16.632 9.84468L15.0962 11.9823C15.0452 12.0532 15.0615 12.1521 15.1323 12.2027C15.1603 12.2226 15.1924 12.2326 15.2244 12.2326C15.2736 12.2326 15.3219 12.2095 15.3526 12.1666L16.888 10.0299C16.925 10.0543 16.962 10.0787 17.0004 10.1022C17.0017 10.1031 17.0031 10.104 17.004 10.1044C17.571 10.4496 18.2364 10.6483 18.9469 10.6483C21.0158 10.6483 22.6992 8.96379 22.6992 6.89348C22.6992 4.82318 21.0172 3.1382 18.9478 3.1382ZM3.37439 9.72271C3.37439 10.3737 2.84532 10.9031 2.19481 10.9031C1.5443 10.9031 1.01522 10.3737 1.01522 9.72271C1.01522 9.07176 1.5443 8.54232 2.19481 8.54232C2.84532 8.54232 3.37439 9.07176 3.37439 9.72271ZM5.55345 5.63224L5.51959 5.31557C5.49115 5.04995 5.66631 4.8042 5.92768 4.74412C6.05634 4.71431 6.18726 4.69127 6.31591 4.67501C6.39491 4.66507 6.4545 4.59776 6.4545 4.51826V4.02631C6.4545 3.97301 6.42787 3.92332 6.38318 3.89441C6.17778 3.75934 6.04415 3.54205 6.01571 3.29766C6.00759 3.22674 5.95342 3.17118 5.8848 3.15988L5.79316 3.11923C5.77239 3.11019 5.7584 3.09032 5.75569 3.06818L5.73176 2.85542H5.82566C5.869 2.85542 5.91008 2.8378 5.94032 2.80618C5.97057 2.77455 5.98592 2.73254 5.98366 2.68963L5.9805 2.62096C5.97012 2.40458 6.04641 2.19949 6.19538 2.04274C6.34435 1.88599 6.54569 1.79971 6.76238 1.79971C6.97906 1.79971 7.17995 1.88599 7.32937 2.04274C7.47835 2.19949 7.55464 2.40503 7.54426 2.62142L7.5411 2.69008C7.53884 2.73345 7.55464 2.77546 7.58443 2.80663C7.61423 2.8378 7.65576 2.85587 7.69864 2.85587H7.79344L7.76952 3.06863C7.76681 3.09122 7.75282 3.11065 7.73205 3.11968L7.64086 3.16034C7.57179 3.17118 7.51717 3.22719 7.50904 3.29857C7.48106 3.54251 7.34698 3.76024 7.14158 3.89531C7.09734 3.92467 7.07025 3.97436 7.07025 4.02722V4.51871C7.07025 4.59866 7.12984 4.66597 7.20884 4.67546C7.34021 4.69172 7.47293 4.71521 7.60294 4.74548C7.86116 4.80556 8.03451 5.05085 8.00607 5.31602L7.97221 5.63314C7.61468 5.83597 7.20207 5.95207 6.76283 5.95207C6.32359 5.95116 5.91098 5.83461 5.55345 5.63224ZM8.3153 5.39779L8.32071 5.349C8.36631 4.92527 8.08868 4.53316 7.67517 4.43694C7.57992 4.41481 7.48331 4.39583 7.38671 4.38048V4.10763C7.6043 3.93958 7.75327 3.70061 7.80789 3.43138L7.86071 3.40789C7.98305 3.35323 8.06882 3.23668 8.08371 3.10342L8.10854 2.88297C8.11847 2.79579 8.09049 2.7077 8.03225 2.6422C7.98711 2.5916 7.92662 2.55772 7.86071 2.54462C7.85213 2.27493 7.7465 2.02196 7.55825 1.8241C7.34879 1.60411 7.06619 1.48259 6.76238 1.48259C6.45857 1.48259 6.17597 1.60365 5.96651 1.8241C5.77826 2.02196 5.67263 2.27493 5.66405 2.54462C5.59859 2.55772 5.53855 2.5916 5.49341 2.64174C5.43472 2.70725 5.40673 2.79533 5.41666 2.88252L5.44149 3.10342C5.45684 3.23668 5.54216 3.35323 5.6645 3.40789L5.71641 3.43093C5.77104 3.70016 5.92001 3.93958 6.1376 4.10763V4.38048C6.04325 4.39538 5.9489 4.4139 5.85545 4.43559C5.43878 4.53181 5.1589 4.92482 5.20449 5.349L5.20991 5.39779C4.6551 4.9456 4.29983 4.2567 4.29983 3.48649C4.29983 2.12767 5.40448 1.02227 6.76238 1.02227C8.12028 1.02227 9.22493 2.12767 9.22493 3.48649C9.22538 4.25715 8.87011 4.9456 8.3153 5.39779ZM17.2338 9.87178L17.1836 9.40739C17.1412 9.01393 17.4012 8.64938 17.7886 8.55994C17.9669 8.51883 18.1479 8.48676 18.3276 8.46417C18.4066 8.45423 18.4662 8.38692 18.4662 8.30742V7.63298C18.4662 7.57967 18.4395 7.52998 18.3948 7.50107C18.0987 7.30637 17.9055 6.99241 17.8649 6.64051C17.8563 6.56733 17.7989 6.51041 17.7276 6.50183L17.5949 6.44265C17.5479 6.42187 17.515 6.3767 17.5091 6.32565L17.4748 6.02299C17.4726 6.00402 17.4816 5.99092 17.487 5.98459C17.4924 5.97872 17.5046 5.96833 17.5236 5.96833H17.6635C17.7069 5.96833 17.7479 5.95071 17.7777 5.91909C17.8075 5.88792 17.8233 5.84546 17.8211 5.80254L17.8165 5.70858C17.8012 5.39598 17.9114 5.09874 18.1276 4.87196C18.3438 4.64519 18.6345 4.52006 18.9474 4.52006C19.2602 4.52006 19.5514 4.64519 19.7672 4.87196C19.983 5.09874 20.0936 5.39598 20.0782 5.70858L20.0737 5.80254C20.0714 5.84591 20.0872 5.88792 20.117 5.91909C20.1468 5.95026 20.1884 5.96833 20.2312 5.96833H20.3721C20.3911 5.96833 20.4032 5.97872 20.4087 5.98459C20.4141 5.99092 20.4231 6.00402 20.4209 6.02299L20.3865 6.32565C20.3807 6.3767 20.3477 6.42187 20.3008 6.44265L20.1685 6.50138C20.0963 6.50951 20.038 6.56643 20.0295 6.64051C19.9888 6.99241 19.7956 7.30637 19.4995 7.50107C19.4552 7.53043 19.4282 7.58012 19.4282 7.63298V8.30697C19.4282 8.38692 19.4877 8.45423 19.5667 8.46372C19.7482 8.4863 19.9324 8.51883 20.1134 8.56129C20.4967 8.65029 20.7536 9.01393 20.7116 9.40694L20.6615 9.87133C20.1568 10.1636 19.5713 10.3316 18.9474 10.3316C18.324 10.3321 17.7389 10.1641 17.2338 9.87178ZM21.0041 9.64727L21.0262 9.44173C21.0854 8.89016 20.7242 8.37924 20.1857 8.25411C20.0398 8.22023 19.8918 8.19177 19.7446 8.17009V7.71655C20.052 7.48842 20.2601 7.15368 20.3288 6.77739L20.4294 6.73267C20.5784 6.66626 20.6827 6.52442 20.7007 6.36224L20.735 6.05958C20.7468 5.95613 20.7138 5.85268 20.6448 5.77499C20.5807 5.70316 20.4908 5.65979 20.3956 5.65392C20.396 5.27988 20.2556 4.92753 19.9961 4.65468C19.7202 4.36467 19.3473 4.20475 18.9474 4.20475C18.547 4.20475 18.1745 4.36467 17.8987 4.65468C17.6391 4.92753 17.4987 5.27988 17.4992 5.65392C17.4044 5.66024 17.315 5.70361 17.2514 5.77499C17.1823 5.85268 17.1493 5.95613 17.1611 6.05958L17.1954 6.36224C17.2139 6.52442 17.3177 6.66626 17.4667 6.73267L17.566 6.77694C17.6346 7.15368 17.8427 7.48842 18.1502 7.717V8.17099C18.0057 8.19268 17.8608 8.22023 17.7177 8.25321C17.1751 8.37879 16.8103 8.89016 16.8699 9.44263L16.892 9.64817C16.0546 9.02026 15.5115 8.01966 15.5115 6.89439C15.5115 4.998 17.0532 3.45577 18.9478 3.45577C20.8425 3.45577 22.3841 4.99845 22.3841 6.89439C22.3846 8.01876 21.8415 9.01935 21.0041 9.64727Z" fill="#2A3853"/>
<path d="M20.5175 12.4182C20.4326 12.4182 20.3622 12.3505 20.3595 12.2651C20.3567 12.1779 20.4254 12.1047 20.5125 12.102L21.6876 12.0645C21.7733 12.0622 21.8478 12.1305 21.8505 12.2176C21.8532 12.3048 21.7846 12.378 21.6975 12.3807L20.5224 12.4182C20.5211 12.4182 20.5193 12.4182 20.5175 12.4182Z" fill="#F46E94"/>
<path d="M19.718 16.5583C19.6724 16.5583 19.6268 16.5384 19.5957 16.5005L18.8504 15.5907C18.7949 15.5229 18.8048 15.4236 18.8725 15.368C18.9398 15.3124 19.0395 15.3224 19.0951 15.3901L19.8404 16.2995C19.8959 16.3672 19.886 16.4666 19.8183 16.5222C19.7889 16.5466 19.7532 16.5583 19.718 16.5583Z" fill="#F46E94"/>
<path d="M3.87278 17.0557C3.8475 17.0557 3.82221 17.0499 3.79829 17.0368C3.72155 16.9957 3.6922 16.8999 3.73373 16.8226L4.28854 15.7855C4.32962 15.7087 4.42533 15.6797 4.50252 15.7209C4.57926 15.762 4.60861 15.8577 4.56707 15.935L4.01227 16.9722C3.98383 17.0255 3.9292 17.0557 3.87278 17.0557Z" fill="#F46E94"/>
<path d="M1.24571 13.2567C1.16987 13.2567 1.10261 13.2016 1.08997 13.1243C1.07597 13.0381 1.13421 12.9568 1.21998 12.9427L2.3797 12.7512C2.46593 12.7368 2.54718 12.7955 2.56118 12.8813C2.57517 12.9676 2.51694 13.0489 2.43117 13.0629L1.27144 13.2544C1.26286 13.2563 1.25429 13.2567 1.24571 13.2567Z" fill="#F46E94"/>
</svg>
