<svg width="23" height="23" viewBox="0 0 23 23" fill="none" xmlns="http://www.w3.org/2000/svg">
<path d="M19.3668 7.24902C19.1635 7.37732 18.9273 7.41617 18.7059 7.37326C20.2437 9.96949 20.2654 13.2212 18.7678 15.8346C18.5731 16.1739 18.5979 16.5967 18.8247 16.9152C20.8766 14.057 21.0568 10.2708 19.3668 7.24902Z" fill="#EBECED"/>
<path d="M13.2101 11.6211C12.9291 11.8059 12.6192 11.9527 12.2862 12.0534L11.9546 12.1533C11.6791 12.2364 11.385 12.2364 11.1089 12.1533L10.7774 12.0534C10.444 11.9531 10.1341 11.8059 9.85352 11.6211V12.5061C10.1345 12.6908 10.4444 12.8377 10.7774 12.9384L11.1089 13.0382C11.3845 13.1214 11.6786 13.1214 11.9546 13.0382L12.2862 12.9384C12.6196 12.8381 12.9295 12.6908 13.2101 12.5061V11.6211Z" fill="#EBECED"/>
<path d="M14.2187 17.3651C14.8162 17.3651 15.3006 16.8807 15.3006 16.2831C15.3006 15.6856 14.8162 15.2012 14.2187 15.2012C13.6211 15.2012 13.1367 15.6856 13.1367 16.2831C13.1367 16.8807 13.6211 17.3651 14.2187 17.3651Z" fill="#1C274C"/>
<path d="M8.03686 5.64925C7.94244 4.05004 8.4448 3.83907 9.03208 3.71981C9.08945 2.73905 9.74223 1.98462 11.5343 1.97559C13.5356 1.97559 15.1299 3.65024 15.0318 5.64925L15.0219 5.91082C15.0178 6.01517 14.8814 6.05222 14.8258 5.96367C14.5959 5.5973 14.4129 5.39446 14.4129 5.39446C14.4129 5.39446 10.5744 5.67817 9.17844 4.55149C8.84776 5.62621 8.52069 5.88145 8.24241 6.1245C8.17645 6.18232 8.073 6.13941 8.06623 6.05222L8.03686 5.64925Z" fill="#1C274C"/>
<path d="M6.16006 4.35352C5.786 4.62638 5.42821 4.93131 5.09075 5.26877C2.58894 7.77104 1.86161 11.3751 2.90878 14.5184L3.11749 14.3016C3.29458 14.1173 3.3655 13.8557 3.30632 13.6073C3.03482 12.4702 3.00274 11.2848 3.21914 10.1175C3.52904 8.44551 4.3309 6.92355 5.53844 5.71601C5.68526 5.56919 5.8366 5.42869 5.992 5.29407C6.26351 5.05961 6.33669 4.66884 6.16141 4.35532L6.16006 4.35352Z" fill="#EBECED"/>
<path d="M19.257 3.87816C17.1794 1.80054 14.4169 0.65625 11.4787 0.65625C8.96246 0.65625 6.57539 1.49606 4.63646 3.04197C4.1436 2.6128 3.39278 2.63222 2.92386 3.1016C2.45494 3.57097 2.43506 4.32133 2.86423 4.8142C1.31833 6.75313 0.478516 9.1402 0.478516 11.6565C0.478516 14.5947 1.62281 17.3572 3.70043 19.4348C5.64117 21.3755 8.21888 22.5157 10.9588 22.6445C11.1331 22.6526 11.3075 22.6567 11.4814 22.6567C13.9697 22.6567 16.3758 21.8191 18.321 20.2705C18.5568 20.4761 18.8509 20.5786 19.1455 20.5786C19.4671 20.5786 19.7888 20.4562 20.0341 20.2113C20.5238 19.7216 20.5238 18.9243 20.0341 18.4346C19.5444 17.9449 18.747 17.9449 18.2573 18.4346C17.8227 18.8692 17.7739 19.545 18.11 20.0343C16.0912 21.6362 13.5636 22.4507 10.9737 22.3287C8.31284 22.2036 5.80922 21.0963 3.92405 19.2112C1.90606 17.1932 0.794744 14.5102 0.794744 11.6565C0.794744 9.2188 1.60655 6.90582 3.10095 5.02517C3.31418 5.17199 3.5631 5.24562 3.81246 5.24562C4.13411 5.24562 4.45576 5.1232 4.70106 4.87835C5.13565 4.44376 5.18444 3.76748 4.84789 3.27868C6.72809 1.78428 9.04062 0.972478 11.4787 0.972478C14.3325 0.972478 17.0154 2.08379 19.0334 4.10178C22.6506 7.71898 23.1968 13.4133 20.3318 17.6413C20.283 17.7136 20.3015 17.8121 20.3738 17.8609C20.4461 17.9097 20.5445 17.8911 20.5933 17.8189C23.5433 13.4653 22.9813 7.60243 19.257 3.87816ZM18.4805 18.6582C18.6639 18.4748 18.9047 18.3831 19.1455 18.3831C19.3862 18.3831 19.627 18.4748 19.8104 18.6582C20.1768 19.0246 20.1768 19.6214 19.8104 19.9877C19.4441 20.3546 18.8473 20.3546 18.4809 19.9877C18.1141 19.6214 18.1141 19.0246 18.4805 18.6582ZM4.47699 4.65473C4.11062 5.02155 3.51385 5.02155 3.14748 4.65473C2.78111 4.28836 2.78111 3.69159 3.14748 3.32522C3.33089 3.1418 3.57168 3.0501 3.81246 3.0501C4.05325 3.0501 4.29403 3.1418 4.47745 3.32522C4.84337 3.69159 4.84337 4.28836 4.47699 4.65473Z" fill="#2A3853"/>
<path d="M4.0808 17.9097C4.26331 17.9097 4.44672 17.8631 4.61342 17.7674C4.73178 17.9002 4.85465 18.0303 4.98024 18.1563C5.51241 18.6885 6.10647 19.1524 6.74525 19.5369C6.97609 20.0984 7.492 20.5104 8.12039 20.5953C9.13909 20.7336 10.2734 20.8022 11.425 20.8022C12.6172 20.8022 13.8283 20.7282 14.9487 20.5809C15.7437 20.4761 16.3586 19.8459 16.4444 19.0476L16.7358 16.3394C16.8781 15.0184 16.0062 13.7964 14.7088 13.496C14.4341 13.4323 14.1558 13.3763 13.8812 13.3293C13.7949 13.3149 13.7136 13.3727 13.6987 13.4585C13.6837 13.5448 13.742 13.6261 13.8279 13.641C14.0966 13.6871 14.3691 13.7418 14.6378 13.8037C15.7799 14.0679 16.547 15.1431 16.4218 16.305L16.1304 19.0133C16.0604 19.6661 15.5576 20.1815 14.9075 20.2669C12.7314 20.5533 10.2102 20.5587 8.16285 20.2814C7.51233 20.1933 7.00907 19.6778 6.93905 19.0277L6.64631 16.3055C6.52118 15.1436 7.28826 14.0684 8.43029 13.8041C8.87888 13.7002 9.33335 13.6189 9.78239 13.5606C10.217 14.0472 10.8332 14.325 11.4869 14.325C12.1767 14.325 12.8227 14.0178 13.2595 13.482C13.2826 13.454 13.2952 13.4183 13.2952 13.3822V11.7726C13.2952 11.7667 13.2943 11.7613 13.2934 11.7559C14.1689 11.1808 14.7738 10.2506 14.9288 9.19441L15.3195 9.02093C15.6281 8.8836 15.8436 8.59041 15.8815 8.25476L15.9719 7.46057C15.9945 7.26225 15.9312 7.06303 15.798 6.91395C15.6647 6.76487 15.474 6.67949 15.2744 6.67949H15.0702L15.0742 6.59863C15.0788 6.51144 15.0115 6.43735 14.9243 6.43283C14.8366 6.42877 14.763 6.49563 14.7585 6.58281L14.6482 8.82307C14.5782 10.252 13.6106 11.4893 12.2408 11.9022L11.9093 12.0021C11.6626 12.0766 11.4015 12.0766 11.1548 12.0021L10.8232 11.9022C9.45352 11.4893 8.48631 10.252 8.41583 8.82307L8.30561 6.58281C8.30154 6.49563 8.22745 6.42831 8.13981 6.43283C8.05262 6.4369 7.98531 6.51144 7.98983 6.59863L7.9939 6.67949H7.79241C7.59274 6.67949 7.4021 6.76487 7.26883 6.91395C7.13556 7.06303 7.07232 7.26225 7.0949 7.46057L7.18526 8.25476C7.2232 8.59041 7.43869 8.88405 7.74724 9.02093L8.13484 9.19305C8.28528 10.2185 8.85901 11.1257 9.6934 11.7044L9.69204 13.2525C9.24842 13.3121 8.80073 13.3935 8.35801 13.496C7.06012 13.796 6.18869 15.0184 6.33099 16.3394L6.62418 19.0621C6.62508 19.0711 6.62644 19.0802 6.62779 19.0896C6.11686 18.7553 5.6389 18.3677 5.20341 17.9327C5.0864 17.8157 4.97211 17.6946 4.86143 17.5713C5.2016 17.209 5.25401 16.6447 4.95765 16.2219C4.79322 15.987 4.54746 15.8302 4.26511 15.7805C3.98277 15.7308 3.69816 15.7936 3.46325 15.9581C2.97852 16.2973 2.86016 16.9677 3.19943 17.4529C3.40859 17.7502 3.74243 17.9097 4.0808 17.9097ZM15.2748 6.99527C15.386 6.99527 15.4881 7.04089 15.5626 7.12402C15.6371 7.20714 15.6706 7.31375 15.6579 7.42443L15.5676 8.21862C15.5423 8.44314 15.3977 8.63965 15.1912 8.73136L14.9645 8.8321L15.0548 6.99527H15.2748ZM7.50013 8.21907L7.40978 7.42489C7.39713 7.31421 7.43101 7.20759 7.5051 7.12447C7.57919 7.04135 7.68128 6.99572 7.79287 6.99572H8.00971L8.10006 8.83165L7.87644 8.73226C7.66999 8.6401 7.52588 8.44359 7.50013 8.21907ZM10.7324 12.2054L11.064 12.3052C11.2172 12.3513 11.3748 12.3743 11.5325 12.3743C11.6902 12.3743 11.8478 12.3513 12.001 12.3052L12.3325 12.2054C12.5589 12.1371 12.7748 12.0481 12.979 11.9411V13.3243C12.6036 13.7598 12.0628 14.0083 11.4869 14.0083C10.9195 14.0083 10.3837 13.7657 10.0087 13.3402L10.0101 11.8995C10.2369 12.0256 10.4781 12.1286 10.7324 12.2054ZM3.64531 16.2165C3.77406 16.1266 3.92404 16.0796 4.07764 16.0796C4.12191 16.0796 4.16618 16.0837 4.2109 16.0913C4.41013 16.1266 4.5836 16.2373 4.69925 16.4026C4.93868 16.7446 4.85511 17.2176 4.51313 17.457C4.17115 17.6964 3.69816 17.6129 3.45873 17.2709C3.21976 16.9289 3.30333 16.4559 3.64531 16.2165Z" fill="#1C274C"/>
<path d="M5.20202 5.3805C6.08927 4.49326 7.12785 3.81743 8.28886 3.3711C8.37018 3.33993 8.41129 3.24822 8.37966 3.16691C8.34849 3.08559 8.25678 3.04448 8.17547 3.0761C6.97245 3.53825 5.89682 4.23847 4.9784 5.15688C3.65747 6.47781 2.77971 8.14343 2.4409 9.97349C2.10976 11.7606 2.30899 13.5862 3.01643 15.2531C3.04218 15.3132 3.10046 15.3494 3.1619 15.3494C3.18268 15.3494 3.20346 15.3453 3.22379 15.3367C3.3042 15.3024 3.3417 15.2098 3.30736 15.1294C2.62386 13.5198 2.43186 11.757 2.7517 10.0309C3.07923 8.26405 3.92627 6.65581 5.20202 5.3805Z" fill="#2A3853"/>
<path d="M17.7536 17.9327C17.5793 18.1066 17.3968 18.2751 17.2102 18.4332C17.1438 18.4897 17.1352 18.5895 17.1917 18.6559C17.2228 18.693 17.2676 18.7119 17.3123 18.7119C17.3484 18.7119 17.3846 18.6997 17.4144 18.6744C17.6073 18.5109 17.797 18.3365 17.9773 18.1563C20.9128 15.2208 21.4431 10.7778 19.5702 7.29656C19.9903 6.94284 20.0784 6.31896 19.7576 5.86088C19.4369 5.40235 18.8202 5.2718 18.3441 5.54601C18.2262 5.41365 18.1042 5.28399 17.9773 5.1575C17.2495 4.42973 16.4156 3.83477 15.4989 3.38888C15.4203 3.35094 15.3259 3.38346 15.2875 3.46207C15.2491 3.54067 15.2821 3.63509 15.3607 3.67349C16.2457 4.10401 17.0512 4.67864 17.7536 5.38157C17.8716 5.49948 17.9854 5.6201 18.0952 5.74298C17.7555 6.10528 17.7031 6.66953 17.999 7.09237C18.1634 7.32728 18.4091 7.48404 18.6915 7.53373C18.7543 7.54503 18.8175 7.55045 18.8803 7.55045C19.0253 7.55045 19.1672 7.52063 19.3 7.46326C21.0989 10.8216 20.5839 15.1029 17.7536 17.9327ZM18.7471 7.22202C18.5478 7.18678 18.3744 7.0761 18.2587 6.91076C18.0193 6.56878 18.1029 6.0958 18.4448 5.85637C18.5767 5.76421 18.7281 5.71994 18.8776 5.71994C19.1166 5.71994 19.352 5.83242 19.4988 6.04249C19.7382 6.38447 19.6546 6.85746 19.3127 7.09689C19.1469 7.21253 18.9463 7.25726 18.7471 7.22202Z" fill="#2A3853"/>
</svg>
