<svg width="23" height="23" viewBox="0 0 23 23" fill="none" xmlns="http://www.w3.org/2000/svg">
<path d="M12.106 19.3052H11.7759C11.6596 19.3052 11.5584 19.2262 11.5302 19.1136L11.4844 18.9307H12.3993L12.3507 19.1159C12.3216 19.2276 12.2208 19.3052 12.106 19.3052Z" fill="#EBECED"/>
<path d="M11.7777 21.2998H12.1078C12.224 21.2998 12.3253 21.3788 12.3534 21.4914L12.3993 21.6744H11.4844L11.533 21.4891C11.5616 21.3779 11.6624 21.2998 11.7777 21.2998Z" fill="#EBECED"/>
<path d="M13.3042 14.9666H10.5754C10.2508 14.9666 9.96158 14.7613 9.85442 14.4544L9.85352 14.4521H14.0257C13.9195 14.7604 13.6298 14.9666 13.3042 14.9666Z" fill="#EBECED"/>
<path d="M11.3516 19.9874C9.34517 19.9874 7.71289 18.3546 7.71289 16.3474C7.71289 16.2598 7.78418 16.1885 7.87181 16.1885C7.95943 16.1885 8.03072 16.2598 8.03072 16.3474C8.03072 18.1792 9.52043 19.6695 11.3516 19.6695C11.4392 19.6695 11.5105 19.7408 11.5105 19.8284C11.5105 19.9161 11.4392 19.9874 11.3516 19.9874Z" fill="#2A3853"/>
<path d="M14.7126 13.1697V10.2137C14.7126 9.18861 13.8817 8.35742 12.8569 8.35742H11.0217C9.99691 8.35742 9.16602 9.18861 9.16602 10.2137V13.1697H14.7126Z" fill="#1C274C" fill-opacity="0.5"/>
<path d="M12.5358 18.3554H11.3435C11.2704 18.3554 11.2109 18.2959 11.2109 18.2228V18.0144C11.2109 17.9413 11.2704 17.8818 11.3435 17.8818H12.5358C12.6089 17.8818 12.6684 17.9413 12.6684 18.0144V18.2228C12.6684 18.2959 12.6089 18.3554 12.5358 18.3554Z" fill="#EBECED"/>
<path d="M17.5908 3.26661C17.6362 3.20895 17.6593 3.12904 17.6593 3.02733C17.6593 2.94787 17.6407 2.87795 17.6044 2.81756C17.5676 2.75718 17.5168 2.71177 17.4514 2.68181C17.3896 2.6532 17.2684 2.63867 17.0868 2.63867H16.5996V3.42553H17.0723C17.1989 3.42553 17.3056 3.41372 17.3924 3.3892C17.4791 3.36559 17.5449 3.32473 17.5908 3.26661Z" fill="#1C274C" fill-opacity="0.5"/>
<path d="M12.9395 3.94659H13.7181L13.3249 2.76562L12.9395 3.94659Z" fill="#1C274C" fill-opacity="0.5"/>
<path d="M7.29985 2.73329C7.18543 2.65474 7.05421 2.61523 6.9062 2.61523C6.80086 2.61523 6.70324 2.63703 6.61379 2.68062C6.52435 2.7242 6.44716 2.78777 6.38269 2.87086C6.31821 2.95395 6.26736 3.06065 6.22968 3.19005C6.19244 3.31945 6.17383 3.4652 6.17383 3.62638C6.17383 3.78893 6.19244 3.93604 6.22968 4.06771C6.26691 4.19938 6.31958 4.3079 6.38768 4.39462C6.45579 4.48134 6.53388 4.54582 6.62242 4.58895C6.7105 4.63208 6.80767 4.65342 6.91301 4.65342C7.04831 4.65342 7.17226 4.61619 7.28532 4.54218C7.39838 4.46818 7.48873 4.3533 7.55548 4.19848C7.62222 4.04365 7.65582 3.85295 7.65582 3.62638C7.65582 3.41707 7.62494 3.23545 7.56319 3.08199C7.5019 2.92807 7.41427 2.81183 7.29985 2.73329Z" fill="#1C274C" fill-opacity="0.5"/>
<path d="M18.4738 0.973633H5.40466C4.87797 0.973633 4.45117 1.40058 4.45117 1.92745V5.34077C4.45117 5.86765 4.87797 6.2946 5.40466 6.2946H18.4738C19.0005 6.2946 19.4273 5.86765 19.4273 5.34077V1.92745C19.4273 1.40058 19.0005 0.973633 18.4738 0.973633ZM8.10893 4.23389C8.05444 4.41466 7.97271 4.57181 7.86374 4.70444C7.75478 4.83707 7.62083 4.93881 7.46192 5.00921C7.303 5.07961 7.12139 5.11458 6.91616 5.11458C6.7123 5.11458 6.52977 5.07825 6.36859 5.00603C6.2074 4.93381 6.07301 4.83207 5.96494 4.70035C5.85688 4.56909 5.77561 4.41057 5.72067 4.22571C5.66573 4.04085 5.63804 3.841 5.63804 3.62617C5.63804 3.40633 5.66664 3.20421 5.7243 3.02072C5.78197 2.83722 5.86506 2.68097 5.97403 2.55198C6.083 2.42299 6.21558 2.32443 6.37222 2.2563C6.52841 2.18817 6.70639 2.15365 6.90526 2.15365C7.17542 2.15365 7.40743 2.21406 7.60131 2.33442C7.79518 2.45478 7.94184 2.62602 8.04127 2.84812C8.14071 3.07022 8.19065 3.33094 8.19065 3.63025C8.19065 3.85145 8.16341 4.05266 8.10893 4.23389ZM10.83 4.7376C10.83 4.98877 10.7351 5.11458 10.5458 5.11458C10.4985 5.11458 10.4559 5.10686 10.4177 5.09233C10.3796 5.07734 10.3442 5.05372 10.311 5.02102C10.2779 4.98831 10.247 4.95062 10.2184 4.90656C10.1898 4.86295 10.1616 4.81844 10.133 4.77302L9.14323 3.10565V4.78302C9.14323 4.89248 9.12008 4.97514 9.07376 5.03101C9.02745 5.08688 8.96843 5.11504 8.89623 5.11504C8.82177 5.11504 8.76184 5.08688 8.71689 5.0301C8.67194 4.97333 8.64924 4.89112 8.64924 4.78302V2.57378C8.64924 2.48022 8.65877 2.40664 8.67784 2.35304C8.70054 2.29445 8.73777 2.24676 8.78999 2.20951C8.8422 2.17227 8.8985 2.15365 8.95889 2.15365C9.00611 2.15365 9.04698 2.16228 9.08057 2.17908C9.11417 2.19589 9.14414 2.2186 9.16957 2.24721C9.19499 2.27583 9.22087 2.31307 9.24766 2.35849C9.27445 2.40391 9.30169 2.4516 9.3303 2.50111L10.3451 4.18801V2.48612C10.3451 2.3753 10.3669 2.29263 10.41 2.23722C10.4531 2.18181 10.5117 2.1541 10.5853 2.1541C10.6611 2.1541 10.721 2.18181 10.7646 2.23722C10.8087 2.29263 10.8304 2.37575 10.8304 2.48612V4.7376H10.83ZM14.4728 5.03146C14.4224 5.08688 14.3615 5.11458 14.2907 5.11458C14.2494 5.11458 14.2135 5.10641 14.184 5.09005C14.1545 5.0737 14.1295 5.05145 14.1095 5.02374C14.0896 4.99558 14.0678 4.95289 14.0446 4.89475C14.0215 4.83707 14.0015 4.78574 13.9851 4.74123L13.8607 4.38196H12.8014L12.677 4.74895C12.6285 4.89202 12.5871 4.98877 12.5526 5.03873C12.5181 5.08869 12.4618 5.11413 12.3837 5.11413C12.3174 5.11413 12.2589 5.08733 12.2076 5.03419C12.1567 4.98105 12.1313 4.92018 12.1313 4.85251C12.1313 4.81345 12.1372 4.77302 12.149 4.73124C12.1608 4.68945 12.1803 4.63177 12.2076 4.55728L12.8741 2.69823C12.8932 2.64509 12.9159 2.5806 12.9426 2.50611C12.9694 2.43116 12.9976 2.36894 13.028 2.31943C13.0584 2.26992 13.0979 2.22995 13.147 2.19952C13.196 2.16909 13.2568 2.15365 13.329 2.15365C13.4026 2.15365 13.4639 2.16909 13.5129 2.19952C13.562 2.22995 13.6019 2.26947 13.6319 2.31761C13.6623 2.36576 13.6877 2.41754 13.7082 2.47295C13.729 2.52836 13.7554 2.60194 13.7872 2.6946L14.4678 4.54183C14.5209 4.68264 14.5477 4.78483 14.5477 4.84842C14.5486 4.91519 14.5232 4.97605 14.4728 5.03146ZM15.4853 4.76076C15.4853 4.87931 15.4608 4.96788 15.4117 5.02647C15.3627 5.08506 15.2982 5.11413 15.2188 5.11413C15.1429 5.11413 15.0803 5.0846 15.0312 5.0251C14.9822 4.96606 14.9577 4.87749 14.9577 4.76031V2.50565C14.9577 2.38847 14.9817 2.30081 15.0303 2.24222C15.0789 2.18362 15.1416 2.15455 15.2188 2.15455C15.2982 2.15455 15.3622 2.18362 15.4117 2.24131C15.4608 2.29945 15.4853 2.38756 15.4853 2.50611V4.76076ZM18.2073 4.99422C18.1855 5.03146 18.1555 5.06053 18.1174 5.08188C18.0792 5.10323 18.0356 5.11413 17.9857 5.11413C17.9262 5.11413 17.8767 5.09868 17.8363 5.06825C17.7959 5.03782 17.7614 4.99876 17.7323 4.95198C17.7033 4.9052 17.6638 4.83616 17.6143 4.74486L17.4027 4.35834C17.3269 4.21663 17.2592 4.10853 17.1993 4.03404C17.1394 3.95955 17.0785 3.90913 17.0172 3.88188C16.9555 3.85463 16.8778 3.841 16.7843 3.841H16.5995V4.76076C16.5995 4.88203 16.575 4.97105 16.5268 5.02828C16.4783 5.08551 16.4147 5.11413 16.3366 5.11413C16.2526 5.11413 16.1872 5.08415 16.1409 5.0242C16.0946 4.96424 16.0714 4.87658 16.0714 4.76076V2.55834C16.0714 2.43343 16.0969 2.34305 16.1477 2.28673C16.1986 2.23086 16.2812 2.2027 16.3947 2.2027H17.2533C17.3718 2.2027 17.4731 2.20815 17.5571 2.21951C17.6411 2.23041 17.7169 2.25312 17.7845 2.28673C17.8663 2.32443 17.9385 2.37848 18.0016 2.44888C18.0642 2.51928 18.1119 2.60103 18.1446 2.69415C18.1773 2.78726 18.1936 2.88582 18.1936 2.98983C18.1936 3.2033 18.1387 3.37408 18.0293 3.50126C17.9198 3.62889 17.7537 3.71928 17.5307 3.77287C17.6243 3.82738 17.7137 3.90822 17.7991 4.01496C17.8844 4.1217 17.9607 4.23525 18.0275 4.35561C18.0942 4.47598 18.1464 4.58453 18.1841 4.68173C18.2213 4.77893 18.2399 4.84524 18.2399 4.88203C18.2399 4.91973 18.229 4.95697 18.2073 4.99422Z" fill="#1C274C" fill-opacity="0.5"/>
<path d="M4.29182 22.5227C4.27457 22.5227 4.25732 22.52 4.24006 22.5141C4.15697 22.4855 4.11293 22.3951 4.14154 22.312L4.52702 21.1942C4.55562 21.1111 4.64598 21.067 4.72906 21.0956C4.81215 21.1242 4.8562 21.2146 4.82759 21.2977L4.44211 22.4155C4.41941 22.4814 4.35766 22.5227 4.29182 22.5227Z" fill="#F46E94"/>
<path d="M1.07498 19.1721C1.00869 19.1721 0.946484 19.1298 0.924236 19.0635C0.896539 18.9805 0.941035 18.8901 1.02458 18.8624L2.14561 18.4869C2.2287 18.4588 2.31905 18.5037 2.34675 18.5873C2.37444 18.6703 2.32995 18.7607 2.2464 18.7884L1.12538 19.1639C1.10858 19.1693 1.09132 19.1721 1.07498 19.1721Z" fill="#F46E94"/>
<path d="M19.8557 7.7426C19.8253 7.7426 19.7944 7.73397 19.7671 7.71535C19.6945 7.66632 19.6754 7.56734 19.7245 7.49469L20.3855 6.51442C20.4346 6.44177 20.5336 6.42224 20.6062 6.47174C20.6789 6.52077 20.6979 6.61975 20.6489 6.6924L19.9878 7.67267C19.9569 7.71762 19.907 7.7426 19.8557 7.7426Z" fill="#F46E94"/>
<path d="M21.5788 10.4081C21.4962 10.4081 21.4262 10.344 21.4203 10.2605C21.414 10.1729 21.4798 10.097 21.5675 10.0907L22.7466 10.0062C22.8347 10.0003 22.9101 10.0657 22.9164 10.1533C22.9228 10.241 22.8569 10.3168 22.7693 10.3231L21.5902 10.4076C21.5865 10.4081 21.5824 10.4081 21.5788 10.4081Z" fill="#F46E94"/>
<path d="M10.2331 15.2812C10.1455 15.2812 10.0742 15.3525 10.0742 15.4402V16.4795C10.0742 16.5671 10.1455 16.6384 10.2331 16.6384C10.3208 16.6384 10.392 16.5671 10.392 16.4795V15.4402C10.392 15.3521 10.3208 15.2812 10.2331 15.2812Z" fill="#2A3853"/>
<path d="M11.3699 16.6384C11.4575 16.6384 11.5288 16.5671 11.5288 16.4795V15.4402C11.5288 15.3525 11.4575 15.2812 11.3699 15.2812C11.2822 15.2812 11.2109 15.3525 11.2109 15.4402V16.4795C11.2109 16.5671 11.2822 16.6384 11.3699 16.6384Z" fill="#2A3853"/>
<path d="M12.5085 16.6384C12.5962 16.6384 12.6674 16.5671 12.6674 16.4795V15.4402C12.6674 15.3525 12.5962 15.2812 12.5085 15.2812C12.4209 15.2812 12.3496 15.3525 12.3496 15.4402V16.4795C12.3496 16.5671 12.4209 16.6384 12.5085 16.6384Z" fill="#2A3853"/>
<path d="M13.6433 16.6384C13.7309 16.6384 13.8022 16.5671 13.8022 16.4795V15.4402C13.8022 15.3525 13.7309 15.2812 13.6433 15.2812C13.5557 15.2812 13.4844 15.3525 13.4844 15.4402V16.4795C13.4844 16.5671 13.5557 16.6384 13.6433 16.6384Z" fill="#2A3853"/>
<path d="M17.0664 8.99439C16.9978 8.93989 16.8975 8.95124 16.843 9.02028C16.7885 9.08887 16.7999 9.18925 16.8689 9.24375C18.2773 10.3611 19.0851 12.0321 19.0851 13.8285C19.0851 15.6244 18.2773 17.2954 16.8689 18.4132C16.8003 18.4677 16.7885 18.5676 16.843 18.6366C16.8743 18.6761 16.9207 18.697 16.9674 18.697C17.0019 18.697 17.0369 18.6857 17.0659 18.6625C18.5507 17.4843 19.4024 15.7225 19.4024 13.8289C19.4029 11.9344 18.5511 10.1726 17.0664 8.99439Z" fill="#2A3853"/>
<path d="M18.2778 7.71216C18.2101 7.65629 18.1098 7.66583 18.0539 7.73351C17.9981 7.80118 18.0076 7.90156 18.0753 7.95743C19.8338 9.40905 20.8422 11.5488 20.8422 13.8271C20.8422 16.0858 19.8479 18.2133 18.1143 19.664C18.0471 19.7203 18.0381 19.8207 18.0944 19.8879C18.1257 19.9256 18.1711 19.9447 18.2165 19.9447C18.2524 19.9447 18.2887 19.9324 18.3182 19.9075C20.1244 18.3963 21.16 16.1798 21.16 13.8266C21.1605 11.4534 20.1098 9.22465 18.2778 7.71216Z" fill="#2A3853"/>
<path d="M7.00861 9.24361C7.07717 9.18911 7.08898 9.08918 7.03449 9.02014C6.98001 8.95156 6.88012 8.93975 6.81111 8.99425C5.32639 10.1724 4.47461 11.9343 4.47461 13.8279C4.47461 15.7214 5.32639 17.4833 6.81111 18.6615C6.84016 18.6846 6.87512 18.696 6.90963 18.696C6.9564 18.696 7.00271 18.6755 7.03404 18.6356C7.08852 18.567 7.07717 18.4666 7.00816 18.4121C5.60018 17.2952 4.79244 15.6242 4.79244 13.8279C4.79244 12.0319 5.60018 10.3609 7.00861 9.24361Z" fill="#2A3853"/>
<path d="M3.03463 13.8268C3.03463 11.5681 4.02898 9.44058 5.7625 7.98987C5.8297 7.93355 5.83878 7.83317 5.78248 7.76595C5.72618 7.69872 5.62584 7.68964 5.55864 7.74596C3.75246 9.25754 2.7168 11.474 2.7168 13.8268C2.7168 16.18 3.75246 18.3961 5.55864 19.9076C5.58815 19.9326 5.62448 19.9449 5.66035 19.9449C5.70575 19.9449 5.7507 19.9254 5.78248 19.8881C5.83878 19.8209 5.8297 19.7205 5.7625 19.6642C4.02898 18.213 3.03463 16.0855 3.03463 13.8268Z" fill="#2A3853"/>
<path d="M15.7747 13.6511H15.6421V13.5003C15.6421 13.2301 15.4224 13.0098 15.1518 13.0098H8.72481C8.45466 13.0098 8.23445 13.2296 8.23445 13.5003V13.6511H8.10187C7.8862 13.6511 7.71094 13.8264 7.71094 14.0422V16.3468C7.71094 18.3071 9.26875 19.91 11.2107 19.9831V21.5151H10.6881C9.97206 21.5151 9.38953 22.0979 9.38953 22.8141C9.38953 22.9018 9.46081 22.9731 9.54844 22.9731H14.3281C14.4158 22.9731 14.487 22.9018 14.487 22.8141C14.487 22.0979 13.9045 21.5151 13.1885 21.5151H12.6659V19.9831C14.6083 19.9095 16.1656 18.3071 16.1656 16.3468V14.0422C16.1656 13.8269 15.9904 13.6511 15.7747 13.6511ZM8.55228 13.5003C8.55228 13.4054 8.62946 13.3277 8.72481 13.3277H15.1518C15.2467 13.3277 15.3243 13.4049 15.3243 13.5003V14.1203C15.3243 14.2152 15.2471 14.2929 15.1518 14.2929H8.72481C8.62992 14.2929 8.55228 14.2157 8.55228 14.1203V13.5003ZM8.02922 16.3468V14.0422C8.02922 14.0017 8.06191 13.969 8.10232 13.969H8.2349V14.1198C8.2349 14.3901 8.45466 14.6104 8.72527 14.6104H9.00632V16.3436C9.00632 16.9818 9.31325 17.5886 9.82722 17.9674C9.85537 17.9883 9.88852 17.9983 9.92121 17.9983C9.96979 17.9983 10.0179 17.976 10.0492 17.9338C10.1015 17.8629 10.086 17.7634 10.0156 17.7117C9.58249 17.3923 9.32415 16.8814 9.32415 16.3441V14.6108H14.5533V16.3441C14.5533 17.0667 14.0997 17.6844 13.4623 17.9288V17.5386C13.4623 17.3229 13.287 17.1475 13.0713 17.1475H10.8057C10.59 17.1475 10.4148 17.3229 10.4148 17.5386V18.2335C10.4148 18.6855 10.7671 19.0552 11.2111 19.0856V19.6652C9.44401 19.592 8.02922 18.1318 8.02922 16.3468ZM12.6073 18.7708H11.2697C10.9737 18.7708 10.7326 18.5297 10.7326 18.2335V17.5386C10.7326 17.4982 10.7653 17.4655 10.8057 17.4655H13.0713C13.1118 17.4655 13.1444 17.4982 13.1444 17.5386V18.2335C13.1444 18.5301 12.9034 18.7708 12.6073 18.7708ZM14.1565 22.6552H9.72052C9.7968 22.1896 10.2018 21.8331 10.6885 21.8331H13.1885C13.6752 21.8331 14.0802 22.1896 14.1565 22.6552ZM11.529 21.5151V19.0888H12.3481V21.5151H11.529ZM15.8478 16.3468C15.8478 18.1318 14.4326 19.592 12.6659 19.6652V19.0856C13.099 19.0561 13.4441 18.7027 13.4605 18.2658C14.2768 18.0082 14.8707 17.2443 14.8707 16.3436V14.6104H15.1518C15.4219 14.6104 15.6421 14.3905 15.6421 14.1198V13.969H15.7747C15.8151 13.969 15.8478 14.0017 15.8478 14.0422V16.3468Z" fill="#2A3853"/>
</svg>
