<svg width="22" height="20" viewBox="0 0 22 20" fill="none" xmlns="http://www.w3.org/2000/svg">
<path d="M14.1258 18.4378L14.4257 18.0376L14.4257 18.0376L14.1258 18.4378ZM15.7969 11.4269L15.4455 11.7827C15.6403 11.975 15.9535 11.975 16.1482 11.7827L15.7969 11.4269ZM17.4679 18.4378L17.1681 18.0376L17.1681 18.0376L17.4679 18.4378ZM20.4442 11.1862L20.8059 10.841L20.4442 11.1862ZM13.6987 18.1224L13.4032 18.5257L13.6987 18.1224ZM10.7969 13.3281C10.7969 12.2583 11.4329 11.3507 12.318 10.9661C13.1776 10.5926 14.3383 10.6892 15.4455 11.7827L16.1482 11.0712C14.7805 9.72049 13.1912 9.49644 11.9195 10.049C10.6734 10.5904 9.79688 11.8555 9.79688 13.3281H10.7969ZM13.826 18.8379C14.1071 19.0485 14.4141 19.2772 14.7265 19.4507C15.0392 19.6244 15.4012 19.7686 15.7969 19.7686V18.7686C15.6426 18.7686 15.4546 18.7112 15.212 18.5765C14.9691 18.4416 14.7156 18.2549 14.4257 18.0376L13.826 18.8379ZM17.7677 18.8379C18.5466 18.2542 19.5601 17.5732 20.3546 16.7229C21.1662 15.8542 21.7969 14.7638 21.7969 13.3281H20.7969C20.7969 14.4346 20.3222 15.2928 19.6239 16.0402C18.9084 16.806 18.0075 17.4087 17.1681 18.0376L17.7677 18.8379ZM17.1681 18.0376C16.8781 18.2549 16.6247 18.4416 16.3817 18.5765C16.1392 18.7112 15.9512 18.7686 15.7969 18.7686V19.7686C16.1926 19.7686 16.5546 19.6244 16.8673 19.4507C17.1796 19.2772 17.4867 19.0485 17.7678 18.8379L17.1681 18.0376ZM21.7969 13.3281C21.7969 12.3604 21.4182 11.4824 20.8059 10.841L20.0825 11.5315C20.5227 11.9926 20.7969 12.6253 20.7969 13.3281H21.7969ZM20.8059 10.841C20.1803 10.1856 19.3067 9.77346 18.343 9.7686C17.3737 9.7637 16.3577 10.1703 15.4455 11.0712L16.1482 11.7827C16.8979 11.0423 17.6678 10.7652 18.3379 10.7686C19.0135 10.772 19.6326 11.0601 20.0825 11.5315L20.8059 10.841ZM14.4257 18.0376C14.2846 17.9319 14.1396 17.8256 13.9942 17.719L13.4032 18.5257C13.5488 18.6324 13.6898 18.7358 13.826 18.8379L14.4257 18.0376ZM13.9942 17.719C12.3923 16.5457 10.7969 15.3581 10.7969 13.3281H9.79688C9.79688 15.9471 11.8978 17.423 13.4032 18.5257L13.9942 17.719Z" fill="#1C274C"/>
<path opacity="0.5" d="M8.25861 17.608L8.57663 17.2221V17.2221L8.25861 17.608ZM11.2969 3.58628L10.929 3.92491C11.0237 4.02776 11.1571 4.08628 11.2969 4.08628C11.4367 4.08628 11.5701 4.02776 11.6647 3.92491L11.2969 3.58628ZM8.57663 17.2221C5.55987 14.7355 1.79688 12.1859 1.79688 7.38854H0.796875C0.796875 12.7605 5.07273 15.6299 7.94059 17.9938L8.57663 17.2221ZM1.79688 7.38854C1.79688 5.02108 3.07674 3.03426 4.82505 2.19866C6.5351 1.38135 8.8045 1.61699 10.929 3.92491L11.6647 3.24764C9.28941 0.667236 6.55881 0.261675 4.39382 1.29642C2.26709 2.31288 0.796875 4.67135 0.796875 7.38854H1.79688ZM7.94059 17.9938C8.45501 18.4178 8.99145 18.8564 9.5314 19.1863C10.0706 19.5158 10.6642 19.7695 11.2969 19.7695V18.7695C10.9296 18.7695 10.5231 18.6204 10.0528 18.333C9.58317 18.0461 9.10047 17.6539 8.57663 17.2221L7.94059 17.9938ZM21.7969 7.38854C21.7969 4.67135 20.3267 2.31288 18.1999 1.29642C16.0349 0.261675 13.3043 0.667236 10.929 3.24764L11.6647 3.92491C13.7892 1.61699 16.0587 1.38135 17.7687 2.19866C19.517 3.03426 20.7969 5.02108 20.7969 7.38854H21.7969ZM20.8953 11.403C21.4556 10.232 21.7969 8.90818 21.7969 7.38854H20.7969C20.7969 8.75123 20.4924 9.92813 19.9932 10.9714L20.8953 11.403ZM13.3901 17.7299C12.5676 18.375 11.8987 18.7695 11.2969 18.7695V19.7695C12.2835 19.7695 13.203 19.1475 14.0073 18.5168L13.3901 17.7299Z" fill="#1C274C"/>
</svg>
