<svg width="20" height="20" viewBox="0 0 20 20" fill="none" xmlns="http://www.w3.org/2000/svg">
<path d="M1.64203 11.4477C1.24061 8.60047 1.0399 7.17687 1.89296 6.25543C2.74603 5.33398 4.26469 5.33398 7.30203 5.33398H13.2917C16.3291 5.33398 17.8477 5.33398 18.7008 6.25543C19.5539 7.17687 19.3531 8.60047 18.9517 11.4477L18.571 14.1477C18.2562 16.3805 18.0988 17.4969 17.2914 18.1654C16.4839 18.834 15.2929 18.834 12.911 18.834H7.6827C5.3008 18.834 4.10985 18.834 3.30238 18.1654C2.49491 17.4969 2.33751 16.3805 2.02271 14.1477L1.64203 11.4477Z" stroke="#1C274C"/>
<path opacity="0.5" d="M17.1037 5.33398C17.3095 4.15969 16.4059 3.08398 15.2137 3.08398H5.38223C4.19005 3.08398 3.28644 4.15969 3.4922 5.33398M15.2481 3.08398C15.2736 2.85082 15.2864 2.7342 15.2866 2.63789C15.2886 1.71663 14.5947 0.942563 13.6787 0.844261C13.5829 0.833984 13.4656 0.833984 13.231 0.833984H7.36504C7.13046 0.833984 7.01316 0.833984 6.91741 0.844261C6.0014 0.942563 5.30748 1.71663 5.30948 2.63789C5.30969 2.7342 5.32245 2.8508 5.34799 3.08398" stroke="#1C274C"/>
<circle opacity="0.5" cx="14.3461" cy="9.38418" r="1.35" stroke="#1C274C"/>
<path opacity="0.5" d="M17.4951 17.0338L14.8993 15.1001C14.0622 14.4765 12.8156 14.4144 11.8942 14.9504L11.6541 15.0901C11.0137 15.4625 10.1426 15.4001 9.58921 14.942L6.13486 12.0828C5.44538 11.5121 4.33942 11.4816 3.6056 12.0131L2.41406 12.8761" stroke="#1C274C" stroke-linecap="round"/>
</svg>
