<svg width="19" height="19" viewBox="0 0 19 19" fill="none" xmlns="http://www.w3.org/2000/svg">
<path opacity="0.5" d="M18.2969 11.1855C18.2723 14.0874 18.1112 15.6872 17.0562 16.7422C15.8111 17.9873 13.8071 17.9873 9.79909 17.9873C5.79111 17.9873 3.78712 17.9873 2.542 16.7422C1.29688 15.4971 1.29688 13.4931 1.29688 9.48509C1.29688 5.4771 1.29688 3.47311 2.542 2.22799C3.59697 1.17302 5.19673 1.01191 8.09865 0.987305" stroke="#1C274C" stroke-linecap="round"/>
<path d="M18.298 5.23731H11.498C9.99484 5.23731 9.07257 5.95507 8.70571 6.31352C8.57985 6.43649 8.51692 6.49798 8.51282 6.50208C8.50872 6.50618 8.44724 6.56911 8.32426 6.69497C7.96581 7.06182 7.24805 7.9841 7.24805 9.48731V12.0373M18.298 5.23731L14.048 0.987305M18.298 5.23731L14.048 9.48731" stroke="#1C274C" stroke-linecap="round" stroke-linejoin="round"/>
</svg>
