<svg width="25" height="25" viewBox="0 0 25 25" fill="none" xmlns="http://www.w3.org/2000/svg">
<path opacity="0.5" d="M20.1719 22.7793V16.7793C20.1719 12.361 16.5902 8.7793 12.1719 8.7793C7.7536 8.7793 4.17188 12.361 4.17188 16.7793V22.7793" stroke="#1C274C"/>
<path d="M14.4629 12.2793C15.4656 12.6852 16.2662 13.4858 16.6721 14.4885" stroke="#1C274C" stroke-linecap="round"/>
<path d="M2.17188 22.7793H22.1719" stroke="#1C274C" stroke-linecap="round"/>
<path d="M12.1719 2.7793V5.7793" stroke="#1C274C" stroke-linecap="round"/>
<path d="M21.1719 6.7793L19.6719 8.2793" stroke="#1C274C" stroke-linecap="round"/>
<path d="M3.17188 6.7793L4.67188 8.2793" stroke="#1C274C" stroke-linecap="round"/>
<path d="M13.6719 18.2793C13.6719 19.1077 13.0003 19.7793 12.1719 19.7793C11.3434 19.7793 10.6719 19.1077 10.6719 18.2793C10.6719 17.4509 11.3434 16.7793 12.1719 16.7793C13.0003 16.7793 13.6719 17.4509 13.6719 18.2793Z" stroke="#1C274C"/>
<path opacity="0.5" d="M12.1719 19.7793V22.7793" stroke="#1C274C" stroke-linecap="round"/>
</svg>
