<svg width="25" height="25" viewBox="0 0 25 25" fill="none" xmlns="http://www.w3.org/2000/svg">
<path opacity="0.5" d="M13.8203 22.1562C14.0965 22.1562 14.3203 21.9324 14.3203 21.6562C14.3203 21.3801 14.0965 21.1562 13.8203 21.1562V22.1562ZM3.99189 20.4847L4.34544 20.1311H4.34544L3.99189 20.4847ZM21.6487 4.82782L21.2952 5.18138V5.18138L21.6487 4.82782ZM22.3203 13.6562C22.3203 13.9324 22.5442 14.1562 22.8203 14.1562C23.0965 14.1562 23.3203 13.9324 23.3203 13.6562H22.3203ZM10.8203 4.15625H14.8203V3.15625H10.8203V4.15625ZM3.32031 13.6562V12.6562H2.32031V13.6562H3.32031ZM3.32031 12.6562V11.6562H2.32031V12.6562H3.32031ZM13.8203 21.1562H10.8203V22.1562H13.8203V21.1562ZM22.3203 11.6562V12.6562H23.3203V11.6562H22.3203ZM2.32031 13.6562C2.32031 15.5277 2.31925 16.9816 2.47122 18.112C2.62512 19.2567 2.94416 20.1441 3.63833 20.8382L4.34544 20.1311C3.86804 19.6537 3.60129 19.0125 3.4623 17.9787C3.32137 16.9305 3.32031 15.556 3.32031 13.6562H2.32031ZM10.8203 21.1562C8.92056 21.1562 7.54604 21.1552 6.49785 21.0143C5.46404 20.8753 4.82284 20.6085 4.34544 20.1311L3.63833 20.8382C4.3325 21.5324 5.2199 21.8514 6.3646 22.0053C7.49492 22.1573 8.94883 22.1562 10.8203 22.1562V21.1562ZM14.8203 4.15625C16.7201 4.15625 18.0946 4.15731 19.1428 4.29824C20.1766 4.43723 20.8178 4.70397 21.2952 5.18138L22.0023 4.47427C21.3081 3.7801 20.4207 3.46106 19.276 3.30716C18.1457 3.15519 16.6918 3.15625 14.8203 3.15625V4.15625ZM23.3203 11.6562C23.3203 9.78477 23.3214 8.33086 23.1694 7.20054C23.0155 6.05584 22.6965 5.16844 22.0023 4.47427L21.2952 5.18138C21.7726 5.65878 22.0393 6.29998 22.1783 7.33379C22.3193 8.38198 22.3203 9.7565 22.3203 11.6562H23.3203ZM10.8203 3.15625C8.94883 3.15625 7.49492 3.15519 6.3646 3.30716C5.2199 3.46106 4.3325 3.7801 3.63833 4.47427L4.34544 5.18138C4.82284 4.70397 5.46404 4.43723 6.49785 4.29824C7.54604 4.15731 8.92056 4.15625 10.8203 4.15625V3.15625ZM3.32031 11.6562C3.32031 9.7565 3.32137 8.38198 3.4623 7.33379C3.60129 6.29998 3.86804 5.65878 4.34544 5.18138L3.63833 4.47427C2.94416 5.16844 2.62512 6.05584 2.47122 7.20054C2.31925 8.33085 2.32031 9.78477 2.32031 11.6562H3.32031ZM2.82031 13.1562H22.8203V12.1562H2.82031V13.1562ZM22.3203 12.6562V13.6562H23.3203V12.6562H22.3203Z" fill="#1C274C"/>
<path d="M14.3203 8.15625L18.8203 8.15625" stroke="#1C274C" stroke-linecap="round"/>
<path d="M6.82031 18.1562L6.82031 16.1562" stroke="#1C274C" stroke-linecap="round"/>
<path d="M6.82031 9.15625L6.82031 7.15625" stroke="#1C274C" stroke-linecap="round"/>
<path d="M9.82031 18.1562L9.82031 16.1562" stroke="#1C274C" stroke-linecap="round"/>
<path d="M9.82031 9.15625L9.82031 7.15625" stroke="#1C274C" stroke-linecap="round"/>
<path d="M20.1536 17.5415C20.3622 17.4634 20.5866 17.421 20.8203 17.421C21.0494 17.421 21.2696 17.4618 21.4746 17.5369M17.611 18.5096C17.5169 18.49 17.4198 18.4798 17.3203 18.4798C16.4919 18.4798 15.8203 19.1909 15.8203 20.068C15.8203 20.9452 16.4919 21.6563 17.3203 21.6563H20.8203C21.9249 21.6563 22.8203 20.7081 22.8203 19.5386C22.8203 18.6117 22.2579 17.8238 21.4746 17.5369M17.611 18.5096C17.5308 18.2804 17.487 18.0326 17.487 17.7739C17.487 16.6044 18.3824 15.6562 19.487 15.6562C20.5159 15.6562 21.3633 16.4789 21.4746 17.5369M17.611 18.5096C17.8085 18.5506 17.9922 18.6328 18.1536 18.7472" stroke="#1C274C" stroke-linecap="round"/>
</svg>
