<svg width="20" height="22" viewBox="0 0 20 22" fill="none" xmlns="http://www.w3.org/2000/svg">
<path d="M10.2969 3.274L9.94552 2.91826C9.85041 3.0122 9.79688 3.14032 9.79688 3.274C9.79688 3.40768 9.85041 3.5358 9.94552 3.62974L10.2969 3.274ZM18.7969 10.8295C18.7969 11.1057 19.0207 11.3295 19.2969 11.3295C19.573 11.3295 19.7969 11.1057 19.7969 10.8295H18.7969ZM17.1481 3.92884L16.8892 4.35659V4.35659L17.1481 3.92884ZM18.6338 5.39615L19.0586 5.13254V5.13254L18.6338 5.39615ZM12.8982 1.4075C13.0947 1.21345 13.0967 0.896876 12.9026 0.700406C12.7086 0.503935 12.392 0.50197 12.1955 0.696017L12.8982 1.4075ZM12.1955 5.85198C12.392 6.04603 12.7086 6.04406 12.9026 5.84759C13.0967 5.65112 13.0947 5.33455 12.8982 5.1405L12.1955 5.85198ZM10.2969 3.774C11.775 3.774 13.1988 3.77421 14.3877 3.85468C14.9814 3.89485 15.5043 3.95435 15.9378 4.04061C16.3783 4.12825 16.6916 4.23699 16.8892 4.35659L17.407 3.50108C17.0636 3.29321 16.6182 3.15637 16.133 3.05983C15.6408 2.96191 15.0709 2.89862 14.4552 2.85696C13.2256 2.77374 11.7648 2.774 10.2969 2.774V3.774ZM19.7969 10.8295C19.7969 9.38445 19.7974 8.2651 19.7117 7.37455C19.6252 6.4763 19.4474 5.75911 19.0586 5.13254L18.2089 5.65976C18.4832 6.10194 18.637 6.64657 18.7163 7.47038C18.7963 8.30189 18.7969 9.36485 18.7969 10.8295H19.7969ZM16.8892 4.35659C17.4276 4.68245 17.8797 5.12916 18.2089 5.65976L19.0586 5.13254C18.6457 4.46707 18.0796 3.90817 17.407 3.50108L16.8892 4.35659ZM10.6482 3.62974L12.8982 1.4075L12.1955 0.696017L9.94552 2.91826L10.6482 3.62974ZM9.94552 3.62974L12.1955 5.85198L12.8982 5.1405L10.6482 2.91826L9.94552 3.62974Z" fill="#1C274C"/>
<path opacity="0.5" d="M11.2749 20.5071L11.7037 20.7641L11.2749 20.5071ZM11.7628 19.693L11.3339 19.436L11.7628 19.693ZM8.83096 19.693L8.40208 19.95H8.40208L8.83096 19.693ZM9.31885 20.5071L8.88997 20.7641L9.31885 20.5071ZM1.63942 15.6411L2.10051 15.4477H2.10051L1.63942 15.6411ZM6.50749 18.3771L6.49899 18.877L6.50749 18.3771ZM4.0748 18.0464L3.88548 18.5092L3.88548 18.5092L4.0748 18.0464ZM18.9543 15.6411L19.4154 15.8344L18.9543 15.6411ZM14.0862 18.3771L14.0777 17.8772L14.0862 18.3771ZM16.5189 18.0464L16.7083 18.5092V18.5092L16.5189 18.0464ZM3.44563 3.9284L3.18674 3.50065V3.50065L3.44563 3.9284ZM1.95999 5.39571L1.53513 5.1321L1.95999 5.39571ZM7.95939 18.5712L8.20844 18.1377L8.20844 18.1377L7.95939 18.5712ZM7.59841 3.77441C7.87455 3.77357 8.09772 3.54902 8.09687 3.27288C8.09603 2.99674 7.87148 2.77357 7.59534 2.77442L7.59841 3.77441ZM19.7834 13.5093C19.7908 13.2332 19.573 13.0034 19.297 12.9961C19.021 12.9887 18.7912 13.2064 18.7838 13.4825L19.7834 13.5093ZM11.7037 20.7641L12.1916 19.95L11.3339 19.436L10.846 20.2501L11.7037 20.7641ZM8.40208 19.95L8.88997 20.7641L9.74773 20.2501L9.25984 19.436L8.40208 19.95ZM10.846 20.2501C10.6053 20.6517 9.98843 20.6517 9.74773 20.2501L8.88997 20.7641C9.51897 21.8137 11.0747 21.8137 11.7037 20.7641L10.846 20.2501ZM1.79688 11.718V10.8291H0.796875V11.718H1.79688ZM0.796875 11.718C0.796875 12.7465 0.796597 13.5432 0.840882 14.1843C0.885484 14.8299 0.976996 15.3544 1.17833 15.8344L2.10051 15.4477C1.9593 15.111 1.87954 14.7093 1.8385 14.1153C1.79715 13.5168 1.79688 12.7603 1.79688 11.718H0.796875ZM6.516 17.8772C5.38603 17.858 4.76282 17.7876 4.26412 17.5836L3.88548 18.5092C4.57533 18.7914 5.36932 18.8578 6.49899 18.877L6.516 17.8772ZM1.17833 15.8344C1.68684 17.0469 2.66134 18.0084 3.88548 18.5092L4.26412 17.5836C3.28301 17.1822 2.50544 16.4132 2.10051 15.4477L1.17833 15.8344ZM14.0947 18.877C15.2244 18.8578 16.0184 18.7914 16.7083 18.5092L16.3296 17.5836C15.8309 17.7876 15.2077 17.858 14.0777 17.8772L14.0947 18.877ZM18.4932 15.4477C18.0883 16.4132 17.3107 17.1822 16.3296 17.5836L16.7083 18.5092C17.9324 18.0084 18.9069 17.0469 19.4154 15.8344L18.4932 15.4477ZM1.79688 10.8291C1.79688 9.36441 1.79742 8.30146 1.87746 7.46994C1.95677 6.64614 2.1105 6.10151 2.38486 5.65932L1.53513 5.1321C1.14637 5.75867 0.968539 6.47586 0.882066 7.37412C0.796334 8.26467 0.796875 9.38402 0.796875 10.8291H1.79688ZM3.18674 3.50065C2.51414 3.90773 1.94802 4.46663 1.53513 5.1321L2.38486 5.65932C2.71407 5.12873 3.16613 4.68201 3.70453 4.35615L3.18674 3.50065ZM9.25984 19.436C9.07549 19.1284 8.91969 18.8674 8.76955 18.6639C8.61309 18.4519 8.44127 18.2714 8.20844 18.1377L7.71033 19.0048C7.78144 19.0456 7.85619 19.1103 7.96492 19.2577C8.07998 19.4136 8.208 19.6262 8.40208 19.95L9.25984 19.436ZM6.49899 18.877C6.89081 18.8837 7.15096 18.8886 7.3521 18.9106C7.54421 18.9316 7.64055 18.9647 7.71033 19.0048L8.20844 18.1377C7.97429 18.0032 7.72735 17.9457 7.46082 17.9166C7.20332 17.8884 6.88949 17.8835 6.516 17.8772L6.49899 18.877ZM12.1916 19.95C12.3857 19.6262 12.5137 19.4136 12.6288 19.2577C12.7375 19.1103 12.8123 19.0456 12.8834 19.0048L12.3853 18.1377C12.1524 18.2714 11.9806 18.4519 11.8242 18.6639C11.674 18.8674 11.5182 19.1284 11.3339 19.436L12.1916 19.95ZM14.0777 17.8772C13.7042 17.8835 13.3904 17.8884 13.1329 17.9166C12.8664 17.9457 12.6194 18.0032 12.3853 18.1377L12.8834 19.0048C12.9532 18.9647 13.0495 18.9316 13.2416 18.9106C13.4427 18.8886 13.7029 18.8837 14.0947 18.877L14.0777 17.8772ZM7.59534 2.77442C5.34784 2.7813 4.28781 2.83423 3.18674 3.50065L3.70453 4.35615C4.53104 3.85592 5.30489 3.78144 7.59841 3.77441L7.59534 2.77442ZM18.7838 13.4825C18.7581 14.4427 18.6815 14.9987 18.4932 15.4477L19.4154 15.8344C19.6804 15.2025 19.7573 14.4862 19.7834 13.5093L18.7838 13.4825Z" fill="#1C274C"/>
<rect x="3.86719" y="11.7256" width="2.81633" height="2.81633" rx="1.40816" transform="rotate(-90 3.86719 11.7256)" fill="black" fill-opacity="0.3"/>
<rect x="8.79688" y="11.7256" width="2.81633" height="2.81633" rx="1.40816" transform="rotate(-90 8.79688 11.7256)" fill="black" fill-opacity="0.3"/>
<rect x="13.7246" y="11.7256" width="2.81633" height="2.81633" rx="1.40816" transform="rotate(-90 13.7246 11.7256)" fill="black" fill-opacity="0.3"/>
</svg>
