<svg width="23" height="23" viewBox="0 0 23 23" fill="none" xmlns="http://www.w3.org/2000/svg">
<path d="M2.48766 15.5005H3.59883V16.1276C3.59883 16.3259 3.76038 16.4875 3.95871 16.4875H4.93459C5.13292 16.4875 5.29447 16.3259 5.29447 16.1276V15.5005H19.9248C20.0515 15.5005 20.1546 15.3974 20.1546 15.2706C20.1546 15.1439 20.0515 15.0408 19.9248 15.0408H5.29447V14.4136C5.29447 14.2153 5.13292 14.0537 4.93459 14.0537H3.95871C3.76038 14.0537 3.59883 14.2153 3.59883 14.4136V15.0408H2.48766C2.36092 15.0408 2.25781 15.1439 2.25781 15.2706C2.25781 15.3974 2.36092 15.5005 2.48766 15.5005ZM4.05853 14.5141H4.83477V16.0278H4.05853V14.5141Z" fill="#424852"/>
<path d="M11.205 2.22168C8.13091 2.22168 5.63867 4.71392 5.63867 7.78801C5.63867 10.8621 8.13091 13.3543 11.205 13.3543C14.2791 13.3543 16.7713 10.8621 16.7713 7.78801C16.7713 4.71392 14.2791 2.22168 11.205 2.22168ZM14.2784 8.19255L9.95724 11.1261C9.63216 11.3468 9.19348 11.1136 9.19348 10.7216V4.85511C9.19348 4.4624 9.63282 4.22992 9.95724 4.45057L14.2784 7.38347C14.5648 7.5772 14.5648 7.99881 14.2784 8.19255Z" fill="#1C274C" fill-opacity="0.5"/>
<rect x="0.40625" y="1.22363" width="21.5" height="21.5" rx="0.75" stroke="#1C274C" stroke-width="0.5"/>
<path d="M2.43464 20.5999H2.65687V20.7253C2.65687 20.765 2.68919 20.7973 2.72885 20.7973H2.92403C2.96369 20.7973 2.996 20.765 2.996 20.7253V20.5999H5.92207C5.94742 20.5999 5.96804 20.5793 5.96804 20.5539C5.96804 20.5286 5.94742 20.508 5.92207 20.508H2.996V20.3825C2.996 20.3429 2.96369 20.3105 2.92403 20.3105H2.72885C2.68919 20.3105 2.65687 20.3429 2.65687 20.3825V20.508H2.43464C2.40929 20.508 2.38867 20.5286 2.38867 20.5539C2.38867 20.5793 2.40929 20.5999 2.43464 20.5999ZM2.74882 20.4026H2.90406V20.7054H2.74882V20.4026Z" fill="#424852"/>
<path d="M4.17967 17.9434C3.56485 17.9434 3.06641 18.4418 3.06641 19.0566C3.06641 19.6714 3.56485 20.1699 4.17967 20.1699C4.79449 20.1699 5.29294 19.6714 5.29294 19.0566C5.29294 18.4418 4.79449 17.9434 4.17967 17.9434ZM4.79436 19.1375L3.93012 19.7242C3.8651 19.7684 3.77737 19.7217 3.77737 19.6433V18.47C3.77737 18.3915 3.86524 18.345 3.93012 18.3891L4.79436 18.9757C4.85162 19.0145 4.85162 19.0988 4.79436 19.1375Z" fill="#1C274C" fill-opacity="0.5"/>
<rect x="1.96602" y="17.7443" width="4.3" height="3.35433" rx="0.45" stroke="#1C274C" stroke-width="0.1"/>
<path d="M9.4737 20.5999H9.69594V20.7253C9.69594 20.765 9.72825 20.7973 9.76791 20.7973H9.96309C10.0028 20.7973 10.0351 20.765 10.0351 20.7253V20.5999H12.9611C12.9865 20.5999 13.0071 20.5793 13.0071 20.5539C13.0071 20.5286 12.9865 20.508 12.9611 20.508H10.0351V20.3825C10.0351 20.3429 10.0028 20.3105 9.96309 20.3105H9.76791C9.72825 20.3105 9.69594 20.3429 9.69594 20.3825V20.508H9.4737C9.44836 20.508 9.42773 20.5286 9.42773 20.5539C9.42773 20.5793 9.44836 20.5999 9.4737 20.5999ZM9.78788 20.4026H9.94313V20.7054H9.78788V20.4026Z" fill="#424852"/>
<path d="M11.2187 17.9434C10.6039 17.9434 10.1055 18.4418 10.1055 19.0566C10.1055 19.6714 10.6039 20.1699 11.2187 20.1699C11.8336 20.1699 12.332 19.6714 12.332 19.0566C12.332 18.4418 11.8336 17.9434 11.2187 17.9434ZM11.8334 19.1375L10.9692 19.7242C10.9042 19.7684 10.8164 19.7217 10.8164 19.6433V18.47C10.8164 18.3915 10.9043 18.345 10.9692 18.3891L11.8334 18.9757C11.8907 19.0145 11.8907 19.0988 11.8334 19.1375Z" fill="#1C274C" fill-opacity="0.5"/>
<rect x="9.00508" y="17.7443" width="4.3" height="3.35433" rx="0.45" stroke="#1C274C" stroke-width="0.1"/>
<path d="M16.5147 20.5999H16.737V20.7253C16.737 20.765 16.7693 20.7973 16.8089 20.7973H17.0041C17.0438 20.7973 17.0761 20.765 17.0761 20.7253V20.5999H20.0021C20.0275 20.5999 20.0481 20.5793 20.0481 20.5539C20.0481 20.5286 20.0275 20.508 20.0021 20.508H17.0761V20.3825C17.0761 20.3429 17.0438 20.3105 17.0041 20.3105H16.8089C16.7693 20.3105 16.737 20.3429 16.737 20.3825V20.508H16.5147C16.4894 20.508 16.4688 20.5286 16.4688 20.5539C16.4688 20.5793 16.4894 20.5999 16.5147 20.5999ZM16.8289 20.4026H16.9841V20.7054H16.8289V20.4026Z" fill="#424852"/>
<path d="M18.2598 17.9434C17.6449 17.9434 17.1465 18.4418 17.1465 19.0566C17.1465 19.6714 17.6449 20.1699 18.2598 20.1699C18.8746 20.1699 19.373 19.6714 19.373 19.0566C19.373 18.4418 18.8746 17.9434 18.2598 17.9434ZM18.8744 19.1375L18.0102 19.7242C17.9452 19.7684 17.8574 19.7217 17.8574 19.6433V18.47C17.8574 18.3915 17.9453 18.345 18.0102 18.3891L18.8744 18.9757C18.9317 19.0145 18.9317 19.0988 18.8744 19.1375Z" fill="#1C274C" fill-opacity="0.5"/>
<rect x="16.0461" y="17.7443" width="4.3" height="3.35433" rx="0.45" stroke="#1C274C" stroke-width="0.1"/>
</svg>
