<svg width="25" height="25" viewBox="0 0 25 25" fill="none" xmlns="http://www.w3.org/2000/svg">
<path opacity="0.5" d="M17.4961 10.1535L18.1545 9.82433C20.1003 8.85139 21.0733 8.36492 21.7847 8.80459C22.4961 9.24426 22.4961 10.332 22.4961 12.5076V12.7994C22.4961 14.975 22.4961 16.0628 21.7847 16.5024C21.0733 16.9421 20.1003 16.4556 18.1545 15.4827L17.4961 15.1535V10.1535Z" stroke="#1C274C"/>
<path opacity="0.5" d="M14.0568 8.09266C14.6425 8.67845 14.6425 9.62819 14.0568 10.214C13.471 10.7998 12.5212 10.7998 11.9354 10.214C11.3496 9.62819 11.3496 8.67845 11.9354 8.09266C12.5212 7.50687 13.471 7.50687 14.0568 8.09266Z" stroke="#1C274C"/>
<path d="M2.49609 12.1533C2.49609 8.86584 2.49609 7.2221 3.40405 6.11575C3.57027 5.91321 3.75598 5.7275 3.95852 5.56128C5.06487 4.65332 6.70861 4.65332 9.99609 4.65332C13.2836 4.65332 14.9273 4.65332 16.0337 5.56128C16.2362 5.7275 16.4219 5.91321 16.5881 6.11575C17.4961 7.2221 17.4961 8.86584 17.4961 12.1533V13.1533C17.4961 16.4408 17.4961 18.0845 16.5881 19.1909C16.4219 19.3934 16.2362 19.5791 16.0337 19.7454C14.9273 20.6533 13.2836 20.6533 9.99609 20.6533C6.70861 20.6533 5.06487 20.6533 3.95852 19.7454C3.75598 19.5791 3.57027 19.3934 3.40405 19.1909C2.49609 18.0845 2.49609 16.4408 2.49609 13.1533V12.1533Z" stroke="#1C274C"/>
</svg>
