<svg width="25" height="25" viewBox="0 0 25 25" fill="none" xmlns="http://www.w3.org/2000/svg">
<path d="M13.9961 2.96973C13.9961 2.96973 16.3295 3.18186 19.2994 6.15171C22.2692 9.12156 22.4814 11.455 22.4814 11.455" stroke="#1C274C" stroke-linecap="round"/>
<path d="M14.7031 6.50586C14.7031 6.50586 15.6931 6.7887 17.178 8.27363C18.6629 9.75855 18.9458 10.7485 18.9458 10.7485" stroke="#1C274C" stroke-linecap="round"/>
<path opacity="0.5" d="M15.5968 15.9969L15.2343 15.6526L15.5968 15.9969ZM16.0523 15.5174L16.4148 15.8618L16.0523 15.5174ZM18.4689 15.182L18.2195 15.6154H18.2195L18.4689 15.182ZM20.3794 16.2817L20.13 16.7151L20.3794 16.2817ZM20.9178 19.7282L21.2803 20.0725L20.9178 19.7282ZM19.4972 21.2237L19.1347 20.8794L19.4972 21.2237ZM18.1724 21.9328L18.2215 22.4304H18.2215L18.1724 21.9328ZM8.31145 17.4449L8.67398 17.1006L8.31145 17.4449ZM3.49898 7.93566L2.9997 7.96246L2.9997 7.96246L3.49898 7.93566ZM9.97361 9.47284L10.3361 9.81718L9.97361 9.47284ZM10.1303 6.66283L10.5386 6.37417V6.37417L10.1303 6.66283ZM8.86935 4.87934L8.46109 5.168V5.168L8.86935 4.87934ZM5.75754 4.57837L6.12007 4.92271V4.92271L5.75754 4.57837ZM4.18794 6.23086L3.82541 5.88652L3.82541 5.88652L4.18794 6.23086ZM11.5592 14.0256L11.9217 13.6813L11.5592 14.0256ZM15.9593 16.3413L16.4148 15.8618L15.6897 15.1731L15.2343 15.6526L15.9593 16.3413ZM18.2195 15.6154L20.13 16.7151L20.6288 15.8484L18.7183 14.7487L18.2195 15.6154ZM20.5552 19.3838L19.1347 20.8794L19.8597 21.5681L21.2803 20.0725L20.5552 19.3838ZM18.1233 21.4352C16.6234 21.5833 12.799 21.4435 8.67398 17.1006L7.94892 17.7893C12.3174 22.3885 16.4624 22.604 18.2215 22.4304L18.1233 21.4352ZM8.67398 17.1006C4.75502 12.9746 4.08234 9.47525 3.99826 7.90886L2.9997 7.96246C3.09592 9.75512 3.8586 13.4829 7.94892 17.7893L8.67398 17.1006ZM10.0493 10.1191L10.3361 9.81718L9.61108 9.1285L9.32427 9.43046L10.0493 10.1191ZM10.5386 6.37417L9.27761 4.59069L8.46109 5.168L9.72207 6.95148L10.5386 6.37417ZM5.39501 4.23402L3.82541 5.88652L4.55047 6.57521L6.12007 4.92271L5.39501 4.23402ZM9.6868 9.7748C9.32427 9.43046 9.32381 9.43095 9.32334 9.43144C9.32318 9.43161 9.32271 9.43211 9.32238 9.43245C9.32174 9.43314 9.32108 9.43385 9.3204 9.43457C9.31904 9.43603 9.31762 9.43758 9.31614 9.43921C9.31317 9.44247 9.30996 9.44608 9.30651 9.45004C9.29962 9.45796 9.29182 9.46729 9.28329 9.47807C9.26623 9.49962 9.24626 9.52697 9.2249 9.56036C9.18207 9.62728 9.134 9.71795 9.09275 9.83387C9.00918 10.0687 8.95935 10.391 9.02016 10.8061C9.14021 11.6254 9.68595 12.7795 11.1967 14.37L11.9217 13.6813C10.4775 12.1607 10.087 11.1894 10.0096 10.6611C9.97168 10.4023 10.0078 10.2452 10.0349 10.1691C10.0489 10.1296 10.0624 10.1069 10.0672 10.0993C10.0697 10.0955 10.0701 10.0953 10.0674 10.0986C10.0661 10.1003 10.064 10.1029 10.0611 10.1063C10.0596 10.108 10.0579 10.1099 10.0559 10.1121C10.0549 10.1131 10.0539 10.1143 10.0528 10.1154C10.0523 10.116 10.0517 10.1166 10.0511 10.1173C10.0508 10.1176 10.0504 10.118 10.0502 10.1182C10.0498 10.1187 10.0493 10.1191 9.6868 9.7748ZM11.1967 14.37C12.7044 15.9573 13.8076 16.5418 14.606 16.6715C15.0128 16.7375 15.3317 16.6835 15.5649 16.5915C15.6795 16.5463 15.7686 16.4939 15.8338 16.4477C15.8663 16.4246 15.8929 16.4031 15.9137 16.3848C15.9241 16.3757 15.933 16.3674 15.9406 16.3601C15.9444 16.3564 15.9479 16.353 15.951 16.3499C15.9526 16.3483 15.954 16.3468 15.9554 16.3454C15.9561 16.3446 15.9568 16.3439 15.9574 16.3433C15.9578 16.3429 15.9582 16.3424 15.9584 16.3423C15.9589 16.3418 15.9593 16.3413 15.5968 15.9969C15.2343 15.6526 15.2347 15.6521 15.2352 15.6516C15.2353 15.6515 15.2358 15.651 15.2361 15.6507C15.2367 15.6501 15.2372 15.6495 15.2378 15.6489C15.2389 15.6478 15.24 15.6467 15.241 15.6456C15.2431 15.6436 15.2449 15.6417 15.2466 15.6401C15.2499 15.6369 15.2525 15.6346 15.2542 15.6331C15.2577 15.63 15.2581 15.63 15.2553 15.632C15.2497 15.6359 15.2311 15.6482 15.198 15.6613C15.1359 15.6858 14.9995 15.7223 14.7663 15.6844C14.2846 15.6062 13.369 15.205 11.9217 13.6813L11.1967 14.37ZM9.27761 4.59069C8.34756 3.27526 6.50397 3.0665 5.39501 4.23402L6.12007 4.92271C6.76013 4.24885 7.8652 4.32519 8.46109 5.168L9.27761 4.59069ZM3.99826 7.90886C3.97223 7.42383 4.18501 6.95997 4.55047 6.57521L3.82541 5.88652C3.32364 6.41479 2.95526 7.13452 2.9997 7.96246L3.99826 7.90886ZM19.1347 20.8794C18.8283 21.202 18.4842 21.3996 18.1233 21.4352L18.2215 22.4304C18.8913 22.3643 19.4438 22.006 19.8597 21.5681L19.1347 20.8794ZM10.3361 9.81718C11.2167 8.89011 11.2846 7.42924 10.5386 6.37417L9.72207 6.95148C10.209 7.64015 10.1436 8.56783 9.61108 9.1285L10.3361 9.81718ZM20.13 16.7151C21.0862 17.2654 21.2834 18.6172 20.5552 19.3838L21.2803 20.0725C22.4699 18.8201 22.1264 16.7104 20.6288 15.8484L20.13 16.7151ZM16.4148 15.8618C16.8816 15.3703 17.6092 15.2641 18.2195 15.6154L18.7183 14.7487C17.7175 14.1726 16.4821 14.3389 15.6897 15.1731L16.4148 15.8618Z" fill="#1C274C"/>
</svg>
