<svg width="23" height="23" viewBox="0 0 23 23" fill="none" xmlns="http://www.w3.org/2000/svg">
<path d="M15.9162 1.75536C15.0288 1.17351 13.9322 0.944925 12.8659 1.12201L10.9375 1.4423L11.0454 1.57285C11.315 1.89992 11.7549 2.05983 12.1881 1.98801C12.7958 1.88727 13.4127 1.91798 13.9956 2.07067C14.6532 2.24279 15.3584 2.12669 15.9162 1.75536Z" fill="#EBECED"/>
<path d="M18.3505 1.58838L17.9355 1.40723L19.0201 7.20041L19.437 6.67548C19.6389 6.42115 19.7205 6.09951 19.6624 5.78645L19.0412 2.43585C18.9722 2.06406 18.7141 1.74739 18.3505 1.58838Z" fill="#EBECED"/>
<path d="M4.4533 12.7076L14.7154 13.5533C15.3544 13.6061 15.9655 13.2976 16.2734 12.7677L16.3041 12.7148L3.04492 11.6221C3.23248 12.222 3.79181 12.653 4.4533 12.7076Z" fill="#EBECED"/>
<path d="M13.9122 4.93206C13.254 4.64023 12.7427 4.10401 12.5114 3.43904L12.4668 3.31075C12.356 3.19148 12.1934 3.13953 12.0375 3.15941C11.9286 3.19691 11.8557 3.29764 11.8619 3.41013L11.8672 3.50771C11.9056 4.20068 11.3894 4.81144 10.6641 4.93206C10.5178 4.95645 10.3782 4.8643 10.3523 4.72652L10.3356 4.41255L4.65309 8.9029C4.44874 9.06417 4.42188 9.35148 4.59361 9.54393L5.58322 10.6548L12.5983 11.233L16.2934 8.31292C16.4977 8.15165 16.5246 7.86434 16.3528 7.6719L13.9122 4.93206Z" fill="#1C274C" fill-opacity="0.5"/>
<path d="M17.9347 11.5135L1.65919 10.1727C1.3824 10.1501 1.13776 10.3435 1.11329 10.6037L1.06341 11.1412C1.05189 11.2673 1.09267 11.3906 1.17949 11.4873C1.26584 11.5844 1.3872 11.644 1.52151 11.6549L1.81029 11.6788L1.04614 19.9046L0.757362 19.8807C0.623047 19.8699 0.49257 19.9083 0.389916 19.99C0.286782 20.0713 0.223462 20.1856 0.211949 20.3121L0.162061 20.8497C0.138076 21.1103 0.343386 21.3407 0.619689 21.3638L16.8952 22.7046C16.9101 22.7059 16.925 22.7064 16.9394 22.7064C17.1974 22.7064 17.4181 22.5198 17.4406 22.2736L17.4905 21.736C17.5145 21.4754 17.3092 21.245 17.0329 21.2219L1.38048 19.9322L2.14464 11.7068L7.15792 12.1197L17.1739 12.9451L16.4779 20.435C16.4697 20.5222 16.5383 20.5985 16.6304 20.6062C16.6352 20.6067 16.6405 20.6067 16.6453 20.6067C16.7312 20.6067 16.8046 20.5448 16.8122 20.4625L17.5083 12.9726L17.7971 12.9966C17.8119 12.9979 17.8268 12.9984 17.8417 12.9984C17.9597 12.9984 18.0729 12.9595 18.1645 12.8872C18.2676 12.8059 18.331 12.6916 18.3425 12.5651L18.3924 12.0276C18.4039 11.9015 18.3631 11.7782 18.2763 11.6811C18.1899 11.5844 18.0686 11.5248 17.9347 11.5135ZM17.0036 21.5368C17.0957 21.5445 17.1643 21.6213 17.1562 21.708L17.1063 22.2456C17.0981 22.3323 17.0166 22.3969 16.9245 22.3892L0.648951 21.0485C0.55685 21.0408 0.488253 20.964 0.496408 20.8772L0.546296 20.3397C0.554451 20.2529 0.635519 20.1879 0.7281 20.196L17.0036 21.5368ZM18.0081 12.5376C18 12.6243 17.9184 12.6889 17.8263 12.6812L1.55078 11.3405C1.50616 11.3368 1.46539 11.317 1.43661 11.2844C1.40783 11.2519 1.39392 11.2113 1.39775 11.1692L1.44764 10.6317C1.4558 10.5449 1.53734 10.4799 1.62945 10.488L17.905 11.8288C17.9496 11.8324 17.9904 11.8523 18.0192 11.8848C18.0479 11.9173 18.0618 11.958 18.058 12.0005L18.0081 12.5376Z" fill="#2A3853"/>
<path d="M21.9513 7.03296C21.9355 6.94713 21.8482 6.88931 21.7571 6.90421L19.2142 7.32253L18.084 1.28721L19.6944 1.01978C19.7855 1.00442 19.8464 0.922655 19.8306 0.836823C19.8143 0.750991 19.7275 0.693168 19.6363 0.708527L18.026 0.97596L18.0107 0.892839C17.9943 0.807008 17.9075 0.749636 17.8164 0.764544C17.7252 0.779903 17.6643 0.861669 17.6801 0.947501L17.7934 1.55284L16.5461 1.75974C16.5327 1.76155 16.4958 1.76606 16.455 1.76787C16.3159 1.77194 16.1763 1.73309 16.0626 1.65629C15.1363 1.03062 13.9606 0.779 12.8381 0.96557L10.8565 1.29444C10.373 1.37485 10.0271 1.78368 10.052 2.24536L10.1859 4.73403C10.1864 4.74035 10.1868 4.74713 10.1883 4.75345C10.2084 4.86187 10.2722 4.95584 10.3682 5.01908C10.4636 5.08233 10.5797 5.10627 10.6948 5.08729C11.5026 4.95313 12.0792 4.27054 12.0365 3.49896L12.0313 3.40138C12.0284 3.3535 12.0644 3.31103 12.1147 3.30245L12.1934 3.28935C12.2428 3.28122 12.2917 3.30877 12.3071 3.3535L12.3536 3.48766C12.6616 4.37354 13.419 5.03399 14.3808 5.25444L14.7732 5.34434C14.8634 5.36512 14.954 5.31317 14.9761 5.22824C14.9982 5.14331 14.943 5.05793 14.8528 5.03715L14.4604 4.94725C13.6128 4.753 12.9446 4.1707 12.6731 3.38964L12.6266 3.25547C12.5594 3.06212 12.3483 2.94286 12.1354 2.9781L12.0567 2.9912C11.8399 3.02734 11.6849 3.21074 11.6964 3.4181L11.7017 3.51567C11.7358 4.12779 11.2781 4.66943 10.6373 4.77604C10.6109 4.78056 10.584 4.77469 10.5615 4.76023C10.5413 4.74713 10.5274 4.72816 10.5217 4.70602L10.3883 2.22955C10.372 1.92688 10.5989 1.659 10.9155 1.60615L12.8971 1.27727C13.9313 1.10561 15.0145 1.33736 15.8679 1.91378C16.0151 2.01317 16.1897 2.07009 16.3687 2.08228L16.4823 2.68943C16.4967 2.76623 16.5677 2.81998 16.6474 2.81998C16.657 2.81998 16.667 2.81908 16.6766 2.81773C16.7678 2.80237 16.8287 2.7206 16.8129 2.63477L16.7044 2.05563L17.8524 1.865L18.7868 6.85543L16.9515 7.16035C16.8603 7.17571 16.7994 7.25748 16.8153 7.34331C16.8296 7.42011 16.9006 7.47387 16.9803 7.47387C16.9899 7.47387 16.9999 7.47296 17.0095 7.47161L18.8448 7.16668L18.958 7.77202C18.9724 7.84881 19.0434 7.90257 19.1231 7.90257C19.1327 7.90257 19.1427 7.90167 19.1523 7.90031C19.2435 7.88495 19.3044 7.80319 19.2886 7.71736L19.2732 7.63469L21.8156 7.21637C21.9058 7.20056 21.9672 7.11879 21.9513 7.03296Z" fill="#2A3853"/>
<path d="M17.1203 5.34796C17.1299 5.34796 17.14 5.34706 17.1496 5.3457C17.2407 5.33034 17.3016 5.24858 17.2858 5.16274L16.9404 3.31827C16.9241 3.23244 16.8373 3.17461 16.7462 3.18997C16.655 3.20533 16.5941 3.2871 16.6099 3.37293L16.9553 5.21741C16.9692 5.2942 17.0402 5.34796 17.1203 5.34796Z" fill="#2A3853"/>
<path d="M3.85568 7.2466C3.84321 7.2466 3.83074 7.24525 3.81778 7.24254L2.6008 6.97827C2.51062 6.95884 2.45401 6.87391 2.47512 6.78853C2.49575 6.7036 2.58593 6.6503 2.67659 6.67018L3.89358 6.93445C3.98376 6.95387 4.04036 7.0388 4.01926 7.12418C4.00151 7.19691 3.93243 7.2466 3.85568 7.2466Z" fill="#1C274C" fill-opacity="0.5"/>
<path d="M6.32003 4.51852C6.25623 4.51852 6.1953 4.48418 6.167 4.42591L5.64797 3.35572C5.6096 3.27622 5.64654 3.18271 5.73096 3.14611C5.81539 3.10997 5.91468 3.14476 5.95354 3.22427L6.47257 4.29445C6.51094 4.37396 6.47401 4.46747 6.38958 4.50406C6.36704 4.514 6.34305 4.51852 6.32003 4.51852Z" fill="#1C274C" fill-opacity="0.5"/>
<path d="M21.9896 11.5142C21.9862 11.5142 21.9834 11.5142 21.98 11.5137L20.7328 11.4478C20.6402 11.4428 20.5692 11.3683 20.5745 11.2811C20.5798 11.1939 20.6589 11.1279 20.7515 11.132L21.9987 11.198C22.0913 11.2029 22.1623 11.2775 22.157 11.3647C22.1522 11.4491 22.0779 11.5142 21.9896 11.5142Z" fill="#1C274C" fill-opacity="0.5"/>
<path d="M19.5107 15.5023C19.457 15.5023 19.4043 15.4784 19.3721 15.4332L18.6679 14.4619C18.6156 14.3897 18.6353 14.2916 18.7121 14.2424C18.7888 14.1932 18.8929 14.2117 18.9452 14.284L19.6494 15.2552C19.7017 15.3275 19.682 15.4255 19.6052 15.4748C19.5765 15.4933 19.5434 15.5023 19.5107 15.5023Z" fill="#1C274C" fill-opacity="0.5"/>
</svg>
