<svg width="23" height="23" viewBox="0 0 23 23" fill="none" xmlns="http://www.w3.org/2000/svg">
<path d="M17.3137 17.4734L16.6977 15.2986C16.6246 15.0396 16.3103 14.9182 16.0662 15.0547L14.0098 16.2074C14.3134 16.3683 14.5507 16.6406 14.6481 16.9839C14.7454 17.3272 14.6834 17.675 14.5052 17.9583L16.8953 17.9835C17.1791 17.9862 17.3874 17.7323 17.3137 17.4734Z" fill="#1C274C" fill-opacity="0.5"/>
<path d="M12.4219 3.62607C13.6971 3.43128 14.9955 3.31761 16.3177 3.28553C16.4112 3.28324 16.4969 3.30936 16.5676 3.35474L16.9652 1.94995C17.0185 1.76203 16.9008 1.56907 16.7022 1.51865L16.0697 1.35824C15.952 1.34678 15.8343 1.34082 15.7171 1.34082C15.1166 1.34082 14.5243 1.48978 13.9901 1.78174C13.236 2.19424 12.6839 2.84507 12.4219 3.62607Z" fill="#1C274C" fill-opacity="0.5"/>
<path d="M12.0649 17.6393C11.9675 17.296 12.0295 16.9481 12.2077 16.6649L9.81764 16.6397C9.53432 16.6369 9.32607 16.8904 9.39968 17.1493L10.0157 19.3241C10.0889 19.5831 10.4032 19.7045 10.6473 19.568L12.7037 18.4153C12.4 18.2548 12.1622 17.9826 12.0649 17.6393Z" fill="#1C274C" fill-opacity="0.5"/>
<path d="M12.1604 3.65591C12.4292 2.74245 13.053 1.97887 13.9224 1.50403C14.1481 1.38074 14.3834 1.28082 14.6251 1.20474C14.3607 1.02049 14.057 0.878408 13.7209 0.793158L12.9402 0.595158C12.7416 0.544742 12.5377 0.656117 12.4845 0.844033L11.9246 2.82174L11.2756 0.530533C11.2223 0.342617 11.0184 0.231242 10.8199 0.281658L10.0082 0.48745C9.34756 0.767033 8.79738 1.23408 8.42785 1.83999C7.96436 2.59945 7.84086 3.48266 8.08011 4.32737L8.14792 4.56753C8.15421 4.58999 8.16148 4.61245 8.16874 4.63445C9.47494 4.22378 10.8078 3.90662 12.1677 3.68203L12.1604 3.65591Z" fill="#1C274C" fill-opacity="0.5"/>
<path d="M7.71985 4.65075L7.65204 4.41058C7.38955 3.48337 7.52515 2.51308 8.03368 1.67983C8.19883 1.40896 8.39789 1.16329 8.62358 0.946498C8.28892 0.907998 7.94118 0.927707 7.59586 1.01525L6.63111 1.26C6.43254 1.31041 6.31486 1.50337 6.36813 1.69129L7.03261 4.0375L5.50266 2.58962C5.35737 2.45212 5.12199 2.45212 4.9767 2.58962L4.51612 3.0255C4.09138 3.58054 3.86133 4.24558 3.86133 4.94408C3.86133 5.38133 3.95141 5.80575 4.12286 6.19808C5.31281 5.62516 6.52795 5.13704 7.76683 4.73233L7.7368 4.70391C7.73099 4.68558 7.72469 4.66816 7.71985 4.65075Z" fill="#1C274C" fill-opacity="0.5"/>
<path d="M3.6259 4.09863C3.28446 4.2233 2.96385 4.4158 2.68827 4.67659L2.11678 5.21742C1.97149 5.35492 1.97149 5.57767 2.11678 5.71517L3.20261 6.74322C3.2399 6.67034 3.30044 6.60709 3.38229 6.56492C3.52759 6.49022 3.67288 6.41688 3.81866 6.34492C3.623 5.90722 3.52032 5.43284 3.52032 4.94334C3.52032 4.65505 3.55664 4.3718 3.6259 4.09863Z" fill="#1C274C" fill-opacity="0.5"/>
<path d="M16.8223 20.4874L15.6638 18.6211C15.2919 19.095 15.2556 19.733 15.5713 20.2422L15.8731 20.7281C16.0164 20.9586 15.8881 21.2551 15.6149 21.3243L16.5637 21.0837C16.8368 21.0145 16.9652 20.7184 16.8223 20.4874Z" fill="#EBECED"/>
<path d="M16.3166 3.28531C15.9897 3.2931 15.6647 3.30685 15.3407 3.32473L13.8035 12.9988C13.6703 13.8375 14.1449 14.657 14.9634 15.0021L16.7515 3.75098C16.7912 3.50119 16.583 3.27844 16.3166 3.28531Z" fill="#EBECED"/>
<path d="M10.6834 7.93905C10.6975 7.85151 10.6336 7.76992 10.5411 7.75663C10.4485 7.7438 10.3623 7.80384 10.3483 7.89138C9.99959 10.0818 10.0437 12.5778 10.4839 15.5048L3.38436 7.07417C3.33641 7.01734 3.31801 6.94401 3.33302 6.87297C3.34804 6.80147 3.3955 6.74097 3.4633 6.70613C6.03307 5.38201 8.74522 4.45663 11.5673 3.93597C11.1261 4.84163 10.7939 5.78992 10.5551 6.82438C10.5352 6.91101 10.5929 6.99626 10.6844 7.01551C10.6965 7.01826 10.7086 7.01917 10.7207 7.01917C10.7987 7.01917 10.8689 6.96784 10.8864 6.89313C11.1382 5.8023 11.4961 4.81046 11.9785 3.86355C13.4 3.62201 14.8485 3.48222 16.3208 3.44647C16.3974 3.44509 16.471 3.47488 16.5218 3.52942C16.5727 3.58396 16.5954 3.65638 16.5838 3.72788L14.7957 14.9786C14.7817 15.0661 14.8456 15.1477 14.9381 15.161C15.0306 15.1743 15.1168 15.1138 15.1309 15.0263L16.919 3.77509C16.9451 3.60917 16.8933 3.44234 16.7756 3.3163C16.6579 3.19071 16.4889 3.12105 16.3116 3.12517C14.8045 3.16184 13.322 3.30622 11.8671 3.55601C11.8448 3.55555 11.8235 3.55967 11.8032 3.56701C8.83869 4.08217 5.99239 5.03734 3.30058 6.42426C3.14511 6.50446 3.03566 6.64472 3.0003 6.80926C2.96495 6.97334 3.00853 7.14292 3.11847 7.27401L10.6122 16.1721L10.6132 16.173C10.6447 16.2097 10.6926 16.2326 10.7445 16.2326C10.7532 16.2326 10.7619 16.2321 10.7711 16.2308C10.8636 16.217 10.927 16.135 10.9125 16.0474C10.3914 12.8955 10.3163 10.2431 10.6834 7.93905Z" fill="#2A3853"/>
<path d="M12.6018 18.5475C12.8338 18.6744 13.0914 18.739 13.353 18.739C13.4837 18.739 13.6155 18.7225 13.7453 18.69C14.5478 18.4865 15.0258 17.7032 14.8108 16.9433C14.7066 16.5752 14.4572 16.2677 14.1085 16.0775C13.7598 15.8868 13.3539 15.8364 12.965 15.935C12.5761 16.0335 12.2512 16.2695 12.0502 16.5995C11.8492 16.9295 11.7954 17.3136 11.8995 17.6817C12.0037 18.0492 12.2531 18.3568 12.6018 18.5475ZM12.3437 16.76C12.4996 16.5042 12.7515 16.3213 13.0527 16.2452C13.1534 16.2196 13.2556 16.2072 13.3568 16.2072C13.5593 16.2072 13.7588 16.2576 13.939 16.3557C14.2092 16.5033 14.4025 16.7416 14.4829 17.0267C14.6495 17.6152 14.279 18.2225 13.6571 18.3802C13.3559 18.4567 13.0411 18.4173 12.7708 18.2697C12.5006 18.1221 12.3073 17.8838 12.2269 17.5987C12.1465 17.3132 12.1877 17.0152 12.3437 16.76Z" fill="#2A3853"/>
<path d="M16.967 20.4065L15.8085 18.5401C15.761 18.4636 15.6574 18.4384 15.5765 18.4829C15.4956 18.5278 15.469 18.6259 15.516 18.7024L16.6744 20.5687C16.7156 20.6352 16.7214 20.714 16.6909 20.7855C16.6599 20.8566 16.5974 20.9093 16.5185 20.929L12.5258 21.9414C12.4474 21.9616 12.365 21.9456 12.3006 21.8988C12.2362 21.8516 12.1999 21.7806 12.2004 21.7036L12.2173 19.5393C12.2178 19.4509 12.1427 19.3784 12.0493 19.3775C12.0488 19.3775 12.0483 19.3775 12.0478 19.3775C11.9548 19.3775 11.8793 19.4486 11.8783 19.5366L11.8613 21.7008C11.8599 21.8786 11.9446 22.0432 12.0933 22.1523C12.1999 22.2302 12.3268 22.2705 12.4571 22.2705C12.5089 22.2705 12.5617 22.2641 12.6135 22.2508L16.6062 21.2384C16.7878 21.1921 16.9331 21.0715 17.0043 20.9065C17.0764 20.7424 17.0624 20.56 16.967 20.4065Z" fill="#2A3853"/>
<path d="M4.00558 14.9414C3.96936 14.9414 3.93254 14.9345 3.89878 14.9198C3.79566 14.8758 3.76067 14.7778 3.8196 14.7008L4.61631 13.6663C4.67523 13.5898 4.80659 13.5632 4.90971 13.6072C5.01282 13.6512 5.04781 13.7493 4.98889 13.8263L4.19217 14.8607C4.15228 14.9125 4.08046 14.9414 4.00558 14.9414Z" fill="#F46E94"/>
<path d="M0.692859 11.5098C0.586671 11.5098 0.494601 11.4511 0.480484 11.3705C0.464525 11.2825 0.547388 11.2018 0.664624 11.1903L2.24884 11.0317C2.36608 11.0198 2.47472 11.0817 2.49007 11.1692C2.50602 11.2572 2.42316 11.3379 2.30593 11.3494L0.721707 11.508C0.711887 11.5093 0.702679 11.5098 0.692859 11.5098Z" fill="#F46E94"/>
<path d="M20.4941 13.4178C20.4308 13.4178 20.3688 13.3971 20.3265 13.3577L19.3266 12.4268C19.2523 12.3576 19.2671 12.2568 19.3598 12.2013C19.4524 12.1459 19.5875 12.1569 19.6617 12.2261L20.6616 13.157C20.7359 13.2262 20.7212 13.327 20.6285 13.3825C20.5892 13.4063 20.5413 13.4178 20.4941 13.4178Z" fill="#F46E94"/>
<path d="M20.666 9.14693C20.5494 9.14693 20.4537 9.07726 20.4512 8.98972C20.4488 8.90126 20.5427 8.82793 20.6618 8.82609L22.2595 8.80089C22.3773 8.79768 22.4761 8.86918 22.4786 8.95809C22.4811 9.04701 22.3871 9.11989 22.2681 9.12172L20.6703 9.14693C20.6691 9.14693 20.6679 9.14693 20.666 9.14693Z" fill="#F46E94"/>
</svg>
