<svg width="50" height="50" viewBox="0 0 50 50" fill="none" xmlns="http://www.w3.org/2000/svg">
<rect opacity="0.5" width="50" height="50" rx="7" fill="white"/>
<path d="M28.4906 12.8279L37.3796 20.7292C39.0413 22.2063 39.8722 22.9449 40.1784 23.817C40.4473 24.5828 40.4473 25.4174 40.1784 26.1833C39.8722 27.0554 39.0413 27.7939 37.3796 29.271L28.4906 37.1724C27.7365 37.8427 27.3594 38.1778 27.0392 38.1898C26.761 38.2002 26.4938 38.0803 26.3167 37.8654C26.1129 37.6181 26.1129 37.1136 26.1129 36.1046V31.1226C21.7771 31.1226 17.1975 32.5152 13.8535 34.9872C12.1127 36.2742 11.2422 36.9177 10.9106 36.8923C10.5875 36.8676 10.3824 36.7414 10.2147 36.464C10.0427 36.1794 10.1946 35.2903 10.4985 33.5121C12.4717 21.9654 20.418 18.8777 26.1129 18.8777V13.8956C26.1129 12.8867 26.1129 12.3822 26.3167 12.1349C26.4938 11.92 26.761 11.8 27.0392 11.8104C27.3594 11.8224 27.7365 12.1576 28.4906 12.8279Z" fill="white"/>
</svg>
