<svg width="50" height="50" viewBox="0 0 50 50" fill="none" xmlns="http://www.w3.org/2000/svg">
<rect opacity="0.5" width="50" height="50" rx="7" fill="white"/>
<path d="M21.5113 12.8291L12.6224 20.7304C10.9606 22.2076 10.1297 22.9461 9.82353 23.8182C9.55464 24.5841 9.55464 25.4187 9.82353 26.1845C10.1297 27.0566 10.9606 27.7952 12.6224 29.2723L21.5113 37.1736C22.2654 37.8439 22.6425 38.1791 22.9628 38.1911C23.241 38.2015 23.5081 38.0815 23.6852 37.8666C23.889 37.6193 23.889 37.1148 23.889 36.1059V31.1238C28.2249 31.1238 32.8045 32.5164 36.1484 34.9885C37.8893 36.2754 38.7598 36.9189 39.0913 36.8936C39.4145 36.8688 39.6196 36.7426 39.7873 36.4652C39.9593 36.1807 39.8073 35.2916 39.5035 33.5133C37.5303 21.9666 29.5839 18.8789 23.889 18.8789V13.8968C23.889 12.8879 23.889 12.3834 23.6852 12.1361C23.5081 11.9212 23.241 11.8012 22.9628 11.8117C22.6425 11.8236 22.2654 12.1588 21.5113 12.8291Z" fill="white"/>
</svg>
