<svg width="74" height="32" viewBox="0 0 74 32" fill="none" xmlns="http://www.w3.org/2000/svg">
<rect opacity="0.5" width="74" height="32" rx="5" fill="#1C274C" fill-opacity="0.6"/>
<g clip-path="url(#clip0_277_103541)">
<path d="M30 23.5833C30 24.1824 29.5147 24.6667 28.9167 24.6667H25.6667V27.9167C25.6667 28.5158 25.1813 29 24.5833 29C23.9853 29 23.5 28.5158 23.5 27.9167V24.6667H20.25C19.652 24.6667 19.1667 24.1824 19.1667 23.5833C19.1667 22.9843 19.652 22.5 20.25 22.5H23.5V19.25C23.5 18.6509 23.9853 18.1667 24.5833 18.1667C25.1813 18.1667 25.6667 18.6509 25.6667 19.25V22.5H28.9167C29.5147 22.5 30 22.9843 30 23.5833ZM21.3333 10.5833C21.9303 10.5833 22.4167 10.098 22.4167 9.5C22.4167 8.902 21.9303 8.41667 21.3333 8.41667C20.7364 8.41667 20.25 8.902 20.25 9.5C20.25 10.098 20.7364 10.5833 21.3333 10.5833ZM9.20867 12.9136L4 18.1223V8.41667C4 5.42992 6.42992 3 9.41667 3H22.4167C25.4034 3 27.8333 5.42992 27.8333 8.41667V16H24.5833C22.8663 16 21.4579 17.3379 21.342 19.0258L15.2298 12.9136C13.5691 11.2528 10.8683 11.2528 9.20867 12.9136ZM18.0833 9.5C18.0833 11.2918 19.5415 12.75 21.3333 12.75C23.1252 12.75 24.5833 11.2918 24.5833 9.5C24.5833 7.70817 23.1252 6.25 21.3333 6.25C19.5415 6.25 18.0833 7.70817 18.0833 9.5ZM17 23.5833C17 21.9984 18.1397 20.6757 19.6433 20.3908L13.698 14.4454C12.8833 13.6318 11.5573 13.6307 10.7405 14.4454L4 21.1859V21.4167C4 24.4034 6.42992 26.8333 9.41667 26.8333H17V23.5833Z" fill="white"/>
</g>
<path d="M60.3839 18.708C60.3839 19.836 60.2519 20.76 59.9879 21.48C59.7479 22.176 59.3159 22.728 58.6919 23.136C58.0919 23.52 57.2759 23.796 56.2439 23.964C55.2119 24.108 53.9159 24.18 52.3559 24.18C50.5319 24.18 48.9599 24.12 47.6399 24C46.3439 23.904 45.4319 23.772 44.9039 23.604C44.5199 23.484 44.2319 23.364 44.0399 23.244C43.8479 23.1 43.7279 22.896 43.6799 22.632C43.6319 22.344 43.6199 21.936 43.6439 21.408V20.544C44.8199 20.856 46.0919 21.096 47.4599 21.264C48.8519 21.432 50.2439 21.516 51.6359 21.516C52.6199 21.516 53.4599 21.444 54.1559 21.3C54.8759 21.132 55.4279 20.832 55.8119 20.4C56.1959 19.968 56.3879 19.356 56.3879 18.564C56.3879 17.892 56.3039 17.376 56.1359 17.016C55.9679 16.656 55.6559 16.404 55.1999 16.26C54.7679 16.092 54.1439 16.008 53.3279 16.008C52.5839 15.936 51.7679 15.9 50.8799 15.9C49.9919 15.9 49.1159 15.924 48.2519 15.972C47.4119 16.02 46.6319 16.08 45.9119 16.152C45.2159 16.2 44.6519 16.248 44.2199 16.296V7.44H60.0239V9.996H48.0719V13.524C48.5999 13.5 49.2239 13.488 49.9439 13.488C50.6639 13.488 51.3839 13.488 52.1039 13.488C52.8239 13.488 53.4959 13.5 54.1199 13.524C54.7679 13.524 55.2959 13.548 55.7039 13.596C56.9999 13.692 57.9839 13.932 58.6559 14.316C59.3279 14.7 59.7839 15.252 60.0239 15.972C60.2639 16.692 60.3839 17.604 60.3839 18.708Z" fill="white"/>
<defs>
<clipPath id="clip0_277_103541">
<rect width="26" height="26" fill="white" transform="translate(4 3)"/>
</clipPath>
</defs>
</svg>
