<svg width="26" height="26" viewBox="0 0 26 26" fill="none" xmlns="http://www.w3.org/2000/svg">
<path d="M26 20.5833C26 21.1824 25.5147 21.6667 24.9167 21.6667H21.6667V24.9167C21.6667 25.5158 21.1813 26 20.5833 26C19.9853 26 19.5 25.5158 19.5 24.9167V21.6667H16.25C15.652 21.6667 15.1667 21.1824 15.1667 20.5833C15.1667 19.9843 15.652 19.5 16.25 19.5H19.5V16.25C19.5 15.6509 19.9853 15.1667 20.5833 15.1667C21.1813 15.1667 21.6667 15.6509 21.6667 16.25V19.5H24.9167C25.5147 19.5 26 19.9843 26 20.5833ZM17.3333 7.58333C17.9303 7.58333 18.4167 7.098 18.4167 6.5C18.4167 5.902 17.9303 5.41667 17.3333 5.41667C16.7364 5.41667 16.25 5.902 16.25 6.5C16.25 7.098 16.7364 7.58333 17.3333 7.58333ZM5.20867 9.91358L0 15.1223V5.41667C0 2.42992 2.42992 0 5.41667 0H18.4167C21.4034 0 23.8333 2.42992 23.8333 5.41667V13H20.5833C18.8663 13 17.4579 14.3379 17.342 16.0258L11.2298 9.91358C9.56908 8.25283 6.86833 8.25283 5.20867 9.91358ZM14.0833 6.5C14.0833 8.29183 15.5415 9.75 17.3333 9.75C19.1252 9.75 20.5833 8.29183 20.5833 6.5C20.5833 4.70817 19.1252 3.25 17.3333 3.25C15.5415 3.25 14.0833 4.70817 14.0833 6.5ZM13 20.5833C13 18.9984 14.1397 17.6757 15.6433 17.3908L9.698 11.4454C8.88333 10.6318 7.55733 10.6307 6.7405 11.4454L0 18.1859V18.4167C0 21.4034 2.42992 23.8333 5.41667 23.8333H13V20.5833Z" fill="white"/>
</svg>
