<svg viewBox="0 0 512 512" xmlns="http://www.w3.org/2000/svg" xmlns:xlink="http://www.w3.org/1999/xlink"><linearGradient id="linear-gradient" gradientUnits="userSpaceOnUse" x1="74.98" x2="437.02" y1="74.98" y2="437.02"><stop offset="0" stop-color="#ed2e7c"/><stop offset="1" stop-color="#e50561"/></linearGradient><g id="Layer_2" data-name="Layer 2"><g id="Layer_1_copy_9" data-name="Layer 1 copy 9"><g id="_11" data-name="11"><circle id="background" cx="256" cy="256" fill="url(#linear-gradient)" r="256"/><path d="m404.73 271a24.69 24.69 0 0 0 -5.45-15.51 32.64 32.64 0 0 0 -20.94-57.7h-60.6c4.43-35-.71-59.74-15.34-73.65-16.21-15.42-37.37-11-38.26-10.8a8.48 8.48 0 0 0 -6.66 8.21c-.27 34.58-8.89 64-24.92 85.16a88.57 88.57 0 0 1 -13.43 14.24 19.19 19.19 0 0 0 -18.63-14.67h-80.33a19.19 19.19 0 0 0 -19.17 19.14v130.84a19.19 19.19 0 0 0 19.17 19.17h80.33a19.19 19.19 0 0 0 17.86-12.24 42.33 42.33 0 0 0 17.47 3.75h124.73a27.67 27.67 0 0 0 24.32-40.89 24.82 24.82 0 0 0 10.26-35.5 24.8 24.8 0 0 0 9.59-19.55zm-202 85.29a2.21 2.21 0 0 1 -2.21 2.21h-80.35a2.21 2.21 0 0 1 -2.21-2.21v-130.87a2.22 2.22 0 0 1 2.21-2.22h80.33a2.22 2.22 0 0 1 2.21 2.22zm157.83-6.29h-124.73a25.31 25.31 0 0 1 -16.16-5.77v-102.8a97.31 97.31 0 0 0 25.64-23.51c12.36-15.93 27-43.94 28.93-88.38a25.76 25.76 0 0 1 16.61 7c7.92 7.65 15.86 25.71 8.71 68.3a8.48 8.48 0 0 0 8.36 9.88h70.42a15.71 15.71 0 0 1 0 31.42h-76.69a8.48 8.48 0 0 0 0 16.95h78.24a7.89 7.89 0 1 1 0 15.77h-78.24a8.48 8.48 0 0 0 0 16.95h72.42a7.89 7.89 0 0 1 0 15.77h-72.42a8.48 8.48 0 0 0 0 16.95h58.91a10.73 10.73 0 0 1 0 21.46z" fill="#fff"/></g></g></g></svg>