<svg viewBox="0 0 512 512" xmlns="http://www.w3.org/2000/svg" xmlns:xlink="http://www.w3.org/1999/xlink"><linearGradient id="linear-gradient" gradientUnits="userSpaceOnUse" x1="67.76" x2="439.42" y1="67.76" y2="439.42"><stop offset="0" stop-color="#fd7f60"/><stop offset="1" stop-color="#fa262a"/></linearGradient><g id="Layer_2" data-name="Layer 2"><g id="Layer_2_copy_6" data-name="Layer 2 copy 6"><g id="_67" data-name="67"><path d="m256 0c-141.38 0-256 114.62-256 256s114.62 256 256 256 256-114.62 256-256-114.62-256-256-256zm-68.76 245.09c-.41-7.19 4.89-13 12.32-13.4 9.76-.6 16.58-4.67 20.86-12.44a22.86 22.86 0 0 0 -5.33-28.81c-3.43-2.89-7-5.77-10.42-8.56-4.07-3.3-8.28-6.72-12.36-10.2a158.3 158.3 0 0 1 -11.41-11c-1.55-1.63-3.06-3.29-4.57-5v34.32q0 49.46 0 98.92v.43.18a40.19 40.19 0 1 1 -25.45-37.36v-29.17c0-33.82 0-68.79-.05-103.18a27.68 27.68 0 0 1 .36-4.73 12.74 12.74 0 0 1 21.81-6.6 21.9 21.9 0 0 1 2.9 3.71 193 193 0 0 0 52.06 56c14.32 10.37 21.3 24.6 20.75 42.29-.77 25.17-22.8 46.47-48.1 46.51-7.38 0-12.97-5-13.37-11.91zm228.51 92.61a43 43 0 0 1 -.26 4.7 41.18 41.18 0 1 1 -31.58-44.84v-79.56l-78.61 23.46.47 119a41.81 41.81 0 1 1 -32.37-34.46v-93a22.16 22.16 0 0 1 16-21.27l97.78-28.51a22.16 22.16 0 0 1 28.36 21.27l.46 128.51a41.54 41.54 0 0 1 -.25 4.7z" fill="url(#linear-gradient)"/></g></g></g></svg>