<svg viewBox="0 0 512 512" xmlns="http://www.w3.org/2000/svg" xmlns:xlink="http://www.w3.org/1999/xlink"><linearGradient id="linear-gradient" gradientUnits="userSpaceOnUse" x1="74.98" x2="437.02" y1="74.98" y2="437.02"><stop offset="0" stop-color="#ed2e7c"/><stop offset="1" stop-color="#e50561"/></linearGradient><linearGradient id="linear-gradient-2" gradientUnits="userSpaceOnUse" x1="152.1" x2="434.42" y1="157.29" y2="439.61"><stop offset="0" stop-color="#bc0056"/><stop offset="1" stop-color="#bc0056" stop-opacity="0"/></linearGradient><g id="Layer_2" data-name="Layer 2"><g id="Layer_2_copy_4" data-name="Layer 2 copy 4"><g id="_102" data-name="102"><circle cx="256" cy="256" fill="url(#linear-gradient)" r="256"/><path d="m510.52 283.64c-13.14 122.47-112.66 219.08-236.42 227.72l-122.56-122.56 37.62-12.71-38.29-38.29 68 16.92-60.3-60.3-12.57-26.5-11.89-57.22 18.68-54.09 40.51-34.61 62.22-8.51 62.48 29.7 51.86 51.86-19.15-62 7.11-2.16z" fill="url(#linear-gradient-2)"/><g fill="#fff"><path d="m357.78 130.87a8.21 8.21 0 0 0 -13.33 9.58 131.87 131.87 0 0 1 -86.9 207.16 133.11 133.11 0 0 1 -20.23 1.55 130.79 130.79 0 0 1 -76.87-24.7 8.18 8.18 0 0 0 -10.55.89 8.2 8.2 0 0 0 1 12.44 146.85 146.85 0 0 0 78.35 27.55v10.18c-43.52.69-77.65 7.24-77.65 15.21 0 8.43 38.17 15.27 85.27 15.27s85.27-6.84 85.27-15.27c0-7.9-33.52-14.4-76.48-15.19v-10.21c4.83-.27 9.65-.77 14.42-1.51a148.31 148.31 0 0 0 97.73-232.95z"/><path d="m226.09 327a112.26 112.26 0 0 0 16.4.44c62.5-2.16 112-59.81 105-121.8-3.95-50.58-48.43-95-99-99-69.07-7.51-128.92 52.36-121.4 121.36 3.96 50.58 48.43 95 99 99zm-55.53-43.47c-.62-.62-1.3-2.62-1.19-6.21-.19-8.08 6.47-24.68 12.79-35a95.77 95.77 0 0 1 29.56 29.57 135.19 135.19 0 0 1 -14.24 7.26c-10.16 4.36-16.87 5.42-20.71 5.53-3.59.15-5.59-.54-6.21-1.15zm20.19 15.41a123.77 123.77 0 0 0 28.5-12.4 93.55 93.55 0 0 1 6.24 23.89 93.39 93.39 0 0 1 -34.74-11.49zm34.75-35.94a112.06 112.06 0 0 0 -34.44-34.44 240.9 240.9 0 0 1 20.94-25.45l39 39a241 241 0 0 1 -25.5 20.89zm16.55 48a110.74 110.74 0 0 0 -8.77-33.39 254.06 254.06 0 0 0 29.3-23.9l35.34 35.34a93.56 93.56 0 0 1 -55.87 21.95zm67.47-33.57-35.34-35.33a253.08 253.08 0 0 0 23.9-29.31 110.9 110.9 0 0 0 33.4 8.78 93.47 93.47 0 0 1 -21.96 55.9zm9.86-107.17a93.41 93.41 0 0 1 11.5 34.74 94.17 94.17 0 0 1 -23.88-6.19c5.82-10.16 10-19.81 12.38-28.51zm-15.38-20.14c.62.61 1.3 2.61 1.2 6.2.18 8.08-6.47 24.69-12.8 35a95.66 95.66 0 0 1 -29.56-29.57 132.33 132.33 0 0 1 14.25-7.25c10.15-4.37 16.86-5.42 20.7-5.54 3.57-.15 5.56.54 6.21 1.16zm-20.22-15.42a124 124 0 0 0 -28.5 12.41 93.31 93.31 0 0 1 -6.23-23.9 93.29 93.29 0 0 1 34.73 11.49zm-34.78 35.91a112.06 112.06 0 0 0 34.44 34.44 242 242 0 0 1 -20.89 25.48l-39-39a241 241 0 0 1 25.45-20.92zm-16.55-48a110.45 110.45 0 0 0 8.78 33.4 253.28 253.28 0 0 0 -29.23 23.89l-35.34-35.33a93.57 93.57 0 0 1 55.82-21.97zm-67.45 33.56 35.34 35.33a253.08 253.08 0 0 0 -23.9 29.31 110.43 110.43 0 0 0 -33.4-8.77 93.53 93.53 0 0 1 21.96-55.87zm-21.35 72.43a93.72 93.72 0 0 1 23.9 6.23 123.82 123.82 0 0 0 -12.4 28.51 93.59 93.59 0 0 1 -11.5-34.74z"/></g></g></g></g></svg>