<svg viewBox="0 0 512 512" xmlns="http://www.w3.org/2000/svg" xmlns:xlink="http://www.w3.org/1999/xlink"><linearGradient id="linear-gradient" gradientUnits="userSpaceOnUse" x1="74.98" x2="437.02" y1="74.98" y2="437.02"><stop offset="0" stop-color="#01faff"/><stop offset=".35" stop-color="#01dbff"/><stop offset=".77" stop-color="#01bbff"/><stop offset="1" stop-color="#01afff"/></linearGradient><g id="Layer_2" data-name="Layer 2"><g id="clock"><circle id="background" cx="256" cy="256" fill="url(#linear-gradient)" r="256"/><path d="m366.31 145.55a156 156 0 1 0 45.69 110.32 155 155 0 0 0 -45.69-110.32zm-47 176.94a15.29 15.29 0 0 1 -21.63 0l-32.68-32.68a36.1 36.1 0 0 1 -27.6-66.64v-33.17a15.3 15.3 0 0 1 30.6 0v33.13a36.12 36.12 0 0 1 18.64 45l32.69 32.68a15.3 15.3 0 0 1 -.05 21.68z" fill="#fff"/></g></g></svg>