<svg width="50" height="50" viewBox="0 0 50 50" fill="none" xmlns="http://www.w3.org/2000/svg">
<path d="M20.5933 0H23.5229V7.59277H20.5933V0Z" fill="#4E5F7F"/>
<path d="M26.4771 0H29.4067V7.59277H26.4771V0Z" fill="#3E4665"/>
<path d="M20.5933 42.4072H23.5229V50H20.5933V42.4072Z" fill="#4E5F7F"/>
<path d="M26.4771 42.4072H29.4067V50H26.4771V42.4072Z" fill="#3E4665"/>
<path d="M42.6514 23.5352H50V26.4648H42.6514V23.5352Z" fill="#3E4665"/>
<path d="M0 23.5352H7.34863V26.4648H0V23.5352Z" fill="#4E5F7F"/>
<path d="M0 14.7095H9.71064V17.6392H0V14.7095Z" fill="#4E5F7F"/>
<path d="M0 32.3608H9.71064V35.2905H0V32.3608Z" fill="#4E5F7F"/>
<path d="M40.2896 14.7095H50.0002V17.6392H40.2896V14.7095Z" fill="#3E4665"/>
<path d="M40.2896 32.3608H50.0002V35.2905H40.2896V32.3608Z" fill="#3E4665"/>
<path d="M15.7017 11.6805L11.6498 4.58984H4.35742V1.66016H13.35L18.2453 10.227L15.7017 11.6805Z" fill="#4E5F7F"/>
<path d="M34.298 11.6805L31.7544 10.227L36.6497 1.66016H45.6423V4.58984H38.3499L34.298 11.6805Z" fill="#3E4665"/>
<path d="M3.125 6.25C4.85089 6.25 6.25 4.85089 6.25 3.125C6.25 1.39911 4.85089 0 3.125 0C1.39911 0 0 1.39911 0 3.125C0 4.85089 1.39911 6.25 3.125 6.25Z" fill="#18B2FF"/>
<path d="M13.35 48.3399H4.35742V45.4102H11.6498L15.7017 38.3196L18.2453 39.7731L13.35 48.3399Z" fill="#4E5F7F"/>
<path d="M45.6423 48.3399H36.6497L31.7544 39.7731L34.298 38.3196L38.3499 45.4102H45.6423V48.3399Z" fill="#3E4665"/>
<path d="M46.875 6.25C48.6009 6.25 50 4.85089 50 3.125C50 1.39911 48.6009 0 46.875 0C45.1491 0 43.75 1.39911 43.75 3.125C43.75 4.85089 45.1491 6.25 46.875 6.25Z" fill="#1588DF"/>
<path d="M3.125 50C4.85089 50 6.25 48.6009 6.25 46.875C6.25 45.1491 4.85089 43.75 3.125 43.75C1.39911 43.75 0 45.1491 0 46.875C0 48.6009 1.39911 50 3.125 50Z" fill="#18B2FF"/>
<path d="M25 43.75C35.3553 43.75 43.75 35.3553 43.75 25C43.75 14.6447 35.3553 6.25 25 6.25C14.6447 6.25 6.25 14.6447 6.25 25C6.25 35.3553 14.6447 43.75 25 43.75Z" fill="#ECF2FF"/>
<path d="M43.75 25C43.75 35.3555 35.3555 43.75 25 43.75V6.25C35.3555 6.25 43.75 14.6445 43.75 25Z" fill="#DAE6FE"/>
<path d="M27.9395 19.1172H23.5352V30.8828H26.4648V27.9355H27.9395C30.3711 27.9355 32.3486 25.957 32.3486 23.5264C32.3486 21.0947 30.3711 19.1172 27.9395 19.1172ZM27.9395 25.0059H26.4648V22.0469H27.9395C28.7549 22.0469 29.4189 22.71 29.4189 23.5264C29.4189 24.3418 28.7549 25.0059 27.9395 25.0059Z" fill="#18B2FF"/>
<path d="M27.9395 19.1172H25V30.8828H26.4648V27.9355H27.9395C30.3711 27.9355 32.3486 25.957 32.3486 23.5264C32.3486 21.0947 30.3711 19.1172 27.9395 19.1172ZM27.9395 25.0059H26.4648V22.0469H27.9395C28.7549 22.0469 29.4189 22.71 29.4189 23.5264C29.4189 24.3418 28.7549 25.0059 27.9395 25.0059Z" fill="#1588DF"/>
<path d="M16.7603 19.1169C14.3304 19.1169 12.3535 21.0938 12.3535 23.5237V30.8832H15.2832V27.9352H18.2373V30.8837H21.167V23.5236C21.167 21.0938 19.1901 19.1169 16.7603 19.1169ZM15.2832 25.0056V23.5237C15.2832 22.7092 15.9458 22.0466 16.7603 22.0466C17.5747 22.0466 18.2373 22.7092 18.2373 23.5237V25.0056H15.2832Z" fill="#18B2FF"/>
<path d="M34.2637 19.1162H37.1934V30.8838H34.2637V19.1162Z" fill="#1588DF"/>
<path d="M46.875 50C48.6009 50 50 48.6009 50 46.875C50 45.1491 48.6009 43.75 46.875 43.75C45.1491 43.75 43.75 45.1491 43.75 46.875C43.75 48.6009 45.1491 50 46.875 50Z" fill="#1588DF"/>
</svg>
