<svg width="36" height="36" viewBox="0 0 36 36" fill="none" xmlns="http://www.w3.org/2000/svg">
<path d="M22.2019 13.8544H13.7981C12.1919 13.8559 10.6518 14.4946 9.51602 15.6304C8.38022 16.7662 7.74148 18.3062 7.73999 19.9125V24.0356C7.74148 25.6419 8.38022 27.1819 9.51602 28.3177C10.6518 29.4535 12.1919 30.0923 13.7981 30.0937H22.2019C23.8081 30.0923 25.3482 29.4535 26.484 28.3177C27.6198 27.1819 28.2585 25.6419 28.26 24.0356V19.9125C28.2585 18.3062 27.6198 16.7662 26.484 15.6304C25.3482 14.4946 23.8081 13.8559 22.2019 13.8544ZM27.1069 24.0356C27.1054 25.3361 26.5881 26.5828 25.6686 27.5023C24.749 28.4219 23.5023 28.9391 22.2019 28.9406H13.7981C12.4977 28.9391 11.2509 28.4219 10.3314 27.5023C9.41186 26.5828 8.8946 25.3361 8.89312 24.0356V19.9125C8.8946 18.6121 9.41186 17.3653 10.3314 16.4458C11.2509 15.5262 12.4977 15.009 13.7981 15.0075H22.2019C23.5023 15.009 24.749 15.5262 25.6686 16.4458C26.5881 17.3653 27.1054 18.6121 27.1069 19.9125V24.0356Z" fill="#1C274C"/>
<path d="M15.1255 19.89C15.1255 19.4717 15.0015 19.0628 14.7691 18.715C14.5367 18.3672 14.2063 18.0961 13.8199 17.936C13.4334 17.7759 13.0082 17.7341 12.5979 17.8157C12.1876 17.8973 11.8108 18.0987 11.515 18.3945C11.2192 18.6903 11.0178 19.0671 10.9361 19.4774C10.8545 19.8877 10.8964 20.3129 11.0565 20.6994C11.2166 21.0859 11.4877 21.4162 11.8355 21.6486C12.1833 21.881 12.5922 22.005 13.0105 22.005C13.5714 22.005 14.1094 21.7822 14.506 21.3856C14.9027 20.9889 15.1255 20.451 15.1255 19.89ZM13.0105 20.8519C12.8203 20.8519 12.6343 20.7955 12.4761 20.6898C12.3179 20.5841 12.1947 20.4339 12.1219 20.2581C12.049 20.0824 12.03 19.889 12.0671 19.7024C12.1042 19.5158 12.1958 19.3444 12.3304 19.2099C12.4649 19.0754 12.6363 18.9837 12.8229 18.9466C13.0094 18.9095 13.2028 18.9286 13.3786 19.0014C13.5544 19.0742 13.7046 19.1975 13.8103 19.3556C13.916 19.5138 13.9724 19.6998 13.9724 19.89C13.9709 20.1447 13.8691 20.3885 13.689 20.5685C13.509 20.7486 13.2652 20.8504 13.0105 20.8519Z" fill="#1C274C"/>
<path d="M22.9893 17.775C22.571 17.775 22.162 17.8991 21.8142 18.1315C21.4664 18.3639 21.1953 18.6942 21.0353 19.0806C20.8752 19.4671 20.8333 19.8924 20.9149 20.3026C20.9965 20.7129 21.1979 21.0898 21.4937 21.3856C21.7895 21.6813 22.1664 21.8828 22.5767 21.9644C22.9869 22.046 23.4122 22.0041 23.7986 21.844C24.1851 21.6839 24.5154 21.4129 24.7478 21.0651C24.9802 20.7172 25.1043 20.3083 25.1043 19.89C25.1043 19.3291 24.8814 18.7911 24.4848 18.3945C24.0882 17.9979 23.5502 17.775 22.9893 17.775ZM22.9893 20.8519C22.799 20.8519 22.6131 20.7955 22.4549 20.6898C22.2967 20.5841 22.1734 20.4339 22.1006 20.2581C22.0278 20.0824 22.0088 19.889 22.0459 19.7024C22.083 19.5158 22.1746 19.3444 22.3091 19.2099C22.4436 19.0754 22.615 18.9837 22.8016 18.9466C22.9882 18.9095 23.1816 18.9286 23.3574 19.0014C23.5331 19.0742 23.6833 19.1975 23.789 19.3556C23.8947 19.5138 23.9511 19.6998 23.9511 19.89C23.9497 20.1447 23.8479 20.3885 23.6678 20.5685C23.4877 20.7486 23.2439 20.8504 22.9893 20.8519Z" fill="#1C274C"/>
<path d="M20.5538 23.94C18.0451 26.3025 15.5588 24.0413 15.4463 23.94C15.3913 23.8883 15.3266 23.8479 15.256 23.8212C15.1853 23.7945 15.1101 23.782 15.0347 23.7843C14.9592 23.7867 14.8849 23.8039 14.8161 23.8349C14.7472 23.866 14.6852 23.9103 14.6335 23.9653C14.5818 24.0204 14.5414 24.085 14.5147 24.1557C14.488 24.2263 14.4755 24.3015 14.4778 24.377C14.4802 24.4525 14.4974 24.5267 14.5284 24.5956C14.5595 24.6644 14.6038 24.7264 14.6588 24.7781C15.597 25.6444 16.8191 26.1384 18.0957 26.1675C19.3181 26.1489 20.484 25.6498 21.3413 24.7781C21.3963 24.7264 21.4407 24.6644 21.4717 24.5956C21.5028 24.5267 21.52 24.4525 21.5223 24.377C21.5247 24.3015 21.5121 24.2263 21.4854 24.1557C21.4587 24.085 21.4183 24.0204 21.3666 23.9653C21.3149 23.9103 21.2529 23.866 21.184 23.8349C21.1152 23.8039 21.0409 23.7867 20.9655 23.7843C20.89 23.782 20.8148 23.7945 20.7442 23.8212C20.6735 23.8479 20.6088 23.8883 20.5538 23.94Z" fill="#1C274C"/>
<path d="M32.1975 16.92C31.934 14.7637 30.8914 12.7781 29.2659 11.337C27.6404 9.89596 25.5442 9.0988 23.3719 9.09562H18.5625V6.1875C19.1784 6.04906 19.7216 5.68835 20.0882 5.17441C20.4548 4.66046 20.619 4.02939 20.5493 3.40196C20.4797 2.77453 20.1811 2.19482 19.7108 1.77377C19.2404 1.35273 18.6313 1.11993 18 1.11993C17.3687 1.11993 16.7596 1.35273 16.2892 1.77377C15.8189 2.19482 15.5203 2.77453 15.4507 3.40196C15.381 4.02939 15.5452 4.66046 15.9118 5.17441C16.2784 5.68835 16.8216 6.04906 17.4375 6.1875V9.07875H12.6281C10.4532 9.08242 8.3549 9.88196 6.72902 11.3265C5.10314 12.771 4.06216 14.7607 3.8025 16.92C1.6875 17.2125 0 19.3669 0 21.9712C0 24.5756 1.6875 26.73 3.8025 27.0337C4.06333 29.1926 5.10465 31.1815 6.73027 32.6258C8.35589 34.0701 10.4536 34.8701 12.6281 34.875H23.3719C25.5473 34.8699 27.6457 34.0692 29.2714 32.6237C30.8972 31.1783 31.9379 29.188 32.1975 27.0281C34.335 26.73 36 24.5812 36 21.9656C36 19.35 34.3125 17.2125 32.1975 16.92ZM3.72938 25.8412C2.26688 25.5037 1.15312 23.9006 1.15312 21.9712C1.15312 20.0419 2.27813 18.4444 3.72938 18.1012V25.8412ZM16.5881 3.7125C16.5881 3.43325 16.6709 3.16028 16.8261 2.9281C16.9812 2.69592 17.2017 2.51496 17.4597 2.40809C17.7177 2.30123 18.0016 2.27327 18.2754 2.32775C18.5493 2.38223 18.8009 2.5167 18.9983 2.71415C19.1958 2.9116 19.3303 3.16318 19.3847 3.43705C19.4392 3.71093 19.4113 3.99481 19.3044 4.2528C19.1975 4.51078 19.0166 4.73129 18.7844 4.88643C18.5522 5.04157 18.2792 5.12437 18 5.12437C17.626 5.12289 17.2677 4.97366 17.0033 4.70921C16.7388 4.44475 16.5896 4.08649 16.5881 3.7125ZM31.1175 25.9481C31.116 28.0025 30.2997 29.9723 28.8476 31.4255C27.3955 32.8786 25.4262 33.6964 23.3719 33.6994H12.6281C10.5738 33.6964 8.60455 32.8786 7.15244 31.4255C5.70034 29.9723 4.88399 28.0025 4.8825 25.9481V18C4.88399 15.9457 5.70034 13.9758 7.15244 12.5227C8.60455 11.0695 10.5738 10.2517 12.6281 10.2487H23.3719C25.4262 10.2517 27.3955 11.0695 28.8476 12.5227C30.2997 13.9758 31.116 15.9457 31.1175 18V25.9481ZM32.2425 25.8412V18.1012C33.75 18.4444 34.875 20.0475 34.875 21.9712C34.875 23.895 33.75 25.5037 32.2706 25.8412H32.2425Z" fill="#1C274C"/>
</svg>
