<svg width="36" height="36" viewBox="0 0 36 36" fill="none" xmlns="http://www.w3.org/2000/svg">
<path d="M18 6C18 4.58579 18 3.87868 18.4393 3.43934C18.8787 3 19.5858 3 21 3H25.5C26.9142 3 27.6213 3 28.0607 3.43934C28.5 3.87868 28.5 4.58579 28.5 6V9C28.5 10.4142 28.5 11.1213 28.0607 11.5607C27.6213 12 26.9142 12 25.5 12H21C19.5858 12 18.8787 12 18.4393 11.5607C18 11.1213 18 10.4142 18 9V6Z" stroke="#1C274C" stroke-width="1.5"/>
<path d="M28.5 5.625L31.6154 4.32692C32.2416 4.066 32.5547 3.93554 32.7774 4.08397C33 4.23241 33 4.57161 33 5.25V9.75C33 10.4284 33 10.7676 32.7774 10.916C32.5547 11.0645 32.2416 10.934 31.6154 10.6731L28.5 9.375V5.625Z" stroke="#1C274C" stroke-width="1.5"/>
<path opacity="0.5" d="M24 33H12M18 25.5V33" stroke="#1C274C" stroke-width="1.5" stroke-linecap="round"/>
<path opacity="0.5" d="M33 19.5H3" stroke="#1C274C" stroke-width="1.5" stroke-linecap="round"/>
<path d="M33 15V16.5C33 20.7426 33 22.864 31.682 24.182C30.364 25.5 28.2426 25.5 24 25.5H12C7.75736 25.5 5.63604 25.5 4.31802 24.182C3 22.864 3 20.7426 3 16.5V14.25C3 9.31878 3 6.85317 4.36194 5.19364C4.61126 4.88984 4.88984 4.61126 5.19364 4.36194C6.85317 3 9.31878 3 14.25 3" stroke="#1C274C" stroke-width="1.5" stroke-linecap="round"/>
</svg>
