<svg width="50" height="51" viewBox="0 0 50 51" fill="none" xmlns="http://www.w3.org/2000/svg">
<path fill-rule="evenodd" clip-rule="evenodd" d="M28.5157 12.5519C28.1348 12.5519 27.832 12.2431 27.832 11.8546V7.77098C27.832 7.38254 28.1348 7.07373 28.5157 7.07373C28.8965 7.07373 29.1993 7.38254 29.1993 7.77098V11.8546C29.1993 12.2431 28.8965 12.5519 28.5157 12.5519Z" fill="#C7C7C6"/>
<path fill-rule="evenodd" clip-rule="evenodd" d="M32.1289 12.552C31.7481 12.552 31.4453 12.2432 31.4453 11.8547L31.4454 5.67943C31.4454 5.29098 31.7482 4.98218 32.1291 4.98218C32.5099 4.98218 32.8127 5.29098 32.8127 5.67943V11.8547C32.8126 12.2432 32.5098 12.552 32.1289 12.552Z" fill="#C7C7C6"/>
<path fill-rule="evenodd" clip-rule="evenodd" d="M32.1289 6.37648C31.1621 6.37648 30.3711 5.56971 30.3711 4.58364C30.3711 3.51795 31.1426 2.69116 32.1289 2.69116C33.1152 2.69116 33.8867 3.51782 33.8867 4.58364C33.8867 5.56982 33.0957 6.37648 32.1289 6.37648Z" fill="#C7C7C6"/>
<path fill-rule="evenodd" clip-rule="evenodd" d="M28.5156 8.46804C27.5293 8.46804 26.7578 7.64138 26.7578 6.57556C26.7578 5.5895 27.5488 4.78271 28.5156 4.78271C29.5605 4.78271 30.3712 5.56961 30.3712 6.57556C30.3712 7.65137 29.5703 8.46804 28.5156 8.46804Z" fill="#C7C7C6"/>
<path fill-rule="evenodd" clip-rule="evenodd" d="M23.3399 12.5518C22.9591 12.5518 22.6563 12.243 22.6563 11.8546V8.4582L21.2988 7.0737C21.1718 6.94418 21.0938 6.76489 21.0938 6.58561V3.48803C21.0938 3.09958 21.3965 2.79077 21.7774 2.79077C22.1582 2.79077 22.461 3.09958 22.461 3.48803V6.2868L23.8185 7.67131C23.9455 7.80083 24.0236 7.98011 24.0236 8.1594V11.8447C24.0234 12.243 23.7208 12.5518 23.3399 12.5518Z" fill="#C7C7C6"/>
<path fill-rule="evenodd" clip-rule="evenodd" d="M19.7271 12.5519C19.3463 12.5519 19.0435 12.2431 19.0435 11.8547V8.45829L18.272 7.6714C18.0083 7.40247 18.0083 6.95426 18.272 6.68534C18.5356 6.41641 18.9751 6.41641 19.2388 6.68534L20.2154 7.68139C20.3424 7.81092 20.4205 7.9902 20.4205 8.16948V11.8548C20.4108 12.2431 20.108 12.5519 19.7271 12.5519Z" fill="#C7C7C6"/>
<path fill-rule="evenodd" clip-rule="evenodd" d="M17.8711 8.36843C16.9336 8.36843 16.1133 7.48201 16.1133 6.47595C16.1133 5.48989 16.9043 4.68311 17.8711 4.68311C18.8574 4.68311 19.7266 5.51976 19.7266 6.47595C19.7265 7.46201 18.8378 8.36843 17.8711 8.36843Z" fill="#C7C7C6"/>
<path fill-rule="evenodd" clip-rule="evenodd" d="M21.7774 4.18532C20.7715 4.18532 19.9219 3.31878 19.9219 2.29284C19.9219 1.33666 20.791 0.5 21.7774 0.5C22.7442 0.5 23.5352 1.30678 23.5352 2.29284C23.5352 3.35866 22.7637 4.18532 21.7774 4.18532Z" fill="#C7C7C6"/>
<path fill-rule="evenodd" clip-rule="evenodd" d="M44.1407 33.7668C43.9649 33.7668 43.7891 33.697 43.6621 33.5576L42.8809 32.7707H38.8672C38.4864 32.7707 38.1836 32.4619 38.1836 32.0735C38.1836 31.685 38.4864 31.3762 38.8672 31.3762L43.1642 31.3763C43.3498 31.3763 43.5158 31.4461 43.6428 31.5855L44.6194 32.5816C44.883 32.8505 44.883 33.2987 44.6194 33.5676C44.4923 33.697 44.3165 33.7668 44.1407 33.7668Z" fill="#C7C7C6"/>
<path fill-rule="evenodd" clip-rule="evenodd" d="M44.9219 35.7588C43.9356 35.7588 43.1641 34.9322 43.1641 33.8663C43.1641 32.8803 43.9551 32.0735 44.9219 32.0735C45.9668 32.0735 46.7774 32.8604 46.7774 33.8663C46.7774 34.9421 45.9766 35.7588 44.9219 35.7588Z" fill="#C7C7C6"/>
<path fill-rule="evenodd" clip-rule="evenodd" d="M46.3868 30.2809C46.211 30.2809 46.0352 30.2111 45.9082 30.0717L45.0293 29.1853H38.8672C38.4864 29.1853 38.1836 28.8765 38.1836 28.488C38.1836 28.0996 38.4864 27.7908 38.8672 27.7908H45.3126C45.4982 27.7908 45.6641 27.8605 45.7911 27.9999L46.8653 29.0955C47.129 29.3644 47.129 29.8126 46.8653 30.0816C46.7383 30.2111 46.5625 30.2809 46.3868 30.2809Z" fill="#C7C7C6"/>
<path fill-rule="evenodd" clip-rule="evenodd" d="M47.168 32.273C46.1817 32.273 45.4102 31.4463 45.4102 30.3805C45.4102 29.3944 46.2012 28.5876 47.168 28.5876C48.2129 28.5876 49.0235 29.3745 49.0235 30.3805C49.0234 31.4563 48.2227 32.273 47.168 32.273Z" fill="#C7C7C6"/>
<path fill-rule="evenodd" clip-rule="evenodd" d="M42.4806 24.7033H38.8672C38.4864 24.7033 38.1836 24.3945 38.1836 24.006C38.1836 23.6176 38.4864 23.3088 38.8672 23.3088H42.1974L43.5646 21.9243C43.6915 21.7947 43.8673 21.7151 44.0431 21.7151L47.0704 21.7152C47.4513 21.7152 47.754 22.024 47.754 22.4125C47.754 22.8009 47.4513 23.1097 47.0704 23.1097L44.3263 23.1096L42.9591 24.4941C42.8321 24.6335 42.6662 24.7033 42.4806 24.7033Z" fill="#C7C7C6"/>
<path fill-rule="evenodd" clip-rule="evenodd" d="M42.4806 21.018H38.8672C38.4864 21.018 38.1836 20.7092 38.1836 20.3207C38.1836 19.9323 38.4864 19.6235 38.8672 19.6235L42.1974 19.6236L42.9786 18.8367C43.2423 18.5678 43.6817 18.5678 43.9454 18.8367C44.2091 19.1056 44.2091 19.5538 43.9454 19.8228L42.9688 20.8188C42.8321 20.9482 42.6662 21.018 42.4806 21.018Z" fill="#C7C7C6"/>
<path fill-rule="evenodd" clip-rule="evenodd" d="M44.1407 20.3208C43.086 20.3208 42.2852 19.504 42.2852 18.4283C42.2852 17.4224 43.0957 16.6355 44.1407 16.6355C45.1075 16.6355 45.8985 17.4423 45.8985 18.4283C45.8985 19.4942 45.127 20.3208 44.1407 20.3208Z" fill="#C7C7C6"/>
<path fill-rule="evenodd" clip-rule="evenodd" d="M48.2422 24.3047C47.2363 24.3047 46.3867 23.4382 46.3867 22.4122C46.3867 21.4063 47.1972 20.6194 48.2422 20.6194C49.209 20.6194 50.0001 21.4262 50.0001 22.4122C50.0001 23.4183 49.1797 24.3047 48.2422 24.3047Z" fill="#C7C7C6"/>
<path fill-rule="evenodd" clip-rule="evenodd" d="M22.9492 48.4084C22.7441 48.4084 22.539 48.3187 22.4023 48.1395L21.1328 46.4463C21.0449 46.3267 20.9961 46.1773 20.9961 46.0179V40.5398C20.9961 40.1513 21.2989 39.8425 21.6797 39.8425C22.0606 39.8425 22.3634 40.1513 22.3634 40.5398V45.7789L23.4961 47.2829C23.7207 47.5917 23.6719 48.0299 23.3691 48.259C23.2422 48.3585 23.0957 48.4084 22.9492 48.4084Z" fill="#C7C7C6"/>
<path fill-rule="evenodd" clip-rule="evenodd" d="M23.6329 50.5C22.6466 50.5 21.7773 49.6634 21.7773 48.7072C21.7773 47.6812 22.627 46.8147 23.6329 46.8147C24.6192 46.8147 25.3906 47.6414 25.3906 48.7072C25.3906 49.6932 24.5997 50.5 23.6329 50.5Z" fill="#C7C7C6"/>
<path fill-rule="evenodd" clip-rule="evenodd" d="M18.3594 46.5162C17.9786 46.5162 17.6758 46.2073 17.6758 45.8189V40.54C17.6758 40.1516 17.9786 39.8428 18.3594 39.8428C18.7403 39.8428 19.0431 40.1516 19.0431 40.54V45.8189C19.0429 46.2073 18.7403 46.5162 18.3594 46.5162Z" fill="#C7C7C6"/>
<path fill-rule="evenodd" clip-rule="evenodd" d="M18.3594 48.8067C17.3145 48.8067 16.5039 48.0198 16.5039 47.0138C16.5039 45.9381 17.3047 45.1213 18.3594 45.1213C19.3457 45.1213 20.1173 45.948 20.1173 47.0138C20.1173 47.9999 19.3262 48.8067 18.3594 48.8067Z" fill="#C7C7C6"/>
<path fill-rule="evenodd" clip-rule="evenodd" d="M28.125 45.3209C27.7442 45.3209 27.4414 45.0121 27.4414 44.6237V40.54C27.4414 40.1516 27.7442 39.8428 28.125 39.8428C28.5059 39.8428 28.8087 40.1516 28.8087 40.54V44.6237C28.8087 45.0121 28.5059 45.3209 28.125 45.3209Z" fill="#C7C7C6"/>
<path fill-rule="evenodd" clip-rule="evenodd" d="M31.6407 47.4126C31.2598 47.4126 30.957 47.1038 30.957 46.7153V40.54C30.957 40.1516 31.2598 39.8428 31.6407 39.8428C32.0215 39.8428 32.3243 40.1516 32.3243 40.54V46.7153C32.3243 47.1038 32.0215 47.4126 31.6407 47.4126Z" fill="#C7C7C6"/>
<path fill-rule="evenodd" clip-rule="evenodd" d="M31.6406 49.7031C30.7031 49.7031 29.8828 48.8167 29.8828 47.8107C29.8828 46.8246 30.6738 46.0178 31.6406 46.0178C32.6855 46.0178 33.4962 46.8047 33.4962 47.8107C33.4962 48.8366 32.6465 49.7031 31.6406 49.7031Z" fill="#C7C7C6"/>
<path fill-rule="evenodd" clip-rule="evenodd" d="M28.1251 47.6113C27.0704 47.6113 26.2695 46.7946 26.2695 45.7189C26.2695 44.7129 27.08 43.926 28.1251 43.926C29.0919 43.926 29.8829 44.7328 29.8829 45.7189C29.8829 46.7847 29.1115 47.6113 28.1251 47.6113Z" fill="#C7C7C6"/>
<path fill-rule="evenodd" clip-rule="evenodd" d="M5.85991 33.7669C5.68412 33.7669 5.50834 33.6971 5.38135 33.5577C5.11768 33.2888 5.11768 32.8406 5.38135 32.5717L6.35795 31.5756C6.48494 31.4461 6.66073 31.3665 6.83651 31.3665L11.1334 31.3666C11.5142 31.3666 11.817 31.6754 11.817 32.0638C11.817 32.4523 11.5142 32.7611 11.1334 32.7611L7.11967 32.761L6.34815 33.5479C6.21147 33.6971 6.03569 33.7669 5.85991 33.7669Z" fill="#C7C7C6"/>
<path fill-rule="evenodd" clip-rule="evenodd" d="M5.07818 35.7588C4.02349 35.7588 3.22266 34.942 3.22266 33.8663C3.22266 32.8604 4.03317 32.0735 5.07818 32.0735C6.04498 32.0735 6.836 32.8803 6.836 33.8663C6.83589 34.9321 6.06448 35.7588 5.07818 35.7588Z" fill="#C7C7C6"/>
<path fill-rule="evenodd" clip-rule="evenodd" d="M3.61381 30.2807C3.43803 30.2807 3.26225 30.211 3.13525 30.0716C2.87158 29.8026 2.87158 29.3544 3.13525 29.0855L4.20944 27.9899C4.33643 27.8604 4.51221 27.7808 4.68799 27.7808H11.1333C11.5142 27.7808 11.817 28.0896 11.817 28.478C11.817 28.8665 11.5142 29.1753 11.1333 29.1753L4.97116 29.1752L4.10205 30.0616C3.96537 30.211 3.78959 30.2807 3.61381 30.2807Z" fill="#C7C7C6"/>
<path fill-rule="evenodd" clip-rule="evenodd" d="M2.83208 32.273C1.82618 32.273 0.976562 31.4064 0.976562 30.3805C0.976562 29.4243 1.84567 28.5876 2.83208 28.5876C3.79888 28.5876 4.58991 29.3944 4.58991 30.3805C4.58991 31.4463 3.8185 32.273 2.83208 32.273Z" fill="#C7C7C6"/>
<path fill-rule="evenodd" clip-rule="evenodd" d="M11.1329 24.7033H7.51955C7.33397 24.7033 7.16799 24.6335 7.041 24.4941L5.67385 23.1096H2.92973C2.54887 23.1096 2.24609 22.8008 2.24609 22.4123C2.24609 22.0239 2.54887 21.7151 2.92973 21.7151L5.95713 21.7152C6.14271 21.7152 6.30869 21.785 6.43568 21.9244L7.80273 23.3088H11.1329C11.5138 23.3088 11.8165 23.6176 11.8165 24.006C11.8165 24.3945 11.5138 24.7033 11.1329 24.7033Z" fill="#C7C7C6"/>
<path fill-rule="evenodd" clip-rule="evenodd" d="M11.1334 21.018H7.5201C7.33452 21.018 7.16854 20.9482 7.04155 20.8088L6.06494 19.8128C5.80127 19.5438 5.80127 19.0956 6.06494 18.8267C6.32862 18.5578 6.76807 18.5578 7.03174 18.8267L7.80327 19.6136H11.1334C11.5143 19.6136 11.8171 19.9224 11.8171 20.3108C11.8171 20.6993 11.5143 21.018 11.1334 21.018Z" fill="#C7C7C6"/>
<path fill-rule="evenodd" clip-rule="evenodd" d="M5.85939 20.3208C4.8731 20.3208 4.10156 19.4942 4.10156 18.4283C4.10156 17.4423 4.89258 16.6355 5.85939 16.6355C6.90427 16.6355 7.71491 17.4224 7.71491 18.4283C7.71479 19.5042 6.91408 20.3208 5.85939 20.3208Z" fill="#C7C7C6"/>
<path fill-rule="evenodd" clip-rule="evenodd" d="M1.75783 24.3047C0.820321 24.3047 0 23.4183 0 22.4122C0 21.4262 0.791019 20.6194 1.75783 20.6194C2.80271 20.6194 3.61335 21.4063 3.61335 22.4122C3.61335 23.4382 2.76373 24.3047 1.75783 24.3047Z" fill="#C7C7C6"/>
<path fill-rule="evenodd" clip-rule="evenodd" d="M36.6211 41.2369H13.3789C11.7871 41.2369 10.4492 39.8724 10.4492 38.2488V14.1453C10.4492 12.472 11.7383 11.1572 13.3789 11.1572H36.6211C38.2617 11.1572 39.5508 12.472 39.5508 14.1453V38.2488C39.5508 39.8723 38.2129 41.2369 36.6211 41.2369ZM33.3007 31.0775H26.5625C26.1816 31.0775 25.8789 30.7687 25.8789 30.3802C25.8789 29.9918 26.1816 29.683 26.5625 29.683L33.3007 29.6831C33.6815 29.6831 33.9843 29.9919 33.9843 30.3804C33.9843 30.7688 33.6815 31.0775 33.3007 31.0775ZM33.3007 34.3644H22.6563C22.2755 34.3644 21.9727 34.0555 21.9727 33.6671C21.9727 33.2787 22.2755 32.9698 22.6563 32.9698L33.3007 32.97C33.6815 32.97 33.9843 33.2788 33.9843 33.6672C33.9843 34.0557 33.6815 34.3644 33.3007 34.3644ZM19.4337 22.213C18.1739 22.213 17.1876 21.2071 17.1876 19.9222C17.1876 18.5577 18.1544 17.5318 19.4337 17.5318C20.7911 17.5318 21.7774 18.5377 21.7774 19.9222C21.7774 21.227 20.7715 22.213 19.4337 22.213ZM19.4337 18.9262C18.9161 18.9262 18.5548 19.3345 18.5548 19.9222C18.5548 20.4302 18.9356 20.8187 19.4337 20.8187C20.0098 20.8187 20.4103 20.4501 20.4103 19.9222C20.4103 19.3046 20.0391 18.9262 19.4337 18.9262ZM34.082 38.0496H16.0157C14.668 38.0496 13.5742 36.934 13.5742 35.5595V16.8345C13.5742 15.46 14.668 14.3444 16.0157 14.3444L34.082 14.3445C35.3516 14.3445 36.4258 15.48 36.4258 16.8346V35.5596C36.4258 36.9141 35.3515 38.0496 34.082 38.0496ZM16.0157 15.7389C15.4103 15.7389 14.9415 16.217 14.9415 16.8345V35.5595C14.9415 36.177 15.4103 36.6551 16.0157 36.6551H34.082C34.5996 36.6551 35.0586 36.1471 35.0586 35.5595L35.0585 16.8345C35.0585 16.2469 34.5996 15.7389 34.0819 15.7389H16.0157Z" fill="#60C3D8"/>
</svg>
