<svg width="16" height="18" viewBox="0 0 16 18" fill="none" xmlns="http://www.w3.org/2000/svg">
<path d="M7.83692 16.027C11.3356 16.027 14.1719 13.1907 14.1719 9.69203C14.1719 6.19332 11.3356 3.35706 7.83692 3.35706C4.33822 3.35706 1.50195 6.19332 1.50195 9.69203C1.50195 13.1907 4.33822 16.027 7.83692 16.027Z" fill="url(#paint0_radial_1191_481)"/>
<mask id="mask0_1191_481" style="mask-type:luminance" maskUnits="userSpaceOnUse" x="3" y="8" width="4" height="3">
<g opacity="0.72">
<path d="M6.78359 9.94807C6.69646 10.4656 5.95157 10.7715 5.11998 10.6318C4.28838 10.4916 3.68494 9.95877 3.77203 9.44146C3.85902 8.92406 4.60391 8.6177 5.43545 8.75762C6.26709 8.89769 6.87049 9.431 6.78359 9.94807Z" fill="url(#paint1_radial_1191_481)"/>
</g>
</mask>
<g mask="url(#mask0_1191_481)">
<path opacity="0.72" d="M6.78359 9.94807C6.69646 10.4656 5.95157 10.7715 5.11998 10.6318C4.28838 10.4916 3.68494 9.95877 3.77203 9.44146C3.85902 8.92406 4.60391 8.6177 5.43545 8.75762C6.26709 8.89769 6.87049 9.431 6.78359 9.94807Z" fill="#ED1C24"/>
</g>
<mask id="mask1_1191_481" style="mask-type:luminance" maskUnits="userSpaceOnUse" x="9" y="8" width="4" height="3">
<g opacity="0.72">
<path d="M12.3174 9.18687C12.4582 9.69248 11.9138 10.2857 11.1014 10.5121C10.2889 10.7382 9.5164 10.5119 9.37571 10.0067C9.23484 9.50125 9.77923 8.90775 10.5915 8.68141C11.4039 8.45522 12.1766 8.68194 12.3174 9.18687Z" fill="url(#paint2_radial_1191_481)"/>
</g>
</mask>
<g mask="url(#mask1_1191_481)">
<path opacity="0.72" d="M12.3174 9.18675C12.4582 9.69236 11.9138 10.2856 11.1014 10.512C10.2889 10.7381 9.5164 10.5118 9.37571 10.0065C9.23484 9.50113 9.77923 8.90763 10.5915 8.68129C11.4039 8.4551 12.1766 8.68182 12.3174 9.18675Z" fill="#ED1C24"/>
</g>
<path d="M11.0109 9.50596C11.0334 9.5587 9.74606 10.5504 8.05522 10.5742C6.36466 10.6205 5.03759 9.68276 5.05785 9.62907C5.06912 9.55091 6.38917 10.1196 8.04481 10.0727C9.70092 10.0512 10.9965 9.42833 11.0109 9.50596Z" fill="#FFF200"/>
<path d="M11.0476 9.45592C11.07 9.51061 9.74359 10.3972 8.0527 10.4207C6.36219 10.4672 5.05127 9.6352 5.07152 9.57969C5.08279 9.49886 6.36773 9.87267 8.02337 9.82518C9.67948 9.80407 11.0331 9.37571 11.0476 9.45592Z" fill="url(#paint3_radial_1191_481)"/>
<path d="M11.011 9.50478C11.0333 9.54954 9.74301 10.3955 8.05212 10.4209C6.36161 10.4654 5.03755 9.6736 5.05785 9.62793C5.06946 9.56153 6.38755 10.0403 8.04333 9.9952C9.69939 9.97179 10.9968 9.43891 11.011 9.50478Z" fill="#601B05"/>
<path d="M6.24974 5.75796C6.24974 5.75796 5.2189 5.60715 4.70508 6.3808C4.70508 6.3808 5.42006 5.85021 6.38651 5.94159C6.4188 5.7903 6.24974 5.75796 6.24974 5.75796Z" fill="url(#paint4_radial_1191_481)"/>
<path d="M6.28458 5.8115C6.28458 5.8115 5.29458 5.73009 4.68359 6.41197C4.68359 6.41197 5.38506 5.9249 6.35156 6.01624C6.48593 5.87073 6.28458 5.8115 6.28458 5.8115Z" fill="#FFF200"/>
<path d="M6.26884 5.8014C6.26884 5.8014 5.25185 5.69286 4.67578 6.41945C4.67578 6.41945 5.37768 5.88285 6.34417 5.97423C6.46661 5.85786 6.26884 5.8014 6.26884 5.8014Z" fill="#601B05"/>
<path d="M9.27973 5.84353C9.27973 5.84353 10.2644 5.50336 10.9132 6.16785C10.9132 6.16785 10.112 5.77957 9.17941 6.04942C9.11955 5.90678 9.27973 5.84353 9.27973 5.84353Z" fill="url(#paint5_radial_1191_481)"/>
<path d="M9.25395 5.90224C9.25395 5.90224 10.2116 5.63792 10.9388 6.19416C10.9388 6.19416 10.1589 5.8461 9.22634 6.11591C9.06717 5.99802 9.25395 5.90224 9.25395 5.90224Z" fill="#FFF200"/>
<path d="M9.26754 5.8895C9.26754 5.8895 10.2465 5.59342 10.9478 6.2001C10.9478 6.2001 10.1583 5.80356 9.22564 6.07327C9.08376 5.98174 9.26754 5.8895 9.26754 5.8895Z" fill="#601B05"/>
<mask id="mask2_1191_481" style="mask-type:luminance" maskUnits="userSpaceOnUse" x="2" y="12" width="6" height="5">
<g opacity="0.87">
<path d="M7.40135 15.9018C7.01827 16.7242 5.53743 16.8462 4.09399 16.1737C2.65046 15.5013 1.79106 14.2893 2.17418 13.4667C2.55725 12.6443 4.03815 12.5224 5.48139 13.1948C6.92512 13.8673 7.78452 15.0793 7.40135 15.9018Z" fill="url(#paint6_radial_1191_481)"/>
</g>
</mask>
<g mask="url(#mask2_1191_481)">
<path opacity="0.87" d="M7.40135 15.9018C7.01827 16.7242 5.53743 16.8462 4.09399 16.1737C2.65046 15.5013 1.79106 14.2893 2.17418 13.4667C2.55725 12.6443 4.03815 12.5224 5.48139 13.1948C6.92512 13.8673 7.78452 15.0793 7.40135 15.9018Z" fill="#ED1C24"/>
</g>
<mask id="mask3_1191_481" style="mask-type:luminance" maskUnits="userSpaceOnUse" x="6" y="11" width="7" height="6">
<g opacity="0.87">
<path d="M12.5651 12.7842C12.9455 13.9573 11.9267 15.3391 10.2895 15.87C8.65235 16.4008 7.01668 15.8796 6.63633 14.7064C6.25583 13.5332 7.27454 12.1515 8.91174 11.6207C10.549 11.0899 12.1848 11.611 12.5651 12.7842Z" fill="url(#paint7_radial_1191_481)"/>
</g>
</mask>
<g mask="url(#mask3_1191_481)">
<path opacity="0.87" d="M12.5651 12.7842C12.9455 13.9573 11.9267 15.3391 10.2895 15.87C8.65235 16.4008 7.01668 15.8796 6.63633 14.7064C6.25583 13.5332 7.27454 12.1515 8.91174 11.6207C10.549 11.0899 12.1848 11.611 12.5651 12.7842Z" fill="#ED1C24"/>
</g>
<path d="M1.54883 8.93534C2.11539 6.96742 3.20533 5.94566 7.11798 5.48409C8.98047 5.26435 10.5654 5.0351 11.7539 4.71494C10.6759 3.86538 9.31639 3.35706 7.83727 3.35706C4.59488 3.3571 1.92311 5.79379 1.54883 8.93534Z" fill="url(#paint8_radial_1191_481)"/>
<path d="M2.53223 2.47572C2.53223 2.47572 2.72188 0.94567 4.60734 0.442548C6.4928 -0.0607639 8.75503 0.0113221 9.28791 0.430367C9.82089 0.84965 11.5575 0.543918 12.0219 1.61656C12.4864 2.68944 13.4047 3.21191 13.4047 3.21191C13.4047 3.21191 15.1605 4.05726 14.5482 5.53343" fill="url(#paint9_radial_1191_481)"/>
<path d="M10.2895 2.64195L11.2431 2.19911C11.0601 1.66666 10.6087 1.11806 10.1949 0.695958C9.81538 0.636149 9.47664 0.578442 9.28832 0.430353C8.97624 0.184907 8.07103 0.0587449 6.99609 0.0972958C8.28017 0.63314 10.2895 2.64195 10.2895 2.64195Z" fill="url(#paint10_radial_1191_481)"/>
<path d="M10.9101 4.15198L9.23828 4.75389C9.23828 4.75389 11.8181 5.32585 12.9636 6.8772C13.6987 7.87289 14.0036 8.57373 14.1279 8.94868C13.8861 6.88164 12.6503 5.1191 10.9101 4.15198Z" fill="url(#paint11_radial_1191_481)"/>
<path d="M9.20312 4.37912C9.20312 4.37912 11.783 4.95112 12.9284 6.50252C14.074 8.05412 14.1269 8.94853 14.1269 8.94853C14.1269 8.94853 15.2098 7.7256 14.6291 5.7326C14.0487 3.73956 12.225 3.29114 12.225 3.29114" fill="url(#paint12_radial_1191_481)"/>
<path d="M9.8457 4.56204C10.2779 4.70316 10.8734 4.93164 11.4569 5.2647C11.3601 4.63929 11.3799 3.76599 11.3799 3.76599L9.8457 4.56204Z" fill="url(#paint13_radial_1191_481)"/>
<path d="M10.5397 2.14158C10.1644 1.42033 9.11981 0.592753 8.55196 0.176861C8.48274 0.165062 8.40965 0.154505 8.33398 0.145142C8.51661 0.275269 8.79483 0.480396 9.09531 0.727275C9.61692 1.15449 10.2014 1.70772 10.449 2.18849L10.5397 2.14158Z" fill="#F6D5D1"/>
<path d="M12.8172 5.03717L12.445 4.47419L12.9123 3.98802L12.6434 3.44583C12.5914 3.42223 12.5429 3.40169 12.4987 3.38416L12.789 3.96925L12.3147 4.4622L12.692 5.0331L12.2783 5.57731L12.715 6.10298L12.664 6.18725C12.6883 6.21299 12.7121 6.23931 12.7356 6.26568L12.8402 6.09361L12.4086 5.57439L12.8172 5.03717ZM13.1588 5.06922L12.7867 4.50624L13.254 4.02008L13.0874 3.68449C13.0322 3.64995 12.9779 3.61742 12.9255 3.58809L13.1304 4.00111L12.6564 4.49449L13.0335 5.0654L12.6198 5.60941L13.0566 6.13527L12.8754 6.43365C12.8933 6.45653 12.9119 6.47912 12.9291 6.50248C12.9336 6.50846 12.9377 6.51424 12.9421 6.5204L13.1819 6.12591L12.7503 5.60664L13.1588 5.06922Z" fill="#DA6788"/>
<path opacity="0.45" d="M8.88901 2.93121L8.22777 2.75317L8.17173 2.07143L7.49411 1.97627L7.3602 1.30596L6.67675 1.28537L6.47391 0.63301L5.79251 0.684077L5.59187 0.235032C5.55695 0.240621 5.52213 0.246258 5.4873 0.252229L5.72845 0.791179L6.40054 0.740733L6.60094 1.38549L7.27589 1.40565L7.40826 2.06761L8.07657 2.1612L8.13165 2.83333L8.78282 3.00812L8.7488 3.68112L9.36734 3.94658L9.31484 4.20167L9.41401 4.22694L9.48438 3.88567L8.85419 3.6151L8.88901 2.93121ZM9.10441 3.38064L9.13909 2.69628L8.4778 2.51852L8.422 1.83678L7.74438 1.74158L7.61024 1.07126L6.92702 1.05091L6.72399 0.39836L6.04264 0.449236L5.92522 0.186401C5.89001 0.191035 5.85461 0.195717 5.81941 0.20078L5.97858 0.556816L6.65076 0.506083L6.85125 1.15084L7.52616 1.17105L7.65853 1.83282L8.32684 1.9264L8.38197 2.59854L9.03285 2.77376L8.99874 3.44647L9.61756 3.71188L9.50678 4.2505L9.60571 4.27562L9.73431 3.65102L9.10441 3.38064Z" fill="#DA6788"/>
<path d="M13.5769 3.30776C13.4734 3.2447 13.4058 3.21198 13.4058 3.21198C13.4058 3.21198 12.4873 2.68951 12.0229 1.61663C11.9552 1.46037 11.86 1.33402 11.7459 1.22964C11.4845 1.27454 11.1811 1.36956 10.8246 1.5154C9.70297 1.97481 8.44679 1.81478 6.49803 1.28649C4.94653 0.866199 3.91005 1.20747 3.00991 1.44217C2.59679 1.9686 2.5332 2.47574 2.5332 2.47574L9.7536 4.31314C11.7243 3.99045 13.0776 3.51943 13.5769 3.30776Z" fill="url(#paint14_radial_1191_481)"/>
<path d="M10.7327 4.88978C12.1569 4.538 13.8642 4.02093 14.2322 3.84766C13.8652 3.43383 13.4057 3.21188 13.4057 3.21188C13.4057 3.21188 12.6396 2.77421 12.1531 1.88037C11.9132 1.93908 11.6421 2.03563 11.3303 2.17335C10.2012 2.67169 8.9174 2.55547 6.91772 2.09534C4.95181 1.6429 3.81883 2.32459 2.74609 2.52996L10.7327 4.88978Z" fill="url(#paint15_radial_1191_481)"/>
<path d="M1.43387 8.77284C1.43387 8.77284 -0.375018 7.86276 0.507068 5.31276C0.457434 4.50893 1.22726 2.36359 2.29584 2.17537C3.36447 1.98725 4.47911 1.27757 6.44363 1.744C8.40801 2.21053 9.66873 2.33072 10.7753 1.83639C11.8819 1.34206 12.4826 1.36442 12.8966 1.89023C13.3106 2.41609 14.0575 3.26789 13.7677 3.44732C13.478 3.6267 10.7895 4.78437 6.70895 5.07553C2.62847 5.36674 2.04691 6.95044 1.84259 7.68281C1.65791 8.34496 1.62122 8.9259 1.43387 8.77284Z" fill="url(#paint16_radial_1191_481)"/>
<path d="M10.5381 1.93115C9.80055 2.19776 8.97971 2.21075 7.92584 2.04532C6.31152 2.79943 4.41994 5.09104 4.02832 5.57979C4.69171 5.34131 5.56205 5.15725 6.70888 5.07547C7.02651 5.05268 7.33472 5.0244 7.63496 4.99206C7.88117 4.65117 8.26792 4.21297 8.8587 3.76593C9.87264 2.99859 10.3788 2.21032 10.5381 1.93115Z" fill="url(#paint17_radial_1191_481)"/>
<path d="M5.38577 1.59301L5.27098 1.92793L4.58552 1.95138L4.47087 2.62696L3.79759 2.75388L3.78006 3.43858L3.13023 3.65312L3.19706 4.334L2.57686 4.62162L2.7173 5.29056L2.13082 5.641L2.34034 6.29159L1.80034 6.70849L1.97805 7.28498C1.99697 7.23994 2.0188 7.19322 2.04211 7.14592L1.91891 6.74599L2.45982 6.32852L2.25307 5.6871L2.83248 5.34062L2.69375 4.68005L3.30579 4.3961L3.24006 3.72435L3.88023 3.51301L3.89767 2.83911L4.55968 2.71438L4.67246 2.0506L5.34498 2.02748L5.49168 1.59903C5.45609 1.59654 5.42065 1.59463 5.38577 1.59301ZM2.173 6.14045L1.96635 5.49884L2.54557 5.15259L2.40689 4.49207L3.01902 4.20812L2.95296 3.53637L3.59337 3.32479L3.61071 2.65103L4.27281 2.52611L4.38546 1.86234L5.05792 1.83946L5.14401 1.58813C5.10737 1.58833 5.07135 1.58914 5.03547 1.58995L4.98417 1.73981L4.29861 1.76317L4.18396 2.43907L3.51073 2.56581L3.49305 3.25013L2.84342 3.46481L2.91011 4.14573L2.28995 4.4335L2.43063 5.10239L1.84405 5.45283L2.05358 6.10323L1.51367 6.52013L1.81071 7.48462L1.9084 7.45447L1.63205 6.55777L2.173 6.14045Z" fill="#DA6788"/>
<path d="M6.10805 5.13122C6.31991 4.88239 6.62784 4.52936 6.99372 4.13683C7.60901 3.47669 8.38518 2.70872 9.12597 2.15353C9.07179 2.15334 9.01743 2.15272 8.96192 2.151C7.74625 3.08912 6.47612 4.53657 5.95996 5.14775C6.00826 5.14202 6.05866 5.13686 6.10805 5.13122Z" fill="#F6D5D1"/>
<path d="M2.05513 7.11949C0.731208 6.82335 0.609584 5.46867 0.684679 5.06859C1.04224 3.07617 2.72817 2.07991 2.72817 2.07991L2.72439 2.0769C2.57951 2.11622 2.4372 2.15033 2.29584 2.17526C1.22726 2.36348 0.457434 4.50882 0.507068 5.31265C-0.375018 7.86265 1.43387 8.77273 1.43387 8.77273C1.62122 8.92579 1.65786 8.34485 1.84264 7.6827C1.88611 7.52683 1.94716 7.33207 2.05513 7.11949Z" fill="url(#paint18_radial_1191_481)"/>
<path d="M0.332031 5.96182C0.352812 6.5837 0.617987 7.47906 1.78225 7.91731C1.79038 7.88406 1.79874 7.85053 1.80738 7.81656C0.635662 7.36857 0.435646 6.46594 0.432493 5.86604C0.432493 5.68045 0.452652 5.5282 0.470519 5.42798C0.410757 5.61457 0.364468 5.79299 0.332031 5.96182Z" fill="#F6D5D1"/>
<path d="M14.5125 5.39142C14.5122 5.39056 14.5119 5.38961 14.5116 5.38879C14.4965 6.25411 14.295 7.32757 13.8486 8.04064C14.1084 8.62889 14.1275 8.94862 14.1275 8.94862C14.1275 8.94862 14.8965 8.07991 14.7908 6.61397C14.7706 6.33819 14.7204 6.04359 14.6297 5.7327C14.6122 5.67241 14.5934 5.61379 14.5737 5.55628C14.5543 5.49996 14.5339 5.44512 14.5125 5.39142Z" fill="url(#paint19_radial_1191_481)"/>
<mask id="mask4_1191_481" style="mask-type:luminance" maskUnits="userSpaceOnUse" x="3" y="13" width="5" height="5">
<g opacity="0.87">
<path d="M7.08829 16.6365C6.66198 17.2451 5.55112 17.2026 4.60736 16.5415C3.66351 15.8804 3.24437 14.851 3.67067 14.2425C4.09679 13.6339 5.2076 13.6762 6.15146 14.3373C7.09512 14.9984 7.51445 16.0279 7.08829 16.6365Z" fill="url(#paint20_radial_1191_481)"/>
</g>
</mask>
<g mask="url(#mask4_1191_481)">
<path opacity="0.87" d="M7.08829 16.6365C6.66198 17.2451 5.55112 17.2026 4.60736 16.5415C3.66351 15.8804 3.24437 14.851 3.67067 14.2425C4.09679 13.6339 5.2076 13.6762 6.15146 14.3373C7.09512 14.9984 7.51445 16.0279 7.08829 16.6365Z" fill="#ED1C24"/>
</g>
<mask id="mask5_1191_481" style="mask-type:luminance" maskUnits="userSpaceOnUse" x="9" y="13" width="3" height="4">
<g opacity="0.87">
<path d="M10.8354 13.3118C11.2589 13.4455 11.3468 14.3654 11.0311 15.3667C10.7153 16.3678 10.1158 17.0711 9.69199 16.9374C9.26822 16.8038 9.18046 15.8839 9.49618 14.8828C9.81199 13.8815 10.4115 13.1782 10.8354 13.3118Z" fill="url(#paint21_radial_1191_481)"/>
</g>
</mask>
<g mask="url(#mask5_1191_481)">
<path opacity="0.87" d="M10.8354 13.3118C11.2589 13.4455 11.3468 14.3654 11.0311 15.3667C10.7153 16.3678 10.1158 17.0711 9.69199 16.9374C9.26822 16.8038 9.18046 15.8839 9.49618 14.8828C9.81199 13.8815 10.4115 13.1782 10.8354 13.3118Z" fill="#ED1C24"/>
</g>
<path d="M7.05397 7.11645C7.49442 7.77989 7.41058 8.63804 6.79032 8.9325C6.17212 9.22944 5.3379 8.96422 5.00365 8.44065C4.66716 7.9146 4.87176 7.21595 5.38391 6.779C5.8983 6.34443 6.61166 6.45029 7.05397 7.11645Z" fill="url(#paint22_radial_1191_481)"/>
<path d="M7.1341 7.21532C7.57435 7.87876 7.49071 8.73691 6.87036 9.03123C6.2523 9.32812 5.41818 9.06299 5.08373 8.53962C4.74728 8.01352 4.95174 7.31468 5.46394 6.87777C5.97829 6.4433 6.69174 6.54925 7.1341 7.21532Z" fill="#FFF200"/>
<path d="M7.04105 7.1949C7.46186 7.82911 7.3819 8.64919 6.78901 8.9307C6.19823 9.21441 5.40094 8.96089 5.08126 8.46054C4.75976 7.95785 4.95524 7.28987 5.44484 6.87221C5.93645 6.45694 6.61814 6.55826 7.04105 7.1949Z" fill="url(#paint23_radial_1191_481)"/>
<path d="M6.66659 6.80212C6.7748 6.88673 6.87655 6.99497 6.9643 7.1272C7.38081 7.75205 7.30902 8.57853 6.71757 8.86549C6.28109 9.08743 5.72088 8.99834 5.35156 8.7526C5.72255 9.03178 6.3182 9.14461 6.77843 8.91412C7.37203 8.62945 7.44292 7.8024 7.02325 7.17345C6.91945 7.01719 6.79696 6.89232 6.66659 6.80212Z" fill="url(#paint24_radial_1191_481)"/>
<path d="M6.85545 7.47547C7.13247 7.81034 7.07476 8.31523 6.72694 8.60305C6.37893 8.89101 5.87237 8.85289 5.5954 8.51806C5.31819 8.18319 5.37565 7.67849 5.72371 7.39053C6.07177 7.10252 6.57823 7.14059 6.85545 7.47547Z" fill="url(#paint25_radial_1191_481)"/>
<path d="M6.63173 7.66001C6.81049 7.87641 6.77342 8.20269 6.54861 8.3888C6.3238 8.57472 5.99629 8.55012 5.81729 8.33353C5.63849 8.11742 5.67551 7.79105 5.90017 7.60512C6.12508 7.4191 6.4525 7.44371 6.63173 7.66001Z" fill="#3C2415"/>
<path d="M5.93013 7.48802C6.03795 7.61805 6.01545 7.81429 5.88016 7.92626C5.74487 8.03853 5.54801 8.02333 5.44014 7.8934C5.33261 7.76303 5.35483 7.56669 5.49016 7.45491C5.62554 7.34308 5.8225 7.35765 5.93013 7.48802Z" fill="#F2F2F2"/>
<path d="M6.71268 7.80469C6.75701 7.85781 6.74769 7.93787 6.69252 7.98335C6.63739 8.02926 6.55699 8.02309 6.513 7.97012C6.46929 7.91704 6.47836 7.83703 6.53349 7.79122C6.58871 7.74583 6.66887 7.7518 6.71268 7.80469Z" fill="#F2F2F2"/>
<path d="M9.17994 7.0482C8.73949 7.71164 8.82333 8.56979 9.44363 8.86425C10.0618 9.16119 10.896 8.89597 11.2303 8.3724C11.5668 7.84635 11.3622 7.1477 10.85 6.71074C10.3356 6.27617 9.62229 6.38208 9.17994 7.0482Z" fill="url(#paint26_radial_1191_481)"/>
<path d="M9.10075 7.14724C8.66049 7.81068 8.74414 8.66883 9.36449 8.96319C9.9825 9.26004 10.8167 8.99491 11.1511 8.47154C11.4875 7.94544 11.2831 7.2466 10.7709 6.80969C10.2566 6.37517 9.54311 6.48112 9.10075 7.14724Z" fill="#FFF200"/>
<path d="M9.19303 7.12659C8.77222 7.76079 8.85218 8.58087 9.44507 8.86243C10.0359 9.1461 10.8332 8.89258 11.1529 8.39223C11.4743 7.88953 11.2789 7.22156 10.7892 6.8039C10.2976 6.38877 9.61594 6.49 9.19303 7.12659Z" fill="url(#paint27_radial_1191_481)"/>
<path d="M9.56779 6.73401C9.45959 6.81861 9.35784 6.92686 9.27008 7.05909C8.85357 7.68393 8.92542 8.51041 9.51682 8.79737C9.9533 9.01931 10.5136 8.93022 10.8829 8.68449C10.5119 8.96366 9.91618 9.07649 9.456 8.846C8.86236 8.56133 8.79147 7.73428 9.21113 7.10533C9.31494 6.94912 9.43742 6.8242 9.56779 6.73401Z" fill="url(#paint28_radial_1191_481)"/>
<path d="M9.37939 7.40747C9.10232 7.74234 9.16002 8.24723 9.50784 8.53505C9.8559 8.82306 10.3624 8.78489 10.6394 8.45007C10.9167 8.11519 10.8591 7.6105 10.5111 7.32253C10.1631 7.03457 9.65655 7.07255 9.37939 7.40747Z" fill="url(#paint29_radial_1191_481)"/>
<path d="M9.6024 7.59177C9.4236 7.80818 9.46072 8.13445 9.68548 8.32056C9.91029 8.50649 10.2378 8.48189 10.4168 8.26529C10.5956 8.04918 10.5586 7.72281 10.3339 7.53688C10.109 7.35087 9.78159 7.37547 9.6024 7.59177Z" fill="#3C2415"/>
<path d="M10.3306 7.48008C10.214 7.62067 10.2384 7.83301 10.3846 7.95406C10.531 8.07549 10.744 8.05911 10.8606 7.91857C10.9769 7.77745 10.9529 7.56521 10.8065 7.44411C10.6601 7.32325 10.4471 7.33901 10.3306 7.48008Z" fill="#F2F2F2"/>
<path d="M9.5212 7.73649C9.47686 7.78965 9.48623 7.86967 9.5414 7.91515C9.59658 7.96105 9.67688 7.95489 9.72088 7.90192C9.76459 7.84889 9.75551 7.76883 9.70043 7.72301C9.64526 7.67758 9.565 7.68356 9.5212 7.73649Z" fill="#F2F2F2"/>
<mask id="mask6_1191_481" style="mask-type:luminance" maskUnits="userSpaceOnUse" x="3" y="10" width="6" height="5">
<g opacity="0.87">
<path d="M5.72015 14.9529C4.46626 14.9126 3.48496 13.7884 3.52771 12.442C3.57109 11.0955 4.62305 10.0367 5.87717 10.0772C7.13072 10.1173 8.11241 11.2414 8.06904 12.5879C8.0259 13.9343 6.97399 14.9933 5.72015 14.9529Z" fill="url(#paint30_radial_1191_481)"/>
</g>
</mask>
<g mask="url(#mask6_1191_481)">
<path opacity="0.87" d="M5.71917 14.953C4.46529 14.9127 3.48398 13.7886 3.52674 12.4421C3.57011 11.0956 4.62207 10.0368 5.8762 10.0773C7.12975 10.1175 8.11143 11.2415 8.06806 12.588C8.02492 13.9344 6.97301 14.9934 5.71917 14.953Z" fill="#ED1C24"/>
</g>
<mask id="mask7_1191_481" style="mask-type:luminance" maskUnits="userSpaceOnUse" x="5" y="9" width="6" height="6">
<g opacity="0.87">
<path d="M8.03558 14.5444C6.78174 14.504 5.80039 13.38 5.84314 12.0334C5.88652 10.687 6.93848 9.62823 8.1926 9.6686C9.44615 9.70887 10.4278 10.8329 10.3845 12.1793C10.3413 13.5257 9.28942 14.5847 8.03558 14.5444Z" fill="url(#paint31_radial_1191_481)"/>
</g>
</mask>
<g mask="url(#mask7_1191_481)">
<path opacity="0.87" d="M8.03558 14.5444C6.78174 14.504 5.80039 13.38 5.84314 12.0334C5.88652 10.687 6.93848 9.62823 8.1926 9.6686C9.44615 9.70887 10.4278 10.8329 10.3845 12.1793C10.3413 13.5257 9.28942 14.5847 8.03558 14.5444Z" fill="#ED1C24"/>
</g>
<mask id="mask8_1191_481" style="mask-type:luminance" maskUnits="userSpaceOnUse" x="9" y="9" width="6" height="7">
<g opacity="0.87">
<path d="M11.4794 15.1064C10.1169 15.0626 9.05064 13.841 9.09717 12.3781C9.14432 10.9151 10.2872 9.76457 11.6501 9.80847C13.0121 9.85218 14.0787 11.0735 14.0316 12.5366C13.9848 13.9995 12.8418 15.1502 11.4794 15.1064Z" fill="url(#paint32_radial_1191_481)"/>
</g>
</mask>
<g mask="url(#mask8_1191_481)">
<path opacity="0.87" d="M11.4794 15.1064C10.1169 15.0626 9.05064 13.841 9.09717 12.3781C9.14432 10.9151 10.2872 9.76457 11.6501 9.80847C13.0121 9.85218 14.0787 11.0735 14.0316 12.5366C13.9848 13.9995 12.8418 15.1502 11.4794 15.1064Z" fill="#ED1C24"/>
</g>
<path d="M11.2472 12.6264C11.2472 12.6264 11.2959 12.498 11.0577 12.1908C10.8195 11.8835 10.9284 11.2629 11.0339 11.0567C11.1392 10.8504 11.334 10.992 11.519 10.9627C11.7042 10.9336 11.8492 10.9798 11.8333 11.2063C12.0695 11.0656 12.2174 11.1283 12.3388 11.3506C12.4601 11.5729 12.6797 11.7623 12.8895 11.7809C13.0993 11.7995 13.2523 11.8962 13.0763 12.1997C12.9002 12.5033 12.6583 12.938 12.1492 12.8804C11.6403 12.8229 11.5623 12.7662 11.4581 12.869" fill="url(#paint33_radial_1191_481)"/>
<path opacity="0.61" d="M12.6189 12.771L11.8767 11.1842C11.8623 11.1915 11.8484 11.1973 11.8333 11.2063C11.8493 10.9799 11.7042 10.9336 11.5191 10.9627C11.3811 10.9847 11.2376 10.9115 11.1299 10.9584L12.0219 12.8648C12.0615 12.8699 12.103 12.8753 12.1493 12.8803C12.3396 12.9021 12.4927 12.8547 12.6189 12.771ZM11.7242 12.8231L10.9743 11.2198C10.8991 11.4937 10.8661 11.9436 11.0577 12.1908C11.2958 12.4981 11.2472 12.6264 11.2472 12.6264L11.4581 12.8689C11.5219 12.8062 11.5761 12.8031 11.7242 12.8231ZM13.0764 12.1997C13.1412 12.0878 13.161 12.004 13.1502 11.9419L13.1162 11.8692C13.0703 11.815 12.9861 11.7895 12.8896 11.7809C12.6797 11.7623 12.4601 11.5729 12.3388 11.3506C12.2802 11.2429 12.2148 11.1735 12.1365 11.1457L12.8141 12.5938C12.9214 12.4688 13.0044 12.3236 13.0764 12.1997Z" fill="#F2F2F2"/>
<path d="M8.75754 16.4978C8.75754 16.4978 8.70881 16.6071 8.94695 16.8685C9.18513 17.1302 9.07636 17.6587 8.97093 17.8343C8.86564 18.0099 8.67069 17.8894 8.48563 17.9142C8.3008 17.9392 8.15549 17.8998 8.17149 17.7069C7.93531 17.8268 7.78717 17.7732 7.66607 17.584C7.54464 17.3948 7.32499 17.2335 7.11528 17.2176C6.90542 17.2018 6.75246 17.1195 6.92864 16.8609C7.10462 16.6024 7.34649 16.2323 7.85544 16.2813C8.36458 16.3301 8.44235 16.3785 8.54697 16.2909" fill="url(#paint34_radial_1191_481)"/>
<path opacity="0.61" d="M6.92857 16.8609C6.89891 16.9043 6.87946 16.9424 6.86719 16.9763L6.98786 17.196C7.0256 17.2072 7.06888 17.2142 7.11521 17.2176C7.32497 17.2335 7.54458 17.3948 7.66601 17.5841C7.74273 17.7041 7.83053 17.769 7.94442 17.7703L7.23703 16.4823C7.10671 16.5973 7.01026 16.741 6.92857 16.8609ZM8.92773 17.8868L8.05735 16.303C7.99864 16.296 7.93252 16.2888 7.85532 16.2813C7.69147 16.2656 7.55542 16.2936 7.44044 16.347L8.29907 17.9099C8.35118 17.9239 8.41553 17.9238 8.48552 17.9142C8.64784 17.8925 8.81724 17.9822 8.92773 17.8868ZM8.35419 16.3375L9.05384 17.6108C9.11002 17.3774 9.11685 17.0554 8.94698 16.8686C8.70889 16.6071 8.75757 16.4978 8.75757 16.4978L8.54695 16.291C8.49478 16.3345 8.44945 16.3444 8.35419 16.3375Z" fill="#F2F2F2"/>
<path d="M11.246 12.506C11.246 12.506 9.57436 12.5113 8.907 12.9788C8.23945 13.4461 7.95794 14.2836 8.15194 15.184C8.3457 16.0845 8.35898 16.1684 8.39877 16.4209C8.44468 16.6033 8.56444 16.705 8.69103 16.6333C8.81758 16.5615 9.46998 16.5448 10.0976 16.4801C10.7254 16.4155 12.2102 15.9916 11.8596 14.0988C11.5824 12.7804 11.5824 12.7804 11.5824 12.7804C11.5824 12.7804 11.5127 12.4467 11.246 12.506Z" fill="url(#paint35_radial_1191_481)"/>
<path d="M10.2423 16.1984C9.30405 16.3467 8.4233 15.7059 8.27521 14.7678C8.12703 13.8295 8.76763 12.9489 9.7059 12.8007C10.644 12.6526 11.5248 13.2933 11.673 14.2313C11.8211 15.1695 11.1805 16.0503 10.2423 16.1984Z" fill="url(#paint36_radial_1191_481)"/>
<mask id="mask9_1191_481" style="mask-type:luminance" maskUnits="userSpaceOnUse" x="8" y="13" width="2" height="3">
<path d="M8.92085 13.5392C9.36015 13.47 9.79166 13.8903 9.88443 14.4779C9.97725 15.0657 9.69626 15.5985 9.25682 15.6679C8.81733 15.7372 8.38591 15.3169 8.29309 14.7293C8.20032 14.1413 8.4814 13.6087 8.92085 13.5392Z" fill="url(#paint37_linear_1191_481)"/>
</mask>
<g mask="url(#mask9_1191_481)">
<path d="M8.92085 13.5392C9.36015 13.47 9.79166 13.8903 9.88443 14.4779C9.97725 15.0657 9.69626 15.5985 9.25682 15.6679C8.81733 15.7372 8.38591 15.3169 8.29309 14.7293C8.20032 14.1413 8.4814 13.6087 8.92085 13.5392Z" fill="#F2F2F2"/>
</g>
<mask id="mask10_1191_481" style="mask-type:luminance" maskUnits="userSpaceOnUse" x="9" y="13" width="3" height="3">
<path d="M10.9423 15.4192C10.5029 15.4885 10.0714 15.0683 9.97863 14.4804C9.8859 13.8929 10.1669 13.36 10.6063 13.2907C11.0457 13.2213 11.4773 13.6416 11.57 14.2292C11.6629 14.8171 11.3817 15.3498 10.9423 15.4192Z" fill="url(#paint38_linear_1191_481)"/>
</mask>
<g mask="url(#mask10_1191_481)">
<path d="M10.9423 15.4192C10.5029 15.4885 10.0714 15.0683 9.97863 14.4804C9.8859 13.8929 10.1669 13.36 10.6063 13.2907C11.0457 13.2213 11.4773 13.6416 11.57 14.2292C11.6629 14.8171 11.3817 15.3498 10.9423 15.4192Z" fill="#F2F2F2"/>
</g>
<path d="M11.5615 14.2836C11.5179 14.2905 11.4696 14.2132 11.4535 14.1111C11.4374 14.009 11.4596 13.9206 11.5029 13.9138C11.5466 13.9068 11.5948 13.9841 11.6109 14.0863C11.6269 14.1884 11.6047 14.2767 11.5615 14.2836Z" fill="#F2F2F2"/>
<path d="M11.1579 13.2086C11.1377 13.2338 11.0738 13.2157 11.0149 13.1685C10.956 13.1216 10.9244 13.0628 10.9446 13.0377C10.9647 13.0126 11.0287 13.0306 11.0875 13.078C11.1464 13.1251 11.1779 13.1838 11.1579 13.2086Z" fill="#F2F2F2"/>
<path opacity="0.61" d="M8.09277 14.631L8.99239 16.574C9.18199 16.5536 9.43709 16.5368 9.71072 16.5151L8.34768 13.6019C8.18062 13.9038 8.09311 14.2551 8.09277 14.631ZM10.6845 16.3478L9.06486 12.8856C9.00806 12.9144 8.95465 12.9453 8.90688 12.9787C8.76515 13.0779 8.64204 13.1946 8.53585 13.3244L10.016 16.4881C10.0433 16.4854 10.0705 16.483 10.0975 16.4801C10.2538 16.4641 10.4634 16.4257 10.6845 16.3478ZM11.9055 14.4601L10.9948 12.5131C10.818 12.521 10.5644 12.5375 10.2881 12.5718L11.687 15.5616C11.8463 15.2831 11.9371 14.9233 11.9055 14.4601ZM11.494 15.8291L9.99037 12.6152C9.76327 12.6534 9.53445 12.7054 9.33099 12.7751L10.9498 16.2355C11.1441 16.1387 11.3344 16.0067 11.494 15.8291Z" fill="#F2F2F2"/>
<path d="M10.3503 11.3633C10.3503 11.3633 10.3969 11.2341 10.1537 10.931C9.91028 10.6278 10.0089 10.0054 10.111 9.79742C10.2129 9.58947 10.41 9.72777 10.5944 9.69548C10.7789 9.66314 10.9249 9.70694 10.9128 9.93371C11.1466 9.78896 11.2957 9.8493 11.4206 10.0694C11.5455 10.2898 11.7682 10.4755 11.9784 10.4906C12.1884 10.5056 12.3431 10.5998 12.1722 10.9062C12.0012 11.2127 11.7665 11.6514 11.2566 11.6022C10.7467 11.5531 10.668 11.4979 10.5652 11.6023" fill="#2A3990"/>
<path opacity="0.5" d="M11.725 11.4849L10.9566 9.91078C10.9422 9.91833 10.9285 9.92449 10.9136 9.93366C10.9257 9.70689 10.7797 9.66309 10.5952 9.69543C10.4576 9.71946 10.3129 9.64866 10.2061 9.69763L11.1297 11.5889C11.1693 11.5933 11.2109 11.5978 11.2573 11.6022C11.448 11.6206 11.6003 11.5706 11.725 11.4849Z" fill="#99DBF9"/>
<path opacity="0.5" d="M10.8307 11.5521L10.054 9.96155C9.98339 10.2367 9.95793 10.687 10.1536 10.931C10.3968 11.2341 10.3503 11.3633 10.3503 11.3633L10.5651 11.6024C10.6279 11.5386 10.6822 11.5346 10.8307 11.5521Z" fill="#99DBF9"/>
<path opacity="0.5" d="M12.1722 10.9062C12.2351 10.7932 12.2537 10.7092 12.2417 10.6472L12.2065 10.5751C12.1597 10.5215 12.0751 10.4976 11.9785 10.4906C11.7683 10.4754 11.5456 10.2898 11.4206 10.0694C11.3602 9.96277 11.2937 9.8946 11.2148 9.86804L11.9165 11.3046C12.0218 11.1778 12.1023 11.0311 12.1722 10.9062Z" fill="#99DBF9"/>
<path d="M7.9253 15.3141C7.9253 15.3141 7.87878 15.4433 8.12193 15.7465C8.36513 16.0496 8.26672 16.6721 8.16478 16.8801C8.06284 17.088 7.86554 16.9497 7.68115 16.9821C7.49671 17.0144 7.35081 16.9706 7.3629 16.7438C7.12901 16.8886 6.98002 16.8283 6.8551 16.6081C6.73008 16.3878 6.50752 16.2021 6.29723 16.1869C6.08728 16.172 5.93245 16.0778 6.10362 15.7714C6.27464 15.4648 6.50914 15.0263 7.019 15.0753C7.5289 15.1242 7.60772 15.1797 7.71053 15.0752" fill="#2A3990"/>
<path opacity="0.5" d="M6.10411 15.7711C6.07526 15.8223 6.05663 15.8674 6.04492 15.9074L6.16999 16.1632C6.20811 16.1759 6.25139 16.1833 6.29772 16.1866C6.50796 16.2017 6.73058 16.3874 6.85559 16.6077C6.93484 16.7473 7.02374 16.822 7.13777 16.8216L6.40507 15.3212C6.27714 15.4584 6.18331 15.6287 6.10411 15.7711Z" fill="#99DBF9"/>
<path opacity="0.5" d="M8.12252 16.9424L7.22123 15.0971C7.16243 15.0901 7.09617 15.0825 7.01892 15.0752C6.85478 15.0594 6.7194 15.0946 6.60547 15.1591L7.49439 16.9799C7.54689 16.9954 7.61109 16.9942 7.68103 16.982C7.84283 16.9536 8.0138 17.0562 8.12252 16.9424Z" fill="#99DBF9"/>
<path opacity="0.5" d="M7.51953 15.1325L8.24383 16.616C8.29528 16.3408 8.296 15.9628 8.12245 15.7464C7.87929 15.4432 7.92582 15.3139 7.92582 15.3139L7.71109 15.075C7.65993 15.1268 7.61469 15.1392 7.51953 15.1325Z" fill="#99DBF9"/>
<path d="M10.3463 11.2429C10.3463 11.2429 8.675 11.276 8.01538 11.7546C7.35567 12.2329 7.08829 13.0751 7.29715 13.9721C7.50595 14.8691 7.52057 14.9529 7.56466 15.2045C7.61363 15.3863 7.73506 15.4859 7.86036 15.4122C7.98562 15.3383 8.63764 15.3107 9.26434 15.2356C9.89086 15.1606 11.3684 14.7119 10.9863 12.8251C10.6871 11.5117 10.6871 11.5117 10.6871 11.5117C10.6871 11.5117 10.6119 11.179 10.3463 11.2429Z" fill="#2A3990"/>
<path d="M9.40529 14.9518C8.46975 15.1156 7.57844 14.4898 7.41473 13.5541C7.25088 12.6185 7.87672 11.7271 8.81231 11.5633C9.74795 11.3997 10.6393 12.0255 10.803 12.9611C10.9668 13.8967 10.341 14.788 9.40529 14.9518Z" fill="url(#paint39_radial_1191_481)"/>
<mask id="mask11_1191_481" style="mask-type:luminance" maskUnits="userSpaceOnUse" x="7" y="12" width="3" height="3">
<path d="M8.03961 12.3149C8.47795 12.2383 8.91615 12.6512 9.01876 13.2373C9.12142 13.8235 8.84922 14.3609 8.41117 14.4376C7.97292 14.5144 7.53438 14.1012 7.43177 13.5151C7.32921 12.9289 7.6015 12.3917 8.03961 12.3149Z" fill="url(#paint40_linear_1191_481)"/>
</mask>
<g mask="url(#mask11_1191_481)">
<path d="M8.03961 12.3149C8.47795 12.2383 8.91615 12.6512 9.01876 13.2373C9.12142 13.8235 8.84922 14.3609 8.41117 14.4376C7.97292 14.5144 7.53438 14.1012 7.43177 13.5151C7.32921 12.9289 7.6015 12.3917 8.03961 12.3149Z" fill="#F2F2F2"/>
</g>
<mask id="mask12_1191_481" style="mask-type:luminance" maskUnits="userSpaceOnUse" x="9" y="12" width="2" height="3">
<path d="M10.0915 14.1607C9.6533 14.2374 9.21486 13.8245 9.11248 13.2383C9.00982 12.6522 9.28188 12.1148 9.72008 12.0381C10.1583 11.9615 10.5968 12.3745 10.6994 12.9606C10.802 13.5467 10.5297 14.084 10.0915 14.1607Z" fill="url(#paint41_linear_1191_481)"/>
</mask>
<g mask="url(#mask12_1191_481)">
<path d="M10.0915 14.1607C9.6533 14.2374 9.21486 13.8245 9.11248 13.2383C9.00982 12.6522 9.28188 12.1148 9.72008 12.0381C10.1583 11.9615 10.5968 12.3745 10.6994 12.9606C10.802 13.5467 10.5297 14.084 10.0915 14.1607Z" fill="#F2F2F2"/>
</g>
<path d="M10.5805 12.8448C10.5983 12.9466 10.6478 13.023 10.6911 13.0155C10.7344 13.0079 10.7551 12.9192 10.7373 12.8174C10.7195 12.7155 10.67 12.6391 10.6267 12.6466C10.5834 12.6542 10.5627 12.7429 10.5805 12.8448Z" fill="#F2F2F2"/>
<path d="M10.2701 11.9474C10.2501 11.9727 10.186 11.9558 10.1263 11.9096C10.0666 11.8636 10.0339 11.8053 10.0535 11.78C10.0733 11.7546 10.1377 11.7715 10.1973 11.8178C10.2571 11.8639 10.2896 11.922 10.2701 11.9474Z" fill="#F2F2F2"/>
<path d="M4.6023 12.8753C4.6023 12.8753 4.48306 12.8072 4.1425 12.9945C3.80195 13.1818 3.20586 12.9776 3.01856 12.8413C2.83129 12.7049 3.0015 12.5346 3.0015 12.3474C3.0015 12.16 3.06981 12.0239 3.29113 12.0749C3.18895 11.8195 3.27399 11.6832 3.51246 11.5981C3.75093 11.513 3.97225 11.3256 4.02327 11.1213C4.07438 10.9169 4.19376 10.7808 4.46615 11.0021C4.73859 11.2235 5.13021 11.5301 4.99402 12.0239C4.85778 12.5178 4.7898 12.5858 4.87488 12.705" fill="url(#paint42_linear_1191_481)"/>
<path d="M8.07592 15.945C8.07592 15.945 8.1952 16.013 8.53571 15.8258C8.87631 15.6384 9.47235 15.8427 9.65966 15.979C9.84692 16.1153 9.67671 16.2857 9.67671 16.4729C9.67671 16.6602 9.60845 16.7964 9.38708 16.7454C9.48931 17.0008 9.40423 17.1371 9.16576 17.2222C8.92728 17.3073 8.70596 17.4946 8.65494 17.699C8.60383 17.9034 8.48455 18.0395 8.21206 17.8181C7.93958 17.5968 7.548 17.2902 7.6842 16.7963C7.82044 16.3025 7.88846 16.2345 7.80334 16.1152" fill="url(#paint43_linear_1191_481)"/>
<path d="M4.48292 12.8582C4.48292 12.8582 4.22745 14.5103 4.58515 15.2424C4.94272 15.9747 5.72616 16.3834 6.6457 16.3322C7.56528 16.2812 7.65041 16.2812 7.90589 16.2812C8.09324 16.2642 8.21243 16.1619 8.16132 16.0257C8.11025 15.8895 8.19547 15.2424 8.22949 14.6123C8.2635 13.9821 8.07633 12.4496 6.15194 12.5006C4.80662 12.5688 4.80662 12.5688 4.80662 12.5688C4.80662 12.5688 4.46587 12.5858 4.48292 12.8582Z" fill="url(#paint44_linear_1191_481)"/>
<path d="M6.25412 16.1451C7.20401 16.1451 7.97405 15.375 7.97405 14.4251C7.97405 13.4752 7.20401 12.7052 6.25412 12.7052C5.30422 12.7052 4.53418 13.4752 4.53418 14.4251C4.53418 15.375 5.30422 16.1451 6.25412 16.1451Z" fill="url(#paint45_linear_1191_481)"/>
<path opacity="0.52" d="M4.53418 14.4253C4.53418 14.6036 4.56146 14.7757 4.61185 14.9376H7.89643C7.94687 14.7757 7.9741 14.6037 7.9741 14.4253C7.9741 14.2193 7.93598 14.0228 7.86967 13.8398H4.63856C4.57225 14.0228 4.53418 14.2193 4.53418 14.4253Z" fill="#F2F2F2"/>
<mask id="mask13_1191_481" style="mask-type:luminance" maskUnits="userSpaceOnUse" x="5" y="14" width="3" height="3">
<path d="M6.21902 16.1208C6.81407 16.1208 7.29644 15.7602 7.29644 15.3154C7.29644 14.8706 6.81407 14.51 6.21902 14.51C5.62398 14.51 5.1416 14.8706 5.1416 15.3154C5.1416 15.7602 5.62398 16.1208 6.21902 16.1208Z" fill="url(#paint46_linear_1191_481)"/>
</mask>
<g mask="url(#mask13_1191_481)">
<path d="M6.21902 16.1208C6.81407 16.1208 7.29644 15.7602 7.29644 15.3154C7.29644 14.8706 6.81407 14.51 6.21902 14.51C5.62398 14.51 5.1416 14.8706 5.1416 15.3154C5.1416 15.7602 5.62398 16.1208 6.21902 16.1208Z" fill="#F2F2F2"/>
</g>
<mask id="mask14_1191_481" style="mask-type:luminance" maskUnits="userSpaceOnUse" x="5" y="12" width="3" height="3">
<path d="M6.23665 14.418C6.83172 14.418 7.31412 14.0574 7.31412 13.6125C7.31412 13.1677 6.83172 12.8071 6.23665 12.8071C5.64158 12.8071 5.15918 13.1677 5.15918 13.6125C5.15918 14.0574 5.64158 14.418 6.23665 14.418Z" fill="url(#paint47_linear_1191_481)"/>
</mask>
<g mask="url(#mask14_1191_481)">
<path d="M6.23665 14.418C6.83172 14.418 7.31412 14.0574 7.31412 13.6125C7.31412 13.1677 6.83172 12.8071 6.23665 12.8071C5.64158 12.8071 5.15918 13.1677 5.15918 13.6125C5.15918 14.0574 5.64158 14.418 6.23665 14.418Z" fill="#F2F2F2"/>
</g>
<path d="M6.10132 12.9038C6.20475 12.9038 6.28859 12.8682 6.28859 12.8242C6.28859 12.7803 6.20475 12.7446 6.10132 12.7446C5.9979 12.7446 5.91406 12.7803 5.91406 12.8242C5.91406 12.8682 5.9979 12.9038 6.10132 12.9038Z" fill="#F2F2F2"/>
<path d="M5.16359 13.0561C5.18521 13.08 5.1575 13.1404 5.10159 13.1912C5.04588 13.2421 4.98303 13.264 4.96141 13.2403C4.93988 13.2165 4.9675 13.1561 5.0235 13.1053C5.07916 13.0545 5.14206 13.0325 5.16359 13.0561Z" fill="#F2F2F2"/>
<path d="M7.16729 11.49C7.16729 11.49 7.1232 11.3599 6.74414 11.2742C6.36494 11.1885 6.05443 10.6402 6.00475 10.414C5.95492 10.1878 6.1953 10.1732 6.31955 10.033C6.44381 9.8928 6.58516 9.83624 6.71696 10.0212C6.80983 9.76229 6.96389 9.71667 7.19877 9.8112C7.43381 9.90574 7.72363 9.91229 7.89747 9.79324C8.07121 9.67425 8.25078 9.65155 8.30787 9.9978C8.36491 10.3441 8.45452 10.8334 8.02511 11.1126C7.59565 11.3917 7.49959 11.3975 7.48421 11.5432" fill="url(#paint48_radial_1191_481)"/>
<path opacity="0.61" d="M8.31829 10.7297L6.7366 9.97675C6.7301 9.99151 6.72327 10.0049 6.7173 10.0214C6.58546 9.83645 6.4441 9.89301 6.3199 10.0332C6.22717 10.1378 6.06996 10.1725 6.0166 10.2772L7.91725 11.1818C7.95089 11.1606 7.98638 11.1382 8.02546 11.1128C8.18601 11.0084 8.27405 10.8745 8.31829 10.7297ZM7.66097 11.3387L6.06265 10.5779C6.17883 10.8372 6.43937 11.2053 6.74439 11.2744C7.1235 11.3601 7.16754 11.4901 7.16754 11.4901L7.48445 11.5434C7.49382 11.4544 7.53385 11.4175 7.66097 11.3387ZM8.30816 9.99801C8.28714 9.87027 8.24931 9.79302 8.20144 9.75204L8.12883 9.7175C8.0589 9.70484 7.97778 9.73866 7.89776 9.79345C7.72393 9.9125 7.4341 9.90591 7.19907 9.81141C7.08533 9.7656 6.99084 9.75356 6.91273 9.78204L8.35627 10.469C8.35966 10.3041 8.33143 10.1392 8.30816 9.99801Z" fill="#F2F2F2"/>
<path d="M7.73051 16.0914C7.73051 16.0914 7.77465 16.2215 8.15371 16.3072C8.53282 16.3929 8.84343 16.9412 8.89311 17.1674C8.94288 17.3936 8.7025 17.4082 8.5783 17.5484C8.45405 17.6885 8.31265 17.7452 8.18089 17.5602C8.08798 17.8191 7.93387 17.8647 7.69903 17.7702C7.46405 17.6757 7.17417 17.6692 7.00034 17.7882C6.82659 17.9072 6.64702 17.9299 6.58994 17.5835C6.53285 17.2373 6.44323 16.7481 6.87269 16.4688C7.30215 16.1896 7.39827 16.1839 7.4136 16.0381" fill="url(#paint49_radial_1191_481)"/>
<path opacity="0.61" d="M6.58927 17.5835C6.59873 17.6416 6.61216 17.6884 6.62802 17.7271L6.88526 17.8494C6.92276 17.8356 6.96136 17.8144 6.99972 17.7882C7.17356 17.6692 7.46343 17.6757 7.69841 17.7702C7.84727 17.8301 7.96345 17.8331 8.0523 17.7618L6.5447 17.0441C6.5299 17.2312 6.56271 17.4227 6.58927 17.5835ZM8.89832 17.2424L7.0441 16.3599C6.99361 16.391 6.93714 16.4265 6.87203 16.4687C6.73373 16.5587 6.64975 16.6706 6.60074 16.7921L8.43021 17.6629C8.48095 17.6424 8.53053 17.6016 8.57763 17.5484C8.68646 17.4255 8.88427 17.3992 8.89832 17.2424ZM7.299 16.2025L8.7894 16.912C8.65851 16.6647 8.42353 16.3685 8.15305 16.3072C7.77394 16.2215 7.72985 16.0914 7.72985 16.0914L7.41294 16.0381C7.40529 16.1105 7.37754 16.1484 7.299 16.2025Z" fill="#F2F2F2"/>
<path d="M7.08865 11.3982C7.08865 11.3982 5.8017 12.465 5.58368 13.2502C5.36551 14.0353 5.6807 14.8608 6.40276 15.4325C7.12481 16.0043 7.18849 16.0607 7.37962 16.2302C7.5311 16.3419 7.68812 16.3442 7.74024 16.2084C7.79236 16.0726 8.28535 15.6449 8.72876 15.1959C9.17217 14.747 10.0488 13.4759 8.57479 12.2376C7.52284 11.3962 7.52284 11.3962 7.52284 11.3962C7.52284 11.3962 7.25671 11.1829 7.08865 11.3982Z" fill="url(#paint50_radial_1191_481)"/>
<path d="M8.66225 14.8864C8.03225 15.5972 6.94513 15.6626 6.2344 15.0326C5.52352 14.4026 5.45807 13.3155 6.08807 12.6046C6.71812 11.8939 7.80534 11.8284 8.51607 12.4584C9.2268 13.0884 9.29225 14.1756 8.66225 14.8864Z" fill="url(#paint51_radial_1191_481)"/>
<mask id="mask15_1191_481" style="mask-type:luminance" maskUnits="userSpaceOnUse" x="5" y="13" width="3" height="3">
<path d="M5.95208 13.6739C6.24725 13.341 6.84735 13.3911 7.29267 13.7858C7.73799 14.1805 7.85971 14.7703 7.56477 15.1033C7.26959 15.4362 6.66931 15.3862 6.22399 14.9914C5.77872 14.5966 5.65705 14.0068 5.95208 13.6739Z" fill="url(#paint52_linear_1191_481)"/>
</mask>
<g mask="url(#mask15_1191_481)">
<path d="M7.29236 13.7851C6.84701 13.3904 6.2468 13.3403 5.95175 13.6732C5.6567 14.0061 5.77855 14.5959 6.2239 14.9906C6.66925 15.3853 7.26946 15.4355 7.56451 15.1025C7.85955 14.7696 7.73771 14.1798 7.29236 13.7851Z" fill="#F2F2F2"/>
</g>
<mask id="mask16_1191_481" style="mask-type:luminance" maskUnits="userSpaceOnUse" x="6" y="12" width="3" height="3">
<path d="M8.70623 13.8401C8.41115 14.1729 7.81101 14.1228 7.36564 13.728C6.92042 13.3334 6.79861 12.7435 7.09364 12.4106C7.38881 12.0777 7.9891 12.1278 8.43427 12.5225C8.87964 12.9172 9.00136 13.5071 8.70623 13.8401Z" fill="url(#paint53_linear_1191_481)"/>
</mask>
<g mask="url(#mask16_1191_481)">
<path d="M8.70623 13.8401C8.41115 14.1729 7.81101 14.1228 7.36564 13.728C6.92042 13.3334 6.79861 12.7435 7.09364 12.4106C7.38881 12.0777 7.9891 12.1278 8.43427 12.5225C8.87964 12.9172 9.00136 13.5071 8.70623 13.8401Z" fill="#F2F2F2"/>
</g>
<path d="M8.2698 12.505C8.34717 12.5735 8.43354 12.6025 8.46271 12.5695C8.49189 12.5366 8.45281 12.4544 8.37544 12.3858C8.29807 12.3172 8.2117 12.2883 8.18253 12.3212C8.15336 12.3541 8.19243 12.4364 8.2698 12.505Z" fill="#F2F2F2"/>
<path d="M7.46687 11.9971C7.4672 12.0292 7.40658 12.0558 7.33139 12.0569C7.25625 12.058 7.19477 12.0328 7.19434 12.0009C7.19391 11.9689 7.25453 11.9421 7.32986 11.9412C7.40501 11.9401 7.46639 11.9652 7.46687 11.9971Z" fill="#F2F2F2"/>
<path opacity="0.61" d="M6.00619 15.0433L7.93575 15.9711C8.06917 15.8348 8.25543 15.6598 8.45272 15.469L5.54869 14.0866C5.61165 14.426 5.76753 14.7528 6.00619 15.0433ZM9.0981 14.7209L5.64691 13.0779C5.62125 13.1363 5.59976 13.1941 5.58418 13.2503C5.53785 13.4169 5.51697 13.5852 5.51759 13.7529L8.67146 15.254C8.69081 15.2347 8.71016 15.2154 8.72926 15.196C8.83971 15.0843 8.977 14.9215 9.0981 14.7209ZM8.84047 12.4874L6.89984 11.5635C6.76842 11.682 6.58321 11.8559 6.39165 12.0581L9.37211 13.4766C9.31804 13.1603 9.15939 12.8249 8.84047 12.4874ZM9.39328 13.8058L6.18939 12.2808C6.03844 12.4548 5.89484 12.6402 5.7821 12.8234L9.23162 14.4652C9.3199 14.2671 9.3831 14.0444 9.39328 13.8058Z" fill="#F2F2F2"/>
<path d="M4.22301 14.637C4.30346 14.6536 4.38615 14.655 4.46487 14.645C4.40411 14.4234 4.38839 14.2131 4.38706 14.0684C4.06967 14.0523 3.64136 14.0329 3.23464 13.7639C2.17494 13.1639 1.75551 11.3868 1.75551 11.3868C0.212948 12.6493 0.551642 15.402 2.58959 16.3012C4.62782 17.2004 5.38069 16.1687 5.49959 15.6141C5.61835 15.0595 4.76683 14.8606 4.22301 14.637Z" fill="url(#paint54_radial_1191_481)"/>
<path d="M14.1246 10.5695C14.1246 10.5695 13.8502 12.3745 12.8424 13.0582C12.4673 13.3525 12.0532 13.4104 11.7404 13.4519C11.7559 13.5525 11.7686 13.654 11.7741 13.7577C11.7794 13.851 11.7794 13.9433 11.7763 14.0349C11.8272 14.0312 11.8782 14.023 11.928 14.0083C11.4039 14.2751 10.5714 14.5423 10.7348 15.0856C10.898 15.6288 11.7319 16.5961 13.6906 15.535C15.6492 14.4739 15.7641 11.7029 14.1246 10.5695Z" fill="url(#paint55_radial_1191_481)"/>
<defs>
<radialGradient id="paint0_radial_1191_481" cx="0" cy="0" r="1" gradientUnits="userSpaceOnUse" gradientTransform="translate(7.88801 6.47343) scale(9.34918 9.34918)">
<stop offset="0.0714" stop-color="#F9EC00"/>
<stop offset="0.3407" stop-color="#F2BE1D"/>
<stop offset="0.6868" stop-color="#ED9D23"/>
<stop offset="1" stop-color="#E87326"/>
</radialGradient>
<radialGradient id="paint1_radial_1191_481" cx="0" cy="0" r="1" gradientUnits="userSpaceOnUse" gradientTransform="translate(5.27781 9.69471) rotate(9.553) scale(1.239 0.770797)">
<stop stop-color="white"/>
<stop offset="1"/>
</radialGradient>
<radialGradient id="paint2_radial_1191_481" cx="0" cy="0" r="1" gradientUnits="userSpaceOnUse" gradientTransform="translate(10.8466 9.59669) rotate(-15.5651) scale(1.23896 0.770759)">
<stop stop-color="white"/>
<stop offset="1"/>
</radialGradient>
<radialGradient id="paint3_radial_1191_481" cx="0" cy="0" r="1" gradientUnits="userSpaceOnUse" gradientTransform="translate(7.89054 8.7912) rotate(-1.18609) scale(1.45599)">
<stop offset="0.0714" stop-color="#F2BE1D"/>
<stop offset="0.6868" stop-color="#ED9D23"/>
<stop offset="1" stop-color="#E87326"/>
</radialGradient>
<radialGradient id="paint4_radial_1191_481" cx="0" cy="0" r="1" gradientUnits="userSpaceOnUse" gradientTransform="translate(6.00302 5.06172) rotate(3.2275) scale(0.94943)">
<stop offset="0.0714" stop-color="#F2BE1D"/>
<stop offset="0.6868" stop-color="#ED9D23"/>
<stop offset="1" stop-color="#E87326"/>
</radialGradient>
<radialGradient id="paint5_radial_1191_481" cx="0" cy="0" r="1" gradientUnits="userSpaceOnUse" gradientTransform="translate(9.39246 5.11361) rotate(166.043) scale(0.949317)">
<stop offset="0.0714" stop-color="#F2BE1D"/>
<stop offset="0.6868" stop-color="#ED9D23"/>
<stop offset="1" stop-color="#E87326"/>
</radialGradient>
<radialGradient id="paint6_radial_1191_481" cx="0" cy="0" r="1" gradientUnits="userSpaceOnUse" gradientTransform="translate(4.78778 14.6843) rotate(24.9777) scale(2.33915 1.33304)">
<stop stop-color="white"/>
<stop offset="1"/>
</radialGradient>
<radialGradient id="paint7_radial_1191_481" cx="0" cy="0" r="1" gradientUnits="userSpaceOnUse" gradientTransform="translate(9.60078 13.7453) rotate(-17.9623) scale(2.52825 1.81204)">
<stop stop-color="white"/>
<stop offset="1"/>
</radialGradient>
<radialGradient id="paint8_radial_1191_481" cx="0" cy="0" r="1" gradientUnits="userSpaceOnUse" gradientTransform="translate(6.6514 6.14622) scale(4.11189)">
<stop offset="0.0714" stop-color="#F9EC00"/>
<stop offset="0.3407" stop-color="#F2BE1D"/>
<stop offset="0.6868" stop-color="#ED9D23"/>
<stop offset="1" stop-color="#E87326"/>
</radialGradient>
<radialGradient id="paint9_radial_1191_481" cx="0" cy="0" r="1" gradientUnits="userSpaceOnUse" gradientTransform="translate(8.60504 2.81179) scale(4.70567)">
<stop stop-color="white"/>
<stop offset="1" stop-color="#CEDAD9"/>
</radialGradient>
<radialGradient id="paint10_radial_1191_481" cx="0" cy="0" r="1" gradientUnits="userSpaceOnUse" gradientTransform="translate(9.11959 1.36622) scale(1.75165)">
<stop stop-color="#F1A7B8"/>
<stop offset="1" stop-color="#EE87A6"/>
</radialGradient>
<radialGradient id="paint11_radial_1191_481" cx="0" cy="0" r="1" gradientUnits="userSpaceOnUse" gradientTransform="translate(11.6831 6.55035) scale(2.42171)">
<stop offset="0.0714" stop-color="#F9EC00"/>
<stop offset="0.3407" stop-color="#F2BE1D"/>
<stop offset="0.6868" stop-color="#ED9D23"/>
<stop offset="1" stop-color="#E87326"/>
</radialGradient>
<radialGradient id="paint12_radial_1191_481" cx="0" cy="0" r="1" gradientUnits="userSpaceOnUse" gradientTransform="translate(12.0017 6.11984) scale(2.81367 2.81367)">
<stop stop-color="white"/>
<stop offset="1" stop-color="#CEDAD9"/>
</radialGradient>
<radialGradient id="paint13_radial_1191_481" cx="0" cy="0" r="1" gradientUnits="userSpaceOnUse" gradientTransform="translate(10.6513 4.51536) scale(0.77797)">
<stop stop-color="#F1A7B8"/>
<stop offset="1" stop-color="#EE87A6"/>
</radialGradient>
<radialGradient id="paint14_radial_1191_481" cx="0" cy="0" r="1" gradientUnits="userSpaceOnUse" gradientTransform="translate(8.05502 2.7005) scale(4.06765)">
<stop stop-color="white"/>
<stop offset="1" stop-color="#CEDAD9"/>
</radialGradient>
<radialGradient id="paint15_radial_1191_481" cx="0" cy="0" r="1" gradientUnits="userSpaceOnUse" gradientTransform="translate(8.48913 3.38506) scale(4.19804)">
<stop stop-color="white"/>
<stop offset="1" stop-color="#CEDAD9"/>
</radialGradient>
<radialGradient id="paint16_radial_1191_481" cx="0" cy="0" r="1" gradientUnits="userSpaceOnUse" gradientTransform="translate(7.04875 5.13888) scale(5.45022 5.45022)">
<stop stop-color="white"/>
<stop offset="1" stop-color="#CEDAD9"/>
</radialGradient>
<radialGradient id="paint17_radial_1191_481" cx="0" cy="0" r="1" gradientUnits="userSpaceOnUse" gradientTransform="translate(7.28324 3.75547) scale(2.63842)">
<stop stop-color="#F1A7B8"/>
<stop offset="1" stop-color="#EE87A6"/>
</radialGradient>
<radialGradient id="paint18_radial_1191_481" cx="0" cy="0" r="1" gradientUnits="userSpaceOnUse" gradientTransform="translate(1.49639 5.4372) scale(2.53067)">
<stop stop-color="#F1A7B8"/>
<stop offset="1" stop-color="#EE87A6"/>
</radialGradient>
<radialGradient id="paint19_radial_1191_481" cx="0" cy="0" r="1" gradientUnits="userSpaceOnUse" gradientTransform="translate(14.3247 7.16869) scale(1.30282)">
<stop stop-color="#F1A7B8"/>
<stop offset="1" stop-color="#EE87A6"/>
</radialGradient>
<radialGradient id="paint20_radial_1191_481" cx="0" cy="0" r="1" gradientUnits="userSpaceOnUse" gradientTransform="translate(5.37947 15.4394) rotate(35.0102) scale(1.69267 1.09165)">
<stop stop-color="white"/>
<stop offset="1"/>
</radialGradient>
<radialGradient id="paint21_radial_1191_481" cx="0" cy="0" r="1" gradientUnits="userSpaceOnUse" gradientTransform="translate(10.2636 15.1245) rotate(-72.497) scale(1.54214 0.652799)">
<stop stop-color="white"/>
<stop offset="1"/>
</radialGradient>
<radialGradient id="paint22_radial_1191_481" cx="0" cy="0" r="1" gradientUnits="userSpaceOnUse" gradientTransform="translate(5.17184 6.89158) rotate(-33.1787) scale(1.31977 1.38564)">
<stop offset="0.0714" stop-color="#F2BE1D"/>
<stop offset="0.6868" stop-color="#ED9D23"/>
<stop offset="1" stop-color="#E87326"/>
</radialGradient>
<radialGradient id="paint23_radial_1191_481" cx="0" cy="0" r="1" gradientUnits="userSpaceOnUse" gradientTransform="translate(6.11147 7.90472) rotate(-33.1787) scale(1.17272 1.23125)">
<stop offset="0.2802" stop-color="white"/>
<stop offset="0.648" stop-color="#FBFEFF"/>
<stop offset="0.7804" stop-color="#F3FAFE"/>
<stop offset="0.8749" stop-color="#E7F6FD"/>
<stop offset="0.9507" stop-color="#D6EFFB"/>
<stop offset="1" stop-color="#C5E9FA"/>
</radialGradient>
<radialGradient id="paint24_radial_1191_481" cx="0" cy="0" r="1" gradientUnits="userSpaceOnUse" gradientTransform="translate(6.30178 8.13777) rotate(-33.18) scale(1.00916 1.06581)">
<stop offset="0.2802" stop-color="white"/>
<stop offset="0.6375" stop-color="#F8FAFC"/>
<stop offset="0.7662" stop-color="#EBF1F4"/>
<stop offset="0.8579" stop-color="#D7E4EB"/>
<stop offset="0.9315" stop-color="#BFD3DC"/>
<stop offset="0.9944" stop-color="#A0BDCB"/>
<stop offset="1" stop-color="#9DBBC9"/>
</radialGradient>
<radialGradient id="paint25_radial_1191_481" cx="0" cy="0" r="1" gradientUnits="userSpaceOnUse" gradientTransform="translate(6.22539 7.99675) rotate(-33.18) scale(0.802514)">
<stop offset="0.2802" stop-color="#9BB9C7"/>
<stop offset="0.6174" stop-color="#9AB7C5"/>
<stop offset="0.7389" stop-color="#96B3C0"/>
<stop offset="0.8255" stop-color="#8EAAB7"/>
<stop offset="0.8954" stop-color="#839DAA"/>
<stop offset="0.9547" stop-color="#768D99"/>
<stop offset="1" stop-color="#687E88"/>
</radialGradient>
<radialGradient id="paint26_radial_1191_481" cx="0" cy="0" r="1" gradientUnits="userSpaceOnUse" gradientTransform="translate(11.0621 6.82327) rotate(-146.821) scale(1.31979 1.38566)">
<stop offset="0.0714" stop-color="#F2BE1D"/>
<stop offset="0.6868" stop-color="#ED9D23"/>
<stop offset="1" stop-color="#E87326"/>
</radialGradient>
<radialGradient id="paint27_radial_1191_481" cx="0" cy="0" r="1" gradientUnits="userSpaceOnUse" gradientTransform="translate(10.1226 7.83642) rotate(-146.821) scale(1.17272 1.23125)">
<stop offset="0.2802" stop-color="white"/>
<stop offset="0.648" stop-color="#FBFEFF"/>
<stop offset="0.7804" stop-color="#F3FAFE"/>
<stop offset="0.8749" stop-color="#E7F6FD"/>
<stop offset="0.9507" stop-color="#D6EFFB"/>
<stop offset="1" stop-color="#C5E9FA"/>
</radialGradient>
<radialGradient id="paint28_radial_1191_481" cx="0" cy="0" r="1" gradientUnits="userSpaceOnUse" gradientTransform="translate(9.93264 8.06967) rotate(-146.82) scale(1.00918 1.06583)">
<stop offset="0.2802" stop-color="white"/>
<stop offset="0.6375" stop-color="#F8FAFC"/>
<stop offset="0.7662" stop-color="#EBF1F4"/>
<stop offset="0.8579" stop-color="#D7E4EB"/>
<stop offset="0.9315" stop-color="#BFD3DC"/>
<stop offset="0.9944" stop-color="#A0BDCB"/>
<stop offset="1" stop-color="#9DBBC9"/>
</radialGradient>
<radialGradient id="paint29_radial_1191_481" cx="0" cy="0" r="1" gradientUnits="userSpaceOnUse" gradientTransform="translate(10.0095 7.92876) rotate(-146.82) scale(0.802533)">
<stop offset="0.2802" stop-color="#9BB9C7"/>
<stop offset="0.6174" stop-color="#9AB7C5"/>
<stop offset="0.7389" stop-color="#96B3C0"/>
<stop offset="0.8255" stop-color="#8EAAB7"/>
<stop offset="0.8954" stop-color="#839DAA"/>
<stop offset="0.9547" stop-color="#768D99"/>
<stop offset="1" stop-color="#687E88"/>
</radialGradient>
<radialGradient id="paint30_radial_1191_481" cx="0" cy="0" r="1" gradientUnits="userSpaceOnUse" gradientTransform="translate(5.7984 12.5151) rotate(91.8391) scale(1.97879 1.84312)">
<stop stop-color="white"/>
<stop offset="1"/>
</radialGradient>
<radialGradient id="paint31_radial_1191_481" cx="0" cy="0" r="1" gradientUnits="userSpaceOnUse" gradientTransform="translate(8.11381 12.1065) rotate(91.8391) scale(1.97881 1.84314)">
<stop stop-color="white"/>
<stop offset="1"/>
</radialGradient>
<radialGradient id="paint32_radial_1191_481" cx="0" cy="0" r="1" gradientUnits="userSpaceOnUse" gradientTransform="translate(11.5644 12.4575) rotate(91.8391) scale(2.15014 2.00272)">
<stop stop-color="white"/>
<stop offset="1"/>
</radialGradient>
<radialGradient id="paint33_radial_1191_481" cx="0" cy="0" r="1" gradientUnits="userSpaceOnUse" gradientTransform="translate(12.0347 11.8682) rotate(81.0312) scale(1.06837)">
<stop offset="0.0055" stop-color="#F38EB2"/>
<stop offset="0.8901" stop-color="#EE5488"/>
</radialGradient>
<radialGradient id="paint34_radial_1191_481" cx="0" cy="0" r="1" gradientUnits="userSpaceOnUse" gradientTransform="translate(7.97007 17.1432) rotate(-100.5) scale(0.913952 1.06347)">
<stop offset="0.0055" stop-color="#F38EB2"/>
<stop offset="0.8901" stop-color="#EE5488"/>
</radialGradient>
<radialGradient id="paint35_radial_1191_481" cx="0" cy="0" r="1" gradientUnits="userSpaceOnUse" gradientTransform="translate(9.99105 14.5576) rotate(81.0312) scale(1.91886)">
<stop offset="0.0055" stop-color="#F38EB2"/>
<stop offset="0.8901" stop-color="#EE5488"/>
</radialGradient>
<radialGradient id="paint36_radial_1191_481" cx="0" cy="0" r="1" gradientUnits="userSpaceOnUse" gradientTransform="translate(9.97411 14.4996) rotate(81.0312) scale(1.71993)">
<stop offset="0.0055" stop-color="#FFFEF2"/>
<stop offset="0.8901" stop-color="#F2839B"/>
</radialGradient>
<linearGradient id="paint37_linear_1191_481" x1="7.84904" y1="14.7992" x2="9.08879" y2="14.6035" gradientUnits="userSpaceOnUse">
<stop stop-color="white"/>
<stop offset="1"/>
</linearGradient>
<linearGradient id="paint38_linear_1191_481" x1="12.0141" y1="14.1593" x2="10.7743" y2="14.3549" gradientUnits="userSpaceOnUse">
<stop stop-color="white"/>
<stop offset="1"/>
</linearGradient>
<radialGradient id="paint39_radial_1191_481" cx="0" cy="0" r="1" gradientUnits="userSpaceOnUse" gradientTransform="translate(9.10888 13.2576) rotate(80.0723) scale(1.71993)">
<stop offset="0.0055" stop-color="#FFFEF2"/>
<stop offset="0.8901" stop-color="#1B75BC"/>
</radialGradient>
<linearGradient id="paint40_linear_1191_481" x1="6.98896" y1="13.5927" x2="8.22532" y2="13.3763" gradientUnits="userSpaceOnUse">
<stop stop-color="white"/>
<stop offset="1"/>
</linearGradient>
<linearGradient id="paint41_linear_1191_481" x1="11.1423" y1="12.883" x2="9.90595" y2="13.0994" gradientUnits="userSpaceOnUse">
<stop stop-color="white"/>
<stop offset="1"/>
</linearGradient>
<linearGradient id="paint42_linear_1191_481" x1="2.93066" y1="11.9792" x2="5.02189" y2="11.9792" gradientUnits="userSpaceOnUse">
<stop stop-color="#009445"/>
<stop offset="1" stop-color="#006838"/>
</linearGradient>
<linearGradient id="paint43_linear_1191_481" x1="9.74757" y1="16.8411" x2="7.65634" y2="16.8411" gradientUnits="userSpaceOnUse">
<stop stop-color="#009445"/>
<stop offset="1" stop-color="#006838"/>
</linearGradient>
<linearGradient id="paint44_linear_1191_481" x1="4.39455" y1="14.418" x2="8.23284" y2="14.418" gradientUnits="userSpaceOnUse">
<stop stop-color="#009445"/>
<stop offset="1" stop-color="#006838"/>
</linearGradient>
<linearGradient id="paint45_linear_1191_481" x1="6.5798" y1="14.404" x2="3.02919" y2="14.6339" gradientUnits="userSpaceOnUse">
<stop stop-color="#7FB539"/>
<stop offset="1" stop-color="#006838"/>
</linearGradient>
<linearGradient id="paint46_linear_1191_481" x1="6.21901" y1="16.5707" x2="6.21901" y2="15.3156" gradientUnits="userSpaceOnUse">
<stop stop-color="white"/>
<stop offset="1"/>
</linearGradient>
<linearGradient id="paint47_linear_1191_481" x1="6.23662" y1="12.3573" x2="6.23662" y2="13.6124" gradientUnits="userSpaceOnUse">
<stop stop-color="white"/>
<stop offset="1"/>
</linearGradient>
<radialGradient id="paint48_radial_1191_481" cx="0" cy="0" r="1" gradientUnits="userSpaceOnUse" gradientTransform="translate(7.29316 10.4042) rotate(41.5541) scale(1.06835)">
<stop offset="0.0055" stop-color="#F38EB2"/>
<stop offset="0.8901" stop-color="#EE5488"/>
</radialGradient>
<radialGradient id="paint49_radial_1191_481" cx="0" cy="0" r="1" gradientUnits="userSpaceOnUse" gradientTransform="translate(7.60457 17.1773) rotate(-138.446) scale(1.06839)">
<stop offset="0.0055" stop-color="#F38EB2"/>
<stop offset="0.8901" stop-color="#EE5488"/>
</radialGradient>
<radialGradient id="paint50_radial_1191_481" cx="0" cy="0" r="1" gradientUnits="userSpaceOnUse" gradientTransform="translate(7.42412 13.7797) rotate(41.5541) scale(1.91886)">
<stop offset="0.0055" stop-color="#F38EB2"/>
<stop offset="0.8901" stop-color="#EE5488"/>
</radialGradient>
<radialGradient id="paint51_radial_1191_481" cx="0" cy="0" r="1" gradientUnits="userSpaceOnUse" gradientTransform="translate(7.37518 13.7455) rotate(41.5541) scale(1.71994)">
<stop offset="0.0055" stop-color="#FFFEF2"/>
<stop offset="0.8901" stop-color="#F2839B"/>
</radialGradient>
<linearGradient id="paint52_linear_1191_481" x1="5.92584" y1="15.3279" x2="6.75838" y2="14.3887" gradientUnits="userSpaceOnUse">
<stop stop-color="white"/>
<stop offset="1"/>
</linearGradient>
<linearGradient id="paint53_linear_1191_481" x1="8.73253" y1="12.186" x2="7.90001" y2="13.1252" gradientUnits="userSpaceOnUse">
<stop stop-color="white"/>
<stop offset="1"/>
</linearGradient>
<radialGradient id="paint54_radial_1191_481" cx="0" cy="0" r="1" gradientUnits="userSpaceOnUse" gradientTransform="translate(6.12463 14.1989) rotate(7.25578) scale(6.5669 6.56691)">
<stop offset="0.0714" stop-color="#F9EC00"/>
<stop offset="0.3407" stop-color="#F2BE1D"/>
<stop offset="0.6868" stop-color="#ED9D23"/>
<stop offset="1" stop-color="#E87326"/>
</radialGradient>
<radialGradient id="paint55_radial_1191_481" cx="0" cy="0" r="1" gradientUnits="userSpaceOnUse" gradientTransform="translate(8.85115 12.7553) rotate(-7.9729) scale(7.25484)">
<stop offset="0.0714" stop-color="#F9EC00"/>
<stop offset="0.3407" stop-color="#F2BE1D"/>
<stop offset="0.6868" stop-color="#ED9D23"/>
<stop offset="1" stop-color="#E87326"/>
</radialGradient>
</defs>
</svg>
