<svg width="16" height="18" viewBox="0 0 16 18" fill="none" xmlns="http://www.w3.org/2000/svg">
<path d="M8.0792 16.9522C11.6896 16.9522 14.6164 14.0003 14.6164 10.359C14.6164 6.71772 11.6896 3.76587 8.0792 3.76587C4.4688 3.76587 1.54199 6.71772 1.54199 10.359C1.54199 14.0003 4.4688 16.9522 8.0792 16.9522Z" fill="url(#paint0_radial_1191_663)"/>
<path d="M6.44062 6.26456C6.44062 6.26456 5.37686 6.10755 4.84668 6.91283C4.84668 6.91283 5.58445 6.36056 6.58181 6.45567C6.61518 6.29821 6.44062 6.26456 6.44062 6.26456Z" fill="url(#paint1_radial_1191_663)"/>
<path d="M6.47736 6.32005C6.47736 6.32005 5.45564 6.23528 4.8252 6.94495C4.8252 6.94495 5.54906 6.43798 6.54637 6.53309C6.68509 6.3817 6.47736 6.32005 6.47736 6.32005Z" fill="#FFF200"/>
<path d="M6.46028 6.30968C6.46028 6.30968 5.41087 6.19677 4.81641 6.95293C4.81641 6.95293 5.54062 6.39445 6.53802 6.48956C6.66437 6.3685 6.46028 6.30968 6.46028 6.30968Z" fill="#601B05"/>
<path d="M9.56654 6.35341C9.56654 6.35341 10.5826 5.99942 11.2522 6.69094C11.2522 6.69094 10.4254 6.28684 9.46302 6.56769C9.4013 6.41924 9.56654 6.35341 9.56654 6.35341Z" fill="url(#paint2_radial_1191_663)"/>
<path d="M9.54112 6.41468C9.54112 6.41468 10.5293 6.13959 11.2797 6.71855C11.2797 6.71855 10.4749 6.35631 9.51253 6.63711C9.34832 6.51441 9.54112 6.41468 9.54112 6.41468Z" fill="#FFF200"/>
<path d="M9.55481 6.40145C9.55481 6.40145 10.565 6.09335 11.2887 6.72477C11.2887 6.72477 10.474 6.31206 9.51153 6.59277C9.36512 6.49756 9.55481 6.40145 9.55481 6.40145Z" fill="#601B05"/>
<mask id="mask0_1191_663" style="mask-type:luminance" maskUnits="userSpaceOnUse" x="3" y="10" width="7" height="8">
<g opacity="0.87">
<path d="M9.67545 15.3846C8.92541 17.0084 7.10969 17.7581 5.62011 17.0583C4.13043 16.3585 3.53123 14.4741 4.28147 12.8503C5.03141 11.2264 6.84714 10.4767 8.33657 11.1766C9.8263 11.8765 10.4256 13.7607 9.67545 15.3846Z" fill="url(#paint3_radial_1191_663)"/>
</g>
</mask>
<g mask="url(#mask0_1191_663)">
<path opacity="0.87" d="M9.67545 15.3846C8.92541 17.0084 7.10969 17.7581 5.62011 17.0583C4.13043 16.3585 3.53123 14.4741 4.28147 12.8503C5.03141 11.2264 6.84714 10.4767 8.33657 11.1766C9.8263 11.8765 10.4256 13.7607 9.67545 15.3846Z" fill="#ED1C24"/>
</g>
<mask id="mask1_1191_663" style="mask-type:luminance" maskUnits="userSpaceOnUse" x="2" y="10" width="7" height="7">
<g opacity="0.87">
<path d="M7.91244 12.0209C8.80662 13.267 8.514 15.0208 7.25823 15.9376C6.00216 16.8544 4.2589 16.587 3.36492 15.3409C2.47034 14.0949 2.76296 12.3412 4.01863 11.4245C5.27475 10.5074 7.01806 10.7749 7.91244 12.0209Z" fill="url(#paint4_radial_1191_663)"/>
</g>
</mask>
<g mask="url(#mask1_1191_663)">
<path opacity="0.87" d="M7.91244 12.0209C8.80662 13.267 8.514 15.0208 7.25823 15.9376C6.00216 16.8544 4.2589 16.587 3.36492 15.3409C2.47034 14.0949 2.76296 12.3412 4.01863 11.4245C5.27475 10.5074 7.01806 10.7749 7.91244 12.0209Z" fill="#ED1C24"/>
</g>
<path d="M1.58984 9.57141C2.1745 7.52328 3.29924 6.45986 7.33679 5.97944C9.25885 5.75078 10.8944 5.51214 12.1208 5.17898C11.0084 4.2948 9.6054 3.76575 8.07914 3.76575C4.73316 3.7658 1.97608 6.30176 1.58984 9.57141Z" fill="url(#paint5_radial_1191_663)"/>
<path d="M2.60449 2.84841C2.60449 2.84841 2.8001 1.256 4.74582 0.732319C6.69154 0.208491 9.02601 0.283465 9.57595 0.719641C10.1259 1.15597 11.918 0.83782 12.3971 1.95419C12.8765 3.0708 13.8241 3.61457 13.8241 3.61457C13.8241 3.61457 15.636 4.49437 15.0042 6.03076" fill="url(#paint6_radial_1191_663)"/>
<path d="M10.6095 3.02138L11.5936 2.56044C11.4047 2.00629 10.9389 1.43538 10.5119 0.996068C10.1202 0.933772 9.77074 0.873712 9.57641 0.719587C9.25431 0.464086 8.3202 0.332881 7.21094 0.372953C8.53597 0.930639 10.6095 3.02138 10.6095 3.02138Z" fill="url(#paint7_radial_1191_663)"/>
<path d="M11.2496 4.59302L9.52441 5.21946C9.52441 5.21946 12.1867 5.81474 13.3687 7.42933C14.1273 8.46555 14.4419 9.19501 14.5703 9.58529C14.3208 7.43395 13.0454 5.59951 11.2496 4.59302Z" fill="url(#paint8_radial_1191_663)"/>
<path d="M9.48828 4.82959C9.48828 4.82959 12.1505 5.42491 13.3326 7.0395C14.5147 8.65434 14.5692 9.58531 14.5692 9.58531C14.5692 9.58531 15.6867 8.31248 15.0876 6.2382C14.4885 4.16392 12.6067 3.69727 12.6067 3.69727" fill="url(#paint9_radial_1191_663)"/>
<path d="M10.1514 5.01983C10.5973 5.16665 11.2118 5.4045 11.814 5.75108C11.7142 5.10018 11.7346 4.19128 11.7346 4.19128L10.1514 5.01983Z" fill="url(#paint10_radial_1191_663)"/>
<path d="M10.867 2.50066C10.4797 1.75007 9.40174 0.888758 8.81581 0.455914C8.74433 0.443634 8.66895 0.432596 8.59082 0.422852C8.77938 0.558333 9.06643 0.771822 9.3765 1.02871C9.91472 1.47339 10.5179 2.04912 10.7734 2.54954L10.867 2.50066Z" fill="#F6D5D1"/>
<path d="M13.2172 5.51441L12.8333 4.92853L13.3154 4.42255L13.0379 3.8582C12.9842 3.83369 12.9342 3.81231 12.8887 3.79407L13.1882 4.40296L12.6988 4.916L13.088 5.51018L12.6611 6.07662L13.1119 6.62371L13.0591 6.71137C13.0843 6.73811 13.1088 6.76556 13.1331 6.793L13.241 6.61397L12.7957 6.07353L13.2172 5.51441ZM13.5698 5.54782L13.1858 4.96189L13.668 4.45591L13.4961 4.10659C13.4391 4.07065 13.3831 4.03684 13.329 4.00626L13.5404 4.43617L13.0513 4.94961L13.4405 5.54389L13.0136 6.11008L13.4643 6.65737L13.2773 6.96786C13.2957 6.99173 13.315 7.01524 13.3328 7.0395C13.3375 7.04572 13.3417 7.05178 13.3462 7.0582L13.5936 6.64758L13.1483 6.10714L13.5698 5.54782Z" fill="#DA6788"/>
<path opacity="0.45" d="M9.16463 3.32232L8.48222 3.13702L8.42449 2.42749L7.72518 2.32846L7.587 1.63082L6.88177 1.60939L6.67246 0.930439L5.96925 0.983587L5.76216 0.516288C5.72612 0.522105 5.69018 0.527922 5.6543 0.534137L5.90314 1.0951L6.59664 1.04255L6.80344 1.71365L7.49995 1.73458L7.63659 2.42352L8.32625 2.52091L8.38309 3.22045L9.05509 3.40236L9.01994 4.10279L9.65828 4.37907L9.6041 4.64447L9.70639 4.67087L9.779 4.31568L9.12869 4.03403L9.16463 3.32232ZM9.38695 3.79001L9.42269 3.07781L8.74033 2.89276L8.68276 2.18323L7.98344 2.08419L7.84507 1.38655L7.13998 1.36532L6.93048 0.686224L6.22736 0.739124L6.10619 0.465576C6.06986 0.470399 6.03338 0.475321 5.99705 0.480591L6.16131 0.851089L6.855 0.798288L7.06185 1.46938L7.75831 1.49036L7.89486 2.1791L8.58456 2.27655L8.64145 2.97608L9.31311 3.15835L9.27791 3.85853L9.91649 4.13481L9.80212 4.69538L9.90427 4.72148L10.037 4.07147L9.38695 3.79001Z" fill="#DA6788"/>
<path d="M14.0008 3.71429C13.894 3.64861 13.8242 3.61456 13.8242 3.61456C13.8242 3.61456 12.8765 3.07079 12.3972 1.95418C12.3274 1.79155 12.2291 1.66009 12.1114 1.55146C11.8417 1.59815 11.5286 1.69709 11.1606 1.84882C10.0032 2.32696 8.70696 2.16041 6.69597 1.61063C5.09493 1.17321 4.02526 1.52839 3.09637 1.77266C2.67011 2.32055 2.60449 2.84835 2.60449 2.84835L10.0555 4.7606C12.0891 4.42481 13.4855 3.93459 14.0008 3.71429Z" fill="url(#paint11_radial_1191_663)"/>
<path d="M11.0667 5.36096C12.5365 4.99484 14.2983 4.45669 14.6781 4.27637C14.2993 3.84561 13.825 3.61462 13.825 3.61462C13.825 3.61462 13.0346 3.15915 12.5325 2.22888C12.285 2.28999 12.0052 2.39047 11.6834 2.5338C10.5183 3.05241 9.19352 2.9315 7.12993 2.45251C5.10125 1.98168 3.93219 2.69121 2.8252 2.90495L11.0667 5.36096Z" fill="url(#paint12_radial_1191_663)"/>
<path d="M1.47129 9.40212C1.47129 9.40212 -0.395454 8.45499 0.514799 5.80105C0.46358 4.96445 1.25799 2.73167 2.36069 2.53578C3.4635 2.33999 4.61377 1.60133 6.64098 2.08678C8.66814 2.57237 9.96901 2.69736 11.111 2.18298C12.2529 1.66845 12.8729 1.69172 13.3001 2.23901C13.7273 2.78631 14.4979 3.67278 14.199 3.85952C13.8999 4.04621 11.1256 5.25107 6.91472 5.5541C2.70394 5.85713 2.10386 7.50548 1.89297 8.26771C1.70239 8.95685 1.66448 9.56142 1.47129 9.40212Z" fill="url(#paint13_radial_1191_663)"/>
<path d="M10.8661 2.28162C10.1049 2.55914 9.25793 2.57266 8.17031 2.40044C6.50455 3.18534 4.55257 5.57036 4.14844 6.07902C4.83296 5.83083 5.73109 5.63927 6.91449 5.5541C7.24236 5.53038 7.56032 5.50095 7.87015 5.46729C8.12432 5.11255 8.52342 4.65639 9.13297 4.19118C10.1794 3.39261 10.7016 2.57222 10.8661 2.28162Z" fill="url(#paint14_radial_1191_663)"/>
<path d="M5.54936 1.92978L5.43095 2.2783L4.72355 2.30276L4.60524 3.00582L3.91051 3.13797L3.89237 3.85058L3.22184 4.07386L3.29081 4.78254L2.6508 5.08179L2.79573 5.77804L2.19047 6.14277L2.40678 6.81983L1.84944 7.25372L2.03287 7.85377C2.05239 7.80683 2.07492 7.75826 2.09898 7.70899L1.97184 7.2928L2.52997 6.85831L2.31667 6.19075L2.91463 5.83015L2.77138 5.14265L3.40301 4.84707L3.33513 4.14794L3.99574 3.92804L4.01374 3.22667L4.69693 3.09685L4.81322 2.40602L5.50726 2.38191L5.6586 1.93599C5.62192 1.93346 5.58545 1.93142 5.54936 1.92978ZM2.23395 6.66252L2.02074 5.99481L2.61846 5.63446L2.47535 4.94696L3.10703 4.65144L3.03886 3.9523L3.69967 3.73215L3.71757 3.03093L4.40086 2.90097L4.5172 2.21019L5.21109 2.18627L5.29997 1.9248C5.26216 1.925 5.22499 1.92585 5.18797 1.92664L5.13508 2.08266L4.42753 2.10697L4.30927 2.81038L3.61454 2.94223L3.5963 3.65449L2.92597 3.87797L2.99474 4.58665L2.35487 4.8861L2.5 5.5823L1.89464 5.94703L2.11095 6.62389L1.55371 7.05778L1.86033 8.06154L1.96109 8.03021L1.67587 7.09701L2.23395 6.66252Z" fill="#DA6788"/>
<path d="M6.29442 5.61223C6.51305 5.35315 6.83076 4.98573 7.20837 4.57725C7.84326 3.89015 8.64427 3.09093 9.4087 2.51311C9.3528 2.51291 9.2967 2.51227 9.23937 2.51038C7.98498 3.48679 6.6743 4.99319 6.1416 5.62938C6.19144 5.62341 6.2434 5.61804 6.29442 5.61223Z" fill="#F6D5D1"/>
<path d="M2.11234 7.68143C0.746195 7.37327 0.620638 5.96332 0.698131 5.54693C1.06716 3.47325 2.80692 2.43643 2.80692 2.43643L2.80298 2.43335C2.65346 2.47422 2.50661 2.50972 2.36069 2.53572C1.25804 2.73161 0.46363 4.96439 0.514799 5.80099C-0.395454 8.45494 1.47129 9.40206 1.47129 9.40206C1.66453 9.56136 1.70239 8.95674 1.89302 8.2676C1.93793 8.10537 2.00098 7.90267 2.11234 7.68143Z" fill="url(#paint15_radial_1191_663)"/>
<path d="M0.333984 6.47669C0.355428 7.12392 0.62912 8.05583 1.83052 8.51194C1.83885 8.47729 1.84747 8.44239 1.85645 8.40709C0.647311 7.94078 0.440908 7.00141 0.437654 6.37706C0.437654 6.1839 0.458457 6.0254 0.476894 5.92114C0.415224 6.11534 0.367456 6.30099 0.333984 6.47669Z" fill="#F6D5D1"/>
<path d="M14.9673 5.88311C14.967 5.88221 14.9667 5.88117 14.9663 5.88037C14.9507 6.78096 14.7428 7.89812 14.2822 8.64021C14.5502 9.25254 14.5699 9.5853 14.5699 9.5853C14.5699 9.5853 15.3635 8.68113 15.2544 7.15539C15.2335 6.86837 15.1817 6.5618 15.0883 6.23819C15.0701 6.17545 15.0508 6.11444 15.0304 6.05458C15.0104 5.99602 14.9893 5.93894 14.9673 5.88311Z" fill="url(#paint16_radial_1191_663)"/>
<path d="M7.27118 7.67833C7.72569 8.36881 7.63922 9.26195 6.99911 9.56836C6.36112 9.8774 5.50031 9.60142 5.15539 9.05651C4.8082 8.50897 5.01923 7.78184 5.54779 7.32712C6.07861 6.87479 6.8147 6.98501 7.27118 7.67833Z" fill="url(#paint17_radial_1191_663)"/>
<path d="M7.35226 7.7813C7.80652 8.47179 7.72025 9.36492 7.08009 9.67128C6.4423 9.98023 5.58149 9.70429 5.23647 9.15958C4.88928 8.61214 5.10021 7.88472 5.62877 7.43005C6.15959 6.97781 6.89578 7.08814 7.35226 7.7813Z" fill="#FFF200"/>
<path d="M7.25711 7.75997C7.69136 8.41998 7.60889 9.27353 6.99707 9.56652C6.38733 9.86175 5.56462 9.59789 5.23473 9.0772C4.90297 8.55397 5.10464 7.85876 5.60993 7.42408C6.11723 6.99193 6.82079 7.09738 7.25711 7.75997Z" fill="url(#paint18_radial_1191_663)"/>
<path d="M6.87075 7.35107C6.98235 7.43917 7.08745 7.55183 7.17801 7.6895C7.60777 8.33976 7.53363 9.19998 6.92334 9.49864C6.47297 9.72963 5.89483 9.63686 5.51367 9.38111C5.89656 9.67171 6.51128 9.78909 6.9861 9.5492C7.5987 9.25298 7.67191 8.39212 7.23884 7.73758C7.13167 7.575 7.00518 7.44499 6.87075 7.35107Z" fill="url(#paint19_radial_1191_663)"/>
<path d="M7.25032 7.97354C7.59613 8.39515 7.52406 9.03109 7.08986 9.39354C6.65536 9.75618 6.02289 9.7082 5.67713 9.28659C5.33097 8.86484 5.40275 8.22929 5.83725 7.8667C6.27189 7.50406 6.90421 7.55193 7.25032 7.97354Z" fill="url(#paint20_radial_1191_663)"/>
<path d="M6.9716 8.20584C7.19491 8.47839 7.14847 8.88916 6.86783 9.12363C6.58723 9.35775 6.17822 9.32668 5.95481 9.05398C5.7316 8.78177 5.77769 8.3708 6.05833 8.13668C6.33908 7.90251 6.74784 7.93358 6.9716 8.20584Z" fill="#3C2415"/>
<path d="M6.09517 7.98934C6.22979 8.15311 6.20175 8.4003 6.03281 8.54135C5.86392 8.6826 5.61818 8.66356 5.4834 8.49999C5.34917 8.33582 5.37692 8.08857 5.54591 7.94772C5.71485 7.80687 5.96079 7.82512 6.09517 7.98934Z" fill="#F2F2F2"/>
<path d="M7.07288 8.38804C7.12819 8.45491 7.11665 8.55564 7.04774 8.61302C6.97887 8.67079 6.87855 8.66298 6.82354 8.59636C6.76902 8.52944 6.78035 8.42861 6.84912 8.37114C6.91814 8.31382 7.01821 8.32137 7.07288 8.38804Z" fill="#F2F2F2"/>
<path d="M9.45535 7.67833C9.00089 8.36881 9.08735 9.26195 9.72746 9.56836C10.3655 9.8774 11.2263 9.60142 11.5712 9.05651C11.9184 8.50897 11.7073 7.78184 11.1788 7.32712C10.648 6.87479 9.91183 6.98501 9.45535 7.67833Z" fill="url(#paint21_radial_1191_663)"/>
<path d="M9.37424 7.7813C8.91993 8.47179 9.0062 9.36492 9.64641 9.67128C10.2842 9.98023 11.145 9.70429 11.49 9.15958C11.8372 8.61214 11.6263 7.88472 11.0977 7.43005C10.5669 6.97781 9.83068 7.08814 9.37424 7.7813Z" fill="#FFF200"/>
<path d="M9.46907 7.75997C9.03482 8.41998 9.11729 9.27353 9.7291 9.56652C10.3388 9.86175 11.1615 9.59789 11.4914 9.0772C11.8232 8.55397 11.6215 7.85876 11.1162 7.42408C10.6089 6.99193 9.90539 7.09738 9.46907 7.75997Z" fill="url(#paint22_radial_1191_663)"/>
<path d="M9.85528 7.35107C9.74367 7.43917 9.63862 7.55183 9.54806 7.6895C9.11825 8.33976 9.19244 9.19998 9.80273 9.49864C10.2531 9.72963 10.8312 9.63686 11.2124 9.38111C10.8295 9.67171 10.2148 9.78909 9.73988 9.5492C9.12732 9.25298 9.05417 8.39212 9.48723 7.73758C9.5944 7.575 9.7208 7.44499 9.85528 7.35107Z" fill="url(#paint23_radial_1191_663)"/>
<path d="M9.47563 7.97354C9.12972 8.39515 9.20189 9.03109 9.63604 9.39354C10.0706 9.75618 10.7031 9.7082 11.0488 9.28659C11.395 8.86484 11.3232 8.22929 10.8887 7.8667C10.4541 7.50406 9.82174 7.55193 9.47563 7.97354Z" fill="url(#paint24_radial_1191_663)"/>
<path d="M9.75458 8.20584C9.53127 8.47839 9.57765 8.88916 9.85835 9.12363C10.1389 9.35775 10.5479 9.32668 10.7714 9.05398C10.9945 8.78177 10.9485 8.3708 10.6678 8.13668C10.3871 7.90251 9.97833 7.93358 9.75458 8.20584Z" fill="#3C2415"/>
<path d="M10.6311 7.98934C10.4964 8.15311 10.5245 8.4003 10.6934 8.54135C10.8623 8.6826 11.1081 8.66356 11.2428 8.49999C11.377 8.33582 11.3493 8.08857 11.1803 7.94772C11.0113 7.80687 10.7655 7.82512 10.6311 7.98934Z" fill="#F2F2F2"/>
<path d="M9.65321 8.38804C9.5979 8.45491 9.60938 8.55564 9.67835 8.61302C9.74716 8.67079 9.84753 8.66298 9.9025 8.59636C9.95702 8.52944 9.94573 8.42861 9.87696 8.37114C9.80795 8.31382 9.70787 8.32137 9.65321 8.38804Z" fill="#F2F2F2"/>
<mask id="mask2_1191_663" style="mask-type:luminance" maskUnits="userSpaceOnUse" x="4" y="9" width="5" height="4">
<g opacity="0.87">
<path d="M8.42909 10.8793C8.42909 11.6817 7.5289 12.3325 6.41865 12.3325C5.30835 12.3325 4.4082 11.6817 4.4082 10.8793C4.4082 10.0769 5.30835 9.42603 6.41865 9.42603C7.5289 9.42603 8.42909 10.077 8.42909 10.8793Z" fill="url(#paint25_radial_1191_663)"/>
</g>
</mask>
<g mask="url(#mask2_1191_663)">
<path opacity="0.87" d="M8.42909 10.8793C8.42909 11.6817 7.5289 12.3325 6.41865 12.3325C5.30835 12.3325 4.4082 11.6817 4.4082 10.8793C4.4082 10.0769 5.30835 9.42603 6.41865 9.42603C7.5289 9.42603 8.42909 10.077 8.42909 10.8793Z" fill="#ED1C24"/>
</g>
<mask id="mask3_1191_663" style="mask-type:luminance" maskUnits="userSpaceOnUse" x="8" y="9" width="5" height="4">
<g opacity="0.87">
<path d="M12.0404 10.8261C12.0404 11.6286 11.1402 12.2794 10.03 12.2794C8.91968 12.2794 8.01953 11.6286 8.01953 10.8261C8.01953 10.0238 8.91968 9.37292 10.03 9.37292C11.1402 9.37292 12.0404 10.0238 12.0404 10.8261Z" fill="url(#paint26_radial_1191_663)"/>
</g>
</mask>
<g mask="url(#mask3_1191_663)">
<path opacity="0.87" d="M12.0404 10.8261C12.0404 11.6286 11.1402 12.2794 10.03 12.2794C8.91968 12.2794 8.01953 11.6286 8.01953 10.8261C8.01953 10.0238 8.91968 9.37292 10.03 9.37292C11.1402 9.37292 12.0404 10.0238 12.0404 10.8261Z" fill="#ED1C24"/>
</g>
<path d="M10.1449 10.4623C10.1995 11.1451 9.45556 12.0521 8.42606 12.1359C7.39681 12.2197 6.47211 11.4486 6.41744 10.7657C6.36287 10.0828 7.24567 10.6193 8.27502 10.5355C9.30422 10.4519 10.0903 9.77948 10.1449 10.4623Z" fill="#FFF200"/>
<path d="M10.1372 10.2796C10.1904 10.9444 9.44832 11.8286 8.42365 11.912C7.39917 11.9954 6.4802 11.2464 6.4271 10.5816C6.37391 9.91704 7.25148 10.4379 8.27605 10.3545C9.30053 10.2711 10.0839 9.6151 10.1372 10.2796Z" fill="url(#paint27_radial_1191_663)"/>
<path d="M10.0825 10.431C10.1337 11.0698 9.41462 11.9198 8.42269 12.0006C7.4308 12.0812 6.54155 11.3622 6.49048 10.7234C6.43936 10.0847 7.28868 10.5847 8.28057 10.504C9.27255 10.4233 10.0314 9.79253 10.0825 10.431Z" fill="#460500"/>
<path d="M9.05522 11.1274C8.63339 11.1274 8.36985 11.4641 8.36985 11.4641C8.36985 11.4641 8.24681 11.3577 7.75478 11.3045C7.39822 11.2661 7.27272 11.5526 7.23047 11.7138C7.56544 11.9151 7.98401 12.0363 8.42294 12.0007C8.86281 11.9648 9.24841 11.7775 9.53753 11.5247C9.46423 11.3536 9.31762 11.1274 9.05522 11.1274Z" fill="url(#paint28_radial_1191_663)"/>
<path d="M4.71146 12.1925C4.71146 12.1925 4.52689 11.6608 4.07879 11.6608C3.63064 11.6608 3.85474 13.1628 3.98656 13.8673" fill="url(#paint29_radial_1191_663)"/>
<path d="M6.57838 17.1948C6.57838 17.1948 5.31319 17.3011 4.2236 14.8198C3.80182 13.7564 4.1181 12.9057 4.53993 12.0549C4.96166 11.2042 5.62933 9.96366 6.08625 11.0624C6.57833 10.4244 7.22859 11.0093 6.95184 11.5144C7.47902 11.2308 7.82172 11.9398 7.54493 12.3652C8.05899 12.3253 8.19504 12.8703 7.9842 13.3311C7.77332 13.7918 7.38673 14.3945 7.63272 15.1389C7.87881 15.8832 8.47628 17.4429 6.57838 17.1948Z" fill="url(#paint30_radial_1191_663)"/>
<path d="M7.54481 12.3652C7.56418 12.3353 7.57981 12.3039 7.59332 12.2717C7.27743 12.7324 6.73123 13.5609 6.64969 13.9083C6.57023 14.2428 6.54356 14.4708 6.54331 14.4724C6.53981 14.5016 6.56051 14.528 6.58975 14.5315C6.59177 14.5317 6.59394 14.5319 6.59601 14.5319C6.62218 14.5319 6.64496 14.512 6.64811 14.4849C6.64811 14.4842 6.67409 14.2623 6.75233 13.9328C6.79926 13.7187 7.08892 13.2283 7.36468 12.8047C7.46806 12.6453 7.56946 12.494 7.65597 12.3672C7.62092 12.3636 7.58435 12.362 7.54481 12.3652ZM7.06304 11.4693C7.02691 11.4798 6.99003 11.4939 6.95168 11.5144C6.97791 11.4665 6.99575 11.418 7.00625 11.3698C6.69218 11.7827 5.90029 12.8462 5.80623 13.2437C5.72662 13.5782 5.69985 13.8062 5.69985 13.8077C5.6965 13.837 5.71686 13.8634 5.74609 13.8669C5.74806 13.8671 5.75009 13.8672 5.75206 13.8672C5.77848 13.8672 5.8015 13.8473 5.80476 13.8204C5.80476 13.8195 5.83039 13.5977 5.90877 13.2681C5.95447 13.0573 6.28382 12.545 6.59916 12.1019C6.77461 11.8541 6.94557 11.6246 7.06304 11.4693ZM6.03383 10.9497C5.83216 11.212 5.25599 11.987 4.8878 12.7404C4.77742 13.0189 4.71206 13.4178 4.71166 13.4196C4.70688 13.4487 4.72625 13.4762 4.75494 13.4812C4.7579 13.4817 4.76076 13.4818 4.76362 13.4818C4.78896 13.4818 4.81154 13.4635 4.81583 13.4374C4.81583 13.4364 4.88188 13.0406 4.98412 12.7837C5.32732 12.0806 5.8613 11.3515 6.08431 11.0582C6.0677 11.0188 6.05084 10.9831 6.03383 10.9497Z" fill="#EC8F23"/>
<path d="M9.0735 16.2201C9.0735 16.2201 8.58581 15.6884 8.75722 14.3458C8.88899 13.0564 8.71763 12.0993 8.90215 11.9665C9.08671 11.8335 9.86431 11.7803 9.70612 13.216C9.67979 13.5217 9.81161 13.628 9.81161 13.628C9.81161 13.628 10.1016 13.2426 10.2861 12.9634C10.3256 12.3519 10.2202 10.81 10.4179 10.5574C10.6156 10.3048 11.1164 10.3314 11.1691 10.7568C11.1691 10.7568 11.2746 10.3714 11.604 10.4378C11.9336 10.5043 12.0258 10.7702 12.039 10.9961C12.039 10.9961 12.2104 10.7702 12.5135 11.036C12.8166 11.3018 12.7639 11.8469 12.7639 11.8469C12.7639 11.8469 12.988 11.7139 13.1856 12.0994C13.3834 12.4849 13.1593 14.1598 13.0012 14.5718C12.843 14.9839 11.749 17.0841 10.4179 17.0044C9.40305 16.938 9.0735 16.2201 9.0735 16.2201Z" fill="url(#paint31_radial_1191_663)"/>
<path d="M9.81133 13.628C9.81133 13.628 9.80472 13.622 9.7959 13.6119C9.81956 13.6648 9.84998 13.7389 9.88074 13.8314C9.94581 14.0261 10.0107 14.2971 10.0107 14.6013C10.0107 14.8609 9.96365 15.1437 9.82972 15.426C9.8169 15.4525 9.82794 15.4844 9.85431 15.497C9.86161 15.5004 9.86935 15.5021 9.87709 15.5021C9.89671 15.5021 9.91569 15.491 9.92486 15.472C10.0665 15.1733 10.1164 14.8734 10.1164 14.6013C10.1158 14.1013 9.95093 13.694 9.87832 13.5381C9.83726 13.5934 9.81133 13.628 9.81133 13.628ZM12.0388 10.996C12.037 10.9636 12.0328 10.9304 12.0271 10.8971C11.9211 11.0289 11.8167 11.2632 11.7884 11.6832C11.7553 12.1295 11.7355 12.5915 11.7043 12.9502C11.6888 13.1293 11.6705 13.2829 11.6466 13.3937C11.6312 13.4774 11.605 13.5338 11.5902 13.5562C11.3874 13.3845 11.1793 13.2555 10.9858 13.1594C11.0524 13.0002 11.1819 12.5452 11.1823 11.3904C11.1823 11.3482 11.182 11.3053 11.1818 11.2612C11.1816 11.2418 11.1816 11.2231 11.1816 11.2041C11.1816 10.9478 11.1965 10.7689 11.2163 10.6446C11.1829 10.7059 11.1688 10.7567 11.1688 10.7567C11.161 10.694 11.1426 10.6411 11.1178 10.5952C11.0937 10.729 11.0761 10.9209 11.076 11.2041C11.0763 11.2228 11.076 11.2423 11.0766 11.2628C11.0768 11.3058 11.0768 11.3485 11.0771 11.3904C11.0771 12.1426 11.0209 12.5923 10.9657 12.8516C10.9381 12.9813 10.9112 13.0631 10.8913 13.1117C10.891 13.1126 10.8907 13.113 10.8903 13.1139C10.6395 12.9996 10.4225 12.9398 10.2886 12.9102C10.2878 12.9285 10.2868 12.9464 10.2857 12.9633C10.2754 12.9788 10.2647 12.9949 10.2538 13.0111C10.3458 13.0307 10.4845 13.0661 10.6527 13.1292C10.7164 13.1531 10.7843 13.1819 10.8543 13.2141C10.857 13.226 10.8631 13.2373 10.8735 13.2451C10.883 13.2522 10.8942 13.2556 10.9053 13.2556C10.9136 13.2556 10.9217 13.2535 10.9291 13.2497C11.1756 13.3711 11.4478 13.5458 11.6982 13.7984C11.7084 13.8087 11.7219 13.814 11.7355 13.814C11.749 13.814 11.7625 13.8088 11.7728 13.7986C11.7932 13.7777 11.7932 13.744 11.773 13.7232C11.7389 13.6889 11.704 13.6572 11.6692 13.6254C11.7097 13.5777 11.7277 13.5076 11.7498 13.416C11.825 13.0613 11.8438 12.3583 11.8935 11.691C11.9259 11.2528 12.0355 11.0395 12.1288 10.9371C12.1337 10.9318 12.1382 10.9278 12.1428 10.9231C12.075 10.9491 12.0388 10.996 12.0388 10.996ZM12.7637 11.8468C12.7637 11.8468 12.7667 11.8147 12.767 11.7635C12.7581 11.7676 12.7492 11.7712 12.7403 11.7761C12.5957 11.8545 12.4618 12.0307 12.4211 12.3853C12.3682 12.9857 12.3549 13.2531 12.3419 13.5457C12.3295 13.8256 12.2135 14.0841 12.2146 14.0846C12.2025 14.1112 12.2146 14.1428 12.2409 14.155C12.248 14.1582 12.2553 14.1596 12.2625 14.1596C12.2827 14.1596 12.3018 14.148 12.3108 14.1285C12.312 14.1249 12.433 13.8557 12.4471 13.5506C12.4605 13.2584 12.4735 12.9941 12.5262 12.3964C12.5728 12.0169 12.713 11.8971 12.8368 11.8483C12.8598 11.8394 12.8823 11.8338 12.9044 11.8296C12.8215 11.8128 12.7637 11.8468 12.7637 11.8468Z" fill="#EC8F23"/>
<defs>
<radialGradient id="paint0_radial_1191_663" cx="0" cy="0" r="1" gradientUnits="userSpaceOnUse" gradientTransform="translate(8.1319 7.00922) scale(9.64772 9.73026)">
<stop offset="0.0714" stop-color="#F9EC00"/>
<stop offset="0.3407" stop-color="#F2BE1D"/>
<stop offset="0.6868" stop-color="#ED9D23"/>
<stop offset="1" stop-color="#E87326"/>
</radialGradient>
<radialGradient id="paint1_radial_1191_663" cx="0" cy="0" r="1" gradientUnits="userSpaceOnUse" gradientTransform="translate(6.18611 5.53988) rotate(3.25506) scale(0.979833 0.988162)">
<stop offset="0.0714" stop-color="#F2BE1D"/>
<stop offset="0.6868" stop-color="#ED9D23"/>
<stop offset="1" stop-color="#E87326"/>
</radialGradient>
<radialGradient id="paint2_radial_1191_663" cx="0" cy="0" r="1" gradientUnits="userSpaceOnUse" gradientTransform="translate(9.68285 5.59369) rotate(165.928) scale(0.980165 0.987564)">
<stop offset="0.0714" stop-color="#F2BE1D"/>
<stop offset="0.6868" stop-color="#ED9D23"/>
<stop offset="1" stop-color="#E87326"/>
</radialGradient>
<radialGradient id="paint3_radial_1191_663" cx="0" cy="0" r="1" gradientUnits="userSpaceOnUse" gradientTransform="translate(6.9785 14.1175) rotate(25.165) scale(2.41751 2.628)">
<stop stop-color="white"/>
<stop offset="1"/>
</radialGradient>
<radialGradient id="paint4_radial_1191_663" cx="0" cy="0" r="1" gradientUnits="userSpaceOnUse" gradientTransform="translate(5.63858 13.6808) rotate(-36.1293) scale(2.28407 2.25344)">
<stop stop-color="white"/>
<stop offset="1"/>
</radialGradient>
<radialGradient id="paint5_radial_1191_663" cx="0" cy="0" r="1" gradientUnits="userSpaceOnUse" gradientTransform="translate(6.85533 6.66857) scale(4.2432 4.2795)">
<stop offset="0.0714" stop-color="#F9EC00"/>
<stop offset="0.3407" stop-color="#F2BE1D"/>
<stop offset="0.6868" stop-color="#ED9D23"/>
<stop offset="1" stop-color="#E87326"/>
</radialGradient>
<radialGradient id="paint6_radial_1191_663" cx="0" cy="0" r="1" gradientUnits="userSpaceOnUse" gradientTransform="translate(8.8712 3.19816) scale(4.85591 4.89745)">
<stop stop-color="white"/>
<stop offset="1" stop-color="#CEDAD9"/>
</radialGradient>
<radialGradient id="paint7_radial_1191_663" cx="0" cy="0" r="1" gradientUnits="userSpaceOnUse" gradientTransform="translate(9.40222 1.69363) scale(1.80763 1.82309)">
<stop stop-color="#F1A7B8"/>
<stop offset="1" stop-color="#EE87A6"/>
</radialGradient>
<radialGradient id="paint8_radial_1191_663" cx="0" cy="0" r="1" gradientUnits="userSpaceOnUse" gradientTransform="translate(12.0473 7.08915) scale(2.49908 2.52046)">
<stop offset="0.0714" stop-color="#F9EC00"/>
<stop offset="0.3407" stop-color="#F2BE1D"/>
<stop offset="0.6868" stop-color="#ED9D23"/>
<stop offset="1" stop-color="#E87326"/>
</radialGradient>
<radialGradient id="paint9_radial_1191_663" cx="0" cy="0" r="1" gradientUnits="userSpaceOnUse" gradientTransform="translate(12.3763 6.64127) scale(2.90356 2.9284)">
<stop stop-color="white"/>
<stop offset="1" stop-color="#CEDAD9"/>
</radialGradient>
<radialGradient id="paint10_radial_1191_663" cx="0" cy="0" r="1" gradientUnits="userSpaceOnUse" gradientTransform="translate(10.9827 4.9712) scale(0.802812 0.809681)">
<stop stop-color="#F1A7B8"/>
<stop offset="1" stop-color="#EE87A6"/>
</radialGradient>
<radialGradient id="paint11_radial_1191_663" cx="0" cy="0" r="1" gradientUnits="userSpaceOnUse" gradientTransform="translate(8.30266 3.08223) scale(4.19751 4.23342)">
<stop stop-color="white"/>
<stop offset="1" stop-color="#CEDAD9"/>
</radialGradient>
<radialGradient id="paint12_radial_1191_663" cx="0" cy="0" r="1" gradientUnits="userSpaceOnUse" gradientTransform="translate(8.75164 3.7949) scale(4.33206 4.36913)">
<stop stop-color="white"/>
<stop offset="1" stop-color="#CEDAD9"/>
</radialGradient>
<radialGradient id="paint13_radial_1191_663" cx="0" cy="0" r="1" gradientUnits="userSpaceOnUse" gradientTransform="translate(7.26539 5.62006) scale(5.62429 5.67241)">
<stop stop-color="white"/>
<stop offset="1" stop-color="#CEDAD9"/>
</radialGradient>
<radialGradient id="paint14_radial_1191_663" cx="0" cy="0" r="1" gradientUnits="userSpaceOnUse" gradientTransform="translate(7.50725 4.18032) scale(2.72266 2.74595)">
<stop stop-color="#F1A7B8"/>
<stop offset="1" stop-color="#EE87A6"/>
</radialGradient>
<radialGradient id="paint15_radial_1191_663" cx="0" cy="0" r="1" gradientUnits="userSpaceOnUse" gradientTransform="translate(1.5358 5.93061) scale(2.61147 2.63381)">
<stop stop-color="#F1A7B8"/>
<stop offset="1" stop-color="#EE87A6"/>
</radialGradient>
<radialGradient id="paint16_radial_1191_663" cx="0" cy="0" r="1" gradientUnits="userSpaceOnUse" gradientTransform="translate(14.7735 7.73282) scale(1.34443 1.35594)">
<stop stop-color="#F1A7B8"/>
<stop offset="1" stop-color="#EE87A6"/>
</radialGradient>
<radialGradient id="paint17_radial_1191_663" cx="0" cy="0" r="1" gradientUnits="userSpaceOnUse" gradientTransform="translate(5.32887 7.44428) rotate(-33.4027) scale(1.36544 1.43845)">
<stop offset="0.0714" stop-color="#F2BE1D"/>
<stop offset="0.6868" stop-color="#ED9D23"/>
<stop offset="1" stop-color="#E87326"/>
</radialGradient>
<radialGradient id="paint18_radial_1191_663" cx="0" cy="0" r="1" gradientUnits="userSpaceOnUse" gradientTransform="translate(6.29788 8.49871) rotate(-33.4027) scale(1.21327 1.27814)">
<stop offset="0.2802" stop-color="white"/>
<stop offset="0.648" stop-color="#FBFEFF"/>
<stop offset="0.7804" stop-color="#F3FAFE"/>
<stop offset="0.8749" stop-color="#E7F6FD"/>
<stop offset="0.9507" stop-color="#D6EFFB"/>
<stop offset="1" stop-color="#C5E9FA"/>
</radialGradient>
<radialGradient id="paint19_radial_1191_663" cx="0" cy="0" r="1" gradientUnits="userSpaceOnUse" gradientTransform="translate(6.49424 8.74122) rotate(-33.4039) scale(1.04408 1.10643)">
<stop offset="0.2802" stop-color="white"/>
<stop offset="0.6375" stop-color="#F8FAFC"/>
<stop offset="0.7662" stop-color="#EBF1F4"/>
<stop offset="0.8579" stop-color="#D7E4EB"/>
<stop offset="0.9315" stop-color="#BFD3DC"/>
<stop offset="0.9944" stop-color="#A0BDCB"/>
<stop offset="1" stop-color="#9DBBC9"/>
</radialGradient>
<radialGradient id="paint20_radial_1191_663" cx="0" cy="0" r="1" gradientUnits="userSpaceOnUse" gradientTransform="translate(6.46367 8.63006) rotate(-33.404) scale(1.0046 1.00801)">
<stop offset="0.2802" stop-color="#9BB9C7"/>
<stop offset="0.6174" stop-color="#9AB7C5"/>
<stop offset="0.7389" stop-color="#96B3C0"/>
<stop offset="0.8255" stop-color="#8EAAB7"/>
<stop offset="0.8954" stop-color="#839DAA"/>
<stop offset="0.9547" stop-color="#768D99"/>
<stop offset="1" stop-color="#687E88"/>
</radialGradient>
<radialGradient id="paint21_radial_1191_663" cx="0" cy="0" r="1" gradientUnits="userSpaceOnUse" gradientTransform="translate(11.3977 7.44427) rotate(-146.597) scale(1.36544 1.43845)">
<stop offset="0.0714" stop-color="#F2BE1D"/>
<stop offset="0.6868" stop-color="#ED9D23"/>
<stop offset="1" stop-color="#E87326"/>
</radialGradient>
<radialGradient id="paint22_radial_1191_663" cx="0" cy="0" r="1" gradientUnits="userSpaceOnUse" gradientTransform="translate(10.4283 8.4987) rotate(-146.597) scale(1.21328 1.27815)">
<stop offset="0.2802" stop-color="white"/>
<stop offset="0.648" stop-color="#FBFEFF"/>
<stop offset="0.7804" stop-color="#F3FAFE"/>
<stop offset="0.8749" stop-color="#E7F6FD"/>
<stop offset="0.9507" stop-color="#D6EFFB"/>
<stop offset="1" stop-color="#C5E9FA"/>
</radialGradient>
<radialGradient id="paint23_radial_1191_663" cx="0" cy="0" r="1" gradientUnits="userSpaceOnUse" gradientTransform="translate(10.2317 8.74128) rotate(-146.596) scale(1.04408 1.10643)">
<stop offset="0.2802" stop-color="white"/>
<stop offset="0.6375" stop-color="#F8FAFC"/>
<stop offset="0.7662" stop-color="#EBF1F4"/>
<stop offset="0.8579" stop-color="#D7E4EB"/>
<stop offset="0.9315" stop-color="#BFD3DC"/>
<stop offset="0.9944" stop-color="#A0BDCB"/>
<stop offset="1" stop-color="#9DBBC9"/>
</radialGradient>
<radialGradient id="paint24_radial_1191_663" cx="0" cy="0" r="1" gradientUnits="userSpaceOnUse" gradientTransform="translate(10.2623 8.63006) rotate(-146.596) scale(1.00459 1.008)">
<stop offset="0.2802" stop-color="#9BB9C7"/>
<stop offset="0.6174" stop-color="#9AB7C5"/>
<stop offset="0.7389" stop-color="#96B3C0"/>
<stop offset="0.8255" stop-color="#8EAAB7"/>
<stop offset="0.8954" stop-color="#839DAA"/>
<stop offset="0.9547" stop-color="#768D99"/>
<stop offset="1" stop-color="#687E88"/>
</radialGradient>
<radialGradient id="paint25_radial_1191_663" cx="0" cy="0" r="1" gradientUnits="userSpaceOnUse" gradientTransform="translate(6.41864 10.8792) scale(1.6311 1.179)">
<stop stop-color="white"/>
<stop offset="1"/>
</radialGradient>
<radialGradient id="paint26_radial_1191_663" cx="0" cy="0" r="1" gradientUnits="userSpaceOnUse" gradientTransform="translate(10.03 10.8262) scale(1.63107 1.17898)">
<stop stop-color="white"/>
<stop offset="1"/>
</radialGradient>
<radialGradient id="paint27_radial_1191_663" cx="0" cy="0" r="1" gradientUnits="userSpaceOnUse" gradientTransform="translate(8.38454 7.68316) rotate(0.0335672) scale(3.59606 3.65421)">
<stop offset="0.0714" stop-color="#F2BE1D"/>
<stop offset="0.6868" stop-color="#ED9D23"/>
<stop offset="1" stop-color="#E87326"/>
</radialGradient>
<radialGradient id="paint28_radial_1191_663" cx="0" cy="0" r="1" gradientUnits="userSpaceOnUse" gradientTransform="translate(8.31714 11.145) scale(1.21251 1.22289)">
<stop offset="0.0055" stop-color="#EF3C2E"/>
<stop offset="0.2321" stop-color="#EB3A2D"/>
<stop offset="0.4075" stop-color="#E2362B"/>
<stop offset="0.5656" stop-color="#D63026"/>
<stop offset="0.7136" stop-color="#C32620"/>
<stop offset="0.8546" stop-color="#AC1A17"/>
<stop offset="0.9885" stop-color="#910708"/>
<stop offset="1" stop-color="#8F0507"/>
</radialGradient>
<radialGradient id="paint29_radial_1191_663" cx="0" cy="0" r="1" gradientUnits="userSpaceOnUse" gradientTransform="translate(3.56476 10.81) scale(2.94673 2.97194)">
<stop offset="0.0714" stop-color="#F9EC00"/>
<stop offset="0.3407" stop-color="#F2BE1D"/>
<stop offset="0.6868" stop-color="#ED9D23"/>
<stop offset="1" stop-color="#E87326"/>
</radialGradient>
<radialGradient id="paint30_radial_1191_663" cx="0" cy="0" r="1" gradientUnits="userSpaceOnUse" gradientTransform="translate(6.06832 12.2511) scale(4.35174 4.38897)">
<stop offset="0.0714" stop-color="#F9EC00"/>
<stop offset="0.3407" stop-color="#F2BE1D"/>
<stop offset="0.6868" stop-color="#ED9D23"/>
<stop offset="1" stop-color="#E87326"/>
</radialGradient>
<radialGradient id="paint31_radial_1191_663" cx="0" cy="0" r="1" gradientUnits="userSpaceOnUse" gradientTransform="translate(8.79233 8.26225) scale(9.51485 9.59626)">
<stop offset="0.0714" stop-color="#F9EC00"/>
<stop offset="0.3407" stop-color="#F2BE1D"/>
<stop offset="0.6868" stop-color="#ED9D23"/>
<stop offset="1" stop-color="#E87326"/>
</radialGradient>
</defs>
</svg>
