<svg width="26" height="26" viewBox="0 0 26 26" fill="none" xmlns="http://www.w3.org/2000/svg">
<path opacity="0.5" fill-rule="evenodd" clip-rule="evenodd" d="M7.01367 2.11377C7.01367 1.6823 6.66389 1.33252 6.23242 1.33252C5.80095 1.33252 5.45117 1.6823 5.45117 2.11377V22.9471C5.45117 23.3786 5.80095 23.7284 6.23242 23.7284C6.66389 23.7284 7.01367 23.3786 7.01367 22.9471V14.4575V4.04085V2.11377Z" fill="#1C274C"/>
<path d="M14.366 4.32648L13.9355 4.15428C12.3075 3.50311 10.5253 3.33948 8.80604 3.68334L7.01367 4.04181V14.4585L8.80604 14.1C10.5253 13.7561 12.3075 13.9198 13.9355 14.5709C15.6996 15.2766 17.6412 15.4084 19.4845 14.9475L19.5888 14.9215C20.1993 14.7688 20.4888 14.0698 20.165 13.5302L18.5394 10.8208C18.1836 10.2279 18.0058 9.93145 17.9636 9.60901C17.946 9.4745 17.946 9.33828 17.9636 9.20378C18.0058 8.88134 18.1836 8.58491 18.5394 7.99203L19.8712 5.77235C20.2198 5.1914 19.6919 4.47902 19.0347 4.64334C17.4838 5.03105 15.8502 4.92018 14.366 4.32648Z" fill="#ED1C24"/>
</svg>
