<svg width="45" height="51" viewBox="0 0 45 51" fill="none" xmlns="http://www.w3.org/2000/svg">
<path fill-rule="evenodd" clip-rule="evenodd" d="M3.35935 20.1289C1.64062 20.1289 0.234375 18.6835 0.234375 16.9062V10.168C0.234375 9.78715 0.537148 9.48438 0.91801 9.48438H5.89838C6.27924 9.48438 6.58202 9.78715 6.58202 10.168V16.9063C6.58202 18.6543 5.10736 20.1289 3.35935 20.1289Z" fill="#C7C7C6"/>
<path fill-rule="evenodd" clip-rule="evenodd" d="M5.21486 8.11731V6.16411C5.21486 5.78325 5.51764 5.48047 5.8985 5.48047C6.27936 5.48047 6.58213 5.78325 6.58213 6.16411V8.23346C6.3684 8.15826 6.13841 8.11731 5.8985 8.11731L5.21486 8.11731ZM0.234375 8.23358L0.23449 6.1641C0.23449 5.78324 0.537264 5.48047 0.918125 5.48047C1.29899 5.48047 1.60176 5.78324 1.60176 6.1641V8.11731H0.918125C0.678213 8.11731 0.448105 8.15837 0.234375 8.23358ZM2.67583 8.11731V6.16411C2.67583 5.78325 2.9786 5.48047 3.35947 5.48047C3.74033 5.48047 4.0431 5.78325 4.0431 6.16411V8.11731H2.67583Z" fill="#C7C7C6"/>
<path fill-rule="evenodd" clip-rule="evenodd" d="M42.9102 39.8554H16.6407C15.586 39.8554 14.6876 38.9571 14.6876 37.9024V30.6757H44.7657V37.9022C44.7656 38.996 43.9551 39.8554 42.9102 39.8554ZM17.9103 26.5741C17.5294 26.5741 17.2266 26.2713 17.2266 25.8905V22.4726C17.2266 22.0918 17.5294 21.789 17.9103 21.789C18.2911 21.789 18.5939 22.0918 18.5939 22.4726V25.8905C18.5938 26.2713 18.2911 26.5741 17.9103 26.5741ZM18.1055 18.957C17.7247 18.957 17.4219 18.6542 17.4219 18.2734V3.33206C17.4219 2.9512 17.7247 2.64842 18.1055 2.64842C18.4864 2.64842 18.7892 2.9512 18.7892 3.33206V18.2735C18.7892 18.6542 18.4864 18.957 18.1055 18.957ZM41.4453 26.5741C41.0644 26.5741 40.7617 26.2713 40.7617 25.8905V22.4726C40.7617 22.0918 41.0644 21.789 41.4453 21.789C41.8261 21.789 42.1289 22.0918 42.1289 22.4726V25.8905C42.1288 26.2713 41.8261 26.5741 41.4453 26.5741ZM41.5429 18.957C41.162 18.957 40.8592 18.6542 40.8592 18.2734L40.8593 3.33206C40.8593 2.9512 41.1621 2.64842 41.543 2.64842C41.9238 2.64842 42.2266 2.9512 42.2266 3.33206V18.2735C42.2265 18.6542 41.9237 18.957 41.5429 18.957ZM29.7265 21.5937C24.453 21.5937 20.1563 17.3457 20.1563 12.1211C20.1563 6.89657 24.453 2.64852 29.7265 2.64852C32.2753 2.64852 34.6581 3.6348 36.4355 5.41224C38.2128 7.19924 39.1992 9.57229 39.1992 12.1211C39.1992 14.7153 38.1993 17.0961 36.3576 18.8964L38.7306 21.6426L38.7404 21.6524C39.2384 22.2579 39.4142 23.0294 39.2579 23.8399C39.0723 24.7871 38.4376 25.6269 37.5685 26.1055C37.0702 26.3885 36.4648 26.5448 35.8495 26.5448C35.4296 26.5448 35.0097 26.4764 34.6289 26.3202C33.9062 26.0371 33.3886 25.5097 33.1738 24.8359L31.9806 21.3402C31.1902 21.5448 30.3449 21.5937 29.7265 21.5937ZM35.0426 19.4463C34.9762 19.4086 34.9153 19.3592 34.8632 19.2989C34.812 19.2395 34.7733 19.1732 34.7466 19.1031L31.3183 15.1289L34.4824 24.3963C34.4824 24.4061 34.4824 24.4061 34.4922 24.4158C34.5996 24.7674 34.9023 24.953 35.1367 25.0409C35.6836 25.2557 36.3965 25.1971 36.9043 24.9042C36.9141 24.9042 36.9141 24.8944 36.9238 24.8944C37.4414 24.6209 37.8222 24.1035 37.9297 23.5663C37.9883 23.2831 37.9883 22.8827 37.6953 22.5214L35.0426 19.4463ZM35.4574 17.8546C36.9859 16.3198 37.8222 14.3072 37.8222 12.1113C37.8222 7.63869 34.1894 4.00586 29.7168 4.00586C25.1952 4.00586 21.5137 7.63868 21.5137 12.1113C21.5137 16.5839 25.1952 20.2168 29.7168 20.2168C30.2295 20.2168 30.9061 20.1829 31.5359 20.0375L30.0648 15.7279C29.9528 15.7343 29.8428 15.7343 29.7265 15.7343C27.705 15.7343 26.1131 14.1425 26.1131 12.121C26.1131 10.0995 27.705 8.50769 29.7265 8.50769C31.7187 8.50769 33.3398 10.1288 33.3398 12.121C33.3398 13.008 33.0642 13.811 32.5323 14.4694L35.4574 17.8546ZM29.5991 14.3638L28.877 12.2481C28.7696 11.9357 28.8965 11.5938 29.1797 11.4376C29.4629 11.2716 29.8243 11.3399 30.0392 11.5841L31.6153 13.4082C31.8553 13.0388 31.9725 12.6134 31.9725 12.121C31.9725 10.8807 30.9666 9.87495 29.7265 9.87495C28.4472 9.87495 27.4804 10.8417 27.4804 12.121C27.4804 13.3575 28.3836 14.302 29.5991 14.3638ZM14.6875 29.3084V2.4531C14.6875 1.39841 15.5859 0.5 16.6406 0.5H42.91C43.9549 0.5 44.7655 1.35942 44.7655 2.4531V29.3085L14.6875 29.3084Z" fill="#60C3D8"/>
<path fill-rule="evenodd" clip-rule="evenodd" d="M32.461 42.7852H27.0899C26.709 42.7852 26.4062 42.4824 26.4062 42.1016V41.2227H33.1447V42.1016C33.1446 42.4824 32.8419 42.7852 32.461 42.7852Z" fill="#C7C7C6"/>
<path fill-rule="evenodd" clip-rule="evenodd" d="M22.1094 50.4999H11.0742C6.44529 50.4999 2.67578 46.7304 2.67578 42.1015V19.4454C2.67578 19.0645 2.97855 18.7617 3.35942 18.7617C3.74028 18.7617 4.04305 19.0645 4.04305 19.4454V42.1015C4.04305 45.9785 7.19732 49.1328 11.0743 49.1328H22.1094C25.9277 49.1328 29.0428 45.9785 29.0428 42.1015C29.0428 41.7206 29.3456 41.4179 29.7265 41.4179C30.1073 41.4179 30.4101 41.7206 30.4101 42.1015C30.4101 44.3574 29.5507 46.4667 27.9785 48.0488C26.4159 49.6308 24.3261 50.4999 22.1094 50.4999Z" fill="#C7C7C6"/>
</svg>
