<svg width="16" height="15" viewBox="0 0 16 15" fill="none" xmlns="http://www.w3.org/2000/svg">
<path opacity="0.5" d="M5.91325 12.6441L6.23717 12.2632L6.23717 12.2632L5.91325 12.6441ZM8.04004 2.51732L7.66695 2.85019C7.76182 2.95652 7.89754 3.01732 8.04004 3.01732C8.18254 3.01732 8.31826 2.95652 8.41313 2.85019L8.04004 2.51732ZM6.23717 12.2632C4.1084 10.4528 1.54004 8.65491 1.54004 5.2634H0.540039C0.540039 9.2164 3.59888 11.3322 5.58933 13.025L6.23717 12.2632ZM1.54004 5.2634C1.54004 3.59382 2.41483 2.21233 3.57997 1.63779C4.70132 1.08483 6.2153 1.22316 7.66695 2.85019L8.41313 2.18445C6.71489 0.281025 4.72887 -0.043729 3.1377 0.740903C1.5903 1.50395 0.540039 3.26073 0.540039 5.2634H1.54004ZM5.58933 13.025C5.94794 13.33 6.33147 13.6539 6.72005 13.8989C7.10743 14.143 7.55319 14.3441 8.04004 14.3441V13.3441C7.82689 13.3441 7.57265 13.2542 7.25333 13.0529C6.93522 12.8524 6.60535 12.5763 6.23717 12.2632L5.58933 13.025ZM15.54 5.2634C15.54 3.26073 14.4898 1.50395 12.9424 0.740903C11.3512 -0.043729 9.36519 0.281025 7.66695 2.18445L8.41313 2.85019C9.86478 1.22316 11.3788 1.08483 12.5001 1.63779C13.6652 2.21233 14.54 3.59382 14.54 5.2634H15.54ZM14.8968 8.21725C15.2968 7.35474 15.54 6.38016 15.54 5.2634H14.54C14.54 6.22832 14.3312 7.05981 13.9896 7.79653L14.8968 8.21725ZM9.40679 12.6276C8.82653 13.0972 8.3981 13.3441 8.04004 13.3441V14.3441C8.79388 14.3441 9.47736 13.8569 10.0358 13.405L9.40679 12.6276Z" fill="#1C274C"/>
<path d="M10.0201 13.2441L10.3259 12.8485L10.3259 12.8485L10.0201 13.2441ZM11.1898 8.18072L10.833 8.53094C10.927 8.62674 11.0556 8.68072 11.1898 8.68072C11.3241 8.68072 11.4527 8.62674 11.5467 8.53094L11.1898 8.18072ZM12.3596 13.2441L12.0538 12.8485L12.0538 12.8485L12.3596 13.2441ZM14.443 8.00689L14.81 7.66734L14.81 7.66734L14.443 8.00689ZM9.72112 13.0163L9.41965 13.4152L9.72112 13.0163ZM7.83984 9.55376C7.83984 8.82821 8.25762 8.22496 8.81971 7.97298C9.3528 7.734 10.0957 7.77968 10.833 8.53094L11.5467 7.8305C10.5516 6.81653 9.36945 6.63066 8.41065 7.06048C7.48085 7.47729 6.83984 8.44319 6.83984 9.55376H7.83984ZM9.71429 13.6397C9.90961 13.7907 10.1327 13.9624 10.3619 14.0938C10.5912 14.2252 10.8728 14.3441 11.1898 14.3441V13.3441C11.1218 13.3441 11.0185 13.3175 10.8591 13.2262C10.6997 13.1348 10.5303 13.0066 10.3259 12.8485L9.71429 13.6397ZM12.6654 13.6397C13.2019 13.2249 13.9277 12.7213 14.4951 12.0947C15.0797 11.4491 15.5398 10.6311 15.5398 9.55376H14.5398C14.5398 10.3125 14.2262 10.9018 13.7539 11.4234C13.2644 11.964 12.65 12.3875 12.0538 12.8485L12.6654 13.6397ZM12.0538 12.8485C11.8493 13.0066 11.68 13.1348 11.5206 13.2262C11.3612 13.3175 11.2578 13.3441 11.1898 13.3441V14.3441C11.5068 14.3441 11.7885 14.2252 12.0178 14.0938C12.247 13.9624 12.4701 13.7907 12.6654 13.6397L12.0538 12.8485ZM15.5398 9.55376C15.5398 8.82293 15.2626 8.15657 14.81 7.66734L14.076 8.34644C14.36 8.65345 14.5398 9.07821 14.5398 9.55376H15.5398ZM14.81 7.66734C14.3474 7.16726 13.6962 6.84792 12.9729 6.84415C12.2442 6.84035 11.4944 7.15655 10.833 7.8305L11.5467 8.53094C12.0486 8.01956 12.549 7.84196 12.9677 7.84414C13.392 7.84635 13.7858 8.03276 14.076 8.34644L14.81 7.66734ZM10.3259 12.8485C10.2265 12.7716 10.1244 12.6944 10.0226 12.6174L9.41965 13.4152C9.5216 13.4923 9.61968 13.5665 9.71429 13.6397L10.3259 12.8485ZM10.0226 12.6174C8.89207 11.763 7.83984 10.945 7.83984 9.55376H6.83984C6.83984 11.5202 8.37506 12.6258 9.41965 13.4152L10.0226 12.6174Z" fill="#1BC469"/>
</svg>
