<svg width="21" height="26" viewBox="0 0 21 26" fill="none" xmlns="http://www.w3.org/2000/svg">
<path d="M21 0V26L10.5 17.8674L0 26V0H21Z" fill="#ED1C24"/>
<path d="M2.72185 13V7.204C2.72185 6.924 2.74985 6.74667 2.80585 6.672C2.86185 6.59733 3.01118 6.56 3.25385 6.56H4.56985L8.40585 11.53L8.44785 11.642V6.56H9.53985C9.52119 6.56933 9.50719 6.61133 9.49785 6.686C9.49785 6.76067 9.49785 6.84 9.49785 6.924C9.49785 7.008 9.49785 7.08733 9.49785 7.162V12.426C9.49785 12.6873 9.45585 12.8507 9.37185 12.916C9.28785 12.972 9.12452 13 8.88185 13H7.67785L3.79985 7.974L3.77185 7.834V13H2.72185ZM18.4116 10.116C18.4116 10.5547 18.3883 10.956 18.3416 11.32C18.3043 11.684 18.1783 11.9967 17.9636 12.258C17.7583 12.51 17.4269 12.706 16.9696 12.846C16.5216 12.9767 15.8869 13.042 15.0656 13.042C14.4123 13.042 13.8756 13 13.4556 12.916C13.0449 12.8227 12.7229 12.692 12.4896 12.524C12.2656 12.356 12.1023 12.16 11.9996 11.936C11.8969 11.7027 11.8363 11.4413 11.8176 11.152C11.7989 10.8533 11.7896 10.5407 11.7896 10.214V7.26C11.7896 7.064 11.7943 6.91933 11.8036 6.826C11.8129 6.72333 11.8549 6.65333 11.9296 6.616C12.0136 6.57867 12.1489 6.56 12.3356 6.56H13.2316V10.69C13.2316 11.1007 13.2923 11.418 13.4136 11.642C13.5349 11.8567 13.7309 12.006 14.0016 12.09C14.2816 12.174 14.6409 12.216 15.0796 12.216C15.7609 12.216 16.2463 12.0993 16.5356 11.866C16.8249 11.6327 16.9696 11.2407 16.9696 10.69V6.56H17.8516C18.0383 6.56 18.1689 6.57867 18.2436 6.616C18.3276 6.65333 18.3743 6.72333 18.3836 6.826C18.4023 6.91933 18.4116 7.064 18.4116 7.26V10.116ZM13.5816 5.706L14.8696 4.306H15.3176L16.6196 5.706H16.0036L15.0936 4.88L14.1696 5.706H13.5816Z" fill="white"/>
</svg>
