<svg width="144" height="24" viewBox="0 0 144 24" fill="none" xmlns="http://www.w3.org/2000/svg">
<circle opacity="0.5" cx="12" cy="12" r="10" stroke="#1C274C" stroke-width="1.5"/>
<path d="M8 12C8 10.1144 8 9.17157 8.58579 8.58579C9.17157 8 10.1144 8 12 8C13.8856 8 14.8284 8 15.4142 8.58579C16 9.17157 16 10.1144 16 12C16 13.8856 16 14.8284 15.4142 15.4142C14.8284 16 13.8856 16 12 16C10.1144 16 9.17157 16 8.58579 15.4142C8 14.8284 8 13.8856 8 12Z" stroke="#1C274C" stroke-width="1.5"/>
<circle opacity="0.5" cx="72" cy="12" r="10" stroke="#1C274C" stroke-width="1.5"/>
<path d="M73.8876 9.9348C74.9625 10.8117 75.5 11.2501 75.5 12C75.5 12.7499 74.9625 13.1883 73.8876 14.0652C73.5909 14.3073 73.2966 14.5352 73.0261 14.7251C72.7888 14.8917 72.5201 15.064 72.2419 15.2332C71.1695 15.8853 70.6333 16.2114 70.1524 15.8504C69.6715 15.4894 69.6278 14.7336 69.5404 13.2222C69.5157 12.7947 69.5 12.3757 69.5 12C69.5 11.6243 69.5157 11.2053 69.5404 10.7778C69.6278 9.26636 69.6715 8.51061 70.1524 8.1496C70.6333 7.78859 71.1695 8.11466 72.2419 8.76679C72.5201 8.93597 72.7888 9.10831 73.0261 9.27492C73.2966 9.46483 73.5909 9.69274 73.8876 9.9348Z" stroke="#1C274C" stroke-width="1.5"/>
<path opacity="0.5" fill-rule="evenodd" clip-rule="evenodd" d="M126.873 7.87338C129.016 5.7308 132.167 5.20902 134.801 6.31041L135.931 5.18019C132.651 3.53111 128.551 4.07435 125.813 6.81272C122.396 10.2298 122.396 15.77 125.813 19.1871C129.23 22.6042 134.77 22.6042 138.187 19.1871C140.175 17.1997 141.006 14.4933 140.682 11.9072C140.63 11.4962 140.256 11.2048 139.845 11.2562C139.434 11.3077 139.142 11.6826 139.194 12.0936C139.462 14.24 138.773 16.4802 137.127 18.1264C134.295 20.9577 129.705 20.9577 126.873 18.1264C124.042 15.2951 124.042 10.7047 126.873 7.87338Z" fill="#1C274C"/>
<path d="M138.721 4.20119C138.721 3.89785 138.538 3.62437 138.258 3.50828C137.978 3.3922 137.655 3.45637 137.441 3.67086L135.931 5.18028L134.801 6.3105L133.198 7.9135C132.984 8.128 132.92 8.45059 133.036 8.73085C133.152 9.0111 133.425 9.19383 133.729 9.19383H137.971C138.385 9.19383 138.721 8.85805 138.721 8.44383V4.20119Z" fill="#1C274C"/>
</svg>
