<svg width="50" height="50" viewBox="0 0 50 50" fill="none" xmlns="http://www.w3.org/2000/svg">
<path d="M32.1382 15.1826C31.1212 15.1826 30.2965 14.3579 30.2965 13.3409V8.97629C30.2965 7.5622 29.7457 6.23241 28.7458 5.23243C27.7453 4.23223 26.4158 3.68143 25.0017 3.68143C22.0822 3.68143 19.7068 6.05661 19.7068 8.97629V13.3409C19.7068 14.3579 18.8822 15.1826 17.8651 15.1826C16.8481 15.1826 16.0234 14.3579 16.0234 13.3409V8.97629C16.0234 4.02562 20.0512 -0.00195312 25.0017 -0.00195312C27.3996 -0.00195312 29.6545 0.931931 31.35 2.62772C33.046 4.32373 33.9799 6.57818 33.9799 8.97629V13.3409C33.9799 14.3579 33.1553 15.1826 32.1382 15.1826Z" fill="#DBDBDB"/>
<path d="M37.0125 16.1273V30.2857C37.0125 32.2955 35.3849 33.9233 33.3749 33.9233H16.6279C14.618 33.9233 12.9902 32.2955 12.9902 30.2857V16.1273C12.9902 14.1271 14.618 12.4993 16.6279 12.4993H33.3749C35.3849 12.4993 37.0125 14.1271 37.0125 16.1273Z" fill="#488FF7"/>
<path d="M22.2745 27.232L23.2361 23.0004C22.4604 22.3303 22.0728 21.2367 22.427 20.0982C22.6789 19.2884 23.3374 18.6291 24.1473 18.3775C25.9973 17.8028 27.7072 19.1838 27.7072 20.9513C27.7072 21.7652 27.3446 22.5006 26.766 23.0004L27.7277 27.232C27.8377 27.7164 27.4695 28.1777 26.9728 28.1777H23.0293C22.5326 28.1777 22.1644 27.7164 22.2745 27.232Z" fill="#304056"/>
<path d="M50 41.0562V47.4546C50 48.8611 48.867 50.0017 47.4609 50.0017H2.54669C1.14059 50.0017 0 48.8611 0 47.4546V41.0562C0 39.6501 1.14059 38.5095 2.54669 38.5095H47.4609C48.867 38.5095 50 39.6501 50 41.0562Z" fill="#DBDBDB"/>
<path d="M7.91211 47.1525C7.6962 47.1525 7.52148 46.9776 7.52148 46.7619V41.749C7.52148 41.5333 7.6962 41.3584 7.91211 41.3584C8.12802 41.3584 8.30273 41.5333 8.30273 41.749V46.7619C8.30273 46.9776 8.12802 47.1525 7.91211 47.1525Z" fill="#488FF7"/>
<path d="M5.74177 45.8994C5.60673 45.8994 5.4755 45.8294 5.40302 45.7041C5.29507 45.5172 5.35916 45.2784 5.54608 45.1704L9.88758 42.6638C10.0734 42.5559 10.3129 42.6197 10.4213 42.8069C10.5292 42.9938 10.4651 43.2326 10.2782 43.3405L5.9367 45.8472C5.87528 45.8827 5.80815 45.8994 5.74177 45.8994Z" fill="#488FF7"/>
<path d="M10.0825 45.8994C10.0161 45.8994 9.949 45.8827 9.88758 45.8472L5.54608 43.3405C5.35916 43.2326 5.29507 42.9938 5.40302 42.8069C5.51098 42.6197 5.75016 42.5559 5.9367 42.6638L10.2782 45.1704C10.4651 45.2784 10.5292 45.5172 10.4213 45.7041C10.3488 45.8294 10.2176 45.8994 10.0825 45.8994Z" fill="#488FF7"/>
<path d="M16.4551 47.1525C16.2392 47.1525 16.0645 46.9776 16.0645 46.7619V41.749C16.0645 41.5333 16.2392 41.3584 16.4551 41.3584C16.671 41.3584 16.8457 41.5333 16.8457 41.749V46.7619C16.8457 46.9776 16.671 47.1525 16.4551 47.1525Z" fill="#488FF7"/>
<path d="M14.2847 45.8994C14.1497 45.8994 14.0185 45.8294 13.946 45.7041C13.838 45.5172 13.9021 45.2784 14.089 45.1704L18.4306 42.6638C18.6167 42.5559 18.8559 42.6197 18.9642 42.8069C19.0722 42.9938 19.0081 43.2326 18.8212 43.3405L14.4797 45.8472C14.4183 45.8827 14.3511 45.8994 14.2847 45.8994Z" fill="#488FF7"/>
<path d="M18.6255 45.8994C18.5591 45.8994 18.492 45.8827 18.4306 45.8472L14.089 43.3405C13.9021 43.2326 13.838 42.9938 13.946 42.8069C14.0539 42.6197 14.2931 42.5559 14.4797 42.6638L18.8212 45.1704C19.0081 45.2784 19.0722 45.5172 18.9642 45.7041C18.8917 45.8294 18.7605 45.8994 18.6255 45.8994Z" fill="#488FF7"/>
<path d="M24.998 47.1525C24.7821 47.1525 24.6074 46.9776 24.6074 46.7619V41.749C24.6074 41.5333 24.7821 41.3584 24.998 41.3584C25.214 41.3584 25.3887 41.5333 25.3887 41.749V46.7619C25.3887 46.9776 25.214 47.1525 24.998 47.1525Z" fill="#488FF7"/>
<path d="M22.8277 45.8994C22.6927 45.8994 22.5614 45.8294 22.489 45.7041C22.381 45.5172 22.4451 45.2784 22.632 45.1704L26.9735 42.6638C27.1593 42.5559 27.3989 42.6197 27.5072 42.8069C27.6152 42.9938 27.5511 43.2326 27.3641 43.3405L23.0226 45.8472C22.9612 45.8827 22.8941 45.8994 22.8277 45.8994Z" fill="#488FF7"/>
<path d="M27.1685 45.8994C27.1021 45.8994 27.0349 45.8827 26.9735 45.8472L22.632 43.3405C22.4451 43.2326 22.381 42.9938 22.489 42.8069C22.5969 42.6197 22.8357 42.5559 23.0226 42.6638L27.3641 45.1704C27.5511 45.2784 27.6152 45.5172 27.5072 45.7041C27.4347 45.8294 27.3035 45.8994 27.1685 45.8994Z" fill="#488FF7"/>
<path d="M33.541 47.1525C33.3251 47.1525 33.1504 46.9776 33.1504 46.7619V41.749C33.1504 41.5333 33.3251 41.3584 33.541 41.3584C33.7569 41.3584 33.9316 41.5333 33.9316 41.749V46.7619C33.9316 46.9776 33.7569 47.1525 33.541 47.1525Z" fill="#488FF7"/>
<path d="M31.3707 45.8994C31.2356 45.8994 31.1044 45.8294 31.0319 45.7041C30.924 45.5172 30.9881 45.2784 31.175 45.1704L35.5165 42.6638C35.7026 42.5559 35.9418 42.6197 36.0502 42.8069C36.1581 42.9938 36.094 43.2326 35.9071 43.3405L31.5656 45.8472C31.5042 45.8827 31.4371 45.8994 31.3707 45.8994Z" fill="#488FF7"/>
<path d="M35.7114 45.8994C35.645 45.8994 35.5779 45.8827 35.5165 45.8472L31.175 43.3405C30.9881 43.2326 30.924 42.9938 31.0319 42.8069C31.1399 42.6197 31.3787 42.5559 31.5656 42.6638L35.9071 45.1704C36.094 45.2784 36.1581 45.5172 36.0502 45.7041C35.9777 45.8294 35.8465 45.8994 35.7114 45.8994Z" fill="#488FF7"/>
<path d="M42.084 47.1525C41.8681 47.1525 41.6934 46.9776 41.6934 46.7619V41.749C41.6934 41.5333 41.8681 41.3584 42.084 41.3584C42.2999 41.3584 42.4746 41.5333 42.4746 41.749V46.7619C42.4746 46.9776 42.2999 47.1525 42.084 47.1525Z" fill="#488FF7"/>
<path d="M39.9136 45.8994C39.7786 45.8994 39.6474 45.8294 39.5749 45.7041C39.4669 45.5174 39.531 45.2784 39.718 45.1704L44.0591 42.6638C44.2449 42.5559 44.4844 42.6197 44.5928 42.8069C44.7007 42.9936 44.6366 43.2326 44.4497 43.3405L40.1086 45.8472C40.0472 45.8827 39.98 45.8994 39.9136 45.8994Z" fill="#488FF7"/>
<path d="M44.254 45.8994C44.1876 45.8994 44.1205 45.8827 44.0591 45.8472L39.718 43.3405C39.531 43.2326 39.4669 42.9936 39.5749 42.8069C39.6829 42.6197 39.922 42.5559 40.1086 42.6638L44.4497 45.1704C44.6366 45.2784 44.7007 45.5174 44.5928 45.7041C44.5203 45.8294 44.389 45.8994 44.254 45.8994Z" fill="#488FF7"/>
</svg>
