<?xml version="1.0" encoding="UTF-8"?>
<svg xmlns="http://www.w3.org/2000/svg" id="Layer_1" data-name="Layer 1" viewBox="0 0 24 24">
  <path d="M19.5,6h-.5V2.5c0-1.378-1.121-2.5-2.5-2.5H7.5c-1.378,0-2.5,1.122-2.5,2.5v3.5h-.5C2.019,6,0,8.019,0,10.5v6c0,2.481,2.019,4.5,4.5,4.5h.5v.5c0,1.378,1.122,2.5,2.5,2.5h9c1.379,0,2.5-1.122,2.5-2.5v-.5h.5c2.481,0,4.5-2.019,4.5-4.5v-6c0-2.481-2.019-4.5-4.5-4.5ZM6,2.5c0-.827,.673-1.5,1.5-1.5h9c.827,0,1.5,.673,1.5,1.5v3.5H6V2.5Zm12,19c0,.827-.673,1.5-1.5,1.5H7.5c-.827,0-1.5-.673-1.5-1.5v-5c0-.827,.673-1.5,1.5-1.5h9c.827,0,1.5,.673,1.5,1.5v5Zm5-5c0,1.93-1.57,3.5-3.5,3.5h-.5v-3.5c0-1.378-1.121-2.5-2.5-2.5H7.5c-1.378,0-2.5,1.122-2.5,2.5v3.5h-.5c-1.93,0-3.5-1.57-3.5-3.5v-6c0-1.93,1.57-3.5,3.5-3.5h15c1.93,0,3.5,1.57,3.5,3.5v6Zm-4-6c0,.276-.224,.5-.5,.5h-3c-.276,0-.5-.224-.5-.5s.224-.5,.5-.5h3c.276,0,.5,.224,.5,.5Z"/>
</svg>
