<svg width="51" height="51" viewBox="0 0 51 51" fill="none" xmlns="http://www.w3.org/2000/svg">
<path fill-rule="evenodd" clip-rule="evenodd" d="M16.904 50.5001C16.7184 50.5001 16.5426 50.4317 16.4156 50.295L2.83746 36.6238C2.57371 36.3601 2.57371 35.9207 2.83746 35.657L35.7571 2.84618C36.0209 2.58252 36.4605 2.58252 36.7242 2.84618L50.3024 16.4198C50.5662 16.6834 50.5662 17.1228 50.3024 17.3865L45.6135 22.0738C45.467 22.2203 45.2717 22.2887 45.0665 22.2691C44.8614 22.2496 44.6757 22.1421 44.5683 21.9663L44.412 21.7319C44.0701 21.4097 43.6109 21.2339 43.1519 21.2437C42.7123 21.2535 42.3118 21.439 42.0284 21.7515C42.0186 21.7613 42.0089 21.771 41.9991 21.7808C41.6573 22.1226 41.4716 22.562 41.4716 23.0112C41.4716 23.4605 41.6573 23.8901 41.9991 24.2417L42.2922 24.5346C42.4192 24.6616 42.4973 24.8374 42.4973 25.0228C42.4973 25.2083 42.4192 25.3841 42.2922 25.5109L35.5519 32.1512C35.2882 32.4149 34.8584 32.4149 34.5848 32.1512L34.2918 31.8583C33.6862 31.2529 32.5433 31.2529 31.8399 31.8583C31.2343 32.5614 31.2245 33.6941 31.8399 34.3093L32.133 34.6023C32.3967 34.8659 32.3967 35.3053 32.133 35.569L25.4904 42.2093C25.2561 42.4437 24.8946 42.473 24.6309 42.2972L24.3378 42.1019C24.2987 42.0726 24.2694 42.0531 24.2304 42.014C23.8886 41.6723 23.449 41.4867 22.9996 41.4867C22.5502 41.4867 22.1204 41.6723 21.7688 42.014C21.759 42.0238 21.7493 42.0335 21.7395 42.0433C21.4269 42.3265 21.2413 42.7269 21.2315 43.1664C21.2216 43.6253 21.3975 44.0843 21.7198 44.4261L21.9543 44.5823C22.1203 44.6995 22.2375 44.8753 22.2571 45.0804C22.2768 45.2854 22.2083 45.4905 22.0618 45.6272L17.3729 50.3145C17.2557 50.4316 17.0896 50.5001 16.904 50.5001ZM13.9735 44.4457C13.7976 44.4457 13.6218 44.3773 13.4948 44.2406L7.14529 37.8933C6.88154 37.6296 6.88154 37.1902 7.14529 36.9265L11.0527 33.0204C11.3165 32.7568 11.7561 32.7568 12.0198 33.0204L18.3693 39.3677C18.6331 39.6314 18.6331 40.0708 18.3693 40.3345L14.4619 44.2406C14.3251 44.3773 14.1493 44.4457 13.9735 44.4457ZM8.59095 37.4147L13.9734 42.7953L16.9137 39.856L11.5313 34.4754L8.59095 37.4147ZM20.4206 38.0007C20.2447 38.0007 20.0689 37.9323 19.9419 37.7956L13.5924 31.4483C13.3286 31.1846 13.3286 30.7452 13.5924 30.4815L17.4998 26.5754C17.7636 26.3117 18.2032 26.3117 18.4669 26.5754L24.8164 32.9227C25.0802 33.1864 25.0802 33.6258 24.8164 33.8895L20.909 37.7956C20.7722 37.9323 20.5964 38.0007 20.4206 38.0007ZM15.0382 30.9697L20.4206 36.3503L23.3609 33.4109L17.9785 28.0305L15.0382 30.9697ZM26.9654 31.4581C26.7797 31.4581 26.6137 31.3897 26.4867 31.253L20.1373 24.9058C19.8736 24.6421 19.8736 24.2125 20.1275 23.9488L23.9372 20.0427C24.0642 19.9157 24.2401 19.8376 24.4256 19.8376C24.6112 19.8376 24.7871 19.9157 24.914 20.0427L31.2634 26.4876C31.5271 26.7513 31.5271 27.1809 31.2634 27.4544L27.4536 31.2628C27.317 31.3897 27.151 31.4581 26.9654 31.4581ZM21.5733 24.4174L26.9654 29.8077L29.808 26.966L24.4257 21.4977L21.5733 24.4174ZM33.4126 25.0132C33.2367 25.0132 33.0609 24.9448 32.9339 24.8081L26.5844 18.4608C26.3206 18.1971 26.3206 17.7577 26.5844 17.494L30.4918 13.5879C30.7556 13.3242 31.1952 13.3242 31.4589 13.5879L37.8084 19.9352C38.0722 20.1989 38.0722 20.6383 37.8084 20.902L33.901 24.8081C33.7642 24.9448 33.5884 25.0132 33.4126 25.0132ZM28.0302 17.9822L33.4126 23.3628L36.3529 20.4234L30.9704 15.0429L28.0302 17.9822ZM39.8598 18.5681C39.6741 18.5681 39.4983 18.4901 39.3714 18.3631L33.0219 11.918C32.8949 11.7911 32.8266 11.6153 32.8266 11.4298C32.8266 11.2442 32.9047 11.0783 33.0317 10.9513L36.9392 7.14287C37.2029 6.87921 37.6327 6.88901 37.8964 7.15267L44.2459 13.5C44.5097 13.7637 44.5097 14.2031 44.2459 14.4668L40.3385 18.3729C40.2115 18.4997 40.0453 18.5681 39.8598 18.5681ZM34.4773 11.4493L39.8597 16.9178L42.8 13.9784L37.4078 8.58804L34.4773 11.4493Z" fill="#60C3D8"/>
<path fill-rule="evenodd" clip-rule="evenodd" d="M21.2443 10.0953C21.2329 10.0848 21.2221 10.0739 21.2115 10.0625C20.9477 9.79886 20.9477 9.35943 21.2115 9.09577L23.7095 6.59861L26.3008 9.10557C26.4279 9.23256 26.6037 9.29115 26.7697 9.29115C26.9456 9.29115 27.1311 9.22276 27.2679 9.08608C27.5317 8.81262 27.522 8.38299 27.2484 8.11933L24.6769 5.63151L26.7355 3.57367L29.3192 6.15652C29.4462 6.29319 29.622 6.36159 29.7979 6.36159C29.9737 6.36159 30.1496 6.2932 30.2863 6.15652C30.55 5.89286 30.55 5.45343 30.2863 5.18977L27.7025 2.60691L29.6122 0.697745C29.876 0.434085 30.3156 0.434085 30.5793 0.697745L33.2734 3.39086L23.8914 12.7417L21.2443 10.0953Z" fill="#C7C7C6"/>
<path fill-rule="evenodd" clip-rule="evenodd" d="M3.34731 33.218L0.697812 30.5694C0.434063 30.3057 0.434063 29.8663 0.697812 29.6026L2.65644 27.6448L5.19125 30.1788C5.31828 30.3154 5.49412 30.3838 5.66995 30.3838C5.84578 30.3838 6.02162 30.3155 6.15834 30.1788C6.42209 29.9151 6.42209 29.4757 6.15834 29.212L3.62352 26.678L5.6358 24.6665L8.21953 27.2492C8.34656 27.3859 8.5224 27.4543 8.69823 27.4543C8.87406 27.4543 9.0499 27.386 9.18662 27.2492C9.45037 26.9855 9.45037 26.5461 9.18662 26.2824L6.60288 23.6997L8.65162 21.6517L11.1306 24.2124C11.2673 24.3588 11.4529 24.4272 11.6288 24.4272C11.7948 24.4272 11.9706 24.3687 12.0977 24.2319C12.3711 23.9682 12.3809 23.5386 12.1172 23.2651L9.61904 20.6846L11.6434 18.6609L14.1782 21.1949C14.3053 21.3316 14.4811 21.4 14.6569 21.4C14.8328 21.4 15.0086 21.3316 15.1453 21.1949C15.4091 20.9313 15.4091 20.4918 15.1453 20.2282L12.6105 17.6941L14.6716 15.6337L17.2065 18.1678C17.3336 18.3045 17.5094 18.3729 17.6852 18.3729C17.8611 18.3729 18.0369 18.3045 18.1736 18.1678C18.4374 17.9041 18.4374 17.4647 18.1736 17.201L15.6387 14.667L18.1793 12.1272L18.1833 12.1231H18.1834L18.1958 12.111H18.1959L18.2086 12.0991H18.2087L18.2215 12.0878H18.2216L18.2348 12.0767H18.2349L18.2481 12.0661H18.2483L18.2619 12.0559H18.262L18.2757 12.0461H18.2758L18.2898 12.0366H18.2899L18.304 12.0275H18.3041L18.3185 12.0188H18.3186L18.3331 12.0105H18.3332L18.3479 12.0026H18.3481L18.3628 11.9951H18.3629L18.3779 11.9879H18.3781L18.3932 11.9811H18.3933L18.4086 11.9748H18.4087L18.4241 11.9688H18.4242L18.4398 11.9632H18.4399L18.4555 11.9579H18.4556L18.4714 11.9532H18.4715L18.4873 11.9487H18.4874L18.5034 11.9447H18.5035L18.5195 11.941H18.5196L18.5357 11.9377H18.5358L18.5519 11.9349H18.552L18.5682 11.9323H18.5683L18.5846 11.9301H18.5847L18.601 11.9284H18.6011L18.6175 11.9271H18.6176L18.6338 11.9261H18.634L18.6503 11.9255H18.6505L18.6668 11.9253H18.667L18.6833 11.9255H18.6835L18.6998 11.9261H18.7L18.7162 11.9271H18.7163L18.7327 11.9284H18.7328L18.7491 11.9301H18.7492L18.7655 11.9323H18.7656L18.7818 11.9349H18.7819L18.798 11.9377H18.7981L18.8142 11.941H18.8143L18.8303 11.9447H18.8304L18.8464 11.9487H18.8465L18.8623 11.9532H18.8624L18.8782 11.9579H18.8783L18.8939 11.9632H18.894L18.9096 11.9688H18.9097L18.9251 11.9748H18.9252L18.9405 11.9811H18.9406L18.9557 11.9879H18.9559L18.9709 11.9951H18.971L18.9857 12.0026H18.9859L19.0006 12.0105H19.0007L19.0152 12.0188H19.0153L19.0297 12.0275H19.0298L19.0439 12.0366H19.044L19.058 12.0461H19.0581L19.0718 12.0559H19.0719L19.0855 12.0661H19.0857L19.0989 12.0767H19.099L19.1122 12.0878H19.1123L19.1251 12.0991H19.1252L19.1379 12.111H19.138L19.1504 12.1231H19.1505L19.1545 12.1272L21.8273 14.7991L3.34731 33.218Z" fill="#C7C7C6"/>
</svg>
