<svg width="45" height="50" viewBox="0 0 45 50" fill="none" xmlns="http://www.w3.org/2000/svg">
<path fill-rule="evenodd" clip-rule="evenodd" d="M44.1232 49.93H36.3138C36.0308 49.93 35.7769 49.7503 35.6793 49.4806L33.4047 43.4391H44.2272L44.1232 49.93ZM11.3921 43.4391L9.02974 49.4907C8.9224 49.7603 8.67832 49.93 8.39526 49.93H0.683368C0.302656 49.93 0 49.6204 0 49.2309V43.4391H11.3921ZM3.41662e-05 42.041V0.699063C3.41662e-05 0.309608 0.30269 0 0.683402 0H44.1233L44.2318 42.041L3.41662e-05 42.041ZM20.9879 23.4672C19.7385 23.4672 18.6451 22.3487 18.6451 21.0705C18.6451 19.8023 19.6994 18.7738 20.9879 18.7738C22.2472 18.7738 23.2331 19.7823 23.2331 21.0705C23.2331 22.3887 22.2276 23.4672 20.9879 23.4672ZM20.9879 20.1718C20.4608 20.1718 20.0117 20.5812 20.0117 21.0705C20.0117 21.5798 20.4901 22.0692 20.9879 22.0692C21.4663 22.0692 21.8665 21.6098 21.8665 21.0705C21.8665 20.5612 21.4858 20.1718 20.9879 20.1718ZM30.5544 38.1465C29.5001 38.1465 28.6021 37.2279 28.6021 36.1494V25.4642C28.6021 24.3259 29.4415 23.4672 30.5544 23.4672C31.6672 23.4672 32.5067 24.3259 32.5067 25.4642V36.1493C32.5067 37.2277 31.6087 38.1465 30.5544 38.1465ZM30.5544 24.865C30.281 24.865 29.9687 25.0248 29.9687 25.4642V36.1492C29.9687 36.4588 30.2517 36.7484 30.5544 36.7484C30.857 36.7484 31.1401 36.4588 31.1401 36.1492V25.4642C31.1401 25.0248 30.8278 24.865 30.5544 24.865ZM25.1853 38.1465C24.1312 38.1465 23.2331 37.2279 23.2331 36.1494V25.4642C23.2331 24.3259 24.0726 23.4672 25.1853 23.4672C26.2982 23.4672 27.1377 24.3259 27.1377 25.4642V36.1493C27.1378 37.2277 26.2396 38.1465 25.1853 38.1465ZM25.1853 24.865C24.912 24.865 24.5997 25.0248 24.5997 25.4642V36.1492C24.5997 36.4588 24.8827 36.7484 25.1853 36.7484C25.488 36.7484 25.771 36.4588 25.771 36.1492V25.4642C25.771 25.0248 25.4587 24.865 25.1853 24.865ZM35.8258 38.1465C34.7813 38.1465 33.971 37.2677 33.971 36.1494V25.4642C33.971 24.306 34.7519 23.4672 35.8258 23.4672C36.9387 23.4672 37.7781 24.3259 37.7781 25.4642V36.1493C37.7781 37.2277 36.8801 38.1465 35.8258 38.1465ZM35.8258 24.865C35.4256 24.865 35.3378 25.1946 35.3378 25.4642V36.1492C35.3378 36.4388 35.5135 36.7484 35.8258 36.7484C36.1285 36.7484 36.4115 36.4588 36.4115 36.1492V25.4642C36.4115 25.0248 36.0991 24.865 35.8258 24.865ZM36.4115 19.7723H36.021V20.9706C36.021 21.36 35.7184 21.6696 35.3376 21.6696C34.9569 21.6696 34.6543 21.36 34.6543 20.9706V19.7723H33.8735V20.9706C33.8734 21.36 33.5708 21.6696 33.1901 21.6696C32.8094 21.6696 32.5067 21.36 32.5067 20.9706V19.7723H32.1162C31.7355 19.7723 31.4329 19.4626 31.4329 19.0732V16.4769C31.4329 16.0874 31.7355 15.7778 32.1162 15.7778H32.5067V14.5795C32.5067 14.19 32.8094 13.8804 33.1901 13.8804C33.5708 13.8804 33.8735 14.19 33.8735 14.5795V15.7778H34.6543V14.5795C34.6543 14.19 34.9569 13.8804 35.3376 13.8804C35.7184 13.8804 36.021 14.19 36.021 14.5795V15.7779H36.4115C36.7922 15.7779 37.0949 16.0875 37.0949 16.477V19.0733C37.0948 19.4628 36.7922 19.7723 36.4115 19.7723ZM32.7996 18.3743H33.1812L33.1901 18.3741L33.199 18.3743H35.3288L35.3376 18.3741L35.3465 18.3743H35.7282V17.1759H35.3376H33.1901H32.7996L32.7996 18.3743ZM28.8949 19.7723H28.5044V20.9706C28.5044 21.36 28.2018 21.6696 27.8211 21.6696C27.4404 21.6696 27.1377 21.36 27.1377 20.9706V19.7723H26.3569V20.9706C26.3568 21.36 26.0542 21.6696 25.6735 21.6696C25.2928 21.6696 24.9902 21.36 24.9902 20.9706V19.7723H24.5998C24.2191 19.7723 23.9164 19.4626 23.9164 19.0732V16.4769C23.9164 16.0874 24.2191 15.7778 24.5998 15.7778H24.9902V14.5795C24.9902 14.19 25.2928 13.8804 25.6735 13.8804C26.0542 13.8804 26.3569 14.19 26.3569 14.5795V15.7778H27.1377V14.5795C27.1377 14.19 27.4403 13.8804 27.8211 13.8804C28.2018 13.8804 28.5044 14.19 28.5044 14.5795V15.7779H28.8949C29.2757 15.7779 29.5783 16.0875 29.5783 16.477V19.0733C29.5782 19.4628 29.2757 19.7723 28.8949 19.7723ZM25.283 18.3743H25.6647L25.6735 18.3741L25.6824 18.3743H27.8122L27.8211 18.3741L27.8299 18.3743H28.2116V17.1759H27.8211H25.6735H25.283L25.283 18.3743ZM36.802 12.882H24.2094C23.6335 12.882 23.2332 12.4726 23.2332 11.8834V9.88618C23.2332 9.49673 23.5359 9.18712 23.9166 9.18712C24.2973 9.18712 24.5999 9.49673 24.5999 9.88618V11.484L36.4115 11.4839V9.88606C36.4115 9.49661 36.7142 9.187 37.0949 9.187C37.4756 9.187 37.7783 9.49661 37.7783 9.88606V11.8832C37.7782 12.4725 37.378 12.882 36.802 12.882ZM36.802 8.78764H24.2094C23.6335 8.78764 23.2332 8.37825 23.2332 7.789V5.79182C23.2332 5.40237 23.5359 5.09276 23.9166 5.09276C24.2973 5.09276 24.5999 5.40237 24.5999 5.79182V7.38963H36.4115V5.79182C36.4115 5.40237 36.7142 5.09276 37.0949 5.09276C37.4756 5.09276 37.7783 5.40237 37.7783 5.79182V7.789C37.7782 8.37825 37.378 8.78764 36.802 8.78764ZM8.00468 16.8763H6.5404C6.15969 16.8763 5.85704 16.5667 5.85704 16.1773C5.85704 15.7878 6.15969 15.4782 6.5404 15.4782L8.00468 15.4783V14.8792H6.5404C6.15969 14.8792 5.85704 14.5696 5.85704 14.1801C5.85704 13.7907 6.15969 13.481 6.5404 13.481L8.00468 13.4812V12.882H6.5404C6.15969 12.882 5.85704 12.5724 5.85704 12.1829C5.85704 11.7935 6.15969 11.4839 6.5404 11.4839H8.00468V10.7849H6.5404C6.15969 10.7849 5.85704 10.4753 5.85704 10.0859C5.85704 9.69641 6.15969 9.3868 6.5404 9.3868H8.00468V8.78764C8.00468 7.9987 8.69773 7.28974 9.46895 7.28974H9.957L9.95712 5.79183C9.95712 5.40238 10.2598 5.09277 10.6405 5.09277C11.0212 5.09277 11.3239 5.40238 11.3239 5.79183V7.28974H12.007L12.0071 5.79183C12.0071 5.40238 12.3098 5.09277 12.6905 5.09277C13.0712 5.09277 13.3738 5.40238 13.3738 5.79183V7.28974H13.9594V5.79183C13.9594 5.40238 14.2621 5.09277 14.6428 5.09277C15.0235 5.09277 15.3262 5.40238 15.3262 5.79183V7.28974H16.0094V5.79183C16.0094 5.40238 16.3121 5.09277 16.6928 5.09277C17.0735 5.09277 17.3762 5.40238 17.3762 5.79183V7.28974H17.8642C18.6354 7.28974 19.3285 7.99871 19.3285 8.78764V9.3868H20.7927C21.1734 9.3868 21.476 9.69641 21.476 10.0859C21.476 10.4753 21.1734 10.7849 20.7927 10.7849H19.3285V11.1844V11.4839H20.7927C21.1734 11.4839 21.476 11.7935 21.476 12.1829C21.476 12.5724 21.1734 12.882 20.7927 12.882H19.3285V13.481L20.7927 13.4812C21.1734 13.4812 21.476 13.7908 21.476 14.1802C21.476 14.5697 21.1734 14.8792 20.7927 14.8792H19.3285V15.4782L20.7927 15.4783C21.1734 15.4783 21.476 15.7879 21.476 16.1774C21.476 16.5669 21.1734 16.8763 20.7927 16.8763H19.3285V17.4755C19.3284 18.3443 18.6549 19.0733 17.8642 19.0733H17.3762V20.5711C17.376 20.9607 17.0735 21.2702 16.6928 21.2702C16.3121 21.2702 16.0094 20.9606 16.0094 20.5711V19.0733H15.3262V20.5711C15.3261 20.9607 15.0235 21.2702 14.6428 21.2702C14.2621 21.2702 13.9594 20.9606 13.9594 20.5711V19.0733H13.3737V20.5711C13.3737 20.9607 13.0711 21.2702 12.6904 21.2702C12.3096 21.2702 12.007 20.9606 12.007 20.5711V19.0733H11.3237V20.5711C11.3237 20.9607 11.0211 21.2702 10.6404 21.2702C10.2597 21.2702 9.957 20.9606 9.957 20.5711V19.0733H9.46895C8.67824 19.0733 8.00468 18.3443 8.00468 17.4755V16.8763ZM10.6226 17.6753L10.6404 17.6751L10.6581 17.6753H12.6726L12.6904 17.6751L12.7081 17.6753H14.6251L14.6428 17.6751L14.6606 17.6753H16.675L16.6928 17.6751L16.7106 17.6753H17.8544C17.8837 17.6653 17.9618 17.5854 17.9618 17.4756V16.2772H15.8142C15.5994 16.2772 15.3944 16.1773 15.2676 15.9975L14.8869 15.4782L13.9595 15.4783C13.5787 15.4783 13.2761 15.1687 13.2761 14.7793C13.2761 14.5075 13.4234 14.2746 13.6418 14.1588C13.5874 14.1728 13.5303 14.1802 13.4714 14.1802L12.5147 14.1801L12.0363 14.7393C11.8997 14.8892 11.7143 14.9791 11.519 14.9791H9.37142V16.1774V17.4755C9.37142 17.5854 9.44948 17.6653 9.47876 17.6753L10.6226 17.6753ZM13.789 14.1017C13.8435 14.0876 13.9005 14.0802 13.9594 14.0802L15.2285 14.0803C15.4433 14.0803 15.6483 14.1802 15.7751 14.36L16.1559 14.8793L17.9618 14.8792V14.1801V12.1829V11.8835L16.1559 11.8834L15.7751 12.4027C15.6482 12.5824 15.4432 12.6822 15.2285 12.6822H13.9594C13.5787 12.6822 13.2761 12.3726 13.2761 11.9831C13.2761 11.5937 13.5787 11.2841 13.9594 11.2841L14.8868 11.2842L15.2675 10.7649C15.3944 10.5851 15.5994 10.4852 15.8141 10.4852L17.9618 10.4853V10.0859V8.79767C17.952 8.75769 17.8934 8.69777 17.8544 8.68786H16.6928H14.6428H12.6904H10.6404H9.47876C9.43968 8.69789 9.38111 8.75781 9.37142 8.79767V9.08723H11.519C11.7142 9.08723 11.8997 9.1771 12.0363 9.32689L12.5147 9.88607L13.4714 9.88619C13.8521 9.88619 14.1548 10.1958 14.1548 10.5853C14.1548 10.9747 13.8521 11.2842 13.4714 11.2842H12.2023C12.0071 11.2842 11.8216 11.1943 11.685 11.0445L11.2066 10.4854H9.37142V12.1829V13.5809H11.2066L11.685 13.0218C11.8119 12.872 11.9973 12.7821 12.2023 12.7821H13.4714C13.8521 12.7821 14.1548 13.0917 14.1548 13.4812C14.1548 13.7529 14.0074 13.9857 13.789 14.1017ZM40.3162 40.7429H4.49051C4.1098 40.7429 3.80714 40.4333 3.80714 40.0438V3.29547C3.80714 2.90601 4.1098 2.5964 4.49051 2.5964H40.3162C40.6969 2.5964 40.9995 2.90601 40.9995 3.29547V40.0438C40.9995 40.4333 40.6969 40.7429 40.3162 40.7429ZM5.17374 39.3449H39.6329V3.99447H5.17374V39.3449ZM13.6666 38.1466C9.19567 38.1466 5.56425 34.4317 5.56425 29.8582C5.56425 25.2846 9.19566 21.5699 13.6666 21.5699C18.1374 21.5699 21.7688 25.2846 21.7688 29.8582C21.7688 34.4317 18.1374 38.1466 13.6666 38.1466ZM13.6666 22.9679C9.95709 22.9679 6.93088 26.0635 6.93088 29.8582C6.93088 33.6528 9.95709 36.7485 13.6666 36.7485C17.376 36.7485 20.4022 33.6528 20.4022 29.8582C20.4022 26.0635 17.376 22.9679 13.6666 22.9679ZM12.7209 32.6996C12.5719 32.6491 12.4287 32.5866 12.292 32.5137C12.0337 33.0083 11.8549 33.6567 11.763 34.4518C12.1925 34.6615 12.6318 34.7813 13.1003 34.8113C12.7821 34.0924 12.6485 33.3552 12.7209 32.6996ZM10.7825 30.3908C10.7584 30.2485 10.7439 30.1023 10.7395 29.9532C10.1574 29.9164 9.53659 30.0816 8.80515 30.4674C8.85392 30.9167 8.97106 31.3661 9.15657 31.7855C9.64209 31.1119 10.2272 30.6471 10.7825 30.3908ZM11.7414 27.5285C11.8495 27.4285 11.9646 27.3367 12.0858 27.2542C11.8022 26.7435 11.3394 26.2719 10.7379 25.8737C10.3766 26.1134 10.0643 26.4429 9.80074 26.8424C10.5378 26.9165 11.2215 27.1584 11.7414 27.5285ZM13.2954 26.6068C13.2615 26.0968 13.0432 25.3938 12.5245 24.6953C12.3781 24.4957 12.3488 24.246 12.4367 24.0163C12.5245 23.7867 12.7197 23.6269 12.954 23.5869C14.2817 23.3573 15.5213 23.5969 16.644 24.2759C16.849 24.4058 16.9759 24.6254 16.9759 24.875C16.9759 26.1377 16.717 27.1539 16.1896 27.9529C16.6414 27.7252 17.1565 27.1881 17.5322 26.3031C17.6299 26.0734 17.8349 25.9136 18.0692 25.8836C18.3133 25.8537 18.5475 25.9536 18.694 26.1432C19.5138 27.2118 19.914 28.3603 19.914 29.6584C19.914 29.928 19.7676 30.1677 19.5333 30.2875C18.4401 30.8468 17.4835 31.1164 16.5853 31.1164L16.5393 31.1162C16.9578 31.3833 17.6929 31.5871 18.5475 31.456C18.7818 31.426 19.0259 31.5159 19.1723 31.7057C19.3286 31.8954 19.3675 32.155 19.2797 32.3847C18.8111 33.7129 17.9813 34.7114 16.8978 35.2707C16.8001 35.3305 16.7024 35.3504 16.5951 35.3504C16.4682 35.3504 16.3413 35.3104 16.2242 35.2406C15.4709 34.7475 14.6016 34.0878 14.0644 33.1471C14.0826 33.6681 14.2947 34.3388 14.799 35.0309C14.9454 35.2306 14.9747 35.4803 14.8868 35.7099C14.799 35.9396 14.6038 36.0994 14.3695 36.1394C14.0375 36.1993 13.7153 36.2192 13.3932 36.2192C12.4267 36.2192 11.5189 35.9596 10.6794 35.4503C10.4549 35.3106 10.328 35.0609 10.3475 34.8013C10.4424 33.5614 10.6901 32.5675 11.1073 31.7984C10.6663 32.0773 10.1486 32.6031 9.80085 33.4332C9.70319 33.6629 9.49819 33.8227 9.26391 33.8526C9.23462 33.8525 9.20534 33.8525 9.17605 33.8525C8.97106 33.8525 8.76606 33.7526 8.63911 33.5829C7.84852 32.5543 7.41893 31.2962 7.41893 30.0578C7.41893 29.8082 7.54587 29.5785 7.76055 29.4587C8.85427 28.8042 9.82322 28.5093 10.7495 28.552C10.2665 28.2936 9.55112 28.1447 8.78554 28.2605C8.55126 28.2904 8.30717 28.2006 8.16075 28.0108C8.00452 27.821 7.96555 27.5614 8.0534 27.3318C8.52197 26.0036 9.35177 25.0051 10.4353 24.4459C10.6305 24.346 10.8746 24.346 11.0698 24.4559C12.0721 25.0171 12.8386 25.7636 13.2954 26.6068ZM15.6071 32.1537C15.4892 32.2516 15.3636 32.3409 15.2315 32.4204C15.4971 32.8946 15.9433 33.3455 16.6147 33.8227C16.9661 33.583 17.2785 33.2535 17.5323 32.864C16.7819 32.7839 16.1014 32.5342 15.6071 32.1537ZM16.6381 29.2841C16.666 29.4294 16.6835 29.5782 16.69 29.7291C17.2436 29.7133 17.8386 29.5525 18.5279 29.2391C18.4889 28.7897 18.3717 28.3603 18.1863 27.9509C17.7444 28.5799 17.2099 29.0413 16.6381 29.2841ZM14.6657 26.9431C14.8104 26.9969 14.9504 27.0617 15.0846 27.1367C15.3913 26.6509 15.5648 26.0315 15.6092 25.2745C15.1699 25.0647 14.7208 24.9349 14.2426 24.9049C14.5565 25.6019 14.7058 26.3176 14.6657 26.9431ZM13.6665 28.1605C13.5946 28.1605 13.5237 28.1659 13.4542 28.1763C13.3758 28.2521 13.2791 28.3098 13.1686 28.3403C13.0888 28.3624 13.0082 28.3689 12.9298 28.3616C12.7469 28.4683 12.5857 28.6135 12.4553 28.7872C12.4213 28.8895 12.3645 28.9844 12.2864 29.0636C12.1706 29.3005 12.1046 29.5709 12.1046 29.8581C12.1046 30.7153 12.704 31.3771 13.5177 31.4493C13.569 31.4454 13.621 31.4475 13.673 31.4559C13.8137 31.4553 13.9499 31.4379 14.0803 31.4056C14.1073 31.3941 14.1354 31.384 14.1645 31.376C14.1855 31.3702 14.2067 31.3656 14.2278 31.3619C14.7005 31.1979 15.0736 30.8329 15.2367 30.3755C15.236 30.3302 15.2395 30.2841 15.248 30.2376C15.2609 30.1657 15.2839 30.0984 15.3155 30.0371C15.3223 29.9784 15.326 29.9186 15.326 29.8581C15.326 29.6459 15.2839 29.4402 15.2082 29.2495C15.1342 29.1655 15.08 29.0627 15.0529 28.9486C14.7511 28.481 14.2326 28.1605 13.6665 28.1605Z" fill="#60C3D8"/>
</svg>
