<svg width="81" height="81" viewBox="0 0 81 81" fill="none" xmlns="http://www.w3.org/2000/svg">
<rect x="0.755615" y="0.885437" width="80" height="80" rx="3" fill="black" fill-opacity="0.01"/>
<rect x="1.25562" y="1.38544" width="79" height="79" rx="2.5" stroke="black" stroke-opacity="0.05"/>
<path d="M40.7556 64.8854C54.5627 64.8854 65.7556 53.6926 65.7556 39.8854C65.7556 26.0783 54.5627 14.8854 40.7556 14.8854C26.9485 14.8854 15.7556 26.0783 15.7556 39.8854C15.7556 53.6926 26.9485 64.8854 40.7556 64.8854Z" fill="#CEDAD9"/>
<path d="M40.7549 18.2187C28.8079 18.219 19.0885 27.939 19.0889 39.886C19.0845 45.0562 20.9373 50.0561 24.3097 53.9751L54.8443 23.4387C50.9251 20.0665 45.9252 18.2141 40.7549 18.2187Z" fill="white"/>
<path d="M57.2014 25.7957L26.6667 56.3321C30.5859 59.7043 35.5859 61.5567 40.7561 61.5521C52.7032 61.5517 62.4225 51.8318 62.4222 39.8848C62.4265 34.7145 60.5738 29.7146 57.2014 25.7957Z" fill="white"/>
</svg>
