<svg width="81" height="81" viewBox="0 0 81 81" fill="none" xmlns="http://www.w3.org/2000/svg">
<rect x="0.755615" y="0.885437" width="80" height="80" rx="3" fill="black" fill-opacity="0.01"/>
<rect x="1.25562" y="1.38544" width="79" height="79" rx="2.5" stroke="black" stroke-opacity="0.05"/>
<path d="M16.7556 65.8854C16.7556 65.3332 17.2033 64.8854 17.7556 64.8854H65.7556C66.3079 64.8854 66.7556 65.3332 66.7556 65.8854C66.7556 66.4377 66.3079 66.8854 65.7556 66.8854H17.7556C17.2033 66.8854 16.7556 66.4377 16.7556 65.8854Z" fill="#CEDAD9"/>
<path d="M16.7556 69.8854C16.7556 69.3332 17.2033 68.8854 17.7556 68.8854H65.7556C66.3079 68.8854 66.7556 69.3332 66.7556 69.8854C66.7556 70.4377 66.3079 70.8854 65.7556 70.8854H17.7556C17.2033 70.8854 16.7556 70.4377 16.7556 69.8854Z" fill="#CEDAD9"/>
<path d="M24.7556 73.8854C24.7556 73.3332 25.2033 72.8854 25.7556 72.8854H57.7556C58.3079 72.8854 58.7556 73.3332 58.7556 73.8854C58.7556 74.4377 58.3079 74.8854 57.7556 74.8854H25.7556C25.2033 74.8854 24.7556 74.4377 24.7556 73.8854Z" fill="#CEDAD9"/>
<rect x="15.7556" y="7.88544" width="53" height="25" rx="2" fill="#CEDAD9" fill-opacity="0.7"/>
<rect x="15.7556" y="35.8854" width="53" height="25" rx="2" fill="#CEDAD9" fill-opacity="0.7"/>
</svg>
