<?xml version="1.0" encoding="utf-8"?>
<!-- Svg Vector Icons : http://www.onlinewebfonts.com/icon -->
<!DOCTYPE svg PUBLIC "-//W3C//DTD SVG 1.1//EN" "http://www.w3.org/Graphics/SVG/1.1/DTD/svg11.dtd">
<svg version="1.1" xmlns="http://www.w3.org/2000/svg" xmlns:xlink="http://www.w3.org/1999/xlink" x="0px" y="0px" viewBox="0 0 256 256" enable-background="new 0 0 256 256" xml:space="preserve">
<metadata> Svg Vector Icons : http://www.onlinewebfonts.com/icon </metadata>
<g><g><path fill="#000000" d="M226.3,202.4v-12c5.9-3,9.8-8,9.8-15.7V58.9c0-14.8-7.1-26.7-24.6-26.7H69c-9.1,0-14.3,3.7-17.1,9.8H38.3C41.2,29.8,51,22.3,64.9,22.3h153.7c16.5,0,27.5,16,27.5,32.5v119.3C246,187.1,237.9,198.2,226.3,202.4L226.3,202.4z"/><path fill="#000000" d="M185.6,233.7H37.5c-16.5,0-27.5-16-27.5-32.5V76.5C10,60,23,51.8,39.5,51.8h152.4c16.5,0,24.6,13,24.6,29.5v122.9C216.5,220.7,202.2,233.7,185.6,233.7L185.6,233.7z M206.7,86.2c0-14.8-4.8-24.6-19.7-24.6H44.4c-14.9,0-24.6,4.9-24.6,19.7v118c0,14.8,9.7,24.6,24.6,24.6h137.7c14.9,0,24.6-9.8,24.6-24.6V86.2L206.7,86.2z"/><path fill="#000000" d="M15.5,206.6c0,0,3.4-20.5,14.2-36.8c19-28.7,30.6-36.3,34.4-39.3c5.8-4.6,15.2-4.5,19.7,0c13.8,13.8,23.3,46.6,24.6,49.2c3.8,8.2,4.6,9.8,9.8,9.8c5,0,24.6-14.8,24.6-14.8s12.2-9.8,24.6-9.8c16,0,35.8,18.6,45.7,41.7l-11.3,17.3H29.7L15.5,206.6L15.5,206.6z"/><path fill="#000000" d="M158.2,119.9c-9.1,0-16.5-7.3-16.5-16.2s7.4-16.2,16.5-16.2c9.1,0,16.5,7.3,16.5,16.2C174.6,112.6,167.3,119.9,158.2,119.9L158.2,119.9L158.2,119.9z"/></g></g>
</svg>