<svg width="80" height="80" viewBox="0 0 80 80" fill="none" xmlns="http://www.w3.org/2000/svg">
<rect x="0.5" y="0.5" width="79" height="79" rx="9.5" fill="#ECECEC" fill-opacity="0.5" stroke="#356899" stroke-dasharray="12 6"/>
<path d="M11.4207 66L13.2827 60.498C13.3947 60.1807 13.5487 59.938 13.7447 59.77C13.9407 59.5927 14.2767 59.504 14.7527 59.504C15.1821 59.504 15.4994 59.5833 15.7047 59.742C15.9101 59.9007 16.0734 60.1527 16.1947 60.498L18.0987 66H16.9367L16.3347 64.222H12.8347L12.2607 66H11.4207ZM13.0167 63.732H16.1387L15.2147 60.918C15.1681 60.778 15.1074 60.6567 15.0327 60.554C14.9581 60.442 14.8087 60.386 14.5847 60.386C14.3327 60.386 14.1647 60.442 14.0807 60.554C14.0061 60.666 13.9501 60.7873 13.9127 60.918L13.0167 63.732ZM19.2701 63.172C19.2701 62.416 19.3681 61.8373 19.5641 61.436C19.7695 61.0347 20.0635 60.7593 20.4461 60.61C20.8288 60.4607 21.2955 60.386 21.8461 60.386C22.0048 60.386 22.1915 60.3907 22.4061 60.4C22.6301 60.4093 22.8541 60.428 23.0781 60.456C23.3021 60.4747 23.4981 60.498 23.6661 60.526C23.8341 60.554 23.9508 60.582 24.0161 60.61L23.7221 60.75V58.93H24.6881L24.6741 63.186C24.6741 63.8207 24.6321 64.3293 24.5481 64.712C24.4641 65.0853 24.3195 65.3653 24.1141 65.552C23.9181 65.7387 23.6381 65.8647 23.2741 65.93C22.9195 65.9953 22.4715 66.028 21.9301 66.028C21.4261 66.028 21.0015 65.9953 20.6561 65.93C20.3108 65.8647 20.0355 65.734 19.8301 65.538C19.6341 65.342 19.4895 65.0573 19.3961 64.684C19.3121 64.3107 19.2701 63.8067 19.2701 63.172ZM21.8461 65.468C22.2661 65.468 22.5975 65.4447 22.8401 65.398C23.0921 65.342 23.2835 65.2393 23.4141 65.09C23.5448 64.9313 23.6288 64.712 23.6661 64.432C23.7035 64.152 23.7221 63.7833 23.7221 63.326V61.058C23.6195 61.0487 23.4701 61.0393 23.2741 61.03C23.0875 61.0207 22.8915 61.0113 22.6861 61.002C22.4808 60.9927 22.2988 60.988 22.1401 60.988C21.6921 60.988 21.3281 61.0487 21.0481 61.17C20.7681 61.282 20.5628 61.5013 20.4321 61.828C20.3108 62.1453 20.2501 62.6073 20.2501 63.214C20.2501 63.858 20.2968 64.3433 20.3901 64.67C20.4928 64.9873 20.6608 65.202 20.8941 65.314C21.1275 65.4167 21.4448 65.468 21.8461 65.468ZM26.2767 63.172C26.2767 62.416 26.3747 61.8373 26.5707 61.436C26.776 61.0347 27.07 60.7593 27.4527 60.61C27.8354 60.4607 28.302 60.386 28.8527 60.386C29.0114 60.386 29.198 60.3907 29.4127 60.4C29.6367 60.4093 29.8607 60.428 30.0847 60.456C30.3087 60.4747 30.5047 60.498 30.6727 60.526C30.8407 60.554 30.9574 60.582 31.0227 60.61L30.7287 60.75V58.93H31.6947L31.6807 63.186C31.6807 63.8207 31.6387 64.3293 31.5547 64.712C31.4707 65.0853 31.326 65.3653 31.1207 65.552C30.9247 65.7387 30.6447 65.8647 30.2807 65.93C29.926 65.9953 29.478 66.028 28.9367 66.028C28.4327 66.028 28.008 65.9953 27.6627 65.93C27.3174 65.8647 27.042 65.734 26.8367 65.538C26.6407 65.342 26.496 65.0573 26.4027 64.684C26.3187 64.3107 26.2767 63.8067 26.2767 63.172ZM28.8527 65.468C29.2727 65.468 29.604 65.4447 29.8467 65.398C30.0987 65.342 30.29 65.2393 30.4207 65.09C30.5514 64.9313 30.6354 64.712 30.6727 64.432C30.71 64.152 30.7287 63.7833 30.7287 63.326V61.058C30.626 61.0487 30.4767 61.0393 30.2807 61.03C30.094 61.0207 29.898 61.0113 29.6927 61.002C29.4874 60.9927 29.3054 60.988 29.1467 60.988C28.6987 60.988 28.3347 61.0487 28.0547 61.17C27.7747 61.282 27.5694 61.5013 27.4387 61.828C27.3174 62.1453 27.2567 62.6073 27.2567 63.214C27.2567 63.858 27.3034 64.3433 27.3967 64.67C27.4994 64.9873 27.6674 65.202 27.9007 65.314C28.134 65.4167 28.4514 65.468 28.8527 65.468ZM37.705 66C37.705 65.0013 37.705 64.0027 37.705 63.004C37.705 62.0053 37.705 61.0067 37.705 60.008C37.705 59.9053 37.7096 59.826 37.719 59.77C37.7376 59.7047 37.7703 59.6533 37.817 59.616C37.873 59.5787 37.9616 59.56 38.083 59.56H38.783V66H37.705ZM41.4873 66C41.3193 66 41.2073 65.9767 41.1513 65.93C41.0953 65.874 41.0673 65.762 41.0673 65.594V60.82C41.1419 60.792 41.2493 60.7547 41.3893 60.708C41.5293 60.6613 41.6973 60.6147 41.8933 60.568C42.0893 60.512 42.3133 60.47 42.5653 60.442C42.8266 60.4047 43.1113 60.386 43.4193 60.386C43.7366 60.386 44.0119 60.414 44.2453 60.47C44.4786 60.5167 44.6793 60.6053 44.8473 60.736C45.0153 60.8573 45.1553 61.0253 45.2673 61.24H45.0713C45.1459 61.0813 45.2533 60.946 45.3933 60.834C45.5333 60.7127 45.6966 60.6193 45.8833 60.554C46.0699 60.4887 46.2613 60.442 46.4573 60.414C46.6626 60.386 46.8586 60.372 47.0453 60.372C47.5679 60.372 47.9786 60.4233 48.2773 60.526C48.5759 60.6287 48.7859 60.8013 48.9073 61.044C49.0379 61.2867 49.1033 61.6087 49.1033 62.01V65.622C49.1033 65.7713 49.0753 65.874 49.0193 65.93C48.9633 65.9767 48.8606 66 48.7113 66H48.1233C48.1233 65.328 48.1233 64.6607 48.1233 63.998C48.1233 63.326 48.1233 62.654 48.1233 61.982C48.1233 61.5713 48.0206 61.2913 47.8153 61.142C47.6193 60.9833 47.3253 60.904 46.9333 60.904C46.7466 60.904 46.5459 60.9273 46.3313 60.974C46.1259 61.0207 45.9486 61.0907 45.7993 61.184C45.6499 61.2773 45.5753 61.3847 45.5753 61.506V66H44.5953V61.618C44.5953 61.422 44.4786 61.2587 44.2453 61.128C44.0213 60.988 43.7319 60.918 43.3773 60.918C43.1626 60.918 42.9573 60.9367 42.7613 60.974C42.5653 61.002 42.4019 61.0487 42.2713 61.114C42.1406 61.17 42.0659 61.2493 42.0473 61.352V66H41.4873ZM53.3659 66.098C52.8153 66.098 52.3673 66.07 52.0219 66.014C51.6766 65.958 51.4106 65.8647 51.2239 65.734C51.0466 65.594 50.9206 65.412 50.8459 65.188C50.7806 64.964 50.7479 64.6887 50.7479 64.362C50.7479 63.886 50.8039 63.522 50.9159 63.27C51.0279 63.018 51.2239 62.8453 51.5039 62.752C51.7839 62.6587 52.1573 62.612 52.6239 62.612C52.8573 62.612 53.1093 62.6213 53.3799 62.64C53.6599 62.6493 53.9259 62.6633 54.1779 62.682C54.4393 62.6913 54.6633 62.7053 54.8499 62.724C55.0459 62.7427 55.1766 62.766 55.2419 62.794C55.2419 62.3647 55.2046 62.024 55.1299 61.772C55.0553 61.52 54.9386 61.3333 54.7799 61.212C54.6306 61.0907 54.4393 61.0113 54.2059 60.974C53.9819 60.9367 53.7206 60.918 53.4219 60.918C53.1139 60.918 52.8013 60.932 52.4839 60.96C52.1759 60.9787 51.8913 61.016 51.6299 61.072C51.3686 61.1187 51.1679 61.184 51.0279 61.268V61.058C51.0279 60.862 51.0839 60.7267 51.1959 60.652C51.3173 60.568 51.4526 60.512 51.6019 60.484C51.7793 60.4373 52.0359 60.4 52.3719 60.372C52.7173 60.344 53.0766 60.3347 53.4499 60.344C53.9259 60.344 54.3319 60.3673 54.6679 60.414C55.0133 60.4607 55.2979 60.5633 55.5219 60.722C55.7459 60.8713 55.9139 61.1 56.0259 61.408C56.1379 61.716 56.1939 62.136 56.1939 62.668V65.552C56.1379 65.7387 55.8906 65.8787 55.4519 65.972C55.0133 66.056 54.3179 66.098 53.3659 66.098ZM53.3659 65.622C53.7953 65.622 54.1359 65.608 54.3879 65.58C54.6493 65.552 54.8453 65.5147 54.9759 65.468C55.1159 65.4213 55.2046 65.3607 55.2419 65.286V63.2C55.1579 63.172 54.9993 63.144 54.7659 63.116C54.5419 63.088 54.3039 63.0647 54.0519 63.046C53.7999 63.018 53.5853 63.004 53.4079 63.004C53.0066 63.004 52.6799 63.0273 52.4279 63.074C52.1853 63.1207 52.0079 63.2373 51.8959 63.424C51.7933 63.6107 51.7419 63.9 51.7419 64.292C51.7419 64.6 51.7793 64.852 51.8539 65.048C51.9286 65.244 52.0779 65.3887 52.3019 65.482C52.5353 65.5753 52.8899 65.622 53.3659 65.622ZM60.4135 67.596C60.2082 67.596 59.9748 67.5867 59.7135 67.568C59.4615 67.5587 59.2188 67.5307 58.9855 67.484C58.7522 67.4467 58.5562 67.386 58.3975 67.302C58.2482 67.2273 58.1735 67.1293 58.1735 67.008C58.1735 66.9707 58.1735 66.924 58.1735 66.868C58.1735 66.812 58.1735 66.7747 58.1735 66.756C58.3042 66.8213 58.4908 66.882 58.7335 66.938C58.9855 66.994 59.2515 67.036 59.5315 67.064C59.8115 67.092 60.0542 67.106 60.2595 67.106C60.8008 67.106 61.2208 67.0267 61.5195 66.868C61.8182 66.7093 62.0188 66.4433 62.1215 66.07C62.2335 65.706 62.2755 65.2207 62.2475 64.614H62.4575C62.3642 64.9313 62.2055 65.174 61.9815 65.342C61.7575 65.51 61.4915 65.6267 61.1835 65.692C60.8755 65.7573 60.5442 65.79 60.1895 65.79C59.6482 65.79 59.2002 65.7293 58.8455 65.608C58.4908 65.4773 58.2295 65.2253 58.0615 64.852C57.8935 64.4693 57.8095 63.9093 57.8095 63.172C57.8095 62.5747 57.8608 62.094 57.9635 61.73C58.0755 61.3567 58.2482 61.072 58.4815 60.876C58.7148 60.68 59.0182 60.5493 59.3915 60.484C59.7742 60.4093 60.2362 60.372 60.7775 60.372C60.9828 60.372 61.2115 60.3813 61.4635 60.4C61.7155 60.4187 61.9675 60.4373 62.2195 60.456C62.4715 60.4653 62.6908 60.4793 62.8775 60.498C63.0735 60.5167 63.2042 60.5353 63.2695 60.554C63.2602 60.582 63.2508 60.6613 63.2415 60.792C63.2322 60.9133 63.2275 61.058 63.2275 61.226C63.2275 61.3847 63.2275 61.5387 63.2275 61.688V65.006C63.2275 65.6593 63.1295 66.1727 62.9335 66.546C62.7468 66.9287 62.4482 67.1993 62.0375 67.358C61.6268 67.5167 61.0855 67.596 60.4135 67.596ZM60.4135 65.202C60.7588 65.202 61.0668 65.1647 61.3375 65.09C61.6082 65.006 61.8275 64.8753 61.9955 64.698C62.1635 64.5113 62.2475 64.264 62.2475 63.956V61.072C62.1635 61.0533 61.9722 61.03 61.6735 61.002C61.3748 60.9647 61.0295 60.946 60.6375 60.946C60.1802 60.946 59.8208 61.0067 59.5595 61.128C59.2982 61.24 59.1068 61.45 58.9855 61.758C58.8735 62.0567 58.8175 62.4907 58.8175 63.06C58.8175 63.6387 58.8688 64.0867 58.9715 64.404C59.0742 64.712 59.2422 64.922 59.4755 65.034C59.7088 65.146 60.0215 65.202 60.4135 65.202ZM67.7955 66.084C67.2541 66.084 66.7968 66.0467 66.4235 65.972C66.0595 65.8973 65.7655 65.7573 65.5415 65.552C65.3268 65.3467 65.1681 65.062 65.0655 64.698C64.9721 64.3247 64.9255 63.844 64.9255 63.256C64.9255 62.584 65.0095 62.0333 65.1775 61.604C65.3455 61.1747 65.6441 60.8573 66.0735 60.652C66.5028 60.4467 67.1048 60.344 67.8795 60.344C68.4768 60.344 68.9528 60.4233 69.3075 60.582C69.6715 60.7407 69.9328 60.9833 70.0915 61.31C70.2595 61.6367 70.3435 62.0613 70.3435 62.584V63.382H66.3955C66.3955 63.27 66.4235 63.1767 66.4795 63.102C66.5355 63.018 66.6381 62.976 66.7875 62.976H69.4615L69.4475 62.57C69.4381 61.9913 69.3121 61.5713 69.0695 61.31C68.8361 61.0487 68.4255 60.918 67.8375 60.918C67.3428 60.918 66.9555 60.9927 66.6755 61.142C66.3955 61.2913 66.1995 61.534 66.0875 61.87C65.9755 62.206 65.9195 62.6633 65.9195 63.242C65.9195 63.858 65.9801 64.3293 66.1015 64.656C66.2321 64.9733 66.4468 65.1927 66.7455 65.314C67.0441 65.426 67.4501 65.482 67.9635 65.482C68.1408 65.482 68.3415 65.4773 68.5655 65.468C68.7988 65.4493 69.0321 65.4307 69.2655 65.412C69.4988 65.3933 69.7041 65.37 69.8815 65.342C70.0681 65.3047 70.1988 65.2673 70.2735 65.23V65.398C70.2735 65.4913 70.2455 65.58 70.1895 65.664C70.1428 65.748 70.0401 65.818 69.8815 65.874C69.6761 65.958 69.3961 66.014 69.0415 66.042C68.6961 66.07 68.2808 66.084 67.7955 66.084Z" fill="#64748B"/>
<path fill-rule="evenodd" clip-rule="evenodd" d="M47.875 31.75C45.2233 31.75 43.8975 31.75 43.0738 30.9262C42.25 30.1025 42.25 28.7767 42.25 26.125C42.25 23.4733 42.25 22.1475 43.0738 21.3238C43.8975 20.5 45.2233 20.5 47.875 20.5C50.5267 20.5 51.8525 20.5 52.6762 21.3238C53.5 22.1475 53.5 23.4733 53.5 26.125C53.5 28.7767 53.5 30.1025 52.6762 30.9262C51.8525 31.75 50.5267 31.75 47.875 31.75ZM48.8125 23.625C48.8125 23.1072 48.3928 22.6875 47.875 22.6875C47.3572 22.6875 46.9375 23.1072 46.9375 23.625V25.1875H45.375C44.8572 25.1875 44.4375 25.6072 44.4375 26.125C44.4375 26.6428 44.8572 27.0625 45.375 27.0625H46.9375V28.625C46.9375 29.1428 47.3572 29.5625 47.875 29.5625C48.3928 29.5625 48.8125 29.1428 48.8125 28.625V27.0625H50.375C50.8928 27.0625 51.3125 26.6428 51.3125 26.125C51.3125 25.6072 50.8928 25.1875 50.375 25.1875H48.8125V23.625Z" fill="#1C274C"/>
<path opacity="0.5" d="M53.4997 33.8723C53.4978 35.7093 53.4839 37.2706 53.3795 38.5518C53.2583 40.0384 53.0101 41.2807 52.4545 42.3125C52.2095 42.7676 51.9083 43.1751 51.5417 43.5417C50.5012 44.5822 49.1756 45.0535 47.4957 45.2794C45.8544 45.5 43.7509 45.5 41.0667 45.5H40.9333C38.2491 45.5 36.1456 45.5 34.5043 45.2794C32.8244 45.0535 31.4988 44.5822 30.4583 43.5417C29.5359 42.6193 29.0595 41.4712 28.8062 40.047C28.5574 38.648 28.5119 36.9073 28.5024 34.7459C28.5 34.1961 28.5 33.6146 28.5 33.0012V32.9333C28.5 30.2491 28.5 28.1456 28.7206 26.5043C28.9465 24.8244 29.4178 23.4988 30.4583 22.4583C31.4988 21.4178 32.8244 20.9465 34.5043 20.7206C35.9639 20.5244 37.8418 20.5027 40.1275 20.5003C40.6092 20.4998 41 20.8904 41 21.3721C41 21.8537 40.609 22.244 40.1274 22.2445C37.8094 22.247 36.0844 22.2681 34.7367 22.4493C33.2502 22.6491 32.354 23.0292 31.6916 23.6916C31.0292 24.354 30.6491 25.2502 30.4493 26.7367C30.246 28.2483 30.2442 30.2346 30.2442 33C30.2442 33.3377 30.2442 33.6643 30.2446 33.9805L31.4087 32.9619C32.4683 32.0348 34.0653 32.088 35.0609 33.0836L40.049 38.0716C40.8481 38.8707 42.106 38.9797 43.0306 38.3299L43.3773 38.0862C44.7078 37.1511 46.5079 37.2595 47.7167 38.3473L51.008 41.3095C51.3393 40.6138 51.536 39.6997 51.641 38.4101C51.74 37.1951 51.7537 35.7194 51.7555 33.8724C51.756 33.3907 52.1463 33 52.6279 33C53.1096 33 53.5002 33.3907 53.4997 33.8723Z" fill="#1C274C"/>
</svg>
