<svg width="36" height="36" viewBox="0 0 36 36" fill="none" xmlns="http://www.w3.org/2000/svg">
<path d="M11.25 19.5C14.9715 19.5 18 16.4715 18 12.75C18 9.0285 14.9715 6 11.25 6C7.5285 6 4.5 9.0285 4.5 12.75C4.5 16.4715 7.5285 19.5 11.25 19.5ZM11.25 7.5C14.145 7.5 16.5 9.855 16.5 12.75C16.5 15.645 14.145 18 11.25 18C8.355 18 6 15.645 6 12.75C6 9.855 8.355 7.5 11.25 7.5ZM22.5 33.75V35.25C22.5 35.664 22.164 36 21.75 36C21.336 36 21 35.664 21 35.25V33.75C21 28.374 16.626 24 11.25 24C5.874 24 1.5 28.374 1.5 33.75V35.25C1.5 35.664 1.164 36 0.75 36C0.336 36 0 35.664 0 35.25V33.75C0 27.546 5.046 22.5 11.25 22.5C17.454 22.5 22.5 27.546 22.5 33.75ZM36 26.7945V27.75C36 28.164 35.664 28.5 35.25 28.5C34.836 28.5 34.5 28.164 34.5 27.75V26.7945C34.5 21.945 30.555 18 25.7055 18C23.67 18 21.978 18.4605 20.679 19.365C20.337 19.602 19.8705 19.5195 19.635 19.179C19.3995 18.8385 19.4805 18.372 19.821 18.135C21.3765 17.049 23.3565 16.5 25.7055 16.5C31.3815 16.5 36 21.1185 36 26.7945ZM26.25 13.5C29.9715 13.5 33 10.4715 33 6.75C33 3.0285 29.9715 0 26.25 0C22.5285 0 19.5 3.0285 19.5 6.75C19.5 10.4715 22.5285 13.5 26.25 13.5ZM26.25 1.5C29.145 1.5 31.5 3.855 31.5 6.75C31.5 9.645 29.145 12 26.25 12C23.355 12 21 9.645 21 6.75C21 3.855 23.355 1.5 26.25 1.5Z" fill="black"/>
</svg>
