<svg width="100" height="100" viewBox="0 0 100 100" fill="none" xmlns="http://www.w3.org/2000/svg">
<path d="M15.5873 52.9722C14.5092 52.9722 13.6304 53.8489 13.6304 54.929V60.1014C13.6304 61.1794 14.5072 62.0582 15.5873 62.0582H37.2941C38.3722 62.0582 39.251 61.1814 39.251 60.1014V54.929C39.251 53.851 38.3742 52.9722 37.2941 52.9722H15.5873ZM37.8116 54.929V60.1014C37.8116 60.3868 37.5795 60.6209 37.2921 60.6209H30.4829C32.8813 59.4977 34.6021 57.1671 34.8587 54.4116H37.2921C37.5795 54.4095 37.8116 54.6415 37.8116 54.929Z" fill="#1BC469"/>
<path d="M98.1642 66.4155H94.7289C93.3633 66.4155 92.0265 66.9719 91.0655 67.9411L86.1743 72.8712H61.6029V72.6535C61.6029 71.6741 60.8062 70.8774 59.8267 70.8774H55.0956V67.4935H81.2173C86.2995 67.4935 90.4351 63.358 90.4351 58.276V46.3625C90.4351 45.9662 90.1127 45.6438 89.7164 45.6438C89.3201 45.6438 88.9977 45.9662 88.9977 46.3625V58.276C88.9977 62.5654 85.5069 66.0561 81.2173 66.0561H9.21785C4.92823 66.0561 1.4374 62.5654 1.4374 58.276V12.6999C1.4374 8.4105 4.92823 4.91982 9.21785 4.91982H49.8778V40.0197C49.8778 42.2476 51.691 44.0607 53.919 44.0607H89.8992C92.1272 44.0607 93.9403 42.2476 93.9403 40.0197V4.04098C93.9403 1.8131 92.1272 0 89.8992 0H53.919C51.8799 0 50.1941 1.51742 49.9209 3.48247H9.21785C4.13561 3.48247 0 7.61791 0 12.6999V58.276C0 63.358 4.13561 67.4935 9.21785 67.4935H53.6602V71.5961V84.1502V90.109H36.7769V84.1502V71.5961V69.9534C36.7769 69.5571 36.4546 69.2347 36.0582 69.2347C35.6619 69.2347 35.3395 69.5571 35.3395 69.9534V70.8774H30.6084C29.6289 70.8774 28.8322 71.6741 28.8322 72.6535V83.0948C28.8322 84.0742 29.6289 84.8709 30.6084 84.8709H35.3395V90.1111H33.1095C32.3785 90.1111 31.6885 90.3944 31.169 90.9098L28.0622 93.9919C27.5714 94.4786 27.2901 95.1521 27.2901 95.842V98.4251C27.2901 99.2936 27.9965 100 28.8651 100H61.5721C62.4407 100 63.1471 99.2936 63.1471 98.4251V95.842C63.1471 95.1521 62.8658 94.4786 62.375 93.9919L59.2661 90.9098C58.7466 90.3944 58.0587 90.1111 57.3256 90.1111H55.0956V84.8709H59.8267C60.8062 84.8709 61.6029 84.0742 61.6029 83.0948V82.8771H83.4802C83.8765 82.8771 84.1989 82.5548 84.1989 82.1585C84.1989 81.7622 83.8765 81.4398 83.4802 81.4398H61.6029V74.3085H85.7533V82.1585C85.7533 82.3474 85.8272 82.5301 85.9628 82.6636L91.0635 87.8072C92.0265 88.7764 93.3613 89.3329 94.7268 89.3329H98.1622C99.1766 89.3329 100 88.5074 100 87.4931V81.5589V74.1894V68.2532C100.002 67.2389 99.1766 66.4155 98.1642 66.4155ZM51.3152 4.04098C51.3152 2.6057 52.4836 1.43734 53.919 1.43734H89.8992C91.3345 1.43734 92.5029 2.6057 92.5029 4.04098V40.0197C92.5029 41.455 91.3345 42.6234 89.8992 42.6234H53.919C52.4836 42.6234 51.3152 41.455 51.3152 40.0197V4.04098ZM30.6084 83.4336C30.4216 83.4336 30.2696 83.2817 30.2696 83.0948V72.6535C30.2696 72.4667 30.4216 72.3147 30.6084 72.3147H35.3395V83.4316H30.6084V83.4336ZM58.2558 91.9303L61.3647 95.0124C61.5844 95.2301 61.7097 95.5319 61.7097 95.842V98.4251C61.7097 98.5011 61.6481 98.5627 61.5721 98.5627H54.919C56.3872 97.4764 56.9642 95.3533 55.8677 93.5977L54.5884 91.5505H57.3277C57.6768 91.5484 58.0074 91.6839 58.2558 91.9303ZM60.1655 83.0948C60.1655 83.2817 60.0136 83.4336 59.8267 83.4336H55.0956V72.3168H59.8267C60.0136 72.3168 60.1655 72.4687 60.1655 72.6556V73.5919V82.1605V83.0948ZM98.1642 87.8976H94.7289C93.7432 87.8976 92.7801 87.4951 92.0861 86.797L87.1928 81.8628V73.8876L92.0861 68.9534C92.7801 68.2532 93.7432 67.8528 94.7289 67.8528H98.1642C98.386 67.8528 98.5647 68.0335 98.5647 68.2553V73.4728H95.4722C94.3818 73.4728 93.2853 73.5693 92.2093 73.7603L89.1394 74.3044C88.7493 74.3742 88.4885 74.7479 88.5583 75.1381C88.6281 75.5282 88.9998 75.7869 89.392 75.7192L92.4619 75.175C93.4537 74.9985 94.4681 74.9102 95.4742 74.9102H98.5667V80.8423H95.4742C94.4681 80.8423 93.4537 80.754 92.4619 80.5774L89.392 80.0333C88.9998 79.9655 88.6281 80.2242 88.5583 80.6144C88.4885 81.0045 88.7493 81.3782 89.1394 81.448L92.2093 81.9922C93.2832 82.1831 94.3818 82.2796 95.4722 82.2796H98.5647V87.4972C98.5647 87.7169 98.384 87.8976 98.1642 87.8976Z" fill="#1C274C"/>
<path d="M60.3891 56.7954C59.9928 56.7954 59.6704 57.1178 59.6704 57.5141C59.6704 57.9104 59.9928 58.2328 60.3891 58.2328H79.7057C80.102 58.2328 80.4244 57.9104 80.4244 57.5141C80.4244 57.1178 80.102 56.7954 79.7057 56.7954H60.3891Z" fill="#1BC469"/>
<path d="M71.9093 8.42432C64.3958 8.42432 58.3032 14.5166 58.3032 22.0298C58.3032 29.543 64.3958 35.6353 71.9093 35.6353C79.4228 35.6353 85.5153 29.543 85.5153 22.0298C85.5153 14.5166 79.4228 8.42432 71.9093 8.42432ZM71.9093 25.9024C69.7696 25.9024 68.0365 24.1694 68.0365 22.0298C68.0365 19.8902 69.7696 18.1572 71.9093 18.1572C74.0489 18.1572 75.782 19.8902 75.782 22.0298C75.782 24.1694 74.0489 25.9024 71.9093 25.9024Z" fill="#FC4B5D"/>
<path d="M41.4199 11.4517H11.4624C9.36381 11.4517 7.66357 13.1518 7.66357 15.2504V45.2066C7.66357 47.3051 9.36381 49.0053 11.4624 49.0053H41.4199C43.5185 49.0053 45.2188 47.3051 45.2188 45.2066V15.2504C45.2188 13.1518 43.5165 11.4517 41.4199 11.4517ZM16.5837 33.7058C16.3989 33.7058 16.2161 33.636 16.0744 33.4943C15.7931 33.213 15.7931 32.7592 16.0744 32.4779L27.0315 21.5213C27.3128 21.24 27.7667 21.24 28.048 21.5213C28.3293 21.8026 28.3293 22.2564 28.048 22.5377L17.0909 33.4943C16.9512 33.636 16.7664 33.7058 16.5837 33.7058ZM22.9185 36.1431L21.3292 37.7324C21.1895 37.8721 21.0047 37.9439 20.822 37.9439C20.6371 37.9439 20.4544 37.8741 20.3127 37.7324C20.0314 37.4511 20.0314 36.9973 20.3127 36.716L21.9021 35.1267C22.1834 34.8454 22.6372 34.8454 22.9185 35.1267C23.1998 35.408 23.1998 35.8639 22.9185 36.1431ZM36.7237 22.3385L25.5654 33.4964C25.4257 33.636 25.2409 33.7079 25.0561 33.7079C24.8713 33.7079 24.6886 33.6381 24.5469 33.4964C24.2656 33.2151 24.2656 32.7613 24.5469 32.48L35.7052 21.3221C35.9865 21.0408 36.4403 21.0408 36.7217 21.3221C37.005 21.6034 37.005 22.0572 36.7237 22.3385Z" fill="#1BC469"/>
<path d="M45.6415 86.7475H41.5203C40.5798 86.7475 39.8159 85.9858 39.8159 85.0433V73.3679C39.8159 72.1955 40.972 71.3741 42.0788 71.7581L43.6969 72.3207C45.8797 73.0784 47.3438 75.1379 47.3438 77.4479V85.0412C47.3458 85.9858 46.582 86.7475 45.6415 86.7475Z" fill="#1C274C"/>
</svg>
