<svg id="Capa_1" enable-background="new 0 0 512 512" height="512" viewBox="0 0 512 512" width="512" xmlns="http://www.w3.org/2000/svg"><g><path d="m245 11c-102.145 0-189.677 62.517-226.455 151.369l.858.544c26.17-28.741 63.442-45.219 102.291-45.219 47.718 0 91.245 23.972 116.806 64.226h-62.561l2.28 1.787c22.07 17.294 35.246 44.32 35.246 72.294 0 27.973-13.176 54.999-35.246 72.294l-2.28 1.787h62.561c-25.561 40.254-69.088 64.226-116.806 64.226-38.849 0-76.121-16.478-102.291-45.219l-.858.544c36.778 88.85 124.31 151.367 226.455 151.367 135.31 0 245-109.69 245-245s-109.69-245-245-245z" fill="#d5e3f4"/><g fill="#bd80e1"><path d="m239.062 182.919h179.203c-7.27-17.215-17.037-33.117-28.837-47.263-13.021 14.881-32.13 24.307-53.41 24.307-39.14 0-70.981-31.842-70.981-70.982 0-6.799.981-13.37 2.774-19.601-7.478-.904-15.089-1.38-22.811-1.38-49.156 0-93.898 18.874-127.396 49.759 1.361-.041 2.724-.066 4.089-.066 49.45 0 92.914 26.092 117.369 65.226z"/><path d="m239.062 329.081c-24.455 39.134-67.919 65.226-117.369 65.226-1.365 0-2.728-.026-4.089-.066 33.498 30.885 78.24 49.759 127.396 49.759 5.234 0 10.415-.224 15.541-.644-2.252-5.521-3.504-11.553-3.504-17.875 0-26.181 21.3-47.481 47.481-47.481 21.481 0 39.665 14.342 45.506 33.95 30.075-20.294 53.962-49.057 68.241-82.869z"/></g><g fill="#b3ceec"><path d="m131.828 118.066c30.823-25.336 70.251-40.566 113.172-40.566 7.032 0 13.967.422 20.789 1.217.739-5.082 2.019-9.989 3.779-14.665-8.047-1.024-16.247-1.552-24.568-1.552-52.851 0-100.813 21.307-135.77 55.771 4.129-.376 8.286-.578 12.464-.578 3.408 0 6.786.13 10.134.373z"/><path d="m392.906 131.388c-3.024 4.046-6.48 7.745-10.28 11.062 10.11 12.232 18.621 25.83 25.217 40.469h16.313c-7.713-18.84-18.313-36.2-31.25-51.531z"/><path d="m257.824 434.035c-4.237.302-8.511.465-12.824.465-42.921 0-82.349-15.23-113.172-40.566-3.347.244-6.726.373-10.134.373-4.177 0-8.334-.202-12.464-.578 34.957 34.464 82.919 55.771 135.77 55.771 6.102 0 12.135-.298 18.094-.853-2.513-4.475-4.317-9.396-5.27-14.612z"/><path d="m407.844 329.081c-13.453 29.859-34.889 55.371-61.566 73.82 2.446 4.505 4.173 9.451 5.053 14.682 32.365-21.37 57.959-52.189 72.826-88.501h-16.313z"/></g><path d="m178.836 329.081c22.363-17.525 35.629-44.621 35.629-73.081s-13.266-55.557-35.629-73.081h61.468c-24.537-39.739-68.478-66.225-118.611-66.225-40.89 0-77.665 17.618-103.149 45.676-11.94 28.848-18.544 60.466-18.544 93.63s6.604 64.782 18.545 93.631c25.484 28.058 62.259 45.676 103.149 45.676 50.133 0 94.074-26.487 118.611-66.225h-61.469z" fill="#9857bd"/><g><path d="m437.919 181.919h-262.058c22.797 16.697 37.605 43.658 37.605 74.081s-14.808 57.384-37.605 74.081h262.059c40.913 0 74.08-33.167 74.08-74.081 0-40.914-33.167-74.081-74.081-74.081z" fill="#fe3d97"/><path d="m256.173 298.617v-85.235c0-17.377 14.087-31.463 31.464-31.463h-111.776c22.797 16.697 37.605 43.658 37.605 74.081s-14.808 57.384-37.605 74.081h111.776c-17.377 0-31.464-14.087-31.464-31.464z" fill="#e41e7f"/><g><circle cx="121.694" cy="256" fill="#fff" r="91.772"/></g><path d="m72 256c0-43.444 30.189-79.835 70.733-89.345-6.756-1.585-13.799-2.427-21.039-2.427-50.684 0-91.772 41.088-91.772 91.772s41.088 91.772 91.772 91.772c7.24 0 14.283-.842 21.039-2.427-40.544-9.51-70.733-45.901-70.733-89.345z" fill="#e5eef9"/><g><path d="m121.693 360.272c-57.495 0-104.271-46.776-104.271-104.272s46.776-104.272 104.271-104.272 104.272 46.776 104.272 104.272-46.777 104.272-104.272 104.272zm0-183.544c-43.71 0-79.271 35.561-79.271 79.272s35.562 79.272 79.271 79.272 79.271-35.561 79.271-79.272-35.561-79.272-79.271-79.272z" fill="#af66da"/></g><g><path d="m170.129 251.67-69.988-40.407c-3.333-1.924-7.5.481-7.5 4.33v80.815c0 3.849 4.167 6.255 7.5 4.33l69.988-40.407c3.334-1.925 3.334-6.737 0-8.661z" fill="#fd6930"/></g><path d="m118 221.573-17.858-10.311c-3.333-1.924-7.5.481-7.5 4.33v80.815c0 3.849 4.167 6.255 7.5 4.33l17.858-10.31z" fill="#ef4424"/><g fill="#fff"><path d="m458 263.5c4.143 0 7.5-3.358 7.5-7.5s-3.357-7.5-7.5-7.5h-33.422v-19h33.422c4.143 0 7.5-3.358 7.5-7.5s-3.357-7.5-7.5-7.5h-40.922c-4.143 0-7.5 3.358-7.5 7.5v68c0 4.142 3.357 7.5 7.5 7.5h40.922c4.143 0 7.5-3.358 7.5-7.5s-3.357-7.5-7.5-7.5h-33.422v-19z"/><path d="m391.77 214.818c-3.967-1.195-8.149 1.055-9.343 5.021l-13.279 44.132-13.279-44.132c-1.193-3.967-5.378-6.216-9.343-5.021-3.967 1.194-6.214 5.376-5.021 9.343l20.461 68c.953 3.169 3.872 5.339 7.182 5.339s6.229-2.169 7.182-5.339l20.461-68c1.192-3.967-1.055-8.149-5.021-9.343z"/><path d="m294.324 282.5h-33.422v-60.5c0-4.142-3.357-7.5-7.5-7.5s-7.5 3.358-7.5 7.5v68c0 4.142 3.357 7.5 7.5 7.5h40.922c4.143 0 7.5-3.358 7.5-7.5s-3.357-7.5-7.5-7.5z"/><path d="m321.663 214.5c-4.143 0-7.5 3.358-7.5 7.5v68c0 4.142 3.357 7.5 7.5 7.5s7.5-3.358 7.5-7.5v-68c0-4.142-3.357-7.5-7.5-7.5z"/></g></g><g><g><circle cx="336.018" cy="88.982" fill="#fe3d97" r="71.982"/></g><path d="m315.037 88.982c0-30.773 19.317-57.022 46.482-67.318-7.929-3.005-16.519-4.664-25.501-4.664-39.754 0-71.982 32.227-71.982 71.982 0 39.754 32.227 71.982 71.982 71.982 8.981 0 17.572-1.659 25.5-4.664-27.164-10.296-46.481-36.545-46.481-67.318z" fill="#e41e7f"/><g><path d="m374.009 85.585-54.895-31.694c-2.615-1.509-5.883.377-5.883 3.396v63.388c0 3.019 3.268 4.906 5.883 3.396l54.895-31.694c2.615-1.508 2.615-5.282 0-6.792z" fill="#fff"/></g><path d="m330 60.177-10.886-6.285c-2.615-1.509-5.883.377-5.883 3.396v63.388c0 3.019 3.268 4.906 5.883 3.396l10.886-6.285z" fill="#e5eef9"/></g><g><g><circle cx="304.518" cy="425.482" fill="#af66da" r="48.482"/></g><path d="m290.037 425.482c0-20.793 13.093-38.522 31.482-45.41-5.291-1.982-11.017-3.072-17-3.072-26.776 0-48.482 21.706-48.482 48.482s21.706 48.482 48.482 48.482c5.983 0 11.709-1.09 17-3.072-18.389-6.888-31.482-24.617-31.482-45.41z" fill="#9857bd"/><g><path d="m330.106 423.194-36.973-21.347c-1.761-1.017-3.962.254-3.962 2.288v42.693c0 2.033 2.201 3.304 3.962 2.288l36.973-21.347c1.761-1.016 1.761-3.558 0-4.575z" fill="#fff"/></g><path d="m306 409.276-12.867-7.429c-1.761-1.017-3.962.254-3.962 2.288v42.693c0 2.033 2.201 3.304 3.962 2.288l12.867-7.429z" fill="#e5eef9"/></g></g></svg>