<svg id="Master_Line" enable-background="new 0 0 512 512" height="512" viewBox="0 0 512 512" width="512" xmlns="http://www.w3.org/2000/svg"><path d="m295.93 426.52c-6.27-1.46-12.53-2.57-18.8-3.34v-22.49c11.02-7.24 18.49-19.09 20.03-32.52h.59l5.36-2.38c3.29-1.46 5.56-4.55 5.96-8.13l1.15-10.1c.47-4.1-2.74-7.69-6.87-7.69h-4.12-.59l.15-3.13c1.21-24.59-18.4-45.18-43.02-45.18s-44.23 20.6-43.02 45.18l.15 3.13h-.55-4.12c-4.13 0-7.33 3.59-6.87 7.69l1.15 10.1c.41 3.58 2.68 6.67 5.96 8.13l5.36 2.38h.56c1.55 13.43 9.01 25.28 20.03 32.52v22.49c-6.18.76-12.35 1.86-18.53 3.28-15.52 3.59-25.95 18.14-24.25 33.98l1.95 18.16c18.13 11.01 39.41 17.35 62.18 17.35 22.76 0 44.05-6.34 62.18-17.35l1.95-18.16c1.74-15.74-8.55-30.33-23.97-33.92z" fill="#5cd1fd"/><g fill="#ebeced"><path d="m88.59 74.05c6.49 0 12.01-4.52 13.53-10.83 4.86-20.07 22.95-34.98 44.52-34.98s39.65 14.91 44.52 34.98c1.53 6.31 7.05 10.83 13.53 10.83 0-32.06-25.99-58.05-58.05-58.05s-58.05 25.99-58.05 58.05z"/><path d="m337.16 149.47c6.76 0 12.43-4.93 13.59-11.59 5.49-31.37 32.86-55.22 65.81-55.22 32.94 0 60.32 23.84 65.81 55.22 1.17 6.66 6.83 11.59 13.59 11.59h.22c0-43.98-35.65-79.62-79.62-79.62-43.98 0-79.62 35.65-79.62 79.62z"/><circle cx="45.44" cy="212.1" r="14.22"/><path d="m136.16 366.73c9.77 0 18.21-6.67 20.64-16.13 11.29-44.15 51.34-76.8 99.01-76.8s87.72 32.64 99.01 76.8c2.42 9.46 10.87 16.13 20.64 16.13-4.74-61.94-56.49-110.73-119.65-110.73s-114.91 48.79-119.65 110.73z"/></g><g fill="#2a3853"><path d="m255.81 252.5c-38.52 0-72.97 17.73-95.64 45.45l-74.92-58.96c-1.52-1.19-3.72-.93-4.92.58-1.2 1.52-.93 3.72.59 4.92l74.97 59.01c-14.83 20.38-23.59 45.44-23.59 72.51 0 68.1 55.4 123.5 123.5 123.5s123.5-55.4 123.5-123.5-55.39-123.51-123.49-123.51zm0 240c-64.24 0-116.5-52.26-116.5-116.5s52.26-116.5 116.5-116.5 116.5 52.26 116.5 116.5-52.26 116.5-116.5 116.5z"/><path d="m416.56 66.34c-36.44 0-67.46 23.58-78.65 56.27l-130.55-38.51c.54-3.27.83-6.63.83-10.05 0-33.94-27.61-61.55-61.55-61.55s-61.55 27.61-61.55 61.55c0 18.52 8.24 35.15 21.23 46.44l-44.63 62.74c-4.8-2.71-10.34-4.27-16.24-4.27-18.27 0-33.13 14.86-33.13 33.13s14.86 33.13 33.13 33.13 33.13-14.86 33.13-33.13c0-9.86-4.34-18.73-11.2-24.8l44.46-62.51c.93.64 1.88 1.27 2.85 1.86.02.01.04.02.06.04 9.3 5.66 20.22 8.92 31.88 8.92 28.08 0 51.81-18.91 59.18-44.66l130.1 38.38c-1.61 6.45-2.48 13.2-2.48 20.14 0 26.49 12.47 50.11 31.83 65.34l-34.02 47.32c-1.13 1.57-.77 3.76.8 4.88.62.44 1.33.66 2.04.66 1.09 0 2.16-.51 2.84-1.46l34.01-47.3c.82.54 1.64 1.08 2.49 1.6.03.02.06.04.08.05 12.56 7.64 27.3 12.04 43.04 12.04 45.83 0 83.12-37.29 83.12-83.12s-37.26-83.13-83.1-83.13zm-344.98 145.76c0 14.41-11.72 26.13-26.13 26.13s-26.13-11.72-26.13-26.13 11.72-26.13 26.13-26.13 26.13 11.72 26.13 26.13zm48.27-90.55-.75-7.01c-.63-5.88 3.25-11.32 9.04-12.65 2.85-.66 5.75-1.17 8.6-1.53 1.75-.22 3.07-1.71 3.07-3.47v-10.89c0-1.18-.59-2.28-1.58-2.92-4.55-2.99-7.51-7.8-8.14-13.21-.18-1.57-1.38-2.8-2.9-3.05l-2.03-.9c-.46-.2-.77-.64-.83-1.13l-.53-4.71h2.08c.96 0 1.87-.39 2.54-1.09s1.01-1.63.96-2.58l-.07-1.52c-.23-4.79 1.46-9.33 4.76-12.8s7.76-5.38 12.56-5.38 9.25 1.91 12.56 5.38c3.3 3.47 4.99 8.02 4.76 12.81l-.07 1.52c-.05.96.3 1.89.96 2.58s1.58 1.09 2.53 1.09h2.1l-.53 4.71c-.06.5-.37.93-.83 1.13l-2.02.9c-1.53.24-2.74 1.48-2.92 3.06-.62 5.4-3.59 10.22-8.14 13.21-.98.65-1.58 1.75-1.58 2.92v10.88c0 1.77 1.32 3.26 3.07 3.47 2.91.36 5.85.88 8.73 1.55 5.72 1.33 9.56 6.76 8.93 12.63l-.75 7.02c-7.92 4.49-17.06 7.06-26.79 7.06-9.73-.02-18.87-2.6-26.79-7.08zm61.18-5.19.12-1.08c1.01-9.38-5.14-18.06-14.3-20.19-2.11-.49-4.25-.91-6.39-1.25v-6.04c4.82-3.72 8.12-9.01 9.33-14.97l1.17-.52c2.71-1.21 4.61-3.79 4.94-6.74l.55-4.88c.22-1.93-.4-3.88-1.69-5.33-1-1.12-2.34-1.87-3.8-2.16-.19-5.97-2.53-11.57-6.7-15.95-4.64-4.87-10.9-7.56-17.63-7.56s-12.99 2.68-17.63 7.56c-4.17 4.38-6.51 9.98-6.7 15.95-1.45.29-2.78 1.04-3.78 2.15-1.3 1.45-1.92 3.4-1.7 5.33l.55 4.89c.34 2.95 2.23 5.53 4.94 6.74l1.15.51c1.21 5.96 4.51 11.26 9.33 14.98v6.04c-2.09.33-4.18.74-6.25 1.22-9.23 2.13-15.43 10.83-14.42 20.22l.12 1.08c-12.29-10.01-20.16-25.26-20.16-42.31 0-30.08 24.47-54.55 54.55-54.55s54.55 24.47 54.55 54.55c.01 17.06-7.86 32.3-20.15 42.31zm197.56 99.04-1.11-10.28c-.94-8.71 4.82-16.78 13.4-18.76 3.95-.91 7.96-1.62 11.94-2.12 1.75-.22 3.07-1.71 3.07-3.47v-14.93c0-1.18-.59-2.28-1.58-2.92-6.56-4.31-10.84-11.26-11.74-19.05-.19-1.62-1.46-2.88-3.04-3.07l-2.94-1.31c-1.04-.46-1.77-1.46-1.9-2.59l-.76-6.7c-.05-.42.15-.71.27-.85.12-.13.39-.36.81-.36h3.1c.96 0 1.87-.39 2.53-1.09.66-.69 1.01-1.63.96-2.58l-.1-2.08c-.34-6.92 2.1-13.5 6.89-18.52s11.23-7.79 18.16-7.79 13.38 2.77 18.16 7.79 7.23 11.6 6.89 18.52l-.1 2.08c-.05.96.3 1.89.96 2.58s1.58 1.09 2.53 1.09h3.12c.42 0 .69.23.81.36.12.14.32.43.27.85l-.76 6.7c-.13 1.13-.86 2.13-1.9 2.59l-2.93 1.3c-1.6.18-2.89 1.44-3.08 3.08-.9 7.79-5.18 14.74-11.74 19.05-.98.65-1.58 1.75-1.58 2.92v14.92c0 1.77 1.32 3.26 3.07 3.47 4.02.5 8.1 1.22 12.11 2.16 8.49 1.97 14.18 10.02 13.25 18.72l-1.11 10.28c-11.18 6.47-24.15 10.19-37.97 10.19-13.81.01-26.77-3.71-37.96-10.18zm83.52-4.97.49-4.55c1.31-12.21-6.69-23.52-18.62-26.29-3.23-.75-6.51-1.38-9.77-1.86v-10.04c6.81-5.05 11.42-12.46 12.94-20.79l2.23-.99c3.3-1.47 5.61-4.61 6.01-8.2l.76-6.7c.26-2.29-.47-4.58-2-6.3-1.42-1.59-3.41-2.55-5.52-2.68.01-8.28-3.1-16.08-8.85-22.12-6.11-6.42-14.37-9.96-23.23-9.96-8.87 0-17.12 3.54-23.23 9.96-5.75 6.04-8.86 13.84-8.85 22.12-2.1.14-4.08 1.1-5.49 2.68-1.53 1.72-2.26 4.01-2 6.3l.76 6.7c.41 3.59 2.71 6.73 6.01 8.2l2.2.98c1.52 8.34 6.13 15.75 12.94 20.81v10.05c-3.2.48-6.41 1.09-9.58 1.82-12.02 2.78-20.1 14.1-18.78 26.33l.49 4.55c-18.55-13.9-30.58-36.05-30.58-60.96 0-41.98 34.15-76.12 76.12-76.12s76.12 34.15 76.12 76.12c.01 24.89-12.02 47.04-30.57 60.94z"/></g><path d="m451.33 271.77c-1.88 0-3.44-1.5-3.5-3.39-.06-1.93 1.46-3.55 3.39-3.61l26.03-.83c1.9-.05 3.55 1.46 3.61 3.39s-1.46 3.55-3.39 3.61l-26.03.83c-.03 0-.07 0-.11 0z" fill="#f46e94"/><path d="m433.62 363.42c-1.01 0-2.02-.44-2.71-1.28l-16.51-20.14c-1.23-1.5-1.01-3.7.49-4.93 1.49-1.23 3.7-1.01 4.93.49l16.51 20.13c1.23 1.5 1.01 3.7-.49 4.93-.65.54-1.44.8-2.22.8z" fill="#f46e94"/><path d="m82.64 374.43c-.56 0-1.12-.13-1.65-.42-1.7-.91-2.35-3.03-1.43-4.74l12.29-22.96c.91-1.7 3.03-2.34 4.74-1.43 1.7.91 2.35 3.03 1.43 4.74l-12.29 22.96c-.63 1.18-1.84 1.85-3.09 1.85z" fill="#f46e94"/><path d="m24.4 290.33c-1.68 0-3.17-1.22-3.45-2.93-.31-1.91.98-3.71 2.88-4.02l25.69-4.24c1.91-.32 3.71.98 4.02 2.88.31 1.91-.98 3.71-2.88 4.02l-25.69 4.24c-.19.04-.38.05-.57.05z" fill="#f46e94"/></svg>