<svg height="512" viewBox="0 0 64 64" width="512" xmlns="http://www.w3.org/2000/svg"><g id="expanded"><g fill="#2a3854"><path d="m20.16791 41.875a31.92891 31.92891 0 0 0 -4.08917-9.15131c-.02655-.00012-.05213-.004-.07874-.004s-.05219.00384-.07874.004a31.92891 31.92891 0 0 0 -4.08917 9.15131z"/><path d="m8.83978 44.375h-7.6441a14.719 14.719 0 0 0 .0003 7.19043h7.64392a26.48248 26.48248 0 0 1 -.00012-7.19043z"/><path d="m20.68274 44.375h-9.36542a23.78129 23.78129 0 0 0 .00012 7.19043h9.36518a23.78129 23.78129 0 0 0 .00012-7.19043z"/><path d="m11.83234 54.06543a31.929 31.929 0 0 0 4.08892 9.15033c.02655.00012.05213.004.07874.004s.05219-.00385.07874-.004a31.929 31.929 0 0 0 4.08892-9.15033z"/><path d="m22.70245 41.875h7.268a15.29891 15.29891 0 0 0 -10.7962-8.81793 32.7778 32.7778 0 0 1 3.5282 8.81793z"/><path d="m22.70221 54.06543a32.77982 32.77982 0 0 1 -3.528 8.817 15.29891 15.29891 0 0 0 10.79579-8.817z"/><path d="m30.804 51.56543a14.719 14.719 0 0 0 .0003-7.19043h-7.6441a26.48248 26.48248 0 0 1 -.00012 7.19043z"/><path d="m9.29779 54.06543h-7.26779a15.29891 15.29891 0 0 0 10.79577 8.817 32.77982 32.77982 0 0 1 -3.52798-8.817z"/><path d="m9.29755 41.875a32.7778 32.7778 0 0 1 3.52819-8.81793 15.29891 15.29891 0 0 0 -10.7962 8.81793z"/></g><path d="m34.75977 3.25h-3a1.25 1.25 0 0 1 0-2.5h3a1.25 1.25 0 0 1 0 2.5z" fill="#ff8a93"/><path d="m2 31.6001a1.24991 1.24991 0 0 1 -1.25-1.25v-26.3501a3.25377 3.25377 0 0 1 3.25-3.25h22.75977a1.25 1.25 0 0 1 0 2.5h-22.75977a.76011.76011 0 0 0 -.75.75v26.3501a1.24991 1.24991 0 0 1 -1.25 1.25z" fill="#2a3854"/><path d="m58.25 15.75h-10v-11.75a3.25377 3.25377 0 0 0 -3.25-3.25h-5.24023a1.25 1.25 0 0 0 0 2.5h5.24023a.76011.76011 0 0 1 .75.75v50.5a8.71988 8.71988 0 0 0 2.63763 6.25h-18.38763a1.25 1.25 0 0 0 0 2.5h24.5a8.75935 8.75935 0 0 0 8.75-8.75v-33.75a5.00588 5.00588 0 0 0 -5-5zm-10 2.5h5.69556a4.94151 4.94151 0 0 0 -.69556 2.5v29.07813h-5zm12.5 36.25a6.25 6.25 0 0 1 -12.5 0v-2.17187h5.25a2.25309 2.25309 0 0 0 2.25-2.25v-29.32813a2.5 2.5 0 0 1 5 0z" fill="#2a3854"/><path d="m42.10352 5.88818h-35.20704a1.24991 1.24991 0 0 0 -1.25 1.25v13.57471a1.24991 1.24991 0 0 0 1.25 1.25h35.207a1.24991 1.24991 0 0 0 1.25-1.25v-13.57471a1.24991 1.24991 0 0 0 -1.24996-1.25zm-29.06739 12.00635-2.96777-4.29687v3.87695a1 1 0 0 1 -2 0v-7.08447a1.00105 1.00105 0 0 1 1.82324-.56836l3.12207 4.52148-.03808-3.95654a1.00072 1.00072 0 0 1 .99023-1.00972h.00977a.9999.9999 0 0 1 1 .99024l.0664 6.8584a1.09162 1.09162 0 0 1 -2.00586.66889zm7.58106-4.96875a1 1 0 0 1 0 2h-1.74512v1.51611h1.96387a1 1 0 0 1 0 2h-2.96387a.99974.99974 0 0 1 -1-1v-7.03271a.99974.99974 0 0 1 1-1h2.96387a1 1 0 0 1 0 2h-1.96387v1.5166zm11.07812 4.63522a1.15964 1.15964 0 0 1 -2.22558.14111l-1.21125-3.92987-1.20379 3.88934a1.15933 1.15933 0 0 1 -2.23926-.1001l-1.38281-6.99068a1.00041 1.00041 0 0 1 1.96289-.38769l.7334 3.708 1.1748-3.79736a1.01076 1.01076 0 0 1 1.91113-.01123l1.17188 3.80713.73633-3.69531a.99973.99973 0 1 1 1.96095.39066zm9.19727-1.44874a3.03878 3.03878 0 0 1 -3.09668 2.36231 4.331 4.331 0 0 1 -3.21485-1.38037 1.00024 1.00024 0 0 1 1.48243-1.3432 2.35658 2.35658 0 0 0 1.73242.72363 1.07869 1.07869 0 0 0 1.12793-.71387c.082-.45654-.63574-.75928-.8584-.84131-1.10352-.40673-2.085-.84375-2.126-.8623-1.74156-.76629-1.7152-3.80058.69336-4.52637a4.26 4.26 0 0 1 3.707.81055 1 1 0 0 1 -1.2812 1.53567 2.24384 2.24384 0 0 0 -1.84959-.4312c-.53249.16094-.591.62834-.36328.82568.26465.11524 1.05957.45752 1.91211.77149 1.85643.68503 2.3203 2.03467 2.13475 3.06933z" fill="#5dd1fd"/><path d="m42.10352 28.59766h-35.20704a1.25 1.25 0 0 1 0-2.5h35.207a1.25 1.25 0 0 1 0 2.5z" fill="#2a3854"/><path d="m42.10352 35.73047h-11.92286a1.25 1.25 0 0 1 0-2.5h11.92286a1.25 1.25 0 0 1 0 2.5z" fill="#2a3854"/><path d="m42.10352 41.99023h-8.84473a1.25 1.25 0 0 1 0-2.5h8.84473a1.25 1.25 0 0 1 0 2.5z" fill="#2a3854"/><path d="m42.10352 48.25h-6.78125a1.25 1.25 0 0 1 0-2.5h6.78125a1.25 1.25 0 0 1 0 2.5z" fill="#2a3854"/><path d="m42.10352 54.50977h-6.78125a1.25 1.25 0 0 1 0-2.5h6.78125a1.25 1.25 0 0 1 0 2.5z" fill="#2a3854"/></g></svg>