<svg id="Master_Line" enable-background="new 0 0 512 512" height="512" viewBox="0 0 512 512" width="512" xmlns="http://www.w3.org/2000/svg"><path d="m259.66 419.6h-7.27c-2.56 0-4.79-1.74-5.41-4.22l-1.01-4.03h20.15l-1.07 4.08c-.64 2.46-2.86 4.17-5.39 4.17z" fill="#ebeced"/><path d="m252.43 463.52h7.27c2.56 0 4.79 1.74 5.41 4.22l1.01 4.03h-20.15l1.07-4.08c.63-2.45 2.85-4.17 5.39-4.17z" fill="#ebeced"/><path d="m286.05 324.08h-60.1c-7.15 0-13.52-4.52-15.88-11.28l-.02-.05h91.89c-2.34 6.79-8.72 11.33-15.89 11.33z" fill="#ebeced"/><path d="m243.04 434.62c-44.19 0-80.14-35.95-80.14-80.14 0-1.93 1.57-3.5 3.5-3.5s3.5 1.57 3.5 3.5c0 40.33 32.81 73.14 73.14 73.14 1.93 0 3.5 1.57 3.5 3.5s-1.57 3.5-3.5 3.5z" fill="#2a3853"/><path d="m317.08 284.51v-65.08c0-22.57-18.3-40.87-40.87-40.87h-40.42c-22.57 0-40.87 18.3-40.87 40.87v65.08z" fill="#5cd1fd"/><path d="m269.13 398.7h-26.26c-1.61 0-2.92-1.31-2.92-2.92v-4.59c0-1.61 1.31-2.92 2.92-2.92h26.26c1.61 0 2.92 1.31 2.92 2.92v4.59c0 1.61-1.31 2.92-2.92 2.92z" fill="#ebeced"/><g fill="#5cd1fd"><path d="m380.47 66.47c1-1.27 1.51-3.03 1.51-5.27 0-1.75-.41-3.29-1.21-4.62-.81-1.33-1.93-2.33-3.37-2.99-1.36-.63-4.03-.95-8.03-.95h-10.73v17.33h10.41c2.79 0 5.14-.26 7.05-.8 1.91-.52 3.36-1.42 4.37-2.7z"/><path d="m278.04 81.46h17.15l-8.66-26.01z"/><path d="m153.81 54.74c-2.52-1.73-5.41-2.6-8.67-2.6-2.32 0-4.47.48-6.44 1.44s-3.67 2.36-5.09 4.19-2.54 4.18-3.37 7.03c-.82 2.85-1.23 6.06-1.23 9.61 0 3.58.41 6.82 1.23 9.72s1.98 5.29 3.48 7.2 3.22 3.33 5.17 4.28c1.94.95 4.08 1.42 6.4 1.42 2.98 0 5.71-.82 8.2-2.45s4.48-4.16 5.95-7.57 2.21-7.61 2.21-12.6c0-4.61-.68-8.61-2.04-11.99-1.35-3.39-3.28-5.95-5.8-7.68z"/><path d="m399.92 16h-287.84c-11.6 0-21 9.4-21 21v75.15c0 11.6 9.4 21 21 21h287.84c11.6 0 21-9.4 21-21v-75.15c0-11.6-9.4-21-21-21zm-228.28 71.78c-1.2 3.98-3 7.44-5.4 10.36s-5.35 5.16-8.85 6.71-7.5 2.32-12.02 2.32c-4.49 0-8.51-.8-12.06-2.39s-6.51-3.83-8.89-6.73c-2.38-2.89-4.17-6.38-5.38-10.45s-1.82-8.47-1.82-13.2c0-4.84.63-9.29 1.9-13.33s3.1-7.48 5.5-10.32 5.32-5.01 8.77-6.51c3.44-1.5 7.36-2.26 11.74-2.26 5.95 0 11.06 1.33 15.33 3.98s7.5 6.42 9.69 11.31 3.29 10.63 3.29 17.22c0 4.87-.6 9.3-1.8 13.29zm59.93 11.09c0 5.53-2.09 8.3-6.26 8.3-1.04 0-1.98-.17-2.82-.49-.84-.33-1.62-.85-2.35-1.57s-1.41-1.55-2.04-2.52c-.63-.96-1.25-1.94-1.88-2.94l-21.8-36.71v36.93c0 2.41-.51 4.23-1.53 5.46s-2.32 1.85-3.91 1.85c-1.64 0-2.96-.62-3.95-1.87s-1.49-3.06-1.49-5.44v-48.64c0-2.06.21-3.68.63-4.86.5-1.29 1.32-2.34 2.47-3.16s2.39-1.23 3.72-1.23c1.04 0 1.94.19 2.68.56s1.4.87 1.96 1.5 1.13 1.45 1.72 2.45 1.19 2.05 1.82 3.14l22.35 37.14v-37.47c0-2.44.48-4.26 1.43-5.48s2.24-1.83 3.86-1.83c1.67 0 2.99.61 3.95 1.83.97 1.22 1.45 3.05 1.45 5.48v49.57zm80.23 6.47c-1.11 1.22-2.45 1.83-4.01 1.83-.91 0-1.7-.18-2.35-.54s-1.2-.85-1.64-1.46c-.44-.62-.92-1.56-1.43-2.84-.51-1.27-.95-2.4-1.31-3.38l-2.74-7.91h-23.33l-2.74 8.08c-1.07 3.15-1.98 5.28-2.74 6.38s-2 1.66-3.72 1.66c-1.46 0-2.75-.59-3.88-1.76-1.12-1.17-1.68-2.51-1.68-4 0-.86.13-1.75.39-2.67s.69-2.19 1.29-3.83l14.68-40.93c.42-1.17.92-2.59 1.51-4.23.59-1.65 1.21-3.02 1.88-4.11s1.54-1.97 2.62-2.64 2.42-1.01 4.01-1.01c1.62 0 2.97.34 4.05 1.01s1.96 1.54 2.62 2.6c.67 1.06 1.23 2.2 1.68 3.42.46 1.22 1.04 2.84 1.74 4.88l14.99 40.67c1.17 3.1 1.76 5.35 1.76 6.75.02 1.47-.54 2.81-1.65 4.03zm22.3-5.96c0 2.61-.54 4.56-1.62 5.85s-2.5 1.93-4.25 1.93c-1.67 0-3.05-.65-4.13-1.96-1.08-1.3-1.62-3.25-1.62-5.83v-49.64c0-2.58.53-4.51 1.6-5.8s2.45-1.93 4.15-1.93c1.75 0 3.16.64 4.25 1.91 1.08 1.28 1.62 3.22 1.62 5.83zm59.95 5.14c-.48.82-1.14 1.46-1.98 1.93s-1.8.71-2.9.71c-1.31 0-2.4-.34-3.29-1.01s-1.65-1.53-2.29-2.56-1.51-2.55-2.6-4.56l-4.66-8.51c-1.67-3.12-3.16-5.5-4.48-7.14s-2.66-2.75-4.01-3.35c-1.36-.6-3.07-.9-5.13-.9h-4.07v20.25c0 2.67-.54 4.63-1.6 5.89-1.07 1.26-2.47 1.89-4.19 1.89-1.85 0-3.29-.66-4.31-1.98s-1.53-3.25-1.53-5.8v-48.49c0-2.75.56-4.74 1.68-5.98 1.12-1.23 2.94-1.85 5.44-1.85h18.91c2.61 0 4.84.12 6.69.37 1.85.24 3.52.74 5.01 1.48 1.8.83 3.39 2.02 4.78 3.57 1.38 1.55 2.43 3.35 3.15 5.4s1.08 4.22 1.08 6.51c0 4.7-1.21 8.46-3.62 11.26-2.41 2.81-6.07 4.8-10.98 5.98 2.06 1.2 4.03 2.98 5.91 5.33s3.56 4.85 5.03 7.5 2.62 5.04 3.45 7.18c.82 2.14 1.23 3.6 1.23 4.41 0 .83-.24 1.65-.72 2.47z"/></g><g fill="#f46e94"><path d="m87.58 490.44c-.38 0-.76-.06-1.14-.19-1.83-.63-2.8-2.62-2.17-4.45l8.49-24.62c.63-1.83 2.62-2.8 4.45-2.17s2.8 2.62 2.17 4.45l-8.49 24.62c-.5 1.45-1.86 2.36-3.31 2.36z"/><path d="m16.72 416.67c-1.46 0-2.83-.93-3.32-2.39-.61-1.83.37-3.82 2.21-4.43l24.69-8.27c1.83-.62 3.82.37 4.43 2.21.61 1.83-.37 3.82-2.21 4.43l-24.69 8.27c-.37.12-.75.18-1.11.18z"/><path d="m430.33 165.04c-.67 0-1.35-.19-1.95-.6-1.6-1.08-2.02-3.26-.94-4.86l14.56-21.59c1.08-1.6 3.26-2.03 4.86-.94 1.6 1.08 2.02 3.26.94 4.86l-14.56 21.59c-.68.99-1.78 1.54-2.91 1.54z"/><path d="m468.29 223.71c-1.82 0-3.36-1.41-3.49-3.25-.14-1.93 1.31-3.6 3.24-3.74l25.97-1.86c1.94-.13 3.6 1.31 3.74 3.24s-1.31 3.6-3.24 3.74l-25.97 1.86c-.08.01-.17.01-.25.01z"/></g><g fill="#2a3853"><path d="m218.44 331.02c-1.93 0-3.5 1.57-3.5 3.5v22.89c0 1.93 1.57 3.5 3.5 3.5s3.5-1.57 3.5-3.5v-22.89c0-1.94-1.57-3.5-3.5-3.5z"/><path d="m243.48 360.91c1.93 0 3.5-1.57 3.5-3.5v-22.89c0-1.93-1.57-3.5-3.5-3.5s-3.5 1.57-3.5 3.5v22.89c0 1.93 1.57 3.5 3.5 3.5z"/><path d="m268.52 360.91c1.93 0 3.5-1.57 3.5-3.5v-22.89c0-1.93-1.57-3.5-3.5-3.5s-3.5 1.57-3.5 3.5v22.89c0 1.93 1.57 3.5 3.5 3.5z"/><path d="m293.56 360.91c1.93 0 3.5-1.57 3.5-3.5v-22.89c0-1.93-1.57-3.5-3.5-3.5s-3.5 1.57-3.5 3.5v22.89c0 1.93 1.57 3.5 3.5 3.5z"/><path d="m368.94 192.58c-1.51-1.2-3.72-.95-4.92.57-1.2 1.51-.95 3.72.57 4.92 31.02 24.6 48.81 61.39 48.81 100.94 0 39.54-17.79 76.33-48.81 100.94-1.51 1.2-1.77 3.4-.57 4.92.69.87 1.71 1.33 2.74 1.33.76 0 1.53-.25 2.17-.76 32.7-25.94 51.46-64.73 51.46-106.42.01-41.71-18.75-80.5-51.45-106.44z"/><path d="m395.62 164.37c-1.49-1.23-3.7-1.02-4.93.47s-1.02 3.7.47 4.93c38.73 31.96 60.94 79.07 60.94 129.23 0 49.73-21.9 96.57-60.08 128.51-1.48 1.24-1.68 3.45-.44 4.93.69.83 1.69 1.25 2.69 1.25.79 0 1.59-.27 2.24-.82 39.78-33.27 62.59-82.07 62.59-133.88.01-52.25-23.13-101.32-63.48-134.62z"/><path d="m147.41 198.07c1.51-1.2 1.77-3.4.57-4.92-1.2-1.51-3.4-1.77-4.92-.57-32.7 25.94-51.46 64.73-51.46 106.42s18.76 80.48 51.46 106.42c.64.51 1.41.76 2.17.76 1.03 0 2.05-.45 2.74-1.33 1.2-1.51.95-3.72-.57-4.92-31.01-24.59-48.8-61.38-48.8-100.93 0-39.54 17.79-76.33 48.81-100.93z"/><path d="m59.89 299c0-49.73 21.9-96.57 60.08-128.51 1.48-1.24 1.68-3.45.44-4.93s-3.45-1.68-4.93-.44c-39.78 33.28-62.59 82.08-62.59 133.88 0 51.81 22.81 100.6 62.59 133.88.65.55 1.45.82 2.24.82 1 0 1.99-.43 2.69-1.25 1.24-1.48 1.04-3.69-.44-4.93-38.18-31.95-60.08-78.79-60.08-128.52z"/><path d="m340.49 295.13h-2.92v-3.32c0-5.95-4.84-10.8-10.8-10.8h-141.55c-5.95 0-10.8 4.84-10.8 10.8v3.32h-2.92c-4.75 0-8.61 3.86-8.61 8.61v50.74c0 43.16 34.31 78.45 77.08 80.06v33.73h-11.51c-15.77 0-28.6 12.83-28.6 28.6 0 1.93 1.57 3.5 3.5 3.5h105.27c1.93 0 3.5-1.57 3.5-3.5 0-15.77-12.83-28.6-28.6-28.6h-11.51v-33.73c42.78-1.62 77.08-36.9 77.08-80.06v-50.74c0-4.74-3.86-8.61-8.61-8.61zm-159.07-3.32c0-2.09 1.7-3.8 3.8-3.8h141.55c2.09 0 3.8 1.7 3.8 3.8v13.65c0 2.09-1.7 3.8-3.8 3.8h-141.55c-2.09 0-3.8-1.7-3.8-3.8zm-11.52 62.67v-50.74c0-.89.72-1.61 1.61-1.61h2.92v3.32c0 5.95 4.84 10.8 10.8 10.8h6.19v38.16c0 14.05 6.76 27.41 18.08 35.75.62.46 1.35.68 2.07.68 1.07 0 2.13-.49 2.82-1.42 1.15-1.56.81-3.75-.74-4.89-9.54-7.03-15.23-18.28-15.23-30.11v-38.16h115.17v38.16c0 15.91-9.99 29.51-24.03 34.89v-8.59c0-4.75-3.86-8.61-8.61-8.61h-49.9c-4.75 0-8.61 3.86-8.61 8.61v15.3c0 9.95 7.76 18.09 17.54 18.76v12.76c-38.92-1.61-70.08-33.76-70.08-73.06zm100.83 53.37h-29.46c-6.52 0-11.83-5.31-11.83-11.83v-15.3c0-.89.72-1.61 1.61-1.61h49.9c.89 0 1.61.72 1.61 1.61v15.3c0 6.53-5.31 11.83-11.83 11.83zm34.12 85.52h-97.7c1.68-10.25 10.6-18.1 21.32-18.1h55.06c10.72 0 19.64 7.85 21.32 18.1zm-57.87-25.1v-53.42h18.04v53.42zm95.12-113.79c0 39.3-31.17 71.45-70.08 73.06v-12.76c9.54-.65 17.14-8.43 17.5-18.05 17.98-5.67 31.06-22.49 31.06-42.32v-38.16h6.19c5.95 0 10.8-4.84 10.8-10.8v-3.32h2.92c.89 0 1.61.72 1.61 1.61z"/></g></svg>