<svg width="163" height="163" viewBox="0 0 163 163" fill="none" xmlns="http://www.w3.org/2000/svg">
<path d="M16.4436 146.199C16.4436 146.199 17.0717 146.036 18.1362 145.667C27.8595 141.621 34.0364 135.77 36.5057 133.106C40.7806 128.407 44.1407 122.507 44.0988 115.822C44.0988 114.105 43.8947 112.302 43.4143 110.366C41.6023 102.915 36.9265 93.4966 32.4977 82.943C28.1055 72.3676 23.9426 60.4502 23.9248 47.2533C23.8913 37.8431 26.1701 27.8789 31.7147 17.9188C24.9862 23.614 8.168 41.161 14.3355 70.3011C20.8034 100.864 34.3661 121.595 16.4436 146.199Z" fill="#E54C3A"/>
<path d="M133.305 81.0055C138.555 77.8601 142.324 73.703 144.593 68.5478C146.86 63.3958 148 58.4555 148 53.73C148 48.1462 147.256 42.9593 145.763 38.1619C144.269 33.3665 141.824 29.1776 138.414 25.5983C135.01 22.0211 130.646 19.1933 125.318 17.1147C119.993 15.0403 113.5 14 105.835 14H50.6961C50.6636 14.4106 50.6279 15.0403 50.6279 15.8733C50.6888 19.9828 51.4255 28.3087 57.3423 37.6253H57.4178L57.4052 37.5956H108.349C108.675 37.5956 108.965 37.6157 109.275 37.6253H109.453C109.566 37.6253 109.675 37.639 109.789 37.6422C109.981 37.6517 110.177 37.6581 110.362 37.6697C110.736 37.6909 111.106 37.7258 111.47 37.7756C114.75 38.1439 116.584 38.9715 116.584 38.9715C116.584 38.9715 127.725 42.3465 135.072 57.4056C135.072 57.4056 131.595 58.8481 126.937 62.6211C120.987 67.8863 116.043 73.1209 112.616 79.3915C110.436 83.3296 108.75 87.909 106.839 92.8197H109.452C113.57 92.8197 117.12 94.3966 120.099 97.5441C123.082 100.694 124.575 104.346 124.575 108.498C124.575 113.507 123.153 117.552 120.316 120.629C117.473 123.71 113.782 125.246 109.24 125.246H87.9138C84.0025 129.743 79.6494 133.891 74.8146 137.505C69.0027 141.848 63.2811 145.435 57.1523 148.871H105.836C113.503 148.871 120.028 147.727 125.425 145.435C130.824 143.144 135.19 140.138 138.525 136.416C141.858 132.693 144.27 128.436 145.763 123.637C147.256 118.841 148 113.938 148 108.929C148 103.632 146.83 98.4416 144.488 93.3584C142.144 88.2752 138.414 84.1572 133.305 81.0055Z" fill="#26A75C"/>
<path d="M91.6946 47.58C82.4644 48.0893 73.2864 47.7037 73.2875 47.7078C70.0719 47.5602 67.3472 47.3399 67.3472 47.3399C82.0404 68.1851 77.5886 86.7144 77.5886 86.7144C76.3241 79.4642 74.7446 67.2756 60.1947 55.7667C35.6902 35.9526 39.3968 14.1293 39.3968 14.1293C10.2928 51.6443 39.7464 83.305 46.0468 108.678C52.3493 134.057 23.2966 149.001 23.2966 149.001C30.3099 148.196 40.6487 145.356 48.0136 141.364C54.4627 137.862 60.2512 134.316 66.1915 129.948C75.4982 123.103 83.0495 114.041 88.748 104.071C90.405 101.171 91.9155 98.1942 93.2731 95.1434C96.2376 88.4961 98.3572 81.514 101.909 75.1255C105.948 67.8598 111.591 62.1001 117.834 56.6648C117.915 56.5962 119.574 55.142 119.644 55.2189C112.722 47.58 100.927 47.0717 91.6946 47.58ZM107.37 54.3406C106.638 54.3406 106.044 53.7523 106.044 53.0247C106.044 52.297 106.637 51.7087 107.37 51.7087C108.102 51.7087 108.695 52.297 108.695 53.0247C108.694 53.7523 108.101 54.3406 107.37 54.3406Z" fill="#FAD117"/>
</svg>
