<svg width="17" height="22" viewBox="0 0 17 22" fill="none" xmlns="http://www.w3.org/2000/svg">
<mask id="mask0_277_100458" style="mask-type:alpha" maskUnits="userSpaceOnUse" x="0" y="0" width="17" height="2">
<rect width="17" height="1.7416" rx="0.870802" fill="#F3B811"/>
</mask>
<g mask="url(#mask0_277_100458)">
<path d="M0 0H6.29V6.53102V9.57883C3.84462 9.57883 1.52031 8.44635 0 6.53102V0Z" fill="#E52021"/>
<rect x="6.2915" width="4.42" height="9.57883" fill="#F7F7F7"/>
<path d="M10.7085 0H16.9985V6.53102C15.4782 8.44635 13.1539 9.57883 10.7085 9.57883V6.53102V0Z" fill="#268A42"/>
<rect width="17" height="1.7416" rx="0.870802" fill="black" fill-opacity="0.05"/>
</g>
<path fill-rule="evenodd" clip-rule="evenodd" d="M6.295 1.74268H1.875V8.2737L2.25002 8.94604C2.48303 9.36379 2.77525 9.7363 3.11286 10.0554C3.23595 9.99197 3.36898 9.9451 3.50941 9.91805L3.98525 9.82642C4.05541 9.81295 4.12129 9.78213 4.17711 9.73666C4.23293 9.6912 4.27701 9.63247 4.30549 9.5656L4.49887 9.11215C4.79635 8.41459 5.56312 8.03738 6.28267 8.23478L6.295 8.23816V1.74268Z" fill="#E52021"/>
<path fill-rule="evenodd" clip-rule="evenodd" d="M10.712 1.74292H6.29199V8.23921L6.74431 8.36333C6.81326 8.38227 6.88569 8.38368 6.9553 8.36746C7.0249 8.35123 7.08956 8.31785 7.14363 8.27023L7.51047 7.94738C8.07483 7.45077 8.92603 7.45077 9.49032 7.94738L9.85713 8.27023C9.9112 8.31785 9.97586 8.35123 10.0455 8.36746C10.1151 8.38369 10.1875 8.38227 10.2565 8.36333L10.712 8.23833V1.74292Z" fill="#F7F7F7"/>
<path fill-rule="evenodd" clip-rule="evenodd" d="M15.1348 1.74268H10.7148V8.23884L10.7296 8.23478C11.4492 8.03731 12.216 8.41459 12.5134 9.11215L12.7068 9.56556C12.7353 9.63244 12.7793 9.69118 12.8352 9.73665C12.891 9.78212 12.9569 9.81294 13.027 9.82642L13.5029 9.91805C13.6427 9.94498 13.7752 9.99157 13.8978 10.0546C14.2351 9.73566 14.527 9.36344 14.7598 8.94604L15.1348 8.2737V1.74268Z" fill="#268A42"/>
<path d="M8.37703 1.1333L8.57416 3.27638L9.35265 1.27701L8.95245 3.39018L10.2492 1.69649L9.28413 3.60855L10.9942 2.35776L9.54232 3.91381L11.527 3.20725L9.7061 4.28122L11.8047 4.17613L9.76221 4.68103L11.8047 5.18592L9.7061 5.08083L11.527 6.15481L9.54232 5.44825L10.9942 7.00429L9.28413 5.7535L10.2492 7.66556L8.95245 5.97188L9.35265 8.08505L8.57416 6.08567L8.37703 8.22875L8.17989 6.08567L7.4014 8.08505L7.8016 5.97188L6.50481 7.66556L7.46992 5.7535L5.75989 7.00429L7.21173 5.44825L5.227 6.15481L7.04795 5.08083L4.94931 5.18592L6.99184 4.68103L4.94931 4.17613L7.04795 4.28122L5.227 3.20725L7.21173 3.91381L5.75989 2.35776L7.46992 3.60855L6.50481 1.69649L7.8016 3.39018L7.4014 1.27701L8.17989 3.27638L8.37703 1.1333Z" fill="#F7B70F"/>
<path fill-rule="evenodd" clip-rule="evenodd" d="M14.6869 15.3039C14.6571 15.2488 14.6415 15.1874 14.6415 15.1251C14.6415 15.0627 14.6571 15.0013 14.6868 14.9462L14.8886 14.5726C15.1991 13.9978 15.0304 13.2733 14.4962 12.8875L14.149 12.6367C14.0978 12.5997 14.0566 12.551 14.029 12.4949C14.0014 12.4387 13.9882 12.3768 13.9907 12.3145L14.0071 11.892C14.0323 11.2422 13.5596 10.6612 12.9074 10.5407L12.4836 10.4623C12.4211 10.4508 12.3624 10.4245 12.3127 10.3856C12.2629 10.3467 12.2237 10.2965 12.1983 10.2394L12.0261 9.85179C11.7611 9.25553 11.078 8.93303 10.437 9.10183L10.0205 9.21151C9.95906 9.22771 9.89453 9.22892 9.83252 9.21505C9.77051 9.20118 9.71291 9.17264 9.66474 9.13193L9.33798 8.85596C8.83531 8.43148 8.07706 8.43148 7.57433 8.85596L7.24754 9.13193C7.19938 9.17264 7.14178 9.20117 7.07978 9.21504C7.01777 9.22892 6.95325 9.2277 6.89183 9.21151L6.47526 9.10183C5.83428 8.9331 5.15124 9.25553 4.88624 9.85179L4.71397 10.2394C4.6886 10.2966 4.64934 10.3468 4.59961 10.3856C4.54989 10.4245 4.49121 10.4508 4.4287 10.4623L4.00483 10.5407C3.3527 10.6612 2.87995 11.2422 2.90519 11.892L2.92159 12.3145C2.92404 12.3768 2.91089 12.4387 2.8833 12.4949C2.85571 12.551 2.8145 12.5997 2.76329 12.6367L2.41607 12.8875C1.88188 13.2734 1.71317 13.9979 2.02361 14.5727L2.22541 14.9463C2.2552 15.0014 2.27077 15.0628 2.27077 15.1251C2.27077 15.1874 2.2552 15.2488 2.22541 15.3039L2.02361 15.6775C1.71317 16.2523 1.88188 16.9768 2.41607 17.3627L2.76325 17.6135C2.81448 17.6504 2.85569 17.6991 2.88328 17.7553C2.91088 17.8115 2.92402 17.8734 2.92155 17.9357L2.90515 18.3581C2.87991 19.0081 3.35267 19.589 4.0048 19.7095L4.22705 19.7506L4.2271 19.7505L4.42861 19.7877C4.49112 19.7993 4.54981 19.8256 4.59954 19.8645C4.64927 19.9034 4.68854 19.9536 4.71391 20.0108L4.88615 20.3983C5.15114 20.9946 5.83422 21.3171 6.47517 21.1483L6.89174 21.0386C6.95316 21.0224 7.01769 21.0212 7.0797 21.0351C7.1417 21.0489 7.19931 21.0775 7.24748 21.1182L7.57423 21.3941C7.60138 21.4169 7.62945 21.4387 7.65838 21.4593L7.65831 21.4594L7.65844 21.4593C7.89419 21.628 8.17511 21.7126 8.45612 21.7126C8.73284 21.7126 9.0095 21.6308 9.24301 21.4672L9.24298 21.4671C9.27575 21.4442 9.30743 21.4199 9.33792 21.3941L9.66471 21.1182C9.71287 21.0775 9.77047 21.0489 9.83247 21.0351C9.89448 21.0212 9.959 21.0224 10.0204 21.0386L10.437 21.1483C10.5517 21.1784 10.6676 21.1929 10.7823 21.1929C11.3088 21.1929 11.8084 20.8879 12.026 20.3983L12.1983 20.0107C12.2236 19.9536 12.2629 19.9033 12.3126 19.8645C12.3623 19.8256 12.421 19.7993 12.4835 19.7877L12.6712 19.7531L12.6712 19.7532L12.6712 19.7531L12.9075 19.7095C13.5596 19.589 14.0324 19.008 14.0071 18.3581L13.9907 17.9357C13.9882 17.8734 14.0014 17.8115 14.029 17.7553C14.0566 17.6991 14.0978 17.6504 14.149 17.6135L14.4962 17.3627C15.0304 16.9768 15.1991 16.2523 14.8887 15.6775L14.6869 15.3039Z" fill="#D5D5D5"/>
<ellipse cx="8.4576" cy="15.158" rx="4.30721" ry="4.22127" fill="white"/>
<path d="M11.1737 14.8131C11.3204 14.6729 11.3724 14.4673 11.3091 14.2762C11.2457 14.0851 11.0804 13.9487 10.8778 13.9196L9.60494 13.7382C9.59328 13.7365 9.58222 13.7321 9.57271 13.7253C9.56319 13.7185 9.5555 13.7095 9.5503 13.6992L8.98129 12.569C8.89062 12.389 8.70695 12.2771 8.50207 12.2771C8.29719 12.2771 8.11352 12.3893 8.02285 12.569L7.45384 13.6992C7.44868 13.7096 7.441 13.7185 7.43148 13.7253C7.42195 13.7321 7.41087 13.7366 7.3992 13.7382L6.12691 13.9196C5.92406 13.9487 5.75842 14.0851 5.69535 14.2762C5.63229 14.4673 5.68402 14.6729 5.83078 14.8131L6.75143 15.6926C6.76887 15.7091 6.77642 15.7327 6.77236 15.7558L6.55498 16.9976C6.5377 17.0939 6.54849 17.1931 6.58612 17.2838C6.62374 17.3744 6.68668 17.4528 6.76771 17.5099C6.84818 17.5677 6.94363 17.6022 7.04313 17.6093C7.14263 17.6164 7.24216 17.5959 7.33033 17.5501L8.46836 16.9637C8.47883 16.9582 8.4905 16.9554 8.50236 16.9554C8.51422 16.9554 8.52589 16.9582 8.53636 16.9637L9.67439 17.5501C9.76254 17.5957 9.86201 17.6162 9.96143 17.6091C10.0609 17.602 10.1563 17.5676 10.2367 17.5099C10.3178 17.4528 10.3807 17.3744 10.4184 17.2838C10.456 17.1931 10.4668 17.0939 10.4495 16.9976L10.2321 15.7558C10.2301 15.7444 10.231 15.7327 10.2346 15.7217C10.2383 15.7107 10.2446 15.7007 10.253 15.6926L11.1737 14.8131Z" fill="#F3B811"/>
</svg>
