<svg width="25" height="25" viewBox="0 0 25 25" fill="none" xmlns="http://www.w3.org/2000/svg">
<path opacity="0.5" d="M10.1489 19.1424H20.7062M20.7062 12.5424H13.1653M20.7062 5.94238H16.1817" stroke="#1C274C" stroke-linecap="round"/>
<path opacity="0.5" d="M12.1384 5.94238L4.20459 5.94238M9.32417 12.5424H4.20459M4.20459 19.1424H6.63804" stroke="#1C274C" stroke-linecap="round"/>
<path d="M14.3922 7.59248C13.4545 7.59248 12.6943 6.85375 12.6943 5.94248C12.6943 5.03121 13.4545 4.29248 14.3922 4.29248C15.33 4.29248 16.0902 5.03121 16.0902 5.94248C16.0902 6.85375 15.33 7.59248 14.3922 7.59248Z" stroke="#1BC469"/>
<path d="M10.9962 14.1926C10.0585 14.1926 9.29834 13.4538 9.29834 12.5426C9.29834 11.6313 10.0585 10.8926 10.9962 10.8926C11.934 10.8926 12.6942 11.6313 12.6942 12.5426C12.6942 13.4538 11.934 14.1926 10.9962 14.1926Z" stroke="#1BC469"/>
<path d="M8.44791 20.7927C9.38564 20.7927 10.1458 20.0539 10.1458 19.1427C10.1458 18.2314 9.38564 17.4927 8.44791 17.4927C7.51018 17.4927 6.75 18.2314 6.75 19.1427C6.75 20.0539 7.51018 20.7927 8.44791 20.7927Z" stroke="#1BC469"/>
</svg>
