<svg width="15" height="17" viewBox="0 0 15 17" fill="none" xmlns="http://www.w3.org/2000/svg">
<path d="M8.22332 16.0475C11.5929 16.0475 14.3246 13.331 14.3246 9.98015C14.3246 6.62927 11.5929 3.91284 8.22332 3.91284C4.85369 3.91284 2.12207 6.62927 2.12207 9.98015C2.12207 13.331 4.85369 16.0475 8.22332 16.0475Z" fill="url(#paint0_radial_277_100003)"/>
<path opacity="0.64" d="M6.92948 8.77228C6.92948 8.77228 6.7655 7.60041 6.04381 7.38904C5.53813 7.24093 4.289 8.04243 4.46931 9.0413C4.46931 9.0413 5.68306 9.80981 6.92948 8.77228Z" fill="url(#paint1_radial_277_100003)"/>
<path opacity="0.64" d="M9.48193 8.60637C9.48193 8.60637 9.62649 7.43052 10.3855 7.20039C10.9175 7.0392 12.2607 7.8078 12.0945 8.81111C12.0945 8.81111 10.8281 9.61096 9.48193 8.60637Z" fill="url(#paint2_radial_277_100003)"/>
<path d="M7.22604 8.59399C7.22604 8.59399 6.33978 9.48475 4.28821 8.95421C4.06567 8.91724 4.25154 9.44271 5.21482 9.56326C6.37861 9.70858 7.55758 8.69781 7.22604 8.59399Z" fill="#FFF200"/>
<path d="M7.19606 8.55078C7.19606 8.55078 6.03131 9.1754 4.3398 8.95235C4.12154 8.91355 4.28505 9.22325 5.22896 9.35095C6.36933 9.50537 7.52139 8.6567 7.19606 8.55078Z" fill="url(#paint3_radial_277_100003)"/>
<path d="M7.21707 8.54614C7.21707 8.54614 6.32602 9.47684 4.31365 8.93147C4.09548 8.89295 4.30983 9.31076 5.25375 9.43855C6.39402 9.59283 7.54226 8.65206 7.21707 8.54614Z" fill="#601B05"/>
<path d="M5.90659 6.94643C5.90659 6.94643 4.91377 6.80194 4.41895 7.54296C4.41895 7.54296 5.10751 7.03473 6.03836 7.12226C6.0695 6.97741 5.90659 6.94643 5.90659 6.94643Z" fill="url(#paint4_radial_277_100003)"/>
<path d="M5.94042 6.99777C5.94042 6.99777 4.98689 6.91977 4.39844 7.57289C4.39844 7.57289 5.07407 7.1063 6.00492 7.19382C6.13434 7.05451 5.94042 6.99777 5.94042 6.99777Z" fill="#FFF200"/>
<path d="M5.92536 6.98768C5.92536 6.98768 4.94589 6.88373 4.39111 7.57963C4.39111 7.57963 5.06707 7.06564 5.99792 7.15321C6.11584 7.04176 5.92536 6.98768 5.92536 6.98768Z" fill="#601B05"/>
<path d="M9.30678 8.54917C9.30678 8.54917 10.3008 9.31923 12.2667 8.531C12.4826 8.46585 12.3663 9.01072 11.4265 9.2533C10.2912 9.54612 8.99139 8.69443 9.30678 8.54917Z" fill="#FFF200"/>
<path d="M9.33037 8.50342C9.33037 8.50342 10.5663 8.97417 12.2147 8.53686C12.4261 8.47052 12.3041 8.79852 11.3845 9.04586C10.2736 9.34458 9.02142 8.65006 9.33037 8.50342Z" fill="url(#paint5_radial_277_100003)"/>
<path d="M9.30912 8.50049C9.30912 8.50049 10.3128 9.30976 12.2383 8.51193C12.4496 8.44559 12.291 8.88733 11.3715 9.13485C10.2605 9.43339 9.00018 8.64703 9.30912 8.50049Z" fill="#601B05"/>
<path d="M10.2023 6.75916C10.2023 6.75916 11.1535 6.44127 11.7731 7.08295C11.7731 7.08295 11.0046 6.70467 10.1043 6.95562C10.0476 6.81859 10.2023 6.75916 10.2023 6.75916Z" fill="url(#paint6_radial_277_100003)"/>
<path d="M10.1778 6.81606C10.1778 6.81606 11.102 6.57064 11.798 7.10911C11.798 7.10911 11.0499 6.76962 10.1494 7.02058C9.99713 6.90629 10.1778 6.81606 10.1778 6.81606Z" fill="#FFF200"/>
<path d="M10.1916 6.80403C10.1916 6.80403 11.1369 6.52823 11.8074 7.11483C11.8074 7.11483 11.0502 6.72872 10.1498 6.97949C10.0139 6.89082 10.1916 6.80403 10.1916 6.80403Z" fill="#601B05"/>
<path d="M2.1665 9.25543C2.71217 7.37065 3.76185 6.39204 7.53023 5.94993C9.32406 5.73952 10.8505 5.51991 11.9951 5.21332C10.9569 4.39965 9.6475 3.91284 8.22298 3.91284C5.1002 3.91289 2.52698 6.2466 2.1665 9.25543Z" fill="url(#paint7_radial_277_100003)"/>
<path d="M3.11377 3.06889C3.11377 3.06889 3.29638 1.60347 5.11229 1.12165C6.9282 0.6396 9.10703 0.708595 9.62031 1.10998C10.1336 1.51155 11.8061 1.21869 12.2533 2.24607C12.7007 3.27358 13.5852 3.77403 13.5852 3.77403C13.5852 3.77403 15.2762 4.58362 14.6865 5.99747" fill="url(#paint8_radial_277_100003)"/>
<path d="M10.585 3.22787L11.5034 2.80375C11.3272 2.29379 10.8924 1.76836 10.494 1.36414C10.1283 1.30681 9.80222 1.25159 9.62085 1.10975C9.32023 0.87463 8.44846 0.753843 7.41309 0.79072C8.6498 1.30393 10.585 3.22787 10.585 3.22787Z" fill="url(#paint9_radial_277_100003)"/>
<path d="M11.182 4.67432L9.57178 5.2508C9.57178 5.2508 12.0565 5.79855 13.1598 7.28446C13.8677 8.23799 14.1614 8.90928 14.2811 9.26839C14.0484 7.28863 12.858 5.60053 11.182 4.67432Z" fill="url(#paint10_radial_277_100003)"/>
<path d="M9.53906 4.89236C9.53906 4.89236 12.0238 5.44016 13.127 6.92602C14.2303 8.41207 14.2811 9.26874 14.2811 9.26874C14.2811 9.26874 15.3241 8.09752 14.7649 6.18867C14.2058 4.27978 12.4495 3.85034 12.4495 3.85034" fill="url(#paint11_radial_277_100003)"/>
<path d="M10.1567 5.06716C10.573 5.20231 11.1466 5.42114 11.7085 5.74013C11.6153 5.14109 11.6344 4.30469 11.6344 4.30469L10.1567 5.06716Z" fill="url(#paint12_radial_277_100003)"/>
<path d="M10.825 2.74877C10.4637 2.05799 9.45752 1.26542 8.91067 0.86705C8.844 0.855795 8.77361 0.845683 8.70068 0.83667C8.87662 0.9613 9.14457 1.15781 9.43397 1.39426C9.93629 1.80342 10.4992 2.33329 10.7377 2.79374L10.825 2.74877Z" fill="#F6D5D1"/>
<path d="M13.0195 5.5219L12.6611 4.98271L13.1111 4.51708L12.8521 3.99779C12.8019 3.97523 12.7553 3.95556 12.7128 3.93872L12.9923 4.49915L12.5355 4.97122L12.8988 5.5181L12.5005 6.03932L12.9211 6.54278L12.872 6.62344C12.8954 6.6481 12.9183 6.67336 12.9409 6.69857L13.0416 6.53381L12.626 6.03648L13.0195 5.5219ZM13.3485 5.55269L12.9902 5.0135L13.4402 4.54792L13.2796 4.22646C13.2265 4.19338 13.1742 4.16222 13.1238 4.13413L13.3211 4.52975L12.8646 5.00224L13.2277 5.54908L12.8294 6.07011L13.25 6.57376L13.0755 6.85948C13.0927 6.88144 13.1107 6.90308 13.1273 6.92541C13.1316 6.93113 13.1355 6.93667 13.1397 6.94261L13.3707 6.56474L12.9551 6.06741L13.3485 5.55269Z" fill="#DA6788"/>
<path opacity="0.45" d="M9.23619 3.50517L8.59934 3.3347L8.54541 2.68176L7.89274 2.59057L7.76377 1.94857L7.10558 1.9289L6.91018 1.3041L6.25391 1.35301L6.06067 0.92298C6.02704 0.928333 5.9935 0.933686 5.95996 0.939451L6.19226 1.45568L6.83951 1.40732L7.03256 2.02489L7.68257 2.0442L7.81011 2.67815L8.45381 2.76782L8.50686 3.41151L9.134 3.57897L9.10115 4.22344L9.69687 4.47769L9.64626 4.72192L9.74182 4.74621L9.80959 4.41935L9.20265 4.16017L9.23619 3.50517ZM9.44369 3.93561L9.47704 3.2802L8.84019 3.10987L8.78645 2.45698L8.13378 2.36579L8.00463 1.72374L7.34661 1.70425L7.15103 1.07923L6.49486 1.12795L6.38172 0.876221C6.34781 0.880613 6.31377 0.885188 6.27986 0.889992L6.43316 1.23099L7.08059 1.18244L7.27369 1.80001L7.9237 1.81932L8.05114 2.45313L8.69481 2.54276L8.74799 3.1865L9.37481 3.35432L9.34196 3.99866L9.93796 4.25286L9.83122 4.76872L9.92655 4.79279L10.0504 4.19453L9.44369 3.93561Z" fill="#DA6788"/>
<path d="M13.75 3.86518C13.6504 3.80478 13.5852 3.77344 13.5852 3.77344C13.5852 3.77344 12.7007 3.27305 12.2534 2.24549C12.1883 2.09583 12.0964 1.97481 11.9866 1.87489C11.7349 1.9179 11.4427 2.00885 11.0993 2.14858C10.0191 2.58854 8.80922 2.43527 6.93239 1.92934C5.43808 1.5268 4.43978 1.85366 3.57284 2.07844C3.17501 2.58264 3.11377 3.0683 3.11377 3.0683L10.0678 4.82809C11.9659 4.51903 13.2692 4.06795 13.75 3.86518Z" fill="url(#paint13_radial_277_100003)"/>
<path d="M11.0118 5.38086C12.3835 5.0439 14.0279 4.54867 14.3823 4.38277C14.0288 3.98632 13.5861 3.7738 13.5861 3.7738C13.5861 3.7738 12.8483 3.35461 12.3798 2.49854C12.1487 2.55477 11.8876 2.64723 11.5873 2.77914C10.4999 3.25638 9.26344 3.14516 7.33752 2.70438C5.44413 2.27105 4.35299 2.92399 3.31982 3.12068L11.0118 5.38086Z" fill="url(#paint14_radial_277_100003)"/>
<path d="M2.05582 9.09952C2.05582 9.09952 0.313611 8.22798 1.16316 5.78565C1.1154 5.01577 1.85679 2.96111 2.88595 2.78084C3.91521 2.60062 4.98873 1.92092 6.88079 2.36761C8.77275 2.81447 9.98692 2.92954 11.0527 2.45609C12.1184 1.98264 12.697 2.0041 13.0958 2.5077C13.4945 3.01135 14.2138 3.82712 13.9347 3.99896C13.6556 4.17076 11.0664 5.27954 7.13627 5.5584C3.20631 5.83726 2.64625 7.3541 2.44942 8.05558C2.27155 8.68971 2.23617 9.24611 2.05582 9.09952Z" fill="url(#paint15_radial_277_100003)"/>
<path d="M10.8243 2.54736C10.114 2.80271 9.32343 2.81511 8.30844 2.65667C6.75367 3.37896 4.93187 5.57377 4.55469 6.04182C5.19356 5.81342 6.03184 5.63718 7.13632 5.55881C7.44233 5.53703 7.73908 5.5099 8.02824 5.47892C8.26542 5.15248 8.63795 4.73274 9.20685 4.30459C10.1834 3.56975 10.6709 2.81474 10.8243 2.54736Z" fill="url(#paint16_radial_277_100003)"/>
<path d="M5.86257 2.22333L5.75206 2.54405L5.09184 2.56661L4.98142 3.2136L4.33302 3.33516L4.31609 3.99094L3.69028 4.19641L3.75464 4.84857L3.15727 5.124L3.29258 5.76468L2.72769 6.10027L2.92948 6.72338L2.4094 7.12266L2.58055 7.67481C2.59882 7.63166 2.6198 7.58691 2.64225 7.54157L2.52355 7.15853L3.0445 6.7587L2.84538 6.14438L3.40346 5.81258L3.26985 5.17996L3.85936 4.908L3.79605 4.26463L4.41261 4.06226L4.42945 3.41678L5.06708 3.29732L5.17566 2.66164L5.82337 2.63945L5.96467 2.22909C5.9303 2.22676 5.8962 2.22488 5.86257 2.22333ZM2.76827 6.57871L2.56923 5.9642L3.12709 5.63259L2.99352 4.99992L3.58308 4.72792L3.51949 4.08459L4.13628 3.882L4.15299 3.2367L4.79071 3.11706L4.8992 2.48137L5.54682 2.45936L5.62977 2.21875C5.59448 2.21893 5.55979 2.21971 5.52524 2.22044L5.47582 2.36401L4.81551 2.38634L4.70509 3.0337L4.05669 3.15508L4.03967 3.81049L3.41404 4.01614L3.47827 4.66826L2.88099 4.94387L3.01648 5.58455L2.4515 5.92014L2.65329 6.54307L2.1333 6.94235L2.41938 7.8661L2.51347 7.83723L2.24726 6.97845L2.76827 6.57871Z" fill="#DA6788"/>
<path d="M6.55718 5.61194C6.76118 5.37362 7.05775 5.03546 7.41018 4.65955C8.00268 4.0273 8.75031 3.29178 9.46377 2.76004C9.41155 2.75986 9.35924 2.75926 9.30573 2.75757C8.13495 3.65611 6.91167 5.04237 6.41455 5.62782C6.46107 5.62224 6.50956 5.6173 6.55718 5.61194Z" fill="#F6D5D1"/>
<path d="M2.65416 7.51686C1.37908 7.2332 1.26194 5.93579 1.33422 5.55256C1.67864 3.64431 3.30238 2.69014 3.30238 2.69014L3.2987 2.68726C3.15915 2.72491 3.02214 2.75758 2.88595 2.78151C1.85683 2.96177 1.11545 5.01643 1.16316 5.78631C0.313611 8.22864 2.05582 9.10018 2.05582 9.10018C2.23622 9.24677 2.27155 8.69037 2.44947 8.0562C2.49138 7.90695 2.55023 7.72042 2.65416 7.51686Z" fill="url(#paint17_radial_277_100003)"/>
<path d="M0.994141 6.40777C1.01415 7.00333 1.26955 7.86097 2.39087 8.2807C2.39864 8.24877 2.40674 8.2167 2.41507 8.18417C1.28653 7.7551 1.09398 6.8906 1.0909 6.31604C1.0909 6.13829 1.11027 5.99243 1.12747 5.89648C1.06996 6.07519 1.02538 6.24604 0.994141 6.40777Z" fill="#F6D5D1"/>
<path d="M14.6521 5.86258C14.6518 5.8618 14.6515 5.86084 14.6512 5.86011C14.6366 6.68883 14.4426 7.71693 14.0127 8.39988C14.2629 8.96333 14.2812 9.26951 14.2812 9.26951C14.2812 9.26951 15.0219 8.43749 14.9201 7.03344C14.9006 6.76931 14.8523 6.48719 14.765 6.18939C14.7481 6.13165 14.73 6.07547 14.711 6.02043C14.6924 5.96657 14.6727 5.914 14.6521 5.86258Z" fill="url(#paint18_radial_277_100003)"/>
<mask id="mask0_277_100003" style="mask-type:luminance" maskUnits="userSpaceOnUse" x="4" y="10" width="4" height="3">
<g opacity="0.72">
<path d="M7.03584 11.3392C6.95201 11.8349 6.23465 12.1279 5.43364 11.9941C4.63272 11.8598 4.05154 11.3495 4.13551 10.8541C4.21929 10.3585 4.93661 10.0652 5.73748 10.1992C6.53849 10.3333 7.11962 10.8441 7.03584 11.3392Z" fill="url(#paint19_radial_277_100003)"/>
</g>
</mask>
<g mask="url(#mask0_277_100003)">
<path opacity="0.72" d="M7.03535 11.3392C6.95153 11.8349 6.23416 12.1279 5.43315 11.9941C4.63223 11.8598 4.05105 11.3495 4.13502 10.8541C4.2188 10.3585 4.93612 10.0652 5.73699 10.1992C6.538 10.3333 7.11914 10.8441 7.03535 11.3392Z" fill="#ED1C24"/>
</g>
<mask id="mask1_277_100003" style="mask-type:luminance" maskUnits="userSpaceOnUse" x="9" y="10" width="4" height="2">
<g opacity="0.72">
<path d="M12.3644 10.6086C12.5 11.0929 11.9755 11.661 11.1933 11.8779C10.4107 12.0944 9.66679 11.8777 9.53116 11.3937C9.39543 10.9097 9.91979 10.3412 10.7021 10.1245C11.4846 9.9078 12.2288 10.125 12.3644 10.6086Z" fill="url(#paint20_radial_277_100003)"/>
</g>
</mask>
<g mask="url(#mask1_277_100003)">
<path opacity="0.72" d="M12.3644 10.6086C12.5 11.0929 11.9755 11.661 11.1933 11.8779C10.4107 12.0944 9.66679 11.8777 9.53116 11.3937C9.39543 10.9097 9.91979 10.3412 10.7021 10.1245C11.4846 9.9078 12.2288 10.125 12.3644 10.6086Z" fill="#ED1C24"/>
</g>
<path d="M11.1057 10.9146C11.1274 10.9651 9.88758 11.915 8.25901 11.9378C6.63086 11.9821 5.35269 11.084 5.37229 11.0326C5.38306 10.9578 6.65446 11.5024 8.24898 11.4575C9.8441 11.4368 11.0919 10.8403 11.1057 10.9146Z" fill="#FFF200"/>
<path d="M11.1406 10.8663C11.1622 10.9187 9.88472 11.7679 8.2562 11.7902C6.62805 11.8349 5.36548 11.0379 5.38499 10.9848C5.39575 10.9074 6.63334 11.2654 8.22795 11.2198C9.82293 11.1997 11.1266 10.7894 11.1406 10.8663Z" fill="url(#paint21_radial_277_100003)"/>
<path d="M11.1063 10.9136C11.1278 10.9564 9.88512 11.7667 8.2566 11.791C6.62836 11.8336 5.35314 11.0753 5.37278 11.0316C5.38387 10.9679 6.65343 11.4264 8.24804 11.3833C9.84312 11.3608 11.0926 10.8505 11.1063 10.9136Z" fill="#601B05"/>
<mask id="mask2_277_100003" style="mask-type:luminance" maskUnits="userSpaceOnUse" x="3" y="10" width="10" height="7">
<g opacity="0.87">
<path d="M8.11224 16.212C5.65565 16.1285 3.70599 14.6865 3.75683 12.9914C3.80845 11.2963 5.84231 9.98985 8.29963 10.0734C10.7558 10.1568 12.7063 11.5986 12.6547 13.2938C12.603 14.9889 10.5692 16.2955 8.11224 16.212Z" fill="url(#paint22_radial_277_100003)"/>
</g>
</mask>
<g mask="url(#mask2_277_100003)">
<path opacity="0.87" d="M8.11175 16.8001C5.65516 16.7087 3.7055 15.1286 3.75634 13.2712C3.80796 11.4138 5.84182 9.98221 8.29914 10.0737C10.7553 10.1652 12.7058 11.745 12.6542 13.6025C12.6026 15.4599 10.5687 16.8916 8.11175 16.8001Z" fill="#ED1C24"/>
</g>
<path d="M4.71018 11.1086C4.71018 11.1086 4.52693 10.5879 4.08189 10.5879C3.63675 10.5879 3.85934 12.0589 3.99019 12.7488" fill="url(#paint23_radial_277_100003)"/>
<path d="M6.56445 16.0081C6.56445 16.0081 5.30782 16.1123 4.22565 13.6823C3.80674 12.6409 4.12093 11.8078 4.5398 10.9747C4.9587 10.1415 5.62183 8.9265 6.0757 10.0026C6.5645 9.3778 7.21027 9.95063 6.93542 10.4453C7.45895 10.1675 7.79937 10.8618 7.52451 11.2784C8.03502 11.2393 8.17024 11.7731 7.96067 12.2244C7.75129 12.6755 7.36735 13.2657 7.61165 13.9947C7.85609 14.7238 8.44947 16.2511 6.56445 16.0081Z" fill="url(#paint24_radial_277_100003)"/>
<path d="M7.52473 11.278C7.54397 11.2487 7.55942 11.218 7.57286 11.1865C7.25908 11.6377 6.71659 12.449 6.63557 12.7892C6.55667 13.1169 6.53017 13.34 6.52998 13.3416C6.52653 13.3701 6.5471 13.396 6.57608 13.3996C6.57811 13.3998 6.58031 13.3999 6.58234 13.3999C6.60829 13.3999 6.63097 13.3805 6.63415 13.3539C6.63415 13.3532 6.65991 13.1358 6.73766 12.8132C6.78427 12.6036 7.07192 12.1233 7.34581 11.7085C7.4485 11.5523 7.54926 11.4042 7.63515 11.28C7.60028 11.2766 7.56393 11.275 7.52473 11.278ZM7.04615 10.4007C7.01031 10.411 6.97369 10.4247 6.93564 10.4449C6.96168 10.398 6.97935 10.3505 6.98984 10.3033C6.6779 10.7076 5.89138 11.7492 5.79803 12.1384C5.71894 12.4659 5.6923 12.6893 5.6923 12.6907C5.68894 12.7193 5.70923 12.7452 5.73827 12.7487C5.7402 12.7489 5.74231 12.749 5.7442 12.749C5.77052 12.749 5.79329 12.7295 5.79656 12.7031C5.79656 12.7023 5.82205 12.4849 5.89989 12.1623C5.94526 11.9557 6.27238 11.4541 6.58556 11.0202C6.7597 10.7776 6.92947 10.5528 7.04615 10.4007ZM6.02403 9.89185C5.82375 10.1487 5.25145 10.9076 4.88568 11.6455C4.77604 11.9181 4.71117 12.3088 4.71066 12.3105C4.70597 12.3391 4.72529 12.366 4.75373 12.371C4.75663 12.3714 4.75948 12.3716 4.76238 12.3716C4.78754 12.3716 4.80995 12.3536 4.81414 12.328C4.81414 12.3271 4.87979 11.9395 4.98129 11.6878C5.32216 10.9994 5.85255 10.2853 6.07404 9.99808C6.05766 9.95942 6.04086 9.92451 6.02403 9.89185Z" fill="#EC8F23"/>
<path d="M11.5264 11.1433C11.5264 11.1433 11.7096 10.6226 12.1547 10.6226C12.5997 10.6226 12.3772 12.0936 12.2463 12.7835" fill="url(#paint25_radial_277_100003)"/>
<path d="M9.67209 16.0418C9.67209 16.0418 10.9287 16.1459 12.0109 13.716C12.4298 12.6745 12.1157 11.8415 11.6968 11.0083C11.2779 10.1751 10.6148 8.96022 10.1609 10.0363C9.67209 9.41148 9.02632 9.98435 9.30113 10.479C8.7776 10.2012 8.43718 10.8956 8.71208 11.3121C8.20148 11.273 8.0663 11.8068 8.27583 12.2581C8.48521 12.7092 8.86911 13.2994 8.62485 14.0284C8.38049 14.7574 7.78708 16.2847 9.67209 16.0418Z" fill="url(#paint26_radial_277_100003)"/>
<path d="M8.60156 11.3146C8.68746 11.4389 8.78817 11.587 8.89091 11.7431C9.1648 12.1579 9.45245 12.6382 9.49914 12.8478C9.57681 13.1706 9.60253 13.3879 9.60253 13.3886C9.60575 13.4152 9.62843 13.4346 9.65438 13.4346C9.65636 13.4346 9.65861 13.4345 9.66059 13.4343C9.68962 13.4308 9.71019 13.4049 9.70678 13.3763C9.70655 13.3747 9.6801 13.1515 9.60101 12.8239C9.52012 12.4837 8.97759 11.6724 8.66386 11.2212C8.67734 11.2527 8.69289 11.2834 8.71208 11.3127C8.67274 11.3097 8.63644 11.3112 8.60156 11.3146ZM9.6512 11.0549C9.96429 11.4887 10.2916 11.9904 10.3369 12.197C10.4147 12.5196 10.4402 12.7369 10.4402 12.7378C10.4435 12.7642 10.4662 12.7836 10.4926 12.7836C10.4945 12.7836 10.4966 12.7835 10.4985 12.7834C10.5276 12.7799 10.5478 12.754 10.5445 12.7253C10.5445 12.7239 10.5179 12.5006 10.4388 12.1731C10.3453 11.7838 9.55886 10.7422 9.24693 10.3379C9.25742 10.3851 9.27508 10.4326 9.30112 10.4796C9.26307 10.4594 9.22641 10.4457 9.19066 10.4353C9.30724 10.5875 9.47711 10.8122 9.6512 11.0549ZM10.1626 10.0328C10.3842 10.3199 10.9146 11.034 11.2554 11.7225C11.357 11.9741 11.4225 12.3619 11.4225 12.3627C11.4268 12.3882 11.4491 12.4063 11.4743 12.4063C11.4772 12.4063 11.4801 12.4061 11.483 12.4056C11.5116 12.4006 11.5308 12.3738 11.5261 12.3452C11.5256 12.3435 11.4607 11.9528 11.3511 11.6801C10.9853 10.9423 10.413 10.1834 10.2128 9.92651C10.1959 9.95923 10.1791 9.99409 10.1626 10.0328Z" fill="#EC8F23"/>
<defs>
<radialGradient id="paint0_radial_277_100003" cx="0" cy="0" r="1" gradientUnits="userSpaceOnUse" gradientTransform="translate(8.2725 6.89759) scale(9.00427 8.95419)">
<stop offset="0.0714" stop-color="#F9EC00"/>
<stop offset="0.3407" stop-color="#F2BE1D"/>
<stop offset="0.6868" stop-color="#ED9D23"/>
<stop offset="1" stop-color="#E87326"/>
</radialGradient>
<radialGradient id="paint1_radial_277_100003" cx="0" cy="0" r="1" gradientUnits="userSpaceOnUse" gradientTransform="translate(6.20785 6.67833) scale(2.16494 2.5359)">
<stop offset="0.0714" stop-color="#F2BE1D"/>
<stop offset="0.6868" stop-color="#ED9D23"/>
<stop offset="1" stop-color="#E87326"/>
</radialGradient>
<radialGradient id="paint2_radial_277_100003" cx="0" cy="0" r="1" gradientUnits="userSpaceOnUse" gradientTransform="translate(10.1942 6.4941) rotate(178.591) scale(2.29394 2.53598)">
<stop offset="0.0714" stop-color="#F2BE1D"/>
<stop offset="0.6868" stop-color="#ED9D23"/>
<stop offset="1" stop-color="#E87326"/>
</radialGradient>
<radialGradient id="paint3_radial_277_100003" cx="0" cy="0" r="1" gradientUnits="userSpaceOnUse" gradientTransform="translate(5.81423 8.52848) scale(1.6737 1.66439)">
<stop offset="0.0714" stop-color="#F2BE1D"/>
<stop offset="0.6868" stop-color="#ED9D23"/>
<stop offset="1" stop-color="#E87326"/>
</radialGradient>
<radialGradient id="paint4_radial_277_100003" cx="0" cy="0" r="1" gradientUnits="userSpaceOnUse" gradientTransform="translate(5.66901 6.27955) rotate(3.20959) scale(0.914387 0.909333)">
<stop offset="0.0714" stop-color="#F2BE1D"/>
<stop offset="0.6868" stop-color="#ED9D23"/>
<stop offset="1" stop-color="#E87326"/>
</radialGradient>
<radialGradient id="paint5_radial_277_100003" cx="0" cy="0" r="1" gradientUnits="userSpaceOnUse" gradientTransform="translate(10.7933 8.81155) scale(1.09039 1.08433)">
<stop offset="0.0714" stop-color="#F2BE1D"/>
<stop offset="0.6868" stop-color="#ED9D23"/>
<stop offset="1" stop-color="#E87326"/>
</radialGradient>
<radialGradient id="paint6_radial_277_100003" cx="0" cy="0" r="1" gradientUnits="userSpaceOnUse" gradientTransform="translate(10.3169 6.06083) rotate(166.593) scale(0.914205 0.90967)">
<stop offset="0.0714" stop-color="#F2BE1D"/>
<stop offset="0.6868" stop-color="#ED9D23"/>
<stop offset="1" stop-color="#E87326"/>
</radialGradient>
<radialGradient id="paint7_radial_277_100003" cx="0" cy="0" r="1" gradientUnits="userSpaceOnUse" gradientTransform="translate(7.08082 6.58415) scale(3.96019 3.93817)">
<stop offset="0.0714" stop-color="#F9EC00"/>
<stop offset="0.3407" stop-color="#F2BE1D"/>
<stop offset="0.6868" stop-color="#ED9D23"/>
<stop offset="1" stop-color="#E87326"/>
</radialGradient>
<radialGradient id="paint8_radial_277_100003" cx="0" cy="0" r="1" gradientUnits="userSpaceOnUse" gradientTransform="translate(8.96255 3.39081) scale(4.53207 4.50686)">
<stop stop-color="white"/>
<stop offset="1" stop-color="#CEDAD9"/>
</radialGradient>
<radialGradient id="paint9_radial_277_100003" cx="0" cy="0" r="1" gradientUnits="userSpaceOnUse" gradientTransform="translate(9.45823 2.00602) scale(1.68708 1.67769)">
<stop stop-color="#F1A7B8"/>
<stop offset="1" stop-color="#EE87A6"/>
</radialGradient>
<radialGradient id="paint10_radial_277_100003" cx="0" cy="0" r="1" gradientUnits="userSpaceOnUse" gradientTransform="translate(11.9265 6.97133) scale(2.33238 2.31941)">
<stop offset="0.0714" stop-color="#F9EC00"/>
<stop offset="0.3407" stop-color="#F2BE1D"/>
<stop offset="0.6868" stop-color="#ED9D23"/>
<stop offset="1" stop-color="#E87326"/>
</radialGradient>
<radialGradient id="paint11_radial_277_100003" cx="0" cy="0" r="1" gradientUnits="userSpaceOnUse" gradientTransform="translate(12.2344 6.5595) scale(2.70991 2.69483)">
<stop stop-color="white"/>
<stop offset="1" stop-color="#CEDAD9"/>
</radialGradient>
<radialGradient id="paint12_radial_277_100003" cx="0" cy="0" r="1" gradientUnits="userSpaceOnUse" gradientTransform="translate(10.9326 5.02247) scale(0.749296 0.745128)">
<stop stop-color="#F1A7B8"/>
<stop offset="1" stop-color="#EE87A6"/>
</radialGradient>
<radialGradient id="paint13_radial_277_100003" cx="0" cy="0" r="1" gradientUnits="userSpaceOnUse" gradientTransform="translate(8.43193 3.28357) scale(3.91757 3.89578)">
<stop stop-color="white"/>
<stop offset="1" stop-color="#CEDAD9"/>
</radialGradient>
<radialGradient id="paint14_radial_277_100003" cx="0" cy="0" r="1" gradientUnits="userSpaceOnUse" gradientTransform="translate(8.85104 3.9397) scale(4.04319 4.0207)">
<stop stop-color="white"/>
<stop offset="1" stop-color="#CEDAD9"/>
</radialGradient>
<radialGradient id="paint15_radial_277_100003" cx="0" cy="0" r="1" gradientUnits="userSpaceOnUse" gradientTransform="translate(7.46354 5.61912) scale(5.24919 5.21999)">
<stop stop-color="white"/>
<stop offset="1" stop-color="#CEDAD9"/>
</radialGradient>
<radialGradient id="paint16_radial_277_100003" cx="0" cy="0" r="1" gradientUnits="userSpaceOnUse" gradientTransform="translate(7.6895 4.29462) scale(2.54107 2.52694)">
<stop stop-color="#F1A7B8"/>
<stop offset="1" stop-color="#EE87A6"/>
</radialGradient>
<radialGradient id="paint17_radial_277_100003" cx="0" cy="0" r="1" gradientUnits="userSpaceOnUse" gradientTransform="translate(2.11605 5.9056) scale(2.43731 2.42375)">
<stop stop-color="#F1A7B8"/>
<stop offset="1" stop-color="#EE87A6"/>
</radialGradient>
<radialGradient id="paint18_radial_277_100003" cx="0" cy="0" r="1" gradientUnits="userSpaceOnUse" gradientTransform="translate(14.4712 7.56482) scale(1.25476 1.24779)">
<stop stop-color="#F1A7B8"/>
<stop offset="1" stop-color="#EE87A6"/>
</radialGradient>
<radialGradient id="paint19_radial_277_100003" cx="0" cy="0" r="1" gradientUnits="userSpaceOnUse" gradientTransform="translate(5.58564 11.0966) rotate(9.50083) scale(1.19307 0.738324)">
<stop stop-color="white"/>
<stop offset="1"/>
</radialGradient>
<radialGradient id="paint20_radial_277_100003" cx="0" cy="0" r="1" gradientUnits="userSpaceOnUse" gradientTransform="translate(10.9479 11.0012) rotate(-15.4827) scale(1.19276 0.738482)">
<stop stop-color="white"/>
<stop offset="1"/>
</radialGradient>
<radialGradient id="paint21_radial_277_100003" cx="0" cy="0" r="1" gradientUnits="userSpaceOnUse" gradientTransform="translate(8.10001 10.2296) rotate(-1.1795) scale(1.40225 1.39446)">
<stop offset="0.0714" stop-color="#F2BE1D"/>
<stop offset="0.6868" stop-color="#ED9D23"/>
<stop offset="1" stop-color="#E87326"/>
</radialGradient>
<radialGradient id="paint22_radial_277_100003" cx="0" cy="0" r="1" gradientUnits="userSpaceOnUse" gradientTransform="translate(8.20579 13.1427) rotate(91.7333) scale(2.49124 3.61146)">
<stop stop-color="white"/>
<stop offset="1"/>
</radialGradient>
<radialGradient id="paint23_radial_277_100003" cx="0" cy="0" r="1" gradientUnits="userSpaceOnUse" gradientTransform="translate(3.57132 9.75478) scale(2.92673 2.91045)">
<stop offset="0.0714" stop-color="#F9EC00"/>
<stop offset="0.3407" stop-color="#F2BE1D"/>
<stop offset="0.6868" stop-color="#ED9D23"/>
<stop offset="1" stop-color="#E87326"/>
</radialGradient>
<radialGradient id="paint24_radial_277_100003" cx="0" cy="0" r="1" gradientUnits="userSpaceOnUse" gradientTransform="translate(6.05783 11.1666) scale(4.32227 4.29823)">
<stop offset="0.0714" stop-color="#F9EC00"/>
<stop offset="0.3407" stop-color="#F2BE1D"/>
<stop offset="0.6868" stop-color="#ED9D23"/>
<stop offset="1" stop-color="#E87326"/>
</radialGradient>
<radialGradient id="paint25_radial_277_100003" cx="0" cy="0" r="1" gradientUnits="userSpaceOnUse" gradientTransform="translate(12.6652 9.78944) rotate(180) scale(2.92671 2.91043)">
<stop offset="0.0714" stop-color="#F9EC00"/>
<stop offset="0.3407" stop-color="#F2BE1D"/>
<stop offset="0.6868" stop-color="#ED9D23"/>
<stop offset="1" stop-color="#E87326"/>
</radialGradient>
<radialGradient id="paint26_radial_277_100003" cx="0" cy="0" r="1" gradientUnits="userSpaceOnUse" gradientTransform="translate(10.1788 11.2003) rotate(180) scale(4.32227 4.29823)">
<stop offset="0.0714" stop-color="#F9EC00"/>
<stop offset="0.3407" stop-color="#F2BE1D"/>
<stop offset="0.6868" stop-color="#ED9D23"/>
<stop offset="1" stop-color="#E87326"/>
</radialGradient>
</defs>
</svg>
