<svg width="143" height="125" viewBox="0 0 143 125" fill="none" xmlns="http://www.w3.org/2000/svg">
<path d="M10.3733 74.888C8.75093 65.829 5.40963 57.2144 2.63999 48.4578C1.11888 43.6486 -0.247555 38.6635 0.0380639 33.6123C0.649458 22.7995 8.70946 13.8803 17.6642 8.26049C26.3584 2.80415 36.5009 -0.512154 46.6551 0.0791171C56.8093 0.670388 66.9092 5.44359 73.0857 13.7983C77.5545 19.843 80.7405 28.1804 87.8936 29.9649C97.5462 32.3729 105.484 20.7891 115.377 19.9028C118.608 19.6134 121.834 20.5094 124.861 21.7117C131.013 24.1551 136.865 28.1131 140.189 33.9969C143.513 39.8807 143.769 47.9119 139.612 53.2004C136.423 57.2586 131.187 59.2509 128.278 63.5286C125.943 66.9627 125.706 71.6157 127.19 75.4588C127.19 75.4593 127.19 75.4597 127.19 75.4602C127.19 75.4604 127.19 75.4607 127.19 75.461C128.518 78.8989 128.635 82.107 131.302 84.3104C137.854 89.7251 142.599 99.0363 142.982 107.742C143.156 111.723 142.091 115.906 139.399 118.758C137.185 121.102 134.069 122.356 130.934 122.839C124.277 123.864 116.947 123.202 110.199 123.359C102.739 123.532 95.2795 123.706 87.8196 123.879C72.8998 124.226 57.9801 124.572 43.0603 124.919C36.7071 125.067 30.2511 125.202 24.115 123.493C17.9788 121.784 12.0959 117.944 9.32587 112.031C6.20978 105.378 8.95648 100.518 10.3808 94.0477C11.7618 87.7743 11.5001 81.18 10.3733 74.888Z" fill="#EEF5E5"/>
<path d="M103.99 36.9709L93.0688 33.9445C92.2431 33.7157 91.7613 32.8682 91.9926 32.0515L92.3684 30.7247C92.5998 29.9081 93.4567 29.4316 94.2824 29.6604L105.204 32.6868C106.029 32.9156 106.511 33.7631 106.28 34.5797L105.904 35.9065C105.673 36.7232 104.816 37.1997 103.99 36.9709Z" fill="#425729"/>
<path d="M102.911 36.8147L94.0732 34.3657L87.2962 43.0877C85.735 45.0969 84.4676 47.4125 83.5673 49.9431L74.9579 74.1415L98.3476 80.623L103.769 55.2178C104.341 52.5398 104.465 49.8569 104.16 47.2925L102.911 36.8147Z" fill="#C6D4B7"/>
<path d="M101.683 50.7979L87.7722 46.9429L81.7587 68.1695L95.6697 72.0245L101.683 50.7979Z" fill="#FBFFFD"/>
<path d="M128.268 35.8094C127.735 42.3595 126.899 49.0541 125.04 55.3802C123.747 59.7793 121.479 67.6432 117.353 70.3645C117.537 70.1825 113.805 68.7859 109.395 67.2201C103.244 65.0364 95.7736 62.5241 95.7653 62.5213C95.5169 62.4377 100.104 50.5182 100.402 49.7982C103.31 42.7777 106.653 35.1876 111.986 29.6006C114.001 27.4883 116.669 25.3191 119.787 25.4457C121 25.4948 122.118 25.8045 123.116 26.3097C126.543 28.0436 128.571 32.0826 128.268 35.8094Z" fill="#FBA467"/>
<path d="M66.4709 72.0748L56.3355 76.0184C52.9576 77.3327 49.1419 75.6898 47.813 72.3488L36.9117 44.9424C35.5828 41.6014 37.2439 37.8276 40.6219 36.5133L50.7573 32.5697C54.1352 31.2554 57.9509 32.8983 59.2798 36.2392L70.1811 63.6457C71.51 66.9866 69.8489 70.7605 66.4709 72.0748Z" fill="#8CAA61"/>
<path d="M58.7033 40.9695L40.5953 48.0151L44.924 58.8977L63.0319 51.8521L58.7033 40.9695Z" fill="#C6D4B7"/>
<path d="M63.7764 54.1241L45.9453 61.062L47.5247 65.0327L65.3558 58.0948L63.7764 54.1241Z" fill="#C6D4B7"/>
<path d="M85.3449 62.3677H39.061V117.695H85.3449V62.3677Z" fill="#5F7650"/>
<path d="M121.137 62.3677H85.3441V117.695H121.137V62.3677Z" fill="#4C6142"/>
<path d="M84.5638 63.2916C84.351 65.4518 79.359 67.3244 72.9297 66.7048C66.5003 66.0853 60.441 64.4263 61.3661 62.4581C63.0215 58.9366 67.3283 59.9314 73.7003 58.8821C79.8628 57.8672 84.7767 61.1314 84.5638 63.2916Z" fill="#FDA266"/>
<path d="M70.3484 65.0352C74.0574 65.0352 77.0641 63.5483 77.0641 61.7141C77.0641 59.88 74.0574 58.3931 70.3484 58.3931C66.6394 58.3931 63.6327 59.88 63.6327 61.7141C63.6327 63.5483 66.6394 65.0352 70.3484 65.0352Z" fill="#FFEEDA"/>
<path d="M61.9535 49.9673C62.7126 48.1716 62.166 46.2354 60.7327 45.6428C59.2995 45.0502 57.5222 46.0255 56.7632 47.8213C56.0041 49.617 56.5507 51.5532 57.984 52.1458C59.4173 52.7384 61.1945 51.7631 61.9535 49.9673Z" fill="#FCA168"/>
<path d="M60.7462 49.4683C61.2342 48.3138 61.0085 47.121 60.2421 46.8041C59.4756 46.4872 58.4587 47.1662 57.9707 48.3207C57.4827 49.4752 57.7084 50.668 58.4749 50.9849C59.2413 51.3018 60.2582 50.6228 60.7462 49.4683Z" fill="#FFEDC4"/>
<path d="M79.3678 48.1567C80.4088 47.0161 80.0685 45.0342 78.6077 43.7299C77.1468 42.4256 75.1187 42.2929 74.0777 43.4334C73.0367 44.5739 73.377 46.5559 74.8378 47.8602C76.2987 49.1644 78.3268 49.2972 79.3678 48.1567Z" fill="#FCA168"/>
<path d="M78.4236 47.3131C78.9802 46.7033 78.6701 45.5291 77.731 44.6905C76.7918 43.852 75.5792 43.6667 75.0225 44.2765C74.4658 44.8864 74.7759 46.0606 75.7151 46.8992C76.6542 47.7377 77.8669 47.923 78.4236 47.3131Z" fill="#FFEDC4"/>
<path d="M69.7334 61.1183C74.9773 60.792 78.9797 56.6198 78.6731 51.7995C78.3664 46.9792 73.8667 43.3361 68.6228 43.6625C63.379 43.9889 59.3765 48.161 59.6832 52.9813C59.9899 57.8016 64.4896 61.4447 69.7334 61.1183Z" fill="#FDA266"/>
<path d="M63.7764 53.3363C64.1937 53.3363 64.532 53.0017 64.532 52.589C64.532 52.1763 64.1937 51.8418 63.7764 51.8418C63.3592 51.8418 63.0209 52.1763 63.0209 52.589C63.0209 53.0017 63.3592 53.3363 63.7764 53.3363Z" fill="#935121"/>
<path d="M74.1992 52.5886C74.6242 52.5886 74.9687 52.2478 74.9687 51.8275C74.9687 51.4071 74.6242 51.0664 74.1992 51.0664C73.7742 51.0664 73.4297 51.4071 73.4297 51.8275C73.4297 52.2478 73.7742 52.5886 74.1992 52.5886Z" fill="#935121"/>
<path d="M69.2328 57.3765C70.4846 57.3765 71.4993 56.3728 71.4993 55.1348C71.4993 53.8967 70.4846 52.8931 69.2328 52.8931C67.981 52.8931 66.9662 53.8967 66.9662 55.1348C66.9662 56.3728 67.981 57.3765 69.2328 57.3765Z" fill="#FFEEDA"/>
<path d="M69.169 54.4928C69.6764 54.4425 70.0678 54.2045 70.0431 53.9611C70.0185 53.7178 69.5871 53.5613 69.0797 53.6116C68.5722 53.6619 68.1809 53.8999 68.2055 54.1432C68.2302 54.3866 68.6615 54.5431 69.169 54.4928Z" fill="#754D2C"/>
<path d="M33.2094 60.1181L34.3543 60.1354C34.3543 60.1354 35.548 55.7114 33.9778 55.3452C33.9801 55.4117 33.5741 56.1721 33.3514 56.5839C33.2581 56.7564 33.2094 56.9489 33.2094 57.1445V60.1181H33.2094Z" fill="#FFBAB9"/>
<path d="M128.268 35.8093C127.735 42.3594 126.899 49.054 125.04 55.3801C123.748 59.7792 121.48 67.6431 117.353 70.3644C117.537 70.1824 113.805 68.7858 109.395 67.22C109.395 67.22 114.269 59.2534 114.176 59.0354C109.226 58.6502 106.731 55.8844 106.219 55.2476C106.143 55.1528 106.064 55.0598 105.982 54.9696C104.178 52.9789 105.189 52.346 106.152 52.1483C106.69 52.0378 107.242 52.2462 107.576 52.6781C108.912 54.4063 112.446 54.9147 114.705 55.0603C115.887 55.1366 116.983 54.4434 117.41 53.3499C118.102 51.5793 119.036 49.0743 118.895 48.7958C112.727 48.7958 110.136 42.5946 110.665 42.1654C111.265 41.6793 117.681 44.556 119.291 44.2136C119.787 44.1083 120.76 43.0749 120.907 42.5955C122.223 38.3021 122.846 30.8515 123.116 26.3096C126.543 28.0435 128.571 32.0825 128.268 35.8093Z" fill="#F2924B"/>
<path d="M78.8652 84.3675H33.1985L39.0611 62.3677H85.345L78.8652 84.3675Z" fill="#789464"/>
<path d="M123.605 84.3675H90.5896L85.3441 62.3677H123.605V84.3675Z" fill="#5B794C"/>
<path d="M26.1387 62.4585C32.5242 62.4585 37.7008 57.3388 37.7008 51.0232C37.7008 44.7077 32.5242 39.5879 26.1387 39.5879C19.7531 39.5879 14.5766 44.7077 14.5766 51.0232C14.5766 57.3388 19.7531 62.4585 26.1387 62.4585Z" fill="#F28338"/>
<path d="M26.1384 58.9368C30.5962 58.9368 34.21 55.3627 34.21 50.9538C34.21 46.5448 30.5962 42.9707 26.1384 42.9707C21.6807 42.9707 18.0669 46.5448 18.0669 50.9538C18.0669 55.3627 21.6807 58.9368 26.1384 58.9368Z" fill="#FFA969" stroke="white" stroke-width="16" stroke-miterlimit="10"/>
<path d="M28.4746 48.3542C28.3586 48.2242 28.2233 48.1076 28.0687 48.0044C27.914 47.9012 27.7401 47.8114 27.5469 47.7349C27.3536 47.6585 27.1468 47.5972 26.9265 47.5514C26.7062 47.5055 26.4723 47.4825 26.225 47.4825C25.506 47.4825 24.9784 47.6182 24.6422 47.8891C24.3059 48.1601 24.1377 48.5285 24.1377 48.9941C24.1377 49.3148 24.2169 49.5668 24.3755 49.7499C24.5338 49.9331 24.7831 50.082 25.1234 50.1965C25.4635 50.3112 25.8963 50.4295 26.4221 50.5515C27.0095 50.6737 27.5159 50.8187 27.9412 50.9866C28.3662 51.1547 28.6949 51.3817 28.9268 51.6681C29.1587 51.9544 29.2747 52.3419 29.2747 52.8304C29.2747 53.2045 29.2011 53.5289 29.0544 53.8038C28.9074 54.0787 28.7025 54.3077 28.4398 54.4908C28.1769 54.674 27.8638 54.8094 27.5005 54.8973C27.137 54.9851 26.739 55.029 26.3061 55.029C25.8809 55.029 25.473 54.9849 25.0828 54.8971C24.6923 54.8093 24.3232 54.6792 23.9753 54.5071C23.6275 54.3351 23.3028 54.1154 23.0013 53.8477L23.4071 53.194C23.5539 53.347 23.7298 53.4904 23.9348 53.624C24.1395 53.7579 24.3676 53.8783 24.6189 53.9853C24.87 54.0925 25.1407 54.1746 25.4306 54.2319C25.7205 54.2892 26.02 54.3179 26.3293 54.3179C26.9863 54.3179 27.4985 54.1996 27.8658 53.9631C28.2328 53.7265 28.4166 53.3757 28.4166 52.9101C28.4166 52.5743 28.3238 52.3051 28.1383 52.1028C27.9527 51.9005 27.6744 51.7344 27.3034 51.6046C26.9323 51.4749 26.4761 51.3487 25.9351 51.2265C25.3629 51.0968 24.8799 50.9518 24.4856 50.7915C24.0913 50.6313 23.7956 50.4193 23.5985 50.1558C23.4014 49.8924 23.3028 49.5432 23.3028 49.1079C23.3028 48.604 23.4284 48.1784 23.6797 47.8309C23.9308 47.4836 24.2768 47.2202 24.7175 47.0406C25.1582 46.8612 25.6644 46.7715 26.2366 46.7715C26.5998 46.7715 26.9381 46.8079 27.2512 46.8804C27.5643 46.9532 27.8542 47.0582 28.1209 47.1958C28.3876 47.3334 28.6369 47.5055 28.8688 47.7119L28.4746 48.3542Z" fill="#FDFDFF"/>
<path d="M26.1386 45.8843V56.0239" stroke="white" stroke-width="20" stroke-miterlimit="10"/>
<path d="M68.3999 122.233H46.9262C46.5263 122.233 46.202 121.912 46.202 121.517V118.611C46.202 118.215 46.5263 117.895 46.9262 117.895H68.3999C68.7999 117.895 69.1241 118.215 69.1241 118.611V121.517C69.1241 121.912 68.7999 122.233 68.3999 122.233Z" fill="#D87736" stroke="#E94E1B" stroke-miterlimit="10"/>
<path d="M60.1277 122.233H46.7602C46.4519 122.233 46.202 121.986 46.202 121.681V118.447C46.202 118.142 46.4519 117.895 46.7602 117.895H60.1277C60.4359 117.895 60.6858 118.142 60.6858 118.447V121.681C60.6858 121.986 60.4359 122.233 60.1277 122.233Z" fill="#F2924B" stroke="#E94E1B" stroke-miterlimit="10"/>
<path d="M49.5358 122.233H46.8266C46.6066 122.233 46.4283 122.057 46.4283 121.839V118.288C46.4283 118.071 46.6066 117.895 46.8266 117.895H49.5358C49.7558 117.895 49.9341 118.071 49.9341 118.288V121.839C49.9341 122.057 49.7558 122.233 49.5358 122.233Z" fill="#EFB075" stroke="#E94E1B" stroke-miterlimit="10"/>
<path d="M67.736 118.578H46.2624C45.8625 118.578 45.5382 118.257 45.5382 117.861V114.956C45.5382 114.56 45.8625 114.239 46.2624 114.239H67.736C68.136 114.239 68.4603 114.56 68.4603 114.956V117.861C68.4603 118.257 68.136 118.578 67.736 118.578Z" fill="#D87736" stroke="#E94E1B" stroke-miterlimit="10"/>
<path d="M59.4639 118.578H46.0964C45.7881 118.578 45.5382 118.33 45.5382 118.026V114.791C45.5382 114.486 45.7881 114.239 46.0964 114.239H59.4639C59.7721 114.239 60.022 114.486 60.022 114.791V118.026C60.022 118.33 59.7721 118.578 59.4639 118.578Z" fill="#F2924B" stroke="#E94E1B" stroke-miterlimit="10"/>
<path d="M48.8719 118.578H46.1627C45.9427 118.578 45.7643 118.401 45.7643 118.184V114.633C45.7643 114.416 45.9427 114.239 46.1627 114.239H48.8719C49.0919 114.239 49.2703 114.416 49.2703 114.633V118.184C49.2702 118.401 49.0919 118.578 48.8719 118.578Z" fill="#EFB075" stroke="#E94E1B" stroke-miterlimit="10"/>
<path d="M66.3847 114.239H44.911C44.5111 114.239 44.1868 113.919 44.1868 113.523V110.617C44.1868 110.222 44.5111 109.901 44.911 109.901H66.3847C66.7847 109.901 67.1089 110.222 67.1089 110.617V113.523C67.1089 113.919 66.7847 114.239 66.3847 114.239Z" fill="#D87736" stroke="#E94E1B" stroke-miterlimit="10"/>
<path d="M58.1125 114.239H44.745C44.4367 114.239 44.1868 113.992 44.1868 113.687V110.453C44.1868 110.148 44.4367 109.901 44.745 109.901H58.1125C58.4208 109.901 58.6707 110.148 58.6707 110.453V113.687C58.6707 113.992 58.4208 114.239 58.1125 114.239Z" fill="#F2924B" stroke="#E94E1B" stroke-miterlimit="10"/>
<path d="M47.5213 114.239H44.8121C44.5921 114.239 44.4138 114.063 44.4138 113.845V110.295C44.4138 110.077 44.5922 109.901 44.8121 109.901H47.5213C47.7414 109.901 47.9197 110.077 47.9197 110.295V113.845C47.9197 114.063 47.7414 114.239 47.5213 114.239Z" fill="#EFB075" stroke="#E94E1B" stroke-miterlimit="10"/>
<path d="M68.3999 109.87H46.9262C46.5263 109.87 46.202 109.549 46.202 109.153V106.248C46.202 105.852 46.5263 105.531 46.9262 105.531H68.3999C68.7999 105.531 69.1241 105.852 69.1241 106.248V109.153C69.1241 109.549 68.7999 109.87 68.3999 109.87Z" fill="#D87736" stroke="#E94E1B" stroke-miterlimit="10"/>
<path d="M60.1277 109.87H46.7602C46.4519 109.87 46.202 109.622 46.202 109.318V106.083C46.202 105.778 46.4519 105.531 46.7602 105.531H60.1277C60.4359 105.531 60.6858 105.778 60.6858 106.083V109.318C60.6858 109.622 60.4359 109.87 60.1277 109.87Z" fill="#F2924B" stroke="#E94E1B" stroke-miterlimit="10"/>
<path d="M49.5358 109.87H46.8266C46.6066 109.87 46.4283 109.693 46.4283 109.476V105.925C46.4283 105.708 46.6066 105.531 46.8266 105.531H49.5358C49.7558 105.531 49.9341 105.708 49.9341 105.925V109.476C49.9341 109.693 49.7558 109.87 49.5358 109.87Z" fill="#EFB075" stroke="#E94E1B" stroke-miterlimit="10"/>
<path d="M66.3847 105.603H44.911C44.5111 105.603 44.1868 105.282 44.1868 104.887V101.981C44.1868 101.585 44.5111 101.265 44.911 101.265H66.3847C66.7847 101.265 67.1089 101.585 67.1089 101.981V104.887C67.1089 105.282 66.7847 105.603 66.3847 105.603Z" fill="#D87736" stroke="#E94E1B" stroke-miterlimit="10"/>
<path d="M58.1125 105.603H44.745C44.4367 105.603 44.1868 105.356 44.1868 105.051V101.817C44.1868 101.512 44.4367 101.265 44.745 101.265H58.1125C58.4208 101.265 58.6707 101.512 58.6707 101.817V105.051C58.6707 105.356 58.4208 105.603 58.1125 105.603Z" fill="#F2924B" stroke="#E94E1B" stroke-miterlimit="10"/>
<path d="M47.5213 105.603H44.8121C44.5921 105.603 44.4138 105.427 44.4138 105.209V101.659C44.4138 101.441 44.5922 101.265 44.8121 101.265H47.5213C47.7414 101.265 47.9197 101.441 47.9197 101.659V105.209C47.9197 105.427 47.7414 105.603 47.5213 105.603Z" fill="#EFB075" stroke="#E94E1B" stroke-miterlimit="10"/>
<path d="M20.0258 60.5277C20.0258 60.5277 19.3349 57.3677 20.6306 55.9946C20.7715 56.0643 21.1257 57.0214 21.2872 57.4753C21.3417 57.6286 21.365 57.791 21.3557 57.9532L21.1988 60.7016L20.0258 60.5277Z" fill="#FFBAB9"/>
<path d="M29.9514 116.504L30.1657 120.25L31.62 120.499L32.1154 116.504H29.9514Z" fill="#FFBAB9"/>
<path d="M30.156 120.058C30.156 120.058 29.3568 121.746 30.0896 121.907C30.0896 121.907 34.5141 122.05 35.7081 122.039C35.887 122.037 35.9944 121.842 35.899 121.692L35.8679 121.644C35.783 121.51 35.6541 121.41 35.5032 121.361L31.6649 119.925C31.6649 119.925 31.4699 120.379 30.156 120.058Z" fill="#432918"/>
<path d="M16.7171 114.073L15.5027 117.759L16.788 118.476L18.5768 114.866L16.7171 114.073Z" fill="#FFBAB9"/>
<path d="M15.5583 117.574C15.5583 117.574 14.2324 118.899 14.8679 119.293C14.8679 119.293 18.9866 120.899 20.1151 121.285C20.2842 121.342 20.4517 121.194 20.4126 121.022L20.3999 120.965C20.3651 120.812 20.2777 120.675 20.1525 120.578L17.0248 117.95C17.0248 117.95 16.6867 118.314 15.5583 117.574Z" fill="#432918"/>
<path d="M26.4846 69.6898L26.1386 72.4139H28.5986V69.4595L26.4846 69.6898Z" fill="#FFBAB9"/>
<path d="M34.144 89.1326V101.399L33.3 118.195L29.224 118.269H29.2196L28.3343 118.285L28.3348 118.276L28.9531 105.768C28.9584 105.663 28.9563 105.558 28.9474 105.453L28.0402 94.9554L28.0355 94.8998L22.9448 107.533L19.0112 117.236C19.0112 117.236 15.0775 116.229 15.0775 116.046C15.1575 111.37 18.1519 106.144 18.9541 104.826C19.0859 104.61 19.1827 104.374 19.2413 104.128L22.9448 88.5835L34.144 89.1326Z" fill="#B0CC8F"/>
<path d="M34.6888 90.2315L22.2906 91.3319L24.0885 84.3677L34.6888 90.2315Z" fill="#97A97E"/>
<path d="M19.705 60.48C19.705 60.48 17.206 70.1834 21.0008 74.5775C21.0934 74.669 20.8045 88.9495 20.8045 88.9495L34.6881 90.2311L34.1439 74.9436C34.1439 74.9436 37.7536 67.6203 34.8844 60.0223C34.9769 59.9307 33.2091 60.1181 33.2091 60.1181C33.2091 60.1181 32.154 69.796 30.123 71C29.9909 71.0783 29.867 71.1692 29.7583 71.2771C29.2071 71.8241 27.1051 73.3395 25.6733 71.5992C25.5331 71.4288 25.3634 71.2837 25.1714 71.1731C24.2592 70.6474 21.3848 68.1194 21.4636 60.48C21.7413 60.5715 19.705 60.48 19.705 60.48Z" fill="#ECD582"/>
<path d="M27.1335 70.2704C27.1335 70.2704 28.5978 71.2552 30.6479 70.7338C30.7064 70.7917 31.3507 68.1849 29.4764 66.6787C29.535 66.7946 26.0207 67.0842 26.0207 67.0842L25.3178 68.7824L27.1335 70.2704Z" fill="#FFBAB9"/>
<path d="M27.1343 70.2706C27.1343 70.2706 24.7329 71.1974 24.0886 68.3009C24.1472 68.4747 23.5029 63.1277 28.3643 65.0192C28.3643 65.0192 29.726 63.5008 30.1801 65.969C30.2972 66.2734 28.1886 67.8186 26.7829 67.5094C26.9 67.6058 26.2599 68.243 27.1364 68.9961C27.1343 68.9961 24.8722 68.2065 26.794 69.9916C26.8108 70.0055 27.1343 70.2706 27.1343 70.2706Z" fill="#432918"/>
<path d="M29.2234 118.27H29.219L28.3342 118.277L28.9525 105.768C28.9578 105.663 28.9557 105.558 28.9468 105.453L28.0396 94.9557C28.417 93.8164 29.0075 93.878 29.0075 93.878C29.0075 93.878 29.9746 105.355 29.951 105.408C30.3036 107.533 29.2234 118.27 29.2234 118.27Z" fill="#97A97E"/>
<path d="M103.043 50.7158L100.541 53.3839L97.9565 51.013C96.6211 49.7878 94.7874 49.2398 92.9906 49.5352C90.1681 49.9993 88.506 51.5023 88.3095 54.3173C88.1873 56.0676 88.8808 57.7772 90.1809 58.9707C91.0014 59.7239 101.006 69.1583 101.058 69.1023L110.905 58.6022C112.172 57.2516 112.721 55.3876 112.379 53.5767C111.856 50.8039 110.465 49.2429 108.197 48.9097C106.285 48.6288 104.358 49.3142 103.043 50.7158Z" fill="#E30613"/>
<path d="M32.8888 27.9641L32.1604 28.7407L31.4082 28.0506C31.0196 27.6941 30.4859 27.5345 29.9629 27.6205C29.1414 27.7556 28.6576 28.193 28.6005 29.0124C28.5649 29.5218 28.7667 30.0194 29.1451 30.3667C29.3839 30.5859 32.2958 33.3319 32.3108 33.3156L35.177 30.2595C35.5457 29.8664 35.7055 29.3239 35.606 28.7968C35.4536 27.9898 35.049 27.5355 34.3888 27.4385C33.8323 27.3567 33.2714 27.5562 32.8888 27.9641Z" fill="#E30613"/>
<path d="M126.572 111.094L127.985 114.079C128.052 114.69 127.782 115.175 127.278 115.572L124.991 111.947L126.572 111.094Z" fill="#FFBAB9"/>
<path d="M110.458 56.7325C110.458 56.7325 111.168 55.3011 108.92 53.7462C108.872 53.7129 108.805 53.7458 108.803 53.8039L108.785 54.414C108.769 54.9234 108.911 55.4256 109.125 55.8892L109.672 57.0757L110.458 56.7325Z" fill="#FFBAB9"/>
<path d="M96.9934 65.8705L94.6216 62.6534C94.5417 62.545 94.3686 62.5874 94.3497 62.7202C94.2159 63.6605 94.1247 66.1551 96.9934 65.8705Z" fill="#FFBAB9"/>
<path d="M112.161 114.77L111.619 118.022C111.627 118.879 111.227 119.302 110.585 119.469L110.369 114.589L112.161 114.77Z" fill="#FFBAB9"/>
<path d="M127.985 110.88L124.535 113.344L116.87 102.73L111.983 93.0636L111.624 101.856C111.611 102.171 111.717 102.477 111.912 102.725C113.527 104.786 113.612 115.145 113.612 115.145H108.725L106.905 103.962C106.905 103.962 104.892 86.2404 104.988 86.2404C107.039 86.9781 109.01 87.0878 110.736 86.8992C113.266 86.6228 115.271 85.7061 116.238 85.1866C116.647 84.9673 116.87 84.8188 116.87 84.8188L117.025 84.9416L117.828 85.5771C117.828 85.5771 118.025 86.612 118.31 88.1197C118.907 91.2776 119.89 96.5087 120.266 98.6476C120.353 99.1424 120.669 99.5725 121.126 99.7925C124.198 101.272 127.985 110.88 127.985 110.88Z" fill="#6D894C"/>
<path d="M118.31 88.1195C118.31 88.1204 118.31 88.1206 118.31 88.1206C110.106 90.2051 108.92 87.6713 109.063 87.4198L110.736 86.899L116.239 85.1864L117.025 84.9414L117.828 85.5769C117.828 85.5769 118.025 86.6118 118.31 88.1195Z" fill="#3B4726"/>
<path d="M116.485 70.5086C116.485 70.5086 116.008 60.1788 110.929 56.7671H109.205C109.205 56.7671 113.421 68.9568 113.325 69.8275C113.229 69.8452 107.48 69.087 107.48 69.087C107.48 69.087 99.5599 68.5605 96.6853 64.8646C96.5894 64.9593 95.3141 65.7225 95.3141 65.7225C95.3141 65.7225 98.9454 72.1196 104.985 72.783C105.084 72.8778 104.989 86.2401 104.989 86.2401C104.989 86.2401 113.996 90.8838 117.828 85.5768L116.175 78.0041C116.064 77.4953 116.026 76.9736 116.063 76.4544L116.485 70.5086Z" fill="#D8DAB9"/>
<path d="M108.805 65.3204C108.805 65.3204 107.727 62.9038 110.286 62.6195C110.259 62.6195 112.415 61.6955 113.205 65.3204C113.133 65.3204 118.364 71.578 112.479 73.7488C112.349 74.0331 109.522 77.3887 109.333 79.4499C109.288 79.6631 106.074 73.762 110.286 69.0437L109.684 65.7469L108.805 65.3204Z" fill="#663E29"/>
<path d="M110.287 69.0436C111.105 69.0436 111.768 67.8858 111.768 66.4576C111.768 65.0294 111.105 63.8716 110.287 63.8716C109.468 63.8716 108.805 65.0294 108.805 66.4576C108.805 67.8858 109.468 69.0436 110.287 69.0436Z" fill="#FFBAB9"/>
<path d="M113.247 118.707C113.297 119.2 112.867 119.699 112.52 120.005C112.375 120.132 112.216 120.246 112.098 120.398C111.899 120.653 111.841 120.977 111.695 121.261C111.532 121.578 111.315 121.867 111.073 122.13C110.81 122.416 110.517 122.672 110.218 122.919C109.953 123.139 109.679 123.377 109.347 123.491C109.208 123.539 109.012 123.475 109.075 123.282L110.127 121.234C110.213 120.97 110.39 120.61 110.464 120.249L110.585 119.469C111.109 119.136 111.47 118.668 111.619 118.022C111.619 118.022 111.825 118.045 111.825 118.045C112 118.065 112.208 117.967 112.398 117.985C112.586 118.002 112.774 118.059 112.927 118.17C113.126 118.315 113.227 118.505 113.247 118.707Z" fill="#423728"/>
<path d="M129.701 114.471C129.712 114.528 129.715 114.589 129.709 114.655C129.67 115.102 129.42 115.507 129.118 115.83C128.987 115.971 128.839 116.099 128.736 116.261C128.563 116.535 128.537 116.863 128.42 117.159C128.288 117.491 128.101 117.799 127.886 118.084C127.652 118.393 127.385 118.676 127.112 118.951C126.87 119.195 126.62 119.458 126.301 119.604C126.167 119.665 125.966 119.62 126.01 119.421L126.856 117.283C126.916 117.012 127.057 116.636 127.095 116.27L127.181 115.417C127.67 115.036 127.909 114.793 127.995 114.136C128.449 113.777 129.578 113.826 129.701 114.471Z" fill="#423728"/>
<path d="M113.613 115.145H112.503C109.113 98.786 111.122 92.565 111.04 92.4574C111.627 90.9076 111.984 93.0638 111.984 93.0638L111.625 101.856C111.612 102.171 111.717 102.477 111.912 102.726C113.528 104.786 113.613 115.145 113.613 115.145Z" fill="#3B4726"/>
<path d="M111.234 10.8777L112.586 8.38766L101.367 0L111.234 10.8777Z" fill="#4C6142"/>
<path d="M116.516 6.58139L112.586 8.38763L101.367 0L116.508 6.1937C116.68 6.26417 116.685 6.50368 116.516 6.58139Z" fill="#789464"/>
<path d="M101.367 0L105.402 10.3965C105.507 10.666 105.807 10.8069 106.084 10.7168L111.234 9.04293L101.367 0Z" fill="#789464"/>
<path d="M43.1483 69.3081C43.6719 69.2235 44.2923 69.1675 44.9645 69.1675C46.1873 69.1675 47.0638 69.4542 47.6419 69.9884C48.2328 70.5177 48.5776 71.2746 48.5776 72.3272C48.5776 73.3989 48.2391 74.2661 47.627 74.8699C47.0025 75.4783 45.9807 75.8121 44.7009 75.8121C44.0893 75.8121 43.5825 75.7885 43.1483 75.7393L43.1483 69.3081ZM44.0056 75.0903C44.2221 75.125 44.5382 75.1301 44.8639 75.1301C46.6933 75.1344 47.6785 74.1266 47.6785 72.3593C47.6888 70.8155 46.806 69.8413 45.0059 69.8413C44.5644 69.8413 44.2334 69.8818 44.0056 69.9273V75.0903Z" fill="white"/>
<path d="M55.3305 72.4212C55.3305 74.6638 53.9489 75.8614 52.2642 75.8614C50.5114 75.8614 49.2937 74.5193 49.2937 72.544C49.2937 70.473 50.5896 69.1118 52.3539 69.1118C54.1587 69.1118 55.3305 70.4792 55.3305 72.4212ZM50.1964 72.5244C50.1964 73.9231 50.9644 75.1747 52.3105 75.1747C53.6662 75.1747 54.4278 73.9433 54.4278 72.4583C54.4278 71.157 53.7414 69.7985 52.3213 69.7985C50.9027 69.7985 50.1964 71.0948 50.1964 72.5244Z" fill="white"/>
<path d="M56.4347 75.7545V69.2183H57.3732L59.4901 72.5217C59.9731 73.2884 60.3569 73.9755 60.6692 74.6501L60.691 74.6399C60.6136 73.7674 60.5981 72.9703 60.5981 71.9577V69.2183H61.4018V75.7545H60.5348L58.4343 72.4414C57.9791 71.709 57.5348 70.9636 57.2048 70.2529L57.1756 70.2631C57.2266 71.0913 57.2384 71.879 57.2384 72.9595V75.7544H56.4347V75.7545Z" fill="white"/>
<path d="M63.9587 73.7002L63.2759 75.7545H62.3909L64.6385 69.2183H65.665L67.922 75.7545H67.0092L66.3014 73.7002H63.9587ZM66.129 73.0402L65.4747 71.1592C65.3313 70.7314 65.232 70.3421 65.1342 69.9668H65.1112C65.0165 70.3489 64.9133 70.7481 64.7835 71.1478L64.1323 73.0402H66.129Z" fill="white"/>
<path d="M69.3935 69.9314H67.3804V69.2183H72.2742V69.9314H70.2516V75.7545H69.3935V69.9314Z" fill="white"/>
<path d="M76.4253 72.6903H73.8632V75.0513H76.7287V75.7545H73.0051V69.2183H76.5777V69.9215H73.8632V71.9915H76.4253V72.6903Z" fill="white"/>
<path d="M85.3449 46.0299C82.2567 43.5702 78.2523 40.3634 75.8183 37.2676C73.6777 34.545 69.4827 33.2195 66.4049 31.8801C64.2917 30.9604 61.9547 30.5643 59.6821 30.243C57.4293 29.9245 55.2187 29.1563 53.04 28.5058C48.383 27.1155 43.7733 25.5718 39.2095 23.9067C36.8617 23.0501 34.4424 22.1077 32.719 20.3132C30.7932 18.3081 29.6859 14.8231 30.667 12.1325C31.077 11.0083 31.9722 10.1062 32.9976 9.47377C35.1383 8.15341 37.8641 7.5634 40.3669 7.63754C45.701 7.79559 51.2216 9.18409 56.3793 10.4607C61.8306 11.8099 67.2075 13.4297 72.6018 14.9819C77.9758 16.5283 83.4307 18.0195 88.6785 19.9577C93.7534 21.8321 98.6619 24.147 103.329 26.8671C107.238 29.1455 111.011 31.7235 115.244 33.3393C119.477 34.9552 124.353 35.523 128.5 33.7032C132.648 31.8833 135.675 27.2039 134.533 22.8604C133.768 19.951 131.32 17.6757 128.523 16.4998C125.726 15.3238 122.607 15.1184 119.57 15.2372C117.911 15.3022 116.218 15.4557 114.614 15.0309C113.01 14.6061 111.535 12.4931 111.235 10.8777" stroke="#4C6142" stroke-width="3" stroke-miterlimit="10"/>
</svg>
