<svg width="80" height="81" viewBox="0 0 80 81" fill="none" xmlns="http://www.w3.org/2000/svg">
<rect y="0.644043" width="80" height="80" rx="7" fill="#F2F2F2"/>
<mask id="mask0_277_99906" style="mask-type:alpha" maskUnits="userSpaceOnUse" x="22" y="4" width="40" height="5">
<rect x="22" y="4.42993" width="40" height="4.0979" rx="2.04895" fill="#F3B811"/>
</mask>
<g mask="url(#mask0_277_99906)">
<path d="M22 4.42993H36.8V19.797V26.9683H32.5221C29.4708 26.9683 26.5866 25.5753 24.6896 23.1854L22 19.797V4.42993Z" fill="#E52021"/>
<rect x="36.7998" y="4.42993" width="10.4" height="22.5384" fill="#F7F7F7"/>
<path d="M47.2002 4.42993H62.0002V19.797L59.3106 23.1854C57.4136 25.5753 54.5293 26.9683 51.4781 26.9683H47.2002V19.797V4.42993Z" fill="#268A42"/>
<rect x="22" y="4.42993" width="40" height="4.0979" rx="2.04895" fill="black" fill-opacity="0.05"/>
</g>
<path fill-rule="evenodd" clip-rule="evenodd" d="M36.7999 8.52905H26.3999V23.8962L27.5392 25.9387C27.9973 26.76 28.5614 27.5003 29.2089 28.1463C29.5266 27.9691 29.8743 27.8396 30.2439 27.7684L31.3635 27.5528C31.5286 27.5211 31.6836 27.4486 31.8149 27.3416C31.9463 27.2346 32.05 27.0965 32.117 26.9391L32.572 25.8722C33.272 24.2309 35.0761 23.3433 36.7692 23.8078L36.7999 23.8162V8.52905Z" fill="#E52021"/>
<path fill-rule="evenodd" clip-rule="evenodd" d="M47.1998 8.52905H36.7998V23.8162L37.8694 24.1097C38.0316 24.1543 38.202 24.1576 38.3658 24.1194C38.5296 24.0812 38.6817 24.0027 38.8089 23.8906L39.6721 23.131C41 21.9625 43.0028 21.9625 44.3306 23.131L45.1937 23.8906C45.3209 24.0027 45.473 24.0812 45.6368 24.1194C45.8006 24.1576 45.9711 24.1543 46.1333 24.1097L47.1998 23.8171V8.52905Z" fill="#F7F7F7"/>
<path fill-rule="evenodd" clip-rule="evenodd" d="M57.6002 8.52905H47.2002V23.8169L47.2336 23.8078C48.9266 23.3431 50.7308 24.2309 51.4308 25.8722L51.8857 26.939C51.9527 27.0964 52.0564 27.2346 52.1878 27.3416C52.3191 27.4486 52.4741 27.5211 52.6392 27.5528L53.7588 27.7684C54.1278 27.8395 54.4749 27.9687 54.7921 28.1454C55.4393 27.4996 56.003 26.7596 56.4609 25.9387L57.6002 23.8962V8.52905Z" fill="#268A42"/>
<path d="M41.7048 7.09668L42.1686 12.1392L44.0004 7.43482L43.0587 12.407L46.11 8.42183L43.8392 12.9208L47.8628 9.97776L44.4467 13.6391L49.1166 11.9766L44.832 14.5036L49.77 14.2563L44.9641 15.4443L49.77 16.6323L44.832 16.385L49.1166 18.912L44.4467 17.2495L47.8628 20.9108L43.8392 17.9677L46.11 22.4667L43.0587 18.4816L44.0004 23.4537L42.1686 18.7493L41.7048 23.7919L41.2409 18.7493L39.4092 23.4537L40.3508 18.4816L37.2996 22.4667L39.5704 17.9677L35.5468 20.9108L38.9629 17.2495L34.293 18.912L38.5776 16.385L33.6396 16.6323L38.4455 15.4443L33.6396 14.2563L38.5776 14.5036L34.293 11.9766L38.9629 13.6391L35.5468 9.97776L39.5704 12.9208L37.2996 8.42183L40.3508 12.407L39.4092 7.43482L41.2409 12.1392L41.7048 7.09668Z" fill="#F7B70F"/>
<path fill-rule="evenodd" clip-rule="evenodd" d="M57.3109 40.4097C57.2391 40.2769 57.2016 40.1289 57.2016 39.9787C57.2015 39.8284 57.2391 39.6804 57.3109 39.5476L57.7975 38.647C58.5462 37.2614 58.1394 35.515 56.8511 34.5849L56.0139 33.9803C55.8903 33.8912 55.791 33.7739 55.7244 33.6385C55.6579 33.5031 55.6261 33.3538 55.632 33.2037L55.6717 32.1854C55.7325 30.6188 54.5925 29.2183 53.0199 28.9278L51.9977 28.739C51.847 28.7112 51.7055 28.6477 51.5856 28.554C51.4656 28.4604 51.371 28.3393 51.3098 28.2015L50.8944 27.2673C50.2554 25.83 48.6082 25.0526 47.0625 25.4595L46.058 25.7239C45.9099 25.7629 45.7543 25.7658 45.6047 25.7324C45.4552 25.6989 45.3163 25.6302 45.2001 25.532L44.4121 24.8668C43.2 23.8436 41.3714 23.8436 40.1591 24.8668L39.3711 25.532C39.2549 25.6301 39.116 25.6989 38.9665 25.7324C38.817 25.7658 38.6614 25.7629 38.5133 25.7239L37.5087 25.4595C35.963 25.0527 34.3158 25.83 33.6768 27.2673L33.2614 28.2016C33.2002 28.3394 33.1055 28.4604 32.9856 28.5541C32.8657 28.6478 32.7242 28.7112 32.5734 28.739L31.5513 28.9278C29.9787 29.2183 28.8386 30.6188 28.8995 32.1854L28.939 33.2037C28.945 33.3538 28.9133 33.5031 28.8467 33.6385C28.7802 33.7739 28.6808 33.8912 28.5573 33.9803L27.72 34.5849C26.4318 35.5151 26.0249 37.2615 26.7736 38.6471L27.2602 39.5477C27.3321 39.6804 27.3696 39.8284 27.3696 39.9787C27.3696 40.129 27.3321 40.2769 27.2602 40.4097L26.7736 41.3103C26.0249 42.6959 26.4318 44.4422 27.72 45.3725L28.5572 45.977C28.6808 46.0661 28.7801 46.1835 28.8467 46.3189C28.9132 46.4543 28.9449 46.6036 28.939 46.7538L28.8994 47.772C28.8386 49.3387 29.9786 50.7391 31.5512 51.0296L32.0872 51.1286L32.0873 51.1284L32.5732 51.2181C32.724 51.2459 32.8655 51.3095 32.9854 51.4032C33.1054 51.4969 33.2 51.6179 33.2612 51.7557L33.6766 52.6899C34.3156 54.1272 35.9628 54.9046 37.5085 54.4977L38.513 54.2334C38.6612 54.1943 38.8168 54.1914 38.9663 54.2249C39.1158 54.2583 39.2547 54.3271 39.3709 54.4252L40.1589 55.0904C40.2243 55.1453 40.292 55.1977 40.3618 55.2474L40.3616 55.2477L40.3619 55.2475C40.9305 55.6542 41.6079 55.8581 42.2855 55.8581C42.9529 55.8581 43.62 55.6608 44.1831 55.2665L44.183 55.2664C44.2621 55.2111 44.3385 55.1524 44.412 55.0904L45.2 54.4252C45.3162 54.3271 45.4551 54.2583 45.6046 54.2249C45.7541 54.1914 45.9097 54.1943 46.0578 54.2334L47.0624 54.4977C47.3389 54.5704 47.6184 54.6053 47.895 54.6053C49.1647 54.6052 50.3696 53.8701 50.8943 52.6899L51.3097 51.7556C51.3709 51.6178 51.4655 51.4968 51.5854 51.4031C51.7053 51.3094 51.8468 51.2459 51.9976 51.2181L52.4501 51.1346L52.4503 51.1348L52.4503 51.1347L53.02 51.0295C54.5926 50.7391 55.7326 49.3386 55.6718 47.7719L55.6321 46.7537C55.6262 46.6036 55.6579 46.4543 55.7245 46.3189C55.791 46.1835 55.8904 46.0661 56.0139 45.977L56.8512 45.3725C58.1395 44.4423 58.5463 42.6959 57.7976 41.3103L57.3109 40.4097Z" fill="#F3B811"/>
<ellipse cx="42.2853" cy="40.0627" rx="10.3868" ry="10.1755" fill="url(#paint0_linear_277_99906)"/>
<path d="M46.196 43.693H38.3753C37.9711 43.693 37.6422 44.0152 37.6422 44.4112C37.6422 44.8072 37.9711 45.1295 38.3753 45.1295H46.196C46.6002 45.1295 46.9292 44.8072 46.9292 44.4112C46.9292 44.0152 46.6002 43.693 46.196 43.693ZM48.3956 37.468C48.3956 37.9592 48.0143 38.3605 47.5275 38.4151L46.5861 43.2141H37.9853L37.0439 38.4151C36.557 38.3605 36.1758 37.9592 36.1758 37.468C36.1758 36.9398 36.6142 36.5103 37.1534 36.5103C37.6925 36.5103 38.1309 36.9398 38.1309 37.468C38.1309 37.8228 37.9305 38.1297 37.6368 38.2954C38.2018 39.6074 39.088 40.4124 39.9092 40.3396C40.8261 40.2663 41.574 39.2042 41.9865 37.4273C41.4577 37.296 41.0637 36.8292 41.0637 36.2708C41.0637 35.6105 41.6116 35.0737 42.2857 35.0737C42.9597 35.0737 43.5077 35.6105 43.5077 36.2708C43.5077 36.8292 43.1137 37.2961 42.5848 37.4273C42.9974 39.2042 43.7452 40.2663 44.6622 40.3396C45.4868 40.4124 46.3691 39.6074 46.9346 38.2954C46.6408 38.1297 46.4404 37.8228 46.4404 37.468C46.4404 36.9398 46.8789 36.5103 47.418 36.5103C47.9571 36.5103 48.3956 36.9398 48.3956 37.468Z" fill="#F3B811"/>
<path d="M15.2783 74.8582L17.5183 68.6342C17.6676 68.2502 17.8703 67.9568 18.1263 67.7542C18.3823 67.5408 18.7983 67.4342 19.3743 67.4342C19.8863 67.4342 20.2756 67.5302 20.5423 67.7222C20.8196 67.9142 21.033 68.2182 21.1823 68.6342L23.4703 74.8582H21.6943L21.0063 72.9382H17.2143L16.5423 74.8582H15.2783ZM17.4703 72.2502H20.7023L19.6943 69.3222C19.6516 69.1835 19.593 69.0608 19.5183 68.9542C19.4543 68.8475 19.3103 68.7942 19.0863 68.7942C18.8516 68.7942 18.697 68.8528 18.6223 68.9702C18.5476 69.0768 18.489 69.1942 18.4463 69.3222L17.4703 72.2502ZM28.0138 74.9542C27.1498 74.9542 26.4511 74.8688 25.9178 74.6982C25.3845 74.5275 25.0005 74.2128 24.7658 73.7542C24.5311 73.2955 24.4138 72.6235 24.4138 71.7382C24.4138 70.8208 24.5311 70.1222 24.7658 69.6422C25.0005 69.1515 25.3845 68.8208 25.9178 68.6502C26.4511 68.4688 27.1498 68.3782 28.0138 68.3782C28.2911 68.3782 28.5525 68.3888 28.7978 68.4102C29.0538 68.4315 29.3471 68.4688 29.6778 68.5222C29.8591 68.5435 30.0031 68.5862 30.1098 68.6502C30.2271 68.7142 30.3125 68.8102 30.3658 68.9382C30.4191 69.0555 30.4458 69.2315 30.4458 69.4662C30.3178 69.4128 30.1311 69.3648 29.8858 69.3222C29.6405 69.2795 29.3791 69.2475 29.1018 69.2262C28.8245 69.2048 28.5791 69.1942 28.3658 69.1942C27.7578 69.1942 27.2725 69.2742 26.9098 69.4342C26.5578 69.5835 26.3071 69.8342 26.1578 70.1862C26.0191 70.5382 25.9498 71.0235 25.9498 71.6422C25.9498 72.2608 26.0191 72.7515 26.1578 73.1142C26.3071 73.4768 26.5578 73.7328 26.9098 73.8822C27.2618 74.0315 27.7471 74.1062 28.3658 74.1062C28.6538 74.1062 28.9311 74.0955 29.1978 74.0742C29.4645 74.0422 29.7045 74.0048 29.9178 73.9622C30.1418 73.9088 30.3178 73.8608 30.4458 73.8182V74.2502C30.4458 74.4422 30.3391 74.5915 30.1258 74.6982C29.9125 74.7942 29.6245 74.8582 29.2618 74.8902C28.9098 74.9328 28.4938 74.9542 28.0138 74.9542ZM34.6904 74.9542C34.0291 74.9542 33.4904 74.9222 33.0744 74.8582C32.6584 74.8048 32.3384 74.7035 32.1144 74.5542C31.8904 74.4048 31.7358 74.2022 31.6504 73.9462C31.5758 73.6902 31.5384 73.3702 31.5384 72.9862C31.5384 72.4422 31.5971 72.0315 31.7144 71.7542C31.8424 71.4662 32.0558 71.2688 32.3544 71.1622C32.6638 71.0555 33.0744 71.0022 33.5864 71.0022C33.8531 71.0022 34.1464 71.0075 34.4664 71.0182C34.7971 71.0288 35.1118 71.0448 35.4104 71.0662C35.7198 71.0768 35.9864 71.0928 36.2104 71.1142C36.4451 71.1355 36.5998 71.1622 36.6744 71.1942C36.6744 70.7462 36.6371 70.3942 36.5624 70.1382C36.4878 69.8822 36.3651 69.6902 36.1944 69.5622C36.0344 69.4342 35.8318 69.3488 35.5864 69.3062C35.3411 69.2635 35.0531 69.2422 34.7224 69.2422C34.3598 69.2422 33.9971 69.2528 33.6344 69.2742C33.2824 69.2955 32.9464 69.3328 32.6264 69.3862C32.3171 69.4395 32.0611 69.5088 31.8584 69.5942V69.2902C31.8584 69.0448 31.9224 68.8688 32.0504 68.7622C32.1891 68.6555 32.3544 68.5862 32.5464 68.5542C32.7598 68.5008 33.0744 68.4582 33.4904 68.4262C33.9064 68.3942 34.3491 68.3835 34.8184 68.3942C35.4158 68.3942 35.9224 68.4262 36.3384 68.4902C36.7651 68.5435 37.1064 68.6608 37.3624 68.8422C37.6291 69.0235 37.8211 69.2955 37.9384 69.6582C38.0664 70.0208 38.1304 70.5062 38.1304 71.1142V74.3782C38.0344 74.5808 37.7091 74.7302 37.1544 74.8262C36.5998 74.9115 35.7784 74.9542 34.6904 74.9542ZM34.6904 74.2822C35.1171 74.2822 35.4638 74.2715 35.7304 74.2502C36.0078 74.2182 36.2211 74.1808 36.3704 74.1382C36.5198 74.0848 36.6211 74.0208 36.6744 73.9462V71.7382C36.5784 71.7062 36.4078 71.6795 36.1624 71.6582C35.9171 71.6262 35.6611 71.5995 35.3944 71.5782C35.1278 71.5568 34.9038 71.5462 34.7224 71.5462C34.3278 71.5462 34.0078 71.5728 33.7624 71.6262C33.5171 71.6795 33.3411 71.8022 33.2344 71.9942C33.1278 72.1862 33.0744 72.4848 33.0744 72.8902C33.0744 73.2208 33.1118 73.4875 33.1864 73.6902C33.2611 73.8928 33.4104 74.0422 33.6344 74.1382C33.8691 74.2342 34.2211 74.2822 34.6904 74.2822ZM39.5388 71.6422C39.5388 70.7782 39.6561 70.1168 39.8908 69.6582C40.1255 69.1888 40.4668 68.8688 40.9148 68.6982C41.3628 68.5168 41.9015 68.4262 42.5308 68.4262C42.7228 68.4262 42.9415 68.4368 43.1868 68.4582C43.4428 68.4688 43.6935 68.4902 43.9388 68.5222C44.1841 68.5542 44.4028 68.5915 44.5948 68.6342C44.7868 68.6662 44.9201 68.7035 44.9948 68.7462L44.5948 68.9382V66.7782H46.0668L46.0508 71.6422C46.0508 72.3675 45.9975 72.9488 45.8908 73.3862C45.7841 73.8128 45.6081 74.1328 45.3628 74.3462C45.1175 74.5595 44.7761 74.7035 44.3388 74.7782C43.9015 74.8528 43.3575 74.8902 42.7068 74.8902C42.0988 74.8902 41.5868 74.8528 41.1708 74.7782C40.7655 74.6928 40.4401 74.5382 40.1948 74.3142C39.9601 74.0902 39.7895 73.7648 39.6828 73.3382C39.5868 72.9115 39.5388 72.3462 39.5388 71.6422ZM42.6748 74.0742C43.0908 74.0742 43.4268 74.0475 43.6828 73.9942C43.9388 73.9302 44.1308 73.8182 44.2588 73.6582C44.3975 73.4982 44.4881 73.2742 44.5308 72.9862C44.5735 72.6875 44.5948 72.3035 44.5948 71.8342L44.5788 69.3862C44.4721 69.3755 44.3281 69.3648 44.1468 69.3542C43.9655 69.3435 43.7735 69.3382 43.5708 69.3382C43.3681 69.3275 43.1815 69.3222 43.0108 69.3222C42.5308 69.3222 42.1468 69.3862 41.8588 69.5142C41.5708 69.6315 41.3628 69.8608 41.2348 70.2022C41.1068 70.5435 41.0428 71.0342 41.0428 71.6742C41.0428 72.3568 41.0908 72.8688 41.1868 73.2102C41.2935 73.5515 41.4641 73.7808 41.6988 73.8982C41.9441 74.0155 42.2695 74.0742 42.6748 74.0742ZM48.2614 74.8582C48.0161 74.8582 47.8508 74.8208 47.7654 74.7462C47.6908 74.6715 47.6534 74.5115 47.6534 74.2662V68.9222C47.7708 68.8902 47.9201 68.8475 48.1014 68.7942C48.2934 68.7408 48.5121 68.6875 48.7574 68.6342C49.0134 68.5702 49.2908 68.5222 49.5894 68.4902C49.8988 68.4582 50.2188 68.4422 50.5494 68.4422C50.9334 68.4422 51.2641 68.4742 51.5414 68.5382C51.8188 68.5915 52.0588 68.6982 52.2614 68.8582C52.4641 69.0075 52.6294 69.2262 52.7574 69.5142L52.5014 69.4982C52.5868 69.2955 52.7148 69.1248 52.8854 68.9862C53.0561 68.8368 53.2481 68.7248 53.4614 68.6502C53.6854 68.5648 53.9148 68.5062 54.1494 68.4742C54.3841 68.4422 54.6028 68.4262 54.8054 68.4262C55.4454 68.4262 55.9468 68.4902 56.3094 68.6182C56.6828 68.7355 56.9441 68.9382 57.0934 69.2262C57.2534 69.5142 57.3334 69.9088 57.3334 70.4102V74.3142C57.3334 74.5382 57.2908 74.6875 57.2054 74.7622C57.1308 74.8262 56.9814 74.8582 56.7574 74.8582H55.8454C55.8454 74.1115 55.8454 73.3648 55.8454 72.6182C55.8454 71.8715 55.8454 71.1195 55.8454 70.3622C55.8348 69.9035 55.7281 69.5942 55.5254 69.4342C55.3228 69.2742 55.0134 69.1942 54.5974 69.1942C54.4054 69.1942 54.2028 69.2208 53.9894 69.2742C53.7868 69.3275 53.6108 69.4022 53.4614 69.4982C53.3228 69.5942 53.2534 69.7062 53.2534 69.8342V74.8582H51.7494V70.0262C51.7494 69.7702 51.6321 69.5728 51.3974 69.4342C51.1628 69.2848 50.8588 69.2102 50.4854 69.2102C50.2614 69.2102 50.0534 69.2315 49.8614 69.2742C49.6694 69.3062 49.5094 69.3542 49.3814 69.4182C49.2534 69.4822 49.1788 69.5675 49.1574 69.6742V74.8582H48.2614ZM60.4532 74.9222C59.8879 74.9222 59.5039 74.7888 59.3012 74.5222C59.0985 74.2448 58.9972 73.8342 58.9972 73.2902L59.0132 68.4742H60.5012V73.2102C60.5012 73.6155 60.5492 73.8928 60.6452 74.0422C60.7519 74.1915 60.9279 74.2662 61.1732 74.2662C61.2692 74.2662 61.3759 74.2555 61.4932 74.2342C61.6105 74.2128 61.6852 74.1968 61.7172 74.1862V74.7942C61.6745 74.8048 61.6052 74.8208 61.5092 74.8422C61.4132 74.8635 61.2799 74.8795 61.1092 74.8902C60.9385 74.9115 60.7199 74.9222 60.4532 74.9222ZM59.7812 67.5942C59.5359 67.5942 59.3492 67.5622 59.2212 67.4982C59.1039 67.4235 59.0452 67.2902 59.0452 67.0982C59.0452 66.9062 59.1039 66.7782 59.2212 66.7142C59.3385 66.6395 59.5252 66.6022 59.7812 66.6022C60.0265 66.6022 60.2025 66.6395 60.3092 66.7142C60.4265 66.7782 60.4852 66.9062 60.4852 67.0982C60.4852 67.2902 60.4265 67.4235 60.3092 67.4982C60.2025 67.5622 60.0265 67.5942 59.7812 67.5942ZM66.0451 74.9542C65.1811 74.9542 64.4824 74.8688 63.9491 74.6982C63.4157 74.5275 63.0317 74.2128 62.7971 73.7542C62.5624 73.2955 62.4451 72.6235 62.4451 71.7382C62.4451 70.8208 62.5624 70.1222 62.7971 69.6422C63.0317 69.1515 63.4157 68.8208 63.9491 68.6502C64.4824 68.4688 65.1811 68.3782 66.0451 68.3782C66.3224 68.3782 66.5837 68.3888 66.8291 68.4102C67.0851 68.4315 67.3784 68.4688 67.7091 68.5222C67.8904 68.5435 68.0344 68.5862 68.1411 68.6502C68.2584 68.7142 68.3437 68.8102 68.3971 68.9382C68.4504 69.0555 68.4771 69.2315 68.4771 69.4662C68.3491 69.4128 68.1624 69.3648 67.9171 69.3222C67.6717 69.2795 67.4104 69.2475 67.1331 69.2262C66.8557 69.2048 66.6104 69.1942 66.3971 69.1942C65.7891 69.1942 65.3037 69.2742 64.9411 69.4342C64.5891 69.5835 64.3384 69.8342 64.1891 70.1862C64.0504 70.5382 63.9811 71.0235 63.9811 71.6422C63.9811 72.2608 64.0504 72.7515 64.1891 73.1142C64.3384 73.4768 64.5891 73.7328 64.9411 73.8822C65.2931 74.0315 65.7784 74.1062 66.3971 74.1062C66.6851 74.1062 66.9624 74.0955 67.2291 74.0742C67.4957 74.0422 67.7357 74.0048 67.9491 73.9622C68.1731 73.9088 68.3491 73.8608 68.4771 73.8182V74.2502C68.4771 74.4422 68.3704 74.5915 68.1571 74.6982C67.9437 74.7942 67.6557 74.8582 67.2931 74.8902C66.9411 74.9328 66.5251 74.9542 66.0451 74.9542Z" fill="#1C274C" fill-opacity="0.6"/>
<defs>
<linearGradient id="paint0_linear_277_99906" x1="42.2669" y1="62.8256" x2="42.2669" y2="29.8872" gradientUnits="userSpaceOnUse">
<stop stop-color="#FFE59A"/>
<stop offset="1" stop-color="#FFFFD5"/>
</linearGradient>
</defs>
</svg>
