<svg width="30" height="30" viewBox="0 0 30 30" fill="none" xmlns="http://www.w3.org/2000/svg">
<rect width="30" height="30" rx="7" fill="#F2F2F2"/>
<path opacity="0.4" d="M22.3946 12.5625C22.0046 12.5625 21.6946 12.8725 21.6946 13.2625V14.8425C21.6946 18.3825 18.8146 21.2625 15.2746 21.2625C11.7346 21.2625 8.85459 18.3825 8.85459 14.8425V13.2525C8.85459 12.8625 8.54459 12.5525 8.15459 12.5525C7.76459 12.5525 7.45459 12.8625 7.45459 13.2525V14.8325C7.45459 18.9025 10.5846 22.2525 14.5746 22.6125V24.7425C14.5746 25.1325 14.8846 25.4425 15.2746 25.4425C15.6646 25.4425 15.9746 25.1325 15.9746 24.7425V22.6125C19.9546 22.2625 23.0946 18.9025 23.0946 14.8325V13.2525C23.0846 12.8725 22.7746 12.5625 22.3946 12.5625Z" fill="#292D32"/>
<path d="M15.2745 5.44238C12.8345 5.44238 10.8545 7.42238 10.8545 9.86238V14.9824C10.8545 17.4224 12.8345 19.4024 15.2745 19.4024C17.7145 19.4024 19.6945 17.4224 19.6945 14.9824V9.86238C19.6945 7.42238 17.7145 5.44238 15.2745 5.44238ZM16.5845 12.3924C16.5145 12.6524 16.2845 12.8224 16.0245 12.8224C15.9745 12.8224 15.9245 12.8124 15.8745 12.8024C15.4845 12.6924 15.0745 12.6924 14.6845 12.8024C14.3645 12.8924 14.0545 12.7024 13.9745 12.3924C13.8845 12.0824 14.0745 11.7624 14.3845 11.6824C14.9745 11.5224 15.5945 11.5224 16.1845 11.6824C16.4845 11.7624 16.6645 12.0824 16.5845 12.3924ZM17.1145 10.4524C17.0245 10.6924 16.8045 10.8324 16.5645 10.8324C16.4945 10.8324 16.4345 10.8224 16.3645 10.8024C15.6645 10.5424 14.8845 10.5424 14.1845 10.8024C13.8845 10.9124 13.5445 10.7524 13.4345 10.4524C13.3245 10.1524 13.4845 9.81238 13.7845 9.71238C14.7445 9.36238 15.8045 9.36238 16.7645 9.71238C17.0645 9.82238 17.2245 10.1524 17.1145 10.4524Z" fill="#1C274C"/>
</svg>
