<svg width="80" height="81" viewBox="0 0 80 81" fill="none" xmlns="http://www.w3.org/2000/svg">
<rect y="0.644043" width="80" height="80" rx="7" fill="#F2F2F2"/>
<mask id="mask0_277_99877" style="mask-type:alpha" maskUnits="userSpaceOnUse" x="22" y="4" width="40" height="5">
<rect x="22" y="4.59985" width="40" height="4.09789" rx="2.04895" fill="#F3B811"/>
</mask>
<g mask="url(#mask0_277_99877)">
<path d="M22 4.59985H36.8V19.967V27.1383H32.5221C29.4708 27.1383 26.5866 25.7452 24.6896 23.3554L22 19.967V4.59985Z" fill="#E52021"/>
<rect x="36.7998" y="4.59985" width="10.4" height="22.5384" fill="#F7F7F7"/>
<path d="M47.2002 4.59985H62.0002V19.967L59.3106 23.3554C57.4136 25.7452 54.5293 27.1383 51.4781 27.1383H47.2002V19.967V4.59985Z" fill="#268A42"/>
<rect x="22" y="4.59985" width="40" height="4.09789" rx="2.04895" fill="black" fill-opacity="0.05"/>
</g>
<path fill-rule="evenodd" clip-rule="evenodd" d="M36.7999 8.69897H26.3999V24.0661L27.5392 26.1086C27.9973 26.9299 28.5614 27.6702 29.2089 28.3163C29.5266 28.139 29.8743 28.0095 30.2439 27.9383L31.3635 27.7227C31.5286 27.691 31.6836 27.6185 31.8149 27.5115C31.9463 27.4046 32.05 27.2664 32.117 27.109L32.572 26.0421C33.272 24.4008 35.0761 23.5132 36.7692 23.9777L36.7999 23.9861V8.69897Z" fill="#E52021"/>
<path fill-rule="evenodd" clip-rule="evenodd" d="M47.1998 8.69897H36.7998V23.9861L37.8694 24.2796C38.0316 24.3242 38.202 24.3275 38.3658 24.2893C38.5296 24.2512 38.6817 24.1726 38.8089 24.0606L39.6721 23.3009C41 22.1324 43.0028 22.1324 44.3306 23.3009L45.1937 24.0606C45.3209 24.1726 45.473 24.2512 45.6368 24.2894C45.8006 24.3275 45.9711 24.3242 46.1333 24.2796L47.1998 23.987V8.69897Z" fill="#F7F7F7"/>
<path fill-rule="evenodd" clip-rule="evenodd" d="M57.6002 8.69897H47.2002V23.9869L47.2336 23.9777C48.9266 23.5131 50.7308 24.4008 51.4308 26.0421L51.8857 27.109C51.9527 27.2663 52.0564 27.4045 52.1878 27.5115C52.3191 27.6185 52.4741 27.691 52.6392 27.7227L53.7588 27.9383C54.1278 28.0094 54.4749 28.1386 54.7921 28.3153C55.4393 27.6695 56.003 26.9295 56.4609 26.1086L57.6002 24.0661V8.69897Z" fill="#268A42"/>
<path d="M41.7048 7.2666L42.1686 12.3091L44.0004 7.60474L43.0587 12.5769L46.11 8.59175L43.8392 13.0907L47.8628 10.1477L44.4467 13.809L49.1166 12.1465L44.832 14.6735L49.77 14.4262L44.9641 15.6142L49.77 16.8022L44.832 16.5549L49.1166 19.0819L44.4467 17.4194L47.8628 21.0807L43.8392 18.1377L46.11 22.6366L43.0587 18.6515L44.0004 23.6236L42.1686 18.9192L41.7048 23.9618L41.2409 18.9192L39.4092 23.6236L40.3508 18.6515L37.2996 22.6366L39.5704 18.1377L35.5468 21.0807L38.9629 17.4194L34.293 19.0819L38.5776 16.5549L33.6396 16.8022L38.4455 15.6142L33.6396 14.4262L38.5776 14.6735L34.293 12.1465L38.9629 13.809L35.5468 10.1477L39.5704 13.0907L37.2996 8.59175L40.3508 12.5769L39.4092 7.60474L41.2409 12.3091L41.7048 7.2666Z" fill="#F7B70F"/>
<path fill-rule="evenodd" clip-rule="evenodd" d="M56.5604 40.6092C56.4903 40.4796 56.4537 40.3351 56.4537 40.1884C56.4537 40.0417 56.4903 39.8973 56.5603 39.7677L57.0352 38.8886C57.7657 37.5361 57.3687 35.8314 56.1117 34.9235L55.2948 34.3334C55.1743 34.2464 55.0773 34.1319 55.0124 33.9997C54.9475 33.8676 54.9165 33.7219 54.9223 33.5753L54.9609 32.5813C55.0203 31.0522 53.908 29.6852 52.3735 29.4016L51.3762 29.2173C51.2291 29.1902 51.091 29.1282 50.974 29.0367C50.857 28.9453 50.7647 28.8271 50.705 28.6926L50.2997 27.7807C49.6762 26.3777 48.069 25.6189 46.5608 26.0161L45.5807 26.2742C45.4362 26.3123 45.2843 26.3151 45.1384 26.2825C44.9925 26.2498 44.857 26.1827 44.7436 26.0869L43.9748 25.4376C42.792 24.4388 41.0079 24.4388 39.825 25.4376L39.0561 26.0869C38.9428 26.1827 38.8073 26.2498 38.6614 26.2825C38.5155 26.3151 38.3637 26.3123 38.2192 26.2742L37.239 26.0161C35.7308 25.6191 34.1236 26.3777 33.5001 27.7807L33.0948 28.6927C33.0351 28.8272 32.9427 28.9453 32.8257 29.0368C32.7087 29.1282 32.5706 29.1902 32.4236 29.2173L31.4262 29.4016C29.8918 29.6852 28.7794 31.0522 28.8388 32.5813L28.8774 33.5753C28.8832 33.7219 28.8522 33.8676 28.7873 33.9997C28.7224 34.1319 28.6254 34.2464 28.5049 34.3334L27.6879 34.9235C26.431 35.8315 26.0341 37.5361 26.7645 38.8887L27.2393 39.7677C27.3094 39.8973 27.3461 40.0418 27.3461 40.1885C27.3461 40.3351 27.3094 40.4796 27.2393 40.6092L26.7645 41.4883C26.0341 42.8407 26.431 44.5454 27.6879 45.4534L28.5049 46.0435C28.6254 46.1305 28.7223 46.245 28.7873 46.3772C28.8522 46.5094 28.8831 46.6551 28.8773 46.8017L28.8387 47.7956C28.7793 49.3248 29.8917 50.6918 31.4261 50.9753L31.9491 51.072L31.9492 51.0718L32.4233 51.1594C32.5704 51.1865 32.7085 51.2485 32.8255 51.34C32.9425 51.4315 33.0349 51.5496 33.0946 51.6841L33.4999 52.596C34.1234 53.999 35.7306 54.7578 37.2388 54.3606L38.2189 54.1026C38.3634 54.0645 38.5153 54.0617 38.6612 54.0943C38.8071 54.1269 38.9426 54.1941 39.056 54.2899L39.8248 54.9391C39.8887 54.9928 39.9547 55.0439 40.0228 55.0924L40.0226 55.0927L40.0229 55.0925C40.5777 55.4895 41.2386 55.6885 41.8998 55.6885C42.5509 55.6885 43.2019 55.4959 43.7513 55.1111L43.7513 55.1109C43.8284 55.057 43.9029 54.9997 43.9747 54.9391L44.7436 54.2899C44.8569 54.1941 44.9924 54.1269 45.1383 54.0943C45.2842 54.0617 45.436 54.0645 45.5805 54.1026L46.5607 54.3606C46.8305 54.4316 47.1032 54.4656 47.3731 54.4656C48.612 54.4656 49.7876 53.748 50.2996 52.596L50.7049 51.6841C50.7646 51.5496 50.8569 51.4314 50.9739 51.34C51.0909 51.2485 51.229 51.1865 51.3761 51.1594L51.8176 51.0779L51.8178 51.0781L51.8178 51.078L52.3736 50.9753C53.908 50.6918 55.0204 49.3248 54.961 47.7955L54.9224 46.8016C54.9166 46.6551 54.9475 46.5093 55.0125 46.3772C55.0774 46.245 55.1743 46.1305 55.2948 46.0435L56.1118 45.4534C57.3688 44.5454 57.7658 42.8408 57.0352 41.4883L56.5604 40.6092Z" fill="#D5D5D5"/>
<ellipse cx="41.9002" cy="40.2674" rx="10.1346" ry="9.9324" fill="white"/>
<path d="M48.2857 39.455C48.6311 39.1253 48.7535 38.6415 48.6044 38.1918C48.4553 37.7421 48.0663 37.4211 47.5897 37.3528L44.5947 36.9259C44.5672 36.9219 44.5412 36.9115 44.5188 36.8955C44.4964 36.8795 44.4783 36.8584 44.4661 36.8341L43.1272 34.1749C42.9139 33.7514 42.4817 33.488 41.9997 33.488C41.5176 33.488 41.0854 33.7521 40.8721 34.1749L39.5332 36.8341C39.5211 36.8585 39.503 36.8797 39.4806 36.8957C39.4582 36.9117 39.4321 36.922 39.4047 36.9259L36.4111 37.3528C35.9338 37.4211 35.544 37.7421 35.3956 38.1918C35.2473 38.6415 35.369 39.1253 35.7143 39.455L37.8805 41.5244C37.9216 41.5633 37.9393 41.6189 37.9298 41.6732L37.4183 44.595C37.3776 44.8218 37.403 45.0552 37.4915 45.2684C37.5801 45.4817 37.7282 45.6661 37.9188 45.8006C38.1082 45.9366 38.3327 46.0176 38.5669 46.0343C38.801 46.051 39.0352 46.0028 39.2426 45.8951L41.9204 44.5153C41.945 44.5024 41.9725 44.4957 42.0004 44.4957C42.0283 44.4957 42.0557 44.5024 42.0804 44.5153L44.7581 45.8951C44.9655 46.0025 45.1995 46.0506 45.4335 46.0338C45.6674 46.0171 45.8919 45.9363 46.0812 45.8006C46.2719 45.6662 46.4201 45.4817 46.5086 45.2685C46.5971 45.0552 46.6225 44.8218 46.5817 44.595L46.0703 41.6732C46.0656 41.6463 46.0677 41.6188 46.0763 41.5929C46.0848 41.567 46.0997 41.5435 46.1195 41.5244L48.2857 39.455Z" fill="#F3B811"/>
<path d="M11.3513 71.0085C11.3513 70.2511 11.4313 69.6325 11.5913 69.1525C11.7513 68.6618 12.0073 68.2778 12.3593 68.0005C12.722 67.7231 13.1913 67.5311 13.7673 67.4245C14.354 67.3071 15.0686 67.2485 15.9113 67.2485C16.3166 67.2485 16.7006 67.2645 17.0633 67.2965C17.4366 67.3178 17.8206 67.3605 18.2153 67.4245C18.5673 67.4778 18.7966 67.5631 18.9033 67.6805C19.0206 67.7871 19.0793 67.9365 19.0793 68.1285V68.6565C18.834 68.5498 18.5246 68.4645 18.1513 68.4005C17.778 68.3258 17.394 68.2725 16.9993 68.2405C16.6153 68.1978 16.2686 68.1765 15.9593 68.1765C15.2553 68.1765 14.6846 68.2565 14.2473 68.4165C13.8206 68.5765 13.5113 68.8591 13.3193 69.2645C13.1273 69.6698 13.0313 70.2511 13.0313 71.0085C13.0313 71.7658 13.122 72.3525 13.3033 72.7685C13.4953 73.1738 13.81 73.4565 14.2473 73.6165C14.6953 73.7765 15.3033 73.8565 16.0713 73.8565C16.37 73.8565 16.6953 73.8405 17.0473 73.8085C17.3993 73.7658 17.7513 73.7125 18.1033 73.6485C18.4553 73.5845 18.7806 73.5098 19.0793 73.4245V73.9205C19.0793 74.0911 19.0206 74.2351 18.9033 74.3525C18.7966 74.4698 18.5566 74.5551 18.1833 74.6085C17.7993 74.6831 17.4153 74.7311 17.0313 74.7525C16.6473 74.7738 16.258 74.7845 15.8633 74.7845C14.9993 74.7845 14.274 74.7311 13.6873 74.6245C13.1113 74.5178 12.6526 74.3258 12.3113 74.0485C11.97 73.7711 11.7246 73.3871 11.5753 72.8965C11.426 72.4058 11.3513 71.7765 11.3513 71.0085ZM21.8107 68.3045V72.5765C21.8107 73.0671 21.944 73.4138 22.2107 73.6165C22.4774 73.8191 22.8934 73.9205 23.4587 73.9205C24.0667 73.9205 24.4987 73.8138 24.7547 73.6005C25.0214 73.3871 25.1547 73.0458 25.1547 72.5765V68.3045C25.1654 68.3045 25.208 68.3045 25.2827 68.3045C25.368 68.3045 25.4587 68.3045 25.5547 68.3045C25.6507 68.3045 25.7414 68.3045 25.8267 68.3045C25.912 68.3045 25.9654 68.3045 25.9867 68.3045C26.1574 68.3045 26.2907 68.3151 26.3867 68.3365C26.4827 68.3471 26.5467 68.3951 26.5787 68.4805C26.6214 68.5551 26.6427 68.6831 26.6427 68.8645V72.3525C26.6427 72.9178 26.5574 73.3818 26.3867 73.7445C26.216 74.0965 25.896 74.3578 25.4267 74.5285C24.968 74.6885 24.3067 74.7685 23.4427 74.7685C22.632 74.7685 21.9974 74.6991 21.5387 74.5605C21.0907 74.4218 20.7707 74.1871 20.5787 73.8565C20.3974 73.5151 20.3067 73.0511 20.3067 72.4645V68.8645C20.3067 68.6405 20.344 68.4911 20.4187 68.4165C20.4934 68.3418 20.6427 68.3045 20.8667 68.3045C21.0267 68.3045 21.1814 68.3045 21.3307 68.3045C21.4907 68.3045 21.6507 68.3045 21.8107 68.3045ZM29.8464 74.7525C29.2811 74.7525 28.8758 74.6405 28.6304 74.4165C28.3851 74.1818 28.2624 73.7711 28.2624 73.1845V67.2485C28.2624 67.0778 28.2731 66.9498 28.2944 66.8645C28.3264 66.7685 28.3851 66.7045 28.4704 66.6725C28.5558 66.6298 28.6838 66.6085 28.8544 66.6085H29.7824C29.7824 66.6298 29.7718 66.7151 29.7504 66.8645C29.7398 67.0138 29.7344 67.1898 29.7344 67.3925V72.9925C29.7344 73.3871 29.7824 73.6698 29.8784 73.8405C29.9744 74.0111 30.1558 74.0965 30.4224 74.0965C30.5078 74.0965 30.6091 74.0858 30.7264 74.0645C30.8544 74.0431 30.9344 74.0271 30.9664 74.0165V74.6245C30.9024 74.6351 30.7904 74.6565 30.6304 74.6885C30.4704 74.7311 30.2091 74.7525 29.8464 74.7525ZM33.8696 74.7365C33.4429 74.7365 33.1069 74.6885 32.8616 74.5925C32.6269 74.4965 32.4562 74.3258 32.3496 74.0805C32.2429 73.8351 32.1896 73.5045 32.1896 73.0885V69.1205H31.5496V68.3045H32.1896V67.2485C32.1896 67.0565 32.2056 66.9178 32.2376 66.8325C32.2696 66.7365 32.3229 66.6778 32.3976 66.6565C32.4829 66.6245 32.6056 66.6085 32.7656 66.6085H33.6936C33.6936 66.6298 33.6936 66.6778 33.6936 66.7525C33.6936 66.8165 33.6936 66.9125 33.6936 67.0405V68.3045H35.1976V69.1205H33.6936V72.9445C33.6936 73.3605 33.7362 73.6591 33.8216 73.8405C33.9069 74.0111 34.1096 74.0965 34.4296 74.0965C34.5362 74.0965 34.6536 74.0858 34.7816 74.0645C34.9202 74.0431 35.0162 74.0218 35.0696 74.0005V74.6245C35.0056 74.6351 34.8669 74.6565 34.6536 74.6885C34.4402 74.7205 34.1789 74.7365 33.8696 74.7365ZM37.8751 74.7525C37.3097 74.7525 36.9257 74.6191 36.7231 74.3525C36.5204 74.0751 36.4191 73.6645 36.4191 73.1205L36.4351 68.3045H37.9231V73.0405C37.9231 73.4458 37.9711 73.7231 38.0671 73.8725C38.1737 74.0218 38.3497 74.0965 38.5951 74.0965C38.6911 74.0965 38.7977 74.0858 38.9151 74.0645C39.0324 74.0431 39.1071 74.0271 39.1391 74.0165V74.6245C39.0964 74.6351 39.0271 74.6511 38.9311 74.6725C38.8351 74.6938 38.7017 74.7098 38.5311 74.7205C38.3604 74.7418 38.1417 74.7525 37.8751 74.7525ZM37.2031 67.4245C36.9577 67.4245 36.7711 67.3925 36.6431 67.3285C36.5257 67.2538 36.4671 67.1205 36.4671 66.9285C36.4671 66.7365 36.5257 66.6085 36.6431 66.5445C36.7604 66.4698 36.9471 66.4325 37.2031 66.4325C37.4484 66.4325 37.6244 66.4698 37.7311 66.5445C37.8484 66.6085 37.9071 66.7365 37.9071 66.9285C37.9071 67.1205 37.8484 67.2538 37.7311 67.3285C37.6244 67.3925 37.4484 67.4245 37.2031 67.4245ZM42.1877 74.6885C42.0064 74.6885 41.8517 74.6671 41.7237 74.6245C41.5957 74.5818 41.4837 74.5018 41.3877 74.3845C41.3024 74.2565 41.217 74.0858 41.1317 73.8725L39.1797 68.3045H40.7317L42.0597 72.4965C42.1344 72.7418 42.2197 72.9071 42.3157 72.9925C42.4117 73.0778 42.593 73.1205 42.8597 73.1205C43.0837 72.3845 43.297 71.6485 43.4997 70.9125C43.713 70.1765 43.9317 69.4458 44.1557 68.7205C44.1877 68.5925 44.241 68.4911 44.3157 68.4165C44.401 68.3418 44.529 68.3045 44.6997 68.3045H45.2757L43.1317 74.6885H42.1877ZM49.2217 74.7845C48.5604 74.7845 48.0217 74.7525 47.6057 74.6885C47.1897 74.6351 46.8697 74.5338 46.6457 74.3845C46.4217 74.2351 46.267 74.0325 46.1817 73.7765C46.107 73.5205 46.0697 73.2005 46.0697 72.8165C46.0697 72.2725 46.1284 71.8618 46.2457 71.5845C46.3737 71.2965 46.587 71.0991 46.8857 70.9925C47.195 70.8858 47.6057 70.8325 48.1177 70.8325C48.3844 70.8325 48.6777 70.8378 48.9977 70.8485C49.3284 70.8591 49.643 70.8751 49.9417 70.8965C50.251 70.9071 50.5177 70.9231 50.7417 70.9445C50.9764 70.9658 51.131 70.9925 51.2057 71.0245C51.2057 70.5765 51.1684 70.2245 51.0937 69.9685C51.019 69.7125 50.8964 69.5205 50.7257 69.3925C50.5657 69.2645 50.363 69.1791 50.1177 69.1365C49.8724 69.0938 49.5844 69.0725 49.2537 69.0725C48.891 69.0725 48.5284 69.0831 48.1657 69.1045C47.8137 69.1258 47.4777 69.1631 47.1577 69.2165C46.8484 69.2698 46.5924 69.3391 46.3897 69.4245V69.1205C46.3897 68.8751 46.4537 68.6991 46.5817 68.5925C46.7204 68.4858 46.8857 68.4165 47.0777 68.3845C47.291 68.3311 47.6057 68.2885 48.0217 68.2565C48.4377 68.2245 48.8804 68.2138 49.3497 68.2245C49.947 68.2245 50.4537 68.2565 50.8697 68.3205C51.2964 68.3738 51.6377 68.4911 51.8937 68.6725C52.1604 68.8538 52.3524 69.1258 52.4697 69.4885C52.5977 69.8511 52.6617 70.3365 52.6617 70.9445V74.2085C52.5657 74.4111 52.2404 74.5605 51.6857 74.6565C51.131 74.7418 50.3097 74.7845 49.2217 74.7845ZM49.2217 74.1125C49.6484 74.1125 49.995 74.1018 50.2617 74.0805C50.539 74.0485 50.7524 74.0111 50.9017 73.9685C51.051 73.9151 51.1524 73.8511 51.2057 73.7765V71.5685C51.1097 71.5365 50.939 71.5098 50.6937 71.4885C50.4484 71.4565 50.1924 71.4298 49.9257 71.4085C49.659 71.3871 49.435 71.3765 49.2537 71.3765C48.859 71.3765 48.539 71.4031 48.2937 71.4565C48.0484 71.5098 47.8724 71.6325 47.7657 71.8245C47.659 72.0165 47.6057 72.3151 47.6057 72.7205C47.6057 73.0511 47.643 73.3178 47.7177 73.5205C47.7924 73.7231 47.9417 73.8725 48.1657 73.9685C48.4004 74.0645 48.7524 74.1125 49.2217 74.1125ZM56.1821 74.7365C55.7554 74.7365 55.4194 74.6885 55.1741 74.5925C54.9394 74.4965 54.7687 74.3258 54.6621 74.0805C54.5554 73.8351 54.5021 73.5045 54.5021 73.0885V69.1205H53.8621V68.3045H54.5021V67.2485C54.5021 67.0565 54.5181 66.9178 54.5501 66.8325C54.5821 66.7365 54.6354 66.6778 54.7101 66.6565C54.7954 66.6245 54.9181 66.6085 55.0781 66.6085H56.0061C56.0061 66.6298 56.0061 66.6778 56.0061 66.7525C56.0061 66.8165 56.0061 66.9125 56.0061 67.0405V68.3045H57.5101V69.1205H56.0061V72.9445C56.0061 73.3605 56.0487 73.6591 56.1341 73.8405C56.2194 74.0111 56.4221 74.0965 56.7421 74.0965C56.8487 74.0965 56.9661 74.0858 57.0941 74.0645C57.2327 74.0431 57.3287 74.0218 57.3821 74.0005V74.6245C57.3181 74.6351 57.1794 74.6565 56.9661 74.6885C56.7527 74.7205 56.4914 74.7365 56.1821 74.7365ZM61.7906 74.7845C61.1399 74.7845 60.5906 74.7418 60.1426 74.6565C59.7052 74.5711 59.3532 74.4111 59.0866 74.1765C58.8306 73.9418 58.6492 73.6165 58.5426 73.2005C58.4359 72.7845 58.3826 72.2458 58.3826 71.5845C58.3826 70.7951 58.4839 70.1551 58.6866 69.6645C58.8892 69.1738 59.2466 68.8165 59.7586 68.5925C60.2812 68.3578 61.0066 68.2405 61.9346 68.2405C62.6599 68.2405 63.2359 68.3311 63.6626 68.5125C64.0999 68.6831 64.4146 68.9551 64.6066 69.3285C64.7986 69.7018 64.8946 70.1765 64.8946 70.7525V71.7765H60.3986C60.3986 71.6058 60.4359 71.4671 60.5106 71.3605C60.5852 71.2538 60.7239 71.2005 60.9266 71.2005H63.5506L63.5346 70.7845C63.5239 70.1871 63.3959 69.7498 63.1506 69.4725C62.9159 69.1951 62.4892 69.0565 61.8706 69.0565C61.3586 69.0565 60.9586 69.1365 60.6706 69.2965C60.3826 69.4565 60.1799 69.7178 60.0626 70.0805C59.9452 70.4325 59.8866 70.9231 59.8866 71.5525C59.8866 72.2031 59.9506 72.6991 60.0786 73.0405C60.2172 73.3711 60.4412 73.5951 60.7506 73.7125C61.0706 73.8298 61.5132 73.8885 62.0786 73.8885C62.2812 73.8885 62.5159 73.8831 62.7826 73.8725C63.0599 73.8618 63.3372 73.8458 63.6146 73.8245C63.9026 73.8031 64.1586 73.7765 64.3826 73.7445C64.6066 73.7125 64.7559 73.6805 64.8306 73.6485V73.8725C64.8306 73.9898 64.8039 74.1071 64.7506 74.2245C64.6972 74.3418 64.5852 74.4378 64.4146 74.5125C64.1906 74.6191 63.8599 74.6885 63.4226 74.7205C62.9959 74.7631 62.4519 74.7845 61.7906 74.7845ZM66.0701 71.4725C66.0701 70.6085 66.1874 69.9471 66.4221 69.4885C66.6567 69.0191 66.9981 68.6991 67.4461 68.5285C67.8941 68.3471 68.4327 68.2565 69.0621 68.2565C69.2541 68.2565 69.4727 68.2671 69.7181 68.2885C69.9741 68.2991 70.2247 68.3205 70.4701 68.3525C70.7154 68.3845 70.9341 68.4218 71.1261 68.4645C71.3181 68.4965 71.4514 68.5338 71.5261 68.5765L71.1261 68.7685V66.6085H72.5981L72.5821 71.4725C72.5821 72.1978 72.5287 72.7791 72.4221 73.2165C72.3154 73.6431 72.1394 73.9631 71.8941 74.1765C71.6487 74.3898 71.3074 74.5338 70.8701 74.6085C70.4327 74.6831 69.8887 74.7205 69.2381 74.7205C68.6301 74.7205 68.1181 74.6831 67.7021 74.6085C67.2967 74.5231 66.9714 74.3685 66.7261 74.1445C66.4914 73.9205 66.3207 73.5951 66.2141 73.1685C66.1181 72.7418 66.0701 72.1765 66.0701 71.4725ZM69.2061 73.9045C69.6221 73.9045 69.9581 73.8778 70.2141 73.8245C70.4701 73.7605 70.6621 73.6485 70.7901 73.4885C70.9287 73.3285 71.0194 73.1045 71.0621 72.8165C71.1047 72.5178 71.1261 72.1338 71.1261 71.6645L71.1101 69.2165C71.0034 69.2058 70.8594 69.1951 70.6781 69.1845C70.4967 69.1738 70.3047 69.1685 70.1021 69.1685C69.8994 69.1578 69.7127 69.1525 69.5421 69.1525C69.0621 69.1525 68.6781 69.2165 68.3901 69.3445C68.1021 69.4618 67.8941 69.6911 67.7661 70.0325C67.6381 70.3738 67.5741 70.8645 67.5741 71.5045C67.5741 72.1871 67.6221 72.6991 67.7181 73.0405C67.8247 73.3818 67.9954 73.6111 68.2301 73.7285C68.4754 73.8458 68.8007 73.9045 69.2061 73.9045Z" fill="#1C274C" fill-opacity="0.6"/>
</svg>
