<svg width="17" height="17" viewBox="0 0 17 17" fill="none" xmlns="http://www.w3.org/2000/svg">
<path opacity="0.5" fill-rule="evenodd" clip-rule="evenodd" d="M2.30225 15.5833C2.30225 15.2899 2.54009 15.052 2.8335 15.052H14.1668C14.4602 15.052 14.6981 15.2899 14.6981 15.5833C14.6981 15.8767 14.4602 16.1145 14.1668 16.1145H2.8335C2.54009 16.1145 2.30225 15.8767 2.30225 15.5833Z" fill="#1C274C"/>
<path opacity="0.5" d="M13.5157 5.22165C14.3861 4.35122 14.3861 2.93999 13.5157 2.06957C12.6453 1.19914 11.234 1.19914 10.3636 2.06957L9.86084 2.57233C9.86772 2.59312 9.87486 2.6142 9.88227 2.63555C10.0666 3.16671 10.4143 3.86302 11.0683 4.51711C11.7224 5.17119 12.4187 5.51889 12.9499 5.70317C12.9711 5.71055 12.9921 5.71765 13.0128 5.72451L13.5157 5.22165Z" fill="#1C274C"/>
<path d="M9.88211 2.5498L9.86046 2.57145C9.86735 2.59224 9.87449 2.61332 9.8819 2.63467C10.0662 3.16583 10.4139 3.86214 11.068 4.51623C11.722 5.17031 12.4184 5.51801 12.9495 5.70229C12.9706 5.7096 12.9914 5.71665 13.0119 5.72345L8.15993 10.5754C7.83282 10.9025 7.66922 11.0661 7.48888 11.2068C7.27614 11.3727 7.04595 11.515 6.80239 11.6311C6.59592 11.7295 6.37647 11.8026 5.93758 11.9489L3.62318 12.7204C3.4072 12.7924 3.16908 12.7362 3.00809 12.5752C2.84711 12.4142 2.7909 12.1761 2.86289 11.9601L3.63436 9.6457C3.78066 9.20681 3.8538 8.98737 3.9522 8.78089C4.06828 8.53734 4.21054 8.30715 4.37648 8.0944C4.51714 7.91406 4.6807 7.7505 5.0078 7.4234L9.88211 2.5498Z" fill="#1C274C"/>
</svg>
