<svg width="16" height="18" viewBox="0 0 16 18" fill="none" xmlns="http://www.w3.org/2000/svg">
<path d="M8.07904 17.0982C11.6894 17.0982 14.6161 14.1877 14.6161 10.5975C14.6161 7.00726 11.6894 4.0968 8.07904 4.0968C4.46873 4.0968 1.54199 7.00726 1.54199 10.5975C1.54199 14.1877 4.46873 17.0982 8.07904 17.0982Z" fill="url(#paint0_radial_1191_419)"/>
<path opacity="0.64" d="M6.69289 9.3035C6.69289 9.3035 6.5172 8.04793 5.74396 7.82145C5.20216 7.66277 3.86381 8.52152 4.05699 9.59174C4.05699 9.59174 5.35744 10.4151 6.69289 9.3035Z" fill="url(#paint1_radial_1191_419)"/>
<path opacity="0.64" d="M9.42773 9.12642C9.42773 9.12642 9.58262 7.86658 10.3959 7.62001C10.9659 7.44731 12.405 8.27081 12.2269 9.34579C12.2269 9.34579 10.8701 10.2028 9.42773 9.12642Z" fill="url(#paint2_radial_1191_419)"/>
<path d="M7.01078 9.1123C7.01078 9.1123 6.06121 10.0667 3.8631 9.49825C3.62466 9.45864 3.82381 10.0216 4.8559 10.1508C6.10282 10.3065 7.366 9.22353 7.01078 9.1123Z" fill="#FFF200"/>
<path d="M6.97848 9.0658C6.97848 9.0658 5.73053 9.73503 3.9182 9.49605C3.68435 9.45448 3.85954 9.7863 4.87088 9.92312C6.0927 10.0886 7.32705 9.17928 6.97848 9.0658Z" fill="url(#paint3_radial_1191_419)"/>
<path d="M7.00036 9.05994C7.00036 9.05994 6.04567 10.0571 3.88956 9.47279C3.6558 9.43151 3.88547 9.87917 4.8968 10.0161C6.11853 10.1814 7.34878 9.17342 7.00036 9.05994Z" fill="#601B05"/>
<path d="M5.59683 7.34678C5.59683 7.34678 4.5331 7.19197 4.00293 7.98591C4.00293 7.98591 4.74068 7.44139 5.73801 7.53517C5.77139 7.37997 5.59683 7.34678 5.59683 7.34678Z" fill="url(#paint4_radial_1191_419)"/>
<path d="M5.63356 7.40167C5.63356 7.40167 4.61193 7.31809 3.98145 8.01786C3.98145 8.01786 4.70534 7.51794 5.70268 7.61172C5.84134 7.46245 5.63356 7.40167 5.63356 7.40167Z" fill="#FFF200"/>
<path d="M5.61649 7.39127C5.61649 7.39127 4.56705 7.27989 3.97266 8.0255C3.97266 8.0255 4.6969 7.4748 5.69423 7.56863C5.82058 7.44921 5.61649 7.39127 5.61649 7.39127Z" fill="#601B05"/>
<path d="M9.2399 9.06513C9.2399 9.06513 10.3049 9.8902 12.4112 9.04567C12.6426 8.97586 12.5179 9.55965 11.511 9.81956C10.2947 10.1333 8.90198 9.22077 9.2399 9.06513Z" fill="#FFF200"/>
<path d="M9.26492 9.01465C9.26492 9.01465 10.5891 9.51902 12.3553 9.05048C12.5818 8.9794 12.4511 9.33083 11.4658 9.59584C10.2756 9.91589 8.93391 9.17176 9.26492 9.01465Z" fill="url(#paint5_radial_1191_419)"/>
<path d="M9.2422 9.01184C9.2422 9.01184 10.3176 9.87892 12.3806 9.0241C12.607 8.95302 12.4371 9.42631 11.4518 9.69151C10.2616 10.0114 8.91118 9.16885 9.2422 9.01184Z" fill="#601B05"/>
<path d="M10.1995 7.14662C10.1995 7.14662 11.2186 6.80602 11.8824 7.49354C11.8824 7.49354 11.059 7.08824 10.0944 7.35712C10.0337 7.2103 10.1995 7.14662 10.1995 7.14662Z" fill="url(#paint6_radial_1191_419)"/>
<path d="M10.1729 7.20689C10.1729 7.20689 11.1632 6.94394 11.9089 7.52087C11.9089 7.52087 11.1074 7.15713 10.1426 7.42601C9.97939 7.30356 10.1729 7.20689 10.1729 7.20689Z" fill="#FFF200"/>
<path d="M10.1875 7.19416C10.1875 7.19416 11.2003 6.89866 11.9187 7.52715C11.9187 7.52715 11.1074 7.11347 10.1427 7.38215C9.99715 7.28715 10.1875 7.19416 10.1875 7.19416Z" fill="#601B05"/>
<path d="M1.58984 9.821C2.17448 7.80159 3.29914 6.75309 7.33669 6.2794C9.25865 6.05396 10.8942 5.81866 12.1205 5.49017C11.0081 4.61838 9.6052 4.0968 8.07893 4.0968C4.73309 4.09685 1.97607 6.59725 1.58984 9.821Z" fill="url(#paint7_radial_1191_419)"/>
<path d="M2.60449 3.19216C2.60449 3.19216 2.80014 1.62208 4.74577 1.10584C6.69139 0.589356 9.02585 0.663279 9.57578 1.09334C10.1257 1.52359 11.9177 1.20981 12.3969 2.31057C12.8762 3.41148 13.8239 3.94767 13.8239 3.94767C13.8239 3.94767 15.6357 4.81509 15.0038 6.32993" fill="url(#paint8_radial_1191_419)"/>
<path d="M10.6094 3.36263L11.5935 2.90821C11.4047 2.36182 10.9388 1.79887 10.5119 1.36577C10.1201 1.30435 9.77072 1.24518 9.5764 1.09321C9.25431 0.841296 8.32027 0.711881 7.21094 0.751392C8.53599 1.30126 10.6094 3.36263 10.6094 3.36263Z" fill="url(#paint9_radial_1191_419)"/>
<path d="M11.2487 4.91235L9.52344 5.53001C9.52344 5.53001 12.1857 6.11689 13.3677 7.70894C14.1263 8.73058 14.4409 9.44981 14.5692 9.83458C14.3198 7.7134 13.0444 5.90473 11.2487 4.91235Z" fill="url(#paint10_radial_1191_419)"/>
<path d="M9.48828 5.14574C9.48828 5.14574 12.1505 5.73267 13.3324 7.32467C14.5146 8.91686 14.5691 9.83473 14.5691 9.83473C14.5691 9.83473 15.6866 8.57984 15.0874 6.53465C14.4884 4.48941 12.6066 4.0293 12.6066 4.0293" fill="url(#paint11_radial_1191_419)"/>
<path d="M10.1514 5.33317C10.5973 5.47797 11.2119 5.71244 11.814 6.05421C11.7142 5.41238 11.7345 4.51624 11.7345 4.51624L10.1514 5.33317Z" fill="url(#paint12_radial_1191_419)"/>
<path d="M10.8669 2.84933C10.4798 2.10922 9.40172 1.26003 8.8158 0.833209C8.74437 0.82115 8.66895 0.810316 8.59082 0.800659C8.77932 0.934192 9.06642 1.14474 9.37648 1.39808C9.91468 1.83647 10.5178 2.40418 10.7734 2.89752L10.8669 2.84933Z" fill="#F6D5D1"/>
<path d="M13.2172 5.82078L12.8332 5.24307L13.3154 4.74418L13.0379 4.1878C12.9841 4.16363 12.9342 4.14255 12.8886 4.12451L13.1881 4.72497L12.6987 5.23076L13.0879 5.81671L12.6611 6.37515L13.1118 6.91458L13.0591 7.001C13.0842 7.02742 13.1088 7.05448 13.133 7.08149L13.2409 6.90497L12.7956 6.37211L13.2172 5.82078ZM13.5697 5.85377L13.1858 5.27606L13.6679 4.77722L13.4959 4.4328C13.4391 4.39736 13.383 4.36398 13.3289 4.33388L13.5403 4.75776L13.0513 5.264L13.4403 5.84989L13.0135 6.40814L13.4641 6.94776L13.2772 7.2539C13.2956 7.27743 13.3149 7.30061 13.3327 7.32454C13.3373 7.33066 13.3416 7.3366 13.346 7.34297L13.5935 6.93811L13.1482 6.40525L13.5697 5.85377Z" fill="#DA6788"/>
<path opacity="0.45" d="M9.16454 3.65951L8.4822 3.47685L8.42443 2.77728L7.72513 2.67958L7.58695 1.99172L6.88174 1.97064L6.67239 1.30122L5.96924 1.35362L5.7622 0.892873C5.72617 0.898608 5.69023 0.904344 5.6543 0.91052L5.90319 1.46362L6.59667 1.41181L6.80351 2.07349L7.49995 2.09418L7.63659 2.77341L8.32628 2.86949L8.38312 3.55916L9.05506 3.73858L9.01986 4.42908L9.65813 4.70149L9.60391 4.96316L9.70629 4.98919L9.7789 4.63899L9.1286 4.36129L9.16454 3.65951ZM9.38686 4.12069L9.4226 3.41847L8.74026 3.23597L8.68268 2.53644L7.98338 2.43874L7.84501 1.75083L7.14 1.72995L6.93044 1.06028L6.2274 1.11249L6.10618 0.842773C6.06985 0.847479 6.03338 0.852381 5.99704 0.857529L6.1613 1.22288L6.85497 1.17087L7.06186 1.83255L7.7583 1.85324L7.89485 2.53232L8.58449 2.62835L8.64147 3.31808L9.31307 3.49788L9.27787 4.18824L9.91644 4.4606L9.80207 5.01331L9.90421 5.0391L10.0369 4.3981L9.38686 4.12069Z" fill="#DA6788"/>
<path d="M14.0005 4.04598C13.8937 3.98127 13.8239 3.94769 13.8239 3.94769C13.8239 3.94769 12.8762 3.41155 12.3969 2.31059C12.3272 2.15025 12.2288 2.02059 12.1111 1.91353C11.8414 1.95961 11.5283 2.05706 11.1604 2.20677C10.003 2.67815 8.70676 2.51393 6.69587 1.97186C5.09482 1.54058 4.02522 1.89078 3.09636 2.13162C2.6701 2.67183 2.60449 3.19218 2.60449 3.19218L10.0553 5.07767C12.0889 4.74653 13.4853 4.26324 14.0005 4.04598Z" fill="url(#paint13_radial_1191_419)"/>
<path d="M11.0666 5.66951C12.5363 5.30847 14.2981 4.77787 14.6778 4.60012C14.2991 4.17536 13.8248 3.94765 13.8248 3.94765C13.8248 3.94765 13.0343 3.49853 12.5323 2.5813C12.2847 2.64155 12.005 2.74062 11.6832 2.88194C10.5181 3.39328 9.19336 3.27411 7.12987 2.80184C5.10124 2.33757 3.93216 3.03714 2.8252 3.24788L11.0666 5.66951Z" fill="url(#paint14_radial_1191_419)"/>
<path d="M1.47122 9.65408C1.47122 9.65408 -0.395433 8.72028 0.514798 6.10351C0.46363 5.27863 1.25797 3.07721 2.36065 2.88407C3.46342 2.69098 4.61362 1.96272 6.64083 2.44131C8.66793 2.9201 9.96883 3.04339 11.1107 2.53612C12.2525 2.02885 12.8725 2.05184 13.2997 2.59142C13.7269 3.13104 14.4976 4.00508 14.1986 4.1892C13.8996 4.37327 11.1254 5.56124 6.91456 5.86002C2.70389 6.1588 2.10382 7.78399 1.89294 8.53557C1.70236 9.215 1.66445 9.81114 1.47122 9.65408Z" fill="url(#paint15_radial_1191_419)"/>
<path d="M10.8659 2.6333C10.1049 2.90689 9.25781 2.92017 8.17031 2.75041C6.50449 3.5243 4.55256 5.87588 4.14844 6.37736C4.83295 6.13265 5.7311 5.94382 6.91447 5.85985C7.24233 5.83651 7.56029 5.80744 7.87011 5.77426C8.12422 5.42449 8.52336 4.97478 9.13289 4.51604C10.1792 3.72872 10.7015 2.91978 10.8659 2.6333Z" fill="url(#paint16_radial_1191_419)"/>
<path d="M5.54936 2.2864L5.43095 2.63003L4.72357 2.6542L4.60526 3.3474L3.91055 3.47765L3.89241 4.18026L3.2219 4.40042L3.29086 5.09916L2.65082 5.39426L2.7958 6.0807L2.19055 6.44027L2.40676 7.10788L1.84953 7.53569L2.03291 8.12727C2.05248 8.08104 2.07496 8.0331 2.09901 7.98452L1.97183 7.57412L2.53 7.14573L2.31665 6.48752L2.9146 6.13203L2.77144 5.45422L3.40306 5.16284L3.33523 4.47351L3.99583 4.25669L4.01387 3.5651L4.69705 3.43711L4.81339 2.75602L5.50736 2.73224L5.65874 2.29257C5.62192 2.29007 5.58539 2.28806 5.54936 2.2864ZM2.23403 6.95288L2.02078 6.29448L2.61848 5.93918L2.47538 5.26132L3.10704 4.96989L3.03892 4.28061L3.69977 4.06355L3.71766 3.37216L4.40094 3.24397L4.51717 2.56287L5.21105 2.53929L5.29993 2.28149C5.26212 2.28169 5.22495 2.28252 5.18793 2.28331L5.13499 2.43714L4.42751 2.46106L4.3092 3.15465L3.61449 3.2847L3.59625 3.98693L2.92593 4.20727L2.99475 4.90597L2.3548 5.20127L2.49998 5.88771L1.89463 6.24727L2.11084 6.91469L1.55371 7.34249L1.86023 8.33222L1.96103 8.30129L1.67581 7.38117L2.23403 6.95288Z" fill="#DA6788"/>
<path d="M6.29442 5.91727C6.51299 5.66192 6.83074 5.2996 7.20834 4.89685C7.84316 4.21943 8.64421 3.43138 9.40862 2.86166C9.35267 2.86146 9.29662 2.86082 9.23929 2.85901C7.98489 3.82173 6.67423 5.30701 6.1416 5.93428C6.19144 5.9283 6.2434 5.923 6.29442 5.91727Z" fill="#F6D5D1"/>
<path d="M2.1123 7.95754C0.746139 7.65361 0.620634 6.26353 0.698076 5.85293C1.0671 3.80837 2.80681 2.78605 2.80681 2.78605L2.80287 2.78296C2.65336 2.8233 2.50656 2.8583 2.36065 2.88394C1.25802 3.07708 0.463679 5.27851 0.514798 6.10338C-0.395433 8.72016 1.47122 9.65395 1.47122 9.65395C1.6645 9.81101 1.70236 9.21487 1.89299 8.5354C1.93789 8.37549 2.00094 8.17563 2.1123 7.95754Z" fill="url(#paint17_radial_1191_419)"/>
<path d="M0.333984 6.76949C0.355428 7.40759 0.629064 8.32648 1.83048 8.7762C1.83881 8.74198 1.84749 8.70762 1.85641 8.67277C0.647254 8.21305 0.440954 7.2868 0.437652 6.6712C0.437652 6.48075 0.458405 6.32448 0.476841 6.22168C0.415222 6.41315 0.367456 6.5962 0.333984 6.76949Z" fill="#F6D5D1"/>
<path d="M14.9673 6.18429C14.967 6.18345 14.9667 6.18242 14.9664 6.18164C14.9507 7.06955 14.7428 8.1711 14.2822 8.90283C14.5503 9.50652 14.5699 9.83457 14.5699 9.83457C14.5699 9.83457 15.3635 8.94313 15.2545 7.43878C15.2335 7.15578 15.1818 6.85352 15.0883 6.53444C15.0702 6.47258 15.0508 6.41238 15.0304 6.35341C15.0105 6.29571 14.9894 6.23939 14.9673 6.18429Z" fill="url(#paint18_radial_1191_419)"/>
<mask id="mask0_1191_419" style="mask-type:luminance" maskUnits="userSpaceOnUse" x="3" y="10" width="4" height="3">
<g opacity="0.72">
<path d="M6.80657 12.0521C6.71676 12.5832 5.94815 12.8972 5.08993 12.7537C4.2318 12.6099 3.60911 12.0631 3.69907 11.5323C3.78884 11.0014 4.55739 10.6871 5.41547 10.8307C6.2737 10.9743 6.89634 11.5216 6.80657 12.0521Z" fill="url(#paint19_radial_1191_419)"/>
</g>
</mask>
<g mask="url(#mask0_1191_419)">
<path opacity="0.72" d="M6.8056 12.0521C6.71578 12.5832 5.94718 12.8972 5.08895 12.7537C4.23082 12.6099 3.60813 12.0631 3.69809 11.5323C3.78786 11.0014 4.55642 10.6871 5.41449 10.8307C6.27272 10.9743 6.89536 11.5216 6.8056 12.0521Z" fill="#ED1C24"/>
</g>
<mask id="mask1_1191_419" style="mask-type:luminance" maskUnits="userSpaceOnUse" x="9" y="10" width="4" height="3">
<g opacity="0.72">
<path d="M12.5156 11.2706C12.6609 11.7896 12.0989 12.3982 11.2608 12.6306C10.4224 12.8626 9.62527 12.6304 9.47995 12.1118C9.33453 11.5932 9.89634 10.9842 10.7346 10.752C11.573 10.5198 12.3703 10.7525 12.5156 11.2706Z" fill="url(#paint20_radial_1191_419)"/>
</g>
</mask>
<g mask="url(#mask1_1191_419)">
<path opacity="0.72" d="M12.5156 11.2706C12.6609 11.7896 12.0989 12.3982 11.2608 12.6306C10.4224 12.8626 9.62527 12.6304 9.47995 12.1118C9.33453 11.5932 9.89634 10.9842 10.7346 10.752C11.573 10.5198 12.3703 10.7525 12.5156 11.2706Z" fill="#ED1C24"/>
</g>
<path d="M11.1676 11.5983C11.1909 11.6524 9.86246 12.6701 8.11756 12.6945C6.37311 12.742 5.00365 11.7798 5.02465 11.7247C5.03619 11.6445 6.3984 12.2281 8.10682 12.1799C9.81587 12.1578 11.1528 11.5187 11.1676 11.5983Z" fill="#FFF200"/>
<path d="M11.205 11.5471C11.2282 11.6033 9.85947 12.5131 8.11462 12.5371C6.37018 12.5849 5.01742 11.7311 5.03832 11.6741C5.04986 11.5912 6.37584 11.9747 8.08436 11.926C9.79326 11.9043 11.19 11.4648 11.205 11.5471Z" fill="url(#paint21_radial_1191_419)"/>
<path d="M11.1677 11.5971C11.1908 11.6429 9.8593 12.5111 8.11446 12.5371C6.36991 12.5828 5.00361 11.7703 5.02465 11.7235C5.03653 11.6553 6.39678 12.1466 8.10529 12.1003C9.8143 12.0763 11.153 11.5295 11.1677 11.5971Z" fill="#601B05"/>
<mask id="mask2_1191_419" style="mask-type:luminance" maskUnits="userSpaceOnUse" x="3" y="10" width="10" height="8">
<g opacity="0.87">
<path d="M7.95954 17.2736C5.32748 17.1842 3.23856 15.6392 3.29303 13.823C3.34834 12.0069 5.52747 10.6071 8.16032 10.6966C10.7919 10.786 12.8818 12.3308 12.8265 14.147C12.7711 15.9632 10.592 17.3631 7.95954 17.2736Z" fill="url(#paint22_radial_1191_419)"/>
</g>
</mask>
<g mask="url(#mask2_1191_419)">
<path opacity="0.87" d="M7.95856 17.9038C5.32651 17.8058 3.23759 16.1129 3.29206 14.1228C3.34737 12.1327 5.5265 10.5989 8.15934 10.697C10.7909 10.7949 12.8808 12.4876 12.8255 14.4777C12.7701 16.4679 10.5911 18.0018 7.95856 17.9038Z" fill="#ED1C24"/>
</g>
<path d="M4.31497 11.8059C4.31497 11.8059 4.11863 11.2479 3.6418 11.2479C3.16487 11.2479 3.40336 12.824 3.54355 13.5632" fill="url(#paint23_radial_1191_419)"/>
<path d="M6.30179 17.0547C6.30179 17.0547 4.9554 17.1664 3.79593 14.5628C3.3471 13.447 3.68374 12.5544 4.13252 11.6618C4.58135 10.7691 5.29183 9.4673 5.77813 10.6203C6.30184 9.95085 6.99374 10.5646 6.69925 11.0946C7.26018 10.7969 7.62491 11.5409 7.33043 11.9872C7.8774 11.9454 8.02228 12.5172 7.79774 13.0008C7.5734 13.4841 7.16203 14.1165 7.42379 14.8975C7.68569 15.6787 8.32145 17.3151 6.30179 17.0547Z" fill="url(#paint24_radial_1191_419)"/>
<path d="M7.33028 11.9873C7.35089 11.9559 7.36745 11.9229 7.38184 11.8892C7.04565 12.3727 6.46442 13.2419 6.37761 13.6064C6.29307 13.9574 6.26467 14.1966 6.26448 14.1982C6.26078 14.2288 6.28281 14.2566 6.31387 14.2603C6.31604 14.2606 6.3184 14.2607 6.32057 14.2607C6.34838 14.2607 6.37268 14.24 6.37608 14.2114C6.37608 14.2106 6.40368 13.9777 6.48699 13.6321C6.53693 13.4075 6.84512 12.8929 7.13857 12.4484C7.2486 12.2812 7.35655 12.1225 7.44859 11.9894C7.41122 11.9857 7.37228 11.984 7.33028 11.9873ZM6.81752 11.0472C6.77911 11.0583 6.73988 11.073 6.69911 11.0946C6.72701 11.0443 6.74594 10.9935 6.75718 10.9429C6.42296 11.3761 5.58026 12.4921 5.48024 12.9091C5.3955 13.26 5.36696 13.4993 5.36696 13.5008C5.36336 13.5315 5.3851 13.5593 5.41621 13.563C5.41828 13.5632 5.42055 13.5633 5.42257 13.5633C5.45076 13.5633 5.47516 13.5424 5.47866 13.5142C5.47866 13.5133 5.50597 13.2804 5.58938 12.9347C5.63799 12.7134 5.98847 12.1759 6.32402 11.711C6.5106 11.4511 6.6925 11.2102 6.81752 11.0472ZM5.72238 10.5021C5.5078 10.7773 4.89462 11.5904 4.50272 12.381C4.38525 12.6731 4.31575 13.0917 4.31521 13.0935C4.31018 13.1241 4.33088 13.1529 4.36135 13.1583C4.36445 13.1588 4.36751 13.159 4.37061 13.159C4.39758 13.159 4.42158 13.1397 4.42607 13.1123C4.42607 13.1113 4.49641 12.6959 4.60516 12.4263C4.97038 11.6887 5.53866 10.9237 5.77596 10.6159C5.75841 10.5745 5.74042 10.5371 5.72238 10.5021Z" fill="#EC8F23"/>
<path d="M11.6182 11.8431C11.6182 11.8431 11.8145 11.2852 12.2913 11.2852C12.7682 11.2852 12.5298 12.8612 12.3895 13.6004" fill="url(#paint25_radial_1191_419)"/>
<path d="M9.63064 17.0919C9.63064 17.0919 10.977 17.2033 12.1365 14.6C12.5853 13.484 12.2487 12.5915 11.8 11.6989C11.3511 10.8061 10.6406 9.50444 10.1543 10.6574C9.63064 9.98793 8.93874 10.6017 9.23318 11.1317C8.67225 10.834 8.30752 11.578 8.60205 12.0244C8.05498 11.9824 7.91015 12.5544 8.13464 13.0379C8.35898 13.5213 8.7703 14.1536 8.50859 14.9346C8.24678 15.7158 7.61098 17.3521 9.63064 17.0919Z" fill="url(#paint26_radial_1191_419)"/>
<path d="M8.48438 12.0266C8.57641 12.1597 8.68432 12.3184 8.79439 12.4856C9.08784 12.93 9.39604 13.4447 9.44607 13.6693C9.52928 14.0151 9.55684 14.2479 9.55684 14.2487C9.56029 14.2771 9.58459 14.298 9.61239 14.298C9.61451 14.298 9.61693 14.2979 9.61905 14.2976C9.65015 14.2939 9.67219 14.2661 9.66854 14.2355C9.66829 14.2338 9.63995 13.9947 9.55521 13.6436C9.46855 13.2791 8.88726 12.4099 8.55112 11.9264C8.56556 11.9602 8.58223 11.9932 8.60278 12.0245C8.56063 12.0213 8.52174 12.0229 8.48438 12.0266ZM9.60899 11.7483C9.94444 12.2131 10.2951 12.7506 10.3436 12.972C10.427 13.3177 10.4543 13.5505 10.4543 13.5514C10.4578 13.5797 10.4822 13.6005 10.5104 13.6005C10.5125 13.6005 10.5147 13.6004 10.5169 13.6002C10.548 13.5965 10.5696 13.5687 10.5661 13.5381C10.5661 13.5365 10.5376 13.2973 10.4528 12.9464C10.3527 12.5293 9.51005 11.4132 9.17584 10.9801C9.18707 11.0306 9.206 11.0816 9.2339 11.1319C9.19314 11.1103 9.15385 11.0955 9.11555 11.0844C9.24046 11.2475 9.42246 11.4883 9.60899 11.7483ZM10.157 10.6531C10.3943 10.9608 10.9626 11.726 11.3278 12.4636C11.4366 12.7332 11.5068 13.1486 11.5068 13.1495C11.5114 13.1769 11.5353 13.1962 11.5624 13.1962C11.5655 13.1962 11.5686 13.196 11.5716 13.1955C11.6022 13.1902 11.6228 13.1614 11.6178 13.1308C11.6173 13.1289 11.5478 12.7103 11.4303 12.4181C11.0384 11.6276 10.4252 10.8145 10.2107 10.5393C10.1926 10.5744 10.1746 10.6117 10.157 10.6531Z" fill="#EC8F23"/>
<defs>
<radialGradient id="paint0_radial_1191_419" cx="0" cy="0" r="1" gradientUnits="userSpaceOnUse" gradientTransform="translate(8.13174 7.29474) scale(9.64744 9.59378)">
<stop offset="0.0714" stop-color="#F9EC00"/>
<stop offset="0.3407" stop-color="#F2BE1D"/>
<stop offset="0.6868" stop-color="#ED9D23"/>
<stop offset="1" stop-color="#E87326"/>
</radialGradient>
<radialGradient id="paint1_radial_1191_419" cx="0" cy="0" r="1" gradientUnits="userSpaceOnUse" gradientTransform="translate(5.91972 7.05998) scale(2.31958 2.71703)">
<stop offset="0.0714" stop-color="#F2BE1D"/>
<stop offset="0.6868" stop-color="#ED9D23"/>
<stop offset="1" stop-color="#E87326"/>
</radialGradient>
<radialGradient id="paint2_radial_1191_419" cx="0" cy="0" r="1" gradientUnits="userSpaceOnUse" gradientTransform="translate(10.1908 6.86328) rotate(178.591) scale(2.45779 2.71712)">
<stop offset="0.0714" stop-color="#F2BE1D"/>
<stop offset="0.6868" stop-color="#ED9D23"/>
<stop offset="1" stop-color="#E87326"/>
</radialGradient>
<radialGradient id="paint3_radial_1191_419" cx="0" cy="0" r="1" gradientUnits="userSpaceOnUse" gradientTransform="translate(5.49795 9.0419) scale(1.79325 1.78327)">
<stop offset="0.0714" stop-color="#F2BE1D"/>
<stop offset="0.6868" stop-color="#ED9D23"/>
<stop offset="1" stop-color="#E87326"/>
</radialGradient>
<radialGradient id="paint4_radial_1191_419" cx="0" cy="0" r="1" gradientUnits="userSpaceOnUse" gradientTransform="translate(5.34228 6.63226) rotate(3.20959) scale(0.979701 0.974286)">
<stop offset="0.0714" stop-color="#F2BE1D"/>
<stop offset="0.6868" stop-color="#ED9D23"/>
<stop offset="1" stop-color="#E87326"/>
</radialGradient>
<radialGradient id="paint5_radial_1191_419" cx="0" cy="0" r="1" gradientUnits="userSpaceOnUse" gradientTransform="translate(10.8324 9.34479) scale(1.16828 1.16178)">
<stop offset="0.0714" stop-color="#F2BE1D"/>
<stop offset="0.6868" stop-color="#ED9D23"/>
<stop offset="1" stop-color="#E87326"/>
</radialGradient>
<radialGradient id="paint6_radial_1191_419" cx="0" cy="0" r="1" gradientUnits="userSpaceOnUse" gradientTransform="translate(10.3222 6.39841) rotate(166.593) scale(0.979506 0.974646)">
<stop offset="0.0714" stop-color="#F2BE1D"/>
<stop offset="0.6868" stop-color="#ED9D23"/>
<stop offset="1" stop-color="#E87326"/>
</radialGradient>
<radialGradient id="paint7_radial_1191_419" cx="0" cy="0" r="1" gradientUnits="userSpaceOnUse" gradientTransform="translate(6.85518 6.95892) scale(4.24307 4.21947)">
<stop offset="0.0714" stop-color="#F9EC00"/>
<stop offset="0.3407" stop-color="#F2BE1D"/>
<stop offset="0.6868" stop-color="#ED9D23"/>
<stop offset="1" stop-color="#E87326"/>
</radialGradient>
<radialGradient id="paint8_radial_1191_419" cx="0" cy="0" r="1" gradientUnits="userSpaceOnUse" gradientTransform="translate(8.87105 3.53708) scale(4.85579 4.82878)">
<stop stop-color="white"/>
<stop offset="1" stop-color="#CEDAD9"/>
</radialGradient>
<radialGradient id="paint9_radial_1191_419" cx="0" cy="0" r="1" gradientUnits="userSpaceOnUse" gradientTransform="translate(9.40217 2.0535) scale(1.80758 1.79753)">
<stop stop-color="#F1A7B8"/>
<stop offset="1" stop-color="#EE87A6"/>
</radialGradient>
<radialGradient id="paint10_radial_1191_419" cx="0" cy="0" r="1" gradientUnits="userSpaceOnUse" gradientTransform="translate(12.0463 7.37344) scale(2.49898 2.48508)">
<stop offset="0.0714" stop-color="#F9EC00"/>
<stop offset="0.3407" stop-color="#F2BE1D"/>
<stop offset="0.6868" stop-color="#ED9D23"/>
<stop offset="1" stop-color="#E87326"/>
</radialGradient>
<radialGradient id="paint11_radial_1191_419" cx="0" cy="0" r="1" gradientUnits="userSpaceOnUse" gradientTransform="translate(12.3762 6.93197) scale(2.90347 2.88732)">
<stop stop-color="white"/>
<stop offset="1" stop-color="#CEDAD9"/>
</radialGradient>
<radialGradient id="paint12_radial_1191_419" cx="0" cy="0" r="1" gradientUnits="userSpaceOnUse" gradientTransform="translate(10.9826 5.28529) scale(0.802817 0.798352)">
<stop stop-color="#F1A7B8"/>
<stop offset="1" stop-color="#EE87A6"/>
</radialGradient>
<radialGradient id="paint13_radial_1191_419" cx="0" cy="0" r="1" gradientUnits="userSpaceOnUse" gradientTransform="translate(8.30252 3.42283) scale(4.1974 4.17405)">
<stop stop-color="white"/>
<stop offset="1" stop-color="#CEDAD9"/>
</radialGradient>
<radialGradient id="paint14_radial_1191_419" cx="0" cy="0" r="1" gradientUnits="userSpaceOnUse" gradientTransform="translate(8.75149 4.12541) scale(4.33199 4.3079)">
<stop stop-color="white"/>
<stop offset="1" stop-color="#CEDAD9"/>
</radialGradient>
<radialGradient id="paint15_radial_1191_419" cx="0" cy="0" r="1" gradientUnits="userSpaceOnUse" gradientTransform="translate(7.26521 5.92508) scale(5.62413 5.59285)">
<stop stop-color="white"/>
<stop offset="1" stop-color="#CEDAD9"/>
</radialGradient>
<radialGradient id="paint16_radial_1191_419" cx="0" cy="0" r="1" gradientUnits="userSpaceOnUse" gradientTransform="translate(7.50716 4.50536) scale(2.72257 2.70743)">
<stop stop-color="#F1A7B8"/>
<stop offset="1" stop-color="#EE87A6"/>
</radialGradient>
<radialGradient id="paint17_radial_1191_419" cx="0" cy="0" r="1" gradientUnits="userSpaceOnUse" gradientTransform="translate(1.53575 6.23119) scale(2.6114 2.59687)">
<stop stop-color="#F1A7B8"/>
<stop offset="1" stop-color="#EE87A6"/>
</radialGradient>
<radialGradient id="paint18_radial_1191_419" cx="0" cy="0" r="1" gradientUnits="userSpaceOnUse" gradientTransform="translate(14.7735 8.00811) scale(1.34439 1.33691)">
<stop stop-color="#F1A7B8"/>
<stop offset="1" stop-color="#EE87A6"/>
</radialGradient>
<radialGradient id="paint19_radial_1191_419" cx="0" cy="0" r="1" gradientUnits="userSpaceOnUse" gradientTransform="translate(5.25278 11.7921) rotate(9.50083) scale(1.27829 0.791061)">
<stop stop-color="white"/>
<stop offset="1"/>
</radialGradient>
<radialGradient id="paint20_radial_1191_419" cx="0" cy="0" r="1" gradientUnits="userSpaceOnUse" gradientTransform="translate(10.9978 11.6913) rotate(-15.4827) scale(1.27796 0.791231)">
<stop stop-color="white"/>
<stop offset="1"/>
</radialGradient>
<radialGradient id="paint21_radial_1191_419" cx="0" cy="0" r="1" gradientUnits="userSpaceOnUse" gradientTransform="translate(7.94728 10.8649) rotate(-1.1795) scale(1.50241 1.49406)">
<stop offset="0.0714" stop-color="#F2BE1D"/>
<stop offset="0.6868" stop-color="#ED9D23"/>
<stop offset="1" stop-color="#E87326"/>
</radialGradient>
<radialGradient id="paint22_radial_1191_419" cx="0" cy="0" r="1" gradientUnits="userSpaceOnUse" gradientTransform="translate(8.05978 13.9851) rotate(91.7333) scale(2.66919 3.86942)">
<stop stop-color="white"/>
<stop offset="1"/>
</radialGradient>
<radialGradient id="paint23_radial_1191_419" cx="0" cy="0" r="1" gradientUnits="userSpaceOnUse" gradientTransform="translate(3.09475 10.3553) scale(3.13578 3.11834)">
<stop offset="0.0714" stop-color="#F9EC00"/>
<stop offset="0.3407" stop-color="#F2BE1D"/>
<stop offset="0.6868" stop-color="#ED9D23"/>
<stop offset="1" stop-color="#E87326"/>
</radialGradient>
<radialGradient id="paint24_radial_1191_419" cx="0" cy="0" r="1" gradientUnits="userSpaceOnUse" gradientTransform="translate(5.75898 11.8674) scale(4.631 4.60524)">
<stop offset="0.0714" stop-color="#F9EC00"/>
<stop offset="0.3407" stop-color="#F2BE1D"/>
<stop offset="0.6868" stop-color="#ED9D23"/>
<stop offset="1" stop-color="#E87326"/>
</radialGradient>
<radialGradient id="paint25_radial_1191_419" cx="0" cy="0" r="1" gradientUnits="userSpaceOnUse" gradientTransform="translate(12.8383 10.3925) rotate(180) scale(3.13576 3.11832)">
<stop offset="0.0714" stop-color="#F9EC00"/>
<stop offset="0.3407" stop-color="#F2BE1D"/>
<stop offset="0.6868" stop-color="#ED9D23"/>
<stop offset="1" stop-color="#E87326"/>
</radialGradient>
<radialGradient id="paint26_radial_1191_419" cx="0" cy="0" r="1" gradientUnits="userSpaceOnUse" gradientTransform="translate(10.1735 11.9046) rotate(180) scale(4.631 4.60524)">
<stop offset="0.0714" stop-color="#F9EC00"/>
<stop offset="0.3407" stop-color="#F2BE1D"/>
<stop offset="0.6868" stop-color="#ED9D23"/>
<stop offset="1" stop-color="#E87326"/>
</radialGradient>
</defs>
</svg>
