<svg width="12" height="19" viewBox="0 0 12 19" fill="none" xmlns="http://www.w3.org/2000/svg">
<path d="M7.47045 7.3713C7.23386 7.03955 7.23386 6.51066 7.23386 5.45288V5.17635C7.23386 2.24359 7.23386 0.777212 6.65675 0.52456C6.07963 0.271908 5.46107 1.46749 4.22395 3.85866L2.31007 7.55787C1.50711 9.10988 1.10562 9.88588 1.32685 10.496C1.33051 10.5061 1.33428 10.5162 1.33816 10.5261C1.57251 11.127 2.26592 11.127 3.65274 11.127C4.4234 11.127 4.80873 11.127 5.05043 11.4517" stroke="#ED1C24"/>
<path opacity="0.5" d="M7.46982 7.37146L7.48234 7.38864C7.72404 7.71338 8.10936 7.71338 8.88001 7.71338C10.2668 7.71338 10.9603 7.71339 11.1946 8.31424C11.1985 8.32419 11.2023 8.33422 11.2059 8.34432C11.4271 8.95448 11.0257 9.73048 10.2227 11.2825L8.3088 14.9817C7.07165 17.3728 6.45307 18.5684 5.87596 18.3158C5.29885 18.0631 5.29886 16.5967 5.29889 13.6639L5.2989 13.3875C5.29891 12.3297 5.29891 11.8008 5.06232 11.4691L5.0498 11.4519" stroke="#ED1C24"/>
</svg>
