<svg width="81" height="81" viewBox="0 0 81 81" fill="none" xmlns="http://www.w3.org/2000/svg">
<rect x="1.25562" y="1.38544" width="79" height="79" rx="2.5" fill="black" fill-opacity="0.01" stroke="#0AB928"/>
<path d="M15.7556 64.8854C15.7556 64.3332 16.2033 63.8854 16.7556 63.8854H61.7556C62.3079 63.8854 62.7556 64.3332 62.7556 64.8854C62.7556 65.4377 62.3079 65.8854 61.7556 65.8854H16.7556C16.2033 65.8854 15.7556 65.4377 15.7556 64.8854Z" fill="#1BC469"/>
<path d="M15.7556 68.8854C15.7556 68.3332 16.2033 67.8854 16.7556 67.8854H61.7556C62.3079 67.8854 62.7556 68.3332 62.7556 68.8854C62.7556 69.4377 62.3079 69.8854 61.7556 69.8854H16.7556C16.2033 69.8854 15.7556 69.4377 15.7556 68.8854Z" fill="#1BC469"/>
<path d="M22.7556 72.8854C22.7556 72.3332 23.2033 71.8854 23.7556 71.8854H53.7556C54.3079 71.8854 54.7556 72.3332 54.7556 72.8854C54.7556 73.4377 54.3079 73.8854 53.7556 73.8854H23.7556C23.2033 73.8854 22.7556 73.4377 22.7556 72.8854Z" fill="#1BC469"/>
<rect x="41.0891" y="5.88544" width="21" height="53" rx="2" fill="#4CD964" fill-opacity="0.7"/>
<rect x="18.0891" y="5.88544" width="21" height="53" rx="2" fill="#4CD964" fill-opacity="0.7"/>
</svg>
