<svg width="37" height="43" viewBox="0 0 37 43" fill="none" xmlns="http://www.w3.org/2000/svg">
<path opacity="0.7" d="M0 18.2452C0 11.6724 0 8.38602 0.776004 7.2804C1.55201 6.17478 4.64211 5.11703 10.8223 3.00152L11.9998 2.59848C15.2214 1.49572 16.8321 0.944336 18.5 0.944336C20.1679 0.944336 21.7786 1.49572 25.0002 2.59848L26.1777 3.00152L26.1777 3.00153C32.3579 5.11703 35.448 6.17478 36.224 7.2804C37 8.38602 37 11.6724 37 18.2452V21.4821C37 33.0715 28.2866 38.6956 22.8196 41.0837C21.3366 41.7315 20.5951 42.0554 18.5 42.0554C16.4049 42.0554 15.6634 41.7315 14.1804 41.0837C8.71342 38.6956 0 33.0715 0 21.4821V18.2452Z" fill="#ED1C24"/>
<path d="M18.4999 11.7363C19.3513 11.7363 20.0416 12.4266 20.0416 13.278V21.5002C20.0416 22.3517 19.3513 23.0419 18.4999 23.0419C17.6485 23.0419 16.9582 22.3517 16.9582 21.5002V13.278C16.9582 12.4266 17.6485 11.7363 18.4999 11.7363Z" fill="white"/>
<path d="M18.4999 29.7224C19.6351 29.7224 20.5554 28.8021 20.5554 27.6669C20.5554 26.5316 19.6351 25.6113 18.4999 25.6113C17.3646 25.6113 16.4443 26.5316 16.4443 27.6669C16.4443 28.8021 17.3646 29.7224 18.4999 29.7224Z" fill="white"/>
</svg>
