<svg width="333" height="185" viewBox="0 0 333 185" fill="none" xmlns="http://www.w3.org/2000/svg">
<path d="M333 0H283.513V65.6303H333V0Z" fill="#E0E0E0"/>
<path d="M331.253 1.79321H285.234V63.9073H331.253V1.79321Z" fill="#FAFAFA"/>
<path d="M315.75 16.3362H300.737V51.9165H315.75V16.3362Z" fill="#E0E0E0"/>
<path d="M35.8712 183.54C47.4895 178.065 52.0201 165.274 53.5461 153.382C53.801 151.398 54.3658 149.351 53.6822 147.469C52.9981 145.587 50.9341 144.055 48.976 144.605C47.3519 145.062 46.4139 146.666 45.3372 147.946C43.9049 149.649 41.975 150.943 39.8405 151.632C38.4378 152.084 36.7698 152.235 35.6029 151.353C34.0019 150.142 34.181 147.758 34.5159 145.796C35.1398 142.139 35.7632 138.483 36.3871 134.827C36.7215 132.866 37.0563 130.861 36.7328 128.901C36.4093 126.94 35.3025 124.994 33.4634 124.173C31.6237 123.353 29.067 124.062 28.3454 125.921C28.045 126.695 28.0766 127.551 27.8867 128.357C27.6968 129.163 27.1578 130.005 26.3228 130.109C25.4774 130.214 24.7588 129.532 24.2484 128.864C22.4847 126.559 21.4864 123.786 20.5784 121.041C19.6705 118.297 18.8113 115.498 17.271 113.043C15.7308 110.588 13.3905 108.469 10.5186 107.862C7.64619 107.255 4.27417 108.514 3.08901 111.162C1.90039 113.817 3.1043 116.883 4.5479 119.403C6.68938 123.143 9.38572 126.574 12.5254 129.555C13.0911 130.093 13.7047 130.674 13.8295 131.439C14.0544 132.816 12.5629 133.919 11.1603 134.144C9.57215 134.398 7.96036 133.994 6.35302 133.93C4.74567 133.867 2.92576 134.278 2.09126 135.633C0.933219 137.512 2.31813 139.883 3.79429 141.524C6.74955 144.81 10.2838 147.59 14.1935 149.707C15.5951 150.466 17.0856 151.171 18.1198 152.371C19.1536 153.572 19.5886 155.448 18.6367 156.719C17.6838 157.992 15.75 158.147 14.2369 157.625C12.7242 157.105 11.4631 156.067 10.0663 155.294C7.45286 153.846 3.83128 153.477 1.6671 155.534C0.245203 156.886 -0.208051 159.005 0.0844174 160.924C0.376393 162.843 1.3189 164.602 2.35611 166.251C5.98065 172.013 11.0162 176.98 17.1117 180.147C23.2062 183.314 29.0872 184.825 35.8712 183.54Z" fill="#EBEBEB"/>
<path d="M34.2235 184.164C34.5505 179.411 34.768 181.877 33.9404 175.633C33.1256 169.388 31.647 162.613 29.8498 155.578C29.3936 153.821 28.9433 152.085 28.4994 150.375C28.0521 148.668 27.6087 146.975 27.0696 145.346C26.0058 142.081 24.7264 139.021 23.4184 136.154C22.1114 133.285 20.763 130.608 19.4841 128.115C18.1984 125.623 16.9555 123.322 15.7304 121.272C13.2925 117.161 10.9261 114.078 9.2127 112.025C8.35798 110.995 7.66848 110.218 7.19303 109.697C6.96419 109.449 6.78466 109.254 6.64903 109.108C6.52474 108.977 6.45915 108.911 6.45422 108.916C6.44879 108.92 6.50502 108.993 6.61993 109.133C6.74817 109.285 6.91881 109.488 7.13533 109.745C7.59105 110.281 8.2623 111.073 9.09828 112.115C10.7737 114.192 13.0982 117.289 15.4996 121.404C16.7069 123.456 17.9335 125.758 19.2045 128.253C20.4705 130.751 21.8066 133.428 23.1023 136.294C24.3979 139.158 25.665 142.209 26.7184 145.457C27.2521 147.079 27.69 148.757 28.1369 150.468C28.5803 152.178 29.0296 153.913 29.4853 155.669C31.2806 162.698 32.7656 169.454 33.5976 175.679C34.441 181.9 34.2501 179.41 33.9582 184.149" fill="#E0E0E0"/>
<path d="M26.9656 145.318C26.9903 145.325 27.1077 145.038 27.3005 144.511C27.4958 143.985 27.7523 143.215 28.0551 142.258C28.6618 140.348 29.407 137.68 30.2168 134.738C31.0272 131.793 31.8094 129.144 32.4441 127.248C32.7588 126.299 33.0217 125.533 33.2101 125.005C33.3955 124.477 33.4873 124.18 33.4631 124.17C33.4389 124.161 33.3018 124.44 33.074 124.954C32.8426 125.466 32.5408 126.221 32.1931 127.163C31.4908 129.045 30.6647 131.693 29.8538 134.641C29.0623 137.547 28.3461 140.176 27.7992 142.185C27.5461 143.091 27.3321 143.854 27.1605 144.467C27.012 145.007 26.9405 145.31 26.9656 145.318Z" fill="#E0E0E0"/>
<path d="M1.72271 136.584C1.71777 136.609 2.08126 136.708 2.74067 136.865C3.39861 137.026 4.35246 137.253 5.52085 137.572C7.86258 138.189 11.0669 139.152 14.5538 140.365C18.0398 141.584 21.1465 142.817 23.3664 143.772C24.4805 144.242 25.3712 144.646 25.9887 144.922C26.6052 145.2 26.952 145.343 26.9643 145.321C26.9761 145.298 26.6516 145.111 26.0538 144.793C25.4551 144.477 24.5792 144.036 23.4764 143.534C21.2782 142.515 18.1769 141.239 14.6806 140.016C11.1833 138.8 7.95431 137.873 5.58744 137.318C4.40622 137.032 3.44053 136.842 2.77076 136.725C2.1005 136.611 1.72862 136.559 1.72271 136.584Z" fill="#E0E0E0"/>
<path d="M33.6967 175.12C33.7076 175.127 33.786 175.031 33.9256 174.84C34.0863 174.611 34.2826 174.332 34.5204 173.995C35.0333 173.259 35.747 172.176 36.611 170.826C38.3407 168.128 40.6084 164.327 43.0532 160.101C45.499 155.873 47.7278 152.058 49.3963 149.329C50.2121 148.003 50.8838 146.912 51.3829 146.101C51.597 145.749 51.7735 145.459 51.9185 145.22C52.0374 145.016 52.0946 144.906 52.0838 144.899C52.0724 144.892 51.9945 144.989 51.8549 145.18C51.6941 145.408 51.4978 145.686 51.2606 146.023C50.7477 146.759 50.0335 147.843 49.1699 149.192C47.4403 151.891 45.1725 155.691 42.7272 159.919C40.2819 164.146 38.0537 167.961 36.3847 170.691C35.5684 172.016 34.8972 173.107 34.3985 173.917C34.184 174.27 34.0074 174.561 33.8629 174.799C33.7431 175.003 33.6854 175.113 33.6967 175.12Z" fill="#E0E0E0"/>
<path d="M0.899604 158.971C0.894179 158.983 1.00515 159.048 1.22019 159.162C1.47616 159.291 1.79033 159.45 2.17059 159.643C3.04996 160.078 4.2376 160.665 5.68169 161.379C8.64584 162.845 12.7162 164.916 17.2108 167.211C21.7063 169.507 25.8004 171.543 28.7971 172.95C30.2949 173.654 31.5132 174.212 32.3629 174.581C32.756 174.749 33.0806 174.887 33.3439 175C33.5698 175.092 33.6916 175.135 33.6971 175.123C33.7025 175.112 33.5915 175.047 33.3765 174.932C33.121 174.803 32.8073 174.644 32.4261 174.451C31.5467 174.016 30.36 173.43 28.9155 172.715C25.9508 171.249 21.8799 169.178 17.3844 166.882C12.8898 164.588 8.79626 162.552 5.80006 161.144C4.30171 160.44 3.084 159.882 2.23372 159.513C1.84014 159.345 1.5166 159.207 1.25274 159.094C1.02685 159.002 0.905522 158.96 0.899604 158.971Z" fill="#E0E0E0"/>
<path d="M46.9915 40.5286H7.91162V77.7907H46.9915V40.5286Z" fill="#E0E0E0"/>
<path d="M45.6122 41.5476H9.271V76.8135H45.6122V41.5476Z" fill="#FAFAFA"/>
<path d="M33.3693 53.4338H21.5137V64.9387H33.3693V53.4338Z" fill="#E0E0E0"/>
<path d="M321.36 184.058C321.36 184.126 252.535 184.182 167.656 184.182C82.7459 184.182 13.9363 184.126 13.9363 184.058C13.9363 183.989 82.7465 183.933 167.656 183.933C252.536 183.933 321.36 183.989 321.36 184.058Z" fill="#263238"/>
<path d="M267.426 13.1157H67.8695C64.4289 13.1157 61.6404 15.8218 61.6404 19.1601V155.941C61.6404 159.279 64.4289 161.986 67.8695 161.986H144.459C144.459 161.986 149.331 176.605 134.228 184.17H205.843C205.843 184.17 188.791 178.497 193.175 161.986H267.426C270.866 161.986 273.655 159.279 273.655 155.942V19.1606C273.655 15.8218 270.866 13.1157 267.426 13.1157Z" fill="#455A64"/>
<path d="M170.312 147.601C173.027 151.366 168.778 155.488 164.898 152.855C164.77 152.768 164.653 152.655 164.564 152.531C161.857 148.766 166.1 144.649 169.979 147.277C170.106 147.364 170.223 147.477 170.312 147.601Z" fill="#263238"/>
<path d="M267.123 137.929H67.759C66.8673 137.929 66.1448 137.228 66.1448 136.363V22.8809C66.1448 22.0156 66.8673 21.3145 67.759 21.3145H267.123C268.014 21.3145 268.736 22.0156 268.736 22.8805V136.363C268.737 137.228 268.014 137.929 267.123 137.929Z" fill="#FAFAFA"/>
<path d="M267.123 138.168H67.7588C66.7324 138.168 65.8979 137.358 65.8979 136.363V22.8803C65.8979 21.8848 66.7324 21.0745 67.7588 21.0745H267.123C268.148 21.0745 268.983 21.8843 268.983 22.8798V136.362C268.983 137.358 268.148 138.168 267.123 138.168ZM67.7588 21.5536C67.0047 21.5536 66.3912 22.1489 66.3912 22.8807V136.363C66.3912 137.094 67.0047 137.69 67.7588 137.69H267.123C267.876 137.69 268.49 137.094 268.49 136.363V22.8803C268.49 22.1485 267.876 21.5536 267.123 21.5536H67.7588Z" fill="white"/>
<path d="M82.7591 25.8194C82.7591 26.6866 82.0346 27.3897 81.1409 27.3897C80.2472 27.3897 79.5232 26.6866 79.5232 25.8194C79.5232 24.9521 80.2472 24.2495 81.1409 24.2495C82.0346 24.2495 82.7591 24.9521 82.7591 25.8194Z" fill="#455A64"/>
<path d="M72.9544 25.8194C72.9544 26.6866 72.2304 27.3897 71.3362 27.3897C70.443 27.3897 69.718 26.6866 69.718 25.8194C69.718 24.9521 70.4425 24.2495 71.3362 24.2495C72.2304 24.2495 72.9544 24.9521 72.9544 25.8194Z" fill="#455A64"/>
<path d="M77.6605 25.8194C77.6605 26.6866 76.9364 27.3897 76.0423 27.3897C75.1486 27.3897 74.4241 26.6866 74.4241 25.8194C74.4241 24.9521 75.1486 24.2495 76.0423 24.2495C76.936 24.2495 77.6605 24.9521 77.6605 25.8194Z" fill="#455A64"/>
<path d="M268.883 30.5346C268.883 30.6035 223.462 30.659 167.446 30.659C111.41 30.659 65.9993 30.603 65.9993 30.5346C65.9993 30.4657 111.41 30.4102 167.446 30.4102C223.462 30.4102 268.883 30.4662 268.883 30.5346Z" fill="#263238"/>
<path d="M257.766 41.0201L221.164 41.0854L221.215 69.4818L257.817 69.4165L257.766 41.0201Z" fill="#F5F5F5"/>
<path d="M256.459 42.8126L222.429 42.8733L222.474 67.6945L256.505 67.6338L256.459 42.8126Z" fill="#EBEBEB"/>
<path d="M222.479 67.6793L234.336 52.2297L241.716 61.8694L246.701 56.7L256.509 67.619L222.479 67.6793Z" fill="#E0E0E0"/>
<path d="M244.82 50.3196C244.822 51.7559 243.625 52.9218 242.145 52.9247C240.665 52.9276 239.463 51.7655 239.46 50.3292C239.458 48.8929 240.655 47.727 242.135 47.7241C243.615 47.7213 244.817 48.8833 244.82 50.3196Z" fill="#E0E0E0"/>
<path d="M257.763 101.82L221.161 101.886L221.212 130.282L257.814 130.217L257.763 101.82Z" fill="#F5F5F5"/>
<path d="M256.457 103.61L222.427 103.671L222.472 128.492L256.502 128.431L256.457 103.61Z" fill="#EBEBEB"/>
<path d="M222.479 128.48L234.336 113.031L241.716 122.67L246.701 117.501L256.509 128.42L222.479 128.48Z" fill="#E0E0E0"/>
<path d="M244.819 111.121C244.822 112.556 243.625 113.723 242.145 113.726C240.665 113.729 239.463 112.567 239.46 111.13C239.458 109.694 240.655 108.528 242.135 108.525C243.615 108.522 244.817 109.684 244.819 111.121Z" fill="#E0E0E0"/>
<path d="M111.024 41.0165L74.4219 41.0818L74.4734 69.4782L111.075 69.4129L111.024 41.0165Z" fill="#F5F5F5"/>
<path d="M109.718 42.8084L75.6877 42.8691L75.7328 67.6903L109.763 67.6296L109.718 42.8084Z" fill="#EBEBEB"/>
<path d="M75.7383 67.6795L87.5949 52.23L94.9761 61.8697L99.96 56.7002L109.769 67.6192L75.7383 67.6795Z" fill="#E0E0E0"/>
<path d="M98.0781 50.3196C98.0806 51.7559 96.8836 52.9218 95.4035 52.9247C93.9234 52.9276 92.722 51.7655 92.719 50.3292C92.716 48.8929 93.9135 47.727 95.3936 47.7241C96.8737 47.7213 98.0757 48.8833 98.0781 50.3196Z" fill="#E0E0E0"/>
<path d="M111.023 71.6222L74.4214 71.6875L74.473 100.084L111.075 100.019L111.023 71.6222Z" fill="#F5F5F5"/>
<path d="M109.717 73.4088L75.6865 73.4695L75.7316 98.2907L109.762 98.23L109.717 73.4088Z" fill="#EBEBEB"/>
<path d="M75.7385 98.2842L87.5951 82.8342L94.9764 92.4739L99.9602 87.3049L109.769 98.2235L75.7385 98.2842Z" fill="#E0E0E0"/>
<path d="M98.0789 80.927C98.0813 82.3634 96.8843 83.5292 95.4042 83.5321C93.9241 83.5345 92.7227 82.3729 92.7197 80.9366C92.7168 79.5003 93.9143 78.3344 95.3944 78.3315C96.8745 78.3292 98.0764 79.4907 98.0789 80.927Z" fill="#E0E0E0"/>
<path d="M111.022 102.496L74.4202 102.561L74.4717 130.958L111.074 130.892L111.022 102.496Z" fill="#F5F5F5"/>
<path d="M109.716 104.289L75.6855 104.349L75.7306 129.171L109.761 129.11L109.716 104.289Z" fill="#EBEBEB"/>
<path d="M75.7388 129.162L87.5954 113.712L94.9766 123.352L99.9605 118.182L109.769 129.101L75.7388 129.162Z" fill="#E0E0E0"/>
<path d="M98.0791 111.803C98.0816 113.239 96.8846 114.405 95.4045 114.408C93.9244 114.411 92.7229 113.249 92.72 111.813C92.717 110.376 93.9145 109.21 95.3946 109.208C96.8747 109.205 98.0766 110.367 98.0791 111.803Z" fill="#E0E0E0"/>
<path d="M263.256 68.9225C263.256 68.9225 259.856 68.1701 256.896 71.0523C254.317 73.5636 243.568 82.7405 243.568 82.7405L227.992 79.7147L225.843 86.4621C225.843 86.4621 244.239 92.015 245.58 91.5388C246.922 91.0625 256.896 84.5051 256.896 84.5051L263.256 68.9225Z" fill="#E8505B"/>
<path d="M247.592 45.6236L172.609 55.5076L180.752 113.68L255.735 103.796L247.592 45.6236Z" fill="#EBEBEB"/>
<path d="M247.591 45.6343C247.591 45.6343 247.468 45.6553 247.232 45.6888C246.991 45.7223 246.643 45.7707 246.185 45.8343C245.258 45.9597 243.894 46.145 242.12 46.3852C238.564 46.8619 233.368 47.5583 226.781 48.4413C213.614 50.1926 194.888 52.6828 172.626 55.6435L172.739 55.4999C175.167 72.8126 177.95 92.6611 180.895 113.664L180.896 113.671L180.731 113.549C208.493 109.899 234.293 106.506 255.717 103.69L255.612 103.823C253.185 86.2917 251.173 71.7607 249.767 61.606C249.07 56.5236 248.522 52.5382 248.149 49.8164C247.965 48.4586 247.824 47.4171 247.728 46.7092C247.634 46.0047 247.591 45.6343 247.591 45.6343C247.591 45.6343 247.649 45.9851 247.751 46.68C247.853 47.3822 248.002 48.415 248.196 49.7613C248.584 52.4751 249.15 56.449 249.873 61.516C251.312 71.6846 253.371 86.2358 255.854 103.791L255.871 103.908L255.749 103.924C234.327 106.755 208.53 110.163 180.77 113.831L180.624 113.85L180.604 113.709L180.603 113.703C177.669 92.6984 174.896 72.8481 172.477 55.5343L172.46 55.4075L172.59 55.3903C194.893 52.477 213.654 50.0265 226.846 48.3035C233.425 47.4511 238.614 46.7786 242.165 46.3187C243.93 46.0928 245.287 45.9191 246.209 45.8008C246.662 45.7444 247.006 45.7013 247.244 45.6716C247.477 45.6443 247.591 45.6343 247.591 45.6343Z" fill="#263238"/>
<path d="M245.421 49.6402L175.707 58.8298L182.824 109.678L252.539 100.489L245.421 49.6402Z" fill="#E8505B"/>
<path d="M182.823 109.683L202.749 74.8665L220.6 92.653L229.351 80.7333L252.538 100.494L182.823 109.683Z" fill="#E8505B"/>
<path d="M223.693 68.164C224.104 71.106 221.981 73.8149 218.949 74.2141C215.917 74.6137 213.126 72.5528 212.714 69.6108C212.303 66.6688 214.426 63.9603 217.458 63.5607C220.49 63.1615 223.281 65.2224 223.693 68.164Z" fill="#E8505B"/>
<g opacity="0.2">
<path d="M182.823 109.683L202.749 74.8665L220.6 92.653L229.351 80.7333L252.538 100.494L182.823 109.683Z" fill="black"/>
</g>
<g opacity="0.2">
<path d="M223.693 68.164C224.104 71.106 221.981 73.8149 218.949 74.2141C215.917 74.6137 213.126 72.5528 212.714 69.6108C212.303 66.6688 214.426 63.9603 217.458 63.5607C220.49 63.1615 223.281 65.2224 223.693 68.164Z" fill="black"/>
</g>
<path d="M280.959 76.465C281.666 71.7349 279.402 70.2632 275.845 68.834C271.403 67.0483 262.944 67.9362 260.086 70.4379L256.811 79.776C255.443 81.3229 255.662 83.6858 256.451 85.5744C257.24 87.4634 258.51 89.1572 259.099 91.1138C260.236 94.8958 259.439 98.2422 259.168 102.173C259.105 103.081 258.386 104.756 259.077 105.37C259.713 105.935 260.668 105.955 261.53 105.922C268.31 105.657 275.029 104.006 281.122 101.107C278.803 96.5609 276.241 91.3 277.736 87.8143C279.059 84.7311 280.318 80.7509 280.959 76.465Z" fill="#E8505B"/>
<path d="M250.238 86.151L248.045 93.4173C248.045 93.4173 259.53 97.4716 265.752 97.3974C271.58 97.328 273.25 96.6866 275.301 92.1188C277.352 87.5509 279.679 82.3049 280.167 79.282C280.167 79.282 280.665 77.9529 280.906 76.2017C281.759 70.0027 273.988 68.3702 272.853 74.526L271.928 77.8251C271.928 77.8251 269.811 82.4671 269.71 82.7251C268.773 85.132 267.154 88.9877 265.98 89.4142C264.806 89.8406 250.238 86.151 250.238 86.151Z" fill="#E8505B"/>
<path d="M278.289 86.4623C278.293 86.4638 278.273 86.5222 278.229 86.6346C278.179 86.7576 278.113 86.9218 278.028 87.1305C277.848 87.565 277.574 88.204 277.175 89.0076C276.778 89.8112 276.265 90.7856 275.56 91.8553C274.854 92.9212 273.97 94.1048 272.757 95.2013C272.471 95.4937 272.111 95.7196 271.778 95.9895C271.428 96.2374 271.041 96.4562 270.651 96.6787C270.444 96.7692 270.234 96.8611 270.023 96.9534C269.917 96.9984 269.812 97.0487 269.703 97.0899L269.362 97.1822C269.134 97.244 268.903 97.3062 268.671 97.3689C268.432 97.3962 268.191 97.4239 267.947 97.4517C265.995 97.6316 263.916 97.3732 261.765 97.0257C257.459 96.2867 252.811 95.0615 248.004 93.5333L247.887 93.496L247.922 93.3801C248.01 93.0901 248.104 92.7761 248.199 92.4617C248.856 90.2874 249.499 88.16 250.117 86.1144L250.152 85.9995L250.272 86.0306C254.473 87.1199 258.446 88.0733 262.065 88.7118C262.97 88.8645 263.853 89.0028 264.713 89.0674C265.141 89.1023 265.568 89.1162 265.968 89.066C266.071 89.0588 266.16 89.0282 266.249 89.0014C266.331 88.9621 266.391 88.9382 266.45 88.8463C266.57 88.695 266.682 88.5361 266.78 88.3629C267.587 87.0094 268.206 85.6726 268.795 84.478C269.949 82.073 270.834 80.1279 271.447 78.7921C271.75 78.134 271.985 77.6205 272.152 77.2587C272.23 77.0931 272.292 76.9629 272.338 76.8633C272.381 76.7748 272.405 76.7303 272.409 76.7317C272.412 76.7332 272.396 76.7805 272.36 76.872C272.319 76.9734 272.264 77.1069 272.195 77.2759C272.038 77.642 271.815 78.1613 271.53 78.8266C270.942 80.1734 270.08 82.1285 268.946 84.545C268.365 85.7478 267.759 87.0831 266.949 88.4605C266.853 88.6338 266.736 88.8037 266.604 88.9707C266.559 89.054 266.43 89.1406 266.327 89.1818C266.218 89.2167 266.108 89.2521 266 89.2603C265.567 89.3168 265.134 89.3024 264.698 89.2699C263.825 89.2081 262.938 89.0731 262.028 88.9233C258.393 88.2964 254.417 87.353 250.206 86.2671L250.36 86.1833C249.743 88.2289 249.102 90.3568 248.446 92.5316C248.351 92.846 248.256 93.16 248.169 93.45L248.087 93.2969C252.88 94.8217 257.522 96.0532 261.806 96.8013C263.945 97.154 266.015 97.4167 267.926 97.2483C268.164 97.2224 268.399 97.1966 268.633 97.1712C268.858 97.1114 269.082 97.052 269.304 96.9932L269.636 96.9056C269.742 96.8659 269.844 96.8175 269.948 96.774C270.155 96.6849 270.359 96.5969 270.562 96.5098C270.944 96.2939 271.324 96.0829 271.669 95.8416C271.998 95.5774 272.353 95.3592 272.637 95.0725C273.841 94 274.729 92.8336 275.442 91.7811C276.154 90.7244 276.679 89.7599 277.088 88.9655C277.499 88.171 277.787 87.5392 277.982 87.1113C278.076 86.9065 278.15 86.7457 278.206 86.6251C278.256 86.5155 278.285 86.4604 278.289 86.4623Z" fill="#263238"/>
<path d="M258.536 78.0098C258.569 78.0308 258.239 78.5228 257.737 79.3288C257.253 80.1343 256.555 81.2796 256.323 82.6815C256.076 84.0905 256.565 85.3545 256.934 86.2079C257.319 87.0703 257.593 87.5939 257.556 87.6121C257.541 87.6198 257.454 87.4992 257.315 87.2709C257.176 87.0426 256.981 86.7085 256.768 86.2801C256.556 85.8518 256.326 85.3248 256.167 84.7069C256.005 84.091 255.948 83.3726 256.07 82.6432C256.314 81.1753 257.057 80.0223 257.583 79.2345C258.129 78.4467 258.51 77.9925 258.536 78.0098Z" fill="#263238"/>
<g opacity="0.2">
<path d="M259.555 96.5461C259.504 97.3731 259.925 98.1834 260.545 98.7529C261.165 99.3225 261.966 99.6743 262.785 99.9073C265.357 100.64 268.237 100.24 270.526 98.886C272.815 97.5315 274.375 95.0715 275.006 92.543C275.006 92.543 273.56 94.31 272.609 95.2284C271.341 96.4546 269.967 97.0366 268.177 97.2822C265.284 97.6789 262.354 97.1099 259.491 96.5432" fill="black"/>
</g>
<path d="M258.658 71.2105C258.669 71.1961 258.961 71.3364 259.46 71.5838C260.029 71.8734 260.708 72.2194 261.475 72.6099L261.655 72.7018L261.48 72.8129C261.044 73.089 260.575 73.3858 260.086 73.6954C259.631 73.9773 259.194 74.2482 258.788 74.5004L258.599 74.6177L258.597 74.4057C258.588 73.4753 258.589 72.6769 258.599 72.1107C258.61 71.5445 258.63 71.211 258.658 71.2105C258.686 71.21 258.718 71.5426 258.75 72.1079C258.782 72.6731 258.814 73.4709 258.841 74.4014L258.65 74.3066C259.056 74.0496 259.492 73.7739 259.946 73.4867C260.441 73.18 260.915 72.8861 261.356 72.6128L261.36 72.8157C259.744 71.9413 258.617 71.2746 258.658 71.2105Z" fill="#FAFAFA"/>
<path d="M253.172 75.9524C253.183 75.9381 253.476 76.0783 253.975 76.3257C254.544 76.6153 255.223 76.9613 255.99 77.3519L256.171 77.4438L255.995 77.5548C255.559 77.831 255.09 78.1277 254.601 78.4374C254.146 78.7193 253.709 78.9902 253.303 79.2424L253.114 79.3596L253.112 79.1476C253.103 78.2172 253.104 77.4189 253.114 76.8527C253.124 76.2865 253.144 75.9529 253.172 75.9524C253.2 75.9519 253.233 76.2846 253.265 76.8498C253.297 77.4151 253.329 78.2129 253.355 79.1428L253.164 79.0481C253.571 78.7911 254.007 78.5154 254.461 78.2282C254.956 77.9214 255.43 77.6276 255.871 77.3543L255.875 77.5572C254.259 76.6828 253.132 76.0166 253.172 75.9524Z" fill="#FAFAFA"/>
<path d="M267.846 77.5705C267.828 77.5661 267.854 77.2503 267.905 76.7085C267.97 76.0882 268.049 75.3478 268.138 74.5117L268.158 74.3154L268.33 74.4322C268.756 74.7227 269.214 75.0348 269.693 75.3602C270.131 75.6646 270.553 75.9575 270.945 76.2299L271.127 76.3562L270.925 76.4371C270.038 76.7913 269.274 77.0871 268.729 77.2881C268.184 77.4896 267.858 77.5958 267.846 77.5705C267.835 77.5451 268.141 77.3924 268.67 77.1531C269.199 76.9143 269.951 76.5893 270.831 76.2198L270.811 76.4271C270.414 76.1566 269.988 75.8661 269.544 75.5641C269.067 75.2324 268.61 74.9147 268.185 74.6189L268.377 74.5394C268.142 76.3203 267.923 77.5834 267.846 77.5705Z" fill="#FAFAFA"/>
<path d="M258.16 83.1641C258.148 83.1507 258.357 82.9081 258.723 82.496C259.149 82.0284 259.656 81.4699 260.229 80.8395L260.363 80.6917L260.433 80.8836C260.606 81.3603 260.792 81.8729 260.986 82.4075C261.16 82.9028 261.327 83.3786 261.484 83.8218L261.556 84.0276L261.344 83.9792C260.41 83.7672 259.611 83.5767 259.047 83.4331C258.483 83.2895 258.153 83.1905 258.16 83.1641C258.166 83.1373 258.506 83.1857 259.08 83.2895C259.654 83.3934 260.46 83.5528 261.397 83.7485L261.257 83.906C261.096 83.4618 260.924 82.9851 260.744 82.4893C260.554 81.9504 260.372 81.4335 260.203 80.953L260.407 80.997C259.149 82.3132 258.214 83.2178 258.16 83.1641Z" fill="#FAFAFA"/>
<path d="M265.732 83.9159C265.715 83.9116 265.74 83.5957 265.791 83.0539C265.857 82.4337 265.935 81.6933 266.024 80.8571L266.045 80.6609L266.216 80.7777C266.642 81.0682 267.101 81.3802 267.579 81.7057C268.017 82.0101 268.439 82.303 268.831 82.5753L269.013 82.7017L268.811 82.7826C267.924 83.1367 267.16 83.4325 266.615 83.6335C266.07 83.835 265.743 83.9413 265.732 83.9159C265.722 83.8906 266.027 83.7379 266.557 83.4986C267.085 83.2597 267.837 82.9348 268.717 82.5653L268.697 82.7725C268.3 82.5021 267.874 82.2116 267.431 81.9096C266.954 81.5779 266.496 81.2601 266.071 80.9643L266.264 80.8849C266.027 82.6658 265.809 83.9288 265.732 83.9159Z" fill="#FAFAFA"/>
<path d="M263.041 88.3983C263.023 88.394 263.049 88.0781 263.099 87.5368C263.165 86.9166 263.243 86.1761 263.332 85.3395L263.353 85.1433L263.525 85.2601C263.951 85.5506 264.409 85.8627 264.887 86.1881C265.326 86.4925 265.747 86.7854 266.14 87.0582L266.322 87.1846L266.119 87.2655C265.233 87.6196 264.469 87.9154 263.923 88.1164C263.378 88.3174 263.052 88.4232 263.041 88.3983C263.03 88.373 263.336 88.2203 263.865 87.981C264.394 87.7422 265.145 87.4172 266.025 87.0472L266.005 87.2545C265.608 86.984 265.182 86.6935 264.739 86.3915C264.261 86.0598 263.804 85.742 263.379 85.4463L263.571 85.3668C263.336 87.1482 263.117 88.4113 263.041 88.3983Z" fill="#FAFAFA"/>
<path d="M268.63 103.468C268.612 103.463 268.638 103.147 268.688 102.606C268.754 101.985 268.832 101.245 268.921 100.409L268.942 100.213L269.113 100.329C269.54 100.62 269.998 100.932 270.476 101.257C270.915 101.562 271.336 101.855 271.728 102.127L271.91 102.253L271.708 102.334C270.821 102.689 270.057 102.984 269.512 103.185C268.967 103.387 268.64 103.493 268.63 103.468C268.619 103.442 268.925 103.29 269.454 103.05C269.983 102.812 270.734 102.487 271.614 102.117L271.594 102.324C271.197 102.054 270.771 101.763 270.328 101.461C269.851 101.13 269.393 100.812 268.968 100.516L269.16 100.437C268.925 102.218 268.706 103.481 268.63 103.468Z" fill="#FAFAFA"/>
<path d="M273.49 73.6898C273.472 73.6855 273.498 73.3697 273.549 72.8283C273.614 72.2081 273.693 71.4677 273.781 70.631L273.802 70.4348L273.974 70.5516C274.4 70.8421 274.858 71.1542 275.337 71.4796C275.775 71.784 276.197 72.0769 276.589 72.3497L276.771 72.4761L276.569 72.557C275.682 72.9111 274.918 73.2069 274.372 73.4079C273.827 73.609 273.501 73.7147 273.49 73.6898C273.479 73.6645 273.785 73.5118 274.314 73.2725C274.843 73.0337 275.594 72.7087 276.474 72.3392L276.455 72.5464C276.058 72.276 275.631 71.9855 275.189 71.683C274.712 71.3514 274.254 71.0336 273.829 70.7378L274.021 70.6583C273.785 72.4397 273.566 73.7028 273.49 73.6898Z" fill="#FAFAFA"/>
<path d="M261.37 78.9679C261.352 78.9636 261.378 78.6477 261.429 78.1064C261.494 77.4861 261.573 76.7457 261.662 75.9096L261.682 75.7129L261.854 75.8297C262.28 76.1202 262.738 76.4322 263.217 76.7577C263.655 77.0621 264.077 77.355 264.469 77.6278L264.651 77.7542L264.449 77.8351C263.562 78.1892 262.798 78.485 262.252 78.686C261.707 78.887 261.381 78.9928 261.37 78.9679C261.359 78.9425 261.665 78.7899 262.194 78.5506C262.723 78.3117 263.475 77.9868 264.354 77.6173L264.335 77.8245C263.938 77.5541 263.512 77.2636 263.068 76.9616C262.591 76.6299 262.134 76.3121 261.708 76.0163L261.901 75.9369C261.665 77.7178 261.447 78.9808 261.37 78.9679Z" fill="#FAFAFA"/>
<path d="M262.058 102.225C262.041 102.221 262.066 101.905 262.117 101.364C262.183 100.743 262.261 100.003 262.35 99.1667L262.371 98.9705L262.542 99.0872C262.968 99.3778 263.426 99.6898 263.905 100.015C264.343 100.32 264.765 100.613 265.157 100.885L265.339 101.012L265.137 101.093C264.25 101.447 263.486 101.743 262.941 101.944C262.396 102.145 262.07 102.251 262.058 102.225C262.048 102.2 262.353 102.047 262.882 101.808C263.411 101.569 264.163 101.244 265.043 100.875L265.023 101.082C264.626 100.812 264.2 100.521 263.757 100.219C263.28 99.8875 262.822 99.5697 262.397 99.2739L262.59 99.1945C262.354 100.975 262.135 102.238 262.058 102.225Z" fill="#FAFAFA"/>
<path d="M275.045 82.7846C275.028 82.7803 275.053 82.4644 275.104 81.9226C275.17 81.3023 275.248 80.5619 275.337 79.7258L275.358 79.5295L275.529 79.6463C275.955 79.9368 276.414 80.2489 276.892 80.5743C277.33 80.8787 277.752 81.1717 278.144 81.444L278.326 81.5703L278.124 81.6512C277.237 82.0054 276.473 82.3012 275.928 82.5022C275.383 82.7037 275.056 82.8099 275.045 82.7846C275.035 82.7592 275.34 82.6065 275.87 82.3672C276.398 82.1284 277.15 81.8034 278.03 81.4339L278.01 81.6412C277.613 81.3708 277.187 81.0802 276.743 80.7782C276.267 80.4466 275.809 80.1288 275.384 79.833L275.576 79.7535C275.34 81.5344 275.122 82.7975 275.045 82.7846Z" fill="#FAFAFA"/>
<path d="M269.419 93.6217C269.402 93.6174 269.427 93.3015 269.478 92.7602C269.544 92.14 269.622 91.3995 269.711 90.5629L269.732 90.3667L269.903 90.4835C270.329 90.774 270.788 91.086 271.266 91.4115C271.704 91.7159 272.126 92.0088 272.518 92.2816L272.7 92.408L272.498 92.4889C271.611 92.843 270.847 93.1388 270.302 93.3398C269.757 93.5408 269.43 93.6471 269.419 93.6217C269.409 93.5964 269.714 93.4437 270.244 93.2049C270.772 92.966 271.524 92.6406 272.404 92.2711L272.384 92.4783C271.987 92.2079 271.561 91.9174 271.118 91.6154C270.64 91.2837 270.183 90.9659 269.758 90.6701L269.95 90.5907C269.714 92.3716 269.496 93.6351 269.419 93.6217Z" fill="#FAFAFA"/>
<path d="M274.114 98.6403C274.097 98.636 274.122 98.3201 274.173 97.7788C274.239 97.1585 274.317 96.4181 274.406 95.5815L274.426 95.3853L274.598 95.502C275.024 95.7925 275.482 96.1046 275.961 96.4301C276.399 96.7344 276.821 97.0274 277.213 97.3002L277.395 97.4265L277.193 97.5074C276.306 97.8616 275.542 98.1573 274.997 98.3584C274.452 98.5594 274.125 98.6656 274.114 98.6403C274.103 98.6149 274.409 98.4622 274.938 98.2229C275.467 97.9841 276.219 97.6591 277.099 97.2896L277.079 97.4969C276.682 97.2265 276.256 96.9359 275.813 96.6339C275.335 96.3023 274.878 95.9845 274.453 95.6887L274.645 95.6092C274.409 97.3901 274.191 98.6532 274.114 98.6403Z" fill="#FAFAFA"/>
<path d="M270.901 88.1081C270.883 88.1037 270.909 87.7879 270.959 87.2466C271.025 86.6263 271.103 85.8859 271.192 85.0493L271.213 84.853L271.384 84.9698C271.811 85.2603 272.269 85.5724 272.747 85.8978C273.186 86.2022 273.607 86.4951 273.999 86.7679L274.181 86.8943L273.979 86.9752C273.092 87.3294 272.328 87.6251 271.783 87.8262C271.238 88.0272 270.911 88.1334 270.901 88.1081C270.89 88.0827 271.196 87.93 271.725 87.6907C272.253 87.4519 273.005 87.1269 273.885 86.7569L273.865 86.9642C273.468 86.6938 273.042 86.4032 272.599 86.1012C272.122 85.7696 271.665 85.4518 271.239 85.156L271.432 85.0765C271.196 86.8579 270.977 88.121 270.901 88.1081Z" fill="#FAFAFA"/>
<path d="M255.857 94.5665C255.839 94.5622 255.865 94.2464 255.916 93.7051C255.981 93.0848 256.06 92.3444 256.148 91.5082L256.169 91.3115L256.341 91.4283C256.767 91.7188 257.225 92.0309 257.703 92.3563C258.142 92.6607 258.564 92.9536 258.956 93.2264L259.138 93.3528L258.936 93.4337C258.049 93.7879 257.285 94.0836 256.739 94.2847C256.194 94.4857 255.868 94.5914 255.857 94.5665C255.846 94.5412 256.152 94.3885 256.681 94.1492C257.21 93.9104 257.961 93.5854 258.841 93.2159L258.822 93.4232C258.425 93.1527 257.998 92.8622 257.555 92.5602C257.078 92.2285 256.62 91.9107 256.195 91.615L256.388 91.5355C256.152 93.3164 255.933 94.5795 255.857 94.5665Z" fill="#FAFAFA"/>
<path d="M263.273 93.0495C263.255 93.0451 263.281 92.7293 263.331 92.1875C263.397 91.5672 263.475 90.8268 263.564 89.9907L263.585 89.7944L263.757 89.9112C264.183 90.2017 264.641 90.5138 265.119 90.8392C265.558 91.1436 265.979 91.4365 266.372 91.7089L266.554 91.8352L266.351 91.9161C265.464 92.2703 264.701 92.5661 264.155 92.7671C263.61 92.9686 263.284 93.0748 263.273 93.0495C263.262 93.0241 263.568 92.8714 264.097 92.6321C264.626 92.3933 265.377 92.0683 266.257 91.6988L266.237 91.9061C265.84 91.6356 265.414 91.3451 264.971 91.0431C264.494 90.7114 264.037 90.3936 263.612 90.0979L263.804 90.0184C263.568 91.7993 263.349 93.0624 263.273 93.0495Z" fill="#FAFAFA"/>
<path d="M250.369 91.3366C250.351 91.3323 250.377 91.0164 250.428 90.4746C250.493 89.8543 250.572 89.1139 250.661 88.2778L250.681 88.0815L250.853 88.1983C251.279 88.4888 251.737 88.8009 252.216 89.1263C252.654 89.4307 253.076 89.7237 253.468 89.996L253.65 90.1223L253.448 90.2032C252.561 90.5574 251.797 90.8532 251.251 91.0542C250.706 91.2557 250.38 91.3619 250.369 91.3366C250.358 91.3112 250.664 91.1585 251.193 90.9192C251.722 90.6804 252.474 90.3554 253.353 89.9859L253.334 90.1932C252.937 89.9228 252.511 89.6322 252.067 89.3302C251.59 88.9986 251.133 88.6808 250.707 88.385L250.9 88.3055C250.664 90.0864 250.446 91.3495 250.369 91.3366Z" fill="#FAFAFA"/>
<path d="M279.455 77.4481C279.447 77.4644 279.132 77.3816 278.593 77.2327C277.977 77.0556 277.242 76.8436 276.411 76.6043L276.216 76.5483L276.366 76.4062C276.739 76.0534 277.14 75.6739 277.558 75.2781C277.948 74.9163 278.322 74.5683 278.671 74.2448L278.832 74.0945L278.877 74.3022C279.072 75.2135 279.23 75.997 279.333 76.5541C279.435 77.1112 279.483 77.4419 279.455 77.4481C279.427 77.4538 279.329 77.1337 279.185 76.5852C279.041 76.0367 278.851 75.2599 278.639 74.3525L278.845 74.4099C278.498 74.7382 278.125 75.0909 277.737 75.458C277.313 75.8519 276.907 76.2291 276.528 76.5799L276.483 76.3818C278.243 76.935 279.482 77.3773 279.455 77.4481Z" fill="#FAFAFA"/>
<path d="M232.606 178.254L234.77 174.191L242.639 178.077L239.537 184.054L239.033 183.844C236.801 182.888 227.751 178.833 226.523 177.69C225.154 176.413 232.606 178.254 232.606 178.254Z" fill="#E8505B"/>
<g opacity="0.5">
<path d="M236.71 182.588C237.157 182.005 237.833 181.593 238.568 181.456C239.303 181.318 240.061 181.429 240.699 181.809L239.581 183.944L236.71 182.588Z" fill="white"/>
</g>
<g opacity="0.4">
<path d="M228.899 177.466C228.899 177.466 226.212 176.965 226.308 177.484C226.404 178.003 235.391 182.434 239.531 184.052L239.608 183.876L229.08 178.793C229.08 178.793 229.348 177.711 228.899 177.466Z" fill="white"/>
</g>
<path d="M239.735 183.935C239.733 183.938 239.684 183.92 239.592 183.883C239.472 183.832 239.34 183.777 239.192 183.714C238.795 183.538 238.306 183.323 237.73 183.068C236.499 182.515 234.81 181.728 232.964 180.819C231.118 179.91 229.465 179.052 228.278 178.416C227.726 178.115 227.258 177.861 226.878 177.653C226.738 177.573 226.614 177.503 226.501 177.439C226.415 177.389 226.371 177.361 226.373 177.358C226.375 177.355 226.422 177.377 226.511 177.42C226.628 177.479 226.755 177.544 226.898 177.617C227.283 177.817 227.756 178.062 228.315 178.351C229.511 178.97 231.168 179.818 233.013 180.726C234.857 181.634 236.541 182.431 237.762 183.001C238.333 183.267 238.816 183.493 239.209 183.677C239.355 183.746 239.484 183.807 239.602 183.863C239.69 183.908 239.736 183.932 239.735 183.935Z" fill="#263238"/>
<path d="M229.02 178.915C228.989 178.904 229.141 178.561 229.1 178.12C229.068 177.678 228.862 177.363 228.89 177.348C228.908 177.328 229.17 177.638 229.207 178.112C229.249 178.585 229.041 178.932 229.02 178.915Z" fill="#263238"/>
<path d="M231.942 178.919C231.912 178.921 231.87 178.735 231.847 178.503C231.824 178.271 231.829 178.08 231.859 178.077C231.889 178.075 231.931 178.261 231.954 178.493C231.976 178.726 231.971 178.916 231.942 178.919Z" fill="#263238"/>
<path d="M232.75 178.906C232.723 178.916 232.64 178.774 232.567 178.589C232.493 178.404 232.456 178.246 232.483 178.236C232.511 178.225 232.593 178.367 232.667 178.552C232.74 178.737 232.778 178.895 232.75 178.906Z" fill="#263238"/>
<path d="M233.531 178.381C233.518 178.407 233.322 178.339 233.093 178.23C232.865 178.12 232.69 178.01 232.704 177.984C232.716 177.959 232.912 178.027 233.141 178.136C233.369 178.246 233.544 178.356 233.531 178.381Z" fill="#263238"/>
<path d="M233.935 177.944C233.932 177.972 233.686 177.961 233.409 177.848C233.132 177.736 232.951 177.574 232.968 177.553C232.986 177.528 233.186 177.646 233.45 177.751C233.713 177.859 233.94 177.915 233.935 177.944Z" fill="#263238"/>
<path d="M232.024 178.121C232.019 178.132 231.813 178.059 231.52 177.869C231.373 177.774 231.208 177.647 231.042 177.488C230.961 177.405 230.871 177.329 230.798 177.213C230.765 177.156 230.733 177.082 230.753 176.998C230.77 176.914 230.854 176.852 230.932 176.84C231.543 176.835 231.889 177.338 231.942 177.669C231.976 177.842 231.957 177.984 231.935 178.078C231.912 178.171 231.885 178.219 231.879 178.216C231.858 178.214 231.946 178.006 231.868 177.684C231.829 177.526 231.739 177.346 231.579 177.199C231.427 177.059 231.179 176.92 230.954 176.941C230.844 176.959 230.827 177.067 230.889 177.162C230.945 177.255 231.036 177.34 231.112 177.42C231.27 177.578 231.427 177.708 231.564 177.809C231.84 178.011 232.032 178.106 232.024 178.121Z" fill="#263238"/>
<path d="M231.879 178.075C231.869 178.077 231.86 177.915 232 177.706C232.069 177.603 232.177 177.495 232.326 177.415C232.472 177.351 232.666 177.257 232.878 177.373C232.988 177.445 232.977 177.603 232.915 177.676C232.861 177.758 232.782 177.812 232.714 177.853C232.575 177.939 232.438 177.996 232.32 178.032C232.082 178.105 231.927 178.1 231.926 178.088C231.924 178.072 232.073 178.05 232.294 177.963C232.404 177.92 232.531 177.859 232.66 177.773C232.784 177.704 232.929 177.541 232.814 177.456C232.694 177.382 232.5 177.44 232.372 177.5C232.236 177.567 232.132 177.659 232.061 177.749C231.918 177.929 231.898 178.08 231.879 178.075Z" fill="#263238"/>
<path d="M240.668 181.766C240.658 181.783 240.454 181.634 240.077 181.5C239.704 181.364 239.141 181.263 238.542 181.381C237.944 181.501 237.467 181.81 237.18 182.078C236.889 182.346 236.761 182.56 236.745 182.549C236.74 182.546 236.765 182.49 236.825 182.395C236.886 182.3 236.984 182.17 237.127 182.026C237.407 181.738 237.896 181.405 238.521 181.28C239.145 181.156 239.729 181.274 240.104 181.431C240.294 181.509 240.438 181.591 240.531 181.656C240.626 181.719 240.672 181.761 240.668 181.766Z" fill="#263238"/>
<path d="M241.517 178.181C241.544 178.193 241.206 178.911 240.764 179.783C240.321 180.656 239.94 181.353 239.914 181.34C239.888 181.328 240.225 180.61 240.667 179.738C241.11 178.865 241.491 178.168 241.517 178.181Z" fill="#263238"/>
<path d="M236.11 181.349C236.1 181.375 235.545 181.204 234.903 180.893C234.26 180.584 233.783 180.258 233.799 180.236C233.815 180.211 234.313 180.494 234.951 180.8C235.586 181.107 236.121 181.321 236.11 181.349Z" fill="#263238"/>
<path d="M237.654 182.112C237.663 182.14 237.556 182.197 237.444 182.286C237.33 182.373 237.25 182.462 237.223 182.447C237.198 182.434 237.246 182.306 237.377 182.205C237.507 182.103 237.646 182.085 237.654 182.112Z" fill="#263238"/>
<path d="M238.602 181.694C238.612 181.721 238.519 181.776 238.395 181.816C238.272 181.855 238.165 181.866 238.155 181.839C238.146 181.811 238.238 181.757 238.362 181.717C238.485 181.677 238.593 181.667 238.602 181.694Z" fill="#263238"/>
<path d="M239.603 181.787C239.584 181.81 239.48 181.758 239.343 181.74C239.208 181.72 239.092 181.741 239.081 181.714C239.067 181.689 239.19 181.613 239.359 181.637C239.527 181.661 239.623 181.767 239.603 181.787Z" fill="#263238"/>
<path d="M240.308 181.935C240.304 181.967 240.231 181.986 240.143 181.977C240.055 181.969 239.987 181.936 239.991 181.904C239.994 181.872 240.067 181.853 240.155 181.862C240.243 181.87 240.311 181.904 240.308 181.935Z" fill="#263238"/>
<path d="M284.259 179.884L282.383 175.688L290.461 172.228L293.272 178.339L292.785 178.584C290.61 179.659 281.651 183.9 279.962 184.1C278.078 184.323 284.259 179.884 284.259 179.884Z" fill="#E8505B"/>
<g opacity="0.5">
<path d="M290.313 179.534C290.13 178.83 290.229 178.061 290.584 177.421C290.939 176.782 291.506 176.282 292.213 176.043L293.211 178.233L290.313 179.534Z" fill="white"/>
</g>
<g opacity="0.4">
<path d="M281.29 182.171C281.29 182.171 279.191 183.875 279.666 184.131C280.141 184.387 289.361 180.431 293.27 178.341L293.178 178.172L282.464 182.874C282.464 182.874 281.769 181.989 281.29 182.171Z" fill="white"/>
</g>
<path d="M293.302 178.106C293.303 178.109 293.258 178.135 293.17 178.18C293.053 178.239 292.926 178.302 292.782 178.375C292.391 178.562 291.91 178.793 291.342 179.066C290.122 179.641 288.426 180.413 286.534 181.227C284.641 182.04 282.911 182.74 281.653 183.231C281.063 183.456 280.564 183.646 280.158 183.802C280.006 183.857 279.872 183.905 279.749 183.95C279.655 183.983 279.605 183.998 279.603 183.995C279.602 183.992 279.649 183.97 279.74 183.93C279.861 183.881 279.993 183.825 280.142 183.764C280.544 183.601 281.04 183.4 281.623 183.163C282.874 182.655 284.598 181.945 286.49 181.132C288.381 180.319 290.082 179.557 291.309 178.999C291.883 178.738 292.368 178.517 292.763 178.338C292.911 178.272 293.041 178.214 293.16 178.161C293.252 178.122 293.301 178.103 293.302 178.106Z" fill="#263238"/>
<path d="M282.522 182.993C282.493 183.01 282.315 182.679 281.937 182.431C281.564 182.176 281.183 182.132 281.189 182.1C281.184 182.074 281.597 182.073 281.999 182.345C282.403 182.613 282.549 182.988 282.522 182.993Z" fill="#263238"/>
<path d="M284.37 180.794C284.354 180.818 284.178 180.733 283.978 180.603C283.779 180.473 283.63 180.349 283.646 180.325C283.663 180.301 283.838 180.387 284.038 180.517C284.237 180.646 284.386 180.771 284.37 180.794Z" fill="#263238"/>
<path d="M284.871 180.18C284.861 180.207 284.697 180.18 284.502 180.118C284.308 180.056 284.157 179.984 284.167 179.957C284.176 179.93 284.341 179.958 284.535 180.019C284.73 180.081 284.88 180.153 284.871 180.18Z" fill="#263238"/>
<path d="M284.947 179.266C284.96 179.292 284.781 179.396 284.55 179.499C284.318 179.601 284.12 179.663 284.108 179.637C284.095 179.611 284.273 179.507 284.505 179.404C284.737 179.302 284.935 179.239 284.947 179.266Z" fill="#263238"/>
<path d="M284.851 178.68C284.871 178.699 284.706 178.877 284.441 179.014C284.177 179.153 283.933 179.187 283.927 179.16C283.919 179.131 284.14 179.055 284.391 178.923C284.643 178.793 284.831 178.657 284.851 178.68Z" fill="#263238"/>
<path d="M283.785 180.232C283.79 180.242 283.602 180.352 283.264 180.451C283.096 180.501 282.89 180.546 282.658 180.57C282.541 180.579 282.423 180.598 282.284 180.579C282.217 180.568 282.139 180.546 282.084 180.478C282.028 180.411 282.031 180.309 282.071 180.243C282.454 179.78 283.074 179.838 283.371 180.008C283.531 180.091 283.633 180.195 283.694 180.271C283.754 180.348 283.775 180.398 283.769 180.401C283.754 180.415 283.644 180.218 283.337 180.073C283.186 180.002 282.985 179.956 282.766 179.983C282.559 180.009 282.292 180.107 282.167 180.29C282.111 180.384 282.186 180.464 282.302 180.478C282.411 180.495 282.537 180.48 282.649 180.474C282.875 180.455 283.077 180.419 283.244 180.38C283.579 180.301 283.778 180.216 283.785 180.232Z" fill="#263238"/>
<path d="M283.661 180.317C283.656 180.325 283.521 180.229 283.442 179.992C283.404 179.876 283.386 179.726 283.416 179.564C283.457 179.412 283.504 179.208 283.731 179.122C283.858 179.085 283.977 179.193 283.997 179.285C284.028 179.378 284.021 179.471 284.011 179.548C283.992 179.707 283.951 179.846 283.905 179.958C283.812 180.182 283.711 180.296 283.701 180.289C283.686 180.281 283.763 180.154 283.833 179.934C283.868 179.823 283.899 179.689 283.913 179.538C283.935 179.401 283.897 179.189 283.756 179.222C283.621 179.265 283.546 179.448 283.512 179.582C283.48 179.726 283.488 179.863 283.515 179.973C283.569 180.195 283.677 180.305 283.661 180.317Z" fill="#263238"/>
<path d="M292.16 176.039C292.167 176.057 291.919 176.117 291.573 176.315C291.23 176.509 290.792 176.869 290.509 177.394C290.226 177.92 290.172 178.474 290.204 178.859C290.233 179.248 290.325 179.479 290.305 179.484C290.299 179.486 290.271 179.431 290.233 179.326C290.195 179.221 290.154 179.064 290.129 178.866C290.076 178.473 290.12 177.895 290.414 177.346C290.71 176.799 291.174 176.434 291.536 176.251C291.718 176.158 291.875 176.101 291.986 176.072C292.096 176.041 292.159 176.033 292.16 176.039Z" fill="#263238"/>
<path d="M289.838 173.132C289.865 173.12 290.225 173.827 290.641 174.711C291.058 175.596 291.374 176.322 291.347 176.334C291.321 176.346 290.961 175.639 290.544 174.754C290.127 173.87 289.811 173.144 289.838 173.132Z" fill="#263238"/>
<path d="M288.949 179.206C288.964 179.229 288.476 179.539 287.822 179.826C287.169 180.114 286.608 180.267 286.6 180.241C286.59 180.212 287.131 180.017 287.778 179.731C288.426 179.447 288.934 179.18 288.949 179.206Z" fill="#263238"/>
<path d="M290.531 178.52C290.56 178.531 290.538 178.647 290.537 178.788C290.535 178.928 290.555 179.045 290.526 179.055C290.5 179.066 290.428 178.95 290.43 178.787C290.431 178.624 290.505 178.509 290.531 178.52Z" fill="#263238"/>
<path d="M290.799 177.549C290.827 177.559 290.812 177.663 290.766 177.781C290.72 177.899 290.659 177.986 290.632 177.976C290.604 177.966 290.619 177.862 290.665 177.744C290.712 177.626 290.771 177.539 290.799 177.549Z" fill="#263238"/>
<path d="M291.503 176.854C291.509 176.883 291.402 176.928 291.302 177.02C291.2 177.109 291.144 177.209 291.115 177.201C291.087 177.195 291.103 177.055 291.229 176.944C291.354 176.831 291.5 176.826 291.503 176.854Z" fill="#263238"/>
<path d="M292.065 176.438C292.088 176.46 292.057 176.528 291.995 176.589C291.932 176.649 291.863 176.68 291.84 176.657C291.816 176.635 291.848 176.567 291.91 176.506C291.972 176.445 292.042 176.415 292.065 176.438Z" fill="#263238"/>
<path d="M292.503 174.841L281.136 181.113L265.202 150.125C262.834 141.841 260.554 112.677 260.554 112.677L273.686 113.65C273.686 113.65 275.709 134.587 278.887 145.376L292.503 174.841Z" fill="#263238"/>
<path d="M280.215 99.9409C280.532 99.9232 282.832 108.57 280.027 113.781C279.754 114.289 277.739 117.119 277.739 117.119C270.583 125.312 263.333 141.205 261.309 145.38C257.156 153.943 241.85 182.116 241.85 182.116L232.019 176.653L246.393 140.787L258.719 105.594L280.215 99.9409Z" fill="#263238"/>
<path d="M273.762 122.082C273.746 122.075 273.599 122.327 273.346 122.787C273.076 123.284 272.717 123.944 272.282 124.743C271.385 126.396 270.124 128.666 268.725 131.173C267.326 133.68 266.087 135.966 265.229 137.64C264.8 138.476 264.459 139.157 264.234 139.632C264.007 140.106 263.889 140.372 263.904 140.379C263.92 140.386 264.067 140.135 264.32 139.673C264.59 139.177 264.949 138.516 265.384 137.717C266.281 136.065 267.543 133.794 268.941 131.287C270.34 128.78 271.579 126.494 272.437 124.821C272.866 123.984 273.206 123.304 273.432 122.829C273.658 122.355 273.776 122.089 273.762 122.082Z" fill="#455A64"/>
<path d="M246.625 91.5104C244.784 91.3353 242.579 91.0873 241.447 90.8217C239.339 90.3268 239.377 90.1407 239.472 89.9095C239.728 89.2892 243.211 90.6427 242.625 89.9272C242.038 89.2117 238.181 88.756 238.476 88.1185C238.86 87.2886 242.48 88.7709 242.796 88.8743C243.102 88.9748 243.264 88.5349 242.975 88.4564C242.558 88.3435 238.216 87.0546 238.585 86.2357C238.79 85.7815 239.591 86.2366 239.591 86.2366C239.591 86.2366 243.57 87.7361 243.732 87.3432C243.895 86.9445 241.587 85.9873 240.787 85.7183C239.996 85.4527 239.795 84.9765 240.198 84.7309C240.473 84.5639 242.942 85.3311 243.728 85.6154C244.513 85.8992 246.654 86.7162 245.913 85.4737C245.172 84.2313 245.072 83.0108 245.278 82.6667C245.483 82.3226 246.05 82.4896 246.097 82.9314C246.135 83.2884 246.386 83.868 246.593 84.2964C246.763 84.6491 246.99 84.9745 247.268 85.2536C247.51 85.4953 247.731 85.702 247.933 85.8839L249.691 87.4949L248.469 91.678L246.625 91.5104Z" fill="#FFBE9D"/>
<path d="M268.713 46.0998C268.083 45.1182 266.771 44.7626 265.58 44.7789C262.268 44.8238 259.176 47.3739 258.596 50.5375C258.358 51.8355 258.498 53.1981 258.077 54.4516C257.772 55.3576 257.193 56.1478 256.656 56.9456C256.119 57.7434 255.607 58.5915 255.464 59.5344C255.321 60.4773 255.627 61.5417 256.444 62.071C255.482 63.022 255.243 64.589 255.88 65.7693C256.518 66.9495 257.981 67.6512 259.334 67.4253C260.053 67.3051 260.824 66.9605 261.468 67.2917C261.79 67.4573 262.004 67.7627 262.259 68.0159C263.248 68.9984 264.892 69.1593 266.211 68.6629C267.531 68.1666 268.56 67.1213 269.337 65.9736C269.543 65.6711 269.814 65.3184 270.185 65.3543C270.401 65.3754 270.575 65.5285 270.747 65.6587C272.037 66.6379 274.088 66.4881 275.213 65.3328C276.337 64.1774 276.374 62.1816 275.293 60.9875C276.474 60.6687 277.4 59.6895 277.788 58.5614C278.176 57.4333 278.066 56.1808 277.65 55.0623C277.033 53.4034 275.798 52.0418 274.59 50.7241C273.484 49.518 273.158 47.6548 272.052 46.4487C271.576 45.929 271.004 45.291 269.991 45.1153C269.286 44.9933 268.245 45.2804 267.625 45.6293" fill="#263238"/>
<path d="M266.229 46.6724C269.668 46.6724 272.445 49.3961 272.408 52.733L272.227 69.1249C272.198 71.214 270.324 72.8538 268.019 72.8069C265.691 72.759 263.8 71.0106 263.793 68.9C263.786 66.6845 263.737 64.3522 263.737 64.3522C263.737 64.3522 260.796 63.8784 260.187 60.1543C260.033 59.2182 260.023 55.7837 260.051 52.6162C260.079 49.3243 262.838 46.6724 266.229 46.6724Z" fill="#FFBE9D"/>
<path d="M260.926 54.9045C260.916 55.1568 261.129 55.3722 261.4 55.3865C261.671 55.4004 261.899 55.208 261.908 54.9557C261.917 54.7034 261.705 54.4875 261.434 54.4731C261.163 54.4592 260.935 54.6522 260.926 54.9045Z" fill="#263238"/>
<path d="M260.819 54.3639C260.881 54.4261 261.253 54.1586 261.783 54.1595C262.312 54.1538 262.7 54.418 262.758 54.3548C262.786 54.327 262.724 54.2146 262.554 54.0949C262.388 53.9757 262.104 53.8599 261.774 53.8613C261.444 53.8633 261.166 53.981 261.007 54.1016C260.844 54.2232 260.789 54.3361 260.819 54.3639Z" fill="#263238"/>
<path d="M266.227 54.9045C266.217 55.1568 266.43 55.3722 266.701 55.3865C266.972 55.4004 267.2 55.208 267.209 54.9557C267.218 54.7034 267.006 54.4875 266.735 54.4731C266.463 54.4592 266.236 54.6522 266.227 54.9045Z" fill="#263238"/>
<path d="M266.024 54.4606C266.086 54.5228 266.459 54.2552 266.988 54.2567C267.517 54.2509 267.906 54.5151 267.963 54.452C267.991 54.4242 267.93 54.3117 267.76 54.1921C267.593 54.0729 267.309 53.9571 266.979 53.9585C266.649 53.9604 266.372 54.0782 266.212 54.1988C266.05 54.3203 265.995 54.4328 266.024 54.4606Z" fill="#263238"/>
<path d="M264.102 58.2758C264.104 58.2466 263.775 58.1916 263.242 58.1251C263.107 58.1117 262.978 58.0853 262.956 57.9958C262.924 57.9011 262.98 57.7594 263.046 57.6067C263.173 57.2889 263.306 56.9563 263.446 56.6074C264.001 55.1845 264.403 54.0148 264.344 53.9937C264.285 53.9726 263.787 55.1084 263.231 56.5313C263.098 56.8821 262.97 57.2167 262.848 57.5364C262.797 57.6857 262.709 57.8547 262.778 58.0514C262.815 58.1495 262.914 58.2208 263.001 58.2433C263.087 58.2691 263.163 58.2706 263.23 58.2744C263.767 58.3031 264.1 58.305 264.102 58.2758Z" fill="#263238"/>
<path d="M263.737 64.353C263.737 64.353 266.318 64.5143 268.876 63.0225C268.876 63.0225 267.629 65.5806 263.789 65.2322L263.737 64.353Z" fill="#EB996E"/>
<path d="M264.326 59.5104C264.516 59.2658 264.85 59.1318 265.182 59.1662C265.412 59.1902 265.644 59.2979 265.784 59.4793C265.923 59.6608 265.952 59.9188 265.826 60.0921C265.683 60.2874 265.384 60.3324 265.131 60.2625C264.878 60.1926 264.661 60.0313 264.454 59.8705C264.397 59.8259 264.339 59.7795 264.303 59.7187C264.267 59.6574 264.259 59.578 264.304 59.5272" fill="#EB996E"/>
<path d="M265.661 58.6299C265.575 58.6252 265.574 59.1829 265.082 59.5793C264.59 59.9766 263.978 59.9139 263.973 59.992C263.965 60.0269 264.11 60.1001 264.368 60.1073C264.622 60.1159 264.993 60.0365 265.294 59.7942C265.594 59.5515 265.723 59.2274 265.743 58.9986C265.765 58.7649 265.7 58.6266 265.661 58.6299Z" fill="#263238"/>
<path d="M266.003 53.025C266.055 53.1648 266.584 53.0988 267.205 53.171C267.828 53.2318 268.329 53.4079 268.411 53.283C268.448 53.2232 268.361 53.0916 268.158 52.9561C267.958 52.8212 267.637 52.6929 267.264 52.6522C266.891 52.6125 266.55 52.6699 266.323 52.7594C266.095 52.8489 265.98 52.9585 266.003 53.025Z" fill="#263238"/>
<path d="M261.014 52.8784C261.107 52.9952 261.472 52.8741 261.911 52.8683C262.349 52.8478 262.721 52.9469 262.807 52.8248C262.844 52.7654 262.785 52.6486 262.623 52.538C262.463 52.4279 262.195 52.3379 261.894 52.3465C261.592 52.3556 261.331 52.4614 261.179 52.5811C261.024 52.7013 260.973 52.8214 261.014 52.8784Z" fill="#263238"/>
<path d="M273.796 52.6343C273.526 50.3786 272.428 48.1066 270.433 46.9182C268.684 45.8758 266.897 45.6394 265.158 46.5578C263.707 46.3324 262.176 46.8374 261.087 47.7994C259.952 48.8021 259.284 50.2489 259.11 51.7283C258.936 53.2081 259.231 54.7167 259.802 56.0989C259.901 54.8412 260 53.5838 260.098 52.3261C262.093 51.5048 264.27 49.8818 265.047 47.9109C265.799 50.559 268.092 52.7826 270.862 53.4087C270.465 55.6021 271.369 57.9727 273.142 59.3865C273.621 57.1638 274.067 54.8904 273.796 52.6343Z" fill="#263238"/>
<path d="M271.252 54.8683C271.55 56.3108 271.041 57.7777 270.663 59.2031C270.287 60.6284 270.064 62.2355 270.852 63.4924C271.08 63.8551 271.397 64.2098 271.385 64.6343C271.374 65.0119 271.101 65.3312 270.986 65.6925C270.774 66.3564 271.15 67.1087 271.751 67.4868C272.353 67.8649 273.123 67.9152 273.825 67.7754C274.526 67.6357 275.177 67.3227 275.818 67.013C276.441 66.712 277.065 66.4109 277.688 66.1099C277.966 65.9759 278.247 65.839 278.474 65.6332C278.857 65.2852 279.041 64.7784 279.154 64.2811C279.594 62.3523 279.156 60.2881 278.157 58.567C277.157 56.8459 277.601 53.9862 275.882 52.9285" fill="#263238"/>
<path d="M276.732 66.4064C276.723 66.3748 277.135 66.3714 277.734 66.0239C278.027 65.8488 278.359 65.5798 278.641 65.1912C278.926 64.8068 279.158 64.2981 279.213 63.7036C279.275 63.1116 279.166 62.4468 278.879 61.8036C278.732 61.4829 278.541 61.1685 278.307 60.8731C278.068 60.5788 277.789 60.2983 277.499 60.0073C277.211 59.7163 276.912 59.411 276.655 59.0539C276.399 58.6979 276.198 58.2724 276.144 57.8115C276.027 56.8945 276.384 55.9885 276.232 55.1097C276.157 54.6747 275.908 54.2966 275.553 54.04C275.2 53.7782 274.773 53.6198 274.351 53.4767C273.495 53.224 272.646 52.8933 271.949 52.4377C270.54 51.5355 269.496 50.4591 268.667 49.5402C267.839 48.6145 267.238 47.8129 266.828 47.2567C266.626 46.9772 266.471 46.7585 266.37 46.6068C266.269 46.456 266.219 46.3746 266.226 46.3694C266.234 46.3646 266.297 46.4364 266.412 46.5776C266.543 46.7412 266.707 46.947 266.909 47.1988C267.342 47.7358 267.964 48.5188 268.804 49.4234C269.644 50.3212 270.694 51.3742 272.077 52.2443C272.77 52.6865 273.558 52.9895 274.434 53.246C274.864 53.3906 275.313 53.5528 275.709 53.8429C276.107 54.1257 276.404 54.5761 276.485 55.0652C276.644 56.0464 276.281 56.9414 276.394 57.7823C276.487 58.6294 277.11 59.2732 277.671 59.8489C277.957 60.1409 278.24 60.43 278.486 60.7396C278.729 61.0526 278.926 61.3843 279.075 61.7222C279.368 62.3999 279.471 63.1001 279.394 63.7228C279.323 64.3479 279.065 64.8815 278.757 65.2735C278.45 65.6712 278.096 65.9392 277.784 66.1077C277.469 66.2747 277.2 66.3518 277.016 66.3824C276.831 66.4126 276.732 66.4126 276.732 66.4064Z" fill="#455A64"/>
<path d="M275.548 51.7376C275.543 51.7539 275.398 51.7242 275.14 51.6567C274.88 51.5912 274.512 51.4734 274.064 51.3078C273.169 50.9786 271.966 50.4191 270.753 49.6203C269.541 48.8186 268.563 47.9389 267.918 47.2521C267.594 46.9089 267.346 46.6199 267.188 46.4102C267.028 46.202 266.946 46.0819 266.96 46.0714C266.993 46.046 267.376 46.4815 268.049 47.1301C268.72 47.779 269.703 48.6243 270.897 49.4145C272.093 50.2018 273.265 50.7775 274.134 51.1451C275.002 51.5136 275.561 51.6989 275.548 51.7376Z" fill="#455A64"/>
<path d="M262.058 45.9886C262.038 45.9642 262.234 45.7575 262.619 45.4961C263.001 45.243 263.609 44.9271 264.356 44.9122C264.726 44.906 265.082 44.9788 265.373 45.119C265.664 45.2578 265.885 45.4521 266.031 45.6392C266.327 46.0236 266.321 46.338 266.294 46.3366C266.252 46.3485 266.192 46.0671 265.892 45.7527C265.602 45.4349 265.038 45.1377 264.361 45.1621C263.687 45.174 263.109 45.4382 262.715 45.6464C262.318 45.8604 262.081 46.0183 262.058 45.9886Z" fill="#455A64"/>
<path d="M43.4765 128.719C43.4765 128.719 46.7173 128.857 45.5819 135.82C44.4471 142.783 43.2644 146.426 43.2644 146.426C43.2644 146.426 43.1726 147.987 44.4471 147.823C45.7215 147.658 48.2314 146.411 49.2464 147.67C50.2989 148.975 49.6592 150.722 47.8235 152.658C45.9873 154.594 42.1256 158.978 41.7779 159.376C41.4366 159.767 41.225 160.547 42.1118 160.57C42.9985 160.593 49.1557 159.313 49.6065 162.185C50.0573 165.057 44.0293 169.634 43.3803 170.146C42.7312 170.659 42.6563 171.02 42.8496 171.397C43.0429 171.773 45.0705 171.154 46.8371 170.86C48.6038 170.565 50.7053 170.525 50.8222 172.203C50.9391 173.881 47.9819 178.418 38.4596 182.463L33.9211 184.057L30.1624 181.085C22.5183 174.25 21.2463 169.025 21.9205 167.476C22.5947 165.926 24.5676 166.629 26.1389 167.466C27.7102 168.303 29.4197 169.529 29.7284 169.235C30.0377 168.94 30.088 168.575 29.6466 167.885C29.2051 167.195 25.0435 160.962 26.4338 158.389C27.8242 155.817 33.2159 158.973 34.0617 159.232C34.9075 159.49 34.9697 158.686 34.7778 158.209C34.5825 157.723 32.4041 152.357 31.318 149.946C30.2325 147.536 30.2142 145.682 31.648 144.781C33.0299 143.912 34.9845 145.884 36.1341 146.443C37.2838 147.002 37.7218 145.496 37.7218 145.496C37.7218 145.496 37.8273 141.678 39.0924 134.737C40.3574 127.795 43.5416 128.727 43.5416 128.727" fill="#E8505B"/>
<path d="M42.4716 134.951C42.4746 134.952 42.4702 134.995 42.4578 135.079C42.443 135.173 42.4238 135.296 42.3991 135.453C42.3419 135.791 42.26 136.271 42.156 136.884C41.938 138.137 41.6258 139.932 41.2406 142.146C40.4835 146.6 39.4409 152.737 38.2893 159.515C37.15 166.302 36.0896 172.442 35.2832 176.879C34.8734 179.089 34.5409 180.881 34.3091 182.131C34.1903 182.742 34.0971 183.22 34.0315 183.556C33.9994 183.712 33.9738 183.834 33.9545 183.926C33.9363 184.01 33.9249 184.052 33.922 184.051C33.9185 184.051 33.9235 184.007 33.9358 183.923C33.9506 183.83 33.9698 183.707 33.9945 183.55C34.0517 183.212 34.1336 182.732 34.2376 182.119C34.4556 180.866 34.7678 179.071 35.153 176.858C35.9259 172.415 36.9655 166.273 38.1048 159.486C39.2436 152.701 40.304 146.562 41.1104 142.124C41.5202 139.914 41.8527 138.123 42.0845 136.872C42.2033 136.262 42.2965 135.783 42.3621 135.447C42.3942 135.291 42.4198 135.169 42.4391 135.077C42.4573 134.993 42.4682 134.951 42.4716 134.951Z" fill="#263238"/>
<path d="M45.8093 149.546C45.8261 149.567 45.4488 149.879 44.8387 150.383C44.1921 150.92 43.3704 151.603 42.462 152.358C41.5347 153.132 40.6899 153.827 40.0615 154.312C39.7474 154.554 39.4884 154.745 39.3055 154.871C39.1215 154.996 39.0164 155.061 39.0086 155.051C38.9923 155.03 39.373 154.722 39.9772 154.213C40.6199 153.671 41.4366 152.982 42.3401 152.22C43.2679 151.446 44.1226 150.762 44.7549 150.283C45.0715 150.044 45.3304 149.854 45.5134 149.728C45.6969 149.602 45.8014 149.537 45.8093 149.546Z" fill="#263238"/>
<path d="M38.599 154.869C38.558 154.9 37.1184 153.176 35.3838 151.018C33.6482 148.86 32.2751 147.087 32.3161 147.056C32.357 147.025 33.7962 148.748 35.5318 150.906C37.2663 153.064 38.6399 154.838 38.599 154.869Z" fill="#263238"/>
<path d="M37.1706 166.936C37.1637 166.947 37.0518 166.888 36.8555 166.773C36.6587 166.659 36.38 166.485 36.0382 166.265C35.3571 165.823 34.4309 165.19 33.4484 164.44C32.4635 163.691 31.6093 162.969 31.0066 162.43C30.7047 162.161 30.466 161.938 30.3048 161.78C30.1435 161.622 30.0582 161.531 30.067 161.521C30.0853 161.502 30.471 161.82 31.0944 162.333C31.7178 162.846 32.5829 163.55 33.5638 164.297C34.5428 165.045 35.4538 165.692 36.1137 166.16C36.7756 166.626 37.1859 166.914 37.1706 166.936Z" fill="#263238"/>
<path d="M44.7826 163.511C44.7929 163.534 44.3757 163.74 43.6926 164.055C43.0095 164.369 42.0606 164.792 41.0076 165.249C39.9541 165.707 38.9968 166.111 38.2994 166.396C37.6025 166.681 37.1661 166.845 37.1557 166.822C37.1453 166.799 37.5626 166.593 38.2457 166.278C38.9288 165.964 39.8782 165.541 40.9312 165.083C41.9842 164.626 42.9415 164.222 43.6388 163.937C44.3357 163.653 44.7722 163.488 44.7826 163.511Z" fill="#263238"/>
<path d="M44.9145 174.317C44.9194 174.328 44.7872 174.397 44.5431 174.512C44.2615 174.64 43.9143 174.798 43.5029 174.984C42.6216 175.374 41.3984 175.903 40.0436 176.476C38.6878 177.049 37.4568 177.559 36.5616 177.92C36.1414 178.086 35.7858 178.225 35.4978 178.338C35.2448 178.434 35.1027 178.481 35.0973 178.469C35.0924 178.458 35.2245 178.389 35.4687 178.273C35.7503 178.146 36.0975 177.988 36.5088 177.802C37.3902 177.411 38.6133 176.882 39.9691 176.309C41.3245 175.736 42.5555 175.226 43.4507 174.866C43.8709 174.7 44.2265 174.56 44.5145 174.447C44.767 174.353 44.9096 174.305 44.9145 174.317Z" fill="#263238"/>
<path d="M35.3048 178.311C35.2974 178.321 35.1608 178.238 34.9201 178.08C34.6789 177.923 34.3366 177.686 33.9169 177.389C33.079 176.793 31.9382 175.947 30.7195 174.963C29.4988 173.981 28.4306 173.049 27.674 172.358C27.2952 172.013 26.9939 171.729 26.7897 171.528C26.5855 171.328 26.4765 171.213 26.4854 171.204C26.4942 171.195 26.62 171.292 26.8395 171.477C27.0866 171.687 27.3958 171.95 27.7633 172.263C28.5415 172.929 29.6211 173.843 30.8389 174.823C32.0551 175.805 33.1806 176.665 33.9968 177.286C34.3815 177.579 34.7051 177.826 34.9635 178.023C35.1904 178.199 35.3122 178.301 35.3048 178.311Z" fill="#263238"/>
<path d="M307.327 153.582C308.773 154.192 309.838 155.49 310.372 156.93C310.906 158.37 310.954 159.943 310.776 161.464C310.433 164.407 308.71 167.377 306.854 169.728C304.301 167.566 303.714 163.793 303.54 161.861C303.264 158.808 304.678 153.127 307.327 153.582Z" fill="#E8505B"/>
<path d="M309.823 174.582C309.414 172.919 310.127 171.095 311.442 169.957C312.758 168.82 314.596 168.339 316.352 168.469C317.164 168.529 318.042 168.759 318.507 169.408C318.942 170.015 318.894 170.862 318.54 171.516C318.188 172.171 317.577 172.661 316.932 173.054C314.72 174.401 312.324 175.311 309.823 174.582Z" fill="#E8505B"/>
<path d="M306.548 183.603C306.533 183.599 306.568 183.385 306.639 182.999C306.72 182.574 306.823 182.025 306.948 181.365C307.23 179.999 307.593 178.043 308.686 176.144C309.765 174.25 311.275 172.855 312.546 172.163C313.178 171.809 313.73 171.598 314.121 171.487C314.313 171.424 314.47 171.4 314.574 171.376C314.678 171.354 314.734 171.347 314.736 171.354C314.754 171.402 313.851 171.56 312.627 172.293C311.399 173.006 309.94 174.387 308.879 176.249C307.807 178.108 307.422 180.037 307.101 181.395C306.946 182.08 306.821 182.635 306.723 183.016C306.626 183.397 306.563 183.605 306.548 183.603Z" fill="#263238"/>
<path d="M306.645 157.994C306.652 157.994 306.663 158.085 306.676 158.258C306.688 158.454 306.703 158.706 306.722 159.017C306.759 159.675 306.799 160.629 306.837 161.808C306.916 164.166 306.978 167.424 306.962 171.024C306.945 174.625 306.855 177.883 306.755 180.24C306.706 181.419 306.657 182.372 306.615 183.03C306.593 183.342 306.576 183.592 306.562 183.789C306.547 183.962 306.536 184.052 306.528 184.052C306.521 184.052 306.517 183.96 306.517 183.787C306.52 183.59 306.524 183.339 306.529 183.027C306.546 182.341 306.57 181.394 306.599 180.235C306.659 177.878 306.725 174.621 306.742 171.023C306.757 167.426 306.721 164.169 306.682 161.812C306.663 160.653 306.648 159.706 306.637 159.02C306.635 158.708 306.633 158.456 306.632 158.26C306.633 158.086 306.637 157.994 306.645 157.994Z" fill="#263238"/>
<path d="M305.405 176.369C304.824 172.809 302.352 169.59 299.002 168.033C298.149 167.637 297.035 167.378 296.333 167.994C295.631 168.611 295.788 169.718 296.132 170.575C297.561 174.14 301.403 176.657 305.345 176.612" fill="#E8505B"/>
<path d="M299.416 170.83C299.422 170.816 299.614 170.898 299.958 171.059C300.13 171.138 300.34 171.236 300.57 171.376C300.799 171.514 301.076 171.65 301.349 171.85C301.628 172.041 301.938 172.244 302.241 172.501C302.558 172.741 302.866 173.031 303.189 173.338C303.818 173.967 304.452 174.718 304.993 175.586C305.525 176.459 305.911 177.355 306.181 178.192C306.302 178.616 306.419 179.017 306.481 179.403C306.567 179.784 306.599 180.147 306.634 180.476C306.681 180.805 306.665 181.106 306.676 181.368C306.689 181.631 306.671 181.857 306.656 182.041C306.628 182.41 306.605 182.612 306.59 182.611C306.54 182.609 306.627 181.793 306.478 180.491C306.434 180.167 306.393 179.811 306.301 179.437C306.233 179.058 306.11 178.665 305.986 178.25C305.71 177.431 305.326 176.554 304.803 175.696C304.272 174.843 303.654 174.102 303.044 173.475C302.729 173.169 302.43 172.878 302.122 172.636C301.829 172.376 301.528 172.17 301.259 171.973C300.162 171.211 299.393 170.871 299.416 170.83Z" fill="#263238"/>
<path d="M213.171 36.2971H114.809V131.749H213.171V36.2971Z" fill="#F5F5F5"/>
<path d="M213.173 131.75C213.172 130.83 213.128 93.5175 213.062 36.2983L213.173 36.4059C184.585 36.4107 150.831 36.4165 114.82 36.4227H114.811L114.939 36.2983C114.933 71.2521 114.927 104.008 114.922 131.75L114.811 131.642C173.782 131.707 212.224 131.749 213.173 131.75C212.225 131.751 173.782 131.793 114.811 131.857H114.7V131.749C114.695 104.008 114.689 71.2511 114.683 36.2978V36.1733H114.811H114.821C150.832 36.1796 184.585 36.1853 213.173 36.1901H213.284V36.2978C213.217 93.5175 213.174 130.831 213.173 131.75Z" fill="#263238"/>
<path d="M204.351 126.063C204.351 125.994 205.676 125.938 207.311 125.938C207.054 126.187 207.24 126.007 207.182 126.062V126.06V126.058V126.053V126.044V126.025V125.988V125.915L207.183 125.769C207.183 125.673 207.184 125.578 207.185 125.483C207.187 125.3 207.19 125.121 207.192 124.945C207.202 124.631 207.211 124.327 207.22 124.032C207.243 123.512 207.275 123.191 207.311 123.191C207.346 123.191 207.378 123.512 207.401 124.032C207.41 124.327 207.42 124.631 207.429 124.945C207.431 125.121 207.434 125.3 207.436 125.483C207.437 125.578 207.438 125.673 207.438 125.769L207.439 125.915V125.988V126.025V126.044V126.053V126.058V126.06V126.062C207.382 126.118 207.567 125.938 207.31 126.187C205.676 126.187 204.351 126.131 204.351 126.063Z" fill="#455A64"/>
<path d="M191.933 126.061C191.933 125.993 193.323 125.937 195.037 125.937C196.752 125.937 198.142 125.993 198.142 126.061C198.142 126.13 196.752 126.186 195.037 126.186C193.323 126.186 191.933 126.13 191.933 126.061Z" fill="#455A64"/>
<path d="M179.514 126.061C179.514 125.993 180.904 125.937 182.619 125.937C184.333 125.937 185.723 125.993 185.723 126.061C185.723 126.13 184.333 126.186 182.619 126.186C180.904 126.186 179.514 126.13 179.514 126.061Z" fill="#455A64"/>
<path d="M167.096 126.061C167.096 125.993 168.487 125.937 170.2 125.937C171.915 125.937 173.305 125.993 173.305 126.061C173.305 126.13 171.915 126.186 170.2 126.186C168.486 126.186 167.096 126.13 167.096 126.061Z" fill="#455A64"/>
<path d="M154.677 126.061C154.677 125.993 156.067 125.937 157.781 125.937C159.496 125.937 160.886 125.993 160.886 126.061C160.886 126.13 159.496 126.186 157.781 126.186C156.068 126.186 154.677 126.13 154.677 126.061Z" fill="#455A64"/>
<path d="M142.259 126.061C142.259 125.993 143.649 125.937 145.364 125.937C147.079 125.937 148.468 125.993 148.468 126.061C148.468 126.13 147.079 126.186 145.364 126.186C143.649 126.186 142.259 126.13 142.259 126.061Z" fill="#455A64"/>
<path d="M129.841 126.061C129.841 125.993 131.231 125.937 132.945 125.937C134.66 125.937 136.05 125.993 136.05 126.061C136.05 126.13 134.66 126.186 132.945 126.186C131.23 126.186 129.841 126.13 129.841 126.061Z" fill="#455A64"/>
<path d="M120.671 123.191C120.742 123.191 120.799 124.476 120.799 126.063C120.543 125.814 120.729 125.994 120.672 125.938H120.674H120.676H120.681H120.69H120.71H120.748H120.824L120.974 125.939C121.073 125.939 121.171 125.94 121.268 125.941C121.457 125.943 121.641 125.945 121.823 125.948C122.147 125.957 122.46 125.966 122.764 125.975C123.299 125.997 123.63 126.028 123.63 126.063C123.63 126.097 123.299 126.128 122.764 126.151C122.46 126.159 122.147 126.168 121.823 126.177C121.641 126.18 121.457 126.182 121.268 126.185C121.171 126.185 121.073 126.186 120.974 126.187L120.824 126.187H120.748H120.71H120.69H120.681H120.676H120.674H120.672C120.614 126.132 120.799 126.311 120.542 126.062C120.543 124.477 120.6 123.191 120.671 123.191Z" fill="#455A64"/>
<path d="M120.671 111.134C120.742 111.134 120.799 112.483 120.799 114.147C120.799 115.811 120.742 117.16 120.671 117.16C120.6 117.16 120.543 115.811 120.543 114.147C120.543 112.483 120.6 111.134 120.671 111.134Z" fill="#455A64"/>
<path d="M120.671 99.0854C120.742 99.0854 120.799 100.435 120.799 102.098C120.799 103.762 120.742 105.111 120.671 105.111C120.6 105.111 120.543 103.762 120.543 102.098C120.543 100.434 120.6 99.0854 120.671 99.0854Z" fill="#455A64"/>
<path d="M120.671 87.0366C120.742 87.0366 120.799 88.3858 120.799 90.049C120.799 91.7131 120.742 93.0618 120.671 93.0618C120.6 93.0618 120.543 91.7131 120.543 90.049C120.543 88.3858 120.6 87.0366 120.671 87.0366Z" fill="#455A64"/>
<path d="M120.671 74.9878C120.742 74.9878 120.799 76.337 120.799 78.0002C120.799 79.6643 120.742 81.013 120.671 81.013C120.6 81.013 120.543 79.6643 120.543 78.0002C120.543 76.337 120.6 74.9878 120.671 74.9878Z" fill="#455A64"/>
<path d="M120.671 62.9302C120.742 62.9302 120.799 64.2794 120.799 65.943C120.799 67.6072 120.742 68.9559 120.671 68.9559C120.6 68.9559 120.543 67.6072 120.543 65.943C120.543 64.2789 120.6 62.9302 120.671 62.9302Z" fill="#455A64"/>
<path d="M120.671 50.8809C120.742 50.8809 120.799 52.2301 120.799 53.8937C120.799 55.5578 120.742 56.9066 120.671 56.9066C120.6 56.9066 120.543 55.5578 120.543 53.8937C120.543 52.2296 120.6 50.8809 120.671 50.8809Z" fill="#455A64"/>
<path d="M123.631 41.9907C123.631 42.0596 122.307 42.1151 120.672 42.1151C120.929 41.8662 120.743 42.0466 120.8 41.9916V41.993V41.9954V42.0002V42.0093V42.028V42.0648V42.1385L120.8 42.2845C120.799 42.3807 120.798 42.4755 120.798 42.5698C120.795 42.7531 120.793 42.9321 120.79 43.1087C120.781 43.4231 120.772 43.7261 120.763 44.0214C120.74 44.5412 120.708 44.8623 120.672 44.8623C120.637 44.8623 120.605 44.5407 120.581 44.0214C120.572 43.7261 120.563 43.4227 120.554 43.1087C120.551 42.9321 120.549 42.7531 120.546 42.5698C120.546 42.4755 120.545 42.3807 120.544 42.2845L120.544 42.1385V42.0648V42.028V42.0093V42.0002V41.9954V41.993V41.9916C120.601 41.9356 120.416 42.1151 120.673 41.8662C122.307 41.8657 123.631 41.9217 123.631 41.9907Z" fill="#455A64"/>
<path d="M136.049 41.9804C136.049 42.0493 134.66 42.1048 132.945 42.1048C131.23 42.1048 129.841 42.0488 129.841 41.9804C129.841 41.9115 131.23 41.856 132.945 41.856C134.66 41.8555 136.049 41.9115 136.049 41.9804Z" fill="#455A64"/>
<path d="M148.468 41.9804C148.468 42.0493 147.078 42.1048 145.364 42.1048C143.649 42.1048 142.259 42.0488 142.259 41.9804C142.259 41.9115 143.649 41.856 145.364 41.856C147.078 41.8555 148.468 41.9115 148.468 41.9804Z" fill="#455A64"/>
<path d="M160.887 41.9804C160.887 42.0493 159.496 42.1048 157.782 42.1048C156.068 42.1048 154.678 42.0488 154.678 41.9804C154.678 41.9115 156.068 41.856 157.782 41.856C159.497 41.8555 160.887 41.9115 160.887 41.9804Z" fill="#455A64"/>
<path d="M173.305 41.9804C173.305 42.0493 171.915 42.1048 170.2 42.1048C168.485 42.1048 167.095 42.0488 167.095 41.9804C167.095 41.9115 168.485 41.856 170.2 41.856C171.915 41.8555 173.305 41.9115 173.305 41.9804Z" fill="#455A64"/>
<path d="M185.724 41.9804C185.724 42.0493 184.333 42.1048 182.619 42.1048C180.904 42.1048 179.514 42.0488 179.514 41.9804C179.514 41.9115 180.904 41.856 182.619 41.856C184.333 41.8555 185.724 41.9115 185.724 41.9804Z" fill="#455A64"/>
<path d="M198.142 41.9804C198.142 42.0493 196.752 42.1048 195.038 42.1048C193.323 42.1048 191.933 42.0488 191.933 41.9804C191.933 41.9115 193.323 41.856 195.038 41.856C196.752 41.8555 198.142 41.9115 198.142 41.9804Z" fill="#455A64"/>
<path d="M207.311 44.8606C207.24 44.8606 207.182 43.5746 207.182 41.989C207.439 42.2379 207.253 42.0579 207.31 42.1134H207.309H207.306H207.301H207.292H207.273H207.235H207.159L207.008 42.1129C206.909 42.1125 206.811 42.1115 206.714 42.111C206.525 42.1086 206.341 42.1062 206.159 42.1038C205.835 42.0948 205.523 42.0857 205.218 42.077C204.683 42.0546 204.352 42.0234 204.352 41.989C204.352 41.9545 204.683 41.9234 205.218 41.9009C205.523 41.8923 205.835 41.8832 206.159 41.8741C206.341 41.8717 206.525 41.8693 206.714 41.8669C206.811 41.8665 206.909 41.8655 207.008 41.865L207.159 41.8645H207.235H207.273H207.292H207.301H207.306H207.309H207.31C207.367 41.9201 207.182 41.7401 207.439 41.9895C207.439 43.5746 207.381 44.8606 207.311 44.8606Z" fill="#455A64"/>
<path d="M207.31 56.9061C207.239 56.9061 207.182 55.5574 207.182 53.8937C207.182 52.2296 207.24 50.8809 207.31 50.8809C207.381 50.8809 207.439 52.2296 207.439 53.8937C207.439 55.5574 207.381 56.9061 207.31 56.9061Z" fill="#455A64"/>
<path d="M207.31 68.9554C207.239 68.9554 207.182 67.6067 207.182 65.943C207.182 64.2789 207.24 62.9302 207.31 62.9302C207.381 62.9302 207.439 64.2789 207.439 65.943C207.439 67.6067 207.381 68.9554 207.31 68.9554Z" fill="#455A64"/>
<path d="M207.31 81.0135C207.239 81.0135 207.182 79.6643 207.182 78.0006C207.182 76.3365 207.24 74.9878 207.31 74.9878C207.381 74.9878 207.439 76.3365 207.439 78.0006C207.439 79.6643 207.381 81.0135 207.31 81.0135Z" fill="#455A64"/>
<path d="M207.31 93.0623C207.239 93.0623 207.182 91.7136 207.182 90.0495C207.182 88.3854 207.24 87.0366 207.31 87.0366C207.381 87.0366 207.439 88.3854 207.439 90.0495C207.439 91.7136 207.381 93.0623 207.31 93.0623Z" fill="#455A64"/>
<path d="M207.31 105.11C207.239 105.11 207.182 103.762 207.182 102.098C207.182 100.433 207.24 99.0847 207.31 99.0847C207.381 99.0847 207.439 100.433 207.439 102.098C207.439 103.762 207.381 105.11 207.31 105.11Z" fill="#455A64"/>
<path d="M207.31 117.16C207.239 117.16 207.182 115.811 207.182 114.147C207.182 112.483 207.24 111.134 207.31 111.134C207.381 111.134 207.439 112.483 207.439 114.147C207.439 115.811 207.381 117.16 207.31 117.16Z" fill="#455A64"/>
<path d="M159.768 67.8327C159.768 67.8327 159.591 67.8437 159.263 67.7704C158.939 67.7015 158.452 67.5182 157.997 67.0717C157.547 66.6438 157.112 65.9039 157.208 64.995C157.257 64.5465 157.475 64.0866 157.834 63.7123C158.195 63.3428 158.709 63.0494 159.323 63.0327L159.226 63.126C159.214 62.4756 159.25 61.7112 159.745 61.0823C159.988 60.776 160.352 60.5487 160.755 60.4496C161.159 60.3467 161.581 60.3486 162.009 60.4357L161.871 60.5559C161.781 59.702 162.079 58.7472 162.832 58.1417C163.195 57.8359 163.64 57.6196 164.11 57.4913L164.464 57.3937L164.828 57.3367C165.071 57.2903 165.318 57.274 165.567 57.2673C166.552 57.2276 167.629 57.3315 168.548 57.889C168.997 58.1767 169.371 58.5778 169.629 59.0444C169.889 59.5111 170.031 60.0342 170.084 60.5645C170.103 60.7966 170.114 61.022 170.091 61.2575L169.958 61.1197C170.934 61.0747 171.941 61.3006 172.709 61.8682C173.483 62.4258 173.992 63.2222 174.329 64.0253C174.507 64.4168 174.626 64.8768 174.582 65.3123C174.548 65.7502 174.39 66.1676 174.152 66.5203C173.674 67.233 172.875 67.6728 172.074 67.7642L172.067 67.7647H172.062C168.401 67.7987 165.334 67.8269 163.157 67.8475C162.097 67.8499 161.255 67.8518 160.655 67.8528C160.381 67.8499 160.162 67.8475 159.995 67.8456C159.845 67.8432 159.768 67.8384 159.768 67.8327C159.768 67.8269 159.846 67.8197 159.996 67.8121C160.164 67.8054 160.382 67.7968 160.657 67.7862C161.257 67.7704 162.099 67.7479 163.16 67.7197C165.335 67.6776 168.4 67.6182 172.059 67.5474L172.047 67.5484C172.785 67.4598 173.52 67.0496 173.953 66.3949C174.401 65.7459 174.483 64.8763 174.1 64.1172C173.772 63.3409 173.283 62.5861 172.559 62.0673C171.841 61.5389 170.904 61.3279 169.971 61.3695L169.824 61.3762L169.837 61.2317C169.857 61.0283 169.848 60.8038 169.829 60.5879C169.745 59.5828 169.25 58.6247 168.41 58.0972C167.564 57.5808 166.536 57.4717 165.58 57.509C164.628 57.5555 163.659 57.7479 162.987 58.3174C162.296 58.8597 162.017 59.7513 162.091 60.5252L162.106 60.6793L161.953 60.6454C161.196 60.4774 160.342 60.6473 159.906 61.2068C159.459 61.7596 159.405 62.488 159.413 63.1198L159.414 63.2117L159.316 63.2131C158.789 63.2217 158.29 63.484 157.956 63.8252C157.616 64.1718 157.408 64.5944 157.355 65.0132C157.25 65.8617 157.647 66.5801 158.071 67.0027C158.499 67.444 158.964 67.6379 159.278 67.7211C159.593 67.8078 159.77 67.8159 159.768 67.8327Z" fill="#263238"/>
<path d="M168.103 64.9472C168.051 64.9927 167.011 63.9469 165.769 62.6016L165.957 62.6054C165.942 62.6202 165.926 62.636 165.91 62.6518C164.591 63.9675 163.48 64.9951 163.429 64.9472C163.378 64.8994 164.406 63.7938 165.726 62.4781C165.741 62.4623 165.758 62.4465 165.772 62.4317L165.869 62.3359L165.96 62.4355C167.2 63.7828 168.156 64.9018 168.103 64.9472Z" fill="#263238"/>
<path d="M165.866 70.5437C165.795 70.5437 165.738 68.7475 165.738 66.533C165.738 64.317 165.796 62.5217 165.866 62.5217C165.937 62.5217 165.994 64.3175 165.994 66.533C165.995 68.748 165.937 70.5437 165.866 70.5437Z" fill="#263238"/>
<path d="M145.271 78.9511H143.011L142.544 79.9826H141.918L143.843 75.8569H144.444L146.376 79.9826H145.738L145.271 78.9511ZM145.058 78.4792L144.141 76.4576L143.224 78.4792H145.058Z" fill="#263238"/>
<path d="M149.928 75.6179V79.991H149.369V79.4961C149.108 79.8498 148.695 80.0264 148.222 80.0264C147.28 80.0264 146.594 79.3841 146.594 78.4293C146.594 77.4745 147.281 76.8379 148.222 76.8379C148.677 76.8379 149.078 77.003 149.345 77.339V75.6179H149.928ZM149.351 78.4288C149.351 77.7626 148.883 77.3328 148.27 77.3328C147.651 77.3328 147.183 77.7631 147.183 78.4288C147.183 79.0945 147.65 79.531 148.27 79.531C148.884 79.531 149.351 79.095 149.351 78.4288Z" fill="#263238"/>
<path d="M154.07 75.6179V79.991H153.511V79.4961C153.25 79.8498 152.837 80.0264 152.364 80.0264C151.422 80.0264 150.736 79.3841 150.736 78.4293C150.736 77.4745 151.423 76.8379 152.364 76.8379C152.819 76.8379 153.22 77.003 153.487 77.339V75.6179H154.07ZM153.494 78.4288C153.494 77.7626 153.026 77.3328 152.412 77.3328C151.793 77.3328 151.325 77.7631 151.325 78.4288C151.325 79.0945 151.793 79.531 152.412 79.531C153.026 79.531 153.494 79.095 153.494 78.4288Z" fill="#263238"/>
<path d="M156.705 75.899C156.705 75.6927 156.875 75.5276 157.099 75.5276C157.324 75.5276 157.494 75.687 157.494 75.8875C157.494 76.0995 157.33 76.2646 157.099 76.2646C156.875 76.2646 156.705 76.1053 156.705 75.899ZM156.808 76.8658H157.391V79.9892H156.808V76.8658Z" fill="#263238"/>
<path d="M160.311 79.7998C160.135 79.9472 159.868 80.0181 159.607 80.0181C158.957 80.0181 158.587 79.6701 158.587 79.0398V77.3249H158.04V76.8592H158.587V76.1758H159.169V76.8592H160.093V77.3249H159.169V79.0163C159.169 79.3523 159.352 79.5409 159.674 79.5409C159.844 79.5409 160.007 79.4878 160.129 79.3935L160.311 79.7998Z" fill="#263238"/>
<path d="M163.803 78.6125H161.192C161.265 79.1605 161.72 79.5261 162.358 79.5261C162.734 79.5261 163.05 79.4022 163.287 79.149L163.608 79.5147C163.317 79.8444 162.873 80.0215 162.339 80.0215C161.301 80.0215 160.608 79.3558 160.608 78.4244C160.608 77.4992 161.295 76.833 162.223 76.833C163.153 76.833 163.815 77.4815 163.815 78.4421C163.815 78.4885 163.809 78.5594 163.803 78.6125ZM161.192 78.2061H163.257C163.195 77.6816 162.789 77.3102 162.224 77.3102C161.666 77.3102 161.252 77.6754 161.192 78.2061Z" fill="#263238"/>
<path d="M169.966 78.188V79.9856H169.383V78.253C169.383 77.6399 169.08 77.3394 168.551 77.3394C167.968 77.3394 167.586 77.6988 167.586 78.3765V79.9856H167.003V78.253C167.003 77.6399 166.699 77.3394 166.171 77.3394C165.588 77.3394 165.205 77.6988 165.205 78.3765V79.9856H164.622V76.8622H165.181V77.3279C165.412 77.0096 165.807 76.833 166.292 76.833C166.784 76.833 167.197 77.0216 167.41 77.4107C167.653 77.057 168.102 76.833 168.649 76.833C169.432 76.8325 169.966 77.2685 169.966 78.188Z" fill="#263238"/>
<path d="M172.57 75.899C172.57 75.6927 172.74 75.5276 172.965 75.5276C173.19 75.5276 173.36 75.687 173.36 75.8875C173.36 76.0995 173.196 76.2646 172.965 76.2646C172.74 76.2646 172.57 76.1053 172.57 75.899ZM172.673 76.8658H173.257V79.9892H172.673V76.8658Z" fill="#263238"/>
<path d="M179.713 78.188V79.9856H179.13V78.253C179.13 77.6399 178.826 77.3394 178.298 77.3394C177.714 77.3394 177.332 77.6988 177.332 78.3765V79.9856H176.749V78.253C176.749 77.6399 176.445 77.3394 175.916 77.3394C175.333 77.3394 174.951 77.6988 174.951 78.3765V79.9856H174.368V76.8622H174.926V77.3279C175.157 77.0096 175.552 76.833 176.038 76.833C176.53 76.833 176.943 77.0216 177.155 77.4107C177.398 77.057 177.848 76.833 178.395 76.833C179.178 76.8325 179.713 77.2685 179.713 78.188Z" fill="#263238"/>
<path d="M183.336 78.0999V79.9861H182.784V79.5735C182.589 79.8564 182.231 80.0215 181.727 80.0215C180.999 80.0215 180.536 79.6444 180.536 79.1021C180.536 78.6015 180.871 78.1884 181.83 78.1884H182.753V78.0764C182.753 77.5993 182.468 77.3221 181.891 77.3221C181.508 77.3221 181.119 77.4519 180.871 77.6581L180.628 77.2336C180.962 76.9742 181.441 76.833 181.958 76.833C182.838 76.8325 183.336 77.2451 183.336 78.0999ZM182.754 79.0313V78.5948H181.855C181.278 78.5948 181.114 78.813 181.114 79.0782C181.114 79.3907 181.381 79.585 181.824 79.585C182.261 79.585 182.608 79.3907 182.754 79.0313Z" fill="#263238"/>
<path d="M187.514 76.8622V79.5616C187.514 80.6638 186.937 81.1649 185.844 81.1649C185.255 81.1649 184.66 81.0055 184.307 80.6992L184.587 80.2632C184.884 80.5107 185.352 80.67 185.825 80.67C186.584 80.67 186.931 80.3283 186.931 79.6209V79.3735C186.652 79.6975 186.232 79.8569 185.771 79.8569C184.841 79.8569 184.137 79.2438 184.137 78.3421C184.137 77.4404 184.841 76.8335 185.771 76.8335C186.251 76.8335 186.688 77.0044 186.961 77.3461V76.8627H187.514V76.8622ZM186.943 78.3416C186.943 77.7347 186.481 77.3279 185.838 77.3279C185.188 77.3279 184.727 77.7347 184.727 78.3416C184.727 78.9427 185.188 79.361 185.838 79.361C186.481 79.361 186.943 78.9427 186.943 78.3416Z" fill="#263238"/>
<path d="M191.522 78.6125H188.91C188.983 79.1605 189.439 79.5261 190.076 79.5261C190.453 79.5261 190.768 79.4022 191.005 79.149L191.327 79.5147C191.036 79.8444 190.593 80.0215 190.058 80.0215C189.02 80.0215 188.327 79.3558 188.327 78.4244C188.327 77.4992 189.013 76.833 189.942 76.833C190.872 76.833 191.534 77.4815 191.534 78.4421C191.534 78.4885 191.528 78.5594 191.522 78.6125ZM188.91 78.2061H190.975C190.914 77.6816 190.507 77.3102 189.942 77.3102C189.384 77.3102 188.971 77.6754 188.91 78.2061Z" fill="#263238"/>
<path d="M164.13 101.831H136.335C135.376 101.831 134.6 101.077 134.6 100.147C134.6 99.2167 135.377 98.4629 136.335 98.4629H164.13C165.089 98.4629 165.866 99.2172 165.866 100.147C165.866 101.078 165.089 101.831 164.13 101.831Z" fill="#E8505B"/>
<path d="M157.708 105.614V107.406H157.392V107.135C157.256 107.321 157.026 107.426 156.764 107.426C156.287 107.426 155.97 107.173 155.97 106.645V105.614H156.304V106.608C156.304 106.959 156.486 107.135 156.802 107.135C157.151 107.135 157.374 106.926 157.374 106.54V105.614H157.708Z" fill="#263238"/>
<path d="M160.261 106.511C160.261 107.062 159.867 107.427 159.327 107.427C159.066 107.427 158.836 107.33 158.682 107.137V108.063H158.348V105.616H158.668V105.899C158.818 105.7 159.055 105.599 159.327 105.599C159.867 105.598 160.261 105.963 160.261 106.511ZM159.923 106.511C159.923 106.133 159.654 105.882 159.299 105.882C158.947 105.882 158.678 106.133 158.678 106.511C158.678 106.893 158.947 107.143 159.299 107.143C159.654 107.143 159.923 106.893 159.923 106.511Z" fill="#263238"/>
<path d="M160.726 104.896H161.06V107.405H160.726V104.896Z" fill="#263238"/>
<path d="M161.528 106.512C161.528 105.977 161.936 105.599 162.49 105.599C163.044 105.599 163.448 105.977 163.448 106.512C163.448 107.046 163.044 107.428 162.49 107.428C161.936 107.428 161.528 107.046 161.528 106.512ZM163.11 106.512C163.11 106.129 162.845 105.883 162.49 105.883C162.135 105.883 161.866 106.13 161.866 106.512C161.866 106.894 162.134 107.144 162.49 107.144C162.846 107.144 163.11 106.894 163.11 106.512Z" fill="#263238"/>
<path d="M165.358 106.326V107.408H165.041V107.172C164.93 107.334 164.724 107.428 164.435 107.428C164.017 107.428 163.752 107.212 163.752 106.901C163.752 106.613 163.944 106.377 164.494 106.377H165.024V106.312C165.024 106.038 164.86 105.879 164.529 105.879C164.31 105.879 164.087 105.954 163.944 106.072L163.804 105.829C163.996 105.68 164.271 105.599 164.567 105.599C165.072 105.599 165.358 105.836 165.358 106.326ZM165.024 106.86V106.61H164.508C164.177 106.61 164.083 106.735 164.083 106.887C164.083 107.066 164.236 107.178 164.491 107.178C164.742 107.178 164.94 107.066 165.024 106.86Z" fill="#263238"/>
<path d="M167.732 104.896V107.405H167.411V107.121C167.261 107.324 167.025 107.425 166.753 107.425C166.213 107.425 165.819 107.056 165.819 106.509C165.819 105.961 166.213 105.596 166.753 105.596C167.014 105.596 167.244 105.69 167.398 105.884V104.896H167.732V104.896ZM167.401 106.509C167.401 106.127 167.133 105.88 166.781 105.88C166.425 105.88 166.157 106.127 166.157 106.509C166.157 106.891 166.425 107.141 166.781 107.141C167.133 107.141 167.401 106.891 167.401 106.509Z" fill="#263238"/>
<path d="M168.309 105.061C168.309 104.942 168.407 104.848 168.536 104.848C168.665 104.848 168.763 104.939 168.763 105.054C168.763 105.176 168.669 105.271 168.536 105.271C168.407 105.271 168.309 105.18 168.309 105.061ZM168.369 105.616H168.703V107.408H168.369V105.616Z" fill="#263238"/>
<path d="M171.093 106.377V107.408H170.759V106.414C170.759 106.063 170.578 105.89 170.26 105.89C169.905 105.89 169.675 106.096 169.675 106.485V107.408H169.341V105.616H169.661V105.887C169.797 105.704 170.034 105.599 170.326 105.599C170.776 105.599 171.093 105.85 171.093 106.377Z" fill="#263238"/>
<path d="M173.492 105.617V107.165C173.492 107.797 173.161 108.085 172.534 108.085C172.196 108.085 171.854 107.994 171.653 107.817L171.812 107.567C171.984 107.71 172.252 107.8 172.523 107.8C172.959 107.8 173.157 107.605 173.157 107.198V107.057C172.997 107.243 172.757 107.334 172.492 107.334C171.958 107.334 171.554 106.982 171.554 106.465C171.554 105.947 171.958 105.599 172.492 105.599C172.767 105.599 173.018 105.697 173.175 105.893V105.616H173.492V105.617ZM173.164 106.465C173.164 106.117 172.9 105.883 172.53 105.883C172.158 105.883 171.893 106.116 171.893 106.465C171.893 106.81 172.158 107.05 172.53 107.05C172.9 107.05 173.164 106.81 173.164 106.465Z" fill="#263238"/>
<path d="M173.975 107.193C173.975 107.058 174.083 106.963 174.212 106.963C174.337 106.963 174.442 107.058 174.442 107.193C174.442 107.328 174.337 107.426 174.212 107.426C174.082 107.426 173.975 107.329 173.975 107.193Z" fill="#263238"/>
<path d="M174.766 107.193C174.766 107.058 174.874 106.963 175.002 106.963C175.128 106.963 175.232 107.058 175.232 107.193C175.232 107.328 175.128 107.426 175.002 107.426C174.874 107.426 174.766 107.329 174.766 107.193Z" fill="#263238"/>
<path d="M175.558 107.193C175.558 107.058 175.666 106.963 175.794 106.963C175.92 106.963 176.025 107.058 176.025 107.193C176.025 107.328 175.92 107.426 175.794 107.426C175.666 107.426 175.558 107.329 175.558 107.193Z" fill="#263238"/>
<path d="M163.74 95.0738C163.74 95.6424 163.323 96.099 162.456 96.099C161.976 96.099 161.501 95.9487 161.21 95.6993L161.433 95.3279C161.661 95.5352 162.039 95.6807 162.451 95.6807C162.965 95.6807 163.256 95.4505 163.256 95.0925C163.256 94.721 163.013 94.4904 162.228 94.4904H161.457L161.637 92.7688H163.551V93.1775H162.044L161.951 94.0807H162.33C163.342 94.0807 163.74 94.4904 163.74 95.0738Z" fill="#E8505B"/>
<path d="M164.142 94.4101C164.142 93.338 164.733 92.7263 165.528 92.7263C166.318 92.7263 166.909 93.338 166.909 94.4101C166.909 95.4822 166.318 96.0938 165.528 96.0938C164.733 96.0933 164.142 95.4822 164.142 94.4101ZM166.425 94.4101C166.425 93.5682 166.056 93.1451 165.528 93.1451C164.995 93.1451 164.627 93.5687 164.627 94.4101C164.627 95.2519 164.995 95.6755 165.528 95.6755C166.056 95.675 166.425 95.2515 166.425 94.4101Z" fill="#E8505B"/>
<path d="M167.321 93.6349C167.321 93.0984 167.641 92.7366 168.111 92.7366C168.582 92.7366 168.896 93.0936 168.896 93.6349C168.896 94.1758 168.581 94.5328 168.111 94.5328C167.641 94.5323 167.321 94.171 167.321 93.6349ZM168.586 93.6349C168.586 93.2396 168.407 93.0046 168.111 93.0046C167.82 93.0046 167.636 93.2444 167.636 93.6349C167.636 94.025 167.82 94.2648 168.111 94.2648C168.407 94.2648 168.586 94.0298 168.586 93.6349ZM170.156 92.7643H170.53L168.213 96.0567H167.84L170.156 92.7643ZM169.473 95.1866C169.473 94.6505 169.788 94.2882 170.258 94.2882C170.729 94.2882 171.048 94.6505 171.048 95.1866C171.048 95.7226 170.729 96.0849 170.258 96.0849C169.788 96.0849 169.473 95.7226 169.473 95.1866ZM170.734 95.1866C170.734 94.7965 170.549 94.5567 170.258 94.5567C169.963 94.5567 169.783 94.7917 169.783 95.1866C169.783 95.5814 169.963 95.8169 170.258 95.8169C170.549 95.8169 170.734 95.5766 170.734 95.1866Z" fill="#E8505B"/>
<path d="M193.083 101.834C193.082 101.824 193.193 101.833 193.4 101.792C193.605 101.751 193.917 101.653 194.222 101.385C194.519 101.124 194.811 100.661 194.776 100.076C194.764 99.5062 194.353 98.83 193.609 98.5964C193.246 98.4753 192.824 98.5289 192.386 98.5193C191.948 98.5213 191.489 98.5227 191.009 98.5246C190.049 98.528 189.006 98.5313 187.886 98.5347C185.644 98.5399 183.092 98.5461 180.273 98.5533C168.983 98.5629 153.401 98.5758 136.19 98.5897C135.691 98.5897 135.199 98.8228 134.905 99.2128C134.6 99.5943 134.508 100.116 134.642 100.575C134.772 101.036 135.139 101.425 135.594 101.598C135.825 101.688 136.058 101.715 136.321 101.71H137.108C139.204 101.71 141.27 101.711 143.3 101.712C147.359 101.714 151.274 101.716 155.005 101.719C162.462 101.729 169.179 101.738 174.823 101.746C180.458 101.762 185.02 101.776 188.184 101.785C189.755 101.795 190.977 101.804 191.816 101.809C192.225 101.814 192.539 101.818 192.761 101.821C192.974 101.826 193.083 101.834 193.083 101.834C193.083 101.834 192.974 101.843 192.761 101.847C192.539 101.85 192.226 101.854 191.817 101.86C190.977 101.865 189.755 101.873 188.184 101.883C185.021 101.893 180.458 101.906 174.823 101.923C169.18 101.93 162.463 101.939 155.005 101.95C151.275 101.952 147.359 101.954 143.3 101.957C141.271 101.957 139.205 101.958 137.109 101.959H136.321C136.059 101.965 135.759 101.934 135.499 101.83C134.971 101.629 134.548 101.179 134.395 100.644C134.238 100.112 134.346 99.5067 134.699 99.0635C135.039 98.6122 135.612 98.3399 136.19 98.3408C153.4 98.3552 168.983 98.3681 180.272 98.3772C183.092 98.3839 185.643 98.3901 187.885 98.3959C189.005 98.3997 190.048 98.403 191.008 98.4059C191.488 98.4078 191.947 98.4097 192.385 98.4112C192.817 98.4251 193.247 98.3719 193.64 98.504C194.426 98.7596 194.847 99.477 194.852 100.073C194.879 100.684 194.567 101.16 194.255 101.422C193.935 101.693 193.613 101.784 193.404 101.817C193.193 101.851 193.083 101.834 193.083 101.834Z" fill="#263238"/>
</svg>
