<svg width="69" height="97" viewBox="0 0 69 97" fill="none" xmlns="http://www.w3.org/2000/svg">
<path d="M45.4024 34.3259C45.4024 28.3052 40.5175 23.426 34.4997 23.426C28.4777 23.426 23.5969 28.3052 23.5969 34.3259C23.5969 38.4143 25.8494 41.97 29.1784 43.8372L29.4048 36.6041C29.4048 33.6448 31.8056 31.244 34.7678 31.244H35.0721C37.405 31.244 39.296 33.1346 39.296 35.4677V44.1052C42.9055 42.3318 45.4024 38.6222 45.4024 34.3259Z" fill="#AAD4C8"/>
<path d="M39.2957 35.4674C39.2957 33.1341 37.4047 31.2437 35.0718 31.2437H34.7675C31.8053 31.2437 29.4045 33.6444 29.4045 36.6038L29.178 43.8369L28.6758 59.7726C28.5618 60.2641 28.4966 71.344 28.4966 71.344C27.56 70.389 26.5173 69.2966 25.5807 68.2513C23.3937 65.8118 19.3753 64.1679 16.7044 63.8636C15.2974 63.7023 14.2231 63.8949 13.508 64.433C13.2792 64.6077 13.0554 64.8027 12.8448 65.0132C11.4664 66.3707 10.4261 68.5634 11.3885 70.1706C11.8044 70.8725 12.5193 71.3384 13.2791 71.8274C14.2857 72.48 15.9812 73.1873 17.2557 74.8129C19.3901 77.5437 24.3328 83.6483 27.3703 86.9068C28.0023 87.2998 29.3393 88.6341 29.9713 88.9721C31.8882 90.1972 33.4542 91.3492 33.9971 91.9734C34.4215 92.4595 36.931 93.7445 36.931 93.7445C38.96 95.0295 42.6529 96.2307 46.9184 96.2307C51.1757 96.2307 55.0437 96.4858 57.9021 93.9712H58.0551L58.1306 93.7811C61.0385 91.1178 62.8462 87.4269 62.8462 83.3464C62.8462 82.3373 62.8462 78.6158 62.8462 77.9159V63.8372C62.8462 62.8806 62.6357 59.6758 59.9407 58.7134C58.6457 58.2532 57.4211 58.4275 56.3776 58.8776L56.1336 58.8881L56.0583 58.893C55.5897 57.1324 54.4193 55.9958 52.6874 55.6942C50.5962 55.3323 49.1471 55.9567 48.276 56.5891C47.4103 54.7268 45.6726 53.7564 43.3215 53.9541C41.5585 54.1029 40.2472 54.9685 39.2957 56.1103V44.1051V35.4674Z" fill="#616E7D"/>
<path d="M58.8275 52.4283L60.9916 54.8366C61.4079 55.3046 62.1619 55.2762 62.5287 54.7691C66.7004 48.9797 69 42.0121 69 34.6824C69 15.657 53.5225 0.181885 34.4995 0.181885C33.1941 0.181885 31.8703 0.254885 30.5615 0.400751C14.686 2.16932 1.91879 14.9839 0.204898 30.872C-0.729111 39.5173 1.55956 47.9521 6.46749 54.7689C6.83139 55.2787 7.58565 55.3045 8.00769 54.8389L10.1687 52.4331C10.4758 52.0925 10.4987 51.5878 10.2386 51.2106C6.77464 46.1493 4.95649 40.1049 5.13816 33.8191C5.57797 18.5625 17.8591 6.05495 33.0973 5.34477C49.9461 4.5153 63.8711 18.0215 63.8711 34.6823C63.8711 40.6438 62.053 46.3762 58.7523 51.2056C58.4949 51.5855 58.5182 52.0878 58.8275 52.4283Z" fill="#616E7D"/>
<path d="M49.1292 41.635L51.4204 44.1838C51.8884 44.709 52.7395 44.5893 53.0538 43.9628C54.5002 41.1045 55.262 37.9596 55.262 34.6827C55.262 24.9091 48.323 16.3651 38.7566 14.3624C35.9666 13.7718 33.0348 13.7718 30.2365 14.3624C20.6757 16.3651 13.7368 24.9091 13.7368 34.6827C13.7368 37.9625 14.4987 41.1043 15.9426 43.9628C16.2627 44.5893 17.108 44.709 17.5785 44.1838L19.8672 41.635C20.1248 41.3487 20.1844 40.943 20.0389 40.5897C19.2691 38.7195 18.8635 36.7143 18.8635 34.6828C18.8635 28.1469 22.9957 22.2434 29.1431 19.9935C32.5772 18.7398 36.421 18.7398 39.8521 19.9935C46.0003 22.2434 50.1304 28.1469 50.1304 34.6828C50.1304 36.7143 49.7249 38.7195 48.9601 40.5897C48.8145 40.9457 48.8734 41.3512 49.1292 41.635Z" fill="#82BFAB"/>
</svg>
