<svg width="42" height="51" viewBox="0 0 42 51" fill="none" xmlns="http://www.w3.org/2000/svg">
<path d="M28.3439 8.51319C30.0685 6.35597 31.2387 3.45974 30.9302 0.5C28.4057 0.625599 25.325 2.16569 23.5415 4.32434C21.9399 6.17314 20.5226 9.19068 20.8923 12.0262C23.7258 12.272 26.5573 10.6098 28.3439 8.51319Z" fill="black"/>
<path d="M30.8987 12.5789C26.7832 12.3337 23.2839 14.9147 21.3185 14.9147C19.3521 14.9147 16.3424 12.7025 13.0872 12.762C8.85036 12.8244 4.9191 15.2199 2.76909 19.03C-1.65311 26.6521 1.6021 37.9583 5.90242 44.1659C7.99064 47.2369 10.5077 50.6187 13.8239 50.4971C16.9572 50.3741 18.1854 48.468 21.9939 48.468C25.7999 48.468 26.9062 50.4971 30.2229 50.4356C33.6627 50.3741 35.813 47.3628 37.9012 44.2886C40.297 40.7876 41.2777 37.4073 41.3392 37.2216C41.2774 37.1601 34.7066 34.6392 34.6457 27.0807C34.5836 20.7518 39.8046 17.7411 40.0503 17.5545C37.1024 13.1943 32.4957 12.7025 30.8987 12.5789Z" fill="black"/>
</svg>
