<svg width="18" height="19" viewBox="0 0 18 19" fill="none" xmlns="http://www.w3.org/2000/svg">
<path d="M1.5 9.11865C1.5 5.58312 1.5 3.81535 2.59835 2.717C3.6967 1.61865 5.46447 1.61865 9 1.61865C12.5355 1.61865 14.3033 1.61865 15.4017 2.717C16.5 3.81535 16.5 5.58312 16.5 9.11865C16.5 12.6542 16.5 14.422 15.4017 15.5203C14.3033 16.6187 12.5355 16.6187 9 16.6187C5.46447 16.6187 3.6967 16.6187 2.59835 15.5203C1.5 14.422 1.5 12.6542 1.5 9.11865Z" stroke="#1C274C"/>
<path opacity="0.5" d="M1.5 9.86865H3.8702C4.54907 9.86865 4.88851 9.86865 5.18688 10.0059C5.48525 10.1431 5.70616 10.4008 6.14796 10.9163L6.60204 11.446C7.04384 11.9615 7.26475 12.2192 7.56312 12.3564C7.86149 12.4937 8.20093 12.4937 8.8798 12.4937H9.1202C9.79907 12.4937 10.1385 12.4937 10.4369 12.3564C10.7353 12.2192 10.9562 11.9615 11.398 11.446L11.852 10.9163C12.2938 10.4008 12.5147 10.1431 12.8131 10.0059C13.1115 9.86865 13.4509 9.86865 14.1298 9.86865H16.5" stroke="#1C274C" stroke-linecap="round"/>
<path opacity="0.5" d="M6 5.36865H12" stroke="#1C274C" stroke-linecap="round"/>
<path opacity="0.5" d="M7.5 7.99365H10.5" stroke="#1C274C" stroke-linecap="round"/>
</svg>
