<svg width="129" height="19" viewBox="0 0 129 19" fill="none" xmlns="http://www.w3.org/2000/svg">
<circle cx="1" cy="9.11865" r="1" fill="black" fill-opacity="0.4"/>
<path d="M6.5 9.11865C6.5 5.58312 6.5 3.81535 7.59835 2.717C8.6967 1.61865 10.4645 1.61865 14 1.61865C17.5355 1.61865 19.3033 1.61865 20.4017 2.717C21.5 3.81535 21.5 5.58312 21.5 9.11865C21.5 12.6542 21.5 14.422 20.4017 15.5203C19.3033 16.6187 17.5355 16.6187 14 16.6187C10.4645 16.6187 8.6967 16.6187 7.59835 15.5203C6.5 14.422 6.5 12.6542 6.5 9.11865Z" stroke="#1C274C"/>
<path opacity="0.5" d="M6.5 9.86865H8.8702C9.54907 9.86865 9.88851 9.86865 10.1869 10.0059C10.4853 10.1431 10.7062 10.4008 11.148 10.9163L11.602 11.446C12.0438 11.9615 12.2647 12.2192 12.5631 12.3564C12.8615 12.4937 13.2009 12.4937 13.8798 12.4937H14.1202C14.7991 12.4937 15.1385 12.4937 15.4369 12.3564C15.7353 12.2192 15.9562 11.9615 16.398 11.446L16.852 10.9163C17.2938 10.4008 17.5147 10.1431 17.8131 10.0059C18.1115 9.86865 18.4509 9.86865 19.1298 9.86865H21.5" stroke="#1C274C" stroke-linecap="round"/>
<path opacity="0.5" d="M11 5.36865H17" stroke="#1C274C" stroke-linecap="round"/>
<path opacity="0.5" d="M12.5 7.99365H15.5" stroke="#1C274C" stroke-linecap="round"/>
<circle cx="27" cy="9.11865" r="1" fill="black" fill-opacity="0.4"/>
<path d="M36.712 13.1507C35.8907 13.1507 35.1867 13.1507 34.6 13.1507C34.0133 13.1507 33.5173 13.1453 33.112 13.1347C32.7173 13.1347 32.392 13.1293 32.136 13.1187V6.49465C32.136 6.18532 32.2 5.98799 32.328 5.90265C32.4667 5.81732 32.6533 5.76932 32.888 5.75865C33.208 5.75865 33.4907 5.75865 33.736 5.75865C33.992 5.74799 34.2213 5.74265 34.424 5.74265C34.6373 5.73199 34.84 5.72665 35.032 5.72665C35.2347 5.72665 35.448 5.72665 35.672 5.72665C35.928 5.72665 36.2 5.73199 36.488 5.74265C36.776 5.74265 37.048 5.74799 37.304 5.75865C37.56 5.75865 37.7573 5.76399 37.896 5.77465C38.4933 5.81732 38.9307 5.98265 39.208 6.27065C39.4853 6.55865 39.624 6.98532 39.624 7.55065C39.624 7.96665 39.5547 8.30265 39.416 8.55865C39.288 8.80399 39.1173 8.97999 38.904 9.08665C38.7013 9.18265 38.4987 9.24132 38.296 9.26265C38.52 9.26265 38.728 9.28399 38.92 9.32665C39.112 9.36932 39.2827 9.45465 39.432 9.58265C39.5813 9.69999 39.6987 9.88132 39.784 10.1267C39.8693 10.3613 39.912 10.676 39.912 11.0707C39.912 11.5507 39.832 11.9347 39.672 12.2227C39.512 12.5 39.288 12.708 39 12.8467C38.7227 12.9747 38.3867 13.06 37.992 13.1027C37.5973 13.1347 37.1707 13.1507 36.712 13.1507ZM36.232 12.3187C36.4987 12.3187 36.7493 12.3133 36.984 12.3027C37.2293 12.2813 37.448 12.2333 37.64 12.1587C37.832 12.084 37.9813 11.956 38.088 11.7747C38.2053 11.5827 38.264 11.3213 38.264 10.9907C38.264 10.5213 38.1573 10.196 37.944 10.0147C37.7413 9.83332 37.336 9.74265 36.728 9.74265H34.312C34.1627 9.74265 34.0613 9.67865 34.008 9.55065C33.9653 9.41199 33.944 9.20932 33.944 8.94265H36.68C36.904 8.94265 37.112 8.91599 37.304 8.86265C37.5067 8.79865 37.6667 8.67599 37.784 8.49465C37.912 8.30265 37.976 8.01999 37.976 7.64665C37.976 7.29465 37.896 7.02265 37.736 6.83065C37.5867 6.63865 37.336 6.52665 36.984 6.49465C36.8027 6.48399 36.5947 6.47865 36.36 6.47865C36.1253 6.46799 35.896 6.46265 35.672 6.46265C35.384 6.46265 35.112 6.46265 34.856 6.46265C34.6 6.46265 34.3813 6.46799 34.2 6.47865C34.0827 6.47865 33.9813 6.51599 33.896 6.59065C33.8213 6.65465 33.784 6.76665 33.784 6.92665V12.3027C33.88 12.3027 33.9867 12.308 34.104 12.3187C34.2213 12.3187 34.36 12.3187 34.52 12.3187C34.6907 12.3187 34.9093 12.3187 35.176 12.3187C35.4533 12.3187 35.8053 12.3187 36.232 12.3187ZM44.542 13.2147C43.8807 13.2147 43.342 13.1827 42.926 13.1187C42.51 13.0653 42.19 12.964 41.966 12.8147C41.742 12.6653 41.5873 12.4627 41.502 12.2067C41.4273 11.9507 41.39 11.6307 41.39 11.2467C41.39 10.7027 41.4487 10.292 41.566 10.0147C41.694 9.72665 41.9073 9.52932 42.206 9.42265C42.5153 9.31599 42.926 9.26265 43.438 9.26265C43.7047 9.26265 43.998 9.26799 44.318 9.27865C44.6487 9.28932 44.9633 9.30532 45.262 9.32665C45.5713 9.33732 45.838 9.35332 46.062 9.37465C46.2967 9.39599 46.4513 9.42265 46.526 9.45465C46.526 9.00665 46.4887 8.65465 46.414 8.39865C46.3393 8.14265 46.2167 7.95065 46.046 7.82265C45.886 7.69465 45.6833 7.60932 45.438 7.56665C45.1927 7.52399 44.9047 7.50265 44.574 7.50265C44.2113 7.50265 43.8487 7.51332 43.486 7.53465C43.134 7.55599 42.798 7.59332 42.478 7.64665C42.1687 7.69999 41.9127 7.76932 41.71 7.85465V7.55065C41.71 7.30532 41.774 7.12932 41.902 7.02265C42.0407 6.91599 42.206 6.84665 42.398 6.81465C42.6113 6.76132 42.926 6.71865 43.342 6.68665C43.758 6.65465 44.2007 6.64399 44.67 6.65465C45.2673 6.65465 45.774 6.68665 46.19 6.75065C46.6167 6.80399 46.958 6.92132 47.214 7.10265C47.4807 7.28399 47.6727 7.55599 47.79 7.91865C47.918 8.28132 47.982 8.76665 47.982 9.37465V12.6387C47.886 12.8413 47.5607 12.9907 47.006 13.0867C46.4513 13.172 45.63 13.2147 44.542 13.2147ZM44.542 12.5427C44.9687 12.5427 45.3153 12.532 45.582 12.5107C45.8593 12.4787 46.0727 12.4413 46.222 12.3987C46.3713 12.3453 46.4727 12.2813 46.526 12.2067V9.99865C46.43 9.96665 46.2593 9.93999 46.014 9.91865C45.7687 9.88665 45.5127 9.85999 45.246 9.83865C44.9793 9.81732 44.7553 9.80665 44.574 9.80665C44.1793 9.80665 43.8593 9.83332 43.614 9.88665C43.3687 9.93999 43.1927 10.0627 43.086 10.2547C42.9793 10.4467 42.926 10.7453 42.926 11.1507C42.926 11.4813 42.9633 11.748 43.038 11.9507C43.1127 12.1533 43.262 12.3027 43.486 12.3987C43.7207 12.4947 44.0727 12.5427 44.542 12.5427ZM52.9904 13.2147C52.1264 13.2147 51.4277 13.1293 50.8944 12.9587C50.361 12.788 49.977 12.4733 49.7424 12.0147C49.5077 11.556 49.3904 10.884 49.3904 9.99865C49.3904 9.08132 49.5077 8.38265 49.7424 7.90265C49.977 7.41199 50.361 7.08132 50.8944 6.91065C51.4277 6.72932 52.1264 6.63865 52.9904 6.63865C53.2677 6.63865 53.529 6.64932 53.7744 6.67065C54.0304 6.69199 54.3237 6.72932 54.6544 6.78265C54.8357 6.80399 54.9797 6.84665 55.0864 6.91065C55.2037 6.97465 55.289 7.07065 55.3424 7.19865C55.3957 7.31599 55.4224 7.49199 55.4224 7.72665C55.2944 7.67332 55.1077 7.62532 54.8624 7.58265C54.617 7.53999 54.3557 7.50799 54.0784 7.48665C53.801 7.46532 53.5557 7.45465 53.3424 7.45465C52.7344 7.45465 52.249 7.53465 51.8864 7.69465C51.5344 7.84399 51.2837 8.09465 51.1344 8.44665C50.9957 8.79865 50.9264 9.28399 50.9264 9.90265C50.9264 10.5213 50.9957 11.012 51.1344 11.3747C51.2837 11.7373 51.5344 11.9933 51.8864 12.1427C52.2384 12.292 52.7237 12.3667 53.3424 12.3667C53.6304 12.3667 53.9077 12.356 54.1744 12.3347C54.441 12.3027 54.681 12.2653 54.8944 12.2227C55.1184 12.1693 55.2944 12.1213 55.4224 12.0787V12.5107C55.4224 12.7027 55.3157 12.852 55.1024 12.9587C54.889 13.0547 54.601 13.1187 54.2384 13.1507C53.8864 13.1933 53.4704 13.2147 52.9904 13.2147ZM56.771 13.1187L56.755 5.59865C56.755 5.37465 56.787 5.22532 56.851 5.15065C56.9257 5.06532 57.0803 5.02265 57.315 5.02265H58.275V9.91865L60.995 7.07065C61.1337 6.94265 61.2723 6.85199 61.411 6.79865C61.5603 6.73465 61.7683 6.70265 62.035 6.70265C62.2377 6.70265 62.4243 6.70799 62.595 6.71865C62.7657 6.71865 62.9203 6.72399 63.059 6.73465C63.027 6.76665 62.9577 6.81999 62.851 6.89465C62.755 6.96932 62.6483 7.05465 62.531 7.15065C62.4137 7.23599 62.307 7.32132 62.211 7.40665L60.147 9.37465L62.931 12.4627C63.0483 12.5907 63.1657 12.708 63.283 12.8147C63.4003 12.9213 63.5123 13.0227 63.619 13.1187C63.3523 13.1293 63.0803 13.1347 62.803 13.1347C62.5363 13.1347 62.2963 13.1347 62.083 13.1347C61.8377 13.1347 61.651 13.108 61.523 13.0547C61.4057 12.9907 61.2777 12.8893 61.139 12.7507L59.107 10.4627L58.275 11.1667V13.1187H56.771ZM66.8846 14.9747C66.5753 14.9747 66.266 14.964 65.9566 14.9427C65.6473 14.9213 65.3593 14.884 65.0926 14.8307C64.8366 14.7773 64.6233 14.6973 64.4526 14.5907C64.2926 14.4947 64.2126 14.3667 64.2126 14.2067C64.2126 14.164 64.2126 14.1053 64.2126 14.0307C64.2126 13.956 64.2126 13.9027 64.2126 13.8707C64.3513 13.9453 64.5593 14.0093 64.8366 14.0627C65.1246 14.1267 65.4286 14.1747 65.7486 14.2067C66.0793 14.2493 66.3673 14.2707 66.6126 14.2707C67.2313 14.2707 67.706 14.18 68.0366 13.9987C68.3673 13.8173 68.5913 13.524 68.7086 13.1187C68.826 12.724 68.8633 12.196 68.8206 11.5347H69.0766C68.97 11.8867 68.794 12.1587 68.5486 12.3507C68.314 12.5427 68.026 12.676 67.6846 12.7507C67.3433 12.8253 66.9593 12.8627 66.5326 12.8627C65.9033 12.8627 65.3806 12.788 64.9646 12.6387C64.5593 12.4787 64.2606 12.1853 64.0686 11.7587C63.8873 11.332 63.7966 10.7133 63.7966 9.90265C63.7966 9.21999 63.8553 8.67065 63.9726 8.25465C64.1006 7.82799 64.3033 7.50265 64.5806 7.27865C64.8686 7.04399 65.2366 6.88932 65.6846 6.81465C66.1433 6.72932 66.7086 6.68665 67.3806 6.68665C67.6046 6.68665 67.8713 6.69732 68.1806 6.71865C68.49 6.73999 68.794 6.76132 69.0926 6.78265C69.402 6.80399 69.6686 6.82532 69.8926 6.84665C70.1273 6.86799 70.2873 6.88399 70.3726 6.89465C70.362 6.92665 70.3513 7.01199 70.3406 7.15065C70.3406 7.28932 70.3406 7.44932 70.3406 7.63065C70.3406 7.80132 70.3406 7.97199 70.3406 8.14265L70.3246 11.9347C70.3246 12.7133 70.2073 13.3213 69.9726 13.7587C69.738 14.2067 69.3646 14.5213 68.8526 14.7027C68.3513 14.884 67.6953 14.9747 66.8846 14.9747ZM66.9486 11.9987C67.3006 11.9987 67.6153 11.956 67.8926 11.8707C68.17 11.7853 68.394 11.6413 68.5646 11.4387C68.746 11.236 68.8366 10.9587 68.8366 10.6067V7.66265C68.7406 7.64132 68.538 7.61465 68.2286 7.58265C67.9193 7.55065 67.562 7.53465 67.1566 7.53465C66.698 7.53465 66.3353 7.59332 66.0686 7.71065C65.802 7.82799 65.61 8.04665 65.4926 8.36665C65.3753 8.68665 65.3166 9.15065 65.3166 9.75865C65.3166 10.356 65.37 10.82 65.4766 11.1507C65.594 11.4707 65.77 11.6947 66.0046 11.8227C66.2393 11.94 66.554 11.9987 66.9486 11.9987ZM73.5563 13.1187H72.5323C72.3723 13.1187 72.2496 13.076 72.1643 12.9907C72.0789 12.9053 72.0363 12.7453 72.0363 12.5107V7.05465C72.2923 6.97999 72.6496 6.89999 73.1083 6.81465C73.5669 6.72932 74.1163 6.68665 74.7563 6.68665C75.3856 6.68665 75.8816 6.72932 76.2443 6.81465C76.6069 6.88932 76.8736 7.00665 77.0443 7.16665C77.2256 7.31599 77.3376 7.50265 77.3803 7.72665C77.4336 7.93999 77.4603 8.19065 77.4603 8.47865H76.0203L76.0043 8.25465C76.0043 7.99865 75.9349 7.81732 75.7963 7.71065C75.6683 7.59332 75.5136 7.51865 75.3323 7.48665C75.1509 7.45465 74.9696 7.43865 74.7883 7.43865C74.5109 7.43865 74.2603 7.46532 74.0363 7.51865C73.8229 7.57199 73.6629 7.64132 73.5563 7.72665V13.1187ZM81.766 13.2147C81.2327 13.2147 80.758 13.1773 80.342 13.1027C79.9367 13.0173 79.5847 12.8627 79.286 12.6387C78.998 12.4147 78.7793 12.084 78.63 11.6467C78.4807 11.2093 78.406 10.6387 78.406 9.93465C78.406 9.23065 78.4807 8.65999 78.63 8.22265C78.7793 7.78532 78.998 7.45465 79.286 7.23065C79.5847 7.00665 79.9367 6.85732 80.342 6.78265C80.758 6.69732 81.2327 6.65465 81.766 6.65465C82.278 6.65465 82.7367 6.69732 83.142 6.78265C83.558 6.85732 83.91 7.00665 84.198 7.23065C84.486 7.45465 84.7047 7.78532 84.854 8.22265C85.014 8.65999 85.094 9.23065 85.094 9.93465C85.094 10.6493 85.014 11.2253 84.854 11.6627C84.7047 12.1 84.486 12.4307 84.198 12.6547C83.91 12.868 83.558 13.0173 83.142 13.1027C82.7367 13.1773 82.278 13.2147 81.766 13.2147ZM81.766 12.4147C82.15 12.4147 82.4753 12.356 82.742 12.2387C83.0193 12.1213 83.2273 11.8867 83.366 11.5347C83.5047 11.1827 83.574 10.6493 83.574 9.93465C83.574 9.21999 83.5047 8.68665 83.366 8.33465C83.2273 7.98265 83.0193 7.74799 82.742 7.63065C82.4753 7.51332 82.15 7.45465 81.766 7.45465C81.382 7.45465 81.0513 7.51332 80.774 7.63065C80.4967 7.74799 80.2833 7.98265 80.134 8.33465C79.9953 8.68665 79.926 9.21999 79.926 9.93465C79.926 10.6493 79.9953 11.1827 80.134 11.5347C80.2833 11.8867 80.4967 12.1213 80.774 12.2387C81.0513 12.356 81.382 12.4147 81.766 12.4147ZM87.9904 6.73465V11.0067C87.9904 11.4973 88.1237 11.844 88.3904 12.0467C88.657 12.2493 89.073 12.3507 89.6384 12.3507C90.2464 12.3507 90.6784 12.244 90.9344 12.0307C91.201 11.8173 91.3344 11.476 91.3344 11.0067V6.73465C91.345 6.73465 91.3877 6.73465 91.4624 6.73465C91.5477 6.73465 91.6384 6.73465 91.7344 6.73465C91.8304 6.73465 91.921 6.73465 92.0064 6.73465C92.0917 6.73465 92.145 6.73465 92.1664 6.73465C92.337 6.73465 92.4704 6.74532 92.5664 6.76665C92.6624 6.77732 92.7264 6.82532 92.7584 6.91065C92.801 6.98532 92.8224 7.11332 92.8224 7.29465V10.7827C92.8224 11.348 92.737 11.812 92.5664 12.1747C92.3957 12.5267 92.0757 12.788 91.6064 12.9587C91.1477 13.1187 90.4864 13.1987 89.6224 13.1987C88.8117 13.1987 88.177 13.1293 87.7184 12.9907C87.2704 12.852 86.9504 12.6173 86.7584 12.2867C86.577 11.9453 86.4864 11.4813 86.4864 10.8947V7.29465C86.4864 7.07065 86.5237 6.92132 86.5984 6.84665C86.673 6.77199 86.8224 6.73465 87.0464 6.73465C87.2064 6.73465 87.361 6.73465 87.5104 6.73465C87.6704 6.73465 87.8304 6.73465 87.9904 6.73465ZM94.9061 13.1187C94.6075 13.1187 94.4581 12.9693 94.4581 12.6707V7.16665C94.7781 7.03865 95.2101 6.92665 95.7541 6.83065C96.2981 6.72399 96.9168 6.67065 97.6101 6.67065C98.2928 6.67065 98.8368 6.71332 99.2421 6.79865C99.6581 6.88399 99.9728 7.02265 100.186 7.21465C100.399 7.39599 100.538 7.63599 100.602 7.93465C100.677 8.23332 100.714 8.60132 100.714 9.03865V12.5107C100.714 12.66 100.698 12.7827 100.666 12.8787C100.645 12.9747 100.586 13.0387 100.49 13.0707C100.405 13.1027 100.271 13.1187 100.09 13.1187H99.2101V8.71865C99.2101 8.30265 99.0821 8.00399 98.8261 7.82265C98.5701 7.64132 98.1648 7.55065 97.6101 7.55065C97.4395 7.55065 97.2475 7.56665 97.0341 7.59865C96.8208 7.61999 96.6181 7.65732 96.4261 7.71065C96.2341 7.76399 96.0795 7.83332 95.9621 7.91865V13.1187H94.9061ZM102.156 9.90265C102.156 9.03865 102.273 8.37732 102.508 7.91865C102.743 7.44932 103.084 7.12932 103.532 6.95865C103.98 6.77732 104.519 6.68665 105.148 6.68665C105.34 6.68665 105.559 6.69732 105.804 6.71865C106.06 6.72932 106.311 6.75065 106.556 6.78265C106.801 6.81465 107.02 6.85199 107.212 6.89465C107.404 6.92665 107.537 6.96399 107.612 7.00665L107.212 7.19865V5.03865H108.684L108.668 9.90265C108.668 10.628 108.615 11.2093 108.508 11.6467C108.401 12.0733 108.225 12.3933 107.98 12.6067C107.735 12.82 107.393 12.964 106.956 13.0387C106.519 13.1133 105.975 13.1507 105.324 13.1507C104.716 13.1507 104.204 13.1133 103.788 13.0387C103.383 12.9533 103.057 12.7987 102.812 12.5747C102.577 12.3507 102.407 12.0253 102.3 11.5987C102.204 11.172 102.156 10.6067 102.156 9.90265ZM105.292 12.3347C105.708 12.3347 106.044 12.308 106.3 12.2547C106.556 12.1907 106.748 12.0787 106.876 11.9187C107.015 11.7587 107.105 11.5347 107.148 11.2467C107.191 10.948 107.212 10.564 107.212 10.0947L107.196 7.64665C107.089 7.63599 106.945 7.62532 106.764 7.61465C106.583 7.60399 106.391 7.59865 106.188 7.59865C105.985 7.58799 105.799 7.58265 105.628 7.58265C105.148 7.58265 104.764 7.64665 104.476 7.77465C104.188 7.89199 103.98 8.12132 103.852 8.46265C103.724 8.80399 103.66 9.29465 103.66 9.93465C103.66 10.6173 103.708 11.1293 103.804 11.4707C103.911 11.812 104.081 12.0413 104.316 12.1587C104.561 12.276 104.887 12.3347 105.292 12.3347ZM112.735 13.1827C112.532 13.1827 112.292 13.1773 112.015 13.1667C111.737 13.156 111.455 13.1347 111.167 13.1027C110.889 13.06 110.639 13.0013 110.415 12.9267C110.276 12.8947 110.164 12.852 110.079 12.7987C110.004 12.7453 109.945 12.6547 109.903 12.5267C109.871 12.388 109.855 12.18 109.855 11.9027C110.121 12.02 110.42 12.116 110.751 12.1907C111.081 12.2547 111.407 12.2973 111.727 12.3187C112.057 12.34 112.34 12.3507 112.575 12.3507C112.863 12.3507 113.145 12.34 113.423 12.3187C113.711 12.2973 113.972 12.2493 114.207 12.1747C114.452 12.1 114.644 11.9827 114.783 11.8227C114.932 11.6627 115.007 11.444 115.007 11.1667C115.007 10.7933 114.911 10.5533 114.719 10.4467C114.527 10.34 114.26 10.2867 113.919 10.2867H112.239C111.823 10.2867 111.433 10.26 111.071 10.2067C110.719 10.1533 110.431 10.0147 110.207 9.79065C109.993 9.56665 109.887 9.18799 109.887 8.65465C109.887 8.06799 110.031 7.63065 110.319 7.34265C110.607 7.05465 111.012 6.86799 111.535 6.78265C112.068 6.69732 112.692 6.65465 113.407 6.65465C113.673 6.65465 113.983 6.65999 114.335 6.67065C114.697 6.68132 115.033 6.71332 115.343 6.76665C115.599 6.78799 115.801 6.83065 115.951 6.89465C116.111 6.94799 116.228 7.02799 116.303 7.13465C116.377 7.23065 116.415 7.37999 116.415 7.58265V7.95065C116.319 7.83332 116.153 7.74799 115.919 7.69465C115.684 7.63065 115.407 7.58265 115.087 7.55065C114.777 7.51865 114.452 7.50265 114.111 7.50265C113.78 7.49199 113.471 7.48665 113.183 7.48665C112.873 7.48665 112.575 7.50799 112.287 7.55065C112.009 7.58265 111.785 7.67332 111.615 7.82265C111.444 7.97199 111.359 8.21732 111.359 8.55865C111.359 8.82532 111.412 9.01732 111.519 9.13465C111.625 9.25199 111.775 9.32665 111.967 9.35865C112.159 9.39065 112.377 9.40665 112.623 9.40665H114.383C114.809 9.40665 115.183 9.44399 115.503 9.51865C115.823 9.59332 116.073 9.75332 116.255 9.99865C116.436 10.244 116.527 10.628 116.527 11.1507C116.527 11.748 116.361 12.1907 116.031 12.4787C115.7 12.7667 115.252 12.9587 114.687 13.0547C114.121 13.14 113.471 13.1827 112.735 13.1827Z" fill="#1C274C"/>
<circle cx="122.038" cy="9.11865" r="1" fill="black" fill-opacity="0.4"/>
</svg>
