<svg width="50" height="51" viewBox="0 0 50 51" fill="none" xmlns="http://www.w3.org/2000/svg">
<path d="M23.4375 48.4166H9.89583C4.43958 48.4166 0 43.9771 0 38.5208V18.7292C0 15.5687 2.56875 13 5.72916 13H27.6041C30.7646 13 33.3333 15.5687 33.3333 18.7292V38.5208C33.3333 43.9771 28.8937 48.4166 23.4375 48.4166Z" fill="#CFD8DC"/>
<path d="M22.9168 23.4167C21.7647 23.4167 20.8335 22.4833 20.8335 21.3333V8.83333C20.8335 6.53541 18.9627 4.66666 16.6668 4.66666C14.3689 4.66666 12.5002 6.53541 12.5002 8.83333V21.3333C12.5002 22.4833 11.5689 23.4167 10.4168 23.4167C9.26475 23.4167 8.3335 22.4833 8.3335 21.3333V8.83333C8.3335 4.2375 12.071 0.5 16.6668 0.5C21.2627 0.5 25.0002 4.2375 25.0002 8.83333V21.3333C25.0002 22.4833 24.0689 23.4167 22.9168 23.4167Z" fill="#90A4AE"/>
<path d="M12.5 23.4167H8.33333C7.18125 23.4167 6.25 22.4833 6.25 21.3333C6.25 20.1833 7.18125 19.25 8.33333 19.25H12.5C13.6521 19.25 14.5833 20.1833 14.5833 21.3333C14.5833 22.4833 13.6521 23.4167 12.5 23.4167Z" fill="#90A4AE"/>
<path d="M25 23.4167H20.8333C19.6812 23.4167 18.75 22.4833 18.75 21.3333C18.75 20.1833 19.6812 19.25 20.8333 19.25H25C26.1521 19.25 27.0833 20.1833 27.0833 21.3333C27.0833 22.4833 26.1521 23.4167 25 23.4167Z" fill="#90A4AE"/>
<path d="M16.6667 13H12.5V19.25C13.6521 19.25 14.5833 20.1833 14.5833 21.3333C14.5833 22.4833 13.6521 23.4167 12.5 23.4167H10.4167H8.33333C7.18125 23.4167 6.25 22.4833 6.25 21.3333C6.25 20.1833 7.18125 19.25 8.33333 19.25V13H5.72916C2.56875 13 0 15.5687 0 18.7292V38.5208C0 43.9771 4.43958 48.4166 9.89583 48.4166H16.6667V13Z" fill="#B4BCC0"/>
<path d="M16.6668 0.5C12.071 0.5 8.3335 4.2375 8.3335 8.83333V13V19.25H12.5002V13V8.83333C12.5002 6.53541 14.371 4.66666 16.6668 4.66666V0.5Z" fill="#7D8F97"/>
<path d="M12.5 19.25H8.33333C7.18125 19.25 6.25 20.1833 6.25 21.3333C6.25 22.4833 7.18125 23.4167 8.33333 23.4167H10.4167H12.5C13.6521 23.4167 14.5833 22.4833 14.5833 21.3333C14.5833 20.1833 13.6521 19.25 12.5 19.25Z" fill="#7D8F97"/>
<path d="M33.3332 38.0003C31.0353 38.0003 29.1665 36.1316 29.1665 33.8337C29.1665 31.5357 31.0353 29.667 33.3332 29.667C35.6311 29.667 37.4998 31.5357 37.4998 33.8337C37.4998 36.1316 35.6311 38.0003 33.3332 38.0003Z" fill="#00BCD4"/>
<path d="M45.8332 50.5003C48.1344 50.5003 49.9998 48.6348 49.9998 46.3337C49.9998 44.0325 48.1344 42.167 45.8332 42.167C43.532 42.167 41.6665 44.0325 41.6665 46.3337C41.6665 48.6348 43.532 50.5003 45.8332 50.5003Z" fill="#00BCD4"/>
<path d="M33.3311 50.4995C32.8956 50.4995 32.4581 50.3641 32.0831 50.0828C31.1623 49.3933 30.9748 48.087 31.6665 47.1662L44.1665 30.4995C44.8561 29.5808 46.1623 29.3912 47.0811 30.0829C48.0019 30.7724 48.1894 32.0787 47.4977 32.9995L34.9977 49.6662C34.5915 50.212 33.9665 50.4995 33.3311 50.4995Z" fill="#00BCD4"/>
<path d="M33.3332 29.667C31.0353 29.667 29.1665 31.5357 29.1665 33.8337C29.1665 36.1316 31.0353 38.0003 33.3332 38.0003C35.6311 38.0003 37.4998 36.1316 37.4998 33.8337C37.4998 31.5357 35.6311 29.667 33.3332 29.667Z" fill="#00A4B9"/>
<path d="M45.8352 29.667C45.2019 29.667 44.5748 29.9545 44.1665 30.5003L31.6665 47.167C30.9748 48.0878 31.1623 49.3941 32.0831 50.0836L47.0811 30.0837C46.7081 29.8024 46.2706 29.667 45.8352 29.667Z" fill="#00A4B9"/>
</svg>
