<svg width="50" height="51" viewBox="0 0 50 51" fill="none" xmlns="http://www.w3.org/2000/svg">
<path d="M25.0773 42.7344C24.2657 42.7344 23.6079 43.3925 23.6079 44.2038V47.5608C23.6079 48.372 24.2657 49.0301 25.0773 49.0301C25.8889 49.0301 26.5467 48.372 26.5467 47.5608V44.2038C26.5467 43.3925 25.8889 42.7344 25.0773 42.7344Z" fill="#D9E4EF"/>
<path d="M26.5465 44.2038V47.5608C26.5465 48.372 25.8884 49.0301 25.0771 49.0301V42.7344C25.8884 42.7344 26.5465 43.3929 26.5465 44.2038Z" fill="#C1CEDB"/>
<path d="M45.3972 0.5H4.60281C2.0813 0.5 0 2.88673 0 5.89092V38.9687C0 41.9827 2.09007 44.3596 4.60281 44.3596H45.3972C47.9187 44.3596 50 41.9729 50 38.9687V5.89092C50 2.8769 47.9099 0.5 45.3972 0.5Z" fill="#EFF6FE"/>
<path d="M45.4782 0.5H25.4385V44.3596H45.4782C47.9555 44.3596 49.9999 41.9729 49.9999 38.9692V5.89176C49.9999 2.87688 47.9468 0.5 45.4782 0.5Z" fill="#D9E4EF"/>
<path d="M32.9465 47.5605H17.2081C16.3965 47.5605 15.7388 48.2183 15.7388 49.0299C15.7388 49.8411 16.3965 50.4993 17.2081 50.4993H32.9465C33.7581 50.4993 34.4159 49.8411 34.4159 49.0299C34.4159 48.2183 33.7581 47.5605 32.9465 47.5605Z" fill="#EFF6FE"/>
<path d="M0 38.2197V39.8567C0 42.3745 2.09007 44.3601 4.60281 44.3601H45.3972C47.9187 44.3601 50 42.3663 50 39.8567V38.2197H0Z" fill="#3AB4FB"/>
<path d="M34.4153 49.0299C34.4153 49.8411 33.7583 50.4993 32.946 50.4993H25.0771V47.5605H32.946C33.7583 47.5605 34.4153 48.2179 34.4153 49.0299Z" fill="#D9E4EF"/>
<path d="M16.7368 17.5315V23.0177C16.7368 26.4801 19.457 29.2972 22.8011 29.2972H33.7813L38.6643 32.668C39.7571 33.4221 41.2278 32.6097 41.2278 31.2474V17.5315C41.2278 14.058 38.5132 11.252 35.1635 11.252H22.8011C19.451 11.252 16.7368 14.058 16.7368 17.5315Z" fill="#3AB4FB"/>
<path d="M35.1638 11.252H23.6841V29.2972H33.7816L38.6641 32.668C39.7569 33.4221 41.2276 32.6097 41.2276 31.2474V17.5315C41.228 14.058 38.5134 11.252 35.1638 11.252Z" fill="#1D9CFD"/>
<path d="M35.9295 20.2757C35.9295 21.2183 35.1914 21.9831 34.2807 21.9831C33.3704 21.9831 32.6318 21.2183 32.6318 20.2757C32.6318 19.3327 33.3704 18.5684 34.2807 18.5684C35.1914 18.5684 35.9295 19.3327 35.9295 20.2757Z" fill="#D9E4EF"/>
<path d="M24.5669 5.7627H12.2044C8.85472 5.7627 6.14014 8.56875 6.14014 12.0422V25.7581C6.14014 27.1205 7.61079 27.9328 8.70358 27.1787L13.5866 23.808H24.5669C27.9109 23.808 30.6311 20.9908 30.6311 17.5285V12.0422C30.6311 8.56875 27.9169 5.7627 24.5669 5.7627Z" fill="#00D66A"/>
<path d="M14.7367 14.7855C14.7367 15.7286 13.9981 16.4929 13.0878 16.4929C12.1771 16.4929 11.439 15.7286 11.439 14.7855C11.439 13.8429 12.1771 13.0781 13.0878 13.0781C13.9981 13.0781 14.7367 13.8429 14.7367 14.7855Z" fill="#EFF6FE"/>
<path d="M20.0345 14.7855C20.0345 15.7286 19.2964 16.4929 18.3857 16.4929C17.4749 16.4929 16.7368 15.7286 16.7368 14.7855C16.7368 13.8429 17.4749 13.0781 18.3857 13.0781C19.2964 13.0781 20.0345 13.8429 20.0345 14.7855Z" fill="#EFF6FE"/>
<path d="M24.5669 5.7627H23.6841V23.8075H24.5669C27.911 23.8075 30.6311 20.9908 30.6311 17.5285V12.0417C30.6311 8.56875 27.917 5.7627 24.5669 5.7627Z" fill="#00B85E"/>
<path d="M25.3329 14.7855C25.3329 15.7286 24.5947 16.4929 23.684 16.4929C22.7733 16.4929 22.0352 15.7286 22.0352 14.7855C22.0352 13.8429 22.7733 13.0781 23.684 13.0781C24.5947 13.0781 25.3329 13.8429 25.3329 14.7855Z" fill="#EFF6FE"/>
<path d="M25.3329 14.7855C25.3329 13.8433 24.5944 13.0781 23.6841 13.0781V16.4929C24.5944 16.4929 25.3329 15.7281 25.3329 14.7855Z" fill="#D9E4EF"/>
</svg>
