<svg width="81" height="19" viewBox="0 0 81 19" fill="none" xmlns="http://www.w3.org/2000/svg">
<circle cx="1" cy="9.11865" r="1" fill="black" fill-opacity="0.4"/>
<path d="M6.5 9.13824C6.5 12.9979 9.40035 16.1784 13.1351 16.6084C13.6862 16.6718 14.2204 16.4369 14.6126 16.0436C15.1027 15.5522 15.1027 14.7556 14.6126 14.2642C14.2204 13.8709 13.9006 13.2843 14.1964 12.8138C15.3789 10.9331 21.5 15.2522 21.5 9.13824C21.5 4.98528 18.1421 1.61865 14 1.61865C9.85786 1.61865 6.5 4.98528 6.5 9.13824Z" stroke="#1C274C"/>
<circle opacity="0.5" cx="18.125" cy="8.74365" r="1.125" stroke="#1C274C"/>
<circle opacity="0.5" cx="9.875" cy="8.74365" r="1.125" stroke="#1C274C"/>
<path opacity="0.5" d="M13.2501 5.36841C13.2501 5.98973 12.7464 6.49341 12.1251 6.49341C11.5037 6.49341 11.0001 5.98973 11.0001 5.36841C11.0001 4.74709 11.5037 4.24341 12.1251 4.24341C12.7464 4.24341 13.2501 4.74709 13.2501 5.36841Z" stroke="#1C274C"/>
<path opacity="0.5" d="M17 5.36865C17 5.98997 16.4963 6.49365 15.875 6.49365C15.2537 6.49365 14.75 5.98997 14.75 5.36865C14.75 4.74733 15.2537 4.24365 15.875 4.24365C16.4963 4.24365 17 4.74733 17 5.36865Z" stroke="#1C274C"/>
<circle cx="27" cy="9.11865" r="1" fill="black" fill-opacity="0.4"/>
<path d="M31.656 9.43865C31.656 8.68132 31.736 8.06265 31.896 7.58265C32.056 7.09199 32.312 6.70799 32.664 6.43065C33.0267 6.15332 33.496 5.96132 34.072 5.85465C34.6587 5.73732 35.3733 5.67865 36.216 5.67865C36.6213 5.67865 37.0053 5.69465 37.368 5.72665C37.7413 5.74799 38.1253 5.79065 38.52 5.85465C38.872 5.90799 39.1013 5.99332 39.208 6.11065C39.3253 6.21732 39.384 6.36665 39.384 6.55865V7.08665C39.1387 6.97999 38.8293 6.89465 38.456 6.83065C38.0827 6.75599 37.6987 6.70265 37.304 6.67065C36.92 6.62799 36.5733 6.60665 36.264 6.60665C35.56 6.60665 34.9893 6.68665 34.552 6.84665C34.1253 7.00665 33.816 7.28932 33.624 7.69465C33.432 8.09999 33.336 8.68132 33.336 9.43865C33.336 10.196 33.4267 10.7827 33.608 11.1987C33.8 11.604 34.1147 11.8867 34.552 12.0467C35 12.2067 35.608 12.2867 36.376 12.2867C36.6747 12.2867 37 12.2707 37.352 12.2387C37.704 12.196 38.056 12.1427 38.408 12.0787C38.76 12.0147 39.0853 11.94 39.384 11.8547V12.3507C39.384 12.5213 39.3253 12.6653 39.208 12.7827C39.1013 12.9 38.8613 12.9853 38.488 13.0387C38.104 13.1133 37.72 13.1613 37.336 13.1827C36.952 13.204 36.5627 13.2147 36.168 13.2147C35.304 13.2147 34.5787 13.1613 33.992 13.0547C33.416 12.948 32.9573 12.756 32.616 12.4787C32.2747 12.2013 32.0293 11.8173 31.88 11.3267C31.7307 10.836 31.656 10.2067 31.656 9.43865ZM43.8754 13.2147C43.342 13.2147 42.8674 13.1773 42.4514 13.1027C42.046 13.0173 41.694 12.8627 41.3954 12.6387C41.1074 12.4147 40.8887 12.084 40.7394 11.6467C40.59 11.2093 40.5154 10.6387 40.5154 9.93465C40.5154 9.23065 40.59 8.65999 40.7394 8.22265C40.8887 7.78532 41.1074 7.45465 41.3954 7.23065C41.694 7.00665 42.046 6.85732 42.4514 6.78265C42.8674 6.69732 43.342 6.65465 43.8754 6.65465C44.3874 6.65465 44.846 6.69732 45.2514 6.78265C45.6674 6.85732 46.0194 7.00665 46.3074 7.23065C46.5954 7.45465 46.814 7.78532 46.9634 8.22265C47.1234 8.65999 47.2034 9.23065 47.2034 9.93465C47.2034 10.6493 47.1234 11.2253 46.9634 11.6627C46.814 12.1 46.5954 12.4307 46.3074 12.6547C46.0194 12.868 45.6674 13.0173 45.2514 13.1027C44.846 13.1773 44.3874 13.2147 43.8754 13.2147ZM43.8754 12.4147C44.2594 12.4147 44.5847 12.356 44.8514 12.2387C45.1287 12.1213 45.3367 11.8867 45.4754 11.5347C45.614 11.1827 45.6834 10.6493 45.6834 9.93465C45.6834 9.21999 45.614 8.68665 45.4754 8.33465C45.3367 7.98265 45.1287 7.74799 44.8514 7.63065C44.5847 7.51332 44.2594 7.45465 43.8754 7.45465C43.4914 7.45465 43.1607 7.51332 42.8834 7.63065C42.606 7.74799 42.3927 7.98265 42.2434 8.33465C42.1047 8.68665 42.0354 9.21999 42.0354 9.93465C42.0354 10.6493 42.1047 11.1827 42.2434 11.5347C42.3927 11.8867 42.606 12.1213 42.8834 12.2387C43.1607 12.356 43.4914 12.4147 43.8754 12.4147ZM50.2918 13.1827C49.7264 13.1827 49.3211 13.0707 49.0758 12.8467C48.8304 12.612 48.7078 12.2013 48.7078 11.6147V5.67865C48.7078 5.50799 48.7184 5.37999 48.7398 5.29465C48.7718 5.19865 48.8304 5.13465 48.9158 5.10265C49.0011 5.05999 49.1291 5.03865 49.2998 5.03865H50.2278C50.2278 5.05999 50.2171 5.14532 50.1957 5.29465C50.1851 5.44399 50.1798 5.61999 50.1798 5.82265V11.4227C50.1798 11.8173 50.2278 12.1 50.3238 12.2707C50.4198 12.4413 50.6011 12.5267 50.8678 12.5267C50.9531 12.5267 51.0544 12.516 51.1718 12.4947C51.2998 12.4733 51.3798 12.4573 51.4118 12.4467V13.0547C51.3478 13.0653 51.2358 13.0867 51.0758 13.1187C50.9158 13.1613 50.6544 13.1827 50.2918 13.1827ZM55.5004 13.2147C54.967 13.2147 54.4924 13.1773 54.0764 13.1027C53.671 13.0173 53.319 12.8627 53.0204 12.6387C52.7324 12.4147 52.5137 12.084 52.3644 11.6467C52.215 11.2093 52.1404 10.6387 52.1404 9.93465C52.1404 9.23065 52.215 8.65999 52.3644 8.22265C52.5137 7.78532 52.7324 7.45465 53.0204 7.23065C53.319 7.00665 53.671 6.85732 54.0764 6.78265C54.4924 6.69732 54.967 6.65465 55.5004 6.65465C56.0124 6.65465 56.471 6.69732 56.8764 6.78265C57.2924 6.85732 57.6444 7.00665 57.9324 7.23065C58.2204 7.45465 58.439 7.78532 58.5884 8.22265C58.7484 8.65999 58.8284 9.23065 58.8284 9.93465C58.8284 10.6493 58.7484 11.2253 58.5884 11.6627C58.439 12.1 58.2204 12.4307 57.9324 12.6547C57.6444 12.868 57.2924 13.0173 56.8764 13.1027C56.471 13.1773 56.0124 13.2147 55.5004 13.2147ZM55.5004 12.4147C55.8844 12.4147 56.2097 12.356 56.4764 12.2387C56.7537 12.1213 56.9617 11.8867 57.1004 11.5347C57.239 11.1827 57.3084 10.6493 57.3084 9.93465C57.3084 9.21999 57.239 8.68665 57.1004 8.33465C56.9617 7.98265 56.7537 7.74799 56.4764 7.63065C56.2097 7.51332 55.8844 7.45465 55.5004 7.45465C55.1164 7.45465 54.7857 7.51332 54.5084 7.63065C54.231 7.74799 54.0177 7.98265 53.8684 8.33465C53.7297 8.68665 53.6604 9.21999 53.6604 9.93465C53.6604 10.6493 53.7297 11.1827 53.8684 11.5347C54.0177 11.8867 54.231 12.1213 54.5084 12.2387C54.7857 12.356 55.1164 12.4147 55.5004 12.4147ZM61.8688 13.1187H60.8448C60.6848 13.1187 60.5621 13.076 60.4768 12.9907C60.3914 12.9053 60.3488 12.7453 60.3488 12.5107V7.05465C60.6048 6.97999 60.9621 6.89999 61.4208 6.81465C61.8794 6.72932 62.4288 6.68665 63.0688 6.68665C63.6981 6.68665 64.1941 6.72932 64.5568 6.81465C64.9194 6.88932 65.1861 7.00665 65.3568 7.16665C65.5381 7.31599 65.6501 7.50265 65.6928 7.72665C65.7461 7.93999 65.7728 8.19065 65.7728 8.47865H64.3328L64.3168 8.25465C64.3168 7.99865 64.2474 7.81732 64.1088 7.71065C63.9808 7.59332 63.8261 7.51865 63.6448 7.48665C63.4634 7.45465 63.2821 7.43865 63.1008 7.43865C62.8234 7.43865 62.5728 7.46532 62.3488 7.51865C62.1354 7.57199 61.9754 7.64132 61.8688 7.72665V13.1187ZM69.4065 13.1827C69.2038 13.1827 68.9638 13.1773 68.6865 13.1667C68.4092 13.156 68.1265 13.1347 67.8385 13.1027C67.5612 13.06 67.3105 13.0013 67.0865 12.9267C66.9478 12.8947 66.8358 12.852 66.7505 12.7987C66.6758 12.7453 66.6172 12.6547 66.5745 12.5267C66.5425 12.388 66.5265 12.18 66.5265 11.9027C66.7932 12.02 67.0918 12.116 67.4225 12.1907C67.7532 12.2547 68.0785 12.2973 68.3985 12.3187C68.7292 12.34 69.0118 12.3507 69.2465 12.3507C69.5345 12.3507 69.8172 12.34 70.0945 12.3187C70.3825 12.2973 70.6438 12.2493 70.8785 12.1747C71.1238 12.1 71.3158 11.9827 71.4545 11.8227C71.6038 11.6627 71.6785 11.444 71.6785 11.1667C71.6785 10.7933 71.5825 10.5533 71.3905 10.4467C71.1985 10.34 70.9318 10.2867 70.5905 10.2867H68.9105C68.4945 10.2867 68.1052 10.26 67.7425 10.2067C67.3905 10.1533 67.1025 10.0147 66.8785 9.79065C66.6652 9.56665 66.5585 9.18799 66.5585 8.65465C66.5585 8.06799 66.7025 7.63065 66.9905 7.34265C67.2785 7.05465 67.6838 6.86799 68.2065 6.78265C68.7398 6.69732 69.3638 6.65465 70.0785 6.65465C70.3452 6.65465 70.6545 6.65999 71.0065 6.67065C71.3692 6.68132 71.7052 6.71332 72.0145 6.76665C72.2705 6.78799 72.4732 6.83065 72.6225 6.89465C72.7825 6.94799 72.8998 7.02799 72.9745 7.13465C73.0492 7.23065 73.0865 7.37999 73.0865 7.58265V7.95065C72.9905 7.83332 72.8252 7.74799 72.5905 7.69465C72.3558 7.63065 72.0785 7.58265 71.7585 7.55065C71.4492 7.51865 71.1238 7.50265 70.7825 7.50265C70.4518 7.49199 70.1425 7.48665 69.8545 7.48665C69.5452 7.48665 69.2465 7.50799 68.9585 7.55065C68.6812 7.58265 68.4572 7.67332 68.2865 7.82265C68.1158 7.97199 68.0305 8.21732 68.0305 8.55865C68.0305 8.82532 68.0838 9.01732 68.1905 9.13465C68.2972 9.25199 68.4465 9.32665 68.6385 9.35865C68.8305 9.39065 69.0492 9.40665 69.2945 9.40665H71.0545C71.4812 9.40665 71.8545 9.44399 72.1745 9.51865C72.4945 9.59332 72.7452 9.75332 72.9265 9.99865C73.1078 10.244 73.1985 10.628 73.1985 11.1507C73.1985 11.748 73.0332 12.1907 72.7025 12.4787C72.3718 12.7667 71.9238 12.9587 71.3585 13.0547C70.7932 13.14 70.1425 13.1827 69.4065 13.1827Z" fill="#1C274C"/>
<circle cx="79.8" cy="9.11865" r="1" fill="black" fill-opacity="0.4"/>
</svg>
