<svg width="160" height="162" viewBox="0 0 160 162" fill="none" xmlns="http://www.w3.org/2000/svg">
<path d="M146.105 162H13.895C6.33384 162 0.204102 155.87 0.204102 148.309V82.1303C0.204102 74.5692 6.33384 68.4395 13.895 68.4395H146.105C153.666 68.4395 159.796 74.5692 159.796 82.1303V148.309C159.796 155.87 153.666 162 146.105 162Z" fill="#FFE177"/>
<path d="M146.105 68.4395H133.261C140.822 68.4395 146.952 74.5692 146.952 82.1303V148.309C146.952 155.87 140.822 162 133.261 162H146.105C153.666 162 159.796 155.87 159.796 148.309V82.1303C159.796 74.5692 153.666 68.4395 146.105 68.4395Z" fill="#FFD15B"/>
<path d="M119.354 115.438C120.5 115.081 121.24 114.008 121.24 112.68L121.056 93.6321C121.043 92.3102 119.968 91.2471 118.649 91.2471H118.625C117.295 91.26 116.227 92.3488 116.24 93.6787L116.357 105.859L107.033 92.326C106.435 91.4578 105.341 91.0781 104.334 91.3929C103.328 91.7062 102.642 92.638 102.642 93.6926V113.368C102.642 114.698 103.72 115.776 105.05 115.776C106.38 115.776 107.458 114.698 107.458 113.368V101.432L116.34 114.323C117.049 115.35 118.231 115.788 119.354 115.438Z" fill="white"/>
<path d="M82.955 113.665C83.2043 114.972 84.4646 115.83 85.772 115.58C87.0784 115.331 87.9356 114.069 87.6865 112.763L84.0194 93.5319C83.7609 92.2618 82.6769 91.3243 81.3834 91.2519C80.0918 91.1769 78.9085 91.99 78.5098 93.2231C78.5009 93.25 78.4927 93.2772 78.4848 93.305L74.9148 105.857L71.2128 93.2803C71.2043 93.2515 71.1954 93.2231 71.1856 93.1943C70.7737 91.9663 69.5872 91.169 68.2905 91.255C66.998 91.3417 65.9244 92.2909 65.6745 93.5914L62.2177 112.787C61.982 114.096 62.8521 115.349 64.1611 115.584C65.4701 115.82 66.7224 114.95 66.9581 113.641L68.942 102.624L72.2155 113.745C72.2241 113.773 72.2329 113.801 72.2424 113.83C72.6332 114.996 73.7188 115.777 74.9468 115.777H74.9613C76.1953 115.77 77.2803 114.977 77.6609 113.803C77.6697 113.775 77.6783 113.747 77.6862 113.719L80.8465 102.608L82.955 113.665Z" fill="white"/>
<path d="M95.3904 115.776C96.7206 115.776 97.7986 114.698 97.7986 113.368V93.6556C97.7986 92.3254 96.7206 91.2471 95.3904 91.2471C94.0602 91.2471 92.9819 92.3251 92.9819 93.6556V113.368C92.9823 114.698 94.0602 115.776 95.3904 115.776Z" fill="white"/>
<path d="M148.215 103.512C148.215 102.182 147.137 101.104 145.807 101.104H139.923C138.593 101.104 137.515 102.182 137.515 103.512C137.515 104.842 138.593 105.92 139.923 105.92H143.129C142.512 108.582 140.773 110.96 137.318 110.96C133.223 110.96 129.892 107.619 129.892 103.512C129.892 99.4056 133.223 96.0647 137.318 96.0647C138.805 96.0647 140.24 96.5039 141.466 97.3338C142.567 98.0802 144.065 97.7916 144.81 96.6899C145.556 95.5885 145.268 94.0913 144.166 93.3455C142.14 91.9732 139.772 91.248 137.318 91.248C130.567 91.248 125.075 96.75 125.075 103.512C125.075 110.275 130.567 115.777 137.318 115.777C143.734 115.776 148.215 110.733 148.215 103.512Z" fill="white"/>
<path d="M31.7674 108.739C30.7474 107.886 29.2283 108.02 28.3749 109.041C28.2022 109.247 28.0158 109.44 27.82 109.615C26.8198 110.508 25.5437 110.96 24.0266 110.96C19.932 110.96 16.6008 107.619 16.6008 103.512C16.6008 99.4056 19.932 96.0647 24.0266 96.0647C25.514 96.0647 26.9483 96.5039 28.1747 97.3338C29.2761 98.0796 30.7733 97.7916 31.5191 96.6899C32.2648 95.5885 31.9763 94.0913 30.8752 93.3455C28.8486 91.9733 26.4806 91.248 24.0266 91.248C17.2764 91.248 11.7842 96.75 11.7842 103.512C11.7842 110.275 17.276 115.777 24.0266 115.777C26.7243 115.777 29.1451 114.888 31.0274 113.208C31.3966 112.878 31.7472 112.516 32.069 112.131C32.923 111.111 32.7879 109.592 31.7674 108.739Z" fill="white"/>
<path d="M47.405 115.776C54.1552 115.776 59.6471 110.274 59.6471 103.511C59.6471 96.7487 54.1552 91.2471 47.405 91.2471C40.6548 91.2471 35.1626 96.7491 35.1626 103.511C35.1626 110.274 40.6548 115.776 47.405 115.776ZM47.405 96.0637C51.4996 96.0637 54.8304 99.4047 54.8304 103.511C54.8304 107.618 51.4993 110.959 47.405 110.959C43.3107 110.959 39.9793 107.618 39.9793 103.511C39.9793 99.4047 43.3107 96.0637 47.405 96.0637Z" fill="white"/>
<path d="M124.203 121.756H124.179C122.849 121.769 121.781 122.858 121.794 124.187L121.912 136.368L112.587 122.835C111.989 121.967 110.896 121.589 109.889 121.902C108.882 122.215 108.196 123.147 108.196 124.202V143.877C108.196 145.207 109.274 146.285 110.604 146.285C111.934 146.285 113.012 145.207 113.012 143.877V131.941L121.895 144.833C122.604 145.859 123.786 146.296 124.909 145.947C126.054 145.59 126.794 144.516 126.794 143.189L126.61 124.141C126.598 122.819 125.522 121.756 124.203 121.756Z" fill="white"/>
<path d="M43.7267 131.918C41.3027 131.021 39.0467 130.045 38.363 129.745C37.7998 129.296 37.8187 128.666 37.8564 128.403C37.908 128.045 38.1671 127.169 39.4571 126.78C42.2516 125.937 44.8373 127.983 44.9123 128.043C45.9295 128.889 47.4403 128.756 48.2937 127.743C49.1508 126.726 49.0208 125.207 48.0035 124.35C47.8188 124.194 43.4144 120.554 38.0649 122.169C35.3707 122.983 33.4637 125.109 33.0888 127.718C32.7366 130.167 33.7956 132.523 35.8526 133.867C35.9589 133.937 36.0709 133.998 36.1867 134.05C36.3006 134.101 39.0075 135.308 42.0564 136.436C42.9316 136.759 44.9385 137.675 44.6683 139.184C44.4674 140.307 43.1087 141.469 41.1837 141.469C39.216 141.469 37.3217 140.673 36.1162 139.34C35.2242 138.354 33.7013 138.278 32.7145 139.169C31.7279 140.061 31.6513 141.584 32.5433 142.571C34.6468 144.897 37.8766 146.286 41.1834 146.286C45.3014 146.286 48.761 143.656 49.4093 140.033C49.8976 137.305 48.6607 133.742 43.7267 131.918Z" fill="white"/>
<path d="M64.3967 121.756C57.6465 121.756 52.1543 127.258 52.1543 134.02C52.1543 140.783 57.6462 146.285 64.3967 146.285C71.1472 146.285 76.6391 140.783 76.6391 134.02C76.6391 127.258 71.1472 121.756 64.3967 121.756ZM64.3967 141.468C60.3021 141.468 56.971 138.127 56.971 134.02C56.971 129.914 60.3021 126.573 64.3967 126.573C68.4913 126.573 71.8224 129.914 71.8224 134.02C71.8224 138.127 68.4913 141.468 64.3967 141.468Z" fill="white"/>
<path d="M92.1581 121.756C85.4079 121.756 79.916 127.258 79.916 134.02C79.916 140.783 85.4079 146.285 92.1581 146.285C98.9086 146.285 104.4 140.783 104.4 134.02C104.4 127.258 98.9086 121.756 92.1581 121.756ZM92.1581 141.468C88.0635 141.468 84.7327 138.127 84.7327 134.02C84.7327 129.914 88.0635 126.573 92.1581 126.573C96.2527 126.573 99.5838 129.914 99.5838 134.02C99.5838 138.127 96.2527 141.468 92.1581 141.468Z" fill="white"/>
<path d="M24.7023 131.612H14.9355C13.6053 131.612 12.5273 132.69 12.5273 134.021C12.5273 135.351 13.6057 136.429 14.9355 136.429H24.7023C26.0325 136.429 27.1105 135.351 27.1105 134.021C27.1105 132.691 26.0325 131.612 24.7023 131.612Z" fill="white"/>
<path d="M145.065 131.612H135.298C133.967 131.612 132.889 132.69 132.889 134.021C132.889 135.351 133.967 136.429 135.298 136.429H145.065C146.395 136.429 147.473 135.351 147.473 134.021C147.473 132.691 146.395 131.612 145.065 131.612Z" fill="white"/>
<path d="M79.9999 81.0861C97.4146 81.0861 111.532 66.9697 111.532 49.5563C111.532 32.1428 97.4146 18.0264 79.9999 18.0264C62.5852 18.0264 48.4678 32.1428 48.4678 49.5563C48.4678 66.9697 62.5852 81.0861 79.9999 81.0861Z" fill="white"/>
<path d="M79.9997 18.0264C77.7991 18.0264 75.651 18.252 73.5776 18.681C87.9127 21.647 98.6876 34.3434 98.6876 49.5566C98.6876 64.7697 87.9127 77.4661 73.5776 80.4321C75.651 80.8612 77.7991 81.0868 79.9997 81.0868C97.4144 81.0868 111.532 66.9703 111.532 49.5569C111.532 32.1435 97.4144 18.0264 79.9997 18.0264Z" fill="#EEF5F6"/>
<path d="M102.058 49.5562C102.058 37.3945 92.1625 27.5001 79.9999 27.5001C79.9496 27.5001 80.0502 27.4998 79.9999 27.5001V49.5562H102.058Z" fill="#FE76A8"/>
<path d="M69.1027 32.8127C72.2019 32.8127 72.2069 27.9961 69.1027 27.9961C66.0035 27.9961 65.9984 32.8127 69.1027 32.8127Z" fill="#FE76A8"/>
<path d="M61.181 40.6936C64.2802 40.6936 64.2853 35.877 61.181 35.877C58.0815 35.877 58.0764 40.6936 61.181 40.6936Z" fill="#FE76A8"/>
<path d="M58.2615 51.4797C61.3607 51.4797 61.3657 46.6631 58.2615 46.6631C55.1623 46.6631 55.1569 51.4797 58.2615 51.4797Z" fill="#FE76A8"/>
<path d="M61.1256 62.2795C64.2248 62.2795 64.2299 57.4629 61.1256 57.4629C58.0264 57.4629 58.0214 62.2795 61.1256 62.2795Z" fill="#FE76A8"/>
<path d="M69.0072 70.2004C72.1064 70.2004 72.1115 65.3838 69.0072 65.3838C65.9077 65.3838 65.9026 70.2004 69.0072 70.2004Z" fill="#FE76A8"/>
<path d="M79.7931 73.1204C82.8923 73.1204 82.8974 68.3037 79.7931 68.3037C76.6939 68.3037 76.6888 73.1204 79.7931 73.1204Z" fill="#FE76A8"/>
<path d="M90.5941 70.2561C93.6933 70.2561 93.6984 65.4395 90.5941 65.4395C87.4946 65.4395 87.4895 70.2561 90.5941 70.2561Z" fill="#FE76A8"/>
<path d="M98.5157 62.3752C101.615 62.3752 101.62 57.5586 98.5157 57.5586C95.4166 57.5586 95.4115 62.3752 98.5157 62.3752Z" fill="#FE76A8"/>
<path d="M79.9997 83.4949C61.2849 83.4949 46.0591 68.2701 46.0591 49.5562C46.0591 30.8424 61.2849 15.6182 79.9997 15.6182C98.7145 15.6182 113.94 30.8427 113.94 49.5565C113.94 68.2704 98.7145 83.4949 79.9997 83.4949ZM79.9997 20.4348C63.9408 20.4348 50.8757 33.4986 50.8757 49.5565C50.8757 65.6145 63.9405 78.6786 79.9997 78.6786C96.0589 78.6786 109.124 65.6148 109.124 49.5565C109.124 33.4986 96.0585 20.4348 79.9997 20.4348Z" fill="#FE76A8"/>
<path d="M134.937 50.7028C134.208 49.591 132.714 49.2803 131.603 50.0099L128.788 51.8565C128.842 50.9129 128.869 49.9672 128.869 49.0227C128.869 21.9912 106.877 0 79.8443 0C52.8118 0 30.8193 21.9912 30.8193 49.0227C30.8193 52.0555 31.1 55.093 31.6531 58.0517C31.8695 59.2094 32.881 60.0175 34.0176 60.0175C34.1644 60.0175 34.3134 60.0039 34.4628 59.9761C35.7701 59.7318 36.632 58.4738 36.3875 57.1661C35.8888 54.4988 35.6357 51.759 35.6357 49.0227C35.6357 24.6474 55.4674 4.81665 79.8439 4.81665C104.22 4.81665 124.052 24.6474 124.052 49.0227C124.052 49.7868 124.032 50.5516 123.993 51.3154L121.674 49.067C120.719 48.1412 119.195 48.1649 118.269 49.1199C117.343 50.0748 117.367 51.5992 118.321 52.5253L123.817 57.8539C124.173 58.414 124.757 58.8259 125.463 58.9411C125.47 58.9421 125.476 58.943 125.483 58.9443C125.643 58.9772 125.806 58.994 125.97 58.994C126.427 58.994 126.886 58.8642 127.29 58.5994L134.244 54.0378C135.356 53.3078 135.667 51.8147 134.937 50.7028Z" fill="#93D8DE"/>
</svg>
