<svg width="117" height="19" viewBox="0 0 117 19" fill="none" xmlns="http://www.w3.org/2000/svg">
<circle cx="1.27881" cy="9.47803" r="1" fill="black" fill-opacity="0.4"/>
<path opacity="0.5" d="M8.27881 16.978H20.2788" stroke="#1C274C" stroke-linecap="round"/>
<path d="M16.251 2.66909L15.6948 3.22522L10.5821 8.33797C10.2358 8.68426 10.0627 8.85741 9.91375 9.04833C9.73809 9.27354 9.58749 9.51721 9.46461 9.77504C9.36045 9.99361 9.28301 10.2259 9.12814 10.6905L8.47189 12.6593L8.31148 13.1405C8.23527 13.3692 8.29477 13.6212 8.46519 13.7916C8.6356 13.9621 8.88768 14.0216 9.11631 13.9454L9.59756 13.7849L11.5663 13.1287C12.0309 12.9738 12.2632 12.8964 12.4818 12.7922C12.7396 12.6693 12.9833 12.5187 13.2085 12.3431C13.3994 12.1942 13.5726 12.021 13.9189 11.6747L13.9189 11.6747L19.0316 6.56199L19.5877 6.00586C20.5092 5.08444 20.5092 3.59052 19.5877 2.66909C18.6663 1.74767 17.1724 1.74767 16.251 2.66909Z" stroke="#1C274C"/>
<path opacity="0.5" d="M15.6948 3.22534C15.6948 3.22534 15.7643 4.40711 16.807 5.44985C17.8498 6.49259 19.0315 6.56211 19.0315 6.56211M9.59747 13.7851L8.4718 12.6594" stroke="#1C274C"/>
<circle cx="27.2788" cy="9.47803" r="1" fill="black" fill-opacity="0.4"/>
<path d="M40.4948 9.84603C40.4948 10.6994 40.3988 11.3714 40.2068 11.862C40.0255 12.3527 39.7535 12.7154 39.3908 12.95C39.0388 13.1847 38.5961 13.3394 38.0628 13.414C37.5295 13.478 36.9161 13.51 36.2228 13.51C35.8601 13.51 35.4975 13.5047 35.1348 13.494C34.7721 13.494 34.4148 13.494 34.0628 13.494C33.7215 13.494 33.4068 13.4887 33.1188 13.478C32.8415 13.478 32.6068 13.478 32.4148 13.478V7.14203C32.4148 6.80069 32.4681 6.55003 32.5748 6.39003C32.6815 6.23003 32.9321 6.13936 33.3268 6.11803C33.5188 6.10736 33.7588 6.10203 34.0468 6.10203C34.3455 6.10203 34.6548 6.10203 34.9748 6.10203C35.3055 6.09136 35.6201 6.08603 35.9188 6.08603C36.2281 6.08603 36.5001 6.09136 36.7348 6.10203C37.3748 6.12336 37.9295 6.17669 38.3988 6.26203C38.8681 6.33669 39.2575 6.50203 39.5668 6.75803C39.8868 7.00336 40.1215 7.37136 40.2708 7.86203C40.4201 8.35269 40.4948 9.01403 40.4948 9.84603ZM34.0628 12.598C34.1375 12.598 34.2655 12.6034 34.4468 12.614C34.6281 12.614 34.8255 12.614 35.0388 12.614C35.2521 12.614 35.4601 12.6194 35.6628 12.63C35.8655 12.63 36.0255 12.63 36.1428 12.63C36.6441 12.63 37.0601 12.5927 37.3908 12.518C37.7321 12.4434 38.0095 12.31 38.2228 12.118C38.4361 11.926 38.5855 11.6487 38.6708 11.286C38.7668 10.9127 38.8148 10.438 38.8148 9.86203C38.8148 9.06203 38.7295 8.45403 38.5588 8.03803C38.3988 7.62203 38.1268 7.33936 37.7428 7.19003C37.3695 7.04069 36.8468 6.96603 36.1748 6.96603C36.0361 6.96603 35.8388 6.96603 35.5828 6.96603C35.3375 6.96603 35.0921 6.97136 34.8468 6.98203C34.6015 6.98203 34.4041 6.99269 34.2548 7.01403C34.1908 7.05669 34.1428 7.11536 34.1108 7.19003C34.0788 7.25403 34.0628 7.38203 34.0628 7.57403V12.598ZM45.2178 13.574C44.5671 13.574 44.0178 13.5314 43.5698 13.446C43.1325 13.3607 42.7805 13.2007 42.5138 12.966C42.2578 12.7314 42.0765 12.406 41.9698 11.99C41.8631 11.574 41.8098 11.0354 41.8098 10.374C41.8098 9.58469 41.9111 8.94469 42.1138 8.45403C42.3165 7.96336 42.6738 7.60603 43.1858 7.38203C43.7085 7.14736 44.4338 7.03003 45.3618 7.03003C46.0871 7.03003 46.6631 7.12069 47.0898 7.30203C47.5271 7.47269 47.8418 7.74469 48.0338 8.11803C48.2258 8.49136 48.3218 8.96603 48.3218 9.54203V10.566H43.8258C43.8258 10.3954 43.8631 10.2567 43.9378 10.15C44.0125 10.0434 44.1511 9.99003 44.3538 9.99003H46.9778L46.9618 9.57403C46.9511 8.97669 46.8231 8.53936 46.5778 8.26203C46.3431 7.98469 45.9165 7.84603 45.2978 7.84603C44.7858 7.84603 44.3858 7.92603 44.0978 8.08603C43.8098 8.24603 43.6071 8.50736 43.4898 8.87003C43.3725 9.22203 43.3138 9.71269 43.3138 10.342C43.3138 10.9927 43.3778 11.4887 43.5058 11.83C43.6445 12.1607 43.8685 12.3847 44.1778 12.502C44.4978 12.6194 44.9405 12.678 45.5058 12.678C45.7085 12.678 45.9431 12.6727 46.2098 12.662C46.4871 12.6514 46.7645 12.6354 47.0418 12.614C47.3298 12.5927 47.5858 12.566 47.8098 12.534C48.0338 12.502 48.1831 12.47 48.2578 12.438V12.662C48.2578 12.7794 48.2311 12.8967 48.1778 13.014C48.1245 13.1314 48.0125 13.2274 47.8418 13.302C47.6178 13.4087 47.2871 13.478 46.8498 13.51C46.4231 13.5527 45.8791 13.574 45.2178 13.574ZM52.1853 13.542C51.9826 13.542 51.7426 13.5367 51.4653 13.526C51.188 13.5154 50.9053 13.494 50.6173 13.462C50.34 13.4194 50.0893 13.3607 49.8653 13.286C49.7266 13.254 49.6146 13.2114 49.5293 13.158C49.4546 13.1047 49.396 13.014 49.3533 12.886C49.3213 12.7474 49.3053 12.5394 49.3053 12.262C49.572 12.3794 49.8706 12.4754 50.2013 12.55C50.532 12.614 50.8573 12.6567 51.1773 12.678C51.508 12.6994 51.7906 12.71 52.0253 12.71C52.3133 12.71 52.596 12.6994 52.8733 12.678C53.1613 12.6567 53.4226 12.6087 53.6573 12.534C53.9026 12.4594 54.0946 12.342 54.2333 12.182C54.3826 12.022 54.4573 11.8034 54.4573 11.526C54.4573 11.1527 54.3613 10.9127 54.1693 10.806C53.9773 10.6994 53.7106 10.646 53.3693 10.646H51.6893C51.2733 10.646 50.884 10.6194 50.5213 10.566C50.1693 10.5127 49.8813 10.374 49.6573 10.15C49.444 9.92603 49.3373 9.54736 49.3373 9.01403C49.3373 8.42736 49.4813 7.99003 49.7693 7.70203C50.0573 7.41403 50.4626 7.22736 50.9853 7.14203C51.5186 7.05669 52.1426 7.01403 52.8573 7.01403C53.124 7.01403 53.4333 7.01936 53.7853 7.03003C54.148 7.04069 54.484 7.07269 54.7933 7.12603C55.0493 7.14736 55.252 7.19003 55.4013 7.25403C55.5613 7.30736 55.6786 7.38736 55.7533 7.49403C55.828 7.59003 55.8653 7.73936 55.8653 7.94203V8.31003C55.7693 8.19269 55.604 8.10736 55.3693 8.05403C55.1346 7.99003 54.8573 7.94203 54.5373 7.91003C54.228 7.87803 53.9026 7.86203 53.5613 7.86203C53.2306 7.85136 52.9213 7.84603 52.6333 7.84603C52.324 7.84603 52.0253 7.86736 51.7373 7.91003C51.46 7.94203 51.236 8.03269 51.0653 8.18203C50.8946 8.33136 50.8093 8.57669 50.8093 8.91803C50.8093 9.18469 50.8626 9.37669 50.9693 9.49403C51.076 9.61136 51.2253 9.68603 51.4173 9.71803C51.6093 9.75003 51.828 9.76603 52.0733 9.76603H53.8333C54.26 9.76603 54.6333 9.80336 54.9533 9.87803C55.2733 9.95269 55.524 10.1127 55.7053 10.358C55.8866 10.6034 55.9773 10.9874 55.9773 11.51C55.9773 12.1074 55.812 12.55 55.4813 12.838C55.1506 13.126 54.7026 13.318 54.1373 13.414C53.572 13.4994 52.9213 13.542 52.1853 13.542ZM60.6129 13.574C59.7489 13.574 59.0503 13.4887 58.5169 13.318C57.9836 13.1474 57.5996 12.8327 57.3649 12.374C57.1303 11.9154 57.0129 11.2434 57.0129 10.358C57.0129 9.44069 57.1303 8.74203 57.3649 8.26203C57.5996 7.77136 57.9836 7.44069 58.5169 7.27003C59.0503 7.08869 59.7489 6.99803 60.6129 6.99803C60.8903 6.99803 61.1516 7.00869 61.3969 7.03003C61.6529 7.05136 61.9463 7.08869 62.2769 7.14203C62.4583 7.16336 62.6023 7.20603 62.7089 7.27003C62.8263 7.33403 62.9116 7.43003 62.9649 7.55803C63.0183 7.67536 63.0449 7.85136 63.0449 8.08603C62.9169 8.03269 62.7303 7.98469 62.4849 7.94203C62.2396 7.89936 61.9783 7.86736 61.7009 7.84603C61.4236 7.82469 61.1783 7.81403 60.9649 7.81403C60.3569 7.81403 59.8716 7.89403 59.5089 8.05403C59.1569 8.20336 58.9063 8.45403 58.7569 8.80603C58.6183 9.15803 58.5489 9.64336 58.5489 10.262C58.5489 10.8807 58.6183 11.3714 58.7569 11.734C58.9063 12.0967 59.1569 12.3527 59.5089 12.502C59.8609 12.6514 60.3463 12.726 60.9649 12.726C61.2529 12.726 61.5303 12.7154 61.7969 12.694C62.0636 12.662 62.3036 12.6247 62.5169 12.582C62.7409 12.5287 62.9169 12.4807 63.0449 12.438V12.87C63.0449 13.062 62.9383 13.2114 62.7249 13.318C62.5116 13.414 62.2236 13.478 61.8609 13.51C61.5089 13.5527 61.0929 13.574 60.6129 13.574ZM65.8976 13.478H64.8736C64.7136 13.478 64.5909 13.4354 64.5056 13.35C64.4202 13.2647 64.3776 13.1047 64.3776 12.87V7.41403C64.6336 7.33936 64.9909 7.25936 65.4496 7.17403C65.9082 7.08869 66.4576 7.04603 67.0976 7.04603C67.7269 7.04603 68.2229 7.08869 68.5856 7.17403C68.9482 7.24869 69.2149 7.36603 69.3856 7.52603C69.5669 7.67536 69.6789 7.86203 69.7216 8.08603C69.7749 8.29936 69.8016 8.55003 69.8016 8.83803H68.3616L68.3456 8.61403C68.3456 8.35803 68.2762 8.17669 68.1376 8.07003C68.0096 7.95269 67.8549 7.87803 67.6736 7.84603C67.4922 7.81403 67.3109 7.79803 67.1296 7.79803C66.8522 7.79803 66.6016 7.82469 66.3776 7.87803C66.1642 7.93136 66.0042 8.00069 65.8976 8.08603V13.478ZM72.4273 13.542C71.862 13.542 71.478 13.4087 71.2753 13.142C71.0726 12.8647 70.9713 12.454 70.9713 11.91L70.9873 7.09403H72.4753V11.83C72.4753 12.2354 72.5233 12.5127 72.6193 12.662C72.726 12.8114 72.902 12.886 73.1473 12.886C73.2433 12.886 73.35 12.8754 73.4673 12.854C73.5846 12.8327 73.6593 12.8167 73.6913 12.806V13.414C73.6486 13.4247 73.5793 13.4407 73.4833 13.462C73.3873 13.4834 73.254 13.4994 73.0833 13.51C72.9126 13.5314 72.694 13.542 72.4273 13.542ZM71.7553 6.21403C71.51 6.21403 71.3233 6.18203 71.1953 6.11803C71.078 6.04336 71.0193 5.91003 71.0193 5.71803C71.0193 5.52603 71.078 5.39803 71.1953 5.33403C71.3126 5.25936 71.4993 5.22203 71.7553 5.22203C72.0006 5.22203 72.1766 5.25936 72.2833 5.33403C72.4006 5.39803 72.4593 5.52603 72.4593 5.71803C72.4593 5.91003 72.4006 6.04336 72.2833 6.11803C72.1766 6.18203 72.0006 6.21403 71.7553 6.21403ZM77.7937 13.526C77.1537 13.526 76.6257 13.494 76.2097 13.43C75.8044 13.3554 75.4897 13.2114 75.2657 12.998C75.0524 12.7847 74.903 12.47 74.8177 12.054C74.743 11.638 74.7057 11.0834 74.7057 10.39L74.6897 5.39803H76.1617V7.14203C76.2044 7.14203 76.3057 7.14203 76.4657 7.14203C76.6257 7.13136 76.8124 7.12603 77.0257 7.12603C77.2497 7.11536 77.4684 7.10469 77.6817 7.09403C77.895 7.08336 78.0817 7.07803 78.2417 7.07803C79.0097 7.07803 79.607 7.17936 80.0337 7.38203C80.4604 7.58469 80.759 7.92069 80.9297 8.39003C81.111 8.85936 81.207 9.49403 81.2177 10.294C81.2177 11.062 81.1377 11.6647 80.9777 12.102C80.8284 12.5394 80.6097 12.8594 80.3217 13.062C80.0337 13.2647 79.6764 13.3927 79.2497 13.446C78.823 13.4994 78.3377 13.526 77.7937 13.526ZM77.8097 12.694C78.311 12.694 78.695 12.6407 78.9617 12.534C79.239 12.4167 79.431 12.182 79.5377 11.83C79.655 11.478 79.7137 10.9447 79.7137 10.23C79.703 9.64336 79.639 9.18469 79.5217 8.85403C79.4044 8.52336 79.2124 8.28869 78.9457 8.15003C78.6897 8.00069 78.343 7.92603 77.9057 7.92603C77.7884 7.92603 77.639 7.93136 77.4577 7.94203C77.2764 7.94203 77.095 7.94736 76.9137 7.95803C76.7324 7.95803 76.5724 7.96336 76.4337 7.97403C76.3057 7.97403 76.2204 7.97403 76.1777 7.97403V10.566C76.1777 11.0354 76.1937 11.4087 76.2257 11.686C76.2684 11.9634 76.343 12.1767 76.4497 12.326C76.5564 12.4647 76.7164 12.5607 76.9297 12.614C77.1537 12.6674 77.447 12.694 77.8097 12.694ZM84.6249 13.526C84.1983 13.526 83.8623 13.478 83.6169 13.382C83.3823 13.286 83.2116 13.1154 83.1049 12.87C82.9983 12.6247 82.9449 12.294 82.9449 11.878V7.91003H82.3049V7.09403H82.9449V6.03803C82.9449 5.84603 82.9609 5.70736 82.9929 5.62203C83.0249 5.52603 83.0783 5.46736 83.1529 5.44603C83.2383 5.41403 83.3609 5.39803 83.5209 5.39803H84.4489C84.4489 5.41936 84.4489 5.46736 84.4489 5.54203C84.4489 5.60603 84.4489 5.70203 84.4489 5.83003V7.09403H85.9529V7.91003H84.4489V11.734C84.4489 12.15 84.4916 12.4487 84.5769 12.63C84.6623 12.8007 84.8649 12.886 85.1849 12.886C85.2916 12.886 85.4089 12.8754 85.5369 12.854C85.6756 12.8327 85.7716 12.8114 85.8249 12.79V13.414C85.7609 13.4247 85.6223 13.446 85.4089 13.478C85.1956 13.51 84.9343 13.526 84.6249 13.526ZM88.6304 13.542C88.0651 13.542 87.6811 13.4087 87.4784 13.142C87.2758 12.8647 87.1744 12.454 87.1744 11.91L87.1904 7.09403H88.6784V11.83C88.6784 12.2354 88.7264 12.5127 88.8224 12.662C88.9291 12.8114 89.1051 12.886 89.3504 12.886C89.4464 12.886 89.5531 12.8754 89.6704 12.854C89.7878 12.8327 89.8624 12.8167 89.8944 12.806V13.414C89.8518 13.4247 89.7824 13.4407 89.6864 13.462C89.5904 13.4834 89.4571 13.4994 89.2864 13.51C89.1158 13.5314 88.8971 13.542 88.6304 13.542ZM87.9584 6.21403C87.7131 6.21403 87.5264 6.18203 87.3984 6.11803C87.2811 6.04336 87.2224 5.91003 87.2224 5.71803C87.2224 5.52603 87.2811 5.39803 87.3984 5.33403C87.5158 5.25936 87.7024 5.22203 87.9584 5.22203C88.2038 5.22203 88.3798 5.25936 88.4864 5.33403C88.6038 5.39803 88.6624 5.52603 88.6624 5.71803C88.6624 5.91003 88.6038 6.04336 88.4864 6.11803C88.3798 6.18203 88.2038 6.21403 87.9584 6.21403ZM93.9823 13.574C93.449 13.574 92.9743 13.5367 92.5583 13.462C92.153 13.3767 91.801 13.222 91.5023 12.998C91.2143 12.774 90.9956 12.4434 90.8463 12.006C90.697 11.5687 90.6223 10.998 90.6223 10.294C90.6223 9.59003 90.697 9.01936 90.8463 8.58203C90.9956 8.14469 91.2143 7.81403 91.5023 7.59003C91.801 7.36603 92.153 7.21669 92.5583 7.14203C92.9743 7.05669 93.449 7.01403 93.9823 7.01403C94.4943 7.01403 94.953 7.05669 95.3583 7.14203C95.7743 7.21669 96.1263 7.36603 96.4143 7.59003C96.7023 7.81403 96.921 8.14469 97.0703 8.58203C97.2303 9.01936 97.3103 9.59003 97.3103 10.294C97.3103 11.0087 97.2303 11.5847 97.0703 12.022C96.921 12.4594 96.7023 12.79 96.4143 13.014C96.1263 13.2274 95.7743 13.3767 95.3583 13.462C94.953 13.5367 94.4943 13.574 93.9823 13.574ZM93.9823 12.774C94.3663 12.774 94.6916 12.7154 94.9583 12.598C95.2356 12.4807 95.4436 12.246 95.5823 11.894C95.721 11.542 95.7903 11.0087 95.7903 10.294C95.7903 9.57936 95.721 9.04603 95.5823 8.69403C95.4436 8.34203 95.2356 8.10736 94.9583 7.99003C94.6916 7.87269 94.3663 7.81403 93.9823 7.81403C93.5983 7.81403 93.2676 7.87269 92.9903 7.99003C92.713 8.10736 92.4996 8.34203 92.3503 8.69403C92.2116 9.04603 92.1423 9.57936 92.1423 10.294C92.1423 11.0087 92.2116 11.542 92.3503 11.894C92.4996 12.246 92.713 12.4807 92.9903 12.598C93.2676 12.7154 93.5983 12.774 93.9823 12.774ZM99.2787 13.478C98.98 13.478 98.8307 13.3287 98.8307 13.03V7.52603C99.1507 7.39803 99.5827 7.28603 100.127 7.19003C100.671 7.08336 101.289 7.03003 101.983 7.03003C102.665 7.03003 103.209 7.07269 103.615 7.15803C104.031 7.24336 104.345 7.38203 104.559 7.57403C104.772 7.75536 104.911 7.99536 104.975 8.29403C105.049 8.59269 105.087 8.96069 105.087 9.39803V12.87C105.087 13.0194 105.071 13.142 105.039 13.238C105.017 13.334 104.959 13.398 104.863 13.43C104.777 13.462 104.644 13.478 104.463 13.478H103.583V9.07803C103.583 8.66203 103.455 8.36336 103.199 8.18203C102.943 8.00069 102.537 7.91003 101.983 7.91003C101.812 7.91003 101.62 7.92603 101.407 7.95803C101.193 7.97936 100.991 8.01669 100.799 8.07003C100.607 8.12336 100.452 8.19269 100.335 8.27803V13.478H99.2787Z" fill="#1C274C"/>
<circle cx="110.296" cy="9.47803" r="1" fill="black" fill-opacity="0.4"/>
</svg>
