<svg width="91" height="43" viewBox="0 0 91 43" fill="none" xmlns="http://www.w3.org/2000/svg">
<rect x="0.699707" y="0.00195312" width="90" height="43" rx="7" fill="#F2F2F2"/>
<circle cx="43.8455" cy="9.92415" r="3.33333" stroke="#1C274C"/>
<path opacity="0.5" d="M50.5122 19.5073C50.5122 21.5784 50.5122 23.2573 43.8455 23.2573C37.1788 23.2573 37.1788 21.5784 37.1788 19.5073C37.1788 17.4363 40.1636 15.7573 43.8455 15.7573C47.5274 15.7573 50.5122 17.4363 50.5122 19.5073Z" stroke="#1C274C"/>
<path d="M50.586 15.3729L50.8894 14.9754L50.586 15.3729ZM51.3456 12.1271L50.991 12.4796C51.0848 12.574 51.2125 12.6271 51.3456 12.6271C51.4787 12.6271 51.6063 12.574 51.7002 12.4796L51.3456 12.1271ZM52.1051 15.3729L51.8018 14.9754L52.1051 15.3729ZM50.8894 14.9754C50.4915 14.6718 50.1124 14.4143 49.8084 14.0829C49.5216 13.7703 49.3456 13.4343 49.3456 13.0073H48.3456C48.3456 13.7572 48.672 14.3234 49.0715 14.7589C49.4538 15.1757 49.9449 15.5126 50.2827 15.7703L50.8894 14.9754ZM49.3456 13.0073C49.3456 12.6149 49.5742 12.2923 49.8761 12.1587C50.1504 12.0373 50.558 12.0441 50.991 12.4796L51.7002 11.7746C51.0082 11.0786 50.1658 10.9369 49.4714 11.2442C48.8045 11.5394 48.3456 12.2226 48.3456 13.0073H49.3456ZM50.2827 15.7703C50.4079 15.8659 50.5622 15.9836 50.7232 16.0746C50.8844 16.1659 51.0977 16.2575 51.3456 16.2575V15.2575C51.3435 15.2575 51.3068 15.2559 51.2156 15.2043C51.1242 15.1526 51.0237 15.0779 50.8894 14.9754L50.2827 15.7703ZM52.4085 15.7703C52.7462 15.5126 53.2373 15.1757 53.6197 14.7589C54.0192 14.3234 54.3456 13.7572 54.3456 13.0073H53.3456C53.3456 13.4343 53.1695 13.7703 52.8827 14.0829C52.5788 14.4143 52.1996 14.6718 51.8018 14.9754L52.4085 15.7703ZM54.3456 13.0073C54.3456 12.2226 53.8867 11.5394 53.2198 11.2442C52.5254 10.9369 51.683 11.0786 50.991 11.7746L51.7002 12.4796C52.1332 12.0441 52.5407 12.0373 52.8151 12.1587C53.1169 12.2923 53.3456 12.6149 53.3456 13.0073H54.3456ZM51.8018 14.9754C51.6675 15.0779 51.567 15.1526 51.4756 15.2043C51.3844 15.2559 51.3477 15.2575 51.3456 15.2575V16.2575C51.5935 16.2575 51.8068 16.1659 51.968 16.0746C52.129 15.9836 52.2832 15.8659 52.4085 15.7703L51.8018 14.9754Z" fill="#1C274C"/>
<path d="M25.0173 37.9241V31.2521C25.0173 31.0814 25.0226 30.9481 25.0333 30.8521C25.0439 30.7561 25.0919 30.6867 25.1773 30.6441C25.2626 30.5907 25.3959 30.5641 25.5773 30.5641H32.2333V31.4761H26.6653V33.6361H31.7693V34.5481H26.6653V37.9241H25.0173ZM36.4995 38.0201C35.8382 38.0201 35.2995 37.9881 34.8835 37.9241C34.4675 37.8707 34.1475 37.7694 33.9235 37.6201C33.6995 37.4707 33.5449 37.2681 33.4595 37.0121C33.3849 36.7561 33.3475 36.4361 33.3475 36.0521C33.3475 35.5081 33.4062 35.0974 33.5235 34.8201C33.6515 34.5321 33.8649 34.3347 34.1635 34.2281C34.4729 34.1214 34.8835 34.0681 35.3955 34.0681C35.6622 34.0681 35.9555 34.0734 36.2755 34.0841C36.6062 34.0947 36.9209 34.1107 37.2195 34.1321C37.5289 34.1427 37.7955 34.1587 38.0195 34.1801C38.2542 34.2014 38.4089 34.2281 38.4835 34.2601C38.4835 33.8121 38.4462 33.4601 38.3715 33.2041C38.2969 32.9481 38.1742 32.7561 38.0035 32.6281C37.8435 32.5001 37.6409 32.4147 37.3955 32.3721C37.1502 32.3294 36.8622 32.3081 36.5315 32.3081C36.1689 32.3081 35.8062 32.3187 35.4435 32.3401C35.0915 32.3614 34.7555 32.3987 34.4355 32.4521C34.1262 32.5054 33.8702 32.5747 33.6675 32.6601V32.3561C33.6675 32.1107 33.7315 31.9347 33.8595 31.8281C33.9982 31.7214 34.1635 31.6521 34.3555 31.6201C34.5689 31.5667 34.8835 31.5241 35.2995 31.4921C35.7155 31.4601 36.1582 31.4494 36.6275 31.4601C37.2249 31.4601 37.7315 31.4921 38.1475 31.5561C38.5742 31.6094 38.9155 31.7267 39.1715 31.9081C39.4382 32.0894 39.6302 32.3614 39.7475 32.7241C39.8755 33.0867 39.9395 33.5721 39.9395 34.1801V37.4441C39.8435 37.6467 39.5182 37.7961 38.9635 37.8921C38.4089 37.9774 37.5875 38.0201 36.4995 38.0201ZM36.4995 37.3481C36.9262 37.3481 37.2729 37.3374 37.5395 37.3161C37.8169 37.2841 38.0302 37.2467 38.1795 37.2041C38.3289 37.1507 38.4302 37.0867 38.4835 37.0121V34.8041C38.3875 34.7721 38.2169 34.7454 37.9715 34.7241C37.7262 34.6921 37.4702 34.6654 37.2035 34.6441C36.9369 34.6227 36.7129 34.6121 36.5315 34.6121C36.1369 34.6121 35.8169 34.6387 35.5715 34.6921C35.3262 34.7454 35.1502 34.8681 35.0435 35.0601C34.9369 35.2521 34.8835 35.5507 34.8835 35.9561C34.8835 36.2867 34.9209 36.5534 34.9955 36.7561C35.0702 36.9587 35.2195 37.1081 35.4435 37.2041C35.6782 37.3001 36.0302 37.3481 36.4995 37.3481ZM42.1799 37.9241C41.9346 37.9241 41.7692 37.8867 41.6839 37.8121C41.6092 37.7374 41.5719 37.5774 41.5719 37.3321V31.9881C41.6892 31.9561 41.8386 31.9134 42.0199 31.8601C42.2119 31.8067 42.4306 31.7534 42.6759 31.7001C42.9319 31.6361 43.2092 31.5881 43.5079 31.5561C43.8172 31.5241 44.1372 31.5081 44.4679 31.5081C44.8519 31.5081 45.1826 31.5401 45.4599 31.6041C45.7372 31.6574 45.9772 31.7641 46.1799 31.9241C46.3826 32.0734 46.5479 32.2921 46.6759 32.5801L46.4199 32.5641C46.5052 32.3614 46.6332 32.1907 46.8039 32.0521C46.9746 31.9027 47.1666 31.7907 47.3799 31.7161C47.6039 31.6307 47.8332 31.5721 48.0679 31.5401C48.3026 31.5081 48.5212 31.4921 48.7239 31.4921C49.3639 31.4921 49.8652 31.5561 50.2279 31.6841C50.6012 31.8014 50.8626 32.0041 51.0119 32.2921C51.1719 32.5801 51.2519 32.9747 51.2519 33.4761V37.3801C51.2519 37.6041 51.2092 37.7534 51.1239 37.8281C51.0492 37.8921 50.8999 37.9241 50.6759 37.9241H49.7639C49.7639 37.1774 49.7639 36.4307 49.7639 35.6841C49.7639 34.9374 49.7639 34.1854 49.7639 33.4281C49.7532 32.9694 49.6466 32.6601 49.4439 32.5001C49.2412 32.3401 48.9319 32.2601 48.5159 32.2601C48.3239 32.2601 48.1212 32.2867 47.9079 32.3401C47.7052 32.3934 47.5292 32.4681 47.3799 32.5641C47.2412 32.6601 47.1719 32.7721 47.1719 32.9001V37.9241H45.6679V33.0921C45.6679 32.8361 45.5506 32.6387 45.3159 32.5001C45.0812 32.3507 44.7772 32.2761 44.4039 32.2761C44.1799 32.2761 43.9719 32.2974 43.7799 32.3401C43.5879 32.3721 43.4279 32.4201 43.2999 32.4841C43.1719 32.5481 43.0972 32.6334 43.0759 32.7401V37.9241H42.1799ZM54.3716 37.9881C53.8063 37.9881 53.4223 37.8547 53.2196 37.5881C53.017 37.3107 52.9156 36.9001 52.9156 36.3561L52.9316 31.5401H54.4196V36.2761C54.4196 36.6814 54.4676 36.9587 54.5636 37.1081C54.6703 37.2574 54.8463 37.3321 55.0916 37.3321C55.1876 37.3321 55.2943 37.3214 55.4116 37.3001C55.529 37.2787 55.6036 37.2627 55.6356 37.2521V37.8601C55.593 37.8707 55.5236 37.8867 55.4276 37.9081C55.3316 37.9294 55.1983 37.9454 55.0276 37.9561C54.857 37.9774 54.6383 37.9881 54.3716 37.9881ZM53.6996 30.6601C53.4543 30.6601 53.2676 30.6281 53.1396 30.5641C53.0223 30.4894 52.9636 30.3561 52.9636 30.1641C52.9636 29.9721 53.0223 29.8441 53.1396 29.7801C53.257 29.7054 53.4436 29.6681 53.6996 29.6681C53.945 29.6681 54.121 29.7054 54.2276 29.7801C54.345 29.8441 54.4036 29.9721 54.4036 30.1641C54.4036 30.3561 54.345 30.4894 54.2276 30.5641C54.121 30.6281 53.945 30.6601 53.6996 30.6601ZM58.218 37.9881C57.6527 37.9881 57.2474 37.8761 57.002 37.6521C56.7567 37.4174 56.634 37.0067 56.634 36.4201V30.4841C56.634 30.3134 56.6447 30.1854 56.666 30.1001C56.698 30.0041 56.7567 29.9401 56.842 29.9081C56.9274 29.8654 57.0554 29.8441 57.226 29.8441H58.154C58.154 29.8654 58.1434 29.9507 58.122 30.1001C58.1114 30.2494 58.106 30.4254 58.106 30.6281V36.2281C58.106 36.6227 58.154 36.9054 58.25 37.0761C58.346 37.2467 58.5274 37.3321 58.794 37.3321C58.8794 37.3321 58.9807 37.3214 59.098 37.3001C59.226 37.2787 59.306 37.2627 59.338 37.2521V37.8601C59.274 37.8707 59.162 37.8921 59.002 37.9241C58.842 37.9667 58.5807 37.9881 58.218 37.9881ZM63.2651 39.7001C62.7425 39.7001 62.2518 39.6734 61.7931 39.6201C61.3451 39.5774 60.9771 39.5027 60.6891 39.3961C60.4118 39.3001 60.2731 39.1774 60.2731 39.0281V38.5481C60.4438 38.6441 60.6731 38.7241 60.9611 38.7881C61.2598 38.8521 61.5691 38.9001 61.8891 38.9321C62.2198 38.9747 62.5345 38.9961 62.8331 38.9961C63.3451 38.9961 63.7558 38.9267 64.0651 38.7881C64.3851 38.6601 64.6198 38.4521 64.7691 38.1641C64.9185 37.8761 64.9931 37.5081 64.9931 37.0601V36.2761C64.8971 36.4894 64.7425 36.6654 64.5291 36.8041C64.3265 36.9427 64.0705 37.0441 63.7611 37.1081C63.4518 37.1614 63.0785 37.1881 62.6411 37.1881C61.9051 37.1881 61.3611 37.0814 61.0091 36.8681C60.6571 36.6547 60.4278 36.3507 60.3211 35.9561C60.2251 35.5614 60.1771 35.1027 60.1771 34.5801V32.2281C60.1771 32.0681 60.1878 31.9401 60.2091 31.8441C60.2305 31.7374 60.2785 31.6627 60.3531 31.6201C60.4278 31.5667 60.5505 31.5401 60.7211 31.5401H61.7131C61.7131 31.8174 61.7131 32.0734 61.7131 32.3081C61.7131 32.5427 61.7131 32.7721 61.7131 32.9961C61.7131 33.2094 61.7131 33.4387 61.7131 33.6841C61.7131 33.9187 61.7131 34.1747 61.7131 34.4521C61.7131 35.0601 61.7825 35.5081 61.9211 35.7961C62.0598 36.0734 62.2518 36.2494 62.4971 36.3241C62.7425 36.3987 63.0251 36.4361 63.3451 36.4361C63.6651 36.4361 63.9478 36.3934 64.1931 36.3081C64.4385 36.2121 64.6305 36.0307 64.7691 35.7641C64.9078 35.4974 64.9771 35.0974 64.9771 34.5641V31.5401H65.9531C66.1451 31.5401 66.2838 31.5667 66.3691 31.6201C66.4545 31.6734 66.4971 31.8281 66.4971 32.0841V36.9321C66.4971 37.8921 66.2411 38.5907 65.7291 39.0281C65.2171 39.4761 64.3958 39.7001 63.2651 39.7001Z" fill="#1C274C" fill-opacity="0.6"/>
</svg>
