<svg width="56" height="56" viewBox="0 0 56 56" fill="none" xmlns="http://www.w3.org/2000/svg">
<g opacity="0.5">
<rect x="0.238281" y="0.312012" width="55" height="55" rx="7" fill="black" fill-opacity="0.15"/>
</g>
<path d="M13.8804 26.2827L17.6304 16.6327C17.8638 16.016 18.2054 15.541 18.6554 15.2077C19.1054 14.8577 19.8304 14.6827 20.8304 14.6827C21.6638 14.6827 22.3221 14.841 22.8054 15.1577C23.2888 15.4744 23.6638 15.966 23.9304 16.6327L27.7304 26.2827H24.1054L23.0304 23.5077H17.4554L16.4554 26.2827H13.8804ZM18.0054 22.1827H22.4054L20.9554 18.1327C20.9054 17.966 20.8304 17.816 20.7304 17.6827C20.6471 17.5327 20.4804 17.4577 20.2304 17.4577C19.9471 17.4577 19.7554 17.5327 19.6554 17.6827C19.5721 17.816 19.4971 17.966 19.4304 18.1327L18.0054 22.1827ZM34.2097 26.4077C33.1097 26.4077 32.2181 26.366 31.5347 26.2827C30.8514 26.216 30.3264 26.0744 29.9597 25.8577C29.5931 25.6244 29.3431 25.3077 29.2097 24.9077C29.0764 24.5077 29.0097 23.9994 29.0097 23.3827C29.0097 22.5327 29.1014 21.8827 29.2847 21.4327C29.4681 20.9827 29.7764 20.6827 30.2097 20.5327C30.6597 20.366 31.2597 20.2827 32.0097 20.2827C32.4264 20.2827 32.8931 20.291 33.4097 20.3077C33.9431 20.3077 34.4597 20.316 34.9597 20.3327C35.4597 20.3494 35.8931 20.3827 36.2597 20.4327C36.6431 20.466 36.9014 20.4994 37.0347 20.5327C37.0347 19.9327 36.9847 19.4577 36.8847 19.1077C36.7847 18.7577 36.6181 18.491 36.3847 18.3077C36.1514 18.1244 35.8514 18.0077 35.4847 17.9577C35.1347 17.9077 34.7097 17.8827 34.2097 17.8827C33.6431 17.8827 33.0681 17.8994 32.4847 17.9327C31.9181 17.9494 31.3764 17.991 30.8597 18.0577C30.3597 18.1077 29.9181 18.1827 29.5347 18.2827V17.7077C29.5347 17.291 29.6347 16.991 29.8347 16.8077C30.0347 16.6077 30.2931 16.4744 30.6097 16.4077C30.9764 16.3244 31.5097 16.266 32.2097 16.2327C32.9264 16.1994 33.6847 16.1827 34.4847 16.1827C35.5181 16.1827 36.3847 16.2327 37.0847 16.3327C37.7847 16.4327 38.3431 16.6327 38.7597 16.9327C39.1931 17.2327 39.5014 17.6744 39.6847 18.2577C39.8681 18.8244 39.9597 19.591 39.9597 20.5577V25.6077C39.7597 25.891 39.1764 26.0994 38.2097 26.2327C37.2597 26.3494 35.9264 26.4077 34.2097 26.4077ZM34.1847 25.1077C34.7514 25.1077 35.2181 25.0994 35.5847 25.0827C35.9681 25.0494 36.2764 24.9994 36.5097 24.9327C36.7431 24.866 36.9181 24.7827 37.0347 24.6827V21.5827C36.8681 21.5327 36.6014 21.491 36.2347 21.4577C35.8847 21.4077 35.5264 21.3744 35.1597 21.3577C34.7931 21.3244 34.4847 21.3077 34.2347 21.3077C33.7347 21.3077 33.3264 21.3494 33.0097 21.4327C32.6931 21.4994 32.4597 21.666 32.3097 21.9327C32.1764 22.1994 32.1097 22.616 32.1097 23.1827C32.1097 23.6327 32.1597 24.0077 32.2597 24.3077C32.3597 24.591 32.5597 24.7994 32.8597 24.9327C33.1597 25.0494 33.6014 25.1077 34.1847 25.1077Z" fill="#1C274C"/>
<path d="M15.5854 46.5835V40.7455C15.5854 40.5962 15.5901 40.4795 15.5994 40.3955C15.6087 40.3115 15.6507 40.2508 15.7254 40.2135C15.8001 40.1668 15.9167 40.1435 16.0754 40.1435H21.8994V40.9415H17.0274V42.8315H21.4934V43.6295H17.0274V46.5835H15.5854ZM26.1084 46.6675C25.6417 46.6675 25.2264 46.6348 24.8624 46.5695C24.5077 46.4948 24.1997 46.3595 23.9384 46.1635C23.6864 45.9675 23.495 45.6782 23.3644 45.2955C23.2337 44.9128 23.1684 44.4135 23.1684 43.7975C23.1684 43.1815 23.2337 42.6822 23.3644 42.2995C23.495 41.9168 23.6864 41.6275 23.9384 41.4315C24.1997 41.2355 24.5077 41.1048 24.8624 41.0395C25.2264 40.9648 25.6417 40.9275 26.1084 40.9275C26.5564 40.9275 26.9577 40.9648 27.3124 41.0395C27.6764 41.1048 27.9844 41.2355 28.2364 41.4315C28.4884 41.6275 28.6797 41.9168 28.8104 42.2995C28.9504 42.6822 29.0204 43.1815 29.0204 43.7975C29.0204 44.4228 28.9504 44.9268 28.8104 45.3095C28.6797 45.6922 28.4884 45.9815 28.2364 46.1775C27.9844 46.3642 27.6764 46.4948 27.3124 46.5695C26.9577 46.6348 26.5564 46.6675 26.1084 46.6675ZM26.1084 45.9675C26.4444 45.9675 26.729 45.9162 26.9624 45.8135C27.205 45.7108 27.387 45.5055 27.5084 45.1975C27.6297 44.8895 27.6904 44.4228 27.6904 43.7975C27.6904 43.1722 27.6297 42.7055 27.5084 42.3975C27.387 42.0895 27.205 41.8842 26.9624 41.7815C26.729 41.6788 26.4444 41.6275 26.1084 41.6275C25.7724 41.6275 25.483 41.6788 25.2404 41.7815C24.9977 41.8842 24.811 42.0895 24.6804 42.3975C24.559 42.7055 24.4984 43.1722 24.4984 43.7975C24.4984 44.4228 24.559 44.8895 24.6804 45.1975C24.811 45.5055 24.9977 45.7108 25.2404 45.8135C25.483 45.9162 25.7724 45.9675 26.1084 45.9675ZM31.0227 46.5835C30.7614 46.5835 30.6307 46.4528 30.6307 46.1915V41.3755C30.9107 41.2635 31.2887 41.1655 31.7647 41.0815C32.2407 40.9882 32.782 40.9415 33.3887 40.9415C33.986 40.9415 34.462 40.9788 34.8167 41.0535C35.1807 41.1282 35.456 41.2495 35.6427 41.4175C35.8294 41.5762 35.9507 41.7862 36.0067 42.0475C36.072 42.3088 36.1047 42.6308 36.1047 43.0135V46.0515C36.1047 46.1822 36.0907 46.2895 36.0627 46.3735C36.044 46.4575 35.9927 46.5135 35.9087 46.5415C35.834 46.5695 35.7174 46.5835 35.5587 46.5835H34.7887V42.7335C34.7887 42.3695 34.6767 42.1082 34.4527 41.9495C34.2287 41.7908 33.874 41.7115 33.3887 41.7115C33.2394 41.7115 33.0714 41.7255 32.8847 41.7535C32.698 41.7722 32.5207 41.8048 32.3527 41.8515C32.1847 41.8982 32.0494 41.9588 31.9467 42.0335V46.5835H31.0227ZM39.4943 46.6255C39.121 46.6255 38.827 46.5835 38.6123 46.4995C38.407 46.4155 38.2577 46.2662 38.1643 46.0515C38.071 45.8368 38.0243 45.5475 38.0243 45.1835V41.7115H37.4643V40.9975H38.0243V40.0735C38.0243 39.9055 38.0383 39.7842 38.0663 39.7095C38.0943 39.6255 38.141 39.5742 38.2063 39.5555C38.281 39.5275 38.3883 39.5135 38.5283 39.5135H39.3403C39.3403 39.5322 39.3403 39.5742 39.3403 39.6395C39.3403 39.6955 39.3403 39.7795 39.3403 39.8915V40.9975H40.6563V41.7115H39.3403V45.0575C39.3403 45.4215 39.3777 45.6828 39.4523 45.8415C39.527 45.9908 39.7043 46.0655 39.9843 46.0655C40.0777 46.0655 40.1803 46.0562 40.2923 46.0375C40.4137 46.0188 40.4977 46.0002 40.5443 45.9815V46.5275C40.4883 46.5368 40.367 46.5555 40.1803 46.5835C39.9937 46.6115 39.765 46.6255 39.4943 46.6255Z" fill="#1C274C"/>
</svg>
