<svg width="19" height="19" viewBox="0 0 19 19" fill="none" xmlns="http://www.w3.org/2000/svg">
<path opacity="0.5" d="M15.9883 7.28701C15.9451 5.40292 15.7648 4.30243 15.0114 3.55053C14.0209 2.56201 12.4267 2.56201 9.23828 2.56201C6.0499 2.56201 4.45571 2.56201 3.4652 3.55053C2.71178 4.30243 2.53145 5.40292 2.48828 7.28701M15.9883 11.337C15.9451 13.2211 15.7648 14.3216 15.0114 15.0735C14.0209 16.062 12.4267 16.062 9.23828 16.062C6.0499 16.062 4.45571 16.062 3.4652 15.0735C2.71179 14.3216 2.53145 13.2211 2.48828 11.337" stroke="#1C274C" stroke-linecap="round"/>
<path d="M6.23828 6.31201H12.2383" stroke="#1C274C" stroke-linecap="round"/>
<path d="M9.23828 12.312L9.23828 6.31201" stroke="#1C274C" stroke-linecap="round"/>
<path d="M16.7383 9.31201H15.2383" stroke="#1C274C" stroke-linecap="round"/>
<path d="M3.23828 9.31201H1.73828" stroke="#1C274C" stroke-linecap="round"/>
</svg>
