<svg width="75" height="19" viewBox="0 0 75 19" fill="none" xmlns="http://www.w3.org/2000/svg">
<circle cx="1.23828" cy="9.31201" r="1" fill="black" fill-opacity="0.4"/>
<path opacity="0.5" d="M20.9883 7.28701C20.9451 5.40292 20.7648 4.30243 20.0114 3.55053C19.0209 2.56201 17.4267 2.56201 14.2383 2.56201C11.0499 2.56201 9.45571 2.56201 8.4652 3.55053C7.71178 4.30243 7.53145 5.40292 7.48828 7.28701M20.9883 11.337C20.9451 13.2211 20.7648 14.3216 20.0114 15.0735C19.0209 16.062 17.4267 16.062 14.2383 16.062C11.0499 16.062 9.45571 16.062 8.4652 15.0735C7.71179 14.3216 7.53145 13.2211 7.48828 11.337" stroke="#1C274C" stroke-linecap="round"/>
<path d="M11.2383 6.31201H17.2383" stroke="#1C274C" stroke-linecap="round"/>
<path d="M14.2383 12.312L14.2383 6.31201" stroke="#1C274C" stroke-linecap="round"/>
<path d="M21.7383 9.31201H20.2383" stroke="#1C274C" stroke-linecap="round"/>
<path d="M8.23828 9.31201H6.73828" stroke="#1C274C" stroke-linecap="round"/>
<circle cx="27.2383" cy="9.31201" r="1" fill="black" fill-opacity="0.4"/>
<path d="M32.4543 13.312V6.64001C32.4543 6.46934 32.4596 6.33601 32.4703 6.24001C32.4809 6.14401 32.5289 6.07468 32.6143 6.03201C32.6996 5.97868 32.8329 5.95201 33.0143 5.95201H39.6703V6.86401H34.1023V9.02401H39.2063V9.93601H34.1023V13.312H32.4543ZM44.1605 13.408C43.6272 13.408 43.1525 13.3707 42.7365 13.296C42.3312 13.2107 41.9792 13.056 41.6805 12.832C41.3925 12.608 41.1739 12.2773 41.0245 11.84C40.8752 11.4027 40.8005 10.832 40.8005 10.128C40.8005 9.42401 40.8752 8.85334 41.0245 8.41601C41.1739 7.97868 41.3925 7.64801 41.6805 7.42401C41.9792 7.20001 42.3312 7.05068 42.7365 6.97601C43.1525 6.89068 43.6272 6.84801 44.1605 6.84801C44.6725 6.84801 45.1312 6.89068 45.5365 6.97601C45.9525 7.05068 46.3045 7.20001 46.5925 7.42401C46.8805 7.64801 47.0992 7.97868 47.2485 8.41601C47.4085 8.85334 47.4885 9.42401 47.4885 10.128C47.4885 10.8427 47.4085 11.4187 47.2485 11.856C47.0992 12.2933 46.8805 12.624 46.5925 12.848C46.3045 13.0613 45.9525 13.2107 45.5365 13.296C45.1312 13.3707 44.6725 13.408 44.1605 13.408ZM44.1605 12.608C44.5445 12.608 44.8699 12.5493 45.1365 12.432C45.4139 12.3147 45.6219 12.08 45.7605 11.728C45.8992 11.376 45.9685 10.8427 45.9685 10.128C45.9685 9.41334 45.8992 8.88001 45.7605 8.52801C45.6219 8.17601 45.4139 7.94134 45.1365 7.82401C44.8699 7.70668 44.5445 7.64801 44.1605 7.64801C43.7765 7.64801 43.4459 7.70668 43.1685 7.82401C42.8912 7.94134 42.6779 8.17601 42.5285 8.52801C42.3899 8.88001 42.3205 9.41334 42.3205 10.128C42.3205 10.8427 42.3899 11.376 42.5285 11.728C42.6779 12.08 42.8912 12.3147 43.1685 12.432C43.4459 12.5493 43.7765 12.608 44.1605 12.608ZM49.4569 13.312C49.1582 13.312 49.0089 13.1627 49.0089 12.864V7.36001C49.3289 7.23201 49.7609 7.12001 50.3049 7.02401C50.8489 6.91734 51.4676 6.86401 52.1609 6.86401C52.8436 6.86401 53.3876 6.90668 53.7929 6.99201C54.2089 7.07734 54.5236 7.21601 54.7369 7.40801C54.9502 7.58934 55.0889 7.82934 55.1529 8.12801C55.2276 8.42668 55.2649 8.79468 55.2649 9.23201V12.704C55.2649 12.8533 55.2489 12.976 55.2169 13.072C55.1956 13.168 55.1369 13.232 55.0409 13.264C54.9556 13.296 54.8222 13.312 54.6409 13.312H53.7609V8.91201C53.7609 8.49601 53.6329 8.19734 53.3769 8.01601C53.1209 7.83468 52.7156 7.74401 52.1609 7.74401C51.9902 7.74401 51.7982 7.76001 51.5849 7.79201C51.3716 7.81334 51.1689 7.85068 50.9769 7.90401C50.7849 7.95734 50.6302 8.02668 50.5129 8.11201V13.312H49.4569ZM58.8188 13.36C58.3921 13.36 58.0561 13.312 57.8108 13.216C57.5761 13.12 57.4054 12.9493 57.2988 12.704C57.1921 12.4587 57.1388 12.128 57.1388 11.712V7.74401H56.4988V6.92801H57.1388V5.87201C57.1388 5.68001 57.1548 5.54134 57.1868 5.45601C57.2188 5.36001 57.2721 5.30134 57.3468 5.28001C57.4321 5.24801 57.5548 5.23201 57.7148 5.23201H58.6428C58.6428 5.25334 58.6428 5.30134 58.6428 5.37601C58.6428 5.44001 58.6428 5.53601 58.6428 5.66401V6.92801H60.1468V7.74401H58.6428V11.568C58.6428 11.984 58.6854 12.2827 58.7708 12.464C58.8561 12.6347 59.0588 12.72 59.3788 12.72C59.4854 12.72 59.6028 12.7093 59.7308 12.688C59.8694 12.6667 59.9654 12.6453 60.0188 12.624V13.248C59.9548 13.2587 59.8161 13.28 59.6028 13.312C59.3894 13.344 59.1281 13.36 58.8188 13.36ZM63.8323 13.376C63.6296 13.376 63.3896 13.3707 63.1123 13.36C62.8349 13.3493 62.5523 13.328 62.2643 13.296C61.9869 13.2533 61.7363 13.1947 61.5123 13.12C61.3736 13.088 61.2616 13.0453 61.1763 12.992C61.1016 12.9387 61.0429 12.848 61.0003 12.72C60.9683 12.5813 60.9523 12.3733 60.9523 12.096C61.2189 12.2133 61.5176 12.3093 61.8483 12.384C62.1789 12.448 62.5043 12.4907 62.8243 12.512C63.1549 12.5333 63.4376 12.544 63.6723 12.544C63.9603 12.544 64.2429 12.5333 64.5203 12.512C64.8083 12.4907 65.0696 12.4427 65.3043 12.368C65.5496 12.2933 65.7416 12.176 65.8803 12.016C66.0296 11.856 66.1043 11.6373 66.1043 11.36C66.1043 10.9867 66.0083 10.7467 65.8163 10.64C65.6243 10.5333 65.3576 10.48 65.0163 10.48H63.3363C62.9203 10.48 62.5309 10.4533 62.1683 10.4C61.8163 10.3467 61.5283 10.208 61.3043 9.98401C61.0909 9.76001 60.9843 9.38134 60.9843 8.84801C60.9843 8.26134 61.1283 7.82401 61.4163 7.53601C61.7043 7.24801 62.1096 7.06134 62.6323 6.97601C63.1656 6.89068 63.7896 6.84801 64.5043 6.84801C64.7709 6.84801 65.0803 6.85334 65.4323 6.86401C65.7949 6.87468 66.1309 6.90668 66.4403 6.96001C66.6963 6.98134 66.8989 7.02401 67.0483 7.08801C67.2083 7.14134 67.3256 7.22134 67.4003 7.32801C67.4749 7.42401 67.5123 7.57334 67.5123 7.77601V8.14401C67.4163 8.02668 67.2509 7.94134 67.0163 7.88801C66.7816 7.82401 66.5043 7.77601 66.1843 7.74401C65.8749 7.71201 65.5496 7.69601 65.2083 7.69601C64.8776 7.68534 64.5683 7.68001 64.2803 7.68001C63.9709 7.68001 63.6723 7.70134 63.3843 7.74401C63.1069 7.77601 62.8829 7.86668 62.7123 8.01601C62.5416 8.16534 62.4563 8.41068 62.4563 8.75201C62.4563 9.01868 62.5096 9.21068 62.6163 9.32801C62.7229 9.44534 62.8723 9.52001 63.0643 9.55201C63.2563 9.58401 63.4749 9.60001 63.7203 9.60001H65.4803C65.9069 9.60001 66.2803 9.63734 66.6003 9.71201C66.9203 9.78668 67.1709 9.94668 67.3523 10.192C67.5336 10.4373 67.6243 10.8213 67.6243 11.344C67.6243 11.9413 67.4589 12.384 67.1283 12.672C66.7976 12.96 66.3496 13.152 65.7843 13.248C65.2189 13.3333 64.5683 13.376 63.8323 13.376Z" fill="#1C274C"/>
<circle cx="73.2383" cy="9.31201" r="1" fill="black" fill-opacity="0.4"/>
</svg>
