<svg width="50" height="51" viewBox="0 0 50 51" fill="none" xmlns="http://www.w3.org/2000/svg">
<g clip-path="url(#clip0_2431_1609)">
<path d="M49.9212 48.4437L34.2962 1.56875C34.0806 0.93125 33.4837 0.5 32.8118 0.5H17.1868C16.6837 0.5 16.2118 0.740625 15.9181 1.15C15.6243 1.55625 15.5462 2.08125 15.7056 2.55625L29.5493 44.0906C30.8274 47.925 34.4024 50.5 38.4431 50.5H48.4368C48.9399 50.5 49.4118 50.2594 49.7024 49.85C49.9993 49.4437 50.0774 48.9188 49.9212 48.4437Z" fill="#4CAF50"/>
<path d="M34.0772 1.15C33.7866 0.740625 33.3147 0.5 32.8116 0.5H17.1866C16.5147 0.5 15.9178 0.93125 15.7053 1.56875L0.0803433 48.4437C-0.0790317 48.9188 0.00221832 49.4437 0.292843 49.85C0.586593 50.2594 1.05847 50.5 1.56159 50.5H11.5553C15.596 50.5 19.171 47.925 20.4491 44.0906L34.296 2.55625C34.4522 2.08125 34.3741 1.55625 34.0772 1.15Z" fill="#2196F3"/>
</g>
<defs>
<clipPath id="clip0_2431_1609">
<rect width="50" height="50" fill="white" transform="translate(0 0.5)"/>
</clipPath>
</defs>
</svg>
