<svg width="25" height="25" viewBox="0 0 25 25" fill="none" xmlns="http://www.w3.org/2000/svg">
<path fill-rule="evenodd" clip-rule="evenodd" d="M18.1689 11.1582C16.0476 11.1582 14.987 11.1582 14.328 10.4992C13.6689 9.84018 13.6689 8.77952 13.6689 6.6582C13.6689 4.53688 13.6689 3.47622 14.328 2.81721C14.987 2.1582 16.0476 2.1582 18.1689 2.1582C20.2903 2.1582 21.3509 2.1582 22.0099 2.81721C22.6689 3.47622 22.6689 4.53688 22.6689 6.6582C22.6689 8.77952 22.6689 9.84018 22.0099 10.4992C21.3509 11.1582 20.2903 11.1582 18.1689 11.1582ZM18.9189 4.6582C18.9189 4.24399 18.5832 3.9082 18.1689 3.9082C17.7547 3.9082 17.4189 4.24399 17.4189 4.6582V5.9082H16.1689C15.7547 5.9082 15.4189 6.24399 15.4189 6.6582C15.4189 7.07242 15.7547 7.4082 16.1689 7.4082H17.4189V8.6582C17.4189 9.07242 17.7547 9.4082 18.1689 9.4082C18.5832 9.4082 18.9189 9.07242 18.9189 8.6582V7.4082H20.1689C20.5832 7.4082 20.9189 7.07242 20.9189 6.6582C20.9189 6.24399 20.5832 5.9082 20.1689 5.9082H18.9189V4.6582Z" fill="#1C274C"/>
<path opacity="0.5" d="M22.6687 12.8561C22.6672 14.3256 22.656 15.5747 22.5725 16.5996C22.4756 17.789 22.277 18.7828 21.8326 19.6082C21.6365 19.9722 21.3956 20.2983 21.1023 20.5916C20.2699 21.4239 19.2094 21.801 17.8655 21.9817C16.5525 22.1582 14.8697 22.1582 12.7223 22.1582H12.6156C10.4682 22.1582 8.7854 22.1582 7.47239 21.9817C6.12845 21.801 5.06797 21.4239 4.23558 20.5916C3.49765 19.8536 3.11657 18.9352 2.91392 17.7958C2.71485 16.6766 2.67844 15.2841 2.67087 13.5549C2.66895 13.1151 2.66895 12.6499 2.66895 12.1591V12.1048C2.66893 9.95749 2.66892 8.27466 2.84545 6.96165C3.02614 5.61771 3.4032 4.55722 4.23558 3.72484C5.06797 2.89246 6.12845 2.5154 7.47239 2.33471C8.64006 2.17772 10.1424 2.16035 11.971 2.15844C12.3563 2.15804 12.6689 2.47056 12.6689 2.85588C12.6689 3.24119 12.3561 3.5534 11.9708 3.55381C10.1164 3.55577 8.73645 3.57267 7.65832 3.71762C6.46911 3.8775 5.75216 4.18159 5.22224 4.7115C4.69233 5.24142 4.38825 5.95836 4.22836 7.14758C4.06578 8.35686 4.06429 9.9459 4.06429 12.1582C4.06429 12.4284 4.0643 12.6896 4.06461 12.9426L4.9959 12.1278C5.8436 11.386 7.12119 11.4286 7.91767 12.225L11.9081 16.2155C12.5474 16.8548 13.5537 16.9419 14.2934 16.4221L14.5708 16.2271C15.6352 15.4791 17.0753 15.5658 18.0423 16.4361L20.6753 18.8058C20.9403 18.2492 21.0977 17.5179 21.1818 16.4863C21.261 15.5143 21.2719 14.3337 21.2734 12.8561C21.2738 12.4708 21.586 12.1582 21.9713 12.1582C22.3566 12.1582 22.6691 12.4707 22.6687 12.8561Z" fill="#1C274C"/>
</svg>
