<svg width="50" height="51" viewBox="0 0 50 51" fill="none" xmlns="http://www.w3.org/2000/svg">
<path d="M50.0014 26.0696C50.0014 24.2423 49.8344 22.4938 49.5244 20.8125H25.5322V30.4451L39.3498 30.4481C38.7893 33.6531 36.9857 36.3853 34.2222 38.2067V44.4563H42.4472C47.2498 40.1041 50.0014 33.6706 50.0014 26.0696Z" fill="#4285F4"/>
<path d="M34.2264 38.2082C31.9369 39.7203 28.9886 40.6047 25.5394 40.6047C18.8765 40.6047 13.2243 36.2087 11.2001 30.2832H2.71582V36.7283C6.91922 44.8956 15.5585 50.5001 25.5394 50.5001C32.4377 50.5001 38.233 48.2787 42.4514 44.4549L34.2264 38.2082Z" fill="#34A853"/>
<path d="M10.4002 25.5028C10.4002 23.8389 10.6834 22.2306 11.1991 20.7186V14.2734H2.71484C0.976835 17.6507 -0.000976562 21.4629 -0.000976562 25.5028C-0.000976562 29.5426 0.979817 33.3548 2.71484 36.7321L11.1991 30.287C10.671 28.7449 10.4012 27.1293 10.4002 25.5028Z" fill="#FABB05"/>
<path d="M25.5394 10.3954C29.3046 10.3954 32.6762 11.6651 35.3384 14.1462L42.6272 7.01517C38.2003 2.97822 32.4288 0.5 25.5394 0.5C15.5615 0.5 6.91922 6.10445 2.71582 14.2718L11.2001 20.7169C13.2243 14.7913 18.8765 10.3954 25.5394 10.3954Z" fill="#E94235"/>
</svg>
