<svg width="42" height="51" viewBox="0 0 42 51" fill="none" xmlns="http://www.w3.org/2000/svg">
<path d="M37.8821 13.418C37.9679 12.7215 38.0109 12.0204 38.011 11.3187C38.011 5.34375 33.1673 0.5 27.1923 0.5H9.11207C7.97476 0.5 7.00377 1.32129 6.8151 2.44277L0.152988 42.0399C-0.0860742 43.4608 1.00924 44.7557 2.44996 44.7557H9.06236C10.1997 44.7557 11.1889 43.935 11.3775 42.8134L11.4085 42.6293H11.4086L10.4871 48.1064C10.2765 49.3587 11.2419 50.5 12.5117 50.5H18.2965C19.299 50.5 20.1548 49.7761 20.3211 48.7876L21.9645 39.02C22.2478 37.3362 23.7055 36.1033 25.4129 36.1033H26.9326C35.1875 36.1033 41.8793 29.4114 41.8793 21.1566C41.8793 17.9624 40.3004 15.1389 37.8821 13.418Z" fill="#002987"/>
<path d="M37.8819 13.418C36.8473 21.8339 29.6745 28.3506 20.979 28.3506H15.9335C14.7948 28.3506 13.8113 29.1091 13.5028 30.1815L10.487 48.1062C10.2763 49.3586 11.2417 50.5 12.5115 50.5H18.2963C19.2988 50.5 20.1546 49.7761 20.3209 48.7876L21.9643 39.02C22.2476 37.3362 23.7053 36.1033 25.4127 36.1033H26.9324C35.1873 36.1033 41.8791 29.4114 41.8791 21.1566C41.8791 17.9624 40.3002 15.1389 37.8819 13.418Z" fill="#0085CC"/>
<path d="M15.9338 28.3503H20.9792C29.6748 28.3503 36.8477 21.8336 37.8821 13.4178C36.3306 12.3137 34.4345 11.6621 32.3851 11.6621H19.2161C17.7168 11.6621 16.4366 12.7448 16.1878 14.2233L13.5029 30.1812C13.8114 29.1087 14.795 28.3503 15.9338 28.3503Z" fill="#00186A"/>
</svg>
