<svg width="28" height="28" viewBox="0 0 28 28" fill="none" xmlns="http://www.w3.org/2000/svg">
<path d="M19.2566 0.0338661C18.9094 -0.0501511 18.5397 0.0282649 18.2596 0.252311C17.9796 0.470755 17.8115 0.812425 17.8115 1.1709V20.1196C16.8313 19.5763 15.6159 19.2514 14.2772 19.2514C10.9894 19.2514 8.40723 21.1726 8.40723 23.6259C8.40723 26.0792 10.9838 28.0004 14.2772 28.0004C17.5707 28.0004 20.1472 26.0792 20.1472 23.6259C20.1472 23.5083 20.136 23.3962 20.1248 23.2786C20.1416 23.2058 20.1472 23.133 20.1472 23.0546V2.78403C22.186 3.59059 25.67 5.48938 25.67 9.02931C25.67 9.67344 26.1909 10.1943 26.835 10.1943C27.4791 10.1943 28 9.67344 28 9.02931C28.0056 2.24072 19.6095 0.123484 19.2566 0.0338661Z" fill="url(#paint0_linear_2425_3068)"/>
<path d="M1.16504 2.33568H15.0167C15.6608 2.33568 16.1817 1.81477 16.1817 1.17064C16.1817 0.526508 15.6664 0 15.0223 0H1.16504C0.520907 0 0 0.520907 0 1.16504C0 1.80917 0.520907 2.33568 1.16504 2.33568Z" fill="url(#paint1_linear_2425_3068)"/>
<path d="M1.16504 9.64453H15.0167C15.6608 9.64453 16.1817 9.12362 16.1817 8.47949C16.1817 7.83536 15.6608 7.31445 15.0167 7.31445H1.16504C0.520907 7.31445 0 7.83536 0 8.47949C0 9.12362 0.520907 9.64453 1.16504 9.64453Z" fill="url(#paint2_linear_2425_3068)"/>
<path d="M1.16504 16.96H14.9607C15.6048 16.96 16.1257 16.4391 16.1257 15.7949C16.1257 15.1508 15.6048 14.6299 14.9607 14.6299H1.16504C0.520907 14.6299 0 15.1508 0 15.7949C0 16.4391 0.520907 16.96 1.16504 16.96Z" fill="url(#paint3_linear_2425_3068)"/>
<path d="M5.80279 21.9395H1.16504C0.520907 21.9395 0 22.4604 0 23.1045C0 23.7486 0.520907 24.2695 1.16504 24.2695H5.80279C6.44692 24.2695 6.96783 23.7486 6.96783 23.1045C6.96783 22.4604 6.44692 21.9395 5.80279 21.9395Z" fill="url(#paint4_linear_2425_3068)"/>
<defs>
<linearGradient id="paint0_linear_2425_3068" x1="4.34247" y1="27.5366" x2="26.0833" y2="5.79577" gradientUnits="userSpaceOnUse">
<stop stop-color="#BB33DD"/>
<stop offset="1" stop-color="#FF5160"/>
</linearGradient>
<linearGradient id="paint1_linear_2425_3068" x1="0" y1="1.16728" x2="16.1873" y2="1.16728" gradientUnits="userSpaceOnUse">
<stop stop-color="#F3AA0F"/>
<stop offset="1" stop-color="#FED46E"/>
</linearGradient>
<linearGradient id="paint2_linear_2425_3068" x1="0" y1="8.47949" x2="16.1873" y2="8.47949" gradientUnits="userSpaceOnUse">
<stop stop-color="#F3AA0F"/>
<stop offset="1" stop-color="#FED46E"/>
</linearGradient>
<linearGradient id="paint3_linear_2425_3068" x1="0" y1="15.7938" x2="16.1279" y2="15.7938" gradientUnits="userSpaceOnUse">
<stop stop-color="#F3AA0F"/>
<stop offset="1" stop-color="#FED46E"/>
</linearGradient>
<linearGradient id="paint4_linear_2425_3068" x1="0" y1="23.1067" x2="6.97175" y2="23.1067" gradientUnits="userSpaceOnUse">
<stop stop-color="#F3AA0F"/>
<stop offset="1" stop-color="#FED46E"/>
</linearGradient>
</defs>
</svg>
