<svg width="21" height="21" viewBox="0 0 21 21" fill="none" xmlns="http://www.w3.org/2000/svg">
<path opacity="0.5" d="M2.82471 9.6047C2.82471 6.94005 2.82471 5.60772 3.1393 5.15949C3.4539 4.71127 4.70664 4.28245 7.21213 3.42481L7.68948 3.26142C8.99553 2.81435 9.64855 2.59082 10.3247 2.59082C11.0009 2.59082 11.6539 2.81435 12.9599 3.26142L13.4373 3.42481C15.9428 4.28245 17.1955 4.71127 17.5101 5.15949C17.8247 5.60772 17.8247 6.94005 17.8247 9.6047C17.8247 10.0072 17.8247 10.4437 17.8247 10.917C17.8247 15.6153 14.2922 17.8954 12.0759 18.8635C11.4747 19.1262 11.1741 19.2575 10.3247 19.2575C9.47532 19.2575 9.17472 19.1262 8.57351 18.8635C6.35718 17.8954 2.82471 15.6153 2.82471 10.917C2.82471 10.4437 2.82471 10.0072 2.82471 9.6047Z" stroke="white"/>
<path d="M14.4914 10.924C14.4914 11.4712 14.3836 12.013 14.1742 12.5185C13.9648 13.024 13.6579 13.4834 13.271 13.8703C12.8841 14.2572 12.4247 14.5641 11.9192 14.7735C11.4137 14.9829 10.8719 15.0907 10.3247 15.0907C9.77751 15.0907 9.2357 14.9829 8.73017 14.7735C8.22465 14.5641 7.76532 14.2572 7.37841 13.8703C6.9915 13.4834 6.68458 13.024 6.47519 12.5185C6.26579 12.013 6.15802 11.4712 6.15802 10.924C6.15802 10.3768 6.26579 9.835 6.47519 9.32948C6.68458 8.82395 6.9915 8.36462 7.37841 7.97771C7.76532 7.5908 8.22465 7.28389 8.73017 7.07449C9.2357 6.8651 9.77751 6.75732 10.3247 6.75732C10.8719 6.75732 11.4137 6.8651 11.9192 7.07449C12.4247 7.28389 12.8841 7.5908 13.271 7.97771C13.6579 8.36462 13.9648 8.82395 14.1742 9.32948C14.3836 9.835 14.4914 10.3768 14.4914 10.924L14.4914 10.924Z" stroke="white"/>
<path d="M11.8645 12.5185C11.9482 12.013 11.9914 11.4712 11.9914 10.924C11.9914 10.3768 11.9482 9.835 11.8645 9.32948C11.7807 8.82395 11.658 8.36462 11.5032 7.97771C11.3484 7.5908 11.1647 7.28389 10.9625 7.07449C10.7603 6.8651 10.5436 6.75732 10.3247 6.75732C10.1058 6.75732 9.88909 6.8651 9.68688 7.07449C9.48467 7.28389 9.30094 7.5908 9.14618 7.97771C8.99141 8.36462 8.86865 8.82395 8.78489 9.32948C8.70113 9.835 8.65802 10.3768 8.65802 10.924C8.65802 11.4712 8.70113 12.013 8.78489 12.5185C8.86864 13.024 8.99141 13.4834 9.14617 13.8703C9.30094 14.2572 9.48467 14.5641 9.68688 14.7735C9.88909 14.9829 10.1058 15.0907 10.3247 15.0907C10.5436 15.0907 10.7603 14.9829 10.9625 14.7735C11.1647 14.5641 11.3484 14.2572 11.5032 13.8703C11.658 13.4834 11.7807 13.024 11.8645 12.5185Z" stroke="white"/>
<path d="M6.15802 10.9241H14.4914" stroke="white" stroke-linecap="round"/>
</svg>
