<svg width="57" height="62" viewBox="0 0 57 62" fill="none" xmlns="http://www.w3.org/2000/svg">
<g opacity="0.5">
<rect x="1" y="1.11865" width="55" height="60" rx="10" fill="white" stroke="#1BC469"/>
</g>
<path opacity="0.5" fill-rule="evenodd" clip-rule="evenodd" d="M13.5 34.7985C13.5 34.0705 14.0756 33.4802 14.7857 33.4802H42.2143C42.9244 33.4802 43.5 34.0705 43.5 34.7985C43.5 35.5266 42.9244 36.1168 42.2143 36.1168H14.7857C14.0756 36.1168 13.5 35.5266 13.5 34.7985Z" fill="#1BC469" stroke="#1BC469" stroke-width="1.5" stroke-linecap="round"/>
<path opacity="0.5" d="M38.6852 13.8215C40.4405 12.0593 40.4405 9.20237 38.6852 7.44025C36.9298 5.67812 34.0838 5.67812 32.3284 7.44025L31.3145 8.45807C31.3284 8.50016 31.3428 8.54283 31.3577 8.58605C31.7294 9.66136 32.4306 11.071 33.7497 12.3952C35.0687 13.7193 36.473 14.4232 37.5441 14.7963C37.587 14.8112 37.6293 14.8256 37.6711 14.8395L38.6852 13.8215Z" fill="#1BC469" stroke="#1BC469" stroke-width="1.20026"/>
<path d="M31.3576 8.41235L31.314 8.45618C31.3279 8.49827 31.3423 8.54094 31.3572 8.58416C31.7289 9.65947 32.43 11.0691 33.7491 12.3933C35.0682 13.7174 36.4724 14.4213 37.5436 14.7944C37.5861 14.8092 37.6281 14.8235 37.6695 14.8372L27.8846 24.6598C27.2249 25.322 26.895 25.6532 26.5313 25.938C26.1022 26.2739 25.638 26.5619 25.1468 26.7969C24.7305 26.9961 24.2879 27.1442 23.4028 27.4404L18.7354 29.0022C18.2998 29.1479 17.8196 29.0341 17.495 28.7082C17.1703 28.3823 17.0569 27.9002 17.2021 27.463L18.7579 22.7776C19.053 21.8891 19.2005 21.4449 19.3989 21.0269C19.633 20.5338 19.9199 20.0678 20.2546 19.6371C20.5382 19.272 20.8681 18.9409 21.5277 18.2787L31.3576 8.41235Z" fill="#1BC469" stroke="#1BC469" stroke-width="1.20026"/>
<path d="M16.6914 48.6767H23.4674V49.4747H20.8074V54.5707C20.8074 54.776 20.7747 54.9207 20.7094 55.0047C20.6534 55.0794 20.518 55.1167 20.3034 55.1167H19.3654V49.4747H16.6914V48.6767ZM27.0967 55.2007C26.5273 55.2007 26.0467 55.1634 25.6547 55.0887C25.272 55.014 24.964 54.874 24.7307 54.6687C24.5067 54.4634 24.348 54.1787 24.2547 53.8147C24.1613 53.4507 24.1147 52.9794 24.1147 52.4007C24.1147 51.71 24.2033 51.15 24.3807 50.7207C24.558 50.2914 24.8707 49.9787 25.3187 49.7827C25.776 49.5774 26.4107 49.4747 27.2227 49.4747C27.8573 49.4747 28.3613 49.554 28.7347 49.7127C29.1173 49.862 29.3927 50.1 29.5607 50.4267C29.7287 50.7534 29.8127 51.1687 29.8127 51.6727V52.5687H25.8787C25.8787 52.4194 25.9113 52.298 25.9767 52.2047C26.042 52.1114 26.1633 52.0647 26.3407 52.0647H28.6367L28.6227 51.7007C28.6133 51.178 28.5013 50.7954 28.2867 50.5527C28.0813 50.31 27.708 50.1887 27.1667 50.1887C26.7187 50.1887 26.3687 50.2587 26.1167 50.3987C25.8647 50.5387 25.6873 50.7674 25.5847 51.0847C25.482 51.3927 25.4307 51.822 25.4307 52.3727C25.4307 52.942 25.4867 53.376 25.5987 53.6747C25.72 53.964 25.916 54.16 26.1867 54.2627C26.4667 54.3654 26.854 54.4167 27.3487 54.4167C27.526 54.4167 27.7313 54.412 27.9647 54.4027C28.2073 54.3934 28.45 54.3794 28.6927 54.3607C28.9447 54.342 29.1687 54.3187 29.3647 54.2907C29.5607 54.2627 29.6913 54.2347 29.7567 54.2067V54.4027C29.7567 54.5054 29.7333 54.608 29.6867 54.7107C29.64 54.8134 29.542 54.8974 29.3927 54.9627C29.1967 55.056 28.9073 55.1167 28.5247 55.1447C28.1513 55.182 27.6753 55.2007 27.0967 55.2007ZM30.5892 55.1167L32.7172 52.3447L30.9952 50.0067C30.9299 49.904 30.8646 49.8107 30.7992 49.7267C30.7432 49.6427 30.6779 49.5727 30.6032 49.5167H32.2832L33.6972 51.4207L35.1672 49.5307H36.1752C36.1472 49.5587 36.1099 49.596 36.0632 49.6427C36.0259 49.6894 35.9792 49.75 35.9232 49.8247L34.2572 52.1627L36.4412 55.1167H35.3492C35.1626 55.1167 34.9946 55.084 34.8452 55.0187C34.7052 54.944 34.5792 54.8367 34.4672 54.6967L33.2072 53.0307L31.6112 55.1167H30.5892ZM39.1418 55.1587C38.7685 55.1587 38.4745 55.1167 38.2598 55.0327C38.0545 54.9487 37.9051 54.7994 37.8118 54.5847C37.7185 54.37 37.6718 54.0807 37.6718 53.7167V50.2447H37.1118V49.5307H37.6718V48.6067C37.6718 48.4387 37.6858 48.3174 37.7138 48.2427C37.7418 48.1587 37.7885 48.1074 37.8538 48.0887C37.9285 48.0607 38.0358 48.0467 38.1758 48.0467H38.9878C38.9878 48.0654 38.9878 48.1074 38.9878 48.1727C38.9878 48.2287 38.9878 48.3127 38.9878 48.4247V49.5307H40.3038V50.2447H38.9878V53.5907C38.9878 53.9547 39.0251 54.216 39.0998 54.3747C39.1745 54.524 39.3518 54.5987 39.6318 54.5987C39.7251 54.5987 39.8278 54.5894 39.9398 54.5707C40.0611 54.552 40.1451 54.5334 40.1918 54.5147V55.0607C40.1358 55.07 40.0145 55.0887 39.8278 55.1167C39.6411 55.1447 39.4125 55.1587 39.1418 55.1587Z" fill="#1C274C"/>
</svg>
