<svg width="55" height="61" viewBox="0 0 55 61" fill="none" xmlns="http://www.w3.org/2000/svg">
<g opacity="0.5">
<rect y="0.118652" width="55" height="60" rx="10" fill="#D9D9D9"/>
</g>
<path d="M36.1205 19.8215C36.1205 20.9295 35.1336 21.8278 33.9161 21.8278C32.6987 21.8278 31.7117 20.9295 31.7117 19.8215C31.7117 18.7135 32.6987 17.8152 33.9161 17.8152C35.1336 17.8152 36.1205 18.7135 36.1205 19.8215Z" fill="#1C274C"/>
<path fill-rule="evenodd" clip-rule="evenodd" d="M37.5223 12.9805C36.1083 12.7995 34.2858 12.7995 32.0142 12.7996H22.5918C20.3202 12.7995 18.4976 12.7995 17.0836 12.9805C15.6207 13.1678 14.4022 13.5696 13.4964 14.5113C12.5905 15.453 12.3139 16.6053 12.3033 17.9498C12.293 19.2494 12.5339 20.8936 12.8342 22.9429L13.4433 27.1006C13.678 28.7027 13.8679 29.9994 14.1632 31.0148C14.4706 32.0717 14.9245 32.948 15.776 33.6266C16.6276 34.3051 17.6419 34.5987 18.8337 34.7364C19.9786 34.8686 21.4159 34.8686 23.1918 34.8685H31.4141C33.19 34.8686 34.6274 34.8686 35.7723 34.7364C36.964 34.5987 37.9784 34.3051 38.8299 33.6266C39.6815 32.948 40.1353 32.0717 40.4427 31.0148C40.738 29.9994 40.928 28.7027 41.1627 27.1005L41.7718 22.9429C42.072 20.8936 42.3129 19.2494 42.3027 17.9498C42.2921 16.6053 42.0155 15.453 41.1096 14.5113C40.2037 13.5696 38.9853 13.1678 37.5223 12.9805ZM17.3906 14.9672C16.1791 15.1223 15.5663 15.4052 15.1549 15.8329C14.7435 16.2606 14.5164 16.8508 14.5076 17.9642C14.4986 19.1062 14.7164 20.6102 15.0307 22.7558L15.114 23.3248L15.7333 22.9165C17.3315 21.8631 19.6928 21.9149 21.2126 23.0598L26.8531 27.309C27.3862 27.7106 28.3048 27.7856 28.9678 27.4346L29.3599 27.2271C31.2354 26.2341 33.7489 26.3388 35.4795 27.5122L38.5326 29.5822C38.6831 28.8388 38.818 27.9249 38.9874 26.7684L39.5753 22.7558C39.8896 20.6102 40.1074 19.1062 40.0983 17.9642C40.0896 16.8508 39.8625 16.2606 39.451 15.8329C39.0396 15.4052 38.4268 15.1223 37.2153 14.9672C35.9728 14.8082 34.306 14.8058 31.9276 14.8058H22.6783C20.3 14.8058 18.6332 14.8082 17.3906 14.9672Z" fill="#1C274C"/>
<g opacity="0.7">
<path d="M18.769 8.61841C16.6831 8.61841 14.9727 9.87802 14.4019 11.5491C14.39 11.5839 14.3786 11.6189 14.3677 11.6541C14.9649 11.4732 15.5864 11.3551 16.2156 11.2744C17.8362 11.0667 19.8842 11.0668 22.2633 11.0669L22.4409 11.0669L32.6014 11.0669C34.9805 11.0668 37.0285 11.0667 38.649 11.2744C39.2782 11.3551 39.8998 11.4732 40.497 11.6541C40.4861 11.6189 40.4747 11.5839 40.4628 11.5491C39.892 9.87802 38.1816 8.61841 36.0957 8.61841H18.769Z" fill="#1C274C"/>
</g>
<g opacity="0.4">
<path d="M22.068 4.86842H32.5382C32.8869 4.86833 33.1543 4.86827 33.388 4.89113C35.0497 5.05368 36.4099 6.05277 36.9866 7.39855H17.6196C18.1964 6.05277 19.5565 5.05368 21.2183 4.89113C21.452 4.86827 21.7193 4.86833 22.068 4.86842Z" fill="#1C274C"/>
</g>
<path d="M7.4724 54.1167C7.4724 53.1274 7.4724 52.1427 7.4724 51.1627C7.4724 50.1734 7.4724 49.1887 7.4724 48.2087C7.4724 48.0874 7.47706 47.9894 7.4864 47.9147C7.50506 47.84 7.54706 47.784 7.6124 47.7467C7.68706 47.7 7.80373 47.6767 7.9624 47.6767H8.9144V54.1167H7.4724ZM11.5451 54.1167C11.3304 54.1167 11.1858 54.084 11.1111 54.0187C11.0458 53.9534 11.0131 53.8134 11.0131 53.5987V48.9227C11.1158 48.8947 11.2464 48.8574 11.4051 48.8107C11.5731 48.764 11.7644 48.7174 11.9791 48.6707C12.2031 48.6147 12.4458 48.5727 12.7071 48.5447C12.9778 48.5167 13.2578 48.5027 13.5471 48.5027C13.8831 48.5027 14.1724 48.5307 14.4151 48.5867C14.6578 48.6334 14.8678 48.7267 15.0451 48.8667C15.2224 48.9974 15.3671 49.1887 15.4791 49.4407L15.2551 49.4267C15.3298 49.2494 15.4418 49.1 15.5911 48.9787C15.7404 48.848 15.9084 48.75 16.0951 48.6847C16.2911 48.61 16.4918 48.5587 16.6971 48.5307C16.9024 48.5027 17.0938 48.4887 17.2711 48.4887C17.8311 48.4887 18.2698 48.5447 18.5871 48.6567C18.9138 48.7594 19.1424 48.9367 19.2731 49.1887C19.4131 49.4407 19.4831 49.786 19.4831 50.2247V53.6407C19.4831 53.8367 19.4458 53.9674 19.3711 54.0327C19.3058 54.0887 19.1751 54.1167 18.9791 54.1167H18.1811C18.1811 53.4634 18.1811 52.81 18.1811 52.1567C18.1811 51.5034 18.1811 50.8454 18.1811 50.1827C18.1718 49.7814 18.0784 49.5107 17.9011 49.3707C17.7238 49.2307 17.4531 49.1607 17.0891 49.1607C16.9211 49.1607 16.7438 49.184 16.5571 49.2307C16.3798 49.2774 16.2258 49.3427 16.0951 49.4267C15.9738 49.5107 15.9131 49.6087 15.9131 49.7207V54.1167H14.5971V49.8887C14.5971 49.6647 14.4944 49.492 14.2891 49.3707C14.0838 49.24 13.8178 49.1747 13.4911 49.1747C13.2951 49.1747 13.1131 49.1934 12.9451 49.2307C12.7771 49.2587 12.6371 49.3007 12.5251 49.3567C12.4131 49.4127 12.3478 49.4874 12.3291 49.5807V54.1167H11.5451ZM23.7669 54.2007C23.1882 54.2007 22.7169 54.1727 22.3529 54.1167C21.9889 54.07 21.7089 53.9814 21.5129 53.8507C21.3169 53.72 21.1815 53.5427 21.1069 53.3187C21.0415 53.0947 21.0089 52.8147 21.0089 52.4787C21.0089 52.0027 21.0602 51.6434 21.1629 51.4007C21.2749 51.1487 21.4615 50.976 21.7229 50.8827C21.9935 50.7894 22.3529 50.7427 22.8009 50.7427C23.0342 50.7427 23.2909 50.7474 23.5709 50.7567C23.8602 50.766 24.1355 50.78 24.3969 50.7987C24.6675 50.808 24.9009 50.822 25.0969 50.8407C25.3022 50.8594 25.4375 50.8827 25.5029 50.9107C25.5029 50.5187 25.4702 50.2107 25.4049 49.9867C25.3395 49.7627 25.2322 49.5947 25.0829 49.4827C24.9429 49.3707 24.7655 49.296 24.5509 49.2587C24.3362 49.2214 24.0842 49.2027 23.7949 49.2027C23.4775 49.2027 23.1602 49.212 22.8429 49.2307C22.5349 49.2494 22.2409 49.282 21.9609 49.3287C21.6902 49.3754 21.4662 49.436 21.2889 49.5107V49.2447C21.2889 49.03 21.3449 48.876 21.4569 48.7827C21.5782 48.6894 21.7229 48.6287 21.8909 48.6007C22.0775 48.554 22.3529 48.5167 22.7169 48.4887C23.0809 48.4607 23.4682 48.4514 23.8789 48.4607C24.4015 48.4607 24.8449 48.4887 25.2089 48.5447C25.5822 48.5914 25.8809 48.694 26.1049 48.8527C26.3382 49.0114 26.5062 49.2494 26.6089 49.5667C26.7209 49.884 26.7769 50.3087 26.7769 50.8407V53.6967C26.6929 53.874 26.4082 54.0047 25.9229 54.0887C25.4375 54.1634 24.7189 54.2007 23.7669 54.2007ZM23.7669 53.6127C24.1402 53.6127 24.4435 53.6034 24.6769 53.5847C24.9195 53.5567 25.1062 53.524 25.2369 53.4867C25.3675 53.44 25.4562 53.384 25.5029 53.3187V51.3867C25.4189 51.3587 25.2695 51.3354 25.0549 51.3167C24.8402 51.2887 24.6162 51.2654 24.3829 51.2467C24.1495 51.228 23.9535 51.2187 23.7949 51.2187C23.4495 51.2187 23.1695 51.242 22.9549 51.2887C22.7402 51.3354 22.5862 51.4427 22.4929 51.6107C22.3995 51.7787 22.3529 52.04 22.3529 52.3947C22.3529 52.684 22.3855 52.9174 22.4509 53.0947C22.5162 53.272 22.6469 53.4027 22.8429 53.4867C23.0482 53.5707 23.3562 53.6127 23.7669 53.6127ZM30.9912 55.7407C30.7205 55.7407 30.4499 55.7314 30.1792 55.7127C29.9085 55.694 29.6565 55.6614 29.4232 55.6147C29.1992 55.568 29.0125 55.498 28.8632 55.4047C28.7232 55.3207 28.6532 55.2087 28.6532 55.0687C28.6532 55.0314 28.6532 54.98 28.6532 54.9147C28.6532 54.8494 28.6532 54.8027 28.6532 54.7747C28.7745 54.84 28.9565 54.896 29.1992 54.9427C29.4512 54.9987 29.7172 55.0407 29.9972 55.0687C30.2865 55.106 30.5385 55.1247 30.7532 55.1247C31.2945 55.1247 31.7099 55.0454 31.9992 54.8867C32.2885 54.728 32.4845 54.4714 32.5872 54.1167C32.6899 53.7714 32.7225 53.3094 32.6852 52.7307H32.9092C32.8159 53.0387 32.6619 53.2767 32.4472 53.4447C32.2419 53.6127 31.9899 53.7294 31.6912 53.7947C31.3925 53.86 31.0565 53.8927 30.6832 53.8927C30.1325 53.8927 29.6752 53.8274 29.3112 53.6967C28.9565 53.5567 28.6952 53.3 28.5272 52.9267C28.3685 52.5534 28.2892 52.012 28.2892 51.3027C28.2892 50.7054 28.3405 50.2247 28.4432 49.8607C28.5552 49.4874 28.7325 49.2027 28.9752 49.0067C29.2272 48.8014 29.5492 48.666 29.9412 48.6007C30.3425 48.526 30.8372 48.4887 31.4252 48.4887C31.6212 48.4887 31.8545 48.498 32.1252 48.5167C32.3959 48.5354 32.6619 48.554 32.9232 48.5727C33.1939 48.5914 33.4272 48.61 33.6232 48.6287C33.8285 48.6474 33.9685 48.6614 34.0432 48.6707C34.0339 48.6987 34.0245 48.7734 34.0152 48.8947C34.0152 49.016 34.0152 49.156 34.0152 49.3147C34.0152 49.464 34.0152 49.6134 34.0152 49.7627L34.0012 53.0807C34.0012 53.762 33.8985 54.294 33.6932 54.6767C33.4879 55.0687 33.1612 55.344 32.7132 55.5027C32.2745 55.6614 31.7005 55.7407 30.9912 55.7407ZM31.0472 53.1367C31.3552 53.1367 31.6305 53.0994 31.8732 53.0247C32.1159 52.95 32.3119 52.824 32.4612 52.6467C32.6199 52.4694 32.6992 52.2267 32.6992 51.9187V49.3427C32.6152 49.324 32.4379 49.3007 32.1672 49.2727C31.8965 49.2447 31.5839 49.2307 31.2292 49.2307C30.8279 49.2307 30.5105 49.282 30.2772 49.3847C30.0439 49.4874 29.8759 49.6787 29.7732 49.9587C29.6705 50.2387 29.6192 50.6447 29.6192 51.1767C29.6192 51.6994 29.6659 52.1054 29.7592 52.3947C29.8619 52.6747 30.0159 52.8707 30.2212 52.9827C30.4265 53.0854 30.7019 53.1367 31.0472 53.1367ZM38.5649 54.2007C37.9955 54.2007 37.5149 54.1634 37.1229 54.0887C36.7402 54.014 36.4322 53.874 36.1989 53.6687C35.9749 53.4634 35.8162 53.1787 35.7229 52.8147C35.6295 52.4507 35.5829 51.9794 35.5829 51.4007C35.5829 50.71 35.6715 50.15 35.8489 49.7207C36.0262 49.2914 36.3389 48.9787 36.7869 48.7827C37.2442 48.5774 37.8789 48.4747 38.6909 48.4747C39.3255 48.4747 39.8295 48.554 40.2029 48.7127C40.5855 48.862 40.8609 49.1 41.0289 49.4267C41.1969 49.7534 41.2809 50.1687 41.2809 50.6727V51.5687H37.3469C37.3469 51.4194 37.3795 51.298 37.4449 51.2047C37.5102 51.1114 37.6315 51.0647 37.8089 51.0647H40.1049L40.0909 50.7007C40.0815 50.178 39.9695 49.7954 39.7549 49.5527C39.5495 49.31 39.1762 49.1887 38.6349 49.1887C38.1869 49.1887 37.8369 49.2587 37.5849 49.3987C37.3329 49.5387 37.1555 49.7674 37.0529 50.0847C36.9502 50.3927 36.8989 50.822 36.8989 51.3727C36.8989 51.942 36.9549 52.376 37.0669 52.6747C37.1882 52.964 37.3842 53.16 37.6549 53.2627C37.9349 53.3654 38.3222 53.4167 38.8169 53.4167C38.9942 53.4167 39.1995 53.412 39.4329 53.4027C39.6755 53.3934 39.9182 53.3794 40.1609 53.3607C40.4129 53.342 40.6369 53.3187 40.8329 53.2907C41.0289 53.2627 41.1595 53.2347 41.2249 53.2067V53.4027C41.2249 53.5054 41.2015 53.608 41.1549 53.7107C41.1082 53.8134 41.0102 53.8974 40.8609 53.9627C40.6649 54.056 40.3755 54.1167 39.9929 54.1447C39.6195 54.182 39.1435 54.2007 38.5649 54.2007ZM44.9414 54.1727C44.7641 54.1727 44.5541 54.168 44.3114 54.1587C44.0688 54.1494 43.8214 54.1307 43.5694 54.1027C43.3268 54.0654 43.1074 54.014 42.9114 53.9487C42.7901 53.9207 42.6921 53.8834 42.6174 53.8367C42.5521 53.79 42.5008 53.7107 42.4634 53.5987C42.4354 53.4774 42.4214 53.2954 42.4214 53.0527C42.6548 53.1554 42.9161 53.2394 43.2054 53.3047C43.4948 53.3607 43.7794 53.398 44.0594 53.4167C44.3488 53.4354 44.5961 53.4447 44.8014 53.4447C45.0534 53.4447 45.3008 53.4354 45.5434 53.4167C45.7954 53.398 46.0241 53.356 46.2294 53.2907C46.4441 53.2254 46.6121 53.1227 46.7334 52.9827C46.8641 52.8427 46.9294 52.6514 46.9294 52.4087C46.9294 52.082 46.8454 51.872 46.6774 51.7787C46.5094 51.6854 46.2761 51.6387 45.9774 51.6387H44.5074C44.1434 51.6387 43.8028 51.6154 43.4854 51.5687C43.1774 51.522 42.9254 51.4007 42.7294 51.2047C42.5428 51.0087 42.4494 50.6774 42.4494 50.2107C42.4494 49.6974 42.5754 49.3147 42.8274 49.0627C43.0794 48.8107 43.4341 48.6474 43.8914 48.5727C44.3581 48.498 44.9041 48.4607 45.5294 48.4607C45.7628 48.4607 46.0334 48.4654 46.3414 48.4747C46.6588 48.484 46.9528 48.512 47.2234 48.5587C47.4474 48.5774 47.6248 48.6147 47.7554 48.6707C47.8954 48.7174 47.9981 48.7874 48.0634 48.8807C48.1288 48.9647 48.1614 49.0954 48.1614 49.2727V49.5947C48.0774 49.492 47.9328 49.4174 47.7274 49.3707C47.5221 49.3147 47.2794 49.2727 46.9994 49.2447C46.7288 49.2167 46.4441 49.2027 46.1454 49.2027C45.8561 49.1934 45.5854 49.1887 45.3334 49.1887C45.0628 49.1887 44.8014 49.2074 44.5494 49.2447C44.3068 49.2727 44.1108 49.352 43.9614 49.4827C43.8121 49.6134 43.7374 49.828 43.7374 50.1267C43.7374 50.36 43.7841 50.528 43.8774 50.6307C43.9708 50.7334 44.1014 50.7987 44.2694 50.8267C44.4374 50.8547 44.6288 50.8687 44.8434 50.8687H46.3834C46.7568 50.8687 47.0834 50.9014 47.3634 50.9667C47.6434 51.032 47.8628 51.172 48.0214 51.3867C48.1801 51.6014 48.2594 51.9374 48.2594 52.3947C48.2594 52.9174 48.1148 53.3047 47.8254 53.5567C47.5361 53.8087 47.1441 53.9767 46.6494 54.0607C46.1548 54.1354 45.5854 54.1727 44.9414 54.1727Z" fill="#1C274C"/>
</svg>
