<svg width="55" height="61" viewBox="0 0 55 61" fill="none" xmlns="http://www.w3.org/2000/svg">
<g opacity="0.5">
<rect y="0.118652" width="55" height="60" rx="10" fill="#D9D9D9"/>
</g>
<circle opacity="0.5" cx="27.6489" cy="19.9587" r="15" fill="#1C274C"/>
<path d="M22.5117 16.1298C22.2308 13.0035 19.8198 10.0903 18.6495 9.02453L18.0029 8.47158C20.6108 6.27929 23.9759 4.95874 27.6495 4.95874C30.9695 4.95874 34.0377 6.03739 36.5226 7.86338C36.8737 8.92917 36.205 11.1561 35.5027 12.2219C35.2484 12.6079 34.6716 13.0872 34.0393 13.5415C32.6135 14.5659 30.8143 15.0726 29.8995 16.9587C29.638 17.4979 29.6491 18.025 29.7749 18.4831C29.8653 18.8125 29.9231 19.1705 29.924 19.5207C29.927 20.6531 28.7818 21.4711 27.6495 21.4587C24.703 21.4266 22.7742 19.052 22.5117 16.1298Z" fill="#1C274C"/>
<path d="M29.8036 29.3728C31.2858 26.5797 36.2263 26.5797 36.2263 26.5797C41.3742 26.526 42.0697 23.4004 42.5345 21.8206C41.7025 28.5426 36.423 33.8861 29.7317 34.8156C29.2478 33.7972 28.6745 31.5006 29.8036 29.3728Z" fill="#1C274C"/>
<path d="M17.7322 47.6767V53.3187H21.9882V54.1167H16.3042V48.2227C16.3042 48.1014 16.3088 48.0034 16.3182 47.9287C16.3275 47.8447 16.3695 47.784 16.4442 47.7467C16.5188 47.7 16.6355 47.6767 16.7942 47.6767H17.7322ZM24.4548 54.1727C23.9601 54.1727 23.6241 54.056 23.4468 53.8227C23.2694 53.58 23.1808 53.2207 23.1808 52.7447L23.1948 48.5307H24.4968V52.6747C24.4968 53.0294 24.5388 53.272 24.6228 53.4027C24.7161 53.5334 24.8701 53.5987 25.0848 53.5987C25.1688 53.5987 25.2621 53.5894 25.3648 53.5707C25.4674 53.552 25.5328 53.538 25.5608 53.5287V54.0607C25.5234 54.07 25.4628 54.084 25.3788 54.1027C25.2948 54.1214 25.1781 54.1354 25.0288 54.1447C24.8794 54.1634 24.6881 54.1727 24.4548 54.1727ZM23.8668 47.7607C23.6521 47.7607 23.4888 47.7327 23.3768 47.6767C23.2741 47.6114 23.2228 47.4947 23.2228 47.3267C23.2228 47.1587 23.2741 47.0467 23.3768 46.9907C23.4794 46.9254 23.6428 46.8927 23.8668 46.8927C24.0814 46.8927 24.2354 46.9254 24.3288 46.9907C24.4314 47.0467 24.4828 47.1587 24.4828 47.3267C24.4828 47.4947 24.4314 47.6114 24.3288 47.6767C24.2354 47.7327 24.0814 47.7607 23.8668 47.7607ZM27.1204 54.1167C26.859 54.1167 26.7284 53.986 26.7284 53.7247V48.9087C27.0084 48.7967 27.3864 48.6987 27.8624 48.6147C28.3384 48.5214 28.8797 48.4747 29.4864 48.4747C30.0837 48.4747 30.5597 48.512 30.9144 48.5867C31.2784 48.6614 31.5537 48.7827 31.7404 48.9507C31.927 49.1094 32.0484 49.3194 32.1044 49.5807C32.1697 49.842 32.2024 50.164 32.2024 50.5467V53.5847C32.2024 53.7154 32.1884 53.8227 32.1604 53.9067C32.1417 53.9907 32.0904 54.0467 32.0064 54.0747C31.9317 54.1027 31.815 54.1167 31.6564 54.1167H30.8864V50.2667C30.8864 49.9027 30.7744 49.6414 30.5504 49.4827C30.3264 49.324 29.9717 49.2447 29.4864 49.2447C29.337 49.2447 29.169 49.2587 28.9824 49.2867C28.7957 49.3054 28.6184 49.338 28.4504 49.3847C28.2824 49.4314 28.147 49.492 28.0444 49.5667V54.1167H27.1204ZM33.954 54.1167L33.94 47.5367C33.94 47.3407 33.968 47.21 34.024 47.1447C34.0893 47.07 34.2247 47.0327 34.43 47.0327H35.27V51.3167L37.65 48.8247C37.7713 48.7127 37.8927 48.6334 38.014 48.5867C38.1447 48.5307 38.3267 48.5027 38.56 48.5027C38.7373 48.5027 38.9007 48.5074 39.05 48.5167C39.1993 48.5167 39.3347 48.5214 39.456 48.5307C39.428 48.5587 39.3673 48.6054 39.274 48.6707C39.19 48.736 39.0967 48.8107 38.994 48.8947C38.8913 48.9694 38.798 49.044 38.714 49.1187L36.908 50.8407L39.344 53.5427C39.4467 53.6547 39.5493 53.7574 39.652 53.8507C39.7547 53.944 39.8527 54.0327 39.946 54.1167C39.7127 54.126 39.4747 54.1307 39.232 54.1307C38.9987 54.1307 38.7887 54.1307 38.602 54.1307C38.3873 54.1307 38.224 54.1074 38.112 54.0607C38.0093 54.0047 37.8973 53.916 37.776 53.7947L35.998 51.7927L35.27 52.4087V54.1167H33.954Z" fill="#1C274C"/>
</svg>
