<svg width="126" height="19" viewBox="0 0 126 19" fill="none" xmlns="http://www.w3.org/2000/svg">
<circle cx="1" cy="9.11865" r="1" fill="black" fill-opacity="0.4"/>
<path d="M13.5007 15.1689C16.842 15.1689 19.5505 12.4598 19.5505 9.11789C19.5505 5.77602 16.842 3.06689 13.5007 3.06689C10.1595 3.06689 7.45093 5.77602 7.45093 9.11789C7.45093 12.4598 10.1595 15.1689 13.5007 15.1689Z" fill="#1C274C"/>
<path d="M16.6862 11.2383C16.6862 11.6374 16.5277 12.0202 16.2455 12.3024C15.9634 12.5846 15.5807 12.7431 15.1817 12.7431C14.7827 12.7431 14.4 12.5846 14.1179 12.3024C13.8357 12.0202 13.6772 11.6374 13.6772 11.2383C13.6772 11.2009 13.6772 11.1641 13.6812 11.1269L11.8736 10.245C11.6518 10.4197 11.3853 10.5284 11.1046 10.5588C10.8238 10.5891 10.5403 10.5399 10.2862 10.4166C10.0322 10.2934 9.81794 10.1011 9.66801 9.86179C9.51807 9.6225 9.43849 9.34583 9.43835 9.06342V9.05785C9.43835 9.04938 9.43835 9.04068 9.43835 9.03221C9.44392 8.75558 9.52568 8.48584 9.67464 8.25269C9.8236 8.01953 10.034 7.832 10.2826 7.71073C10.5313 7.58945 10.8086 7.53914 11.0839 7.56533C11.3593 7.59152 11.6222 7.69319 11.8435 7.85915L13.6801 6.96342C13.6788 6.93845 13.6781 6.91304 13.6781 6.88762C13.678 6.54414 13.7955 6.21098 14.0109 5.9435C14.2264 5.67601 14.5268 5.49031 14.8624 5.41725C15.1979 5.34418 15.5484 5.38815 15.8555 5.54186C16.1626 5.69556 16.4079 5.94973 16.5506 6.26215C16.6933 6.57457 16.7248 6.92643 16.64 7.25925C16.5551 7.59207 16.3589 7.88583 16.084 8.09171C15.8091 8.29759 15.4721 8.40319 15.1289 8.39098C14.7857 8.37876 14.457 8.24946 14.1974 8.02457L12.4366 8.88396C12.4435 8.94317 12.447 9.00271 12.4471 9.06231C12.4471 9.11076 12.4448 9.15884 12.4402 9.20654L14.2257 10.0773C14.4457 9.89568 14.7127 9.78034 14.9956 9.74475C15.2786 9.70916 15.5659 9.7548 15.8239 9.87632C16.0819 9.99785 16.3001 10.1903 16.4529 10.4311C16.6058 10.6719 16.687 10.9513 16.6871 11.2365L16.6862 11.2383Z" fill="white"/>
<path d="M6.64134 0.618652C6.31678 0.61852 5.99947 0.714673 5.72956 0.894946C5.45964 1.07522 5.24925 1.33151 5.125 1.63141C5.00074 1.9313 4.96821 2.26131 5.03151 2.5797C5.09481 2.89809 5.25111 3.19055 5.48062 3.42008C5.71013 3.64961 6.00256 3.80589 6.32089 3.86916C6.63923 3.93243 6.96917 3.89985 7.26899 3.77553C7.5688 3.65121 7.82502 3.44074 8.00522 3.17075C8.18542 2.90076 8.28151 2.58337 8.28134 2.25875C8.28128 1.82375 8.10847 1.40658 7.80091 1.09901C7.49336 0.791441 7.07625 0.618652 6.64134 0.618652Z" fill="#1BC469"/>
<path d="M8.28152 2.25876C8.28157 2.5832 8.18542 2.90036 8.00524 3.17014C7.82506 3.43991 7.56895 3.65019 7.26928 3.77438C6.96961 3.89857 6.63986 3.93108 6.32171 3.86782C6.00357 3.80455 5.71133 3.64834 5.48195 3.41895C5.25257 3.18955 5.09635 2.89728 5.03306 2.57908C4.96976 2.26088 5.00222 1.93106 5.12634 1.63131C5.25046 1.33157 5.46067 1.07537 5.73037 0.895123C6.00007 0.714872 6.31715 0.618663 6.64153 0.618663C6.8571 0.617868 7.0707 0.659746 7.27001 0.741884C7.46933 0.824022 7.65043 0.944797 7.80287 1.09725C7.95532 1.2497 8.07609 1.43082 8.15824 1.63017C8.24039 1.82951 8.28229 2.04315 8.28152 2.25876Z" fill="#1BC469"/>
<path d="M9.45507 4.27315C9.31154 4.39354 9.17268 4.52076 9.0385 4.65481C8.92319 4.77014 8.81309 4.88904 8.70818 5.0115L7.4939 3.86475C7.80966 3.6967 8.06925 3.43977 8.24057 3.12573L9.45507 4.27315Z" fill="#1BC469"/>
<path d="M22 2.25875C22 2.58319 21.9039 2.90035 21.7237 3.17013C21.5435 3.4399 21.2874 3.65018 20.9877 3.77437C20.6881 3.89856 20.3583 3.93107 20.0402 3.8678C19.722 3.80454 19.4298 3.64833 19.2004 3.41894C18.971 3.18954 18.8148 2.89726 18.7515 2.57907C18.6882 2.26087 18.7207 1.93104 18.8448 1.6313C18.9689 1.33156 19.1791 1.07536 19.4488 0.895112C19.7185 0.714861 20.0356 0.618652 20.36 0.618652C20.7949 0.618652 21.212 0.791441 21.5195 1.09901C21.8271 1.40658 21.9999 1.82375 22 2.25875Z" fill="#1BC469"/>
<path d="M19.5075 3.8647L18.2928 5.01101C18.1877 4.88885 18.0776 4.76995 17.9625 4.65432C17.8287 4.52057 17.6899 4.39335 17.5459 4.27267L18.7615 3.12524C18.9326 3.43935 19.1919 3.69643 19.5075 3.8647Z" fill="#1BC469"/>
<path d="M8.28136 15.9771C8.28102 16.3785 8.1334 16.7657 7.86652 17.0654C7.59963 17.3651 7.23205 17.5564 6.83351 17.603C6.43496 17.6495 6.03318 17.5482 5.7044 17.3181C5.37562 17.0881 5.1427 16.7453 5.04984 16.3549C4.95698 15.9644 5.01064 15.5535 5.20063 15.2C5.39063 14.8465 5.70374 14.575 6.08057 14.4371C6.4574 14.2992 6.87172 14.3045 7.24494 14.4519C7.61815 14.5993 7.92429 14.8786 8.10528 15.2368C8.22119 15.4663 8.28151 15.7199 8.28136 15.9771Z" fill="#1BC469"/>
<path d="M9.45506 13.9628L8.24055 15.1102C8.06953 14.7963 7.81034 14.5394 7.495 14.3712L8.70861 13.2249C8.81352 13.347 8.92362 13.4659 9.03893 13.5815C9.17266 13.7153 9.31137 13.8424 9.45506 13.9628Z" fill="#1BC469"/>
<path d="M22 15.977C22.0002 16.3016 21.904 16.619 21.7238 16.8889C21.5436 17.1589 21.2873 17.3693 20.9875 17.4936C20.6877 17.6179 20.3578 17.6504 20.0394 17.5872C19.7211 17.5239 19.4287 17.3676 19.1992 17.138C18.9697 16.9085 18.8135 16.616 18.7502 16.2976C18.6869 15.9793 18.7194 15.6493 18.8437 15.3494C18.968 15.0495 19.1784 14.7932 19.4483 14.6129C19.7182 14.4327 20.0355 14.3365 20.36 14.3367C20.795 14.3367 21.2121 14.5095 21.5197 14.8171C21.8272 15.1247 22 15.542 22 15.977Z" fill="#1BC469"/>
<path d="M19.5074 14.3709C19.192 14.5391 18.9328 14.796 18.7618 15.1099L17.5462 13.9625C17.6897 13.8421 17.8286 13.7149 17.9628 13.5808C18.0779 13.4655 18.188 13.3466 18.2931 13.2241L19.5074 14.3709Z" fill="#1BC469"/>
<circle cx="26" cy="9.11865" r="1" fill="black" fill-opacity="0.4"/>
<path d="M31.136 13.1187C31.136 12.052 31.136 10.9907 31.136 9.93465C31.136 8.86799 31.136 7.80132 31.136 6.73465C31.136 6.37199 31.2 6.12132 31.328 5.98265C31.4667 5.84399 31.7067 5.76932 32.048 5.75865C32.5067 5.74799 33.0027 5.74265 33.536 5.74265C34.0693 5.74265 34.5973 5.74265 35.12 5.74265C35.6533 5.74265 36.1333 5.75332 36.56 5.77465C37.0187 5.78532 37.408 5.87065 37.728 6.03065C38.0587 6.17999 38.3093 6.41465 38.48 6.73465C38.6613 7.04399 38.752 7.44932 38.752 7.95065C38.752 8.51599 38.656 8.97999 38.464 9.34265C38.272 9.70532 38 9.97199 37.648 10.1427C37.3067 10.3027 36.9013 10.3827 36.432 10.3827C35.856 10.372 35.2693 10.3667 34.672 10.3667C34.0747 10.3667 33.488 10.3667 32.912 10.3667C32.912 10.1213 32.912 9.93999 32.912 9.82265C32.9227 9.69465 32.9493 9.60932 32.992 9.56665C33.0347 9.51332 33.1093 9.48665 33.216 9.48665C33.408 9.48665 33.648 9.48665 33.936 9.48665C34.2347 9.48665 34.5493 9.48665 34.88 9.48665C35.2107 9.48665 35.5147 9.48665 35.792 9.48665C36.0267 9.48665 36.24 9.44399 36.432 9.35865C36.624 9.26265 36.7787 9.10265 36.896 8.87865C37.0133 8.65465 37.072 8.35065 37.072 7.96665C37.072 7.57199 36.992 7.26799 36.832 7.05465C36.6827 6.83065 36.4267 6.70799 36.064 6.68665C35.744 6.65465 35.4027 6.63865 35.04 6.63865C34.6773 6.63865 34.3307 6.64399 34 6.65465C33.6693 6.65465 33.3813 6.65999 33.136 6.67065C33.0827 6.67065 33.008 6.69732 32.912 6.75065C32.8267 6.79332 32.784 6.88399 32.784 7.02265C32.784 8.03599 32.784 9.04932 32.784 10.0627C32.784 11.076 32.784 12.0947 32.784 13.1187H31.136ZM41.7449 13.1827C41.1795 13.1827 40.7742 13.0707 40.5289 12.8467C40.2835 12.612 40.1609 12.2013 40.1609 11.6147V5.67865C40.1609 5.50799 40.1715 5.37999 40.1929 5.29465C40.2249 5.19865 40.2835 5.13465 40.3689 5.10265C40.4542 5.05999 40.5822 5.03865 40.7529 5.03865H41.6809C41.6809 5.05999 41.6702 5.14532 41.6489 5.29465C41.6382 5.44399 41.6329 5.61999 41.6329 5.82265V11.4227C41.6329 11.8173 41.6809 12.1 41.7769 12.2707C41.8729 12.4413 42.0542 12.5267 42.3209 12.5267C42.4062 12.5267 42.5075 12.516 42.6249 12.4947C42.7529 12.4733 42.8329 12.4573 42.8649 12.4467V13.0547C42.8009 13.0653 42.6889 13.0867 42.5289 13.1187C42.3689 13.1613 42.1075 13.1827 41.7449 13.1827ZM47.0015 13.2147C46.3508 13.2147 45.8015 13.172 45.3535 13.0867C44.9162 13.0013 44.5642 12.8413 44.2975 12.6067C44.0415 12.372 43.8602 12.0467 43.7535 11.6307C43.6468 11.2147 43.5935 10.676 43.5935 10.0147C43.5935 9.22532 43.6948 8.58532 43.8975 8.09465C44.1002 7.60399 44.4575 7.24665 44.9695 7.02265C45.4922 6.78799 46.2175 6.67065 47.1455 6.67065C47.8708 6.67065 48.4468 6.76132 48.8735 6.94265C49.3108 7.11332 49.6255 7.38532 49.8175 7.75865C50.0095 8.13199 50.1055 8.60665 50.1055 9.18265V10.2067H45.6095C45.6095 10.036 45.6468 9.89732 45.7215 9.79065C45.7962 9.68399 45.9348 9.63065 46.1375 9.63065H48.7615L48.7455 9.21465C48.7348 8.61732 48.6068 8.17999 48.3615 7.90265C48.1268 7.62532 47.7002 7.48665 47.0815 7.48665C46.5695 7.48665 46.1695 7.56665 45.8815 7.72665C45.5935 7.88665 45.3908 8.14799 45.2735 8.51065C45.1562 8.86265 45.0975 9.35332 45.0975 9.98265C45.0975 10.6333 45.1615 11.1293 45.2895 11.4707C45.4282 11.8013 45.6522 12.0253 45.9615 12.1427C46.2815 12.26 46.7242 12.3187 47.2895 12.3187C47.4922 12.3187 47.7268 12.3133 47.9935 12.3027C48.2708 12.292 48.5482 12.276 48.8255 12.2547C49.1135 12.2333 49.3695 12.2067 49.5935 12.1747C49.8175 12.1427 49.9668 12.1107 50.0415 12.0787V12.3027C50.0415 12.42 50.0148 12.5373 49.9615 12.6547C49.9082 12.772 49.7962 12.868 49.6255 12.9427C49.4015 13.0493 49.0708 13.1187 48.6335 13.1507C48.2068 13.1933 47.6628 13.2147 47.0015 13.2147ZM54.417 13.2147C53.7557 13.2147 53.217 13.1827 52.801 13.1187C52.385 13.0653 52.065 12.964 51.841 12.8147C51.617 12.6653 51.4623 12.4627 51.377 12.2067C51.3023 11.9507 51.265 11.6307 51.265 11.2467C51.265 10.7027 51.3237 10.292 51.441 10.0147C51.569 9.72665 51.7823 9.52932 52.081 9.42265C52.3903 9.31599 52.801 9.26265 53.313 9.26265C53.5797 9.26265 53.873 9.26799 54.193 9.27865C54.5237 9.28932 54.8383 9.30532 55.137 9.32665C55.4463 9.33732 55.713 9.35332 55.937 9.37465C56.1717 9.39599 56.3263 9.42265 56.401 9.45465C56.401 9.00665 56.3637 8.65465 56.289 8.39865C56.2143 8.14265 56.0917 7.95065 55.921 7.82265C55.761 7.69465 55.5583 7.60932 55.313 7.56665C55.0677 7.52399 54.7797 7.50265 54.449 7.50265C54.0863 7.50265 53.7237 7.51332 53.361 7.53465C53.009 7.55599 52.673 7.59332 52.353 7.64665C52.0437 7.69999 51.7877 7.76932 51.585 7.85465V7.55065C51.585 7.30532 51.649 7.12932 51.777 7.02265C51.9157 6.91599 52.081 6.84665 52.273 6.81465C52.4863 6.76132 52.801 6.71865 53.217 6.68665C53.633 6.65465 54.0757 6.64399 54.545 6.65465C55.1423 6.65465 55.649 6.68665 56.065 6.75065C56.4917 6.80399 56.833 6.92132 57.089 7.10265C57.3557 7.28399 57.5477 7.55599 57.665 7.91865C57.793 8.28132 57.857 8.76665 57.857 9.37465V12.6387C57.761 12.8413 57.4357 12.9907 56.881 13.0867C56.3263 13.172 55.505 13.2147 54.417 13.2147ZM54.417 12.5427C54.8437 12.5427 55.1903 12.532 55.457 12.5107C55.7343 12.4787 55.9477 12.4413 56.097 12.3987C56.2463 12.3453 56.3477 12.2813 56.401 12.2067V9.99865C56.305 9.96665 56.1343 9.93999 55.889 9.91865C55.6437 9.88665 55.3877 9.85999 55.121 9.83865C54.8543 9.81732 54.6303 9.80665 54.449 9.80665C54.0543 9.80665 53.7343 9.83332 53.489 9.88665C53.2437 9.93999 53.0677 10.0627 52.961 10.2547C52.8543 10.4467 52.801 10.7453 52.801 11.1507C52.801 11.4813 52.8383 11.748 52.913 11.9507C52.9877 12.1533 53.137 12.3027 53.361 12.3987C53.5957 12.4947 53.9477 12.5427 54.417 12.5427ZM61.9534 13.1827C61.7507 13.1827 61.5107 13.1773 61.2334 13.1667C60.956 13.156 60.6734 13.1347 60.3854 13.1027C60.108 13.06 59.8574 13.0013 59.6334 12.9267C59.4947 12.8947 59.3827 12.852 59.2974 12.7987C59.2227 12.7453 59.164 12.6547 59.1214 12.5267C59.0894 12.388 59.0734 12.18 59.0734 11.9027C59.34 12.02 59.6387 12.116 59.9694 12.1907C60.3 12.2547 60.6254 12.2973 60.9454 12.3187C61.276 12.34 61.5587 12.3507 61.7934 12.3507C62.0814 12.3507 62.364 12.34 62.6414 12.3187C62.9294 12.2973 63.1907 12.2493 63.4254 12.1747C63.6707 12.1 63.8627 11.9827 64.0014 11.8227C64.1507 11.6627 64.2254 11.444 64.2254 11.1667C64.2254 10.7933 64.1294 10.5533 63.9374 10.4467C63.7454 10.34 63.4787 10.2867 63.1374 10.2867H61.4574C61.0414 10.2867 60.652 10.26 60.2894 10.2067C59.9374 10.1533 59.6494 10.0147 59.4254 9.79065C59.212 9.56665 59.1054 9.18799 59.1054 8.65465C59.1054 8.06799 59.2494 7.63065 59.5374 7.34265C59.8254 7.05465 60.2307 6.86799 60.7534 6.78265C61.2867 6.69732 61.9107 6.65465 62.6254 6.65465C62.892 6.65465 63.2014 6.65999 63.5534 6.67065C63.916 6.68132 64.252 6.71332 64.5614 6.76665C64.8174 6.78799 65.02 6.83065 65.1694 6.89465C65.3294 6.94799 65.4467 7.02799 65.5214 7.13465C65.596 7.23065 65.6334 7.37999 65.6334 7.58265V7.95065C65.5374 7.83332 65.372 7.74799 65.1374 7.69465C64.9027 7.63065 64.6254 7.58265 64.3054 7.55065C63.996 7.51865 63.6707 7.50265 63.3294 7.50265C62.9987 7.49199 62.6894 7.48665 62.4014 7.48665C62.092 7.48665 61.7934 7.50799 61.5054 7.55065C61.228 7.58265 61.004 7.67332 60.8334 7.82265C60.6627 7.97199 60.5774 8.21732 60.5774 8.55865C60.5774 8.82532 60.6307 9.01732 60.7374 9.13465C60.844 9.25199 60.9934 9.32665 61.1854 9.35865C61.3774 9.39065 61.596 9.40665 61.8414 9.40665H63.6014C64.028 9.40665 64.4014 9.44399 64.7214 9.51865C65.0414 9.59332 65.292 9.75332 65.4734 9.99865C65.6547 10.244 65.7454 10.628 65.7454 11.1507C65.7454 11.748 65.58 12.1907 65.2494 12.4787C64.9187 12.7667 64.4707 12.9587 63.9054 13.0547C63.34 13.14 62.6894 13.1827 61.9534 13.1827ZM70.189 13.2147C69.5383 13.2147 68.989 13.172 68.541 13.0867C68.1037 13.0013 67.7517 12.8413 67.485 12.6067C67.229 12.372 67.0477 12.0467 66.941 11.6307C66.8343 11.2147 66.781 10.676 66.781 10.0147C66.781 9.22532 66.8823 8.58532 67.085 8.09465C67.2877 7.60399 67.645 7.24665 68.157 7.02265C68.6797 6.78799 69.405 6.67065 70.333 6.67065C71.0583 6.67065 71.6343 6.76132 72.061 6.94265C72.4983 7.11332 72.813 7.38532 73.005 7.75865C73.197 8.13199 73.293 8.60665 73.293 9.18265V10.2067H68.797C68.797 10.036 68.8343 9.89732 68.909 9.79065C68.9837 9.68399 69.1223 9.63065 69.325 9.63065H71.949L71.933 9.21465C71.9223 8.61732 71.7943 8.17999 71.549 7.90265C71.3143 7.62532 70.8877 7.48665 70.269 7.48665C69.757 7.48665 69.357 7.56665 69.069 7.72665C68.781 7.88665 68.5783 8.14799 68.461 8.51065C68.3437 8.86265 68.285 9.35332 68.285 9.98265C68.285 10.6333 68.349 11.1293 68.477 11.4707C68.6157 11.8013 68.8397 12.0253 69.149 12.1427C69.469 12.26 69.9117 12.3187 70.477 12.3187C70.6797 12.3187 70.9143 12.3133 71.181 12.3027C71.4583 12.292 71.7357 12.276 72.013 12.2547C72.301 12.2333 72.557 12.2067 72.781 12.1747C73.005 12.1427 73.1543 12.1107 73.229 12.0787V12.3027C73.229 12.42 73.2023 12.5373 73.149 12.6547C73.0957 12.772 72.9837 12.868 72.813 12.9427C72.589 13.0493 72.2583 13.1187 71.821 13.1507C71.3943 13.1933 70.8503 13.2147 70.189 13.2147ZM78.7993 11.8067C79.0339 11.9453 79.3379 12.052 79.7113 12.1267C80.0953 12.1907 80.4899 12.2333 80.8953 12.2547C81.3006 12.2653 81.6526 12.2707 81.9513 12.2707C82.0686 12.2707 82.2019 12.2707 82.3513 12.2707C82.5113 12.26 82.6499 12.2547 82.7673 12.2547C83.1513 12.244 83.4873 12.2013 83.7753 12.1267C84.0633 12.0413 84.2819 11.9027 84.4313 11.7107C84.5913 11.5187 84.6713 11.2467 84.6713 10.8947C84.6713 10.4573 84.5539 10.1747 84.3193 10.0467C84.0953 9.91865 83.7646 9.85465 83.3273 9.85465C83.1779 9.85465 83.0179 9.85465 82.8473 9.85465C82.6766 9.85465 82.4793 9.85465 82.2552 9.85465C82.0419 9.85465 81.7913 9.85465 81.5033 9.85465C81.1833 9.85465 80.8633 9.83865 80.5433 9.80665C80.2233 9.77465 79.9353 9.70532 79.6793 9.59865C79.4233 9.48132 79.2153 9.29999 79.0553 9.05465C78.8953 8.79865 78.8153 8.44132 78.8153 7.98265C78.8153 7.44932 78.9113 7.02799 79.1033 6.71865C79.2953 6.40932 79.5619 6.18532 79.9033 6.04665C80.2553 5.89732 80.6553 5.80132 81.1033 5.75865C81.5619 5.71599 82.0633 5.69465 82.6073 5.69465C82.9273 5.69465 83.2793 5.69999 83.6633 5.71065C84.0473 5.72132 84.4153 5.74799 84.7673 5.79065C85.1193 5.82265 85.3913 5.88132 85.5833 5.96665C85.8073 5.98799 85.9779 6.05732 86.0953 6.17465C86.2233 6.28132 86.2873 6.41999 86.2873 6.59065C86.2873 6.62265 86.2873 6.67599 86.2873 6.75065C86.2873 6.82532 86.2873 6.89465 86.2873 6.95865C86.2873 7.02265 86.2873 7.07065 86.2873 7.10265C86.2019 6.99599 86.0419 6.91599 85.8073 6.86265C85.5833 6.79865 85.3273 6.75065 85.0393 6.71865C84.7513 6.68665 84.4686 6.66532 84.1913 6.65465C83.9246 6.63332 83.6953 6.62265 83.5033 6.62265H82.4153C82.0526 6.62265 81.7273 6.65465 81.4393 6.71865C81.1513 6.77199 80.9219 6.88932 80.7513 7.07065C80.5806 7.24132 80.4953 7.50799 80.4953 7.87065C80.4953 8.14799 80.5486 8.36132 80.6553 8.51065C80.7726 8.64932 80.9379 8.74532 81.1513 8.79865C81.3753 8.84132 81.6366 8.86265 81.9353 8.86265C82.4259 8.86265 82.8419 8.86265 83.1833 8.86265C83.5246 8.86265 83.7859 8.86265 83.9673 8.86265C84.4473 8.86265 84.8686 8.90532 85.2313 8.99065C85.6046 9.06532 85.8926 9.24132 86.0953 9.51865C86.3086 9.79599 86.4153 10.2333 86.4153 10.8307C86.4153 11.396 86.2926 11.8493 86.0473 12.1907C85.8019 12.5213 85.4659 12.7613 85.0393 12.9107C84.6126 13.0493 84.1219 13.1347 83.5673 13.1667C83.2366 13.188 82.9166 13.1987 82.6073 13.1987C82.2979 13.2093 81.9726 13.2093 81.6313 13.1987C81.3219 13.1987 81.0019 13.188 80.6713 13.1667C80.3406 13.1453 80.0313 13.108 79.7433 13.0547C79.4659 12.9907 79.2366 12.9053 79.0553 12.7987C78.8846 12.692 78.7993 12.548 78.7993 12.3667V11.8067ZM91.189 13.2147C90.5383 13.2147 89.989 13.172 89.541 13.0867C89.1037 13.0013 88.7517 12.8413 88.485 12.6067C88.229 12.372 88.0477 12.0467 87.941 11.6307C87.8343 11.2147 87.781 10.676 87.781 10.0147C87.781 9.22532 87.8823 8.58532 88.085 8.09465C88.2877 7.60399 88.645 7.24665 89.157 7.02265C89.6797 6.78799 90.405 6.67065 91.333 6.67065C92.0583 6.67065 92.6343 6.76132 93.061 6.94265C93.4983 7.11332 93.813 7.38532 94.005 7.75865C94.197 8.13199 94.293 8.60665 94.293 9.18265V10.2067H89.797C89.797 10.036 89.8343 9.89732 89.909 9.79065C89.9837 9.68399 90.1223 9.63065 90.325 9.63065H92.949L92.933 9.21465C92.9223 8.61732 92.7943 8.17999 92.549 7.90265C92.3143 7.62532 91.8877 7.48665 91.269 7.48665C90.757 7.48665 90.357 7.56665 90.069 7.72665C89.781 7.88665 89.5783 8.14799 89.461 8.51065C89.3437 8.86265 89.285 9.35332 89.285 9.98265C89.285 10.6333 89.349 11.1293 89.477 11.4707C89.6157 11.8013 89.8397 12.0253 90.149 12.1427C90.469 12.26 90.9117 12.3187 91.477 12.3187C91.6797 12.3187 91.9143 12.3133 92.181 12.3027C92.4583 12.292 92.7357 12.276 93.013 12.2547C93.301 12.2333 93.557 12.2067 93.781 12.1747C94.005 12.1427 94.1543 12.1107 94.229 12.0787V12.3027C94.229 12.42 94.2023 12.5373 94.149 12.6547C94.0957 12.772 93.9837 12.868 93.813 12.9427C93.589 13.0493 93.2583 13.1187 92.821 13.1507C92.3943 13.1933 91.8503 13.2147 91.189 13.2147ZM97.2605 13.1827C96.6952 13.1827 96.2898 13.0707 96.0445 12.8467C95.7992 12.612 95.6765 12.2013 95.6765 11.6147V5.67865C95.6765 5.50799 95.6872 5.37999 95.7085 5.29465C95.7405 5.19865 95.7992 5.13465 95.8845 5.10265C95.9698 5.05999 96.0978 5.03865 96.2685 5.03865H97.1965C97.1965 5.05999 97.1858 5.14532 97.1645 5.29465C97.1538 5.44399 97.1485 5.61999 97.1485 5.82265V11.4227C97.1485 11.8173 97.1965 12.1 97.2925 12.2707C97.3885 12.4413 97.5698 12.5267 97.8365 12.5267C97.9218 12.5267 98.0232 12.516 98.1405 12.4947C98.2685 12.4733 98.3485 12.4573 98.3805 12.4467V13.0547C98.3165 13.0653 98.2045 13.0867 98.0445 13.1187C97.8845 13.1613 97.6232 13.1827 97.2605 13.1827ZM102.517 13.2147C101.866 13.2147 101.317 13.172 100.869 13.0867C100.432 13.0013 100.08 12.8413 99.8131 12.6067C99.5571 12.372 99.3758 12.0467 99.2691 11.6307C99.1625 11.2147 99.1091 10.676 99.1091 10.0147C99.1091 9.22532 99.2105 8.58532 99.4131 8.09465C99.6158 7.60399 99.9731 7.24665 100.485 7.02265C101.008 6.78799 101.733 6.67065 102.661 6.67065C103.386 6.67065 103.962 6.76132 104.389 6.94265C104.826 7.11332 105.141 7.38532 105.333 7.75865C105.525 8.13199 105.621 8.60665 105.621 9.18265V10.2067H101.125C101.125 10.036 101.162 9.89732 101.237 9.79065C101.312 9.68399 101.45 9.63065 101.653 9.63065H104.277L104.261 9.21465C104.25 8.61732 104.122 8.17999 103.877 7.90265C103.642 7.62532 103.216 7.48665 102.597 7.48665C102.085 7.48665 101.685 7.56665 101.397 7.72665C101.109 7.88665 100.906 8.14799 100.789 8.51065C100.672 8.86265 100.613 9.35332 100.613 9.98265C100.613 10.6333 100.677 11.1293 100.805 11.4707C100.944 11.8013 101.168 12.0253 101.477 12.1427C101.797 12.26 102.24 12.3187 102.805 12.3187C103.008 12.3187 103.242 12.3133 103.509 12.3027C103.786 12.292 104.064 12.276 104.341 12.2547C104.629 12.2333 104.885 12.2067 105.109 12.1747C105.333 12.1427 105.482 12.1107 105.557 12.0787V12.3027C105.557 12.42 105.53 12.5373 105.477 12.6547C105.424 12.772 105.312 12.868 105.141 12.9427C104.917 13.0493 104.586 13.1187 104.149 13.1507C103.722 13.1933 103.178 13.2147 102.517 13.2147ZM110.397 13.2147C109.533 13.2147 108.834 13.1293 108.301 12.9587C107.767 12.788 107.383 12.4733 107.149 12.0147C106.914 11.556 106.797 10.884 106.797 9.99865C106.797 9.08132 106.914 8.38265 107.149 7.90265C107.383 7.41199 107.767 7.08132 108.301 6.91065C108.834 6.72932 109.533 6.63865 110.397 6.63865C110.674 6.63865 110.935 6.64932 111.181 6.67065C111.437 6.69199 111.73 6.72932 112.061 6.78265C112.242 6.80399 112.386 6.84665 112.493 6.91065C112.61 6.97465 112.695 7.07065 112.749 7.19865C112.802 7.31599 112.829 7.49199 112.829 7.72665C112.701 7.67332 112.514 7.62532 112.269 7.58265C112.023 7.53999 111.762 7.50799 111.485 7.48665C111.207 7.46532 110.962 7.45465 110.749 7.45465C110.141 7.45465 109.655 7.53465 109.293 7.69465C108.941 7.84399 108.69 8.09465 108.541 8.44665C108.402 8.79865 108.333 9.28399 108.333 9.90265C108.333 10.5213 108.402 11.012 108.541 11.3747C108.69 11.7373 108.941 11.9933 109.293 12.1427C109.645 12.292 110.13 12.3667 110.749 12.3667C111.037 12.3667 111.314 12.356 111.581 12.3347C111.847 12.3027 112.087 12.2653 112.301 12.2227C112.525 12.1693 112.701 12.1213 112.829 12.0787V12.5107C112.829 12.7027 112.722 12.852 112.509 12.9587C112.295 13.0547 112.007 13.1187 111.645 13.1507C111.293 13.1933 110.877 13.2147 110.397 13.2147ZM116.049 13.1667C115.623 13.1667 115.287 13.1187 115.041 13.0227C114.807 12.9267 114.636 12.756 114.529 12.5107C114.423 12.2653 114.369 11.9347 114.369 11.5187V7.55065H113.729V6.73465H114.369V5.67865C114.369 5.48665 114.385 5.34799 114.417 5.26265C114.449 5.16665 114.503 5.10799 114.577 5.08665C114.663 5.05465 114.785 5.03865 114.945 5.03865H115.873C115.873 5.05999 115.873 5.10799 115.873 5.18265C115.873 5.24665 115.873 5.34265 115.873 5.47065V6.73465H117.377V7.55065H115.873V11.3747C115.873 11.7907 115.916 12.0893 116.001 12.2707C116.087 12.4413 116.289 12.5267 116.609 12.5267C116.716 12.5267 116.833 12.516 116.961 12.4947C117.1 12.4733 117.196 12.452 117.249 12.4307V13.0547C117.185 13.0653 117.047 13.0867 116.833 13.1187C116.62 13.1507 116.359 13.1667 116.049 13.1667Z" fill="black"/>
<circle cx="125" cy="9.11865" r="1" fill="black" fill-opacity="0.4"/>
</svg>
