<svg width="45" height="43" viewBox="0 0 45 43" fill="none" xmlns="http://www.w3.org/2000/svg">
<rect x="1.03577" y="0.00195312" width="50.6816" height="43" rx="7" fill="#F2F2F2"/>
<path d="M15.1309 5.27994C14.9806 4.93596 15.0563 4.53505 15.3216 4.26952C15.5869 4.004 15.9878 3.92801 16.3319 4.07802L36.227 12.6037C36.5629 12.7473 36.7808 13.0775 36.7808 13.4429C36.7808 13.8082 36.5629 14.1384 36.227 14.282L16.3036 22.7958C15.9612 22.9418 15.5645 22.8653 15.301 22.6024C15.0375 22.3395 14.9601 21.943 15.1053 21.6003L17.9454 14.909C18.0822 14.5867 18.3914 14.3711 18.7412 14.3541L20.9598 14.2455C21.4638 14.2488 21.875 13.8428 21.8783 13.3388C21.8816 12.8348 21.4756 12.4235 20.9716 12.4203L18.7047 12.2825C18.362 12.2614 18.0602 12.0498 17.9235 11.7349L15.1309 5.27994Z" fill="#4CD964"/>
<path d="M7.00299 36.5569C7.23765 36.6956 7.54165 36.8022 7.91499 36.8769C8.29899 36.9409 8.69365 36.9836 9.09899 37.0049C9.50432 37.0156 9.85632 37.0209 10.155 37.0209C10.2723 37.0209 10.4057 37.0209 10.555 37.0209C10.715 37.0102 10.8537 37.0049 10.971 37.0049C11.355 36.9942 11.691 36.9516 11.979 36.8769C12.267 36.7916 12.4857 36.6529 12.635 36.4609C12.795 36.2689 12.875 35.9969 12.875 35.6449C12.875 35.2076 12.7577 34.9249 12.523 34.7969C12.299 34.6689 11.9683 34.6049 11.531 34.6049C11.3817 34.6049 11.2217 34.6049 11.051 34.6049C10.8803 34.6049 10.683 34.6049 10.459 34.6049C10.2457 34.6049 9.99499 34.6049 9.70699 34.6049C9.38699 34.6049 9.06699 34.5889 8.74699 34.5569C8.42699 34.5249 8.13899 34.4556 7.88299 34.3489C7.62699 34.2316 7.41899 34.0502 7.25899 33.8049C7.09899 33.5489 7.01899 33.1916 7.01899 32.7329C7.01899 32.1996 7.11499 31.7782 7.30699 31.4689C7.49899 31.1596 7.76565 30.9356 8.10699 30.7969C8.45899 30.6476 8.85899 30.5516 9.30699 30.5089C9.76565 30.4662 10.267 30.4449 10.811 30.4449C11.131 30.4449 11.483 30.4502 11.867 30.4609C12.251 30.4716 12.619 30.4982 12.971 30.5409C13.323 30.5729 13.595 30.6316 13.787 30.7169C14.011 30.7382 14.1817 30.8076 14.299 30.9249C14.427 31.0316 14.491 31.1702 14.491 31.3409C14.491 31.3729 14.491 31.4262 14.491 31.5009C14.491 31.5756 14.491 31.6449 14.491 31.7089C14.491 31.7729 14.491 31.8209 14.491 31.8529C14.4057 31.7462 14.2457 31.6662 14.011 31.6129C13.787 31.5489 13.531 31.5009 13.243 31.4689C12.955 31.4369 12.6723 31.4156 12.395 31.4049C12.1283 31.3836 11.899 31.3729 11.707 31.3729H10.619C10.2563 31.3729 9.93099 31.4049 9.64299 31.4689C9.35499 31.5222 9.12565 31.6396 8.95499 31.8209C8.78432 31.9916 8.69899 32.2582 8.69899 32.6209C8.69899 32.8982 8.75232 33.1116 8.85899 33.2609C8.97632 33.3996 9.14165 33.4956 9.35499 33.5489C9.57899 33.5916 9.84032 33.6129 10.139 33.6129C10.6297 33.6129 11.0457 33.6129 11.387 33.6129C11.7283 33.6129 11.9897 33.6129 12.171 33.6129C12.651 33.6129 13.0723 33.6556 13.435 33.7409C13.8083 33.8156 14.0963 33.9916 14.299 34.2689C14.5123 34.5462 14.619 34.9836 14.619 35.5809C14.619 36.1462 14.4963 36.5996 14.251 36.9409C14.0057 37.2716 13.6697 37.5116 13.243 37.6609C12.8163 37.7996 12.3257 37.8849 11.771 37.9169C11.4403 37.9382 11.1203 37.9489 10.811 37.9489C10.5017 37.9596 10.1763 37.9596 9.83499 37.9489C9.52565 37.9489 9.20565 37.9382 8.87499 37.9169C8.54432 37.8956 8.23499 37.8582 7.94699 37.8049C7.66965 37.7409 7.44032 37.6556 7.25899 37.5489C7.08832 37.4422 7.00299 37.2982 7.00299 37.1169V36.5569ZM16.8007 37.8689C16.5447 37.8689 16.3794 37.8316 16.3047 37.7569C16.2407 37.6822 16.2087 37.5276 16.2087 37.2929V29.8049H17.7127V31.6929C17.8407 31.6502 18.0061 31.6182 18.2087 31.5969C18.4221 31.5649 18.6461 31.5382 18.8807 31.5169C19.1261 31.4956 19.3501 31.4849 19.5527 31.4849C20.2247 31.4849 20.7581 31.5436 21.1527 31.6609C21.5474 31.7782 21.8407 31.9542 22.0327 32.1889C22.2354 32.4129 22.3687 32.6956 22.4327 33.0369C22.4967 33.3782 22.5287 33.7836 22.5287 34.2529V37.1329C22.5287 37.3462 22.5074 37.5062 22.4647 37.6129C22.4327 37.7196 22.3687 37.7889 22.2727 37.8209C22.1767 37.8529 22.0327 37.8689 21.8407 37.8689H21.0567V33.9649C21.0567 33.4849 20.9927 33.1222 20.8647 32.8769C20.7367 32.6316 20.5394 32.4662 20.2727 32.3809C20.0167 32.2849 19.6914 32.2369 19.2967 32.2369C19.1474 32.2369 18.9661 32.2476 18.7527 32.2689C18.5501 32.2796 18.3527 32.3009 18.1607 32.3329C17.9794 32.3542 17.8301 32.3916 17.7127 32.4449V37.8689H16.8007ZM27.1051 37.9649C26.4438 37.9649 25.9051 37.9329 25.4891 37.8689C25.0731 37.8156 24.7531 37.7142 24.5291 37.5649C24.3051 37.4156 24.1504 37.2129 24.0651 36.9569C23.9904 36.7009 23.9531 36.3809 23.9531 35.9969C23.9531 35.4529 24.0118 35.0422 24.1291 34.7649C24.2571 34.4769 24.4704 34.2796 24.7691 34.1729C25.0784 34.0662 25.4891 34.0129 26.0011 34.0129C26.2678 34.0129 26.5611 34.0182 26.8811 34.0289C27.2118 34.0396 27.5264 34.0556 27.8251 34.0769C28.1344 34.0876 28.4011 34.1036 28.6251 34.1249C28.8598 34.1462 29.0144 34.1729 29.0891 34.2049C29.0891 33.7569 29.0518 33.4049 28.9771 33.1489C28.9024 32.8929 28.7798 32.7009 28.6091 32.5729C28.4491 32.4449 28.2464 32.3596 28.0011 32.3169C27.7558 32.2742 27.4678 32.2529 27.1371 32.2529C26.7744 32.2529 26.4118 32.2636 26.0491 32.2849C25.6971 32.3062 25.3611 32.3436 25.0411 32.3969C24.7318 32.4502 24.4758 32.5196 24.2731 32.6049V32.3009C24.2731 32.0556 24.3371 31.8796 24.4651 31.7729C24.6038 31.6662 24.7691 31.5969 24.9611 31.5649C25.1744 31.5116 25.4891 31.4689 25.9051 31.4369C26.3211 31.4049 26.7638 31.3942 27.2331 31.4049C27.8304 31.4049 28.3371 31.4369 28.7531 31.5009C29.1798 31.5542 29.5211 31.6716 29.7771 31.8529C30.0438 32.0342 30.2358 32.3062 30.3531 32.6689C30.4811 33.0316 30.5451 33.5169 30.5451 34.1249V37.3889C30.4491 37.5916 30.1238 37.7409 29.5691 37.8369C29.0144 37.9222 28.1931 37.9649 27.1051 37.9649ZM27.1051 37.2929C27.5318 37.2929 27.8784 37.2822 28.1451 37.2609C28.4224 37.2289 28.6358 37.1916 28.7851 37.1489C28.9344 37.0956 29.0358 37.0316 29.0891 36.9569V34.7489C28.9931 34.7169 28.8224 34.6902 28.5771 34.6689C28.3318 34.6369 28.0758 34.6102 27.8091 34.5889C27.5424 34.5676 27.3184 34.5569 27.1371 34.5569C26.7424 34.5569 26.4224 34.5836 26.1771 34.6369C25.9318 34.6902 25.7558 34.8129 25.6491 35.0049C25.5424 35.1969 25.4891 35.4956 25.4891 35.9009C25.4891 36.2316 25.5264 36.4982 25.6011 36.7009C25.6758 36.9036 25.8251 37.0529 26.0491 37.1489C26.2838 37.2449 26.6358 37.2929 27.1051 37.2929ZM33.6975 37.8689H32.6735C32.5135 37.8689 32.3908 37.8262 32.3055 37.7409C32.2202 37.6556 32.1775 37.4956 32.1775 37.2609V31.8049C32.4335 31.7302 32.7908 31.6502 33.2495 31.5649C33.7082 31.4796 34.2575 31.4369 34.8975 31.4369C35.5268 31.4369 36.0228 31.4796 36.3855 31.5649C36.7482 31.6396 37.0148 31.7569 37.1855 31.9169C37.3668 32.0662 37.4788 32.2529 37.5215 32.4769C37.5748 32.6902 37.6015 32.9409 37.6015 33.2289H36.1615L36.1455 33.0049C36.1455 32.7489 36.0762 32.5676 35.9375 32.4609C35.8095 32.3436 35.6548 32.2689 35.4735 32.2369C35.2922 32.2049 35.1108 32.1889 34.9295 32.1889C34.6522 32.1889 34.4015 32.2156 34.1775 32.2689C33.9642 32.3222 33.8042 32.3916 33.6975 32.4769V37.8689ZM41.9552 37.9649C41.3046 37.9649 40.7552 37.9222 40.3072 37.8369C39.8699 37.7516 39.5179 37.5916 39.2512 37.3569C38.9952 37.1222 38.8139 36.7969 38.7072 36.3809C38.6006 35.9649 38.5472 35.4262 38.5472 34.7649C38.5472 33.9756 38.6486 33.3356 38.8512 32.8449C39.0539 32.3542 39.4112 31.9969 39.9232 31.7729C40.4459 31.5382 41.1712 31.4209 42.0992 31.4209C42.8246 31.4209 43.4006 31.5116 43.8272 31.6929C44.2646 31.8636 44.5792 32.1356 44.7712 32.5089C44.9632 32.8822 45.0592 33.3569 45.0592 33.9329V34.9569H40.5632C40.5632 34.7862 40.6006 34.6476 40.6752 34.5409C40.7499 34.4342 40.8886 34.3809 41.0912 34.3809H43.7152L43.6992 33.9649C43.6886 33.3676 43.5606 32.9302 43.3152 32.6529C43.0806 32.3756 42.6539 32.2369 42.0352 32.2369C41.5232 32.2369 41.1232 32.3169 40.8352 32.4769C40.5472 32.6369 40.3446 32.8982 40.2272 33.2609C40.1099 33.6129 40.0512 34.1036 40.0512 34.7329C40.0512 35.3836 40.1152 35.8796 40.2432 36.2209C40.3819 36.5516 40.6059 36.7756 40.9152 36.8929C41.2352 37.0102 41.6779 37.0689 42.2432 37.0689C42.4459 37.0689 42.6806 37.0636 42.9472 37.0529C43.2246 37.0422 43.5019 37.0262 43.7792 37.0049C44.0672 36.9836 44.3232 36.9569 44.5472 36.9249C44.7712 36.8929 44.9206 36.8609 44.9952 36.8289V37.0529C44.9952 37.1702 44.9686 37.2876 44.9152 37.4049C44.8619 37.5222 44.7499 37.6182 44.5792 37.6929C44.3552 37.7996 44.0246 37.8689 43.5872 37.9009C43.1606 37.9436 42.6166 37.9649 41.9552 37.9649Z" fill="#1C274C" fill-opacity="0.6"/>
</svg>
