<svg width="31" height="31" viewBox="0 0 31 31" fill="none" xmlns="http://www.w3.org/2000/svg">
<circle opacity="0.5" cx="15.6489" cy="15.9587" r="15" fill="#1C274C"/>
<path d="M10.5117 12.1298C10.2308 9.00348 7.81982 6.09032 6.64946 5.02453L6.00293 4.47158C8.6108 2.27929 11.9759 0.95874 15.6495 0.95874C18.9695 0.95874 22.0377 2.03739 24.5226 3.86338C24.8737 4.92917 24.205 7.15611 23.5027 8.2219C23.2484 8.60795 22.6716 9.08722 22.0393 9.54152C20.6135 10.5659 18.8143 11.0726 17.8995 12.9587C17.638 13.4979 17.6491 14.025 17.7749 14.4831C17.8653 14.8125 17.9231 15.1705 17.924 15.5207C17.927 16.6531 16.7818 17.4711 15.6495 17.4587C12.703 17.4266 10.7742 15.052 10.5117 12.1298Z" fill="#1C274C"/>
<path d="M17.8036 25.3728C19.2858 22.5797 24.2263 22.5797 24.2263 22.5797C29.3742 22.526 30.0697 19.4004 30.5345 17.8206C29.7025 24.5426 24.423 29.8861 17.7317 30.8156C17.2478 29.7972 16.6745 27.5006 17.8036 25.3728Z" fill="#1C274C"/>
</svg>
