<svg width="50" height="51" viewBox="0 0 50 51" fill="none" xmlns="http://www.w3.org/2000/svg">
<path d="M34.8123 0.5H24.9998V19.7708H37.0623L34.8123 0.5ZM3.70817 5.5L2.104 18C2.0415 18.4583 2.1665 18.8958 2.479 19.25C2.77067 19.5833 3.18734 19.7708 3.64567 19.7708H12.9373L15.1873 0.5H9.39567C6.52067 0.5 4.08317 2.64583 3.70817 5.5Z" fill="#CFD8DC"/>
<path d="M46.2917 5.5C45.9167 2.64583 43.4792 0.5 40.6042 0.5H34.8125L37.0625 19.7708H46.3542C46.8125 19.7708 47.2292 19.5833 47.5208 19.25C47.8333 18.8958 47.9583 18.4583 47.8958 18L46.2917 5.5ZM12.9375 19.7708H25V0.5H15.1875L12.9375 19.7708Z" fill="#90A4AE"/>
<path d="M40.104 46.3337H9.89567C6.73525 46.3337 4.1665 43.7649 4.1665 40.6045V18.7295C4.1665 17.867 4.8665 17.167 5.729 17.167H44.2707C45.1332 17.167 45.8332 17.867 45.8332 18.7295V40.6045C45.8332 43.7649 43.2644 46.3337 40.104 46.3337Z" fill="#CFD8DC"/>
<path d="M19.2707 38H14.0623C12.0519 38 10.4165 36.3646 10.4165 34.3542V29.1458C10.4165 27.1354 12.0519 25.5 14.0623 25.5H19.2707C21.2811 25.5 22.9165 27.1354 22.9165 29.1458V34.3542C22.9165 36.3646 21.2811 38 19.2707 38Z" fill="#90A4AE"/>
<path d="M47.9167 21.3337H2.08333C0.93125 21.3337 0 20.4003 0 19.2503C0 18.1003 0.93125 17.167 2.08333 17.167H47.9167C49.0687 17.167 50 18.1003 50 19.2503C50 20.4003 49.0687 21.3337 47.9167 21.3337Z" fill="#607D8B"/>
<path d="M15.1875 0.5H9.39587C6.52087 0.5 4.08337 2.64583 3.70837 5.5L2.21045 17.1667H13.2417L15.1875 0.5Z" fill="#B4BCC0"/>
<path d="M25 0.5H15.1875L13.2417 17.1667H25V0.5Z" fill="#7D8F97"/>
<path d="M14.0623 37.9997C12.0519 37.9997 10.4165 36.3643 10.4165 34.3538V29.1455C10.4165 27.1351 12.0519 25.4997 14.0623 25.4997H19.2707C21.2811 25.4997 22.9165 27.1351 22.9165 29.1455V34.3538C22.9165 36.3643 21.2811 37.9997 19.2707 37.9997H14.0623ZM24.9998 21.333H4.1665V40.6038C4.1665 43.7643 6.73525 46.333 9.89567 46.333H24.9998V21.333Z" fill="#B4BCC0"/>
<path d="M19.2707 25.5H14.0623C12.0519 25.5 10.4165 27.1354 10.4165 29.1458V34.3542C10.4165 36.3646 12.0519 38 14.0623 38H19.2707C21.2811 38 22.9165 36.3646 22.9165 34.3542V29.1458C22.9165 27.1354 21.2811 25.5 19.2707 25.5Z" fill="#7D8F97"/>
<path d="M25 17.167H13.2417H2.21042H2.08333C0.93125 17.167 0 18.1003 0 19.2503C0 20.4003 0.93125 21.3337 2.08333 21.3337H4.16667H25V17.167Z" fill="#546D79"/>
<path d="M33.3327 50.5003C31.8973 50.5003 30.7285 49.3316 30.7285 47.8962C30.7285 46.4607 31.8973 45.292 33.3327 45.292C34.7681 45.292 35.9368 46.4607 35.9368 47.8962C35.9368 49.3316 34.7681 50.5003 33.3327 50.5003Z" fill="#FFC107"/>
<path d="M41.6662 50.5003C43.1044 50.5003 44.2703 49.3344 44.2703 47.8962C44.2703 46.4579 43.1044 45.292 41.6662 45.292C40.2279 45.292 39.062 46.4579 39.062 47.8962C39.062 49.3344 40.2279 50.5003 41.6662 50.5003Z" fill="#FFC107"/>
<path d="M48.7909 25.5418C47.9472 25.3438 47.1118 25.8688 46.9138 26.7084L45.7388 31.7501H26.5618C25.5638 31.7501 24.8201 32.673 25.0368 33.6522L27.1201 43.0272C27.2784 43.7418 27.9118 44.2501 28.6451 44.2501H44.7909C45.4409 44.2501 46.1472 43.7563 46.3118 43.0438L49.9576 27.4188C50.1534 26.5792 49.6305 25.7376 48.7909 25.5418Z" fill="#FFC107"/>
<path d="M33.3332 45.292C31.8978 45.292 30.729 46.4607 30.729 47.8962C30.729 49.3316 31.8978 50.5003 33.3332 50.5003C34.7686 50.5003 35.9373 49.3316 35.9373 47.8962C35.9373 46.4607 34.7686 45.292 33.3332 45.292Z" fill="#DEA806"/>
<path d="M37.4998 31.75H26.5623C25.5643 31.75 24.8206 32.6729 25.0373 33.6521L27.1206 43.0271C27.2789 43.7417 27.9123 44.25 28.6456 44.25H37.4998V31.75Z" fill="#DEA806"/>
</svg>
