<svg width="50" height="51" viewBox="0 0 50 51" fill="none" xmlns="http://www.w3.org/2000/svg">
<path d="M33.1123 8.72534C33.1123 10.9158 32.2578 12.9753 30.707 14.5242L18.9473 26.2673C18.6611 26.5525 18.2861 26.696 17.9121 26.696C17.5371 26.696 17.1631 26.5525 16.877 26.2673L5.11719 14.5242C3.56543 12.9753 2.71191 10.9158 2.71191 8.72534C2.71191 6.53394 3.56543 4.47534 5.11719 2.92651C8.31738 -0.269775 13.5244 -0.269775 16.7256 2.92651L17.9121 4.11108L19.0986 2.92651C22.2988 -0.269775 27.5068 -0.269775 30.707 2.92651C32.2578 4.47534 33.1123 6.53394 33.1123 8.72534Z" fill="#FF455A"/>
<path d="M47.4365 27.6899C47.4365 29.4019 46.7686 31.0112 45.5566 32.2222L36.9238 40.8423C36.6377 41.1284 36.2627 41.271 35.8887 41.271C35.5137 41.271 35.1396 41.1284 34.8535 40.8423L26.2207 32.2222C25.0088 31.0112 24.3408 29.4019 24.3408 27.6899C24.3408 25.978 25.0088 24.3677 26.2207 23.1577C28.7217 20.6597 32.792 20.6597 35.293 23.1577L35.8887 23.7524L36.4844 23.1577C38.9854 20.6597 43.0547 20.6597 45.5566 23.1577C46.7686 24.3677 47.4365 25.978 47.4365 27.6899Z" fill="#FF8FBA"/>
<path d="M27.5449 40.6836C27.5449 41.9854 27.0371 43.209 26.1152 44.1299L20.165 50.0713C19.8789 50.3574 19.5039 50.5 19.1299 50.5C18.7549 50.5 18.3809 50.3574 18.0947 50.0713L12.1445 44.1299C11.2227 43.209 10.7148 41.9854 10.7148 40.6836C10.7148 39.3818 11.2227 38.1572 12.1445 37.2373C14.0459 35.3389 17.1396 35.3389 19.041 37.2373L19.1299 37.3262L19.2188 37.2373C21.1201 35.3389 24.2139 35.3389 26.1152 37.2373C27.0371 38.1572 27.5449 39.3818 27.5449 40.6836Z" fill="#FF455A"/>
<path d="M37.8247 8.72559H39.9636C40.7726 8.72559 41.4284 8.06973 41.4284 7.26074C41.4284 6.45176 40.7726 5.7959 39.9636 5.7959H37.8247C37.0157 5.7959 36.3599 6.45176 36.3599 7.26074C36.3599 8.06973 37.0157 8.72559 37.8247 8.72559Z" fill="#FFDA2F"/>
<path d="M43.1797 14.0216C43.9887 14.0216 44.6445 13.3657 44.6445 12.5567V10.4209C44.6445 9.61191 43.9887 8.95605 43.1797 8.95605C42.3707 8.95605 41.7148 9.61191 41.7148 10.4209V12.5567C41.7148 13.3657 42.3707 14.0216 43.1797 14.0216Z" fill="#FFDA2F"/>
<path d="M48.5354 5.7959H46.3965C45.5875 5.7959 44.9316 6.45176 44.9316 7.26074C44.9316 8.06973 45.5875 8.72559 46.3965 8.72559H48.5354C49.3443 8.72559 50.0002 8.06973 50.0002 7.26074C50.0002 6.45176 49.3443 5.7959 48.5354 5.7959Z" fill="#FFDA2F"/>
<path d="M43.1797 5.56553C43.9887 5.56553 44.6445 4.90967 44.6445 4.10068V1.96484C44.6445 1.15586 43.9887 0.5 43.1797 0.5C42.3707 0.5 41.7148 1.15586 41.7148 1.96484V4.10068C41.7148 4.90967 42.3707 5.56553 43.1797 5.56553Z" fill="#FFDA2F"/>
<path d="M3.60371 28.2451H1.46484C0.655859 28.2451 0 28.901 0 29.71C0 30.5189 0.655859 31.1748 1.46484 31.1748H3.60371C4.4127 31.1748 5.06855 30.5189 5.06855 29.71C5.06855 28.901 4.4127 28.2451 3.60371 28.2451Z" fill="#FFEE64"/>
<path d="M6.81982 31.4053C6.01084 31.4053 5.35498 32.0611 5.35498 32.8701V35.006C5.35498 35.8149 6.01084 36.4708 6.81982 36.4708C7.62881 36.4708 8.28467 35.8149 8.28467 35.006V32.8701C8.28467 32.0611 7.62891 31.4053 6.81982 31.4053Z" fill="#FFEE64"/>
<path d="M13.6403 29.71C13.6403 28.901 12.9845 28.2451 12.1755 28.2451H10.0366C9.22764 28.2451 8.57178 28.901 8.57178 29.71C8.57178 30.5189 9.22764 31.1748 10.0366 31.1748H12.1755C12.9845 31.1748 13.6403 30.5189 13.6403 29.71Z" fill="#FFEE64"/>
<path d="M6.81982 22.9492C6.01084 22.9492 5.35498 23.6051 5.35498 24.4141V26.5499C5.35498 27.3589 6.01084 28.0147 6.81982 28.0147C7.62881 28.0147 8.28467 27.3589 8.28467 26.5499V24.4141C8.28467 23.6051 7.62891 22.9492 6.81982 22.9492Z" fill="#FFEE64"/>
<path d="M33.1123 8.72534C33.1123 10.9158 32.2578 12.9753 30.707 14.5242L18.9473 26.2673C18.6611 26.5525 18.2861 26.696 17.9121 26.696V4.11108L19.0986 2.92651C22.2988 -0.269775 27.5068 -0.269775 30.707 2.92651C32.2578 4.47534 33.1123 6.53394 33.1123 8.72534Z" fill="#FF0A4C"/>
<path d="M27.5449 40.6836C27.5449 41.9854 27.0371 43.209 26.1152 44.1299L20.165 50.0713C19.8789 50.3574 19.5039 50.5 19.1299 50.5V37.3262L19.2188 37.2373C21.1201 35.3389 24.2139 35.3389 26.1152 37.2373C27.0371 38.1572 27.5449 39.3818 27.5449 40.6836Z" fill="#FF0A4C"/>
<path d="M47.4365 27.6899C47.4365 29.4019 46.7686 31.0112 45.5566 32.2222L36.9238 40.8423C36.6377 41.1284 36.2627 41.271 35.8887 41.271V23.7524L36.4844 23.1577C38.9854 20.6597 43.0547 20.6597 45.5566 23.1577C46.7686 24.3677 47.4365 25.978 47.4365 27.6899Z" fill="#FF5F98"/>
</svg>
