<svg width="50" height="51" viewBox="0 0 50 51" fill="none" xmlns="http://www.w3.org/2000/svg">
<path d="M34.8128 0.5H25.0003V19.7708H37.0628L34.8128 0.5ZM3.70866 5.5L2.10449 18C2.04199 18.4583 2.16699 18.8958 2.47949 19.25C2.77116 19.5833 3.18783 19.7708 3.64616 19.7708H12.9378L15.1878 0.5H9.39616C6.52116 0.5 4.08366 2.64583 3.70866 5.5Z" fill="#CFD8DC"/>
<path d="M46.2917 5.5C45.9167 2.64583 43.4792 0.5 40.6042 0.5H34.8125L37.0625 19.7708H46.3542C46.8125 19.7708 47.2292 19.5833 47.5208 19.25C47.8333 18.8958 47.9583 18.4583 47.8958 18L46.2917 5.5ZM12.9375 19.7708H25V0.5H15.1875L12.9375 19.7708Z" fill="#90A4AE"/>
<path d="M40.1045 46.3337H9.89616C6.73574 46.3337 4.16699 43.7649 4.16699 40.6045V18.7295C4.16699 17.867 4.86699 17.167 5.72949 17.167H44.2712C45.1337 17.167 45.8337 17.867 45.8337 18.7295V40.6045C45.8337 43.7649 43.2649 46.3337 40.1045 46.3337Z" fill="#CFD8DC"/>
<path d="M19.2712 38H14.0628C12.0524 38 10.417 36.3646 10.417 34.3542V29.1458C10.417 27.1354 12.0524 25.5 14.0628 25.5H19.2712C21.2816 25.5 22.917 27.1354 22.917 29.1458V34.3542C22.917 36.3646 21.2816 38 19.2712 38Z" fill="#90A4AE"/>
<path d="M47.9167 21.3337H2.08333C0.93125 21.3337 0 20.4003 0 19.2503C0 18.1003 0.93125 17.167 2.08333 17.167H47.9167C49.0687 17.167 50 18.1003 50 19.2503C50 20.4003 49.0687 21.3337 47.9167 21.3337Z" fill="#607D8B"/>
<path d="M15.187 0.5H9.39538C6.52038 0.5 4.08288 2.64583 3.70788 5.5L2.20996 17.1667H13.2412L15.187 0.5Z" fill="#B4BCC0"/>
<path d="M24.9995 0.5H15.187L13.2412 17.1667H24.9995V0.5Z" fill="#7D8F97"/>
<path d="M14.0628 37.9997C12.0524 37.9997 10.417 36.3643 10.417 34.3538V29.1455C10.417 27.1351 12.0524 25.4997 14.0628 25.4997H19.2712C21.2816 25.4997 22.917 27.1351 22.917 29.1455V34.3538C22.917 36.3643 21.2816 37.9997 19.2712 37.9997H14.0628ZM25.0003 21.333H4.16699V40.6038C4.16699 43.7643 6.73574 46.333 9.89616 46.333H25.0003V21.333Z" fill="#B4BCC0"/>
<path d="M19.2712 25.5H14.0628C12.0524 25.5 10.417 27.1354 10.417 29.1458V34.3542C10.417 36.3646 12.0524 38 14.0628 38H19.2712C21.2816 38 22.917 36.3646 22.917 34.3542V29.1458C22.917 27.1354 21.2816 25.5 19.2712 25.5Z" fill="#7D8F97"/>
<path d="M25 17.167H13.2417H2.21042H2.08333C0.93125 17.167 0 18.1003 0 19.2503C0 20.4003 0.93125 21.3337 2.08333 21.3337H4.16667H25V17.167Z" fill="#546D79"/>
<path d="M33.3337 50.5003C31.8982 50.5003 30.7295 49.3316 30.7295 47.8962C30.7295 46.4607 31.8982 45.292 33.3337 45.292C34.7691 45.292 35.9378 46.4607 35.9378 47.8962C35.9378 49.3316 34.7691 50.5003 33.3337 50.5003Z" fill="#FFC107"/>
<path d="M41.6667 50.5003C43.1049 50.5003 44.2708 49.3344 44.2708 47.8962C44.2708 46.4579 43.1049 45.292 41.6667 45.292C40.2284 45.292 39.0625 46.4579 39.0625 47.8962C39.0625 49.3344 40.2284 50.5003 41.6667 50.5003Z" fill="#FFC107"/>
<path d="M48.7919 25.5418C47.9482 25.3438 47.1127 25.8688 46.9148 26.7084L45.7398 31.7501H26.5627C25.5648 31.7501 24.8211 32.673 25.0377 33.6522L27.1211 43.0272C27.2794 43.7418 27.9127 44.2501 28.6461 44.2501H44.7919C45.4419 44.2501 46.1482 43.7563 46.3127 43.0438L49.9586 27.4188C50.1544 26.5792 49.6315 25.7376 48.7919 25.5418Z" fill="#FFC107"/>
<path d="M33.3337 45.292C31.8982 45.292 30.7295 46.4607 30.7295 47.8962C30.7295 49.3316 31.8982 50.5003 33.3337 50.5003C34.7691 50.5003 35.9378 49.3316 35.9378 47.8962C35.9378 46.4607 34.7691 45.292 33.3337 45.292Z" fill="#DEA806"/>
<path d="M37.5002 31.75H26.5627C25.5648 31.75 24.8211 32.6729 25.0377 33.6521L27.1211 43.0271C27.2794 43.7417 27.9127 44.25 28.6461 44.25H37.5002V31.75Z" fill="#DEA806"/>
</svg>
