<svg width="50" height="51" viewBox="0 0 50 51" fill="none" xmlns="http://www.w3.org/2000/svg">
<g clip-path="url(#clip0_2325_1299)">
<path d="M49.9207 48.4437L34.2957 1.56875C34.0801 0.93125 33.4832 0.5 32.8113 0.5H17.1863C16.6832 0.5 16.2113 0.740625 15.9176 1.15C15.6238 1.55625 15.5457 2.08125 15.7051 2.55625L29.5488 44.0906C30.827 47.925 34.402 50.5 38.4426 50.5H48.4363C48.9395 50.5 49.4113 50.2594 49.702 49.85C49.9988 49.4437 50.077 48.9188 49.9207 48.4437Z" fill="#4CAF50"/>
<path d="M34.0772 1.15C33.7866 0.740625 33.3147 0.5 32.8116 0.5H17.1866C16.5147 0.5 15.9178 0.93125 15.7053 1.56875L0.0803433 48.4437C-0.0790317 48.9188 0.00221832 49.4437 0.292843 49.85C0.586593 50.2594 1.05847 50.5 1.56159 50.5H11.5553C15.596 50.5 19.171 47.925 20.4491 44.0906L34.296 2.55625C34.4522 2.08125 34.3741 1.55625 34.0772 1.15Z" fill="#2196F3"/>
</g>
<defs>
<clipPath id="clip0_2325_1299">
<rect width="50" height="50" fill="white" transform="translate(0 0.5)"/>
</clipPath>
</defs>
</svg>
