<svg width="50" height="51" viewBox="0 0 50 51" fill="none" xmlns="http://www.w3.org/2000/svg">
<g clip-path="url(#clip0_2325_1314)">
<path d="M21.2301 40.8433C20.9268 40.5409 20.7953 40.1065 20.8801 39.6868L22.804 30.0652C22.924 29.477 22.5446 28.9029 21.9564 28.7828C21.8848 28.7682 21.8119 28.7607 21.7387 28.7607H8.69536C8.09506 28.7596 7.60757 29.2455 7.60645 29.8458C7.60594 30.1352 7.72088 30.4129 7.92581 30.6173L11.9562 34.6455V42.7389C11.9562 44.5558 12.8641 46.2526 14.3757 47.2606L18.9605 50.3171C19.3914 50.6049 19.9655 50.5486 20.3322 50.1823L21.2322 49.2823C22.2554 48.2655 22.8292 46.8814 22.8256 45.4389V44.6911C22.8287 43.2469 22.2541 41.8616 21.2301 40.8433Z" fill="#607D8B"/>
<path d="M40.2171 42.891C44.4192 42.891 47.8257 33.6447 47.8257 22.2389C47.8257 10.8331 44.4192 1.58691 40.2171 1.58691C36.0149 1.58691 32.6084 10.8331 32.6084 22.2389C32.6084 33.6447 36.0149 42.891 40.2171 42.891Z" fill="#B0BEC5"/>
<path d="M39.13 15.7168C38.5297 15.7168 38.043 16.2035 38.043 16.8038V27.6733C38.043 28.2736 38.5297 28.7603 39.13 28.7603C42.4158 28.43 44.8323 25.5301 44.5647 22.2386C44.8323 18.9471 42.4158 16.0471 39.13 15.7168Z" fill="#F44336"/>
<path d="M21.7389 28.7602C17.7281 28.7602 16.3042 25.2471 16.3042 22.2385C16.3042 19.2299 17.7281 15.7168 21.7389 15.7168C22.3392 15.7168 22.8259 15.2301 22.8259 14.6298C22.8259 14.0295 22.3392 13.543 21.7389 13.543H9.78246C4.98005 13.543 1.08691 17.4361 1.08691 22.2385C1.08691 27.0409 4.98005 30.934 9.78246 30.934H21.7388C22.3391 30.934 22.8258 30.4474 22.8258 29.8471C22.8258 29.2469 22.3392 28.7602 21.7389 28.7602Z" fill="#F44336"/>
<path d="M33.6959 22.2389C33.6959 14.9651 35.1263 8.28247 37.4284 4.79551C37.7599 4.29497 37.6229 3.62059 37.1223 3.2891C36.7481 3.04128 36.2599 3.04892 35.8937 3.30857L21.383 13.5433C17.0938 13.7346 14.1309 17.2563 14.1309 22.2389C14.1309 27.2214 17.0938 30.7431 21.383 30.9344L35.8937 41.1778C36.3834 41.5249 37.0619 41.4094 37.409 40.9195C37.6685 40.5533 37.6763 40.0652 37.4284 39.6909C35.1263 36.1953 33.6959 29.5128 33.6959 22.2389Z" fill="#F5F5F5"/>
<path d="M40.218 43.9779C34.5658 43.9779 31.5225 32.778 31.5225 22.239C31.5225 11.7 34.5658 0.5 40.218 0.5C45.8702 0.5 48.9135 11.6999 48.9135 22.2389C48.9135 32.7779 45.8702 43.9779 40.218 43.9779ZM40.218 2.67386C37.1332 2.67386 33.6963 10.7172 33.6963 22.2389C33.6963 33.7606 37.1332 41.8039 40.218 41.8039C43.3028 41.8039 46.7397 33.7606 46.7397 22.2389C46.7397 10.7172 43.3028 2.67386 40.218 2.67386Z" fill="#F5F5F5"/>
</g>
<defs>
<clipPath id="clip0_2325_1314">
<rect width="50" height="50" fill="white" transform="translate(0 0.5)"/>
</clipPath>
</defs>
</svg>
