<svg width="50" height="51" viewBox="0 0 50 51" fill="none" xmlns="http://www.w3.org/2000/svg">
<path d="M49.4273 3.73556V28.8169C49.4273 30.2726 48.3029 31.4528 46.916 31.4528H3.08352C1.69664 31.4528 0.572266 30.2726 0.572266 28.8169V3.73556C0.572266 2.27981 1.69664 1.09961 3.08352 1.09961H46.916C48.3029 1.09961 49.4273 2.27981 49.4273 3.73556Z" fill="#B8DAFF"/>
<path d="M49.4273 8.4758V33.5571C49.4273 35.0128 48.3029 36.193 46.916 36.193H3.08352C1.69664 36.193 0.572266 35.0128 0.572266 33.5571V8.4758C0.572266 7.02004 1.69664 5.83984 3.08352 5.83984H46.916C48.3029 5.83984 49.4273 7.02004 49.4273 8.4758Z" fill="#FEFDFE"/>
<path d="M49.4273 13.6945V38.7758C49.4273 40.2316 48.3029 41.4118 46.916 41.4118H3.08352C1.69664 41.4118 0.572266 40.2316 0.572266 38.7758V13.6945C0.572266 12.2388 1.69664 11.0586 3.08352 11.0586H46.916C48.3029 11.0587 49.4273 12.2388 49.4273 13.6945Z" fill="#B8DAFF"/>
<path d="M45.5461 32.1021V20.3691C42.3711 20.3691 39.7964 17.6666 39.7964 14.334H10.2028C10.2028 17.6666 7.62812 20.3691 4.45312 20.3691V32.1021C7.62812 32.1021 10.2028 34.8046 10.2028 38.1372H39.7964C39.7964 34.8046 42.3711 32.1021 45.5461 32.1021Z" fill="#FEFDFE"/>
<path d="M24.9998 33.2634C27.8577 33.2634 30.1744 30.1163 30.1744 26.2342C30.1744 22.3521 27.8577 19.2051 24.9998 19.2051C22.142 19.2051 19.8252 22.3521 19.8252 26.2342C19.8252 30.1163 22.142 33.2634 24.9998 33.2634Z" fill="#B8DAFF"/>
<path d="M36.6692 29.1104C38.1687 29.1104 39.3842 27.823 39.3842 26.2349C39.3842 24.6468 38.1687 23.3594 36.6692 23.3594C35.1697 23.3594 33.9541 24.6468 33.9541 26.2349C33.9541 27.823 35.1697 29.1104 36.6692 29.1104Z" fill="#B8DAFF"/>
<path d="M13.3313 29.1104C14.8308 29.1104 16.0463 27.823 16.0463 26.2349C16.0463 24.6468 14.8308 23.3594 13.3313 23.3594C11.8318 23.3594 10.6162 24.6468 10.6162 26.2349C10.6162 27.823 11.8318 29.1104 13.3313 29.1104Z" fill="#B8DAFF"/>
<path d="M46.9159 0.5H3.08399C1.38359 0.5 0 1.95208 0 3.73713V38.7764C0 40.5614 1.38359 42.0135 3.08399 42.0135H11.7444C12.0605 42.0135 12.317 41.7446 12.317 41.4125C12.317 41.0805 12.0605 40.8116 11.7444 40.8116H3.08399C2.01503 40.8116 1.14507 39.8986 1.14507 38.7764C1.14507 30.3956 1.14507 22.0496 1.14507 13.6927C1.14507 12.5706 2.01503 11.6576 3.08399 11.6576H46.916C47.985 11.6576 48.8549 12.5705 48.8549 13.6927V38.7764C48.8549 39.8986 47.985 40.8116 46.916 40.8116H39.5687C39.2525 40.8116 38.9961 41.0805 38.9961 41.4125C38.9961 41.7446 39.2525 42.0135 39.5687 42.0135H46.916C48.6164 42.0135 50 40.5614 50 38.7764C50 25.4878 50 16.3872 50 3.73713C50 1.95208 48.6164 0.5 46.9159 0.5ZM3.08399 1.70193H46.916C47.985 1.70193 48.8549 2.61487 48.8549 3.73713V5.96264C48.3247 5.51126 47.6503 5.23949 46.916 5.23949H3.08399C2.34975 5.23949 1.6752 5.51116 1.14507 5.96264V3.73713C1.14497 2.61487 2.01493 1.70193 3.08399 1.70193ZM46.9159 10.4558H3.08399C2.34975 10.4558 1.6752 10.7274 1.14507 11.1789V8.47651C1.14507 7.35447 2.01503 6.44142 3.08399 6.44142H46.916C47.985 6.44142 48.8549 7.35436 48.8549 8.47651V11.1789C48.3247 10.7275 47.6503 10.4558 46.9159 10.4558Z" fill="#3F8CF4"/>
<path d="M40.3697 38.1369C40.3697 35.1413 42.6915 32.7043 45.5451 32.7043C45.8613 32.7043 46.1177 32.4354 46.1177 32.1033V20.3689C46.1177 20.037 45.8613 19.768 45.5451 19.768C42.6915 19.768 40.3697 17.3309 40.3697 14.3353C40.3697 14.0034 40.1133 13.7344 39.7972 13.7344H10.2018C9.88563 13.7344 9.62922 14.0033 9.62922 14.3353C9.62922 17.3309 7.30747 19.768 4.4534 19.768C4.13728 19.768 3.88086 20.0369 3.88086 20.3689V32.1034C3.88086 32.4354 4.13728 32.7044 4.4534 32.7044C6.67113 32.7044 8.63885 34.1843 9.3519 36.3919C9.53601 36.9457 9.62922 37.5329 9.62922 38.137C9.62922 38.4689 9.88563 38.738 10.2018 38.738H11.8888C12.2049 38.738 12.4613 38.469 12.4613 38.137C12.4613 37.805 12.2049 37.5361 11.8888 37.5361H10.7486C10.7035 37.0075 10.598 36.4926 10.4348 36.001C9.62782 33.5016 7.49608 31.7641 5.02603 31.5296V20.9428C8.05562 20.656 10.4754 18.1161 10.7486 14.9363H39.2505C39.5237 18.1161 41.9434 20.656 44.9727 20.9428V31.5294C41.9435 31.8162 39.5237 34.3561 39.2505 37.5359H36.5452C36.2291 37.5359 35.9726 37.8049 35.9726 38.1369C35.9726 38.4689 36.2291 38.7379 36.5452 38.7379H39.7973C40.1132 38.7379 40.3697 38.4689 40.3697 38.1369Z" fill="#3F8CF4"/>
<path d="M30.7463 26.2355C30.7463 22.0283 28.1681 18.6055 24.9991 18.6055C21.8301 18.6055 19.252 22.0283 19.252 26.2355C19.252 30.4426 21.8301 33.8655 24.9991 33.8655C28.1681 33.8655 30.7463 30.4426 30.7463 26.2355ZM20.3969 26.2355C20.3969 22.691 22.4615 19.8074 24.9991 19.8074C27.5368 19.8074 29.6013 22.6911 29.6013 26.2355C29.6013 29.7798 27.5367 32.6635 24.9991 32.6635C22.4616 32.6635 20.3969 29.78 20.3969 26.2355Z" fill="#3F8CF4"/>
<path d="M39.9549 26.2363C39.9549 24.3192 38.48 22.7598 36.6674 22.7598C34.8548 22.7598 33.3799 24.3192 33.3799 26.2363C33.3799 28.1534 34.8548 29.7129 36.6674 29.7129C38.48 29.7129 39.9549 28.1534 39.9549 26.2363ZM34.525 26.2363C34.525 24.982 35.4862 23.9617 36.6674 23.9617C37.8486 23.9617 38.8098 24.982 38.8098 26.2363C38.8098 27.4906 37.8486 28.511 36.6674 28.511C35.4862 28.511 34.525 27.4906 34.525 26.2363Z" fill="#3F8CF4"/>
<path d="M16.6203 26.2363C16.6203 24.3192 15.1454 22.7598 13.3324 22.7598C11.5198 22.7598 10.0449 24.3192 10.0449 26.2363C10.0449 28.1534 11.5198 29.7129 13.3324 29.7129C15.1454 29.7129 16.6203 28.1534 16.6203 26.2363ZM13.3324 28.511C12.1513 28.511 11.19 27.4906 11.19 26.2363C11.19 24.982 12.1513 23.9617 13.3324 23.9617C14.514 23.9617 15.4753 24.982 15.4753 26.2363C15.4753 27.4906 14.514 28.511 13.3324 28.511Z" fill="#3F8CF4"/>
<path d="M27.4439 48.6545V47.1355H15.336C14.617 47.1355 14.0342 46.5237 14.0342 45.7691V39.2928C14.0342 38.5382 14.617 37.9264 15.336 37.9264H27.4439V36.6532C27.4439 35.6162 28.5693 35.0216 29.3628 35.6394L36.935 41.5347C37.5763 42.034 37.5844 43.0388 36.9512 43.5494L29.379 49.6553C28.5881 50.2932 27.4439 49.7014 27.4439 48.6545Z" fill="#B8DAFF"/>
<path d="M29.543 50.1131L37.2907 44.0295C38.2471 43.2786 38.2363 41.8016 37.2663 41.0665L29.5181 35.1926C28.3205 34.2848 26.62 35.1584 26.62 36.6836V37.3532H14.817C13.7598 37.3532 12.8994 38.2326 12.8994 39.3134V45.766C12.8994 46.8468 13.7598 47.7262 14.817 47.7262H26.6201V48.641C26.62 50.1861 28.3542 51.0467 29.543 50.1131ZM14.817 46.5287C14.4055 46.5287 14.0711 46.1866 14.0711 45.766V39.3134C14.0711 38.8928 14.4056 38.5508 14.817 38.5508H27.2058C27.5293 38.5508 27.7916 38.2828 27.7916 37.952V36.6836C27.7916 36.1424 28.3924 35.8308 28.8202 36.1542L36.5684 42.0281C36.9117 42.2887 36.9171 42.8125 36.5768 43.0799L28.829 49.1635C28.4052 49.4971 27.7916 49.1888 27.7916 48.641V47.1276C27.7916 46.7969 27.5293 46.5288 27.2058 46.5288H14.817V46.5287Z" fill="#3F8CF4"/>
</svg>
