<svg width="50" height="51" viewBox="0 0 50 51" fill="none" xmlns="http://www.w3.org/2000/svg">
<path d="M48.4372 4.66699H28.6455C27.783 4.66699 27.083 5.36699 27.083 6.22949C27.083 7.09199 27.783 7.79199 28.6455 7.79199H48.4372C49.2997 7.79199 49.9997 7.09199 49.9997 6.22949C49.9997 5.36699 49.2997 4.66699 48.4372 4.66699Z" fill="#90A4AE"/>
<path d="M48.4372 10.917H28.6455C27.783 10.917 27.083 11.617 27.083 12.4795C27.083 13.342 27.783 14.042 28.6455 14.042H48.4372C49.2997 14.042 49.9997 13.342 49.9997 12.4795C49.9997 11.617 49.2997 10.917 48.4372 10.917Z" fill="#90A4AE"/>
<path d="M48.4372 17.167H28.6455C27.783 17.167 27.083 17.867 27.083 18.7295C27.083 19.592 27.783 20.292 28.6455 20.292H48.4372C49.2997 20.292 49.9997 19.592 49.9997 18.7295C49.9997 17.867 49.2997 17.167 48.4372 17.167Z" fill="#90A4AE"/>
<path d="M48.4372 31.75H28.6455C27.783 31.75 27.083 32.45 27.083 33.3125C27.083 34.175 27.783 34.875 28.6455 34.875H48.4372C49.2997 34.875 49.9997 34.175 49.9997 33.3125C49.9997 32.45 49.2997 31.75 48.4372 31.75Z" fill="#90A4AE"/>
<path d="M48.4372 38H28.6455C27.783 38 27.083 38.7 27.083 39.5625C27.083 40.425 27.783 41.125 28.6455 41.125H48.4372C49.2997 41.125 49.9997 40.425 49.9997 39.5625C49.9997 38.7 49.2997 38 48.4372 38Z" fill="#90A4AE"/>
<path d="M48.4372 44.25H28.6455C27.783 44.25 27.083 44.95 27.083 45.8125C27.083 46.675 27.783 47.375 28.6455 47.375H48.4372C49.2997 47.375 49.9997 46.675 49.9997 45.8125C49.9997 44.95 49.2997 44.25 48.4372 44.25Z" fill="#90A4AE"/>
<path d="M3.64584 23.4167H19.2708C21.2708 23.4167 22.9167 21.7708 22.9167 19.7708V4.14584C22.9167 2.14583 21.2708 0.5 19.2708 0.5H3.64584C1.64583 0.5 0 2.14583 0 4.14584V19.7708C0 21.7708 1.64583 23.4167 3.64584 23.4167Z" fill="#ECEFF1"/>
<path d="M6.25 15.6045V8.31282C6.25 7.77115 6.52083 7.27115 7 6.97948C7.45833 6.70865 8.02083 6.66698 8.5 6.91698L15.7917 10.5628C16.3333 10.8337 16.6667 11.3753 16.6667 11.9587C16.6667 12.542 16.3333 13.0837 15.7917 13.3545L8.5 17.0003C8.29167 17.1045 8.04167 17.167 7.8125 17.167C7.52083 17.167 7.25 17.0837 7 16.9378C6.52083 16.6462 6.25 16.1462 6.25 15.6045Z" fill="#F44336"/>
<path d="M3.64584 50.4997H19.2708C21.2708 50.4997 22.9167 48.8539 22.9167 46.8539V31.2288C22.9167 29.2288 21.2708 27.583 19.2708 27.583H3.64584C1.64583 27.583 0 29.2288 0 31.2288V46.8539C0 48.8539 1.64583 50.4997 3.64584 50.4997Z" fill="#ECEFF1"/>
<path d="M6.25 42.6875V35.3958C6.25 34.8542 6.52083 34.3542 7 34.0625C7.45833 33.7917 8.02083 33.75 8.5 34L15.7917 37.6458C16.3333 37.9167 16.6667 38.4583 16.6667 39.0417C16.6667 39.625 16.3333 40.1667 15.7917 40.4375L8.5 44.0833C8.29167 44.1875 8.04167 44.25 7.8125 44.25C7.52083 44.25 7.25 44.1667 7 44.0208C6.52083 43.7292 6.25 43.2292 6.25 42.6875Z" fill="#F44336"/>
</svg>
