<svg width="50" height="51" viewBox="0 0 50 51" fill="none" xmlns="http://www.w3.org/2000/svg">
<path d="M40.1029 33.8117H5.72899C2.56867 33.8117 0 31.2446 0 28.0862V22.3608C0 21.4988 0.699978 20.7993 1.56245 20.7993H2.60409C4.61444 20.7993 6.2498 19.1649 6.2498 17.1558C6.2498 15.1467 4.61444 13.5124 2.60409 13.5124H1.56245C0.699978 13.5124 0 12.8128 0 11.9509V6.22544C0 3.06708 2.56867 0.5 5.72899 0.5H40.1029C43.2632 0.5 45.8319 3.06708 45.8319 6.22544V11.9509C45.8319 12.8128 45.1319 13.5124 44.2694 13.5124H43.2278C41.2175 13.5124 39.5821 15.1467 39.5821 17.1558C39.5821 18.1281 39.9613 19.0442 40.6508 19.7312C41.3404 20.4183 42.2549 20.7972 43.2257 20.7972H44.2674C45.1298 20.7972 45.8298 21.4968 45.8298 22.3587V28.0841C45.8319 31.2446 43.2632 33.8117 40.1029 33.8117Z" fill="#CFD8DC"/>
<path d="M22.916 0.5H5.72899C2.56867 0.5 0 3.06708 0 6.22544V11.9509C0 12.8128 0.699978 13.5124 1.56245 13.5124H2.60409C4.61444 13.5124 6.2498 15.1467 6.2498 17.1579C6.2498 19.167 4.61444 20.7993 2.60409 20.7993H1.56245C0.699978 20.7993 0 21.4988 0 22.3608V28.0862C0 31.2446 2.56867 33.8117 5.72899 33.8117H22.916V0.5Z" fill="#B4BCC0"/>
<path d="M16.6663 7.78693C15.5163 7.78693 14.583 6.8542 14.583 5.70495V2.58198C14.583 1.43273 15.5163 0.5 16.6663 0.5C17.8162 0.5 18.7495 1.43273 18.7495 2.58198V5.70495C18.7495 6.8542 17.8162 7.78693 16.6663 7.78693Z" fill="#90A4AE"/>
<path d="M16.6663 21.8817C15.5163 21.8817 14.583 20.949 14.583 19.7998V14.5136C14.583 13.3644 15.5163 12.4316 16.6663 12.4316C17.8162 12.4316 18.7495 13.3644 18.7495 14.5136V19.7998C18.7495 20.949 17.8162 21.8817 16.6663 21.8817Z" fill="#90A4AE"/>
<path d="M16.6663 33.8113C15.5163 33.8113 14.583 32.8786 14.583 31.7294V28.6064C14.583 27.4571 15.5163 26.5244 16.6663 26.5244C17.8162 26.5244 18.7495 27.4571 18.7495 28.6064V31.7294C18.7495 32.8786 17.8162 33.8113 16.6663 33.8113Z" fill="#90A4AE"/>
<path d="M16.6663 0.5C15.5163 0.5 14.583 1.43273 14.583 2.58198V5.70495C14.583 6.8542 15.5163 7.78693 16.6663 7.78693V0.5Z" fill="#7D8F97"/>
<path d="M16.6663 12.4316C15.5163 12.4316 14.583 13.3644 14.583 14.5136V19.7998C14.583 20.949 15.5163 21.8817 16.6663 21.8817V12.4316Z" fill="#7D8F97"/>
<path d="M16.6663 26.5244C15.5163 26.5244 14.583 27.4571 14.583 28.6064V31.7294C14.583 32.8786 15.5163 33.8113 16.6663 33.8113V26.5244Z" fill="#7D8F97"/>
<path d="M42.9817 50.2258L36.4569 45.7891L29.9322 50.2258C28.7364 51.0336 27.1885 49.9322 27.5385 48.5519L29.5697 40.5363L23.4615 35.3251C22.3949 34.4153 22.9845 32.6601 24.3886 32.5789L32.1696 32.1397L34.9903 24.4571C35.4903 23.0976 37.4236 23.0976 37.9236 24.4571L40.7443 32.1397L48.5253 32.5789C49.9294 32.6601 50.519 34.4173 49.4524 35.3251L43.3442 40.5363L45.3754 48.5519C45.7317 49.9531 44.1588 51.0232 42.9817 50.2258Z" fill="#FFC107"/>
<path d="M36.4569 23.4346C35.8486 23.4346 35.2403 23.7739 34.9903 24.4547L32.1696 32.1372L24.3886 32.5765C22.9845 32.6577 22.3949 34.4149 23.4615 35.3227L29.5697 40.5339L27.5385 48.5495C27.2697 49.6071 28.1135 50.5003 29.0593 50.5003C29.3509 50.5003 29.6509 50.4149 29.9322 50.2255L36.4569 45.7888V23.4346Z" fill="#DEA806"/>
</svg>
