<svg width="50" height="51" viewBox="0 0 50 51" fill="none" xmlns="http://www.w3.org/2000/svg">
<path d="M8.96653 20.5187C6.49408 20.5187 4.4834 18.4908 4.4834 15.9972C4.4834 13.5035 6.49408 11.4756 8.96653 11.4756C11.439 11.4756 13.4497 13.5035 13.4497 15.9972C13.4497 18.4908 11.439 20.5187 8.96653 20.5187Z" fill="#2196F3"/>
<path d="M16.2514 31.8234H1.68117C0.753166 31.8234 0 31.0638 0 30.1278V28.9974C0 25.5678 2.76385 22.7803 6.16431 22.7803H11.7682C15.1687 22.7803 17.9325 25.5678 17.9325 28.9974V30.1278C17.9325 31.0638 17.1794 31.8234 16.2514 31.8234Z" fill="#2196F3"/>
<path d="M8.96653 11.4756C6.49408 11.4756 4.4834 13.5035 4.4834 15.9972C4.4834 18.4908 6.49408 20.5187 8.96653 20.5187V11.4756Z" fill="#1D83D4"/>
<path d="M8.96626 22.7803H6.16431C2.76385 22.7803 0 25.5678 0 28.9974V30.1278C0 31.0638 0.753166 31.8234 1.68117 31.8234H8.96626V22.7803Z" fill="#1D83D4"/>
<mask id="mask0_2325_1332" style="mask-type:alpha" maskUnits="userSpaceOnUse" x="31" y="0" width="19" height="3">
<rect x="31.2598" y="0.5" width="18.3569" height="1.76042" rx="0.88021" fill="#F3B811"/>
</mask>
<g mask="url(#mask0_2325_1332)">
<path d="M31.2598 0.5H38.0518V7.10157V10.1823H37.9113C35.3492 10.1823 32.9168 9.05569 31.2598 7.10157V0.5Z" fill="#E52021"/>
<rect x="38.0537" y="0.5" width="4.7728" height="9.68231" fill="#F7F7F7"/>
<path d="M42.8213 0.5H49.6134V7.10157C47.9563 9.05569 45.5239 10.1823 42.9618 10.1823H42.8213V7.10157V0.5Z" fill="#268A42"/>
<rect x="31.2598" y="0.5" width="18.3569" height="1.76042" rx="0.88021" fill="black" fill-opacity="0.05"/>
</g>
<path d="M38.0449 8.8252L38.0303 8.82227C37.2535 8.62291 36.4258 9.00413 36.1045 9.70898L35.8955 10.168C35.8647 10.2354 35.817 10.2949 35.7568 10.3408C35.6966 10.3867 35.6255 10.418 35.5498 10.4316L35.0361 10.5234C34.8933 10.5492 34.7572 10.5928 34.6309 10.6514C34.2325 10.3008 33.8839 9.88789 33.6045 9.41895L33.2725 8.86133V2.25977H38.0449V8.8252Z" fill="#E52021"/>
<path d="M42.8213 8.82617L42.333 8.95215C42.2587 8.97126 42.1805 8.97237 42.1055 8.95605C42.0303 8.93966 41.9597 8.90652 41.9014 8.8584L41.5059 8.53125C40.8965 8.02929 39.9766 8.02929 39.3672 8.53125L38.9717 8.8584C38.9134 8.90639 38.8435 8.93963 38.7686 8.95605C38.6934 8.97246 38.6145 8.97129 38.54 8.95215L38.0488 8.8252V2.25977H42.8213V8.82617Z" fill="#F7F7F7"/>
<path d="M47.5908 8.86133L47.2588 9.41895C46.9792 9.8882 46.6301 10.3016 46.2314 10.6523C46.1048 10.5935 45.9684 10.5493 45.8252 10.5234L45.3115 10.4316C45.2359 10.418 45.1647 10.3867 45.1045 10.3408C45.0443 10.2949 44.9966 10.2354 44.9658 10.168L44.7568 9.70898C44.4355 9.00412 43.6079 8.62275 42.8311 8.82227L42.8174 8.8252V2.25977H47.5908V8.86133Z" fill="#268A42"/>
<path d="M40.522 1.50098L40.7179 3.49489L41.4917 1.63468L41.0939 3.60076L42.3828 2.02497L41.4236 3.80394L43.1232 2.64021L41.6802 4.08795L43.6529 3.43057L41.843 4.42979L43.9289 4.33201L41.8988 4.80177L43.9289 5.27152L41.843 5.17374L43.6529 6.17296L41.6802 5.51558L43.1232 6.96332L41.4236 5.79959L42.3828 7.57857L41.0939 6.00277L41.4917 7.96885L40.7179 6.10864L40.522 8.10256L40.3261 6.10864L39.5523 7.96885L39.9501 6.00277L38.6612 7.57857L39.6204 5.79959L37.9208 6.96332L39.3638 5.51558L37.3911 6.17296L39.201 5.17374L37.1151 5.27152L39.1452 4.80177L37.1151 4.33201L39.201 4.42979L37.3911 3.43057L39.3638 4.08795L37.9208 2.64021L39.6204 3.80394L38.6612 2.02497L39.9501 3.60076L39.5523 1.63468L40.3261 3.49489L40.522 1.50098Z" fill="#F7B70F"/>
<path fill-rule="evenodd" clip-rule="evenodd" d="M47.3101 16.4635C47.278 16.4041 47.2611 16.3378 47.2611 16.2705C47.2611 16.2032 47.2779 16.1369 47.3101 16.0774L47.528 15.674C47.8633 15.0534 47.6811 14.2712 47.1042 13.8546L46.7293 13.5838C46.674 13.5439 46.6295 13.4914 46.5997 13.4307C46.5699 13.3701 46.5557 13.3032 46.5583 13.236L46.5761 12.7799C46.6033 12.0782 46.0928 11.451 45.3887 11.3208L44.931 11.2363C44.8635 11.2238 44.8001 11.1954 44.7464 11.1534C44.6927 11.1115 44.6503 11.0573 44.6229 10.9955L44.4369 10.5771C44.1508 9.93332 43.4132 9.58514 42.7211 9.76738L42.2713 9.88581C42.2049 9.90329 42.1353 9.9046 42.0683 9.88962C42.0013 9.87465 41.9391 9.84384 41.8871 9.79989L41.5343 9.50193C40.9915 9.04363 40.1727 9.04363 39.6299 9.50193L39.277 9.79989C39.225 9.84383 39.1628 9.87464 39.0958 9.88962C39.0289 9.90459 38.9592 9.90329 38.8929 9.88581L38.4431 9.76738C37.7509 9.58521 37.0134 9.93332 36.7272 10.5771L36.5412 10.9956C36.5138 11.0573 36.4714 11.1115 36.4177 11.1534C36.364 11.1954 36.3006 11.2238 36.2331 11.2363L35.7754 11.3208C35.0713 11.451 34.5608 12.0782 34.588 12.7799L34.6057 13.236C34.6084 13.3032 34.5942 13.3701 34.5644 13.4307C34.5346 13.4914 34.4901 13.5439 34.4348 13.5838L34.0599 13.8546C33.483 14.2713 33.3009 15.0534 33.6361 15.6741L33.854 16.0774C33.8862 16.1369 33.903 16.2032 33.903 16.2705C33.903 16.3378 33.8862 16.4041 33.854 16.4635L33.6361 16.8669C33.3009 17.4875 33.483 18.2697 34.0599 18.6863L34.4348 18.9571C34.4901 18.997 34.5346 19.0496 34.5644 19.1102C34.5942 19.1709 34.6084 19.2378 34.6057 19.305L34.588 19.7611C34.5607 20.4628 35.0712 21.09 35.7754 21.2201L36.0154 21.2645L36.0154 21.2644L36.233 21.3046C36.3005 21.317 36.3639 21.3455 36.4176 21.3874C36.4713 21.4294 36.5137 21.4836 36.5411 21.5454L36.7271 21.9638C37.0133 22.6075 37.7508 22.9557 38.443 22.7735L38.8928 22.6551C38.9591 22.6376 39.0288 22.6363 39.0957 22.6513C39.1627 22.6663 39.2249 22.6971 39.2769 22.741L39.6298 23.0389C39.6591 23.0636 39.6894 23.087 39.7206 23.1093L39.7205 23.1094L39.7207 23.1093C39.9753 23.2915 40.2786 23.3828 40.582 23.3828C40.8808 23.3828 41.1796 23.2944 41.4317 23.1178L41.4317 23.1178C41.4671 23.093 41.5013 23.0667 41.5342 23.0389L41.8871 22.741C41.9391 22.6971 42.0013 22.6663 42.0682 22.6513C42.1352 22.6363 42.2049 22.6376 42.2712 22.6551L42.721 22.7735C42.8448 22.806 42.97 22.8217 43.0938 22.8217C43.6624 22.8216 44.2019 22.4924 44.4369 21.9638L44.6229 21.5453C44.6503 21.4836 44.6927 21.4294 44.7463 21.3874C44.8 21.3455 44.8634 21.317 44.9309 21.3046L45.1335 21.2672L45.1336 21.2673L45.1336 21.2672L45.3887 21.2201C46.0929 21.09 46.6034 20.4627 46.5761 19.761L46.5584 19.305C46.5557 19.2377 46.5699 19.1709 46.5997 19.1102C46.6295 19.0496 46.674 18.997 46.7293 18.9571L47.1042 18.6863C47.6811 18.2697 47.8633 17.4875 47.528 16.8669L47.3101 16.4635Z" fill="#F3B811"/>
<ellipse cx="40.5768" cy="16.3066" rx="4.65101" ry="4.55756" fill="url(#paint0_linear_2325_1332)"/>
<g filter="url(#filter0_i_2325_1332)">
<path d="M43.7888 16.1876C43.9571 16.0269 44.0168 15.791 43.9441 15.5717C43.8714 15.3525 43.6817 15.196 43.4494 15.1626L41.9891 14.9545C41.9757 14.9526 41.963 14.9475 41.9521 14.9397C41.9412 14.9319 41.9324 14.9216 41.9264 14.9097L41.2736 13.6132C41.1696 13.4067 40.9589 13.2783 40.7239 13.2783C40.4888 13.2783 40.2781 13.4071 40.1741 13.6132L39.5213 14.9097C39.5154 14.9217 39.5066 14.932 39.4957 14.9398C39.4847 14.9476 39.472 14.9526 39.4586 14.9545L37.999 15.1626C37.7663 15.196 37.5763 15.3525 37.5039 15.5717C37.4316 15.791 37.4909 16.0269 37.6593 16.1876L38.7155 17.1966C38.7355 17.2156 38.7442 17.2427 38.7395 17.2692L38.4901 18.6937C38.4703 18.8043 38.4827 18.9181 38.5258 19.0221C38.569 19.126 38.6412 19.216 38.7342 19.2816C38.8265 19.3479 38.936 19.3873 39.0501 19.3955C39.1643 19.4036 39.2785 19.3801 39.3796 19.3276L40.6852 18.6549C40.6972 18.6486 40.7106 18.6453 40.7242 18.6453C40.7378 18.6453 40.7512 18.6486 40.7632 18.6549L42.0688 19.3276C42.1699 19.38 42.284 19.4034 42.3981 19.3953C42.5121 19.3871 42.6216 19.3477 42.7139 19.2816C42.8069 19.216 42.8791 19.1261 42.9223 19.0221C42.9654 18.9181 42.9778 18.8043 42.9579 18.6937L42.7086 17.2692C42.7063 17.2561 42.7073 17.2426 42.7115 17.23C42.7157 17.2174 42.7229 17.2059 42.7326 17.1966L43.7888 16.1876Z" fill="#F3B811"/>
</g>
<mask id="mask1_2325_1332" style="mask-type:alpha" maskUnits="userSpaceOnUse" x="31" y="27" width="19" height="3">
<rect x="31.6396" y="27.6123" width="18.3602" height="1.76073" rx="0.880367" fill="#F3B811"/>
</mask>
<g mask="url(#mask1_2325_1332)">
<path d="M31.6396 27.6123H38.4329V34.2151V37.2964H38.2924C35.7298 37.2964 33.2969 36.1695 31.6396 34.2151V27.6123Z" fill="#E52021"/>
<rect x="38.4346" y="27.6123" width="4.77366" height="9.68405" fill="#F7F7F7"/>
<path d="M43.2031 27.6123H49.9964V34.2151C48.3391 36.1695 45.9062 37.2964 43.3437 37.2964H43.2031V34.2151V27.6123Z" fill="#268A42"/>
<rect x="31.6396" y="27.6123" width="18.3602" height="1.76073" rx="0.880367" fill="black" fill-opacity="0.05"/>
</g>
<path d="M38.4277 35.9404L38.4131 35.9375C37.636 35.7379 36.8076 36.119 36.4863 36.8242L36.2773 37.2822C36.2466 37.3498 36.1989 37.4091 36.1387 37.4551C36.0784 37.501 36.0074 37.5323 35.9316 37.5459L35.418 37.6387C35.2752 37.6644 35.139 37.708 35.0127 37.7666C34.6143 37.416 34.2658 37.0022 33.9863 36.5332L33.6543 35.9756V29.373H38.4277V35.9404Z" fill="#E52021"/>
<path d="M43.2051 35.9414L42.7158 36.0674C42.6415 36.0865 42.5633 36.0876 42.4883 36.0713C42.4131 36.0549 42.3426 36.0208 42.2842 35.9727L41.8887 35.6465C41.2792 35.1444 40.3595 35.1444 39.75 35.6465L39.3545 35.9727C39.2961 36.0208 39.2256 36.0549 39.1504 36.0713C39.0754 36.0876 38.9972 36.0865 38.9229 36.0674L38.4316 35.9404V29.373H43.2051V35.9414Z" fill="#F7F7F7"/>
<path d="M47.9775 35.9756L47.6455 36.5332C47.3658 37.0027 47.017 37.4167 46.6182 37.7676C46.4915 37.7087 46.3552 37.6645 46.2119 37.6387L45.6982 37.5459C45.6225 37.5323 45.5515 37.501 45.4912 37.4551C45.431 37.4091 45.3833 37.3498 45.3525 37.2822L45.1436 36.8242C44.8223 36.119 43.9939 35.7379 43.2168 35.9375L43.2041 35.9404V29.373H47.9775V35.9756Z" fill="#268A42"/>
<path d="M40.9074 28.6143L41.1034 30.6085L41.8773 28.748L41.4794 30.7144L42.7686 29.1383L41.8091 30.9176L43.5091 29.7537L42.0658 31.2017L44.0388 30.5442L42.2286 31.5436L44.3149 31.4458L42.2844 31.9156L44.3149 32.3855L42.2286 32.2877L44.0388 33.2871L42.0658 32.6296L43.5091 34.0776L41.8091 32.9136L42.7686 34.6929L41.4794 33.1169L41.8773 35.0833L41.1034 33.2228L40.9074 35.217L40.7114 33.2228L39.9375 35.0833L40.3354 33.1169L39.0462 34.6929L40.0056 32.9136L38.3057 34.0776L39.749 32.6296L37.7759 33.2871L39.5861 32.2877L37.4999 32.3855L39.5304 31.9156L37.4999 31.4458L39.5861 31.5436L37.7759 30.5442L39.749 31.2017L38.3057 29.7537L40.0056 30.9176L39.0462 29.1383L40.3354 30.7144L39.9375 28.748L40.7114 30.6085L40.9074 28.6143Z" fill="#F7B70F"/>
<path fill-rule="evenodd" clip-rule="evenodd" d="M47.6935 43.5791C47.6613 43.5196 47.6445 43.4533 47.6445 43.386C47.6445 43.3187 47.6613 43.2524 47.6934 43.1929L47.9114 42.7895C48.2467 42.1687 48.0645 41.3864 47.4875 40.9697L47.1125 40.6989C47.0572 40.659 47.0127 40.6064 46.9829 40.5458C46.9531 40.4851 46.9389 40.4182 46.9415 40.351L46.9593 39.8948C46.9865 39.193 46.476 38.5656 45.7717 38.4355L45.3139 38.3509C45.2464 38.3385 45.183 38.31 45.1293 38.2681C45.0756 38.2261 45.0332 38.1719 45.0058 38.1101L44.8198 37.6916C44.5336 37.0477 43.7958 36.6995 43.1036 36.8818L42.6537 37.0002C42.5874 37.0177 42.5177 37.019 42.4507 37.004C42.3837 36.989 42.3215 36.9582 42.2695 36.9143L41.9166 36.6163C41.3737 36.1579 40.5548 36.1579 40.0118 36.6163L39.6589 36.9143C39.6069 36.9582 39.5447 36.989 39.4777 37.004C39.4107 37.019 39.341 37.0177 39.2747 37.0002L38.8248 36.8818C38.1325 36.6995 37.3948 37.0477 37.1086 37.6916L36.9226 38.1102C36.8952 38.1719 36.8528 38.2261 36.7991 38.2681C36.7454 38.31 36.682 38.3385 36.6145 38.3509L36.1567 38.4355C35.4524 38.5656 34.9418 39.193 34.9691 39.8948L34.9868 40.351C34.9894 40.4182 34.9752 40.4851 34.9454 40.5458C34.9156 40.6064 34.8711 40.659 34.8158 40.6989L34.4408 40.9697C33.8639 41.3864 33.6817 42.1688 34.017 42.7895L34.2349 43.1929C34.2671 43.2524 34.2839 43.3187 34.2839 43.386C34.2839 43.4533 34.2671 43.5196 34.2349 43.5791L34.017 43.9825C33.6817 44.6032 33.8639 45.3856 34.4408 45.8023L34.8158 46.0731C34.8711 46.113 34.9156 46.1656 34.9454 46.2263C34.9752 46.2869 34.9894 46.3538 34.9868 46.4211L34.969 46.8772C34.9418 47.5791 35.4524 48.2064 36.1567 48.3365L36.3967 48.3809L36.3968 48.3808L36.6144 48.421C36.6819 48.4335 36.7453 48.4619 36.799 48.5039C36.8527 48.5459 36.8951 48.6001 36.9225 48.6618L37.1085 49.0803C37.3947 49.7242 38.1325 50.0725 38.8247 49.8902L39.2746 49.7718C39.3409 49.7543 39.4106 49.753 39.4776 49.768C39.5446 49.7829 39.6068 49.8138 39.6588 49.8577L40.0117 50.1557C40.041 50.1803 40.0713 50.2038 40.1026 50.226L40.1025 50.2262L40.1027 50.2261C40.3573 50.4083 40.6607 50.4996 40.9642 50.4996C41.263 50.4996 41.5618 50.4112 41.814 50.2346L41.814 50.2345C41.8494 50.2098 41.8836 50.1835 41.9165 50.1557L42.2695 49.8577C42.3215 49.8137 42.3837 49.7829 42.4506 49.768C42.5176 49.753 42.5873 49.7543 42.6536 49.7718L43.1035 49.8902C43.2274 49.9228 43.3525 49.9384 43.4764 49.9384C44.0451 49.9384 44.5847 49.609 44.8197 49.0803L45.0057 48.6618C45.0331 48.6001 45.0755 48.5459 45.1292 48.5039C45.1829 48.4619 45.2463 48.4335 45.3138 48.421L45.5165 48.3836L45.5166 48.3837L45.5166 48.3837L45.7717 48.3365C46.476 48.2064 46.9866 47.579 46.9593 46.8772L46.9416 46.4211C46.9389 46.3538 46.9531 46.2869 46.9829 46.2263C47.0127 46.1656 47.0572 46.113 47.1125 46.0731L47.4875 45.8023C48.0645 45.3856 48.2467 44.6033 47.9114 43.9825L47.6935 43.5791Z" fill="#F3B811"/>
<ellipse cx="40.9634" cy="43.4217" rx="4.65185" ry="4.55837" fill="url(#paint1_linear_2325_1332)"/>
<path d="M42.7152 45.0516H39.2126C39.0316 45.0516 38.8843 45.196 38.8843 45.3734C38.8843 45.5508 39.0316 45.6952 39.2126 45.6952H42.7152C42.8962 45.6952 43.0436 45.5508 43.0436 45.3734C43.0436 45.196 42.8962 45.0516 42.7152 45.0516ZM43.7003 42.263C43.7003 42.4831 43.5296 42.6628 43.3115 42.6873L42.8899 44.8371H39.0379L38.6163 42.6873C38.3983 42.6628 38.2275 42.4831 38.2275 42.263C38.2275 42.0264 38.4239 41.834 38.6654 41.834C38.9068 41.834 39.1032 42.0264 39.1032 42.263C39.1032 42.4219 39.0134 42.5594 38.8819 42.6337C39.1349 43.2214 39.5318 43.582 39.8996 43.5494C40.3103 43.5166 40.6452 43.0408 40.83 42.2448C40.5931 42.186 40.4167 41.9768 40.4167 41.7267C40.4167 41.4309 40.6621 41.1904 40.9639 41.1904C41.2658 41.1904 41.5112 41.4309 41.5112 41.7267C41.5112 41.9768 41.3348 42.186 41.0979 42.2448C41.2827 43.0408 41.6176 43.5166 42.0283 43.5494C42.3976 43.582 42.7927 43.2214 43.046 42.6337C42.9144 42.5594 42.8247 42.4219 42.8247 42.263C42.8247 42.0264 43.021 41.834 43.2625 41.834C43.5039 41.834 43.7003 42.0264 43.7003 42.263Z" fill="#F3B811"/>
<path d="M26.8995 40.8659H24.6579C22.1855 40.8659 20.1748 38.8379 20.1748 36.3443V11.4757C20.1748 8.98203 22.1855 6.9541 24.6579 6.9541H26.8995C28.1368 6.9541 29.1411 7.96693 29.1411 9.21489C29.1411 10.4628 28.1368 11.4757 26.8995 11.4757H24.6579V36.3443H26.8995C28.1368 36.3443 29.1411 37.3571 29.1411 38.6051C29.1411 39.853 28.1368 40.8659 26.8995 40.8659Z" fill="#607D8B"/>
<path d="M24.6579 6.9541C22.1855 6.9541 20.1748 8.98203 20.1748 11.4757V36.3443C20.1748 38.8379 22.1855 40.8659 24.6579 40.8659V36.3443V11.4757V6.9541Z" fill="#546D79"/>
<defs>
<filter id="filter0_i_2325_1332" x="37.4736" y="13.2783" width="6.50098" height="11.1191" filterUnits="userSpaceOnUse" color-interpolation-filters="sRGB">
<feFlood flood-opacity="0" result="BackgroundImageFix"/>
<feBlend mode="normal" in="SourceGraphic" in2="BackgroundImageFix" result="shape"/>
<feColorMatrix in="SourceAlpha" type="matrix" values="0 0 0 0 0 0 0 0 0 0 0 0 0 0 0 0 0 0 127 0" result="hardAlpha"/>
<feOffset dy="5"/>
<feGaussianBlur stdDeviation="5"/>
<feComposite in2="hardAlpha" operator="arithmetic" k2="-1" k3="1"/>
<feColorMatrix type="matrix" values="0 0 0 0 0 0 0 0 0 0 0 0 0 0 0 0 0 0 0.1 0"/>
<feBlend mode="normal" in2="shape" result="effect1_innerShadow_2325_1332"/>
</filter>
<linearGradient id="paint0_linear_2325_1332" x1="40.5686" y1="26.502" x2="40.5686" y2="11.749" gradientUnits="userSpaceOnUse">
<stop stop-color="#FFE59A"/>
<stop offset="1" stop-color="#FFFFD5"/>
</linearGradient>
<linearGradient id="paint1_linear_2325_1332" x1="40.9551" y1="53.6189" x2="40.9551" y2="38.8633" gradientUnits="userSpaceOnUse">
<stop stop-color="#FFE59A"/>
<stop offset="1" stop-color="#FFFFD5"/>
</linearGradient>
</defs>
</svg>
