<svg width="50" height="51" viewBox="0 0 50 51" fill="none" xmlns="http://www.w3.org/2000/svg">
<g clip-path="url(#clip0_2431_1582)">
<path d="M21.2306 40.8433C20.9273 40.5409 20.7958 40.1065 20.8806 39.6868L22.8045 30.0652C22.9245 29.477 22.545 28.9029 21.9569 28.7828C21.8852 28.7682 21.8124 28.7607 21.7392 28.7607H8.69585C8.09555 28.7596 7.60806 29.2455 7.60694 29.8458C7.60643 30.1352 7.72137 30.4129 7.92629 30.6173L11.9567 34.6455V42.7389C11.9567 44.5558 12.8646 46.2526 14.3762 47.2606L18.961 50.3171C19.3919 50.6049 19.966 50.5486 20.3327 50.1823L21.2327 49.2823C22.2559 48.2655 22.8297 46.8814 22.8261 45.4389V44.6911C22.8292 43.2469 22.2546 41.8616 21.2306 40.8433Z" fill="#607D8B"/>
<path d="M40.2171 42.891C44.4192 42.891 47.8257 33.6447 47.8257 22.2389C47.8257 10.8331 44.4192 1.58691 40.2171 1.58691C36.0149 1.58691 32.6084 10.8331 32.6084 22.2389C32.6084 33.6447 36.0149 42.891 40.2171 42.891Z" fill="#B0BEC5"/>
<path d="M39.1304 15.7168C38.5301 15.7168 38.0435 16.2035 38.0435 16.8038V27.6733C38.0435 28.2736 38.5301 28.7603 39.1304 28.7603C42.4162 28.43 44.8328 25.5301 44.5651 22.2386C44.8328 18.9471 42.4162 16.0471 39.1304 15.7168Z" fill="#F44336"/>
<path d="M21.7394 28.7602C17.7286 28.7602 16.3047 25.2471 16.3047 22.2385C16.3047 19.2299 17.7286 15.7168 21.7394 15.7168C22.3397 15.7168 22.8264 15.2301 22.8264 14.6298C22.8264 14.0295 22.3397 13.543 21.7394 13.543H9.78294C4.98054 13.543 1.0874 17.4361 1.0874 22.2385C1.0874 27.0409 4.98054 30.934 9.78294 30.934H21.7393C22.3396 30.934 22.8263 30.4474 22.8263 29.8471C22.8263 29.2469 22.3397 28.7602 21.7394 28.7602Z" fill="#F44336"/>
<path d="M33.6954 22.2389C33.6954 14.9651 35.1258 8.28247 37.428 4.79551C37.7594 4.29497 37.6224 3.62059 37.1218 3.2891C36.7476 3.04128 36.2595 3.04892 35.8932 3.30857L21.3825 13.5433C17.0934 13.7346 14.1304 17.2563 14.1304 22.2389C14.1304 27.2214 17.0934 30.7431 21.3825 30.9344L35.8932 41.1778C36.383 41.5249 37.0614 41.4094 37.4085 40.9195C37.668 40.5533 37.6758 40.0652 37.428 39.6909C35.1258 36.1953 33.6954 29.5128 33.6954 22.2389Z" fill="#F5F5F5"/>
<path d="M40.217 43.9779C34.5649 43.9779 31.5215 32.778 31.5215 22.239C31.5215 11.7 34.5649 0.5 40.217 0.5C45.8692 0.5 48.9126 11.6999 48.9126 22.2389C48.9126 32.7779 45.8692 43.9779 40.217 43.9779ZM40.217 2.67386C37.1323 2.67386 33.6953 10.7172 33.6953 22.2389C33.6953 33.7606 37.1323 41.8039 40.217 41.8039C43.3018 41.8039 46.7387 33.7606 46.7387 22.2389C46.7387 10.7172 43.3018 2.67386 40.217 2.67386Z" fill="#F5F5F5"/>
</g>
<defs>
<clipPath id="clip0_2431_1582">
<rect width="50" height="50" fill="white" transform="translate(0 0.5)"/>
</clipPath>
</defs>
</svg>
