<svg width="56" height="61" viewBox="0 0 56 61" fill="none" xmlns="http://www.w3.org/2000/svg">
<g opacity="0.5">
<rect x="0.204102" y="0.192871" width="55" height="60" rx="10" fill="#D9D9D9"/>
</g>
<path opacity="0.5" fill-rule="evenodd" clip-rule="evenodd" d="M12.5071 19.9426C12.5071 18.0875 12.5071 16.4757 12.5467 15.0676H42.4674C42.5071 16.4757 42.5071 18.0875 42.5071 19.9426C42.5071 27.0137 42.5071 30.5492 40.3104 32.7459C38.1137 34.9426 34.5782 34.9426 27.5071 34.9426C20.436 34.9426 16.9005 34.9426 14.7038 32.7459C12.5071 30.5492 12.5071 27.0137 12.5071 19.9426Z" fill="#1C274C"/>
<path d="M32.0071 23.6926C32.0071 22.7426 31.0141 22.1019 29.028 20.8204C27.0149 19.5215 26.0083 18.872 25.2577 19.3489C24.5071 19.8258 24.5071 21.1147 24.5071 23.6926C24.5071 26.2705 24.5071 27.5595 25.2577 28.0364C26.0083 28.5132 27.0149 27.8637 29.0281 26.5648C31.0141 25.2834 32.0071 24.6427 32.0071 23.6926Z" fill="#1C274C"/>
<path d="M27.5068 4.94263C30.2747 4.94263 32.5008 4.94263 34.317 5.07437L29.1548 12.8177H22.1089L27.3589 4.94263H27.5068Z" fill="#1C274C"/>
<path d="M14.7035 7.13933C16.5821 5.26078 19.4397 4.9887 24.6503 4.9493L19.4047 12.8177H12.6631C12.884 10.1715 13.417 8.42583 14.7035 7.13933Z" fill="#1C274C"/>
<path d="M42.3506 12.8177C42.1297 10.1715 41.5966 8.42583 40.3102 7.13933C39.4142 6.24334 38.2954 5.71281 36.8049 5.39867L31.8589 12.8177H42.3506Z" fill="#1C274C"/>
<path d="M11.9667 54.1909C11.584 54.1909 11.2947 54.1069 11.0987 53.9389C10.912 53.7709 10.7487 53.5049 10.6087 53.1409L8.66268 47.7509H10.2307L11.7707 52.4409C11.836 52.6369 11.92 52.7723 12.0227 52.8469C12.1253 52.9216 12.2373 52.9589 12.3587 52.9589H12.5407L14.3467 47.7509H15.4387L13.0307 54.1909H11.9667ZM17.5293 54.2469C17.0346 54.2469 16.6986 54.1303 16.5213 53.8969C16.3439 53.6543 16.2553 53.2949 16.2553 52.8189L16.2693 48.6049H17.5713V52.7489C17.5713 53.1036 17.6133 53.3463 17.6973 53.4769C17.7906 53.6076 17.9446 53.6729 18.1593 53.6729C18.2433 53.6729 18.3366 53.6636 18.4393 53.6449C18.5419 53.6263 18.6073 53.6123 18.6353 53.6029V54.1349C18.5979 54.1443 18.5373 54.1583 18.4533 54.1769C18.3693 54.1956 18.2526 54.2096 18.1033 54.2189C17.9539 54.2376 17.7626 54.2469 17.5293 54.2469ZM16.9413 47.8349C16.7266 47.8349 16.5633 47.8069 16.4513 47.7509C16.3486 47.6856 16.2973 47.5689 16.2973 47.4009C16.2973 47.2329 16.3486 47.1209 16.4513 47.0649C16.5539 46.9996 16.7173 46.9669 16.9413 46.9669C17.1559 46.9669 17.3099 46.9996 17.4033 47.0649C17.5059 47.1209 17.5573 47.2329 17.5573 47.4009C17.5573 47.5689 17.5059 47.6856 17.4033 47.7509C17.3099 47.8069 17.1559 47.8349 16.9413 47.8349ZM19.5522 51.3769C19.5522 50.6209 19.6548 50.0423 19.8602 49.6409C20.0655 49.2303 20.3642 48.9503 20.7562 48.8009C21.1482 48.6423 21.6195 48.5629 22.1702 48.5629C22.3382 48.5629 22.5295 48.5723 22.7442 48.5909C22.9682 48.6003 23.1875 48.6189 23.4022 48.6469C23.6168 48.6749 23.8082 48.7076 23.9762 48.7449C24.1442 48.7729 24.2608 48.8056 24.3262 48.8429L23.9762 49.0109V47.1209H25.2642L25.2502 51.3769C25.2502 52.0116 25.2035 52.5203 25.1102 52.9029C25.0168 53.2763 24.8628 53.5563 24.6482 53.7429C24.4335 53.9296 24.1348 54.0556 23.7522 54.1209C23.3695 54.1863 22.8935 54.2189 22.3242 54.2189C21.7922 54.2189 21.3442 54.1863 20.9802 54.1209C20.6255 54.0463 20.3408 53.9109 20.1262 53.7149C19.9208 53.5189 19.7715 53.2343 19.6782 52.8609C19.5942 52.4876 19.5522 51.9929 19.5522 51.3769ZM22.2962 53.5049C22.6602 53.5049 22.9542 53.4816 23.1782 53.4349C23.4022 53.3789 23.5702 53.2809 23.6822 53.1409C23.8035 53.0009 23.8828 52.8049 23.9202 52.5529C23.9575 52.2916 23.9762 51.9556 23.9762 51.5449L23.9622 49.4029C23.8688 49.3936 23.7428 49.3843 23.5842 49.3749C23.4255 49.3656 23.2575 49.3609 23.0802 49.3609C22.9028 49.3516 22.7395 49.3469 22.5902 49.3469C22.1702 49.3469 21.8342 49.4029 21.5822 49.5149C21.3302 49.6176 21.1482 49.8183 21.0362 50.1169C20.9242 50.4156 20.8682 50.8449 20.8682 51.4049C20.8682 52.0023 20.9102 52.4503 20.9942 52.7489C21.0875 53.0476 21.2368 53.2483 21.4422 53.3509C21.6568 53.4536 21.9415 53.5049 22.2962 53.5049ZM29.7185 54.2749C29.1491 54.2749 28.6685 54.2376 28.2765 54.1629C27.8938 54.0883 27.5858 53.9483 27.3525 53.7429C27.1285 53.5376 26.9698 53.2529 26.8765 52.8889C26.7831 52.5249 26.7365 52.0536 26.7365 51.4749C26.7365 50.7843 26.8251 50.2243 27.0025 49.7949C27.1798 49.3656 27.4925 49.0529 27.9405 48.8569C28.3978 48.6516 29.0325 48.5489 29.8445 48.5489C30.4791 48.5489 30.9831 48.6283 31.3565 48.7869C31.7391 48.9363 32.0145 49.1743 32.1825 49.5009C32.3505 49.8276 32.4345 50.2429 32.4345 50.7469V51.6429H28.5005C28.5005 51.4936 28.5331 51.3723 28.5985 51.2789C28.6638 51.1856 28.7851 51.1389 28.9625 51.1389H31.2585L31.2445 50.7749C31.2351 50.2523 31.1231 49.8696 30.9085 49.6269C30.7031 49.3843 30.3298 49.2629 29.7885 49.2629C29.3405 49.2629 28.9905 49.3329 28.7385 49.4729C28.4865 49.6129 28.3091 49.8416 28.2065 50.1589C28.1038 50.4669 28.0525 50.8963 28.0525 51.4469C28.0525 52.0163 28.1085 52.4503 28.2205 52.7489C28.3418 53.0383 28.5378 53.2343 28.8085 53.3369C29.0885 53.4396 29.4758 53.4909 29.9705 53.4909C30.1478 53.4909 30.3531 53.4863 30.5865 53.4769C30.8291 53.4676 31.0718 53.4536 31.3145 53.4349C31.5665 53.4163 31.7905 53.3929 31.9865 53.3649C32.1825 53.3369 32.3131 53.3089 32.3785 53.2809V53.4769C32.3785 53.5796 32.3551 53.6823 32.3085 53.7849C32.2618 53.8876 32.1638 53.9716 32.0145 54.0369C31.8185 54.1303 31.5291 54.1909 31.1465 54.2189C30.7731 54.2563 30.2971 54.2749 29.7185 54.2749ZM36.683 54.2749C36.2164 54.2749 35.801 54.2423 35.437 54.1769C35.0824 54.1023 34.7744 53.9669 34.513 53.7709C34.261 53.5749 34.0697 53.2856 33.939 52.9029C33.8084 52.5203 33.743 52.0209 33.743 51.4049C33.743 50.7889 33.8084 50.2896 33.939 49.9069C34.0697 49.5243 34.261 49.2349 34.513 49.0389C34.7744 48.8429 35.0824 48.7123 35.437 48.6469C35.801 48.5723 36.2164 48.5349 36.683 48.5349C37.131 48.5349 37.5324 48.5723 37.887 48.6469C38.251 48.7123 38.559 48.8429 38.811 49.0389C39.063 49.2349 39.2544 49.5243 39.385 49.9069C39.525 50.2896 39.595 50.7889 39.595 51.4049C39.595 52.0303 39.525 52.5343 39.385 52.9169C39.2544 53.2996 39.063 53.5889 38.811 53.7849C38.559 53.9716 38.251 54.1023 37.887 54.1769C37.5324 54.2423 37.131 54.2749 36.683 54.2749ZM36.683 53.5749C37.019 53.5749 37.3037 53.5236 37.537 53.4209C37.7797 53.3183 37.9617 53.1129 38.083 52.8049C38.2044 52.4969 38.265 52.0303 38.265 51.4049C38.265 50.7796 38.2044 50.3129 38.083 50.0049C37.9617 49.6969 37.7797 49.4916 37.537 49.3889C37.3037 49.2863 37.019 49.2349 36.683 49.2349C36.347 49.2349 36.0577 49.2863 35.815 49.3889C35.5724 49.4916 35.3857 49.6969 35.255 50.0049C35.1337 50.3129 35.073 50.7796 35.073 51.4049C35.073 52.0303 35.1337 52.4969 35.255 52.8049C35.3857 53.1129 35.5724 53.3183 35.815 53.4209C36.0577 53.5236 36.347 53.5749 36.683 53.5749ZM43.3614 54.2469C43.184 54.2469 42.974 54.2423 42.7314 54.2329C42.4887 54.2236 42.2414 54.2049 41.9894 54.1769C41.7467 54.1396 41.5274 54.0883 41.3314 54.0229C41.21 53.9949 41.112 53.9576 41.0374 53.9109C40.972 53.8643 40.9207 53.7849 40.8834 53.6729C40.8554 53.5516 40.8414 53.3696 40.8414 53.1269C41.0747 53.2296 41.336 53.3136 41.6254 53.3789C41.9147 53.4349 42.1994 53.4723 42.4794 53.4909C42.7687 53.5096 43.016 53.5189 43.2214 53.5189C43.4734 53.5189 43.7207 53.5096 43.9634 53.4909C44.2154 53.4723 44.444 53.4303 44.6494 53.3649C44.864 53.2996 45.032 53.1969 45.1534 53.0569C45.284 52.9169 45.3494 52.7256 45.3494 52.4829C45.3494 52.1563 45.2654 51.9463 45.0974 51.8529C44.9294 51.7596 44.696 51.7129 44.3974 51.7129H42.9274C42.5634 51.7129 42.2227 51.6896 41.9054 51.6429C41.5974 51.5963 41.3454 51.4749 41.1494 51.2789C40.9627 51.0829 40.8694 50.7516 40.8694 50.2849C40.8694 49.7716 40.9954 49.3889 41.2474 49.1369C41.4994 48.8849 41.854 48.7216 42.3114 48.6469C42.778 48.5723 43.324 48.5349 43.9494 48.5349C44.1827 48.5349 44.4534 48.5396 44.7614 48.5489C45.0787 48.5583 45.3727 48.5863 45.6434 48.6329C45.8674 48.6516 46.0447 48.6889 46.1754 48.7449C46.3154 48.7916 46.418 48.8616 46.4834 48.9549C46.5487 49.0389 46.5814 49.1696 46.5814 49.3469V49.6689C46.4974 49.5663 46.3527 49.4916 46.1474 49.4449C45.942 49.3889 45.6994 49.3469 45.4194 49.3189C45.1487 49.2909 44.864 49.2769 44.5654 49.2769C44.276 49.2676 44.0054 49.2629 43.7534 49.2629C43.4827 49.2629 43.2214 49.2816 42.9694 49.3189C42.7267 49.3469 42.5307 49.4263 42.3814 49.5569C42.232 49.6876 42.1574 49.9023 42.1574 50.2009C42.1574 50.4343 42.204 50.6023 42.2974 50.7049C42.3907 50.8076 42.5214 50.8729 42.6894 50.9009C42.8574 50.9289 43.0487 50.9429 43.2634 50.9429H44.8034C45.1767 50.9429 45.5034 50.9756 45.7834 51.0409C46.0634 51.1063 46.2827 51.2463 46.4414 51.4609C46.6 51.6756 46.6794 52.0116 46.6794 52.4689C46.6794 52.9916 46.5347 53.3789 46.2454 53.6309C45.956 53.8829 45.564 54.0509 45.0694 54.1349C44.5747 54.2096 44.0054 54.2469 43.3614 54.2469Z" fill="#1C274C"/>
</svg>
