<svg width="321" height="88" viewBox="0 0 321 88" fill="none" xmlns="http://www.w3.org/2000/svg">
<path d="M2.07097 77.4801C2.07097 77.4801 2.39662 77.3955 2.9486 77.2041C7.99026 75.1065 11.1931 72.0726 12.4734 70.6912C14.69 68.2545 16.4323 65.1953 16.4106 61.7292C16.4106 60.8388 16.3047 59.9042 16.0556 58.9001C15.1161 55.0368 12.6916 50.1532 10.3952 44.681C8.11781 39.1975 5.95927 33.0182 5.95004 26.1754C5.93267 21.2961 7.11425 16.1295 9.98923 10.9651C6.5004 13.9181 -2.22006 23.0165 0.977859 38.126C4.33155 53.9734 11.364 64.7226 2.07097 77.4801Z" fill="#E54C3A"/>
<path d="M62.6659 43.6771C65.3883 42.0462 67.3424 39.8906 68.5194 37.2176C69.6948 34.5462 70.2857 31.9846 70.2857 29.5344C70.2857 26.6391 69.8999 23.9496 69.1256 21.4621C68.3512 18.9756 67.0834 16.8036 65.3154 14.9477C63.5502 13.0929 61.2876 11.6266 58.5249 10.5488C55.7639 9.47327 52.3972 8.93384 48.4227 8.93384H19.8324C19.8155 9.14676 19.797 9.47327 19.797 9.90515C19.8286 12.036 20.2106 16.3531 23.2785 21.1839H23.3177L23.3111 21.1685H49.726C49.8952 21.1685 50.0454 21.1789 50.2065 21.1839H50.2984C50.3572 21.1839 50.4138 21.191 50.4726 21.1926C50.5721 21.1976 50.6739 21.2009 50.7697 21.2069C50.9639 21.2179 51.1555 21.236 51.3443 21.2618C53.0453 21.4528 53.9959 21.8819 53.9959 21.8819C53.9959 21.8819 59.7727 23.6319 63.5823 31.4402C63.5823 31.4402 61.7795 32.1882 59.364 34.1445C56.2792 36.8746 53.7157 39.5888 51.9385 42.8402C50.8083 44.8822 49.9338 47.2566 48.9429 49.8029H50.2979C52.4331 49.8029 54.274 50.6206 55.8189 52.2526C57.3653 53.8857 58.1397 55.7795 58.1397 57.9323C58.1397 60.5296 57.4023 62.6269 55.931 64.2222C54.4568 65.8202 52.5431 66.6164 50.188 66.6164H39.1302C37.1022 68.9481 34.845 71.0987 32.3381 72.9727C29.3246 75.2249 26.3579 77.0846 23.18 78.8664H48.4233C52.3983 78.8664 55.7819 78.2732 58.5804 77.0846C61.3796 75.8965 63.6438 74.3381 65.3726 72.4081C67.1008 70.4775 68.3518 68.2704 69.1256 65.7823C69.8999 63.2953 70.2857 60.7529 70.2857 58.1556C70.2857 55.4091 69.679 52.7179 68.4644 50.0822C67.2493 47.4465 65.3154 45.3113 62.6659 43.6771Z" fill="#26A75C"/>
<path d="M41.089 26.3449C36.303 26.609 31.5441 26.409 31.5447 26.4112C29.8773 26.3346 28.4646 26.2204 28.4646 26.2204C36.0832 37.0289 33.7749 46.6366 33.7749 46.6366C33.1192 42.8773 32.3002 36.5573 24.7559 30.5898C12.05 20.3159 13.9719 9.00024 13.9719 9.00024C-1.11887 28.4523 14.1532 44.8688 17.42 58.0251C20.688 71.1846 5.62378 78.9329 5.62378 78.9329C9.26024 78.5157 14.621 77.0432 18.4399 74.973C21.7838 73.1572 24.7852 71.3188 27.8654 69.0541C32.691 65.5044 36.6064 60.8056 39.5612 55.6364C40.4204 54.1326 41.2036 52.589 41.9075 51.0071C43.4446 47.5604 44.5437 43.9401 46.3853 40.6276C48.4797 36.8602 51.4057 33.8738 54.6427 31.0555C54.6845 31.0199 55.5448 30.2659 55.5812 30.3058C51.9919 26.3449 45.8761 26.0813 41.089 26.3449ZM49.2168 29.8504C48.8374 29.8504 48.5291 29.5453 48.5291 29.168C48.5291 28.7907 48.8369 28.4857 49.2168 28.4857C49.5967 28.4857 49.9039 28.7907 49.9039 29.168C49.9034 29.5453 49.5962 29.8504 49.2168 29.8504Z" fill="#FAD117"/>
<path d="M94.5866 34.6177V25.3677L85.2366 12.8677L84.2366 11.6177H93.4366L99.5866 20.8677L105.537 11.6177H111.587L110.337 13.0177L101.237 25.3677V32.0677C101.27 32.7677 101.203 33.301 101.037 33.6677C100.87 34.0343 100.57 34.2843 100.137 34.4177C99.7033 34.551 99.0866 34.6177 98.2866 34.6177H94.5866ZM121.597 34.9177C119.397 34.9177 117.581 34.7843 116.147 34.5177C114.714 34.2177 113.581 33.7177 112.747 33.0177C111.914 32.3177 111.314 31.3177 110.947 30.0177C110.581 28.7177 110.397 27.051 110.397 25.0177C110.397 22.4843 110.731 20.451 111.397 18.9177C112.097 17.3843 113.297 16.2677 114.997 15.5677C116.731 14.8677 119.131 14.5177 122.197 14.5177C124.597 14.5177 126.514 14.7843 127.947 15.3177C129.381 15.851 130.414 16.701 131.047 17.8677C131.681 19.001 131.997 20.4677 131.997 22.2677V25.7677H117.997C117.997 25.1677 118.131 24.6677 118.397 24.2677C118.697 23.8343 119.214 23.6177 119.947 23.6177H126.547V22.4177C126.514 20.8177 126.164 19.6343 125.497 18.8677C124.864 18.101 123.697 17.7177 121.997 17.7177C120.564 17.7177 119.447 17.9343 118.647 18.3677C117.881 18.801 117.331 19.5343 116.997 20.5677C116.697 21.601 116.547 23.051 116.547 24.9177C116.547 26.7177 116.731 28.0843 117.097 29.0177C117.464 29.951 118.097 30.5843 118.997 30.9177C119.931 31.2177 121.214 31.3677 122.847 31.3677C123.447 31.3677 124.197 31.351 125.097 31.3177C126.031 31.2843 126.964 31.251 127.897 31.2177C128.864 31.151 129.714 31.0843 130.447 31.0177C131.181 30.9177 131.647 30.8343 131.847 30.7677V31.5677C131.847 31.9677 131.764 32.401 131.597 32.8677C131.464 33.301 131.147 33.651 130.647 33.9177C130.014 34.3177 128.947 34.5843 127.447 34.7177C125.981 34.851 124.031 34.9177 121.597 34.9177ZM136.001 34.6177L135.951 11.5177C135.951 10.6843 136.084 10.1177 136.351 9.81767C136.617 9.51768 137.201 9.36768 138.101 9.36768H142.101V23.6677L149.751 15.9177C150.284 15.4177 150.817 15.0677 151.351 14.8677C151.917 14.6677 152.734 14.551 153.801 14.5177C154.601 14.5177 155.334 14.5343 156.001 14.5677C156.701 14.601 157.334 14.6343 157.901 14.6677C157.767 14.7677 157.517 14.9677 157.151 15.2677C156.784 15.5343 156.384 15.8343 155.951 16.1677C155.551 16.4677 155.167 16.751 154.801 17.0177L148.451 22.7677L157.301 32.3177C157.701 32.751 158.117 33.1677 158.551 33.5677C158.984 33.9343 159.401 34.2843 159.801 34.6177C158.667 34.651 157.551 34.6677 156.451 34.6677C155.351 34.6677 154.334 34.6677 153.401 34.6677C152.434 34.6677 151.717 34.551 151.251 34.3177C150.784 34.0843 150.301 33.7177 149.801 33.2177L144.251 27.1677L142.101 28.5677V34.6177H136.001ZM178.039 34.7177C175.206 34.7177 172.756 34.7177 170.689 34.7177C168.622 34.7177 166.889 34.7177 165.489 34.7177C164.122 34.7177 162.972 34.6843 162.039 34.6177V13.9177C162.039 12.951 162.239 12.3343 162.639 12.0677C163.072 11.7677 163.656 11.6177 164.389 11.6177C165.589 11.6177 166.639 11.6177 167.539 11.6177C168.439 11.5843 169.239 11.5677 169.939 11.5677C170.639 11.5343 171.306 11.5177 171.939 11.5177C172.572 11.5177 173.256 11.5177 173.989 11.5177C174.856 11.5177 175.789 11.5343 176.789 11.5677C177.822 11.5677 178.772 11.5677 179.639 11.5677C180.539 11.5677 181.206 11.5843 181.639 11.6177C183.506 11.751 184.889 12.2677 185.789 13.1677C186.689 14.0677 187.139 15.4177 187.139 17.2177C187.139 18.551 186.922 19.601 186.489 20.3677C186.056 21.101 185.506 21.6343 184.839 21.9677C184.172 22.301 183.522 22.4843 182.889 22.5177C183.656 22.5177 184.356 22.601 184.989 22.7677C185.622 22.901 186.156 23.1677 186.589 23.5677C187.022 23.9343 187.372 24.4843 187.639 25.2177C187.906 25.951 188.039 26.901 188.039 28.0677C188.039 29.5677 187.806 30.7677 187.339 31.6677C186.906 32.5343 186.256 33.201 185.389 33.6677C184.556 34.101 183.522 34.3843 182.289 34.5177C181.056 34.651 179.639 34.7177 178.039 34.7177ZM175.989 31.4677C176.722 31.4677 177.406 31.451 178.039 31.4177C178.706 31.351 179.272 31.2177 179.739 31.0177C180.239 30.8177 180.622 30.4677 180.889 29.9677C181.189 29.4343 181.339 28.7177 181.339 27.8177C181.339 26.4843 181.056 25.5677 180.489 25.0677C179.956 24.5677 178.839 24.3177 177.139 24.3177H169.889C169.322 24.3177 168.956 24.0677 168.789 23.5677C168.656 23.0343 168.589 22.2677 168.589 21.2677H176.939C177.572 21.2677 178.156 21.1843 178.689 21.0177C179.222 20.851 179.639 20.5177 179.939 20.0177C180.272 19.4843 180.439 18.701 180.439 17.6677C180.439 16.6343 180.222 15.851 179.789 15.3177C179.356 14.7843 178.656 14.501 177.689 14.4677C177.189 14.4343 176.622 14.4177 175.989 14.4177C175.356 14.3843 174.722 14.3677 174.089 14.3677C173.322 14.3677 172.589 14.3677 171.889 14.3677C171.189 14.3677 170.572 14.3843 170.039 14.4177C169.639 14.4177 169.306 14.5343 169.039 14.7677C168.806 14.9677 168.689 15.3177 168.689 15.8177V31.4177C169.122 31.4177 169.506 31.4343 169.839 31.4677C170.172 31.4677 170.556 31.4677 170.989 31.4677C171.456 31.4677 172.072 31.4677 172.839 31.4677C173.606 31.4677 174.656 31.4677 175.989 31.4677ZM198.535 14.6677V27.8177C198.535 29.1843 198.885 30.151 199.585 30.7177C200.319 31.251 201.452 31.5177 202.985 31.5177C204.619 31.5177 205.769 31.2343 206.435 30.6677C207.135 30.0677 207.485 29.1343 207.485 27.8677V14.6677C207.519 14.6677 207.685 14.6677 207.985 14.6677C208.319 14.6677 208.685 14.6677 209.085 14.6677C209.519 14.6343 209.902 14.6177 210.235 14.6177C210.602 14.6177 210.835 14.6177 210.935 14.6177C211.569 14.6177 212.069 14.6677 212.435 14.7677C212.835 14.8343 213.119 15.0177 213.285 15.3177C213.452 15.5843 213.535 16.0677 213.535 16.7677V27.0677C213.535 28.9677 213.252 30.501 212.685 31.6677C212.119 32.801 211.069 33.6343 209.535 34.1677C208.002 34.6677 205.769 34.9177 202.835 34.9177C200.169 34.9177 198.069 34.701 196.535 34.2677C195.035 33.8343 193.969 33.0843 193.335 32.0177C192.735 30.951 192.435 29.451 192.435 27.5177V16.7677C192.435 15.9343 192.569 15.3677 192.835 15.0677C193.135 14.7677 193.752 14.6177 194.685 14.6177C195.319 14.6177 195.952 14.6343 196.585 14.6677C197.219 14.6677 197.869 14.6677 198.535 14.6677ZM197.085 11.6177L202.085 5.31767H203.885L208.885 11.6177H206.185L202.985 8.01768L199.635 11.6177H197.085ZM219.827 34.6177C218.727 34.6177 218.177 34.051 218.177 32.9177V15.9677C219.177 15.5677 220.594 15.2343 222.427 14.9677C224.294 14.6677 226.361 14.5177 228.627 14.5177C230.994 14.5177 232.861 14.651 234.227 14.9177C235.627 15.1843 236.661 15.6343 237.327 16.2677C238.027 16.901 238.477 17.7343 238.677 18.7677C238.911 19.801 239.027 21.0843 239.027 22.6177V32.2677C239.027 32.8677 238.977 33.351 238.877 33.7177C238.811 34.051 238.594 34.301 238.227 34.4677C237.894 34.601 237.361 34.6677 236.627 34.6677L233.027 34.6177V21.2177C233.027 20.051 232.661 19.201 231.927 18.6677C231.194 18.1343 230.111 17.8677 228.677 17.8677C228.177 17.8677 227.644 17.9177 227.077 18.0177C226.511 18.0843 225.977 18.201 225.477 18.3677C224.977 18.501 224.561 18.6843 224.227 18.9177V34.6177H219.827Z" fill="#1C274C"/>
<path opacity="0.5" d="M106.571 78.3915C105.971 78.3915 105.416 78.3165 104.906 78.1665C104.426 78.0165 103.961 77.7765 103.511 77.4465C103.301 77.2665 103.001 76.9665 102.611 76.5465C102.221 76.1265 101.771 75.6465 101.261 75.1065C100.751 74.5365 100.226 73.9665 99.6856 73.3965C99.1756 72.8265 98.7106 72.3165 98.2906 71.8665C97.8706 71.3865 97.5406 71.0265 97.3006 70.7865C96.9706 70.4265 96.6856 70.1565 96.4456 69.9765C96.2056 69.7965 95.8306 69.6315 95.3206 69.4815L93.2956 69.3465V78.0315H88.7056V58.9065C88.7056 58.5465 88.7206 58.2615 88.7506 58.0515C88.8106 57.8115 88.9456 57.6315 89.1556 57.5115C89.3956 57.3915 89.7406 57.3315 90.1906 57.3315C90.7306 57.3315 91.2556 57.3315 91.7656 57.3315C92.2756 57.3315 92.7856 57.3315 93.2956 57.3315C93.2956 57.7515 93.2956 58.3365 93.2956 59.0865C93.2956 59.8365 93.2956 60.6315 93.2956 61.4715C93.2956 62.3115 93.2956 63.1065 93.2956 63.8565C93.2956 64.6065 93.2956 65.1915 93.2956 65.6115L95.3656 65.4315C95.7256 65.3715 96.0106 65.2665 96.2206 65.1165C96.4306 64.9665 96.6706 64.7415 96.9406 64.4415C97.5106 63.8115 98.1406 63.1365 98.8306 62.4165C99.5506 61.6965 100.286 60.9615 101.036 60.2115C101.786 59.4615 102.476 58.7565 103.106 58.0965C103.556 57.7365 104.036 57.4965 104.546 57.3765C105.086 57.2565 105.701 57.1965 106.391 57.1965C106.931 57.1965 107.381 57.2265 107.741 57.2865C108.101 57.3465 108.476 57.4215 108.866 57.5115C108.806 57.5415 108.596 57.7365 108.236 58.0965C107.906 58.4565 107.531 58.8465 107.111 59.2665C106.691 59.6865 106.331 60.0615 106.031 60.3915C105.161 61.1115 104.246 61.8915 103.286 62.7315C102.326 63.5415 101.396 64.3515 100.496 65.1615C99.5956 65.9715 98.7706 66.7365 98.0206 67.4565L98.1106 66.2865C98.6506 66.7065 99.3406 67.3215 100.181 68.1315C101.021 68.9115 101.951 69.8115 102.971 70.8315C104.021 71.8515 105.101 72.9165 106.211 74.0265C107.321 75.1065 108.416 76.1415 109.496 77.1315C109.406 77.2515 109.226 77.4165 108.956 77.6265C108.686 77.8065 108.356 77.9715 107.966 78.1215C107.576 78.3015 107.111 78.3915 106.571 78.3915ZM116.548 60.0765V72.0915C116.548 73.4715 116.923 74.4465 117.673 75.0165C118.423 75.5865 119.593 75.8715 121.183 75.8715C122.893 75.8715 124.108 75.5715 124.828 74.9715C125.578 74.3715 125.953 73.4115 125.953 72.0915V60.0765C125.983 60.0765 126.103 60.0765 126.313 60.0765C126.553 60.0765 126.808 60.0765 127.078 60.0765C127.348 60.0765 127.603 60.0765 127.843 60.0765C128.083 60.0765 128.233 60.0765 128.293 60.0765C128.773 60.0765 129.148 60.1065 129.418 60.1665C129.688 60.1965 129.868 60.3315 129.958 60.5715C130.078 60.7815 130.138 61.1415 130.138 61.6515V71.4615C130.138 73.0515 129.898 74.3565 129.418 75.3765C128.938 76.3665 128.038 77.1015 126.718 77.5815C125.428 78.0315 123.568 78.2565 121.138 78.2565C118.858 78.2565 117.073 78.0615 115.783 77.6715C114.523 77.2815 113.623 76.6215 113.083 75.6915C112.573 74.7315 112.318 73.4265 112.318 71.7765V61.6515C112.318 61.0215 112.423 60.6015 112.633 60.3915C112.843 60.1815 113.263 60.0765 113.893 60.0765C114.343 60.0765 114.778 60.0765 115.198 60.0765C115.648 60.0765 116.098 60.0765 116.548 60.0765ZM139.013 78.0315H136.133C135.683 78.0315 135.338 77.9115 135.098 77.6715C134.858 77.4315 134.738 76.9815 134.738 76.3215V60.9765C135.458 60.7665 136.463 60.5415 137.753 60.3015C139.043 60.0615 140.588 59.9415 142.388 59.9415C144.158 59.9415 145.553 60.0615 146.573 60.3015C147.593 60.5115 148.343 60.8415 148.823 61.2915C149.333 61.7115 149.648 62.2365 149.768 62.8665C149.918 63.4665 149.993 64.1715 149.993 64.9815H145.943L145.898 64.3515C145.898 63.6315 145.703 63.1215 145.313 62.8215C144.953 62.4915 144.518 62.2815 144.008 62.1915C143.498 62.1015 142.988 62.0565 142.478 62.0565C141.698 62.0565 140.993 62.1315 140.363 62.2815C139.763 62.4315 139.313 62.6265 139.013 62.8665V78.0315ZM152.653 68.9865C152.653 66.5565 152.983 64.6965 153.643 63.4065C154.303 62.0865 155.263 61.1865 156.523 60.7065C157.783 60.1965 159.298 59.9415 161.068 59.9415C161.608 59.9415 162.223 59.9715 162.913 60.0315C163.633 60.0615 164.338 60.1215 165.028 60.2115C165.718 60.3015 166.333 60.4065 166.873 60.5265C167.413 60.6165 167.788 60.7215 167.998 60.8415L166.873 61.3815V55.3065H171.013L170.968 68.9865C170.968 71.0265 170.818 72.6615 170.518 73.8915C170.218 75.0915 169.723 75.9915 169.033 76.5915C168.343 77.1915 167.383 77.5965 166.153 77.8065C164.923 78.0165 163.393 78.1215 161.563 78.1215C159.853 78.1215 158.413 78.0165 157.243 77.8065C156.103 77.5665 155.188 77.1315 154.498 76.5015C153.838 75.8715 153.358 74.9565 153.058 73.7565C152.788 72.5565 152.653 70.9665 152.653 68.9865ZM161.473 75.8265C162.643 75.8265 163.588 75.7515 164.308 75.6015C165.028 75.4215 165.568 75.1065 165.928 74.6565C166.318 74.2065 166.573 73.5765 166.693 72.7665C166.813 71.9265 166.873 70.8465 166.873 69.5265L166.828 62.6415C166.528 62.6115 166.123 62.5815 165.613 62.5515C165.103 62.5215 164.563 62.5065 163.993 62.5065C163.423 62.4765 162.898 62.4615 162.418 62.4615C161.068 62.4615 159.988 62.6415 159.178 63.0015C158.368 63.3315 157.783 63.9765 157.423 64.9365C157.063 65.8965 156.883 67.2765 156.883 69.0765C156.883 70.9965 157.018 72.4365 157.288 73.3965C157.588 74.3565 158.068 75.0015 158.728 75.3315C159.418 75.6615 160.333 75.8265 161.473 75.8265ZM191.211 60.0765V72.0915C191.211 73.4715 191.586 74.4465 192.336 75.0165C193.086 75.5865 194.256 75.8715 195.846 75.8715C197.556 75.8715 198.771 75.5715 199.491 74.9715C200.241 74.3715 200.616 73.4115 200.616 72.0915V60.0765C200.646 60.0765 200.766 60.0765 200.976 60.0765C201.216 60.0765 201.471 60.0765 201.741 60.0765C202.011 60.0765 202.266 60.0765 202.506 60.0765C202.746 60.0765 202.896 60.0765 202.956 60.0765C203.436 60.0765 203.811 60.1065 204.081 60.1665C204.351 60.1965 204.531 60.3315 204.621 60.5715C204.741 60.7815 204.801 61.1415 204.801 61.6515V71.4615C204.801 73.0515 204.561 74.3565 204.081 75.3765C203.601 76.3665 202.701 77.1015 201.381 77.5815C200.091 78.0315 198.231 78.2565 195.801 78.2565C193.521 78.2565 191.736 78.0615 190.446 77.6715C189.186 77.2815 188.286 76.6215 187.746 75.6915C187.236 74.7315 186.981 73.4265 186.981 71.7765V61.6515C186.981 61.0215 187.086 60.6015 187.296 60.3915C187.506 60.1815 187.926 60.0765 188.556 60.0765C189.006 60.0765 189.441 60.0765 189.861 60.0765C190.311 60.0765 190.761 60.0765 191.211 60.0765ZM191.031 57.3315L195.216 51.9315H196.611L200.841 57.3315H198.861L195.891 53.9565L192.876 57.3315H191.031ZM240.077 78.3915C239.477 78.3915 238.922 78.3165 238.412 78.1665C237.932 78.0165 237.467 77.7765 237.017 77.4465C236.807 77.2665 236.507 76.9665 236.117 76.5465C235.727 76.1265 235.277 75.6465 234.767 75.1065C234.257 74.5365 233.732 73.9665 233.192 73.3965C232.682 72.8265 232.217 72.3165 231.797 71.8665C231.377 71.3865 231.047 71.0265 230.807 70.7865C230.477 70.4265 230.192 70.1565 229.952 69.9765C229.712 69.7965 229.337 69.6315 228.827 69.4815L226.802 69.3465V78.0315H222.212V58.9065C222.212 58.5465 222.227 58.2615 222.257 58.0515C222.317 57.8115 222.452 57.6315 222.662 57.5115C222.902 57.3915 223.247 57.3315 223.697 57.3315C224.237 57.3315 224.762 57.3315 225.272 57.3315C225.782 57.3315 226.292 57.3315 226.802 57.3315C226.802 57.7515 226.802 58.3365 226.802 59.0865C226.802 59.8365 226.802 60.6315 226.802 61.4715C226.802 62.3115 226.802 63.1065 226.802 63.8565C226.802 64.6065 226.802 65.1915 226.802 65.6115L228.872 65.4315C229.232 65.3715 229.517 65.2665 229.727 65.1165C229.937 64.9665 230.177 64.7415 230.447 64.4415C231.017 63.8115 231.647 63.1365 232.337 62.4165C233.057 61.6965 233.792 60.9615 234.542 60.2115C235.292 59.4615 235.982 58.7565 236.612 58.0965C237.062 57.7365 237.542 57.4965 238.052 57.3765C238.592 57.2565 239.207 57.1965 239.897 57.1965C240.437 57.1965 240.887 57.2265 241.247 57.2865C241.607 57.3465 241.982 57.4215 242.372 57.5115C242.312 57.5415 242.102 57.7365 241.742 58.0965C241.412 58.4565 241.037 58.8465 240.617 59.2665C240.197 59.6865 239.837 60.0615 239.537 60.3915C238.667 61.1115 237.752 61.8915 236.792 62.7315C235.832 63.5415 234.902 64.3515 234.002 65.1615C233.102 65.9715 232.277 66.7365 231.527 67.4565L231.617 66.2865C232.157 66.7065 232.847 67.3215 233.687 68.1315C234.527 68.9115 235.457 69.8115 236.477 70.8315C237.527 71.8515 238.607 72.9165 239.717 74.0265C240.827 75.1065 241.922 76.1415 243.002 77.1315C242.912 77.2515 242.732 77.4165 242.462 77.6265C242.192 77.8065 241.862 77.9715 241.472 78.1215C241.082 78.3015 240.617 78.3915 240.077 78.3915ZM250.053 60.0765V72.0915C250.053 73.4715 250.428 74.4465 251.178 75.0165C251.928 75.5865 253.098 75.8715 254.688 75.8715C256.398 75.8715 257.613 75.5715 258.333 74.9715C259.083 74.3715 259.458 73.4115 259.458 72.0915V60.0765C259.488 60.0765 259.608 60.0765 259.818 60.0765C260.058 60.0765 260.313 60.0765 260.583 60.0765C260.853 60.0765 261.108 60.0765 261.348 60.0765C261.588 60.0765 261.738 60.0765 261.798 60.0765C262.278 60.0765 262.653 60.1065 262.923 60.1665C263.193 60.1965 263.373 60.3315 263.463 60.5715C263.583 60.7815 263.643 61.1415 263.643 61.6515V71.4615C263.643 73.0515 263.403 74.3565 262.923 75.3765C262.443 76.3665 261.543 77.1015 260.223 77.5815C258.933 78.0315 257.073 78.2565 254.643 78.2565C252.363 78.2565 250.578 78.0615 249.288 77.6715C248.028 77.2815 247.128 76.6215 246.588 75.6915C246.078 74.7315 245.823 73.4265 245.823 71.7765V61.6515C245.823 61.0215 245.928 60.6015 246.138 60.3915C246.348 60.1815 246.768 60.0765 247.398 60.0765C247.848 60.0765 248.283 60.0765 248.703 60.0765C249.153 60.0765 249.603 60.0765 250.053 60.0765ZM272.519 78.0315H269.639C269.189 78.0315 268.844 77.9115 268.604 77.6715C268.364 77.4315 268.244 76.9815 268.244 76.3215V60.9765C268.964 60.7665 269.969 60.5415 271.259 60.3015C272.549 60.0615 274.094 59.9415 275.894 59.9415C277.664 59.9415 279.059 60.0615 280.079 60.3015C281.099 60.5115 281.849 60.8415 282.329 61.2915C282.839 61.7115 283.154 62.2365 283.274 62.8665C283.424 63.4665 283.499 64.1715 283.499 64.9815H279.449L279.404 64.3515C279.404 63.6315 279.209 63.1215 278.819 62.8215C278.459 62.4915 278.024 62.2815 277.514 62.1915C277.004 62.1015 276.494 62.0565 275.984 62.0565C275.204 62.0565 274.499 62.1315 273.869 62.2815C273.269 62.4315 272.819 62.6265 272.519 62.8665V78.0315ZM286.159 68.9865C286.159 66.5565 286.489 64.6965 287.149 63.4065C287.809 62.0865 288.769 61.1865 290.029 60.7065C291.289 60.1965 292.804 59.9415 294.574 59.9415C295.114 59.9415 295.729 59.9715 296.419 60.0315C297.139 60.0615 297.844 60.1215 298.534 60.2115C299.224 60.3015 299.839 60.4065 300.379 60.5265C300.919 60.6165 301.294 60.7215 301.504 60.8415L300.379 61.3815V55.3065H304.519L304.474 68.9865C304.474 71.0265 304.324 72.6615 304.024 73.8915C303.724 75.0915 303.229 75.9915 302.539 76.5915C301.849 77.1915 300.889 77.5965 299.659 77.8065C298.429 78.0165 296.899 78.1215 295.069 78.1215C293.359 78.1215 291.919 78.0165 290.749 77.8065C289.609 77.5665 288.694 77.1315 288.004 76.5015C287.344 75.8715 286.864 74.9565 286.564 73.7565C286.294 72.5565 286.159 70.9665 286.159 68.9865ZM294.979 75.8265C296.149 75.8265 297.094 75.7515 297.814 75.6015C298.534 75.4215 299.074 75.1065 299.434 74.6565C299.824 74.2065 300.079 73.5765 300.199 72.7665C300.319 71.9265 300.379 70.8465 300.379 69.5265L300.334 62.6415C300.034 62.6115 299.629 62.5815 299.119 62.5515C298.609 62.5215 298.069 62.5065 297.499 62.5065C296.929 62.4765 296.404 62.4615 295.924 62.4615C294.574 62.4615 293.494 62.6415 292.684 63.0015C291.874 63.3315 291.289 63.9765 290.929 64.9365C290.569 65.8965 290.389 67.2765 290.389 69.0765C290.389 70.9965 290.524 72.4365 290.794 73.3965C291.094 74.3565 291.574 75.0015 292.234 75.3315C292.924 75.6615 293.839 75.8265 294.979 75.8265ZM312.806 78.2115C311.216 78.2115 310.136 77.8365 309.566 77.0865C308.996 76.3065 308.711 75.1515 308.711 73.6215L308.756 60.0765H312.941V73.3965C312.941 74.5365 313.076 75.3165 313.346 75.7365C313.646 76.1565 314.141 76.3665 314.831 76.3665C315.131 76.3665 315.431 76.3365 315.731 76.2765C316.061 76.2165 316.271 76.1715 316.361 76.1415V77.8515C316.241 77.8815 316.046 77.9265 315.776 77.9865C315.506 78.0465 315.131 78.0915 314.651 78.1215C314.171 78.1815 313.556 78.2115 312.806 78.2115ZM305.561 57.3315L309.746 51.9315H311.141L315.371 57.3315H313.391L310.421 53.9565L307.406 57.3315H305.561Z" fill="#1C274C"/>
</svg>
