<svg width="46" height="46" viewBox="0 0 46 46" fill="none" xmlns="http://www.w3.org/2000/svg">
<path d="M2.09124 45.0053C2.09124 45.0053 2.30059 44.9509 2.65544 44.8279C5.89653 43.4794 7.95549 41.529 8.77859 40.641C10.2036 39.0745 11.3236 37.1079 11.3096 34.8796C11.3096 34.3072 11.2416 33.7064 11.0814 33.0609C10.4775 30.5773 8.91886 27.4378 7.44258 23.9199C5.97853 20.3948 4.59088 16.4224 4.58495 12.0234C4.57378 8.88666 5.33338 5.56526 7.18159 2.24524C4.93875 4.14363 -0.667307 9.99264 1.38852 19.706C3.54448 29.8937 8.0654 36.804 2.09124 45.0053Z" fill="#E54C3A"/>
<path d="M41.045 23.2744C42.7951 22.2259 44.0513 20.8402 44.8079 19.1218C45.5635 17.4045 45.9434 15.7577 45.9434 14.1825C45.9434 12.3213 45.6954 10.5923 45.1976 8.99316C44.6998 7.39471 43.8848 5.99841 42.7482 4.80532C41.6134 3.61292 40.1589 2.6703 38.3829 1.97744C36.6079 1.28599 34.4436 0.939209 31.8885 0.939209H13.5088C13.498 1.07609 13.4861 1.28599 13.4861 1.56363C13.5064 2.93347 13.7519 5.70878 15.7242 8.8143H15.7494L15.7452 8.80442H32.7263C32.8351 8.80442 32.9317 8.81112 33.0352 8.8143H33.0943C33.1321 8.8143 33.1685 8.81888 33.2063 8.81994C33.2703 8.82312 33.3357 8.82523 33.3973 8.82911C33.5222 8.83617 33.6453 8.84781 33.7667 8.86439C34.8602 8.98716 35.4713 9.26303 35.4713 9.26303C35.4713 9.26303 39.185 10.388 41.6341 15.4077C41.6341 15.4077 40.4751 15.8886 38.9223 17.1462C36.9392 18.9013 35.2912 20.6462 34.1487 22.7364C33.4221 24.0491 32.86 25.5755 32.2229 27.2124H33.094C34.4667 27.2124 35.6501 27.7381 36.6432 28.7872C37.6374 29.8371 38.1352 31.0546 38.1352 32.4385C38.1352 34.1082 37.6612 35.4565 36.7153 36.4821C35.7676 37.5093 34.5373 38.0212 33.0233 38.0212H25.9147C24.6109 39.5202 23.1599 40.9027 21.5483 42.1075C19.611 43.5553 17.7038 44.7509 15.6609 45.8963H31.8889C34.4443 45.8963 36.6194 45.515 38.4185 44.7509C40.218 43.9871 41.6736 42.9852 42.785 41.7445C43.896 40.5034 44.7002 39.0845 45.1976 37.485C45.6954 35.8862 45.9434 34.2518 45.9434 32.5821C45.9434 30.8164 45.5534 29.0864 44.7726 27.392C43.9915 25.6976 42.7482 24.3249 41.045 23.2744Z" fill="#26A75C"/>
<path d="M27.1748 12.1325C24.0981 12.3023 21.0387 12.1738 21.0391 12.1751C19.9672 12.1259 19.059 12.0525 19.059 12.0525C23.9567 19.0009 22.4728 25.1773 22.4728 25.1773C22.0513 22.7606 21.5248 18.6977 16.6748 14.8614C8.50667 8.25675 9.74219 0.9823 9.74219 0.9823C0.040885 13.4873 9.85873 24.0409 11.9589 32.4986C14.0597 40.9583 4.37549 45.9394 4.37549 45.9394C6.71324 45.6712 10.1595 44.7246 12.6145 43.3938C14.7642 42.2265 16.6937 41.0446 18.6738 39.5887C21.776 37.3067 24.2931 34.2861 26.1926 30.9629C26.7449 29.9963 27.2484 29.0039 27.701 27.987C28.6891 25.7712 29.3957 23.4439 30.5795 21.3144C31.926 18.8925 33.807 16.9726 35.888 15.1608C35.9148 15.1379 36.4679 14.6532 36.4913 14.6789C34.1839 12.1325 30.2523 11.9631 27.1748 12.1325ZM32.3999 14.3861C32.156 14.3861 31.9578 14.19 31.9578 13.9474C31.9578 13.7049 32.1556 13.5088 32.3999 13.5088C32.6441 13.5088 32.8416 13.7049 32.8416 13.9474C32.8412 14.19 32.6437 14.3861 32.3999 14.3861Z" fill="#FAD117"/>
</svg>
