<svg width="52" height="52" viewBox="0 0 52 52" fill="none" xmlns="http://www.w3.org/2000/svg">
<path opacity="0.5" d="M28.7166 49.6395L29.3409 50.0552L29.3409 50.0552L28.7166 49.6395ZM30.0719 47.6043L29.4476 47.1886L29.4476 47.1886L30.0719 47.6043ZM21.928 47.6043L21.3038 48.0199L21.3038 48.0199L21.928 47.6043ZM23.2833 49.6395L22.659 50.0552L22.659 50.0552L23.2833 49.6395ZM1.95151 37.4744L2.63132 37.1576L2.63132 37.1576L1.95151 37.4744ZM15.4739 44.3145L15.4625 45.0644L15.4625 45.0644L15.4739 44.3145ZM8.71646 43.4877L8.45732 44.1915L8.45732 44.1915L8.71646 43.4877ZM50.0485 37.4744L50.7283 37.7912L50.7283 37.7912L50.0485 37.4744ZM36.5259 44.3145L36.5145 43.5646L36.5145 43.5646L36.5259 44.3145ZM43.2835 43.4877L43.5427 44.1915L43.5427 44.1915L43.2835 43.4877ZM6.96877 8.19282L6.61 7.5342L6.61 7.5342L6.96877 8.19282ZM2.842 11.8611L2.22451 11.4354L2.842 11.8611ZM19.507 44.7998L19.8514 44.1336L19.8514 44.1336L19.507 44.7998ZM18.5021 7.30786C18.9163 7.30672 19.2511 6.97001 19.25 6.55579C19.2489 6.14158 18.9121 5.80672 18.4979 5.80786L18.5021 7.30786ZM51.7128 32.1338C51.7251 31.7197 51.3995 31.3741 50.9855 31.3618C50.5714 31.3495 50.2258 31.6751 50.2135 32.0891L51.7128 32.1338ZM29.3409 50.0552L30.6961 48.0199L29.4476 47.1886L28.0924 49.2238L29.3409 50.0552ZM21.3038 48.0199L22.659 50.0552L23.9075 49.2238L22.5523 47.1886L21.3038 48.0199ZM28.0924 49.2238C27.6537 49.8826 26.8568 50.25 25.9999 50.25C25.1431 50.25 24.3462 49.8826 23.9075 49.2238L22.659 50.0552C23.4283 51.2105 24.744 51.75 25.9999 51.75C27.2559 51.75 28.5716 51.2105 29.3409 50.0552L28.0924 49.2238ZM1.75 27.6667V25.4445H0.25V27.6667H1.75ZM0.25 27.6667C0.25 30.2438 0.249487 32.2188 0.371138 33.8037C0.493457 35.3973 0.742384 36.6553 1.27169 37.7912L2.63132 37.1576C2.20912 36.2516 1.9823 35.1944 1.86674 33.6889C1.75051 32.1747 1.75 30.2668 1.75 27.6667H0.25ZM15.4854 43.5646C12.3458 43.5165 10.494 43.343 8.97559 42.7839L8.45732 44.1915C10.2405 44.8481 12.3253 45.0164 15.4625 45.0644L15.4854 43.5646ZM1.27169 37.7912C2.63166 40.7096 5.22638 43.0019 8.45732 44.1915L8.97559 42.7839C6.08083 41.7181 3.8087 39.6842 2.63132 37.1576L1.27169 37.7912ZM36.5374 45.0644C39.6746 45.0164 41.7595 44.8481 43.5427 44.1915L43.0244 42.7839C41.506 43.343 39.6542 43.5165 36.5145 43.5646L36.5374 45.0644ZM49.3687 37.1576C48.1913 39.6842 45.9192 41.7181 43.0244 42.7839L43.5427 44.1915C46.7736 43.0019 49.3683 40.7096 50.7283 37.7912L49.3687 37.1576ZM1.75 25.4445C1.75 21.791 1.751 19.1101 1.976 17.0066C2.19934 14.9186 2.63701 13.4798 3.45948 12.2868L2.22451 11.4354C1.20499 12.9143 0.721658 14.63 0.484504 16.8471C0.249001 19.0488 0.25 21.8236 0.25 25.4445H1.75ZM6.61 7.5342C4.83056 8.50349 3.32565 9.83816 2.22451 11.4354L3.45948 12.2868C4.41974 10.8939 5.74309 9.71452 7.32753 8.85145L6.61 7.5342ZM22.5523 47.1886C21.5444 45.6749 20.9074 44.6795 19.8514 44.1336L19.1625 45.466C19.7951 45.7931 20.2093 46.3763 21.3038 48.0199L22.5523 47.1886ZM15.4625 45.0644C16.5378 45.0809 17.2987 45.0931 17.8976 45.1521C18.4856 45.21 18.8578 45.3085 19.1625 45.466L19.8514 44.1336C19.3119 43.8547 18.7305 43.7268 18.0445 43.6593C17.3694 43.5929 16.536 43.5807 15.4854 43.5646L15.4625 45.0644ZM30.6961 48.0199C31.7906 46.3763 32.2048 45.7931 32.8374 45.466L32.1485 44.1336C31.0925 44.6795 30.4555 45.6749 29.4476 47.1886L30.6961 48.0199ZM36.5145 43.5646C35.4639 43.5807 34.6305 43.5929 33.9554 43.6593C33.2694 43.7268 32.6879 43.8547 32.1485 44.1336L32.8374 45.466C33.1421 45.3085 33.5143 45.21 34.1023 45.1521C34.7012 45.0931 35.4621 45.0809 36.5374 45.0644L36.5145 43.5646ZM18.4979 5.80786C12.2252 5.82516 9.48124 5.97019 6.61 7.5342L7.32753 8.85145C9.8107 7.49883 12.1609 7.32534 18.5021 7.30786L18.4979 5.80786ZM50.2135 32.0891C50.1419 34.4951 49.9296 35.9539 49.3687 37.1576L50.7283 37.7912C51.4266 36.2927 51.6403 34.5706 51.7128 32.1338L50.2135 32.0891Z" fill="#1C274C"/>
<path d="M26 6.55559L25.5017 5.99503C25.3416 6.13736 25.25 6.34136 25.25 6.55559C25.25 6.76982 25.3416 6.97382 25.5017 7.11614L26 6.55559ZM50.25 25.4443C50.25 25.8586 50.5858 26.1943 51 26.1943C51.4142 26.1943 51.75 25.8586 51.75 25.4443H50.25ZM45.0312 8.19268L44.6725 8.85131L44.6725 8.85131L45.0312 8.19268ZM49.158 11.8609L49.7755 11.4353L49.7755 11.4353L49.158 11.8609ZM32.7483 1.56056C33.0579 1.28537 33.0857 0.811312 32.8106 0.501725C32.5354 0.192139 32.0613 0.164255 31.7517 0.439445L32.7483 1.56056ZM31.7517 12.6717C32.0613 12.9469 32.5354 12.919 32.8106 12.6095C33.0857 12.2999 33.0579 11.8258 32.7483 11.5506L31.7517 12.6717ZM26 7.30559C30.0986 7.30559 34.08 7.30581 37.4117 7.50875C39.0764 7.61015 40.5623 7.76131 41.8081 7.98439C43.0647 8.2094 44.0258 8.49904 44.6725 8.85131L45.39 7.53406C44.5338 7.06766 43.3874 6.74332 42.0725 6.50788C40.7469 6.2705 39.1972 6.11472 37.5029 6.01152C34.1162 5.80524 30.0849 5.80559 26 5.80559V7.30559ZM51.75 25.4443C51.75 21.8235 51.751 19.0486 51.5155 16.847C51.2783 14.6298 50.795 12.9141 49.7755 11.4353L48.5405 12.2866C49.363 13.4797 49.8007 14.9185 50.024 17.0065C50.249 19.11 50.25 21.7909 50.25 25.4443H51.75ZM44.6725 8.85131C46.2569 9.71438 47.5803 10.8937 48.5405 12.2866L49.7755 11.4353C48.6744 9.83801 47.1694 8.50335 45.39 7.53406L44.6725 8.85131ZM26.4983 7.11614L32.7483 1.56056L31.7517 0.439445L25.5017 5.99503L26.4983 7.11614ZM25.5017 7.11614L31.7517 12.6717L32.7483 11.5506L26.4983 5.99503L25.5017 7.11614Z" fill="#1C274C"/>
</svg>
