<svg width="41" height="41" viewBox="0 0 41 41" fill="none" xmlns="http://www.w3.org/2000/svg">
<path fill-rule="evenodd" clip-rule="evenodd" d="M29.8959 18.7917C26.272 18.7917 24.46 18.7917 23.3342 17.6659C22.2084 16.5401 22.2084 14.7282 22.2084 11.1042C22.2084 7.48033 22.2084 5.66836 23.3342 4.54256C24.46 3.41675 26.272 3.41675 29.8959 3.41675C33.5198 3.41675 35.3318 3.41675 36.4576 4.54256C37.5834 5.66836 37.5834 7.48033 37.5834 11.1042C37.5834 14.7282 37.5834 16.5401 36.4576 17.6659C35.3318 18.7917 33.5198 18.7917 29.8959 18.7917ZM31.1771 7.68758C31.1771 6.97997 30.6035 6.40633 29.8959 6.40633C29.1883 6.40633 28.6146 6.97997 28.6146 7.68758V9.823H26.4792C25.7716 9.823 25.198 10.3966 25.198 11.1042C25.198 11.8119 25.7716 12.3855 26.4792 12.3855H28.6146V14.5209C28.6146 15.2285 29.1883 15.8022 29.8959 15.8022C30.6035 15.8022 31.1771 15.2285 31.1771 14.5209V12.3855H33.3125C34.0202 12.3855 34.5938 11.8119 34.5938 11.1042C34.5938 10.3966 34.0202 9.823 33.3125 9.823H31.1771V7.68758Z" fill="#1C274C"/>
<path opacity="0.5" d="M37.5829 21.6922C37.5803 24.2028 37.5612 26.3366 37.4186 28.0875C37.253 30.1193 36.9138 31.8171 36.1545 33.2271C35.8196 33.8491 35.408 34.406 34.907 34.9071C33.485 36.3291 31.6733 36.9732 29.3774 37.2819C27.1343 37.5835 24.2595 37.5834 20.5911 37.5834H20.4088C16.7404 37.5834 13.8656 37.5835 11.6225 37.2819C9.32662 36.9732 7.51495 36.3291 6.09297 34.9071C4.83233 33.6464 4.18132 32.0774 3.83513 30.131C3.49505 28.219 3.43284 25.8401 3.41991 22.8862C3.41663 22.1348 3.41663 21.3401 3.41663 20.5017V20.4089C3.41661 16.7405 3.41659 13.8657 3.71816 11.6226C4.02684 9.32674 4.67098 7.51507 6.09297 6.09309C7.51495 4.6711 9.32662 4.02696 11.6225 3.71828C13.6173 3.45009 16.1838 3.42042 19.3076 3.41715C19.9658 3.41646 20.5 3.95036 20.5 4.60861C20.5 5.26685 19.9656 5.80021 19.3074 5.80091C16.1394 5.80426 13.7819 5.83312 11.9401 6.08075C9.90857 6.35389 8.68378 6.87337 7.77851 7.77863C6.87324 8.6839 6.35376 9.90869 6.08063 11.9403C5.80288 14.0061 5.80035 16.7207 5.80035 20.5001C5.80035 20.9616 5.80035 21.408 5.80089 21.8401L7.39184 20.4481C8.83999 19.181 11.0226 19.2536 12.3832 20.6143L19.2002 27.4313C20.2923 28.5234 22.0115 28.6723 23.2751 27.7842L23.749 27.4512C25.5673 26.1733 28.0275 26.3213 29.6794 27.8081L34.1775 31.8564C34.6303 30.9056 34.8991 29.6563 35.0427 27.8939C35.178 26.2334 35.1966 24.2165 35.1992 21.6923C35.1998 21.0341 35.7332 20.5001 36.3914 20.5001C37.0497 20.5001 37.5836 21.034 37.5829 21.6922Z" fill="#1C274C"/>
</svg>
