<svg width="58" height="52" viewBox="0 0 58 52" fill="none" xmlns="http://www.w3.org/2000/svg">
<path d="M36.6358 48.6921L37.0855 48.0919L37.0855 48.0919L36.6358 48.6921ZM41.2776 29.2176L40.7506 29.7512C41.0427 30.0397 41.5125 30.0397 41.8046 29.7512L41.2776 29.2176ZM45.9194 48.6921L45.4697 48.0919L45.4697 48.0919L45.9194 48.6921ZM54.1869 28.549L54.7294 28.0312L54.7294 28.0312L54.1869 28.549ZM35.4493 47.816L35.0061 48.4211L35.0061 48.4211L35.4493 47.816ZM26.7498 34.4985C26.7498 31.2696 28.6702 28.5201 31.3596 27.3517C34.0106 26.1998 37.5085 26.5494 40.7506 29.7512L41.8046 28.6839C38.1719 25.0964 34.0309 24.5555 30.7618 25.9759C27.5309 27.3797 25.2498 30.6654 25.2498 34.4985H26.7498ZM36.1861 49.2923C36.9725 49.8816 37.7912 50.4901 38.6144 50.9474C39.4383 51.405 40.3327 51.7499 41.2776 51.7499V50.2499C40.6947 50.2499 40.0614 50.0352 39.3428 49.6361C38.6236 49.2366 37.8854 48.6913 37.0855 48.0919L36.1861 49.2923ZM46.3691 49.2923C48.5714 47.6421 51.3148 45.8005 53.4711 43.4925C55.6532 41.1569 57.3054 38.2764 57.3054 34.4985H55.8054C55.8054 37.7826 54.3872 40.3148 52.3751 42.4684C50.3372 44.6496 47.7626 46.3738 45.4697 48.0919L46.3691 49.2923ZM45.4697 48.0919C44.6698 48.6913 43.9315 49.2366 43.2124 49.6361C42.4938 50.0352 41.8605 50.2499 41.2776 50.2499V51.7499C42.2225 51.7499 43.1169 51.405 43.9408 50.9474C44.764 50.4901 45.5827 49.8816 46.3691 49.2923L45.4697 48.0919ZM57.3054 34.4985C57.3054 31.9799 56.3201 29.6976 54.7294 28.0312L53.6444 29.0669C54.9769 30.4628 55.8054 32.3772 55.8054 34.4985H57.3054ZM54.7294 28.0312C53.1039 26.3282 50.8398 25.2626 48.3468 25.25C45.8456 25.2374 43.1806 26.2841 40.7506 28.6839L41.8046 29.7512C43.9909 27.5921 46.2868 26.7396 48.3392 26.75C50.3999 26.7604 52.2823 27.6399 53.6444 29.0669L54.7294 28.0312ZM37.0855 48.0919C36.6968 47.8007 36.2967 47.5071 35.8925 47.211L35.0061 48.4211C35.4105 48.7173 35.8046 49.0065 36.1861 49.2923L37.0855 48.0919ZM35.8925 47.211C31.5045 43.9968 26.7498 40.5138 26.7498 34.4985H25.2498C25.2498 41.3974 30.7628 45.3129 35.0061 48.4211L35.8925 47.211Z" fill="#1C274C"/>
<path opacity="0.5" d="M20.3381 46.3845L20.8152 45.8058L20.8152 45.8058L20.3381 46.3845ZM28.7778 7.4354L28.226 7.94335C28.368 8.09762 28.5681 8.1854 28.7778 8.1854C28.9875 8.1854 29.1876 8.09762 29.3296 7.94335L28.7778 7.4354ZM20.8152 45.8058C12.5304 38.977 1.75 31.6903 1.75 17.9973H0.25C0.25 32.5523 11.7997 40.3186 19.8611 46.9632L20.8152 45.8058ZM1.75 17.9973C1.75 11.1975 5.42679 5.44113 10.525 3.00449C15.5658 0.595265 22.1643 1.35837 28.226 7.94335L29.3296 6.92745C22.8917 -0.0662572 15.6013 -1.08425 9.87814 1.65112C4.21232 4.35906 0.25 10.6729 0.25 17.9973H1.75ZM19.8611 46.9632C21.2961 48.146 22.7519 49.3348 24.2068 50.2237C25.6606 51.112 27.1899 51.75 28.7778 51.75V50.25C27.5879 50.25 26.3394 49.7689 24.9889 48.9437C23.6394 48.1192 22.2643 47.0002 20.8152 45.8058L19.8611 46.9632ZM57.3056 17.9973C57.3056 10.6729 53.3432 4.35906 47.6774 1.65112C41.9542 -1.08425 34.6639 -0.0662571 28.226 6.92745L29.3296 7.94335C35.3912 1.35837 41.9898 0.595265 47.0306 3.00449C52.1288 5.44113 55.8056 11.1975 55.8056 17.9973H57.3056ZM54.8636 28.8728C56.381 25.7016 57.3056 22.1182 57.3056 17.9973H55.8056C55.8056 21.8828 54.9362 25.2458 53.5105 28.2254L54.8636 28.8728ZM34.9867 47.226C32.7136 49.0087 30.6953 50.25 28.7778 50.25V51.75C31.2726 51.75 33.6666 50.1676 35.9123 48.4063L34.9867 47.226Z" fill="#1C274C"/>
</svg>
