<svg width="100" height="100" viewBox="0 0 100 100" fill="none" xmlns="http://www.w3.org/2000/svg">
<path d="M66.1049 36.6254L23.124 32.7721C19.8778 32.4817 17.2024 30.0426 16.5413 26.7722L73.8868 31.9135L72.6959 33.5718C71.1683 35.6973 68.6715 36.8548 66.1049 36.6254Z" fill="#EBECED"/>
<path d="M36.6878 62.8936L29.2385 54.0274C28.524 53.1772 29.0702 51.8556 30.1646 51.7925L41.5622 51.1253L47.4879 41.1227C48.0567 40.1631 49.4508 40.2894 49.8471 41.3353L53.9886 52.2386L65.1008 54.9239C66.1664 55.1807 66.4806 56.5802 65.6347 57.2894L56.7954 64.6951L55.7605 76.1792C55.662 77.2799 54.3171 78.0059 53.4855 77.4083L44.8146 71.1643L33.3512 75.6026C32.2527 76.0277 31.3411 75.0996 31.8072 74.0327L36.6878 62.8936Z" fill="#1BC469"/>
<path d="M81.1863 88.2782C80.8865 91.7927 77.862 94.3938 74.4331 94.0866L21.7998 89.3662C18.108 89.0358 14.4594 90.3743 11.8086 93.0301L81.2807 99.2594C82.6461 99.3815 83.8514 98.3461 83.9705 96.9466L85.5967 77.9031C83.065 80.7757 81.5168 84.4207 81.1863 88.2782Z" fill="#EBECED"/>
<path d="M79.27 74.5146L75.5289 81.2069C74.4448 83.1451 72.3628 84.2605 70.1904 84.0669L9.6336 78.6373C7.47357 78.4437 5.35665 79.3486 3.9707 81.0596L74.0116 87.3394C74.9766 87.4256 75.9006 86.929 76.3831 86.0682L85.7521 69.3039C85.7131 69.2534 85.7398 69.2871 85.7008 69.2366C82.9843 70.0973 80.6847 71.985 79.27 74.5146Z" fill="#EBECED"/>
<path d="M75.4595 65.6316C75.0673 65.5979 74.7162 65.8968 74.6813 66.3008C74.6464 66.707 74.94 67.0627 75.3342 67.0984L77.987 67.3363C78.0076 67.3384 78.0302 67.3384 78.0507 67.3384C78.4182 67.3384 78.7324 67.05 78.7652 66.667C78.8001 66.2609 78.5065 65.9052 78.1123 65.8694L75.4595 65.6316Z" fill="#2A3853"/>
<path d="M88.1281 19.0343L81.0628 18.4009L81.3564 14.9685C81.4467 13.9015 81.1285 12.8619 80.4571 12.0411C79.7856 11.2204 78.8432 10.7174 77.8022 10.6248C75.6524 10.4333 73.7511 12.0664 73.5643 14.2698L73.2706 17.7022L56.2614 16.1764L56.555 12.744C56.6454 11.6771 56.3271 10.6374 55.6557 9.81669C54.9843 8.99594 54.0419 8.49297 53.0009 8.40037C51.9598 8.30778 50.9455 8.63397 50.1448 9.32214C49.344 10.0103 48.8533 10.9784 48.7629 12.0432L48.4693 15.4757L31.4601 13.9499L31.7537 10.5175C31.844 9.45051 31.5258 8.4109 30.8523 7.59015C30.1809 6.7694 29.2385 6.26643 28.1975 6.17383C27.1544 6.07913 26.1421 6.40743 25.3414 7.09559C24.5406 7.78376 24.0499 8.74972 23.9595 9.81669L23.6659 13.2491L16.6006 12.6157C14.843 12.4599 13.2867 13.7963 13.1327 15.5977L9.36289 59.7709C9.29513 60.5769 9.05079 61.3745 8.65862 62.0774L0.431199 76.8004C-0.114969 77.7768 -0.135502 78.9554 0.371654 79.9508C0.880863 80.9483 1.83563 81.6007 2.93002 81.6996L7.46362 82.0974C7.46362 82.0974 7.44309 82.2783 7.43487 82.3709L6.78194 90.0186C6.70802 90.892 6.96878 91.7422 7.51906 92.4135C8.06933 93.0849 8.84136 93.4974 9.69346 93.5731L81.225 99.9876C81.3194 99.996 81.4139 100 81.5063 100C83.1468 100 84.5472 98.7102 84.6929 97.0055L86.3191 77.962C86.354 77.5559 86.0604 77.2002 85.6662 77.1644C85.274 77.1308 84.9229 77.4296 84.888 77.8337L83.2618 96.8772C83.1776 97.8705 82.3194 98.607 81.3502 98.5208L9.81255 92.1105C9.34235 92.0684 8.91733 91.8411 8.6155 91.4707C8.31162 91.1003 8.16789 90.631 8.20895 90.1512L8.86189 82.5035C8.8701 82.4088 8.88653 82.2384 8.88653 82.2384L73.9523 88.072C74.0447 88.0804 74.1371 88.0846 74.2295 88.0846C75.367 88.0846 76.4368 87.4575 77.0096 86.4347L86.3787 69.6704C86.8735 68.7844 87.1815 67.7784 87.2677 66.7599L91.0375 22.5867C91.1936 20.7874 89.8877 19.1922 88.1281 19.0343ZM89.6084 22.4604L88.7502 32.5052L79.2107 31.6507C78.8165 31.615 78.4675 31.9159 78.4325 32.32C78.3976 32.7261 78.6913 33.0818 79.0855 33.1176L88.6249 33.972L85.8428 66.5599L81.4303 66.1643C81.0381 66.1285 80.687 66.4295 80.6521 66.8335C80.6172 67.2397 80.9108 67.5953 81.3051 67.6311L85.5409 68.012C85.4301 68.3319 85.2945 68.6434 85.1303 68.9359L75.7613 85.7002C75.4204 86.3105 74.7593 86.6641 74.0755 86.6031L3.04911 80.237C2.43723 80.1823 1.92392 79.8308 1.63852 79.2731C1.35517 78.7154 1.36543 78.082 1.67137 77.5369L9.89879 62.814C10.1657 62.3341 10.3772 61.8206 10.5291 61.2882L16.3645 61.8122C16.385 61.8143 16.4076 61.8143 16.4282 61.8143C16.7957 61.8143 17.1098 61.526 17.1427 61.143C17.1776 60.7368 16.884 60.3812 16.4898 60.3454L10.792 59.834L13.5741 27.246L73.8168 32.6483C73.8373 32.6504 73.8599 32.6504 73.8805 32.6504C74.248 32.6504 74.5622 32.362 74.595 31.979C74.6299 31.5729 74.3363 31.2172 73.9421 31.1814L13.6994 25.7792L14.5576 15.7345C14.6418 14.7412 15.5021 14.0004 16.4692 14.0909L23.5345 14.7244L23.2409 18.1568C23.1505 19.2237 23.4688 20.2634 24.1423 21.0841C24.8137 21.9049 25.7582 22.4078 26.7971 22.5004C26.9121 22.5109 27.0271 22.5152 27.14 22.5152C29.144 22.5152 30.8564 20.9389 31.0351 18.8555L31.1439 17.5696C31.1788 17.1635 30.8852 16.8078 30.4909 16.772C30.0947 16.7362 29.7477 17.0372 29.7128 17.4412L29.6039 18.7271C29.4848 20.1203 28.2816 21.1536 26.9224 21.0336C26.2633 20.9747 25.6678 20.6569 25.2428 20.1371C24.8178 19.6173 24.6166 18.9607 24.6741 18.2851L25.0293 14.1204L25.3845 9.95348C25.442 9.27794 25.752 8.66764 26.2592 8.23201C26.7663 7.79639 27.4069 7.58804 28.066 7.64907C28.7251 7.708 29.3206 8.02577 29.7456 8.54558C30.1706 9.06539 30.3719 9.72199 30.3144 10.3975L30.0207 13.8299L27.5548 13.609C27.1585 13.5753 26.8115 13.8741 26.7766 14.2782C26.7417 14.6823 27.0353 15.04 27.4295 15.0758L48.3358 16.9509L48.0422 20.3833C47.8533 22.5867 49.4487 24.5355 51.5985 24.727C51.7135 24.7375 51.8284 24.7417 51.9414 24.7417C53.9454 24.7417 55.6578 23.1654 55.8364 21.082L55.9452 19.7962C55.9801 19.39 55.6865 19.0343 55.2923 18.9986C54.9001 18.9649 54.549 19.2637 54.5141 19.6678L54.4053 20.9536C54.2862 22.3468 53.083 23.3822 51.7237 23.2601C50.3645 23.1381 49.3543 21.9049 49.4733 20.5117L50.1838 12.1779C50.2413 11.5024 50.5513 10.8921 51.0585 10.4565C51.5656 10.0208 52.2062 9.81248 52.8653 9.87351C53.5244 9.93244 54.1199 10.2502 54.5449 10.77C54.9699 11.2898 55.1711 11.9464 55.1137 12.622L54.82 16.0544L52.3541 15.8334C51.9619 15.7997 51.6108 16.0986 51.5759 16.5026C51.541 16.9088 51.8346 17.2645 52.2288 17.3002L73.1351 19.1753L72.8415 22.6078C72.7512 23.6747 73.0694 24.7143 73.7408 25.5351C74.4123 26.3558 75.3547 26.8588 76.3957 26.9514C76.5107 26.9619 76.6257 26.9661 76.7386 26.9661C78.7426 26.9661 80.455 25.3899 80.6336 23.3064L80.7425 22.0206C80.7774 21.6144 80.4838 21.2588 80.0895 21.223C79.6953 21.1893 79.3463 21.4882 79.3113 21.8922L79.2025 23.1781C79.0834 24.5712 77.8782 25.6066 76.521 25.4846C75.8619 25.4257 75.2664 25.1079 74.8414 24.5881C74.4164 24.0683 74.2151 23.4117 74.2726 22.7361L74.9831 14.4024C75.1022 13.0092 76.3054 11.9759 77.6646 12.0958C78.3237 12.1548 78.9192 12.4726 79.3442 12.9924C79.7692 13.5122 79.9704 14.1688 79.9129 14.8443L79.6193 18.2767L77.1534 18.0558C76.7612 18.0221 76.4101 18.3209 76.3752 18.725C76.3403 19.1311 76.6339 19.4868 77.0281 19.5226L87.9905 20.5054C88.9719 20.5896 89.6926 21.4671 89.6084 22.4604Z" fill="#2A3853"/>
<path d="M5.67111 17.5864C5.58076 17.5864 5.48837 17.5696 5.40007 17.5317L0.447608 15.4693C0.0800739 15.3157 -0.0965066 14.8864 0.0533815 14.5097C0.20327 14.133 0.622135 13.952 0.989669 14.1056L5.94214 16.168C6.30967 16.3216 6.48625 16.751 6.33636 17.1277C6.22343 17.4118 5.95446 17.5864 5.67111 17.5864Z" fill="#1BC469"/>
<path d="M18.05 6.75445C17.7338 6.75445 17.4463 6.5398 17.358 6.2136L15.9371 0.931342C15.8324 0.539908 16.0562 0.133742 16.4381 0.0264133C16.8221 -0.0809155 17.2163 0.148473 17.321 0.539907L18.7419 5.82217C18.8466 6.2136 18.6228 6.61977 18.2409 6.7271C18.1773 6.74604 18.1136 6.75445 18.05 6.75445Z" fill="#1BC469"/>
<path d="M94.2118 72.3641C93.9121 72.3641 93.6308 72.1705 93.5302 71.8611C93.4029 71.476 93.6061 71.0572 93.9839 70.9288L99.0534 69.1863C99.4292 69.0579 99.8378 69.2642 99.963 69.6514C100.09 70.0365 99.887 70.4553 99.5092 70.5837L94.4397 72.3262C94.3638 72.3514 94.2878 72.3641 94.2118 72.3641Z" fill="#1BC469"/>
<path d="M96.1442 91.9059C96.0066 91.9059 95.867 91.866 95.7438 91.7797L91.3067 88.724C90.9781 88.4967 90.8899 88.04 91.1116 87.7012C91.3334 87.3645 91.7789 87.274 92.1095 87.5013L96.5466 90.5591C96.8751 90.7864 96.9634 91.243 96.7417 91.5819C96.6041 91.7923 96.3762 91.9059 96.1442 91.9059Z" fill="#1BC469"/>
</svg>
