<svg width="52" height="52" viewBox="0 0 52 52" fill="none" xmlns="http://www.w3.org/2000/svg">
<path opacity="0.5" d="M51 30.9948C50.9276 39.5298 50.4538 44.235 47.3509 47.3379C43.6888 51 37.7947 51 26.0065 51C14.2183 51 8.32424 51 4.66212 47.3379C1 43.6758 1 37.7817 1 25.9935C1 14.2053 1 8.3112 4.66212 4.64908C7.76499 1.54621 12.4702 1.07236 21.0052 1" stroke="#1C274C" stroke-width="1.5" stroke-linecap="round"/>
<path d="M51.0004 13.5H31.0004C25.9421 13.5 23.1204 16.2632 22.4227 17.0458C22.3171 17.1642 22.2643 17.2234 22.2441 17.2437C22.2238 17.2639 22.1646 17.3167 22.0461 17.4224C21.2636 18.12 18.5004 20.9418 18.5004 26V33.5M51.0004 13.5L38.5004 1M51.0004 13.5L38.5004 26" stroke="#1C274C" stroke-width="1.5" stroke-linecap="round" stroke-linejoin="round"/>
</svg>
