<svg width="52" height="52" viewBox="0 0 52 52" fill="none" xmlns="http://www.w3.org/2000/svg">
<path opacity="0.5" d="M20.9999 51.0002C11.5719 51.0002 6.85784 51.0002 3.92892 48.0713C1 45.1423 1 42.9283 1 33.5002" stroke="#1C274C" stroke-linecap="round"/>
<path opacity="0.5" d="M31.0008 1C40.4289 1 45.1429 1 48.0718 3.92892C51.0007 6.85784 51.0007 9.07188 51.0007 18.4999" stroke="#1C274C" stroke-linecap="round"/>
<path opacity="0.5" d="M20.9999 1C11.5719 1 6.85784 1 3.92892 3.92892C1 6.85784 1 9.07188 1 18.4999" stroke="#1C274C" stroke-linecap="round"/>
<path d="M20.906 40.4229C19.5401 38.8384 18.8571 38.0462 18.8571 35.6938C18.8571 33.3414 19.5401 32.5491 20.906 30.9647C23.6335 27.801 28.2076 24.2142 34.9285 24.2142C41.6493 24.2142 46.2235 27.801 48.9509 30.9647C50.3169 32.5491 50.9998 33.3414 50.9998 35.6938C50.9998 38.0462 50.3169 38.8384 48.9509 40.4229C46.2235 43.5866 41.6493 47.1733 34.9285 47.1733C28.2076 47.1733 23.6335 43.5866 20.906 40.4229Z" stroke="#1C274C" stroke-width="0.7"/>
<circle cx="34.9285" cy="35.6939" r="4.59182" stroke="#1C274C" stroke-width="0.7"/>
</svg>
