<svg width="56" height="56" viewBox="0 0 56 56" fill="none" xmlns="http://www.w3.org/2000/svg">
<path d="M28.0132 13.5194C28.0132 19.0893 23.3992 23.6049 17.7074 23.6049C12.0163 23.6049 7.40186 19.0895 7.40186 13.5194C7.40186 7.94931 12.0161 3.43408 17.7074 3.43408C23.399 3.43425 28.0132 7.94948 28.0132 13.5194Z" fill="#E74645"/>
<mask id="mask0_277_99649" style="mask-type:luminance" maskUnits="userSpaceOnUse" x="7" y="3" width="22" height="21">
<path d="M28.0132 13.5194C28.0132 19.0893 23.3992 23.6049 17.7074 23.6049C12.0163 23.6049 7.40186 19.0895 7.40186 13.5194C7.40186 7.94931 12.0161 3.43408 17.7074 3.43408C23.399 3.43425 28.0132 7.94948 28.0132 13.5194Z" fill="white"/>
</mask>
<g mask="url(#mask0_277_99649)">
<path d="M18.9356 18.2363H16.9082V19.4165H18.9356V18.2363Z" fill="#F8BB94"/>
<path d="M18.192 19.2585C17.7669 19.126 17.4108 18.8652 17.357 18.4082C17.3499 18.3454 17.3576 18.2885 17.3741 18.2361H16.9082V19.4163H18.9356V19.2684C18.6864 19.3294 18.4264 19.3316 18.192 19.2585Z" fill="#DADADA"/>
<path d="M22.9949 14.4534C22.9949 14.9411 22.5768 15.3368 22.0605 15.3368C21.5441 15.3368 21.1255 14.9413 21.1255 14.4534C21.1255 13.9657 21.5441 13.5698 22.0605 13.5698C22.5768 13.5698 22.9949 13.9657 22.9949 14.4534Z" fill="#F8BB94"/>
<path d="M22.1807 13.962C22.1807 13.962 22.2032 13.9584 22.243 13.9598C22.2834 13.9615 22.3419 13.9671 22.4089 13.9919C22.4752 14.0158 22.5534 14.0616 22.6073 14.141C22.6211 14.1608 22.6307 14.183 22.6424 14.2048C22.651 14.2276 22.6574 14.2515 22.6642 14.2754L22.6722 14.349C22.6722 14.3731 22.6702 14.397 22.6691 14.4216C22.666 14.4668 22.6532 14.5153 22.6393 14.5592C22.626 14.6034 22.6047 14.6446 22.5819 14.6832C22.536 14.76 22.471 14.8203 22.4066 14.8534C22.3761 14.8726 22.3433 14.8809 22.3171 14.8902C22.288 14.8958 22.2643 14.9011 22.243 14.9018C22.203 14.903 22.1807 14.9021 22.1807 14.9021C22.1807 14.9021 22.2014 14.8937 22.2379 14.8791C22.2562 14.8724 22.2756 14.8594 22.2985 14.8483C22.3197 14.8329 22.3452 14.8195 22.3672 14.7979C22.3908 14.7785 22.4129 14.7534 22.4333 14.7264C22.4546 14.6997 22.4719 14.6676 22.4887 14.6342C22.5047 14.6005 22.5162 14.5638 22.5281 14.5262C22.5387 14.4871 22.5478 14.4504 22.5494 14.4084L22.5539 14.3509L22.5497 14.2954C22.545 14.2779 22.5414 14.2602 22.5372 14.2428C22.5304 14.2267 22.5255 14.2096 22.5164 14.1948C22.4841 14.1333 22.4311 14.0863 22.3787 14.0525C22.3252 14.0189 22.2752 13.997 22.2389 13.9827C22.2027 13.9685 22.1807 13.962 22.1807 13.962Z" fill="#DADADA"/>
<path d="M22.301 14.4965C22.301 14.5907 22.2332 14.6676 22.15 14.6676C22.0661 14.6676 21.9985 14.5907 21.9985 14.4965C21.9985 14.4017 22.0662 14.3252 22.15 14.3252C22.2334 14.3252 22.301 14.4017 22.301 14.4965Z" fill="#DADADA"/>
<path d="M12.9746 14.4534C12.9746 14.9411 13.3929 15.3368 13.9089 15.3368C14.4253 15.3368 14.8434 14.9413 14.8434 14.4534C14.8434 13.9657 14.4253 13.5698 13.9089 13.5698C13.3929 13.5698 12.9746 13.9657 12.9746 14.4534Z" fill="#F8BB94"/>
<path d="M13.7882 13.962C13.7882 13.962 13.7654 13.9584 13.7252 13.9598C13.6849 13.9615 13.6275 13.9671 13.56 13.9919C13.4939 14.0158 13.4157 14.0616 13.3609 14.141C13.3481 14.1608 13.3384 14.183 13.3263 14.2048C13.3181 14.2276 13.3111 14.2515 13.3049 14.2754L13.2974 14.349C13.2974 14.3731 13.2995 14.397 13.3002 14.4216C13.3031 14.4668 13.3155 14.5153 13.3291 14.5592C13.3429 14.6034 13.364 14.6446 13.3869 14.6832C13.4333 14.76 13.4986 14.8203 13.5621 14.8534C13.5924 14.8726 13.626 14.8809 13.6527 14.8902C13.6807 14.8958 13.705 14.9011 13.7254 14.9018C13.7664 14.903 13.7884 14.9021 13.7884 14.9021C13.7884 14.9021 13.768 14.8937 13.7315 14.8791C13.7134 14.8724 13.6937 14.8594 13.6705 14.8483C13.6495 14.8329 13.6233 14.8195 13.6019 14.7979C13.5787 14.7785 13.5565 14.7534 13.5361 14.7264C13.5143 14.6997 13.4977 14.6676 13.4813 14.6342C13.4642 14.6005 13.4523 14.5638 13.441 14.5262C13.4307 14.4871 13.4221 14.4504 13.4202 14.4084L13.416 14.3509L13.4199 14.2954C13.4244 14.2779 13.4282 14.2602 13.4319 14.2428C13.4396 14.2267 13.4439 14.2096 13.4523 14.1948C13.4851 14.1333 13.5389 14.0863 13.5911 14.0525C13.6436 14.0189 13.6944 13.997 13.7307 13.9827C13.7663 13.9685 13.7882 13.962 13.7882 13.962Z" fill="#DADADA"/>
<path d="M13.667 14.4965C13.667 14.5907 13.7349 14.6676 13.8186 14.6676C13.902 14.6676 13.9696 14.5907 13.9696 14.4965C13.9696 14.4017 13.9019 14.3252 13.8186 14.3252C13.7347 14.3252 13.667 14.4017 13.667 14.4965Z" fill="#DADADA"/>
<path d="M22.061 13.2832C22.061 16.2841 20.6222 18.3911 17.921 18.3911C15.2201 18.3911 13.7808 16.2841 13.7808 13.2832C13.7808 10.2825 15.2745 7.84985 17.9758 7.84985C20.6766 7.84968 22.061 10.2823 22.061 13.2832Z" fill="#F8BB94"/>
<path d="M16.9488 19.3704C16.9488 19.3704 14.3773 19.7029 13.4528 20.4857C12.511 21.2835 12.2323 21.9733 11.8931 23.5492H17.8808H17.9621H23.9501C23.6108 21.9731 23.3323 21.2834 22.3902 20.4857C21.466 19.7029 18.8945 19.3704 18.8945 19.3704H16.9488Z" fill="#F8BB94"/>
<path d="M16.1716 19.5C16.1716 19.5 14.3773 19.703 13.4528 20.4858C12.511 21.2837 12.2323 21.9734 11.8931 23.5493H17.8808H17.9621H23.9501C23.6108 21.9733 23.337 21.2781 22.3902 20.4858C21.6089 19.8326 19.8534 19.5362 19.8534 19.5362L18.8945 19.3704H16.9488L16.1716 19.5Z" fill="white"/>
<path d="M17.4401 20.9007C17.4401 20.9007 17.4497 20.8864 17.4741 20.8667C17.463 20.8777 17.4514 20.8886 17.4401 20.9007L17.1089 23.5472H18.7349L18.4039 20.9007L18.6276 19.9915C18.7101 19.8554 18.7349 19.6978 18.6499 19.5605C18.5723 19.4358 18.4665 19.3711 18.3466 19.3392C18.1566 19.288 17.931 19.3182 17.7284 19.3182C17.5273 19.3182 17.3837 19.3359 17.2509 19.4907C17.1178 19.6461 17.1089 19.8131 17.2169 19.9917L17.4401 20.9007Z" fill="#E74645"/>
<path d="M17.4014 20.7584C17.4014 20.7584 18.0753 20.4502 18.3995 20.8995C18.3995 20.8995 17.9455 20.6467 17.4363 20.8995L17.4014 20.7584Z" fill="#C6C6C6"/>
<path d="M16.1716 19.4976C16.1716 19.4976 14.3773 19.7006 13.4528 20.4834C12.511 21.2813 12.2323 21.971 11.8931 23.5469H17.8808H17.9621H23.9501C23.6108 21.9709 23.337 21.2756 22.3902 20.4834C21.6089 19.8302 19.8534 19.5338 19.8534 19.5338L17.9217 23.4388L16.1716 19.4976Z" fill="#0D3953"/>
<path d="M16.194 19.5255L17.9203 23.4399L16.0854 22.2797L16.4983 21.5858L14.4458 19.927C14.4458 19.927 15.6099 19.4858 16.194 19.5255Z" fill="#031D2D"/>
<path d="M19.8533 19.5358L17.9219 23.4408L19.7566 22.2806L19.3437 21.5867L21.3968 19.9279C21.3968 19.9279 20.4381 19.4962 19.8533 19.5358Z" fill="#031D2D"/>
<path d="M15.8101 19.5332L17.3626 20.5925L17.233 20.0628L15.8101 19.5332Z" fill="#B2B2B2"/>
<path d="M20.1793 19.5505L18.4775 20.6124L18.626 19.9954L20.1793 19.5505Z" fill="#B2B2B2"/>
<path d="M16.9066 19.0212L15.8101 19.5339L17.1075 20.2923L18.0149 19.3122L16.9066 19.0212Z" fill="white"/>
<path d="M16.8906 19.3981C17.052 19.2545 17.2415 19.1579 17.4644 19.1676L16.9066 19.0212L15.8101 19.5339L16.7894 20.106C16.6667 19.8748 16.6718 19.5918 16.8906 19.3981Z" fill="#DADADA"/>
<path d="M19.1044 19.0212L20.2006 19.5339L18.9037 20.2923L17.9961 19.3122L19.1044 19.0212Z" fill="white"/>
<path d="M19.1205 19.3981C18.9591 19.2545 18.7699 19.1579 18.5469 19.1676L19.1044 19.0212L20.2007 19.5339L19.2219 20.106C19.3438 19.8748 19.3388 19.5918 19.1205 19.3981Z" fill="#DADADA"/>
<path d="M13.7943 14.0155L14.2131 14.4262L14.2941 11.1214C14.2941 11.1214 14.3217 9.40552 16.1838 9.40552C16.1838 9.40552 17.713 10.1834 19.6589 9.54026C19.6589 9.54026 21.4004 9.27232 21.605 11.041L21.5906 14.4923L22.0363 13.9549L22.0613 13.5061C22.0613 13.5061 22.3257 12.0499 22.0613 9.91084C22.0613 9.91084 21.7107 7.54308 19.524 7.14091C19.524 7.14091 15.9528 6.24162 14.447 8.44186C14.447 8.44186 13.2979 9.75475 13.6013 11.8088L13.7943 14.0155Z" fill="#956000"/>
</g>
<path d="M45.2068 41.9606C50.8915 41.6832 55.2702 36.9484 54.9867 31.3851C54.7033 25.8219 49.8651 21.5368 44.1804 21.8142C38.4956 22.0915 34.117 26.8263 34.4004 32.3896C34.6839 37.9529 39.522 42.238 45.2068 41.9606Z" fill="#1DB2A8"/>
<mask id="mask1_277_99649" style="mask-type:luminance" maskUnits="userSpaceOnUse" x="34" y="21" width="21" height="21">
<path d="M45.2068 41.9606C50.8915 41.6832 55.2702 36.9484 54.9867 31.3851C54.7033 25.8219 49.8651 21.5368 44.1804 21.8142C38.4956 22.0915 34.117 26.8263 34.4004 32.3896C34.6839 37.9529 39.522 42.238 45.2068 41.9606Z" fill="white"/>
</mask>
<g mask="url(#mask1_277_99649)">
<path d="M45.7046 36.6589H43.6772V37.8386H45.7046V36.6589Z" fill="#F8BB94"/>
<path d="M43.7936 37.54C44.0324 37.3058 44.3409 37.1738 44.6792 37.1492C44.9684 37.1277 45.4631 37.1885 45.6174 36.8932C45.6413 36.8466 45.671 36.8116 45.7046 36.7846V36.6589H43.6772V37.6779C43.7116 37.6299 43.7488 37.5833 43.7936 37.54Z" fill="#C6C6C6"/>
<path d="M49.7666 32.8756C49.7666 33.3632 49.3478 33.7592 48.8321 33.7592C48.3159 33.7592 47.8975 33.3633 47.8975 32.8756C47.8975 32.388 48.3159 31.9922 48.8321 31.9922C49.3478 31.9922 49.7666 32.388 49.7666 32.8756Z" fill="#F8BB94"/>
<path d="M48.9523 32.384C48.9523 32.384 48.975 32.3805 49.0151 32.3819C49.0556 32.3835 49.1136 32.3891 49.1807 32.414C49.2467 32.4378 49.3247 32.4835 49.3797 32.5633C49.3929 32.5826 49.4029 32.6053 49.4146 32.627C49.4228 32.6497 49.4299 32.6736 49.436 32.6972L49.4435 32.7708C49.4439 32.795 49.4416 32.8189 49.4411 32.8435C49.4376 32.8889 49.4251 32.9371 49.4113 32.9812C49.3977 33.0256 49.3762 33.0669 49.3537 33.1053C49.3073 33.1822 49.2429 33.2424 49.1783 33.2757C49.1478 33.2947 49.115 33.3031 49.0881 33.3119C49.06 33.3176 49.0352 33.323 49.0155 33.3239C48.9745 33.3249 48.9521 33.3242 48.9521 33.3242C48.9521 33.3242 48.9734 33.3159 49.0097 33.3012C49.0272 33.2944 49.0469 33.2814 49.0706 33.2704C49.0917 33.2552 49.1169 33.2414 49.1389 33.2201C49.1621 33.2003 49.1846 33.1755 49.205 33.1487C49.2259 33.1215 49.2434 33.0894 49.26 33.0561C49.276 33.0228 49.2886 32.9858 49.2998 32.948C49.3104 32.9093 49.319 32.8725 49.3209 32.8305L49.3256 32.773L49.321 32.7175C49.3167 32.7001 49.3128 32.6823 49.3092 32.6651C49.3017 32.6488 49.2973 32.6314 49.2888 32.6166C49.256 32.5554 49.2027 32.5085 49.1499 32.4745C49.0968 32.441 49.0464 32.4191 49.0106 32.4048C48.9747 32.3905 48.9523 32.384 48.9523 32.384Z" fill="#DADADA"/>
<path d="M49.073 32.9184C49.073 33.0129 49.0051 33.0894 48.9218 33.0894C48.8382 33.0894 48.77 33.0129 48.77 32.9184C48.77 32.8242 48.8382 32.7473 48.9218 32.7473C49.0053 32.7473 49.073 32.8242 49.073 32.9184Z" fill="#DADADA"/>
<path d="M39.7441 32.8756C39.7441 33.3632 40.1622 33.7592 40.6784 33.7592C41.1943 33.7592 41.6129 33.3633 41.6129 32.8756C41.6129 32.388 41.1944 31.9922 40.6784 31.9922C40.1622 31.9922 39.7441 32.388 39.7441 32.8756Z" fill="#F8BB94"/>
<path d="M40.5575 32.384C40.5575 32.384 40.5351 32.3805 40.495 32.3819C40.4545 32.3835 40.3964 32.3891 40.3294 32.414C40.2632 32.4378 40.1852 32.4835 40.1303 32.5633C40.117 32.5826 40.1074 32.6053 40.0955 32.627C40.0872 32.6497 40.0804 32.6736 40.0739 32.6972L40.0664 32.7708C40.0664 32.795 40.0683 32.8189 40.0697 32.8435C40.0729 32.8889 40.0847 32.9371 40.0985 32.9812C40.1123 33.0256 40.1341 33.0669 40.1563 33.1053C40.2029 33.1822 40.2674 33.2424 40.3318 33.2757C40.3622 33.2947 40.3957 33.3031 40.4219 33.3119C40.4507 33.3176 40.4746 33.323 40.4952 33.3239C40.5353 33.3249 40.5576 33.3242 40.5576 33.3242C40.5576 33.3242 40.5365 33.3159 40.5 33.3012C40.4822 33.2944 40.4629 33.2814 40.4393 33.2704C40.4189 33.2552 40.3933 33.2414 40.3711 33.2201C40.3477 33.2003 40.3264 33.1755 40.3051 33.1487C40.2844 33.1215 40.266 33.0894 40.25 33.0561C40.2338 33.0228 40.2215 32.9858 40.2102 32.948C40.1997 32.9093 40.1912 32.8725 40.1889 32.8305L40.1847 32.773L40.1884 32.7175C40.1936 32.7001 40.1973 32.6823 40.2009 32.6651C40.2081 32.6488 40.213 32.6314 40.2214 32.6166C40.2542 32.5554 40.3076 32.5085 40.3604 32.4745C40.4126 32.441 40.4637 32.4191 40.4993 32.4048C40.5356 32.3905 40.5575 32.384 40.5575 32.384Z" fill="#DADADA"/>
<path d="M40.439 32.9184C40.439 33.0129 40.5065 33.0894 40.5899 33.0894C40.6738 33.0894 40.7414 33.0129 40.7414 32.9184C40.7414 32.8242 40.6738 32.7473 40.5899 32.7473C40.5063 32.7473 40.439 32.8242 40.439 32.9184Z" fill="#DADADA"/>
<path d="M48.8321 31.7099C48.8321 34.7109 47.3933 36.8179 44.6922 36.8179C41.9909 36.8179 40.5522 34.7109 40.5522 31.7099C40.5522 28.7093 42.0458 26.2766 44.7468 26.2766C47.4483 26.2764 48.8321 28.7091 48.8321 31.7099Z" fill="#F8BB94"/>
<path d="M43.718 37.7891C43.718 37.7891 41.1467 38.1219 40.2222 38.9047C39.2804 39.7027 39.0017 40.3921 38.6621 41.9684H44.6506H44.7319H50.7196C50.3802 40.3921 50.1019 39.7026 49.1596 38.9047C48.2356 38.1219 45.6641 37.7891 45.6641 37.7891H43.718Z" fill="#F8BB94"/>
<path d="M46.6593 37.9637C46.6593 37.9637 48.2354 38.1227 49.1594 38.9055C50.1017 39.7035 50.3801 40.3929 50.7195 41.9692H44.7317H44.6504H38.6621C39.0017 40.3929 39.2804 39.7034 40.2222 38.9055C41.1467 38.1227 42.7289 37.9622 42.7289 37.9622C42.7289 37.9622 42.3862 40.1141 44.7773 40.0961C44.7773 40.0961 46.7521 40.1716 46.6593 37.9637Z" fill="#1A7290"/>
<path d="M43.0553 37.9014C43.0628 37.9372 43.0641 37.9748 43.0578 38.0134C43.0562 38.026 42.9471 38.794 43.3961 39.3002C43.6816 39.6214 44.1484 39.7828 44.7791 39.7773C44.784 39.777 44.7889 39.7773 44.7943 39.7775C44.7985 39.7775 45.4652 39.7916 45.9101 39.3512C46.2174 39.0471 46.3603 38.5078 46.3346 37.9014L46.9936 38.0151C47.0138 38.7814 46.8047 39.3849 46.3713 39.8099C45.7828 40.387 44.9819 40.4204 44.8035 40.4204C44.777 40.4204 44.7667 40.4203 44.752 40.4204C43.9322 40.4204 43.308 40.1837 42.896 39.7168C42.3573 39.1058 42.3722 38.2962 42.3971 38.0149L43.0553 37.9014Z" fill="#054153"/>
<path d="M40.4381 30.057L40.5872 32.5059L40.9531 32.6071C40.6313 28.6541 42.7595 27.7493 42.7595 27.7493L43.355 25.2748C41.5363 25.2323 40.7405 26.6871 40.7405 26.6871C40.7405 26.6871 40.0673 27.3557 40.4381 30.057Z" fill="#732400"/>
<path d="M40.458 30.3766C40.458 30.3766 40.3884 30.0676 40.3271 29.6023C40.2948 29.3697 40.2643 29.098 40.2388 28.8065C40.2276 28.6606 40.2111 28.5103 40.2032 28.357C40.1987 28.2803 40.194 28.2031 40.1892 28.1258L40.1858 28.0675L40.1852 28.0604L40.1851 28.039L40.1854 28.0245L40.1863 27.9953L40.1898 27.8783C40.1899 27.8035 40.2051 27.7168 40.2193 27.6319C40.2304 27.5455 40.2515 27.4656 40.2742 27.3874C40.2854 27.3481 40.2952 27.3085 40.3076 27.2699L40.3531 27.158C40.3812 27.083 40.4152 27.012 40.452 26.944C40.4861 26.8745 40.5225 26.8083 40.565 26.7471C40.6039 26.6839 40.6459 26.6252 40.6892 26.5699C40.7714 26.4561 40.8614 26.3583 40.9483 26.2731C41.0326 26.1855 41.1185 26.1136 41.1956 26.0528C41.2717 25.9904 41.3432 25.9426 41.402 25.9039C41.5207 25.8273 41.5942 25.7937 41.5942 25.7937C41.5942 25.7937 41.3616 26.0167 41.0935 26.3911C41.0593 26.4373 41.026 26.487 40.9941 26.5396C40.9602 26.591 40.9255 26.644 40.8948 26.7012C40.8611 26.7567 40.8293 26.8151 40.8012 26.8764C40.7712 26.937 40.7395 26.9976 40.7147 27.0629C40.6861 27.1264 40.6602 27.1918 40.6407 27.2601C40.6178 27.3274 40.5965 27.3955 40.5812 27.4659C40.5623 27.5359 40.5458 27.6059 40.5391 27.6744C40.529 27.7429 40.5171 27.81 40.5178 27.8915L40.5114 28.0083L40.5098 28.0375L40.5091 28.052L40.5089 28.0537C40.5088 28.0266 40.5089 28.0472 40.5089 28.0418L40.5091 28.0453L40.5093 28.0527L40.5114 28.1109C40.5142 28.1886 40.517 28.2658 40.5196 28.3425C40.5262 28.4958 40.5243 28.6471 40.5269 28.7933C40.529 29.0859 40.5246 29.3591 40.5147 29.5936C40.4981 30.0627 40.458 30.3766 40.458 30.3766Z" fill="#511800"/>
<path d="M48.9141 30.538L48.7651 32.9873L48.3991 33.088C48.7703 27.8152 46.7619 27.7273 46.7619 27.7273L45.9971 25.7555C47.8161 25.7132 48.6115 27.1683 48.6115 27.1683C48.6115 27.1683 49.2852 27.8367 48.9141 30.538Z" fill="#732400"/>
<path d="M42.7888 27.7367C42.7888 27.7367 45.1143 26.8424 47.5109 28.0398L47.6936 26.231C47.6936 26.231 47.2249 22.6991 42.5136 23.8243C42.5136 23.8243 43.1017 24.0921 43.3556 24.3602C43.3556 24.3602 41.5422 24.2371 40.7412 25.8528C40.7412 25.8528 41.9673 25.452 42.953 25.7103C42.953 25.7103 41.4739 26.665 42.7888 27.7367Z" fill="#732400"/>
<path d="M47.6935 26.2307C47.6935 26.2307 47.6671 26.133 47.602 25.9711C47.5383 25.8091 47.434 25.583 47.2794 25.3333C47.2017 25.2085 47.107 25.0811 47.0033 24.9509C46.8963 24.8228 46.7724 24.6989 46.6388 24.5778C46.5009 24.4612 46.351 24.3501 46.1879 24.254C46.0257 24.1563 45.8516 24.0721 45.6692 24.0067C45.5788 23.9722 45.4881 23.9382 45.394 23.9137C45.3019 23.8838 45.2073 23.8626 45.1129 23.8433C44.9246 23.8047 44.7362 23.7717 44.551 23.7572C44.4589 23.7454 44.3676 23.7422 44.2777 23.7381C44.1879 23.7345 44.1001 23.7256 44.0141 23.7287C43.8422 23.7291 43.6788 23.7292 43.5277 23.739C43.3764 23.7436 43.2379 23.7569 43.1145 23.7664C42.9909 23.7752 42.8829 23.7854 42.7945 23.7967C42.6168 23.816 42.5137 23.8242 42.5137 23.8242C42.5137 23.8242 42.6098 23.7897 42.781 23.7342C42.8665 23.7057 42.9707 23.6727 43.0934 23.6452C43.215 23.6146 43.3527 23.5783 43.5064 23.5555C43.583 23.5427 43.6626 23.5269 43.7458 23.5152C43.8296 23.5067 43.9162 23.4978 44.0052 23.4889C44.0942 23.4777 44.1865 23.478 44.2809 23.4732C44.3753 23.4671 44.472 23.4691 44.5704 23.4748C44.6688 23.4789 44.7693 23.4813 44.8705 23.4949C44.9719 23.5055 45.0749 23.5154 45.1768 23.5392C45.2796 23.5581 45.3827 23.5795 45.4844 23.6102C45.5874 23.6355 45.6882 23.6701 45.7884 23.7072C45.9879 23.783 46.1795 23.88 46.3573 23.9917C46.5377 24.1001 46.6929 24.2383 46.8379 24.373C47.1204 24.6529 47.3199 24.966 47.446 25.2481C47.5741 25.5302 47.6357 25.7797 47.665 25.9544C47.6947 26.1294 47.6935 26.2307 47.6935 26.2307Z" fill="#511800"/>
</g>
<path d="M37.4336 27.9518C37.4336 33.5221 32.8198 38.0375 27.1278 38.0375C21.4363 38.0375 16.8223 33.5221 16.8223 27.9518C16.8223 22.3821 21.4362 17.8667 27.1278 17.8667C32.8198 17.8667 37.4336 22.3821 37.4336 27.9518Z" fill="#F9B233"/>
<mask id="mask2_277_99649" style="mask-type:luminance" maskUnits="userSpaceOnUse" x="16" y="17" width="22" height="22">
<path d="M37.4336 27.9518C37.4336 33.5221 32.8198 38.0375 27.1278 38.0375C21.4363 38.0375 16.8223 33.5221 16.8223 27.9518C16.8223 22.3821 21.4362 17.8667 27.1278 17.8667C32.8198 17.8667 37.4336 22.3821 37.4336 27.9518Z" fill="white"/>
</mask>
<g mask="url(#mask2_277_99649)">
<path d="M28.1423 32.7244H26.1147V33.9041H28.1423V32.7244Z" fill="#F8BB94"/>
<path d="M26.2306 33.605C26.47 33.3711 26.7784 33.2391 27.1167 33.2141C27.4057 33.1931 27.9008 33.2538 28.0549 32.9583C28.079 32.912 28.1088 32.8769 28.1423 32.8499V32.7244H26.1147V33.7432C26.1495 33.6952 26.1866 33.6484 26.2306 33.605Z" fill="#C6C6C6"/>
<path d="M32.2036 28.9375C32.2036 29.4249 31.7855 29.8206 31.2692 29.8206C30.7528 29.8206 30.334 29.4251 30.334 28.9375C30.334 28.4496 30.7528 28.054 31.2692 28.054C31.7855 28.054 32.2036 28.4495 32.2036 28.9375Z" fill="#F8BB94"/>
<path d="M31.3893 28.4495C31.3893 28.4495 31.4118 28.4462 31.4516 28.4476C31.4919 28.4491 31.5506 28.4549 31.6174 28.4797C31.6837 28.5034 31.7623 28.5492 31.8165 28.6291C31.8303 28.6483 31.8397 28.671 31.8511 28.6927C31.8596 28.7154 31.8664 28.7389 31.8725 28.763L31.8809 28.8364C31.8809 28.8609 31.8781 28.8846 31.8776 28.909C31.8745 28.9546 31.8619 29.0028 31.8481 29.0467C31.8347 29.0912 31.8132 29.1327 31.7905 29.1708C31.7441 29.2477 31.6797 29.3078 31.615 29.3413C31.5846 29.3602 31.5523 29.3684 31.5249 29.3775C31.4968 29.3833 31.4727 29.3887 31.4515 29.3894C31.4115 29.3904 31.3892 29.3898 31.3892 29.3898C31.3892 29.3898 31.4099 29.381 31.4462 29.3667C31.464 29.36 31.4843 29.3471 31.5071 29.336C31.5282 29.3208 31.5535 29.3068 31.5757 29.2854C31.5993 29.2659 31.6213 29.241 31.6418 29.2142C31.6631 29.1872 31.6802 29.1549 31.6966 29.1216C31.713 29.0883 31.7256 29.0515 31.7366 29.0135C31.7472 28.9749 31.7556 28.9381 31.7579 28.896L31.7623 28.8385L31.7588 28.783C31.7534 28.7656 31.7504 28.7478 31.7462 28.7306C31.7394 28.7143 31.7335 28.6969 31.7254 28.6821C31.6926 28.6208 31.6396 28.574 31.5872 28.5402C31.5337 28.5065 31.483 28.4847 31.4474 28.4703C31.4115 28.456 31.3893 28.4495 31.3893 28.4495Z" fill="#DADADA"/>
<path d="M31.5103 28.9843C31.5103 29.0787 31.4424 29.1556 31.3592 29.1556C31.2756 29.1556 31.2075 29.0787 31.2075 28.9843C31.2075 28.8898 31.2756 28.813 31.3592 28.813C31.4424 28.813 31.5103 28.8898 31.5103 28.9843Z" fill="#DADADA"/>
<path d="M22.1831 28.9375C22.1831 29.4249 22.6017 29.8206 23.1176 29.8206C23.6338 29.8206 24.0522 29.4251 24.0522 28.9375C24.0522 28.4496 23.6338 28.054 23.1176 28.054C22.6017 28.054 22.1831 28.4495 22.1831 28.9375Z" fill="#F8BB94"/>
<path d="M22.9967 28.4495C22.9967 28.4495 22.9741 28.4462 22.9337 28.4476C22.8936 28.4491 22.8358 28.4549 22.7683 28.4797C22.7024 28.5034 22.6243 28.5492 22.5699 28.6291C22.5559 28.6483 22.5467 28.671 22.5352 28.6927C22.5266 28.7154 22.52 28.7389 22.5132 28.763L22.5059 28.8364C22.5059 28.8609 22.5074 28.8846 22.5085 28.909C22.5121 28.9546 22.5245 29.0028 22.5378 29.0467C22.5514 29.0912 22.573 29.1327 22.5954 29.1708C22.6418 29.2477 22.7067 29.3078 22.7709 29.3413C22.8013 29.3602 22.8341 29.3684 22.8612 29.3775C22.8894 29.3833 22.9137 29.3887 22.9339 29.3894C22.9746 29.3904 22.9969 29.3898 22.9969 29.3898C22.9969 29.3898 22.9761 29.381 22.9395 29.3667C22.9219 29.36 22.9022 29.3471 22.8784 29.336C22.8578 29.3208 22.8322 29.3068 22.8102 29.2854C22.787 29.2659 22.7648 29.241 22.7444 29.2142C22.7231 29.1872 22.7057 29.1549 22.6896 29.1216C22.673 29.0883 22.6606 29.0515 22.6491 29.0135C22.639 28.9749 22.6303 28.9381 22.6291 28.896L22.6245 28.8385L22.6282 28.783C22.6327 28.7656 22.6364 28.7478 22.6401 28.7306C22.6479 28.7143 22.6523 28.6969 22.6606 28.6821C22.6935 28.6208 22.747 28.574 22.7994 28.5402C22.8524 28.5065 22.903 28.4847 22.939 28.4703C22.9746 28.456 22.9967 28.4495 22.9967 28.4495Z" fill="#DADADA"/>
<path d="M22.876 28.9843C22.876 29.0787 22.9442 29.1556 23.0274 29.1556C23.1112 29.1556 23.1789 29.0787 23.1789 28.9843C23.1789 28.8898 23.1112 28.813 23.0274 28.813C22.9442 28.813 22.876 28.8898 22.876 28.9843Z" fill="#DADADA"/>
<path d="M31.2695 27.7757C31.2695 30.7767 29.8305 32.8837 27.1292 32.8837C24.4284 32.8837 22.9893 30.7767 22.9893 27.7757C22.9893 24.775 24.483 22.342 27.1845 22.342C29.8858 22.3419 31.2695 24.7749 31.2695 27.7757Z" fill="#F8BB94"/>
<path d="M26.1552 33.8547C26.1552 33.8547 23.5837 34.1874 22.6595 34.9702C21.7177 35.7679 21.439 36.4578 21.0996 38.034H27.0875H27.1689H33.1568C32.8176 36.4578 32.539 35.7677 31.5971 34.9702C30.6724 34.1874 28.1009 33.8547 28.1009 33.8547H26.1552Z" fill="#F8BB94"/>
<path d="M25.1666 34.0278C25.1666 34.0278 23.5837 34.1882 22.6595 34.971C21.7177 35.7687 21.439 36.4586 21.0996 38.0348H27.0875H27.1689H33.1568C32.8176 36.4586 32.539 35.7685 31.5971 34.971C30.6724 34.1882 29.0963 34.0292 29.0963 34.0292L27.128 35.9451L25.1666 34.0278Z" fill="#373C47"/>
<path d="M22.8748 26.1229L23.0243 28.5718L23.3903 28.6729C23.0685 24.72 25.1965 23.8149 25.1965 23.8149L25.792 21.3403C23.9731 21.2981 23.1779 22.7529 23.1779 22.7529C23.1779 22.7529 22.5047 23.4215 22.8748 26.1229Z" fill="#432918"/>
<path d="M22.8956 26.4416C22.8956 26.4416 22.8204 26.1329 22.7553 25.6679C22.7209 25.4353 22.6886 25.1637 22.6619 24.8724C22.6502 24.7266 22.633 24.5763 22.6249 24.4229C22.6202 24.3464 22.6155 24.2692 22.6108 24.1915L22.6073 24.1335L22.6068 24.1261L22.6064 24.1036L22.607 24.0891L22.6078 24.0599L22.6112 23.9431C22.6113 23.8686 22.6267 23.7808 22.641 23.6951C22.6523 23.6078 22.6738 23.5274 22.6968 23.4489C22.7082 23.4092 22.7178 23.3694 22.7305 23.3308L22.7766 23.2185C22.8052 23.1432 22.8398 23.072 22.8769 23.0036C22.9113 22.934 22.9481 22.8674 22.9912 22.8062C23.0307 22.743 23.0732 22.6843 23.117 22.6288C23.2005 22.5151 23.2914 22.4174 23.3793 22.3327C23.4647 22.2454 23.5512 22.1742 23.6294 22.1139C23.706 22.0521 23.7786 22.005 23.8381 21.9669C23.958 21.8916 24.0321 21.8591 24.0321 21.8591C24.0321 21.8591 23.8028 22.0866 23.539 22.4626C23.5053 22.5091 23.4725 22.5588 23.4411 22.6117C23.4078 22.6633 23.3736 22.7162 23.3432 22.7734C23.3102 22.8289 23.2788 22.8872 23.2514 22.9487C23.2219 23.0091 23.1903 23.0697 23.1661 23.1345C23.138 23.1978 23.1125 23.2629 23.0933 23.3308C23.071 23.398 23.0499 23.4656 23.0349 23.5354C23.0164 23.6049 22.9998 23.6744 22.9935 23.7421C22.9835 23.8097 22.9717 23.8758 22.9724 23.9578L22.9659 24.0746L22.9644 24.1036L22.9637 24.1181L22.9635 24.12C22.9635 24.1239 22.9633 24.0922 22.9635 24.1065L22.9637 24.1101L22.9638 24.1173L22.9659 24.1755C22.9685 24.253 22.9712 24.3304 22.9738 24.4071C22.9802 24.5602 22.9773 24.7117 22.9795 24.8579C22.9806 25.1504 22.9743 25.4238 22.9621 25.6585C22.9411 26.1274 22.8956 26.4416 22.8956 26.4416Z" fill="#2A1807"/>
<path d="M24.9512 23.9614C24.9512 23.9614 26.2296 26.1201 30.3338 26.0087C30.3338 26.0087 29.5659 25.1209 29.9484 24.6984C29.9484 24.6984 25.9739 22.8488 24.9512 23.9614Z" fill="#C6C6C6"/>
<path d="M31.3514 26.6032L31.2019 29.0526L30.8363 29.1535C31.1579 25.2005 29.0293 24.2961 29.0293 24.2961L28.4346 21.8212C30.2533 21.7787 31.0486 23.2335 31.0486 23.2335C31.0486 23.2335 31.7219 23.9023 31.3514 26.6032Z" fill="#432918"/>
<path d="M24.2788 21.7054C24.2788 21.7054 24.8693 20.5293 26.9868 20.2077C26.9868 20.2077 30.5116 19.7926 31.6354 22.1863C31.6354 22.1863 32.2039 23.3385 31.9985 25.3659C31.9985 25.3659 31.7858 24.4536 31.2077 24.1505C31.2077 24.1505 31.1108 25.2291 29.5893 24.5658C29.5893 24.5658 29.3475 25.008 29.8785 25.7947C29.8785 25.7947 24.9517 25.7945 24.2788 21.7054Z" fill="#432918"/>
<path d="M24.2788 21.7051C24.2788 21.7051 24.3252 21.5787 24.4645 21.3873C24.5359 21.2936 24.6257 21.1795 24.7472 21.0659C24.8048 21.0055 24.8751 20.9517 24.9451 20.8886C25.0191 20.8318 25.0978 20.7713 25.1836 20.7145C25.356 20.6021 25.5499 20.4856 25.7694 20.3951C25.9858 20.2971 26.2238 20.2144 26.4748 20.1499C26.5992 20.1115 26.7295 20.093 26.8597 20.0635L26.958 20.0432L27.0679 20.0302C27.1358 20.0237 27.2035 20.0196 27.2716 20.016C27.5433 20.0022 27.819 20.0035 28.0943 20.0204C28.3695 20.0408 28.6437 20.0766 28.9112 20.1292C29.1789 20.1799 29.4372 20.2578 29.6813 20.3471C29.9259 20.4361 30.1528 20.548 30.3573 20.6701C30.5643 20.7889 30.7407 20.9312 30.8936 21.0693C31.0466 21.2082 31.1695 21.3523 31.2667 21.4864C31.3649 21.6197 31.4382 21.7437 31.4898 21.8492C31.5471 21.9519 31.5766 22.0395 31.6001 22.0972C31.6228 22.1549 31.635 22.1858 31.635 22.1858C31.635 22.1858 31.6169 22.158 31.5823 22.1057C31.5485 22.0535 31.4996 21.977 31.4284 21.886C31.3614 21.7927 31.2693 21.687 31.1597 21.5726C31.1037 21.5162 31.045 21.4558 30.9759 21.3998C30.9105 21.34 30.837 21.2826 30.7594 21.2246C30.6016 21.1117 30.4248 20.9979 30.2249 20.9004C30.0256 20.8019 29.8067 20.7165 29.5754 20.6412C29.344 20.5661 29.0969 20.5124 28.8445 20.4648C28.5919 20.4189 28.3311 20.3895 28.0694 20.3734C27.8082 20.3533 27.5447 20.3482 27.2873 20.3572C27.2232 20.3605 27.1595 20.3637 27.096 20.3668L27.0105 20.3724L26.9168 20.3874C26.7929 20.4098 26.6676 20.4212 26.5495 20.4522C26.3109 20.5051 26.0807 20.5623 25.8706 20.6391C25.8179 20.6579 25.7659 20.6767 25.7146 20.695C25.6647 20.7162 25.6157 20.7372 25.5672 20.758C25.4682 20.7956 25.3796 20.8448 25.2913 20.8873C25.119 20.9795 24.9653 21.0731 24.837 21.168C24.7074 21.2613 24.6029 21.3537 24.5188 21.4327C24.4374 21.5138 24.3741 21.5801 24.336 21.6289C24.2966 21.6768 24.2788 21.7051 24.2788 21.7051Z" fill="#2A1807"/>
</g>
<path d="M21.1112 31.8869C21.1112 37.4568 16.4975 41.9722 10.8052 41.9722C5.11389 41.9722 0.5 37.457 0.5 31.8869C0.5 26.3174 5.11371 21.8013 10.8052 21.8013C16.4973 21.8013 21.1112 26.3174 21.1112 31.8869Z" fill="#6EBEBF"/>
<mask id="mask3_277_99649" style="mask-type:luminance" maskUnits="userSpaceOnUse" x="0" y="21" width="22" height="21">
<path d="M21.1112 31.8869C21.1112 37.4568 16.4975 41.9722 10.8052 41.9722C5.11389 41.9722 0.5 37.457 0.5 31.8869C0.5 26.3174 5.11371 21.8013 10.8052 21.8013C16.4973 21.8013 21.1112 26.3174 21.1112 31.8869Z" fill="white"/>
</mask>
<g mask="url(#mask3_277_99649)">
<path d="M15.4683 33.1061C15.4683 33.1061 14.1349 37.5165 11.7793 37.7935V36.7883C11.7793 36.7883 14.1939 32.3827 15.4683 33.1061Z" fill="#432918"/>
<path d="M11.8189 36.6599H9.79199V37.8401H11.8189V36.6599Z" fill="#F8BB94"/>
<path d="M9.90751 37.5409C10.1475 37.3068 10.4556 37.1748 10.7936 37.1502C11.0833 37.1287 11.5777 37.1896 11.7321 36.8942C11.7555 36.8479 11.7862 36.8126 11.8189 36.7858V36.6599H9.79199V37.6793C9.82619 37.6311 9.86354 37.5843 9.90751 37.5409Z" fill="#C6C6C6"/>
<path d="M15.8792 32.8763C15.8792 33.3639 15.4607 33.7596 14.9444 33.7596C14.4284 33.7596 14.0103 33.3639 14.0103 32.8763C14.0103 32.3886 14.4284 31.9929 14.9444 31.9929C15.4607 31.9929 15.8792 32.3884 15.8792 32.8763Z" fill="#F8BB94"/>
<path d="M15.0671 32.3842C15.0671 32.3842 15.0898 32.3808 15.1299 32.3822C15.17 32.384 15.228 32.3893 15.2948 32.4143C15.3615 32.4385 15.4395 32.4841 15.4944 32.5639C15.5072 32.583 15.5171 32.6055 15.5281 32.6272C15.5372 32.6501 15.5438 32.6738 15.5504 32.6977L15.5579 32.7713C15.5588 32.7953 15.5564 32.8195 15.5546 32.8438C15.5517 32.8895 15.5393 32.9377 15.5257 32.9812C15.5124 33.026 15.4908 33.0671 15.4684 33.1055C15.4213 33.1822 15.3571 33.2427 15.2929 33.2758C15.2625 33.2953 15.2294 33.3031 15.2027 33.3124C15.1739 33.3176 15.1501 33.3236 15.1297 33.3243C15.0887 33.325 15.0669 33.3243 15.0669 33.3243C15.0669 33.3243 15.0877 33.3159 15.1238 33.3013C15.1418 33.2944 15.1616 33.2814 15.1849 33.2705C15.2053 33.2553 15.2308 33.2415 15.2534 33.2201C15.2761 33.2007 15.2983 33.1757 15.3192 33.1488C15.34 33.1219 15.3574 33.0895 15.374 33.0565C15.3911 33.0232 15.4028 32.9862 15.414 32.9481C15.4252 32.9093 15.4332 32.8726 15.4353 32.8309L15.4398 32.7731L15.4356 32.7174C15.4309 32.7 15.4274 32.6819 15.4232 32.665C15.4159 32.6487 15.4115 32.6318 15.403 32.6165C15.37 32.5555 15.3166 32.5085 15.2639 32.4744C15.2114 32.4409 15.1608 32.419 15.1248 32.4047C15.0889 32.3907 15.0671 32.3842 15.0671 32.3842Z" fill="#DADADA"/>
<path d="M15.1857 32.9187C15.1857 33.0134 15.1184 33.09 15.0342 33.09C14.9507 33.09 14.8833 33.0134 14.8833 32.9187C14.8833 32.8245 14.9507 32.7478 15.0342 32.7478C15.1184 32.7478 15.1857 32.8245 15.1857 32.9187Z" fill="#DADADA"/>
<path d="M5.8584 32.8763C5.8584 33.3639 6.27669 33.7596 6.79269 33.7596C7.30905 33.7596 7.72716 33.3639 7.72716 32.8763C7.72716 32.3886 7.30905 31.9929 6.79269 31.9929C6.27669 31.9929 5.8584 32.3884 5.8584 32.8763Z" fill="#F8BB94"/>
<path d="M6.6729 32.3842C6.6729 32.3842 6.6497 32.3808 6.60956 32.3822C6.56942 32.384 6.51149 32.3893 6.44465 32.4143C6.37817 32.4385 6.29999 32.4841 6.24554 32.5639C6.23228 32.583 6.22216 32.6055 6.21047 32.6272C6.20244 32.6501 6.19546 32.6738 6.18918 32.6977L6.18115 32.7713C6.18115 32.7953 6.18272 32.8195 6.18412 32.8438C6.18778 32.8895 6.19982 32.9377 6.21379 32.9812C6.22705 33.026 6.24886 33.0671 6.27155 33.1055C6.31796 33.1822 6.38236 33.2427 6.4471 33.2758C6.47746 33.2953 6.50974 33.3031 6.53662 33.3124C6.56524 33.3176 6.58967 33.3236 6.60973 33.3243C6.65022 33.325 6.67308 33.3243 6.67308 33.3243C6.67308 33.3243 6.65162 33.3159 6.61532 33.3013C6.59734 33.2944 6.57745 33.2814 6.55459 33.2705C6.5333 33.2553 6.50817 33.2415 6.48636 33.2201C6.46263 33.2007 6.44081 33.1757 6.42022 33.1488C6.39893 33.1219 6.38131 33.0895 6.36491 33.0565C6.34833 33.0232 6.33646 32.9862 6.32512 32.9481C6.31413 32.9093 6.30575 32.8726 6.30418 32.8309L6.29964 32.7731L6.30331 32.7174C6.30872 32.7 6.31221 32.6819 6.31604 32.665C6.32337 32.6487 6.32756 32.6318 6.33664 32.6165C6.36909 32.5555 6.42284 32.5085 6.47502 32.4744C6.52789 32.4409 6.5785 32.419 6.6141 32.4047C6.65022 32.3907 6.6729 32.3842 6.6729 32.3842Z" fill="#DADADA"/>
<path d="M6.55078 32.9187C6.55078 33.0134 6.61901 33.09 6.70277 33.09C6.78619 33.09 6.85424 33.0134 6.85424 32.9187C6.85424 32.8245 6.78601 32.7478 6.70277 32.7478C6.61901 32.7478 6.55078 32.8245 6.55078 32.9187Z" fill="#DADADA"/>
<path d="M14.9446 31.711C14.9446 34.7116 13.5065 36.8188 10.8048 36.8188C8.10365 36.8188 6.66504 34.7116 6.66504 31.711C6.66504 28.71 8.15897 26.2773 10.8599 26.2773C13.5609 26.2772 14.9446 28.7098 14.9446 31.711Z" fill="#F8BB94"/>
<path d="M9.83241 37.7932C9.83241 37.7932 7.26144 38.1259 6.33727 38.9085C5.39495 39.7065 5.11609 40.396 4.77686 41.9722H10.7651H10.8461H16.8342C16.4951 40.396 16.2165 39.7064 15.2741 38.9085C14.3498 38.1259 11.7788 37.7932 11.7788 37.7932H9.83241Z" fill="#F8BB94"/>
<path d="M11.7779 37.7932C11.7779 37.7932 13.1031 37.9645 14.1925 38.3506C14.1925 38.3506 13.5489 39.8758 14.1925 41.9724H7.55176C7.55176 41.9724 8.00983 40.6928 7.72713 38.2482C8.74257 37.9341 9.83183 37.7932 9.83183 37.7932L10.7646 39.5674L11.7779 37.7932Z" fill="#E74645"/>
<path d="M15.0976 32.004C13.7019 31.67 13.0247 29.9725 13.0247 29.9725C12.9474 30.4011 13.0701 30.7944 13.0701 30.7944C10.5555 29.6509 9.01267 27.8289 9.01267 27.8289C7.72762 26.2763 9.79183 25.2566 9.79183 25.2566C13.1023 24.1133 14.526 26.2765 14.526 26.2765C14.526 26.2765 16.8779 28.3577 15.7203 32.3809C15.7201 32.3805 15.5569 32.1135 15.0976 32.004Z" fill="#432918"/>
<path d="M9.39336 26.179C9.39336 26.179 6.42679 26.278 5.85825 30.8673C5.85825 30.8673 5.03878 39.2634 8.88747 40.6926C8.88747 40.6926 8.63479 38.3164 9.7914 37.7983V36.7096C9.7914 36.7096 6.98625 36.2267 7.02272 32.6359C7.02272 32.6359 7.04087 28.4917 9.19512 27.7057L9.39336 26.179Z" fill="#432918"/>
<path d="M15.2579 33.7254C15.2579 33.8943 15.1176 34.031 14.945 34.031C14.7726 34.031 14.6333 33.8943 14.6333 33.7254C14.6333 33.5566 14.7726 33.4197 14.945 33.4197C15.1176 33.4197 15.2579 33.5565 15.2579 33.7254Z" fill="white"/>
</g>
<path d="M36.8547 23.6046C42.5465 23.6046 47.1606 19.0891 47.1606 13.5191C47.1606 7.94902 42.5465 3.43359 36.8547 3.43359C31.1629 3.43359 26.5488 7.94902 26.5488 13.5191C26.5488 19.0891 31.1629 23.6046 36.8547 23.6046Z" fill="#F08046"/>
<mask id="mask4_277_99649" style="mask-type:luminance" maskUnits="userSpaceOnUse" x="26" y="3" width="22" height="21">
<path d="M36.8547 23.6046C42.5465 23.6046 47.1606 19.0891 47.1606 13.5191C47.1606 7.94902 42.5465 3.43359 36.8547 3.43359C31.1629 3.43359 26.5488 7.94902 26.5488 13.5191C26.5488 19.0891 31.1629 23.6046 36.8547 23.6046Z" fill="white"/>
</mask>
<g mask="url(#mask4_277_99649)">
<path d="M37.8685 18.2913H35.8413V19.4715H37.8685V18.2913Z" fill="#F8BB94"/>
<path d="M35.9574 19.1724C36.1964 18.9381 36.5046 18.8061 36.843 18.7815C37.1326 18.7602 37.6272 18.821 37.7811 18.5256C37.8053 18.4793 37.8354 18.4441 37.8685 18.4171V18.2913H35.8413V19.3106C35.8753 19.2626 35.9132 19.2157 35.9574 19.1724Z" fill="#C6C6C6"/>
<path d="M41.9283 14.5082C41.9283 14.9957 41.5102 15.3914 40.994 15.3914C40.478 15.3914 40.0596 14.9959 40.0596 14.5082C40.0596 14.0204 40.478 13.6248 40.994 13.6248C41.5101 13.6248 41.9283 14.0204 41.9283 14.5082Z" fill="#F8BB94"/>
<path d="M41.1139 14.0163C41.1139 14.0163 41.1363 14.0129 41.1766 14.0142C41.2165 14.0161 41.2748 14.0216 41.3417 14.0463C41.4083 14.0706 41.487 14.1162 41.5406 14.1959C41.5542 14.2152 41.5642 14.2376 41.5755 14.2593C41.5839 14.2822 41.5907 14.3057 41.5977 14.3298L41.6052 14.4034C41.6052 14.4275 41.6033 14.4516 41.602 14.4758C41.5989 14.5216 41.5862 14.5698 41.5725 14.6133C41.5593 14.6581 41.5376 14.6992 41.5148 14.7378C41.4684 14.8143 41.404 14.8749 41.3396 14.9079C41.3092 14.9274 41.2762 14.9352 41.2497 14.9444C41.2207 14.9499 41.1967 14.9555 41.1771 14.9564C41.1361 14.9571 41.1138 14.9564 41.1138 14.9564C41.1138 14.9564 41.1344 14.948 41.171 14.9333C41.1888 14.9267 41.2085 14.9135 41.2317 14.9026C41.2527 14.8874 41.2781 14.8736 41.3 14.8522C41.3237 14.8328 41.3455 14.808 41.3659 14.7808C41.3872 14.754 41.405 14.7216 41.4211 14.6886C41.4373 14.6553 41.4499 14.6183 41.461 14.5802C41.4717 14.5416 41.4802 14.5047 41.4821 14.463L41.487 14.4051L41.4827 14.3495C41.4776 14.3319 41.4746 14.3139 41.4705 14.297C41.4633 14.2808 41.4588 14.2639 41.4497 14.2485C41.4169 14.1877 41.364 14.1406 41.3115 14.1066C41.2583 14.073 41.2076 14.0511 41.1719 14.0368C41.1363 14.0228 41.1139 14.0163 41.1139 14.0163Z" fill="#DADADA"/>
<path d="M41.2351 14.5503C41.2351 14.6451 41.1669 14.7216 41.0833 14.7216C40.9997 14.7216 40.9316 14.6451 40.9316 14.5503C40.9316 14.4561 40.9999 14.3794 41.0833 14.3794C41.167 14.3794 41.2351 14.4562 41.2351 14.5503Z" fill="#DADADA"/>
<path d="M31.9077 14.5082C31.9077 14.9957 32.3258 15.3914 32.842 15.3914C33.3584 15.3914 33.7765 14.9959 33.7765 14.5082C33.7765 14.0204 33.3584 13.6248 32.842 13.6248C32.3258 13.6248 31.9077 14.0204 31.9077 14.5082Z" fill="#F8BB94"/>
<path d="M32.7213 14.0163C32.7213 14.0163 32.6987 14.0129 32.6585 14.0142C32.6186 14.0161 32.5603 14.0216 32.4934 14.0463C32.427 14.0706 32.349 14.1162 32.2943 14.1959C32.2812 14.2152 32.2713 14.2376 32.2591 14.2593C32.2514 14.2822 32.2444 14.3057 32.2381 14.3298L32.2305 14.4034C32.2305 14.4275 32.232 14.4516 32.2334 14.4758C32.2366 14.5216 32.2488 14.5698 32.2628 14.6133C32.276 14.6581 32.298 14.6992 32.3202 14.7378C32.3671 14.8143 32.432 14.8749 32.4954 14.9079C32.5261 14.9274 32.5591 14.9352 32.5858 14.9444C32.6142 14.9499 32.6385 14.9555 32.6587 14.9564C32.6997 14.9571 32.7215 14.9564 32.7215 14.9564C32.7215 14.9564 32.7006 14.948 32.6643 14.9333C32.6461 14.9267 32.6268 14.9135 32.6036 14.9026C32.5828 14.8874 32.5571 14.8736 32.5353 14.8522C32.5112 14.8328 32.49 14.808 32.4692 14.7808C32.4482 14.754 32.4303 14.7216 32.4142 14.6886C32.3973 14.6553 32.3854 14.6183 32.3741 14.5802C32.3638 14.5416 32.3552 14.5047 32.3535 14.463L32.3491 14.4051L32.3528 14.3495C32.358 14.3319 32.3608 14.3139 32.365 14.297C32.3723 14.2808 32.3765 14.2639 32.3854 14.2485C32.4181 14.1877 32.472 14.1406 32.5242 14.1066C32.5767 14.073 32.6275 14.0511 32.6634 14.0368C32.6995 14.0228 32.7213 14.0163 32.7213 14.0163Z" fill="#DADADA"/>
<path d="M32.6006 14.5503C32.6006 14.6451 32.6686 14.7216 32.7521 14.7216C32.8358 14.7216 32.9034 14.6451 32.9034 14.5503C32.9034 14.4561 32.8358 14.3794 32.7521 14.3794C32.6685 14.3794 32.6006 14.4562 32.6006 14.5503Z" fill="#DADADA"/>
<path d="M40.9939 13.3465C40.9939 16.3471 39.5544 18.4543 36.8542 18.4543C34.1528 18.4543 32.7139 16.3471 32.7139 13.3465C32.7139 10.3455 34.2073 7.91284 36.9084 7.91284C39.6104 7.91284 40.9939 10.3455 40.9939 13.3465Z" fill="#F8BB94"/>
<path d="M35.8821 19.425C35.8821 19.425 33.3104 19.7579 32.3861 20.5404C31.4439 21.3384 31.1658 22.0278 30.8262 23.6042H36.8141H36.8954H42.8834C42.5439 22.0278 42.2653 21.3384 41.3236 20.5404C40.3989 19.7579 37.8278 19.425 37.8278 19.425H35.8821Z" fill="#F8BB94"/>
<path d="M34.5146 19.6793C34.5146 19.6793 34.7921 19.5642 33.7766 19.8781C34.056 22.3512 33.6011 23.6025 33.6011 23.6025H40.2418C39.5984 21.5057 40.2418 19.9807 40.2418 19.9807C39.6277 19.7631 39.6277 19.7631 39.6277 19.7631C39.6277 19.7631 39.571 22.7751 36.8135 22.5659C36.8135 22.5659 34.424 22.7952 34.5146 19.6793Z" fill="#00B1C3"/>
<path d="M35.4435 7.81104C35.4435 7.81104 32.4767 7.91008 31.9089 12.4994C31.9089 12.4994 31.3555 16.2796 33.2276 19.503C33.2276 19.503 34.4786 19.3136 35.8417 19.4304V18.3417C35.8417 18.3417 33.0369 17.8588 33.0734 14.2679C33.0734 14.2679 33.0917 10.1236 35.2449 9.33774L35.4435 7.81104Z" fill="#732400"/>
<path d="M38.2667 7.81106C38.2667 7.81106 41.6304 7.76 42.1984 12.3495C42.1984 12.3495 42.4902 15.4198 40.4827 19.503C40.4827 19.503 39.2308 19.3136 37.8687 19.4304V18.3417C37.8687 18.3417 40.6729 17.8588 40.6372 14.268C40.6372 14.268 40.6192 10.1237 38.4648 9.33776L38.2667 7.81106Z" fill="#732400"/>
<path d="M34.2511 8.97059C34.2511 8.97059 36.1633 11.9533 40.1483 11.6679L40.9324 13.6219L41.7093 13.9373C41.7093 13.9373 42.8832 13.6219 41.6623 8.97059C41.6623 8.97059 40.4003 5.56983 35.8409 6.58234C35.8409 6.58234 33.5695 6.98826 34.2511 8.97059Z" fill="#732400"/>
</g>
<path d="M37.4338 45.5593C37.4338 51.1289 32.8198 55.6444 27.1281 55.6444C21.4367 55.6444 16.8223 51.129 16.8223 45.5593C16.8223 39.9894 21.4365 35.4736 27.1281 35.4736C32.8198 35.4738 37.4338 39.9894 37.4338 45.5593Z" fill="#E74645"/>
<mask id="mask5_277_99649" style="mask-type:luminance" maskUnits="userSpaceOnUse" x="16" y="35" width="22" height="21">
<path d="M37.4338 45.5593C37.4338 51.1289 32.8198 55.6444 27.1281 55.6444C21.4367 55.6444 16.8223 51.129 16.8223 45.5593C16.8223 39.9894 21.4365 35.4736 27.1281 35.4736C32.8198 35.4738 37.4338 39.9894 37.4338 45.5593Z" fill="white"/>
</mask>
<g mask="url(#mask5_277_99649)">
<path d="M28.1414 50.3345H26.1147V51.5149H28.1414V50.3345Z" fill="#F8BB94"/>
<path d="M26.2304 51.2158C26.4695 50.9814 26.7779 50.8494 27.1166 50.8249C27.4057 50.8036 27.9003 50.8642 28.0542 50.5688C28.0784 50.5223 28.1083 50.4875 28.1414 50.4603V50.3345H26.1147V51.354C26.1489 51.3058 26.1861 51.2592 26.2304 51.2158Z" fill="#C6C6C6"/>
<path d="M32.2041 46.5483C32.2041 47.0358 31.7858 47.4315 31.2696 47.4315C30.7533 47.4315 30.3345 47.036 30.3345 46.5483C30.3345 46.0604 30.7533 45.665 31.2696 45.665C31.7858 45.665 32.2041 46.0605 32.2041 46.5483Z" fill="#F8BB94"/>
<path d="M31.3903 46.0567C31.3903 46.0567 31.4126 46.0533 31.4528 46.0545C31.4927 46.0562 31.551 46.0618 31.6179 46.0862C31.6847 46.1105 31.7627 46.1561 31.8168 46.2358C31.8304 46.2551 31.8404 46.2775 31.8517 46.2992C31.8599 46.3221 31.8669 46.346 31.8732 46.3697L31.8812 46.4433C31.8812 46.4676 31.8793 46.4915 31.8782 46.5161C31.8751 46.5615 31.8622 46.6096 31.8487 46.6532C31.8353 46.6981 31.8135 46.7391 31.791 46.7777C31.7446 46.8542 31.68 46.9148 31.6156 46.9478C31.5851 46.9672 31.5523 46.9751 31.5259 46.9843C31.4968 46.9898 31.4734 46.9956 31.4526 46.9963C31.4125 46.9969 31.3901 46.9964 31.3901 46.9964C31.3901 46.9964 31.4106 46.9881 31.4469 46.9732C31.465 46.9667 31.4847 46.9534 31.5078 46.9425C31.5289 46.9273 31.5542 46.9138 31.5762 46.8921C31.5999 46.8726 31.6217 46.8479 31.6421 46.8207C31.6634 46.7939 31.681 46.7618 31.6973 46.7285C31.714 46.6952 31.7259 46.6581 31.7372 46.6202C31.7473 46.5816 31.7562 46.5446 31.7582 46.5031L31.7627 46.4452L31.759 46.3895C31.7538 46.3719 31.751 46.3543 31.7467 46.3371C31.7393 46.3209 31.7346 46.3039 31.7261 46.2889C31.6933 46.2278 31.6402 46.1807 31.5877 46.1467C31.5343 46.1134 31.4837 46.0913 31.4481 46.077C31.4125 46.0632 31.3903 46.0567 31.3903 46.0567Z" fill="#DADADA"/>
<path d="M31.5104 46.5905C31.5104 46.6849 31.4431 46.7614 31.3595 46.7614C31.2762 46.7614 31.208 46.6849 31.208 46.5905C31.208 46.4959 31.2762 46.4192 31.3595 46.4192C31.4431 46.4192 31.5104 46.496 31.5104 46.5905Z" fill="#DADADA"/>
<path d="M22.1836 46.5483C22.1836 47.0358 22.6017 47.4315 23.1177 47.4315C23.6341 47.4315 24.0522 47.036 24.0522 46.5483C24.0522 46.0604 23.6341 45.665 23.1177 45.665C22.6015 45.665 22.1836 46.0605 22.1836 46.5483Z" fill="#F8BB94"/>
<path d="M22.9969 46.0567C22.9969 46.0567 22.9742 46.0533 22.9341 46.0545C22.8941 46.0562 22.8358 46.0618 22.769 46.0862C22.7024 46.1105 22.6245 46.1561 22.5697 46.2358C22.5565 46.2551 22.5469 46.2775 22.5355 46.2992C22.527 46.3221 22.5203 46.346 22.5135 46.3697L22.5059 46.4433C22.5059 46.4676 22.5076 46.4915 22.5092 46.5161C22.5121 46.5615 22.5249 46.6096 22.5381 46.6532C22.5514 46.6981 22.5736 46.7391 22.5959 46.7777C22.6423 46.8542 22.7071 46.9148 22.7713 46.9478C22.8013 46.9672 22.8345 46.9751 22.8613 46.9843C22.8898 46.9898 22.914 46.9956 22.9343 46.9963C22.9746 46.9969 22.9971 46.9964 22.9971 46.9964C22.9971 46.9964 22.976 46.9881 22.9399 46.9732C22.9222 46.9667 22.902 46.9534 22.8789 46.9425C22.8582 46.9273 22.8325 46.9138 22.8107 46.8921C22.7873 46.8726 22.7655 46.8479 22.7448 46.8207C22.7236 46.7939 22.7064 46.7618 22.6896 46.7285C22.6729 46.6952 22.661 46.6581 22.6495 46.6202C22.6388 46.5816 22.6306 46.5446 22.6291 46.5031L22.6247 46.4452L22.6282 46.3895C22.6332 46.3719 22.6366 46.3543 22.6404 46.3371C22.6479 46.3209 22.6524 46.3039 22.6612 46.2889C22.694 46.2278 22.7474 46.1807 22.7997 46.1467C22.8524 46.1134 22.903 46.0913 22.939 46.077C22.9749 46.0632 22.9969 46.0567 22.9969 46.0567Z" fill="#DADADA"/>
<path d="M22.8765 46.5905C22.8765 46.6849 22.9447 46.7614 23.0281 46.7614C23.1117 46.7614 23.1791 46.6849 23.1791 46.5905C23.1791 46.4959 23.1117 46.4192 23.0281 46.4192C22.9447 46.4192 22.8765 46.496 22.8765 46.5905Z" fill="#DADADA"/>
<path d="M31.2695 45.3817C31.2695 48.3827 29.831 50.4899 27.1292 50.4899C24.428 50.4899 22.9893 48.3827 22.9893 45.3817C22.9893 42.3809 24.4827 39.9482 27.184 39.9482C29.8853 39.9482 31.2695 42.3809 31.2695 45.3817Z" fill="#F8BB94"/>
<path d="M26.1555 51.4651C26.1555 51.4651 23.5837 51.7979 22.6597 52.5804C21.7177 53.3786 21.4385 54.0678 21.0996 55.6442H27.0875H27.1689H33.1568C32.8174 54.0678 32.5387 53.3784 31.5969 52.5804C30.6724 51.7979 28.1011 51.4651 28.1011 51.4651H26.1555Z" fill="#F8BB94"/>
<path d="M29.3486 51.6937C30.1393 51.873 31.1027 52.1624 31.5969 52.5803C32.5389 53.3785 32.8174 54.0677 33.1568 55.6441H27.1689H27.0875H21.0996C21.4385 54.0677 21.7177 53.3783 22.6597 52.5803C23.1675 52.1505 24.1723 51.8562 24.9743 51.6785L27.1282 53.9504L29.3486 51.6937Z" fill="#881719"/>
<path d="M25.7173 39.8511C25.7173 39.8511 22.7506 39.95 22.1826 44.5393C22.1826 44.5393 22.0718 48.4814 22.0718 53.1435C22.0718 53.1435 22.7506 51.9787 26.1156 51.4704V50.3814C26.1156 50.3814 23.3101 49.8985 23.3465 46.3078C23.3465 46.3078 23.3654 42.1635 25.5189 41.3774L25.7173 39.8511Z" fill="#432918"/>
<path d="M28.5398 39.8513C28.5398 39.8513 31.9095 39.6852 32.4775 44.2745C32.4775 44.2745 32.5431 48.3474 32.2025 53.19C32.2025 53.19 31.268 51.8843 28.1416 51.4707V50.3817C28.1416 50.3817 30.9464 49.8987 30.9103 46.3081C30.9103 46.3081 30.8923 42.1638 28.7379 41.3777L28.5398 39.8513Z" fill="#432918"/>
<path d="M26.6692 44.2738L27.0877 42.218V44.2738H29.1674L29.5121 42.8266L29.8709 44.2738H32.478C32.478 42.8091 32.2029 41.6299 32.2029 41.6299C32.2029 41.6299 31.5089 38.432 26.615 38.7144C26.615 38.7144 22.4914 38.7144 22.1929 44.2739H26.6692V44.2738Z" fill="#432918"/>
</g>
<path d="M25.772 2.03808C25.772 2.8081 25.1344 3.43244 24.3472 3.43244C23.5603 3.43244 22.9224 2.8081 22.9224 2.03808C22.9224 1.26773 23.5603 0.643555 24.3472 0.643555C25.1344 0.643555 25.772 1.26773 25.772 2.03808Z" fill="#1DB2A8"/>
<path d="M28.1044 5.27012C28.1044 5.79713 27.6678 6.22457 27.1291 6.22457C26.5906 6.22457 26.1538 5.79713 26.1538 5.27012C26.1538 4.74278 26.5906 4.31567 27.1291 4.31567C27.6678 4.31567 28.1044 4.74278 28.1044 5.27012Z" fill="#E74645"/>
<path d="M31.7824 2.31371C31.7824 3.23605 31.0181 3.98386 30.0749 3.98386C29.1331 3.98386 28.3691 3.23605 28.3691 2.31371C28.3691 1.3912 29.1331 0.643555 30.0749 0.643555C31.0181 0.643555 31.7824 1.39103 31.7824 2.31371Z" fill="#F9B233"/>
<path d="M49.5787 18.77C50.2797 18.77 50.8479 19.3262 50.8479 20.0122C50.8479 20.6986 50.2795 21.2544 49.5787 21.2544C48.8776 21.2544 48.3096 20.6984 48.3096 20.0122C48.3096 19.3262 48.8776 18.77 49.5787 18.77Z" fill="#1DB2A8"/>
<path d="M52.5192 16.7339C52.9986 16.7339 53.3878 17.1145 53.3878 17.5842C53.3878 18.0536 52.9988 18.4343 52.5192 18.4343C52.0395 18.4343 51.6504 18.0536 51.6504 17.5842C51.6506 17.1147 52.0395 16.7339 52.5192 16.7339Z" fill="#E74645"/>
<path d="M49.8295 13.531C50.6694 13.531 51.3501 14.1974 51.3501 15.0191C51.3501 15.8405 50.6696 16.5062 49.8295 16.5062C48.9901 16.5062 48.3096 15.8405 48.3096 15.0191C48.3096 14.1974 48.9903 13.531 49.8295 13.531Z" fill="#F9B233"/>
<path d="M3.44399 19.6138C4.0654 19.9309 4.30604 20.6809 3.98234 21.2896C3.65828 21.8977 2.89169 22.1339 2.2701 21.8168C1.64835 21.4996 1.40735 20.7494 1.73158 20.1411C2.05581 19.5325 2.82206 19.2963 3.44399 19.6138Z" fill="#1DB2A8"/>
<path d="M7.00936 19.1396C7.4348 19.3567 7.60005 19.8703 7.37791 20.2865C7.15629 20.7029 6.63173 20.8642 6.20612 20.6472C5.78085 20.4301 5.61542 19.9168 5.83739 19.5005C6.05936 19.0841 6.58427 18.9227 7.00936 19.1396Z" fill="#E74645"/>
<path d="M6.1418 15.0839C6.88606 15.4636 7.17469 16.3623 6.78642 17.0912C6.39815 17.8197 5.48026 18.1018 4.736 17.722C3.99139 17.342 3.70223 16.444 4.09051 15.7154C4.47843 14.9868 5.39667 14.704 6.1418 15.0839Z" fill="#F9B233"/>
<path d="M13.3095 48.3505C13.922 48.0165 14.6945 48.2316 15.036 48.8309C15.3772 49.4303 15.1575 50.1866 14.5453 50.5208C13.9328 50.8549 13.1601 50.6393 12.8186 50.0403C12.4773 49.4409 12.6968 48.6845 13.3095 48.3505Z" fill="#1DB2A8"/>
<path d="M14.8641 45.1737C15.2829 44.945 15.8124 45.0922 16.0455 45.5027C16.2793 45.9126 16.1289 46.43 15.7098 46.6589C15.2909 46.8874 14.7611 46.7403 14.5282 46.3301C14.2944 45.9203 14.4448 45.4018 14.8641 45.1737Z" fill="#E74645"/>
<path d="M10.9216 43.6542C11.6547 43.2543 12.581 43.512 12.9897 44.2296C13.3982 44.9475 13.1349 45.8531 12.402 46.2532C11.6682 46.653 10.7429 46.3958 10.3339 45.6784C9.92487 44.9605 10.188 44.054 10.9216 43.6542Z" fill="#F9B233"/>
<path d="M40.5138 46.5991C40.8558 47.1984 40.6354 47.9544 40.0233 48.2888C39.4108 48.6224 38.6375 48.4074 38.2966 47.8084C37.9552 47.209 38.1751 46.4526 38.7869 46.1186C39.4 45.7847 40.1728 45.9992 40.5138 46.5991Z" fill="#1DB2A8"/>
<path d="M43.7601 48.1206C43.9939 48.5304 43.8432 49.0484 43.4237 49.2767C43.0047 49.5055 42.4763 49.3585 42.2424 48.9479C42.0088 48.5381 42.1592 48.02 42.5778 47.792C42.9972 47.5631 43.5268 47.7102 43.7601 48.1206Z" fill="#E74645"/>
<path d="M45.3117 44.2642C45.7207 44.9817 45.4574 45.8879 44.7238 46.288C43.99 46.6879 43.0647 46.4302 42.6561 45.7128C42.2472 44.9949 42.5104 44.0891 43.2436 43.6892C43.9764 43.2889 44.9031 43.5464 45.3117 44.2642Z" fill="#F9B233"/>
</svg>
