<svg width="40" height="52" viewBox="0 0 40 52" fill="none" xmlns="http://www.w3.org/2000/svg">
<mask id="mask0_277_99881" style="mask-type:alpha" maskUnits="userSpaceOnUse" x="0" y="0" width="40" height="5">
<rect y="0.599854" width="40" height="4.09789" rx="2.04895" fill="#F3B811"/>
</mask>
<g mask="url(#mask0_277_99881)">
<path d="M0 0.599854H14.8V15.967V23.1383H10.5221C7.47084 23.1383 4.58657 21.7452 2.68959 19.3554L0 15.967V0.599854Z" fill="#E52021"/>
<rect x="14.7998" y="0.599854" width="10.4" height="22.5384" fill="#F7F7F7"/>
<path d="M25.2002 0.599854H40.0002V15.967L37.3106 19.3554C35.4136 21.7452 32.5293 23.1383 29.4781 23.1383H25.2002V15.967V0.599854Z" fill="#268A42"/>
<rect y="0.599854" width="40" height="4.09789" rx="2.04895" fill="black" fill-opacity="0.05"/>
</g>
<path fill-rule="evenodd" clip-rule="evenodd" d="M14.7999 4.69897H4.3999V20.0661L5.5392 22.1086C5.99729 22.9299 6.56138 23.6702 7.20892 24.3163C7.52656 24.139 7.87431 24.0095 8.24387 23.9383L9.36348 23.7227C9.52858 23.691 9.68357 23.6185 9.81491 23.5115C9.94626 23.4046 10.05 23.2664 10.117 23.109L10.572 22.0421C11.272 20.4008 13.0761 19.5132 14.7692 19.9777L14.7999 19.9861V4.69897Z" fill="#E52021"/>
<path fill-rule="evenodd" clip-rule="evenodd" d="M25.1998 4.69897H14.7998V19.9861L15.8694 20.2796C16.0316 20.3242 16.202 20.3275 16.3658 20.2893C16.5296 20.2512 16.6817 20.1726 16.8089 20.0606L17.6721 19.3009C19 18.1324 21.0028 18.1324 22.3306 19.3009L23.1937 20.0606C23.3209 20.1726 23.473 20.2512 23.6368 20.2894C23.8006 20.3275 23.9711 20.3242 24.1333 20.2796L25.1998 19.987V4.69897Z" fill="#F7F7F7"/>
<path fill-rule="evenodd" clip-rule="evenodd" d="M35.6002 4.69897H25.2002V19.9869L25.2336 19.9777C26.9266 19.5131 28.7308 20.4008 29.4308 22.0421L29.8857 23.109C29.9527 23.2663 30.0564 23.4045 30.1878 23.5115C30.3191 23.6185 30.4741 23.691 30.6392 23.7227L31.7588 23.9383C32.1278 24.0094 32.4749 24.1386 32.7921 24.3153C33.4393 23.6695 34.003 22.9295 34.4609 22.1086L35.6002 20.0661V4.69897Z" fill="#268A42"/>
<path d="M19.7048 3.2666L20.1686 8.30914L22.0004 3.60474L21.0587 8.5769L24.11 4.59175L21.8392 9.09072L25.8628 6.14768L22.4467 9.80897L27.1166 8.14648L22.832 10.6735L27.77 10.4262L22.9641 11.6142L27.77 12.8022L22.832 12.5549L27.1166 15.0819L22.4467 13.4194L25.8628 17.0807L21.8392 14.1377L24.11 18.6366L21.0587 14.6515L22.0004 19.6236L20.1686 14.9192L19.7048 19.9618L19.2409 14.9192L17.4092 19.6236L18.3508 14.6515L15.2996 18.6366L17.5704 14.1377L13.5468 17.0807L16.9629 13.4194L12.293 15.0819L16.5776 12.5549L11.6396 12.8022L16.4455 11.6142L11.6396 10.4262L16.5776 10.6735L12.293 8.14648L16.9629 9.80897L13.5468 6.14768L17.5704 9.09072L15.2996 4.59175L18.3508 8.5769L17.4092 3.60474L19.2409 8.30914L19.7048 3.2666Z" fill="#F7B70F"/>
<path fill-rule="evenodd" clip-rule="evenodd" d="M34.5604 36.6092C34.4903 36.4796 34.4537 36.3351 34.4537 36.1884C34.4537 36.0417 34.4903 35.8973 34.5603 35.7677L35.0352 34.8886C35.7657 33.5361 35.3687 31.8314 34.1117 30.9235L33.2948 30.3334C33.1743 30.2464 33.0773 30.1319 33.0124 29.9997C32.9475 29.8676 32.9165 29.7219 32.9223 29.5753L32.9609 28.5813C33.0203 27.0522 31.908 25.6852 30.3735 25.4016L29.3762 25.2173C29.2291 25.1902 29.091 25.1282 28.974 25.0367C28.857 24.9453 28.7647 24.8271 28.705 24.6926L28.2997 23.7807C27.6762 22.3777 26.069 21.6189 24.5608 22.0161L23.5807 22.2742C23.4362 22.3123 23.2843 22.3151 23.1384 22.2825C22.9925 22.2498 22.857 22.1827 22.7436 22.0869L21.9748 21.4376C20.792 20.4388 19.0079 20.4388 17.825 21.4376L17.0561 22.0869C16.9428 22.1827 16.8073 22.2498 16.6614 22.2825C16.5155 22.3151 16.3637 22.3123 16.2192 22.2742L15.239 22.0161C13.7308 21.6191 12.1236 22.3777 11.5001 23.7807L11.0948 24.6927C11.0351 24.8272 10.9427 24.9453 10.8257 25.0368C10.7087 25.1282 10.5706 25.1902 10.4236 25.2173L9.4262 25.4016C7.89178 25.6852 6.77942 27.0522 6.83881 28.5813L6.8774 29.5753C6.88316 29.7219 6.85223 29.8676 6.78731 29.9997C6.72238 30.1319 6.62543 30.2464 6.50493 30.3334L5.68793 30.9235C4.43102 31.8315 4.03405 33.5361 4.76452 34.8887L5.23934 35.7677C5.30942 35.8973 5.34607 36.0418 5.34607 36.1885C5.34607 36.3351 5.30942 36.4796 5.23934 36.6092L4.76452 37.4883C4.03405 38.8407 4.43102 40.5454 5.68793 41.4534L6.50485 42.0435C6.62538 42.1305 6.72234 42.245 6.78727 42.3772C6.8522 42.5094 6.88311 42.6551 6.87732 42.8017L6.83873 43.7956C6.77934 45.3248 7.8917 46.6918 9.42613 46.9753L9.94909 47.072L9.94919 47.0718L10.4233 47.1594C10.5704 47.1865 10.7085 47.2485 10.8255 47.34C10.9425 47.4315 11.0349 47.5496 11.0946 47.6841L11.4999 48.596C12.1234 49.999 13.7306 50.7578 15.2388 50.3606L16.2189 50.1026C16.3634 50.0645 16.5153 50.0617 16.6612 50.0943C16.8071 50.1269 16.9426 50.1941 17.056 50.2899L17.8248 50.9391C17.8887 50.9928 17.9547 51.0439 18.0228 51.0924L18.0226 51.0927L18.0229 51.0925C18.5777 51.4895 19.2386 51.6885 19.8998 51.6885C20.5509 51.6885 21.2019 51.4959 21.7513 51.1111L21.7513 51.1109C21.8284 51.057 21.9029 50.9997 21.9747 50.9391L22.7436 50.2899C22.8569 50.1941 22.9924 50.1269 23.1383 50.0943C23.2842 50.0617 23.436 50.0645 23.5805 50.1026L24.5607 50.3606C24.8305 50.4316 25.1032 50.4656 25.3731 50.4656C26.612 50.4656 27.7876 49.748 28.2996 48.596L28.7049 47.6841C28.7646 47.5496 28.8569 47.4314 28.9739 47.34C29.0909 47.2485 29.229 47.1865 29.3761 47.1594L29.8176 47.0779L29.8178 47.0781L29.8178 47.078L30.3736 46.9753C31.908 46.6918 33.0204 45.3248 32.961 43.7955L32.9224 42.8016C32.9166 42.6551 32.9475 42.5093 33.0125 42.3772C33.0774 42.245 33.1743 42.1305 33.2948 42.0435L34.1118 41.4534C35.3688 40.5454 35.7658 38.8408 35.0352 37.4883L34.5604 36.6092Z" fill="#D5D5D5"/>
<ellipse cx="19.9002" cy="36.2674" rx="10.1346" ry="9.9324" fill="white"/>
<path d="M26.2857 35.455C26.6311 35.1253 26.7535 34.6415 26.6044 34.1918C26.4553 33.7421 26.0663 33.4211 25.5897 33.3528L22.5947 32.9259C22.5672 32.9219 22.5412 32.9115 22.5188 32.8955C22.4964 32.8795 22.4783 32.8584 22.4661 32.8341L21.1272 30.1749C20.9139 29.7514 20.4817 29.488 19.9997 29.488C19.5176 29.488 19.0854 29.7521 18.8721 30.1749L17.5332 32.8341C17.5211 32.8585 17.503 32.8797 17.4806 32.8957C17.4582 32.9117 17.4321 32.922 17.4047 32.9259L14.4111 33.3528C13.9338 33.4211 13.544 33.7421 13.3956 34.1918C13.2473 34.6415 13.369 35.1253 13.7143 35.455L15.8805 37.5244C15.9216 37.5633 15.9393 37.6189 15.9298 37.6732L15.4183 40.595C15.3776 40.8218 15.403 41.0552 15.4915 41.2684C15.5801 41.4817 15.7282 41.6661 15.9188 41.8006C16.1082 41.9366 16.3327 42.0176 16.5669 42.0343C16.801 42.051 17.0352 42.0028 17.2426 41.8951L19.9204 40.5153C19.945 40.5024 19.9725 40.4957 20.0004 40.4957C20.0283 40.4957 20.0557 40.5024 20.0804 40.5153L22.7581 41.8951C22.9655 42.0025 23.1995 42.0506 23.4335 42.0338C23.6674 42.0171 23.8919 41.9363 24.0812 41.8006C24.2719 41.6662 24.4201 41.4817 24.5086 41.2685C24.5971 41.0552 24.6225 40.8218 24.5817 40.595L24.0703 37.6732C24.0656 37.6463 24.0677 37.6188 24.0763 37.5929C24.0848 37.567 24.0997 37.5435 24.1195 37.5244L26.2857 35.455Z" fill="#F3B811"/>
</svg>
