<svg width="18" height="17" viewBox="0 0 18 17" fill="none" xmlns="http://www.w3.org/2000/svg">
<path opacity="0.5" d="M7.51286 15.5833C4.84157 15.5833 3.50592 15.5833 2.67606 14.7535C1.84619 13.9236 1.84619 13.2963 1.84619 10.625" stroke="#1C274C" stroke-linecap="round"/>
<path opacity="0.5" d="M16.0129 10.625C16.0129 13.2963 16.0129 13.9236 15.183 14.7535C14.3531 15.5833 13.0175 15.5833 10.3462 15.5833" stroke="#1C274C" stroke-linecap="round"/>
<path opacity="0.5" d="M10.3462 1.41675C13.0175 1.41675 14.3531 1.41675 15.183 2.24661C16.0129 3.07648 16.0129 3.70379 16.0129 6.37508" stroke="#1C274C" stroke-linecap="round"/>
<path opacity="0.5" d="M7.51286 1.41675C4.84157 1.41675 3.50592 1.41675 2.67606 2.24661C1.84619 3.07648 1.84619 3.70379 1.84619 6.37508" stroke="#1C274C" stroke-linecap="round"/>
<path d="M4.60333 9.95894C4.1819 9.4701 3.97119 9.22568 3.97119 8.49992C3.97119 7.77415 4.1819 7.52974 4.60333 7.0409C5.44479 6.06483 6.85601 4.95825 8.92952 4.95825C11.003 4.95825 12.4143 6.06483 13.2557 7.0409C13.6771 7.52973 13.8879 7.77415 13.8879 8.49992C13.8879 9.22568 13.6771 9.4701 13.2557 9.95894C12.4143 10.935 11.003 12.0416 8.92952 12.0416C6.85601 12.0416 5.44479 10.935 4.60333 9.95894Z" stroke="#1C274C"/>
<circle cx="8.92985" cy="8.49992" r="1.41667" stroke="#1C274C"/>
</svg>
