<svg width="46" height="45" viewBox="0 0 46 45" fill="none" xmlns="http://www.w3.org/2000/svg">
<path fill-rule="evenodd" clip-rule="evenodd" d="M4.25 22.5C4.25 31.3388 4.25 35.7583 6.99587 38.5041L39.0041 6.49587C36.2583 3.75 31.8388 3.75 23 3.75C14.1612 3.75 9.74175 3.75 6.99587 6.49587C4.25 9.24175 4.25 13.6612 4.25 22.5Z" fill="#1BC469"/>
<path d="M15.5 8.90625C16.2767 8.90625 16.9062 9.53585 16.9062 10.3125L16.9062 13.5938H20.1875C20.9642 13.5938 21.5938 14.2234 21.5938 15C21.5938 15.7767 20.9642 16.4063 20.1875 16.4063H16.9062L16.9062 19.6875C16.9062 20.4641 16.2766 21.0937 15.5 21.0937C14.7233 21.0937 14.0937 20.4641 14.0937 19.6875L14.0937 16.4063H10.8125C10.0358 16.4063 9.40625 15.7767 9.40625 15C9.40625 14.2234 10.0358 13.5938 10.8125 13.5938H14.0938V10.3125C14.0938 9.53585 14.7234 8.90625 15.5 8.90625Z" fill="white"/>
<path fill-rule="evenodd" clip-rule="evenodd" d="M22.9997 41.2497C14.1609 41.2497 9.74148 41.2497 6.99561 38.5039L39.0039 6.49561C41.7497 9.24148 41.7497 13.6609 41.7497 22.4997C41.7497 31.3386 41.7497 35.758 39.0039 38.5039C36.258 41.2497 31.8386 41.2497 22.9997 41.2497ZM34.2499 33.2812C35.0266 33.2812 35.6562 32.6516 35.6562 31.8749C35.6562 31.0983 35.0266 30.4687 34.2499 30.4687H24.8749C24.0983 30.4687 23.4687 31.0983 23.4687 31.8749C23.4687 32.6516 24.0983 33.2812 24.8749 33.2812H34.2499Z" fill="#ED1C24"/>
</svg>
