<svg width="40" height="52" viewBox="0 0 40 52" fill="none" xmlns="http://www.w3.org/2000/svg">
<mask id="mask0_277_99910" style="mask-type:alpha" maskUnits="userSpaceOnUse" x="0" y="0" width="40" height="5">
<rect y="0.429932" width="40" height="4.0979" rx="2.04895" fill="#F3B811"/>
</mask>
<g mask="url(#mask0_277_99910)">
<path d="M0 0.429932H14.8V15.797V22.9683H10.5221C7.47084 22.9683 4.58657 21.5753 2.68959 19.1854L0 15.797V0.429932Z" fill="#E52021"/>
<rect x="14.7998" y="0.429932" width="10.4" height="22.5384" fill="#F7F7F7"/>
<path d="M25.2002 0.429932H40.0002V15.797L37.3106 19.1854C35.4136 21.5753 32.5293 22.9683 29.4781 22.9683H25.2002V15.797V0.429932Z" fill="#268A42"/>
<rect y="0.429932" width="40" height="4.0979" rx="2.04895" fill="black" fill-opacity="0.05"/>
</g>
<path fill-rule="evenodd" clip-rule="evenodd" d="M14.7999 4.52905H4.3999V19.8962L5.5392 21.9387C5.99729 22.76 6.56138 23.5003 7.20893 24.1463C7.52656 23.9691 7.87431 23.8396 8.24387 23.7684L9.36348 23.5528C9.52858 23.5211 9.68357 23.4486 9.81491 23.3416C9.94626 23.2346 10.05 23.0965 10.117 22.9391L10.572 21.8722C11.272 20.2309 13.0761 19.3433 14.7692 19.8078L14.7999 19.8162V4.52905Z" fill="#E52021"/>
<path fill-rule="evenodd" clip-rule="evenodd" d="M25.1998 4.52905H14.7998V19.8162L15.8694 20.1097C16.0316 20.1543 16.202 20.1576 16.3658 20.1194C16.5296 20.0812 16.6817 20.0027 16.8089 19.8906L17.6721 19.131C19 17.9625 21.0028 17.9625 22.3306 19.131L23.1937 19.8906C23.3209 20.0027 23.473 20.0812 23.6368 20.1194C23.8006 20.1576 23.9711 20.1543 24.1333 20.1097L25.1998 19.8171V4.52905Z" fill="#F7F7F7"/>
<path fill-rule="evenodd" clip-rule="evenodd" d="M35.6002 4.52905H25.2002V19.8169L25.2336 19.8078C26.9266 19.3431 28.7308 20.2309 29.4308 21.8722L29.8857 22.939C29.9527 23.0964 30.0564 23.2346 30.1878 23.3416C30.3191 23.4486 30.4741 23.5211 30.6392 23.5528L31.7588 23.7684C32.1278 23.8395 32.4749 23.9687 32.7921 24.1454C33.4393 23.4996 34.003 22.7596 34.4609 21.9387L35.6002 19.8962V4.52905Z" fill="#268A42"/>
<path d="M19.7048 3.09668L20.1686 8.13922L22.0004 3.43482L21.0587 8.40698L24.11 4.42183L21.8392 8.92079L25.8628 5.97776L22.4467 9.63905L27.1166 7.97656L22.832 10.5036L27.77 10.2563L22.9641 11.4443L27.77 12.6323L22.832 12.385L27.1166 14.912L22.4467 13.2495L25.8628 16.9108L21.8392 13.9677L24.11 18.4667L21.0587 14.4816L22.0004 19.4537L20.1686 14.7493L19.7048 19.7919L19.2409 14.7493L17.4092 19.4537L18.3508 14.4816L15.2996 18.4667L17.5704 13.9677L13.5468 16.9108L16.9629 13.2495L12.293 14.912L16.5776 12.385L11.6396 12.6323L16.4455 11.4443L11.6396 10.2563L16.5776 10.5036L12.293 7.97656L16.9629 9.63905L13.5468 5.97776L17.5704 8.92079L15.2996 4.42183L18.3508 8.40698L17.4092 3.43482L19.2409 8.13922L19.7048 3.09668Z" fill="#F7B70F"/>
<path fill-rule="evenodd" clip-rule="evenodd" d="M35.3109 36.4097C35.2391 36.2769 35.2016 36.1289 35.2016 35.9787C35.2015 35.8284 35.2391 35.6804 35.3109 35.5476L35.7975 34.647C36.5462 33.2614 36.1394 31.515 34.8511 30.5849L34.0139 29.9803C33.8903 29.8912 33.791 29.7739 33.7244 29.6385C33.6579 29.5031 33.6261 29.3538 33.632 29.2037L33.6717 28.1854C33.7325 26.6188 32.5925 25.2183 31.0199 24.9278L29.9977 24.739C29.847 24.7112 29.7055 24.6477 29.5856 24.554C29.4656 24.4604 29.371 24.3393 29.3098 24.2015L28.8944 23.2673C28.2554 21.83 26.6082 21.0526 25.0625 21.4595L24.058 21.7239C23.9099 21.7629 23.7543 21.7658 23.6047 21.7324C23.4552 21.6989 23.3163 21.6302 23.2001 21.532L22.4121 20.8668C21.2 19.8436 19.3714 19.8436 18.1591 20.8668L17.3711 21.532C17.2549 21.6301 17.116 21.6989 16.9665 21.7324C16.817 21.7658 16.6614 21.7629 16.5133 21.7239L15.5087 21.4595C13.963 21.0527 12.3158 21.83 11.6768 23.2673L11.2614 24.2016C11.2002 24.3394 11.1055 24.4604 10.9856 24.5541C10.8657 24.6478 10.7242 24.7112 10.5734 24.739L9.55128 24.9278C7.97867 25.2183 6.83863 26.6188 6.8995 28.1854L6.93905 29.2037C6.94496 29.3538 6.91326 29.5031 6.84672 29.6385C6.78017 29.7739 6.68081 29.8912 6.55731 29.9803L5.71999 30.5849C4.43179 31.5151 4.02495 33.2615 4.77359 34.6471L5.26023 35.5477C5.33206 35.6804 5.36961 35.8284 5.36961 35.9787C5.36961 36.129 5.33206 36.2769 5.26023 36.4097L4.77359 37.3103C4.02495 38.6959 4.43179 40.4422 5.71999 41.3725L6.55723 41.977C6.68076 42.0661 6.78013 42.1835 6.84668 42.3189C6.91322 42.4543 6.94491 42.6036 6.93897 42.7538L6.89942 43.772C6.83855 45.3387 7.9786 46.7391 9.5512 47.0296L10.0872 47.1286L10.0873 47.1284L10.5732 47.2181C10.724 47.2459 10.8655 47.3095 10.9854 47.4032C11.1054 47.4969 11.2 47.6179 11.2612 47.7557L11.6766 48.6899C12.3156 50.1272 13.9628 50.9046 15.5085 50.4977L16.513 50.2334C16.6612 50.1943 16.8168 50.1914 16.9663 50.2249C17.1158 50.2583 17.2547 50.3271 17.3709 50.4252L18.1589 51.0904C18.2243 51.1453 18.292 51.1977 18.3618 51.2474L18.3616 51.2477L18.3619 51.2475C18.9305 51.6542 19.6079 51.8581 20.2855 51.8581C20.9529 51.8581 21.62 51.6608 22.1831 51.2665L22.183 51.2664C22.2621 51.2111 22.3385 51.1524 22.412 51.0904L23.2 50.4252C23.3162 50.3271 23.4551 50.2583 23.6046 50.2249C23.7541 50.1914 23.9097 50.1943 24.0578 50.2334L25.0624 50.4977C25.3389 50.5704 25.6184 50.6053 25.895 50.6053C27.1647 50.6052 28.3696 49.8701 28.8943 48.6899L29.3097 47.7556C29.3709 47.6178 29.4655 47.4968 29.5854 47.4031C29.7053 47.3094 29.8468 47.2459 29.9976 47.2181L30.4501 47.1346L30.4503 47.1348L30.4503 47.1347L31.02 47.0295C32.5926 46.7391 33.7326 45.3386 33.6718 43.7719L33.6321 42.7537C33.6262 42.6036 33.6579 42.4543 33.7245 42.3189C33.791 42.1835 33.8904 42.0661 34.0139 41.977L34.8512 41.3725C36.1395 40.4423 36.5463 38.6959 35.7976 37.3103L35.3109 36.4097Z" fill="#F3B811"/>
<ellipse cx="20.2853" cy="36.0627" rx="10.3868" ry="10.1755" fill="url(#paint0_linear_277_99910)"/>
<path d="M24.196 39.693H16.3753C15.9711 39.693 15.6422 40.0152 15.6422 40.4112C15.6422 40.8072 15.9711 41.1295 16.3753 41.1295H24.196C24.6002 41.1295 24.9292 40.8072 24.9292 40.4112C24.9292 40.0152 24.6002 39.693 24.196 39.693ZM26.3956 33.468C26.3956 33.9592 26.0143 34.3605 25.5275 34.4151L24.5861 39.2141H15.9853L15.0439 34.4151C14.557 34.3605 14.1758 33.9592 14.1758 33.468C14.1758 32.9398 14.6142 32.5103 15.1534 32.5103C15.6925 32.5103 16.1309 32.9398 16.1309 33.468C16.1309 33.8228 15.9305 34.1297 15.6368 34.2954C16.2018 35.6074 17.088 36.4124 17.9092 36.3396C18.8261 36.2663 19.574 35.2042 19.9865 33.4273C19.4577 33.296 19.0637 32.8292 19.0637 32.2708C19.0637 31.6105 19.6116 31.0737 20.2857 31.0737C20.9597 31.0737 21.5077 31.6105 21.5077 32.2708C21.5077 32.8292 21.1137 33.2961 20.5848 33.4273C20.9974 35.2042 21.7452 36.2663 22.6622 36.3396C23.4868 36.4124 24.3691 35.6074 24.9346 34.2954C24.6408 34.1297 24.4404 33.8228 24.4404 33.468C24.4404 32.9398 24.8789 32.5103 25.418 32.5103C25.9571 32.5103 26.3956 32.9398 26.3956 33.468Z" fill="#F3B811"/>
<defs>
<linearGradient id="paint0_linear_277_99910" x1="20.2669" y1="58.8256" x2="20.2669" y2="25.8872" gradientUnits="userSpaceOnUse">
<stop stop-color="#FFE59A"/>
<stop offset="1" stop-color="#FFFFD5"/>
</linearGradient>
</defs>
</svg>
