<svg width="80" height="82" viewBox="0 0 80 82" fill="none" xmlns="http://www.w3.org/2000/svg">
<rect y="0.644043" width="80" height="80" rx="7" fill="#1CA2ED"/>
<path d="M42.0132 15.5194C42.0132 21.0893 37.3992 25.6049 31.7074 25.6049C26.0163 25.6049 21.4019 21.0895 21.4019 15.5194C21.4019 9.94931 26.0161 5.43408 31.7074 5.43408C37.399 5.43425 42.0132 9.94948 42.0132 15.5194Z" fill="#E74645"/>
<mask id="mask0_277_99646" style="mask-type:luminance" maskUnits="userSpaceOnUse" x="21" y="5" width="22" height="21">
<path d="M42.0132 15.5194C42.0132 21.0893 37.3992 25.6049 31.7074 25.6049C26.0163 25.6049 21.4019 21.0895 21.4019 15.5194C21.4019 9.94931 26.0161 5.43408 31.7074 5.43408C37.399 5.43425 42.0132 9.94948 42.0132 15.5194Z" fill="white"/>
</mask>
<g mask="url(#mask0_277_99646)">
<path d="M32.9356 20.2363H30.9082V21.4165H32.9356V20.2363Z" fill="#F8BB94"/>
<path d="M32.192 21.2585C31.7669 21.126 31.4108 20.8652 31.357 20.4082C31.3499 20.3454 31.3576 20.2885 31.3741 20.2361H30.9082V21.4163H32.9356V21.2684C32.6864 21.3294 32.4264 21.3316 32.192 21.2585Z" fill="#DADADA"/>
<path d="M36.9949 16.4534C36.9949 16.9411 36.5768 17.3368 36.0605 17.3368C35.5441 17.3368 35.1255 16.9413 35.1255 16.4534C35.1255 15.9657 35.5441 15.5698 36.0605 15.5698C36.5768 15.5698 36.9949 15.9657 36.9949 16.4534Z" fill="#F8BB94"/>
<path d="M36.1807 15.962C36.1807 15.962 36.2032 15.9584 36.243 15.9598C36.2834 15.9615 36.3419 15.9671 36.4089 15.9919C36.4752 16.0158 36.5534 16.0616 36.6073 16.141C36.6211 16.1608 36.6307 16.183 36.6424 16.2048C36.651 16.2276 36.6574 16.2515 36.6642 16.2754L36.6722 16.349C36.6722 16.3731 36.6702 16.397 36.6691 16.4216C36.666 16.4668 36.6532 16.5153 36.6393 16.5592C36.626 16.6034 36.6047 16.6446 36.5819 16.6832C36.536 16.76 36.471 16.8203 36.4066 16.8534C36.3761 16.8726 36.3433 16.8809 36.3171 16.8902C36.288 16.8958 36.2643 16.9011 36.243 16.9018C36.203 16.903 36.1807 16.9021 36.1807 16.9021C36.1807 16.9021 36.2014 16.8937 36.2379 16.8791C36.2562 16.8724 36.2756 16.8594 36.2985 16.8483C36.3197 16.8329 36.3452 16.8195 36.3672 16.7979C36.3908 16.7785 36.4129 16.7534 36.4333 16.7264C36.4546 16.6997 36.4719 16.6676 36.4887 16.6342C36.5047 16.6005 36.5162 16.5638 36.5281 16.5262C36.5387 16.4871 36.5478 16.4504 36.5494 16.4084L36.5539 16.3509L36.5497 16.2954C36.545 16.2779 36.5414 16.2602 36.5372 16.2428C36.5304 16.2267 36.5255 16.2096 36.5164 16.1948C36.4841 16.1333 36.4311 16.0863 36.3787 16.0525C36.3252 16.0189 36.2752 15.997 36.2389 15.9827C36.2027 15.9685 36.1807 15.962 36.1807 15.962Z" fill="#DADADA"/>
<path d="M36.301 16.4965C36.301 16.5907 36.2332 16.6676 36.15 16.6676C36.0661 16.6676 35.9985 16.5907 35.9985 16.4965C35.9985 16.4017 36.0662 16.3252 36.15 16.3252C36.2334 16.3252 36.301 16.4017 36.301 16.4965Z" fill="#DADADA"/>
<path d="M26.9746 16.4534C26.9746 16.9411 27.3929 17.3368 27.9089 17.3368C28.4253 17.3368 28.8434 16.9413 28.8434 16.4534C28.8434 15.9657 28.4253 15.5698 27.9089 15.5698C27.3929 15.5698 26.9746 15.9657 26.9746 16.4534Z" fill="#F8BB94"/>
<path d="M27.7882 15.962C27.7882 15.962 27.7654 15.9584 27.7252 15.9598C27.6849 15.9615 27.6275 15.9671 27.56 15.9919C27.4939 16.0158 27.4157 16.0616 27.3609 16.141C27.3481 16.1608 27.3384 16.183 27.3263 16.2048C27.3181 16.2276 27.3111 16.2515 27.3049 16.2754L27.2974 16.349C27.2974 16.3731 27.2995 16.397 27.3002 16.4216C27.3031 16.4668 27.3155 16.5153 27.3291 16.5592C27.3429 16.6034 27.364 16.6446 27.3869 16.6832C27.4333 16.76 27.4986 16.8203 27.5621 16.8534C27.5924 16.8726 27.626 16.8809 27.6527 16.8902C27.6807 16.8958 27.705 16.9011 27.7254 16.9018C27.7664 16.903 27.7884 16.9021 27.7884 16.9021C27.7884 16.9021 27.768 16.8937 27.7315 16.8791C27.7134 16.8724 27.6937 16.8594 27.6705 16.8483C27.6495 16.8329 27.6233 16.8195 27.6019 16.7979C27.5787 16.7785 27.5565 16.7534 27.5361 16.7264C27.5143 16.6997 27.4977 16.6676 27.4813 16.6342C27.4642 16.6005 27.4523 16.5638 27.441 16.5262C27.4307 16.4871 27.4221 16.4504 27.4202 16.4084L27.416 16.3509L27.4199 16.2954C27.4244 16.2779 27.4282 16.2602 27.4319 16.2428C27.4396 16.2267 27.4439 16.2096 27.4523 16.1948C27.4851 16.1333 27.5389 16.0863 27.5911 16.0525C27.6436 16.0189 27.6944 15.997 27.7307 15.9827C27.7663 15.9685 27.7882 15.962 27.7882 15.962Z" fill="#DADADA"/>
<path d="M27.667 16.4965C27.667 16.5907 27.7349 16.6676 27.8186 16.6676C27.902 16.6676 27.9696 16.5907 27.9696 16.4965C27.9696 16.4017 27.9019 16.3252 27.8186 16.3252C27.7347 16.3252 27.667 16.4017 27.667 16.4965Z" fill="#DADADA"/>
<path d="M36.061 15.2832C36.061 18.2841 34.6222 20.3911 31.921 20.3911C29.2201 20.3911 27.7808 18.2841 27.7808 15.2832C27.7808 12.2825 29.2745 9.84985 31.9758 9.84985C34.6766 9.84968 36.061 12.2823 36.061 15.2832Z" fill="#F8BB94"/>
<path d="M30.9488 21.3704C30.9488 21.3704 28.3773 21.7029 27.4528 22.4857C26.511 23.2835 26.2323 23.9733 25.8931 25.5492H31.8808H31.9621H37.9501C37.6108 23.9731 37.3323 23.2834 36.3902 22.4857C35.466 21.7029 32.8945 21.3704 32.8945 21.3704H30.9488Z" fill="#F8BB94"/>
<path d="M30.1716 21.5C30.1716 21.5 28.3773 21.703 27.4528 22.4858C26.511 23.2837 26.2323 23.9734 25.8931 25.5493H31.8808H31.9621H37.9501C37.6108 23.9733 37.337 23.2781 36.3902 22.4858C35.6089 21.8326 33.8534 21.5362 33.8534 21.5362L32.8945 21.3704H30.9488L30.1716 21.5Z" fill="white"/>
<path d="M31.4401 22.9007C31.4401 22.9007 31.4497 22.8864 31.4741 22.8667C31.463 22.8777 31.4514 22.8886 31.4401 22.9007L31.1089 25.5472H32.7349L32.4039 22.9007L32.6276 21.9915C32.7101 21.8554 32.7349 21.6978 32.6499 21.5605C32.5723 21.4358 32.4665 21.3711 32.3466 21.3392C32.1566 21.288 31.931 21.3182 31.7284 21.3182C31.5273 21.3182 31.3837 21.3359 31.2509 21.4907C31.1178 21.6461 31.1089 21.8131 31.2169 21.9917L31.4401 22.9007Z" fill="#E74645"/>
<path d="M31.4014 22.7584C31.4014 22.7584 32.0753 22.4502 32.3995 22.8995C32.3995 22.8995 31.9455 22.6467 31.4363 22.8995L31.4014 22.7584Z" fill="#C6C6C6"/>
<path d="M30.1716 21.4976C30.1716 21.4976 28.3773 21.7006 27.4528 22.4834C26.511 23.2813 26.2323 23.971 25.8931 25.5469H31.8808H31.9621H37.9501C37.6108 23.9709 37.337 23.2756 36.3902 22.4834C35.6089 21.8302 33.8534 21.5338 33.8534 21.5338L31.9217 25.4388L30.1716 21.4976Z" fill="#0D3953"/>
<path d="M30.194 21.5255L31.9203 25.4399L30.0854 24.2797L30.4983 23.5858L28.4458 21.927C28.4458 21.927 29.6099 21.4858 30.194 21.5255Z" fill="#031D2D"/>
<path d="M33.8533 21.5358L31.9219 25.4408L33.7566 24.2806L33.3437 23.5867L35.3968 21.9279C35.3968 21.9279 34.4381 21.4962 33.8533 21.5358Z" fill="#031D2D"/>
<path d="M29.8101 21.5332L31.3626 22.5925L31.233 22.0628L29.8101 21.5332Z" fill="#B2B2B2"/>
<path d="M34.1793 21.5505L32.4775 22.6124L32.626 21.9954L34.1793 21.5505Z" fill="#B2B2B2"/>
<path d="M30.9066 21.0212L29.8101 21.5339L31.1075 22.2923L32.0149 21.3122L30.9066 21.0212Z" fill="white"/>
<path d="M30.8906 21.3981C31.052 21.2545 31.2415 21.1579 31.4644 21.1676L30.9066 21.0212L29.8101 21.5339L30.7894 22.106C30.6667 21.8748 30.6718 21.5918 30.8906 21.3981Z" fill="#DADADA"/>
<path d="M33.1044 21.0212L34.2006 21.5339L32.9037 22.2923L31.9961 21.3122L33.1044 21.0212Z" fill="white"/>
<path d="M33.1205 21.3981C32.9591 21.2545 32.7699 21.1579 32.5469 21.1676L33.1044 21.0212L34.2007 21.5339L33.2219 22.106C33.3438 21.8748 33.3388 21.5918 33.1205 21.3981Z" fill="#DADADA"/>
<path d="M27.7943 16.0155L28.2131 16.4262L28.2941 13.1214C28.2941 13.1214 28.3217 11.4055 30.1838 11.4055C30.1838 11.4055 31.713 12.1834 33.6589 11.5403C33.6589 11.5403 35.4004 11.2723 35.605 13.041L35.5906 16.4923L36.0363 15.9549L36.0613 15.5061C36.0613 15.5061 36.3257 14.0499 36.0613 11.9108C36.0613 11.9108 35.7107 9.54308 33.524 9.14091C33.524 9.14091 29.9528 8.24162 28.447 10.4419C28.447 10.4419 27.2979 11.7548 27.6013 13.8088L27.7943 16.0155Z" fill="#956000"/>
</g>
<path d="M59.2068 43.9606C64.8915 43.6832 69.2702 38.9484 68.9867 33.3851C68.7033 27.8219 63.8651 23.5368 58.1804 23.8142C52.4956 24.0915 48.117 28.8263 48.4004 34.3896C48.6839 39.9529 53.522 44.238 59.2068 43.9606Z" fill="#1DB2A8"/>
<mask id="mask1_277_99646" style="mask-type:luminance" maskUnits="userSpaceOnUse" x="48" y="23" width="21" height="21">
<path d="M59.2068 43.9606C64.8915 43.6832 69.2702 38.9484 68.9867 33.3851C68.7033 27.8219 63.8651 23.5368 58.1804 23.8142C52.4956 24.0915 48.117 28.8263 48.4004 34.3896C48.6839 39.9529 53.522 44.238 59.2068 43.9606Z" fill="white"/>
</mask>
<g mask="url(#mask1_277_99646)">
<path d="M59.7046 38.6589H57.6772V39.8386H59.7046V38.6589Z" fill="#F8BB94"/>
<path d="M57.7936 39.54C58.0324 39.3058 58.3409 39.1738 58.6792 39.1492C58.9684 39.1277 59.4631 39.1885 59.6174 38.8932C59.6413 38.8466 59.671 38.8116 59.7046 38.7846V38.6589H57.6772V39.6779C57.7116 39.6299 57.7488 39.5833 57.7936 39.54Z" fill="#C6C6C6"/>
<path d="M63.7666 34.8756C63.7666 35.3632 63.3478 35.7592 62.8321 35.7592C62.3159 35.7592 61.8975 35.3633 61.8975 34.8756C61.8975 34.388 62.3159 33.9922 62.8321 33.9922C63.3478 33.9922 63.7666 34.388 63.7666 34.8756Z" fill="#F8BB94"/>
<path d="M62.9523 34.384C62.9523 34.384 62.975 34.3805 63.0151 34.3819C63.0556 34.3835 63.1136 34.3891 63.1807 34.414C63.2467 34.4378 63.3247 34.4835 63.3797 34.5633C63.3929 34.5826 63.4029 34.6053 63.4146 34.627C63.4228 34.6497 63.4299 34.6736 63.436 34.6972L63.4435 34.7708C63.4439 34.795 63.4416 34.8189 63.4411 34.8435C63.4376 34.8889 63.4251 34.9371 63.4113 34.9812C63.3977 35.0256 63.3762 35.0669 63.3537 35.1053C63.3073 35.1822 63.2429 35.2424 63.1783 35.2757C63.1478 35.2947 63.115 35.3031 63.0881 35.3119C63.06 35.3176 63.0352 35.323 63.0155 35.3239C62.9745 35.3249 62.9521 35.3242 62.9521 35.3242C62.9521 35.3242 62.9734 35.3159 63.0097 35.3012C63.0272 35.2944 63.0469 35.2814 63.0706 35.2704C63.0917 35.2552 63.1169 35.2414 63.1389 35.2201C63.1621 35.2003 63.1846 35.1755 63.205 35.1487C63.2259 35.1215 63.2434 35.0894 63.26 35.0561C63.276 35.0228 63.2886 34.9858 63.2998 34.948C63.3104 34.9093 63.319 34.8725 63.3209 34.8305L63.3256 34.773L63.321 34.7175C63.3167 34.7001 63.3128 34.6823 63.3092 34.6651C63.3017 34.6488 63.2973 34.6314 63.2888 34.6166C63.256 34.5554 63.2027 34.5085 63.1499 34.4745C63.0968 34.441 63.0464 34.4191 63.0106 34.4048C62.9747 34.3905 62.9523 34.384 62.9523 34.384Z" fill="#DADADA"/>
<path d="M63.073 34.9184C63.073 35.0129 63.0051 35.0894 62.9218 35.0894C62.8382 35.0894 62.77 35.0129 62.77 34.9184C62.77 34.8242 62.8382 34.7473 62.9218 34.7473C63.0053 34.7473 63.073 34.8242 63.073 34.9184Z" fill="#DADADA"/>
<path d="M53.7441 34.8756C53.7441 35.3632 54.1622 35.7592 54.6784 35.7592C55.1943 35.7592 55.6129 35.3633 55.6129 34.8756C55.6129 34.388 55.1944 33.9922 54.6784 33.9922C54.1622 33.9922 53.7441 34.388 53.7441 34.8756Z" fill="#F8BB94"/>
<path d="M54.5575 34.384C54.5575 34.384 54.5351 34.3805 54.495 34.3819C54.4545 34.3835 54.3964 34.3891 54.3294 34.414C54.2632 34.4378 54.1852 34.4835 54.1303 34.5633C54.117 34.5826 54.1074 34.6053 54.0955 34.627C54.0872 34.6497 54.0804 34.6736 54.0739 34.6972L54.0664 34.7708C54.0664 34.795 54.0683 34.8189 54.0697 34.8435C54.0729 34.8889 54.0847 34.9371 54.0985 34.9812C54.1123 35.0256 54.1341 35.0669 54.1563 35.1053C54.2029 35.1822 54.2674 35.2424 54.3318 35.2757C54.3622 35.2947 54.3957 35.3031 54.4219 35.3119C54.4507 35.3176 54.4746 35.323 54.4952 35.3239C54.5353 35.3249 54.5576 35.3242 54.5576 35.3242C54.5576 35.3242 54.5365 35.3159 54.5 35.3012C54.4822 35.2944 54.4629 35.2814 54.4393 35.2704C54.4189 35.2552 54.3933 35.2414 54.3711 35.2201C54.3477 35.2003 54.3264 35.1755 54.3051 35.1487C54.2844 35.1215 54.266 35.0894 54.25 35.0561C54.2338 35.0228 54.2215 34.9858 54.2102 34.948C54.1997 34.9093 54.1912 34.8725 54.1889 34.8305L54.1847 34.773L54.1884 34.7175C54.1936 34.7001 54.1973 34.6823 54.2009 34.6651C54.2081 34.6488 54.213 34.6314 54.2214 34.6166C54.2542 34.5554 54.3076 34.5085 54.3604 34.4745C54.4126 34.441 54.4637 34.4191 54.4993 34.4048C54.5356 34.3905 54.5575 34.384 54.5575 34.384Z" fill="#DADADA"/>
<path d="M54.439 34.9184C54.439 35.0129 54.5065 35.0894 54.5899 35.0894C54.6738 35.0894 54.7414 35.0129 54.7414 34.9184C54.7414 34.8242 54.6738 34.7473 54.5899 34.7473C54.5063 34.7473 54.439 34.8242 54.439 34.9184Z" fill="#DADADA"/>
<path d="M62.8321 33.7099C62.8321 36.7109 61.3933 38.8179 58.6922 38.8179C55.9909 38.8179 54.5522 36.7109 54.5522 33.7099C54.5522 30.7093 56.0458 28.2766 58.7468 28.2766C61.4483 28.2764 62.8321 30.7091 62.8321 33.7099Z" fill="#F8BB94"/>
<path d="M57.718 39.7891C57.718 39.7891 55.1467 40.1219 54.2222 40.9047C53.2804 41.7027 53.0017 42.3921 52.6621 43.9684H58.6506H58.7319H64.7196C64.3802 42.3921 64.1019 41.7026 63.1596 40.9047C62.2356 40.1219 59.6641 39.7891 59.6641 39.7891H57.718Z" fill="#F8BB94"/>
<path d="M60.6593 39.9637C60.6593 39.9637 62.2354 40.1227 63.1594 40.9055C64.1017 41.7035 64.3801 42.3929 64.7195 43.9692H58.7317H58.6504H52.6621C53.0017 42.3929 53.2804 41.7034 54.2222 40.9055C55.1467 40.1227 56.7289 39.9622 56.7289 39.9622C56.7289 39.9622 56.3862 42.1141 58.7773 42.0961C58.7773 42.0961 60.7521 42.1716 60.6593 39.9637Z" fill="#1A7290"/>
<path d="M57.0553 39.9014C57.0628 39.9372 57.0641 39.9748 57.0578 40.0134C57.0562 40.026 56.9471 40.794 57.3961 41.3002C57.6816 41.6214 58.1484 41.7828 58.7791 41.7773C58.784 41.777 58.7889 41.7773 58.7943 41.7775C58.7985 41.7775 59.4652 41.7916 59.9101 41.3512C60.2174 41.0471 60.3603 40.5078 60.3346 39.9014L60.9936 40.0151C61.0138 40.7814 60.8047 41.3849 60.3713 41.8099C59.7828 42.387 58.9819 42.4204 58.8035 42.4204C58.777 42.4204 58.7667 42.4203 58.752 42.4204C57.9322 42.4204 57.308 42.1837 56.896 41.7168C56.3573 41.1058 56.3722 40.2962 56.3971 40.0149L57.0553 39.9014Z" fill="#054153"/>
<path d="M54.4381 32.057L54.5872 34.5059L54.9531 34.6071C54.6313 30.6541 56.7595 29.7493 56.7595 29.7493L57.355 27.2748C55.5363 27.2323 54.7405 28.6871 54.7405 28.6871C54.7405 28.6871 54.0673 29.3557 54.4381 32.057Z" fill="#732400"/>
<path d="M54.458 32.3766C54.458 32.3766 54.3884 32.0676 54.3271 31.6023C54.2948 31.3697 54.2643 31.098 54.2388 30.8065C54.2276 30.6606 54.2111 30.5103 54.2032 30.357C54.1987 30.2803 54.194 30.2031 54.1892 30.1258L54.1858 30.0675L54.1852 30.0604L54.1851 30.039L54.1854 30.0245L54.1863 29.9953L54.1898 29.8783C54.1899 29.8035 54.2051 29.7168 54.2193 29.6319C54.2304 29.5455 54.2515 29.4656 54.2742 29.3874C54.2854 29.3481 54.2952 29.3085 54.3076 29.2699L54.3531 29.158C54.3812 29.083 54.4152 29.012 54.452 28.944C54.4861 28.8745 54.5225 28.8083 54.565 28.7471C54.6039 28.6839 54.6459 28.6252 54.6892 28.5699C54.7714 28.4561 54.8614 28.3583 54.9483 28.2731C55.0326 28.1855 55.1185 28.1136 55.1956 28.0528C55.2717 27.9904 55.3432 27.9426 55.402 27.9039C55.5207 27.8273 55.5942 27.7937 55.5942 27.7937C55.5942 27.7937 55.3616 28.0167 55.0935 28.3911C55.0593 28.4373 55.026 28.487 54.9941 28.5396C54.9602 28.591 54.9255 28.644 54.8948 28.7012C54.8611 28.7567 54.8293 28.8151 54.8012 28.8764C54.7712 28.937 54.7395 28.9976 54.7147 29.0629C54.6861 29.1264 54.6602 29.1918 54.6407 29.2601C54.6178 29.3274 54.5965 29.3955 54.5812 29.4659C54.5623 29.5359 54.5458 29.6059 54.5391 29.6744C54.529 29.7429 54.5171 29.81 54.5178 29.8915L54.5114 30.0083L54.5098 30.0375L54.5091 30.052L54.5089 30.0537C54.5088 30.0266 54.5089 30.0472 54.5089 30.0418L54.5091 30.0453L54.5093 30.0527L54.5114 30.1109C54.5142 30.1886 54.517 30.2658 54.5196 30.3425C54.5262 30.4958 54.5243 30.6471 54.5269 30.7933C54.529 31.0859 54.5246 31.3591 54.5147 31.5936C54.4981 32.0627 54.458 32.3766 54.458 32.3766Z" fill="#511800"/>
<path d="M62.9141 32.538L62.7651 34.9873L62.3991 35.088C62.7703 29.8152 60.7619 29.7273 60.7619 29.7273L59.9971 27.7555C61.8161 27.7132 62.6115 29.1683 62.6115 29.1683C62.6115 29.1683 63.2852 29.8367 62.9141 32.538Z" fill="#732400"/>
<path d="M56.7888 29.7367C56.7888 29.7367 59.1143 28.8424 61.5109 30.0398L61.6936 28.231C61.6936 28.231 61.2249 24.6991 56.5136 25.8243C56.5136 25.8243 57.1017 26.0921 57.3556 26.3602C57.3556 26.3602 55.5422 26.2371 54.7412 27.8528C54.7412 27.8528 55.9673 27.452 56.953 27.7103C56.953 27.7103 55.4739 28.665 56.7888 29.7367Z" fill="#732400"/>
<path d="M61.6935 28.2307C61.6935 28.2307 61.6671 28.133 61.602 27.9711C61.5383 27.8091 61.434 27.583 61.2794 27.3333C61.2017 27.2085 61.107 27.0811 61.0033 26.9509C60.8963 26.8228 60.7724 26.6989 60.6388 26.5778C60.5009 26.4612 60.351 26.3501 60.1879 26.254C60.0257 26.1563 59.8516 26.0721 59.6692 26.0067C59.5788 25.9722 59.4881 25.9382 59.394 25.9137C59.3019 25.8838 59.2073 25.8626 59.1129 25.8433C58.9246 25.8047 58.7362 25.7717 58.551 25.7572C58.4589 25.7454 58.3676 25.7422 58.2777 25.7381C58.1879 25.7345 58.1001 25.7256 58.0141 25.7287C57.8422 25.7291 57.6788 25.7292 57.5277 25.739C57.3764 25.7436 57.2379 25.7569 57.1145 25.7664C56.9909 25.7752 56.8829 25.7854 56.7945 25.7967C56.6168 25.816 56.5137 25.8242 56.5137 25.8242C56.5137 25.8242 56.6098 25.7897 56.781 25.7342C56.8665 25.7057 56.9707 25.6727 57.0934 25.6452C57.215 25.6146 57.3527 25.5783 57.5064 25.5555C57.583 25.5427 57.6626 25.5269 57.7458 25.5152C57.8296 25.5067 57.9162 25.4978 58.0052 25.4889C58.0942 25.4777 58.1865 25.478 58.2809 25.4732C58.3753 25.4671 58.472 25.4691 58.5704 25.4748C58.6688 25.4789 58.7693 25.4813 58.8705 25.4949C58.9719 25.5055 59.0749 25.5154 59.1768 25.5392C59.2796 25.5581 59.3827 25.5795 59.4844 25.6102C59.5874 25.6355 59.6882 25.6701 59.7884 25.7072C59.9879 25.783 60.1795 25.88 60.3573 25.9917C60.5377 26.1001 60.6929 26.2383 60.8379 26.373C61.1204 26.6529 61.3199 26.966 61.446 27.2481C61.5741 27.5302 61.6357 27.7797 61.665 27.9544C61.6947 28.1294 61.6935 28.2307 61.6935 28.2307Z" fill="#511800"/>
</g>
<path d="M51.4336 29.9518C51.4336 35.5221 46.8198 40.0375 41.1278 40.0375C35.4363 40.0375 30.8223 35.5221 30.8223 29.9518C30.8223 24.3821 35.4362 19.8667 41.1278 19.8667C46.8198 19.8667 51.4336 24.3821 51.4336 29.9518Z" fill="#F9B233"/>
<mask id="mask2_277_99646" style="mask-type:luminance" maskUnits="userSpaceOnUse" x="30" y="19" width="22" height="22">
<path d="M51.4336 29.9518C51.4336 35.5221 46.8198 40.0375 41.1278 40.0375C35.4363 40.0375 30.8223 35.5221 30.8223 29.9518C30.8223 24.3821 35.4362 19.8667 41.1278 19.8667C46.8198 19.8667 51.4336 24.3821 51.4336 29.9518Z" fill="white"/>
</mask>
<g mask="url(#mask2_277_99646)">
<path d="M42.1423 34.7244H40.1147V35.9041H42.1423V34.7244Z" fill="#F8BB94"/>
<path d="M40.2306 35.605C40.47 35.3711 40.7784 35.2391 41.1167 35.2141C41.4057 35.1931 41.9008 35.2538 42.0549 34.9583C42.079 34.912 42.1088 34.8769 42.1423 34.8499V34.7244H40.1147V35.7432C40.1495 35.6952 40.1866 35.6484 40.2306 35.605Z" fill="#C6C6C6"/>
<path d="M46.2036 30.9375C46.2036 31.4249 45.7855 31.8206 45.2692 31.8206C44.7528 31.8206 44.334 31.4251 44.334 30.9375C44.334 30.4496 44.7528 30.054 45.2692 30.054C45.7855 30.054 46.2036 30.4495 46.2036 30.9375Z" fill="#F8BB94"/>
<path d="M45.3893 30.4495C45.3893 30.4495 45.4118 30.4462 45.4516 30.4476C45.4919 30.4491 45.5506 30.4549 45.6174 30.4797C45.6837 30.5034 45.7623 30.5492 45.8165 30.6291C45.8303 30.6483 45.8397 30.671 45.8511 30.6927C45.8596 30.7154 45.8664 30.7389 45.8725 30.763L45.8809 30.8364C45.8809 30.8609 45.8781 30.8846 45.8776 30.909C45.8745 30.9546 45.8619 31.0028 45.8481 31.0467C45.8347 31.0912 45.8132 31.1327 45.7905 31.1708C45.7441 31.2477 45.6797 31.3078 45.615 31.3413C45.5846 31.3602 45.5523 31.3684 45.5249 31.3775C45.4968 31.3833 45.4727 31.3887 45.4515 31.3894C45.4115 31.3904 45.3892 31.3898 45.3892 31.3898C45.3892 31.3898 45.4099 31.381 45.4462 31.3667C45.464 31.36 45.4843 31.3471 45.5071 31.336C45.5282 31.3208 45.5535 31.3068 45.5757 31.2854C45.5993 31.2659 45.6213 31.241 45.6418 31.2142C45.6631 31.1872 45.6802 31.1549 45.6966 31.1216C45.713 31.0883 45.7256 31.0515 45.7366 31.0135C45.7472 30.9749 45.7556 30.9381 45.7579 30.896L45.7623 30.8385L45.7588 30.783C45.7534 30.7656 45.7504 30.7478 45.7462 30.7306C45.7394 30.7143 45.7335 30.6969 45.7254 30.6821C45.6926 30.6208 45.6396 30.574 45.5872 30.5402C45.5337 30.5065 45.483 30.4847 45.4474 30.4703C45.4115 30.456 45.3893 30.4495 45.3893 30.4495Z" fill="#DADADA"/>
<path d="M45.5103 30.9843C45.5103 31.0787 45.4424 31.1556 45.3592 31.1556C45.2756 31.1556 45.2075 31.0787 45.2075 30.9843C45.2075 30.8898 45.2756 30.813 45.3592 30.813C45.4424 30.813 45.5103 30.8898 45.5103 30.9843Z" fill="#DADADA"/>
<path d="M36.1831 30.9375C36.1831 31.4249 36.6017 31.8206 37.1176 31.8206C37.6338 31.8206 38.0522 31.4251 38.0522 30.9375C38.0522 30.4496 37.6338 30.054 37.1176 30.054C36.6017 30.054 36.1831 30.4495 36.1831 30.9375Z" fill="#F8BB94"/>
<path d="M36.9967 30.4495C36.9967 30.4495 36.9741 30.4462 36.9337 30.4476C36.8936 30.4491 36.8358 30.4549 36.7683 30.4797C36.7024 30.5034 36.6243 30.5492 36.5699 30.6291C36.5559 30.6483 36.5467 30.671 36.5352 30.6927C36.5266 30.7154 36.52 30.7389 36.5132 30.763L36.5059 30.8364C36.5059 30.8609 36.5074 30.8846 36.5085 30.909C36.5121 30.9546 36.5245 31.0028 36.5378 31.0467C36.5514 31.0912 36.573 31.1327 36.5954 31.1708C36.6418 31.2477 36.7067 31.3078 36.7709 31.3413C36.8013 31.3602 36.8341 31.3684 36.8612 31.3775C36.8894 31.3833 36.9137 31.3887 36.9339 31.3894C36.9746 31.3904 36.9969 31.3898 36.9969 31.3898C36.9969 31.3898 36.9761 31.381 36.9395 31.3667C36.9219 31.36 36.9022 31.3471 36.8784 31.336C36.8578 31.3208 36.8322 31.3068 36.8102 31.2854C36.787 31.2659 36.7648 31.241 36.7444 31.2142C36.7231 31.1872 36.7057 31.1549 36.6896 31.1216C36.673 31.0883 36.6606 31.0515 36.6491 31.0135C36.639 30.9749 36.6303 30.9381 36.6291 30.896L36.6245 30.8385L36.6282 30.783C36.6327 30.7656 36.6364 30.7478 36.6401 30.7306C36.6479 30.7143 36.6523 30.6969 36.6606 30.6821C36.6935 30.6208 36.747 30.574 36.7994 30.5402C36.8524 30.5065 36.903 30.4847 36.939 30.4703C36.9746 30.456 36.9967 30.4495 36.9967 30.4495Z" fill="#DADADA"/>
<path d="M36.876 30.9843C36.876 31.0787 36.9442 31.1556 37.0274 31.1556C37.1112 31.1556 37.1789 31.0787 37.1789 30.9843C37.1789 30.8898 37.1112 30.813 37.0274 30.813C36.9442 30.813 36.876 30.8898 36.876 30.9843Z" fill="#DADADA"/>
<path d="M45.2695 29.7757C45.2695 32.7767 43.8305 34.8837 41.1292 34.8837C38.4284 34.8837 36.9893 32.7767 36.9893 29.7757C36.9893 26.775 38.483 24.342 41.1845 24.342C43.8858 24.3419 45.2695 26.7749 45.2695 29.7757Z" fill="#F8BB94"/>
<path d="M40.1552 35.8547C40.1552 35.8547 37.5837 36.1874 36.6595 36.9702C35.7177 37.7679 35.439 38.4578 35.0996 40.034H41.0875H41.1689H47.1568C46.8176 38.4578 46.539 37.7677 45.5971 36.9702C44.6724 36.1874 42.1009 35.8547 42.1009 35.8547H40.1552Z" fill="#F8BB94"/>
<path d="M39.1666 36.0278C39.1666 36.0278 37.5837 36.1882 36.6595 36.971C35.7177 37.7687 35.439 38.4586 35.0996 40.0348H41.0875H41.1689H47.1568C46.8176 38.4586 46.539 37.7685 45.5971 36.971C44.6724 36.1882 43.0963 36.0292 43.0963 36.0292L41.128 37.9451L39.1666 36.0278Z" fill="#373C47"/>
<path d="M36.8748 28.1229L37.0243 30.5718L37.3903 30.6729C37.0685 26.72 39.1965 25.8149 39.1965 25.8149L39.792 23.3403C37.9731 23.2981 37.1779 24.7529 37.1779 24.7529C37.1779 24.7529 36.5047 25.4215 36.8748 28.1229Z" fill="#432918"/>
<path d="M36.8956 28.4416C36.8956 28.4416 36.8204 28.1329 36.7553 27.6679C36.7209 27.4353 36.6886 27.1637 36.6619 26.8724C36.6502 26.7266 36.633 26.5763 36.6249 26.4229C36.6202 26.3464 36.6155 26.2692 36.6108 26.1915L36.6073 26.1335L36.6068 26.1261L36.6064 26.1036L36.607 26.0891L36.6078 26.0599L36.6112 25.9431C36.6113 25.8686 36.6267 25.7808 36.641 25.6951C36.6523 25.6078 36.6738 25.5274 36.6968 25.4489C36.7082 25.4092 36.7178 25.3694 36.7305 25.3308L36.7766 25.2185C36.8052 25.1432 36.8398 25.072 36.8769 25.0036C36.9113 24.934 36.9481 24.8674 36.9912 24.8062C37.0307 24.743 37.0732 24.6843 37.117 24.6288C37.2005 24.5151 37.2914 24.4174 37.3793 24.3327C37.4647 24.2454 37.5512 24.1742 37.6294 24.1139C37.706 24.0521 37.7786 24.005 37.8381 23.9669C37.958 23.8916 38.0321 23.8591 38.0321 23.8591C38.0321 23.8591 37.8028 24.0866 37.539 24.4626C37.5053 24.5091 37.4725 24.5588 37.4411 24.6117C37.4078 24.6633 37.3736 24.7162 37.3432 24.7734C37.3102 24.8289 37.2788 24.8872 37.2514 24.9487C37.2219 25.0091 37.1903 25.0697 37.1661 25.1345C37.138 25.1978 37.1125 25.2629 37.0933 25.3308C37.071 25.398 37.0499 25.4656 37.0349 25.5354C37.0164 25.6049 36.9998 25.6744 36.9935 25.7421C36.9835 25.8097 36.9717 25.8758 36.9724 25.9578L36.9659 26.0746L36.9644 26.1036L36.9637 26.1181L36.9635 26.12C36.9635 26.1239 36.9633 26.0922 36.9635 26.1065L36.9637 26.1101L36.9638 26.1173L36.9659 26.1755C36.9685 26.253 36.9712 26.3304 36.9738 26.4071C36.9802 26.5602 36.9773 26.7117 36.9795 26.8579C36.9806 27.1504 36.9743 27.4238 36.9621 27.6585C36.9411 28.1274 36.8956 28.4416 36.8956 28.4416Z" fill="#2A1807"/>
<path d="M38.9512 25.9614C38.9512 25.9614 40.2296 28.1201 44.3338 28.0087C44.3338 28.0087 43.5659 27.1209 43.9484 26.6984C43.9484 26.6984 39.9739 24.8488 38.9512 25.9614Z" fill="#C6C6C6"/>
<path d="M45.3514 28.6032L45.2019 31.0526L44.8363 31.1535C45.1579 27.2005 43.0293 26.2961 43.0293 26.2961L42.4346 23.8212C44.2533 23.7787 45.0486 25.2335 45.0486 25.2335C45.0486 25.2335 45.7219 25.9023 45.3514 28.6032Z" fill="#432918"/>
<path d="M38.2788 23.7054C38.2788 23.7054 38.8693 22.5293 40.9868 22.2077C40.9868 22.2077 44.5116 21.7926 45.6354 24.1863C45.6354 24.1863 46.2039 25.3385 45.9985 27.3659C45.9985 27.3659 45.7858 26.4536 45.2077 26.1505C45.2077 26.1505 45.1108 27.2291 43.5893 26.5658C43.5893 26.5658 43.3475 27.008 43.8785 27.7947C43.8785 27.7947 38.9517 27.7945 38.2788 23.7054Z" fill="#432918"/>
<path d="M38.2788 23.7051C38.2788 23.7051 38.3252 23.5787 38.4645 23.3873C38.5359 23.2936 38.6257 23.1795 38.7472 23.0659C38.8048 23.0055 38.8751 22.9517 38.9451 22.8886C39.0191 22.8318 39.0978 22.7713 39.1836 22.7145C39.356 22.6021 39.5499 22.4856 39.7694 22.3951C39.9858 22.2971 40.2238 22.2144 40.4748 22.1499C40.5992 22.1115 40.7295 22.093 40.8597 22.0635L40.958 22.0432L41.0679 22.0302C41.1358 22.0237 41.2035 22.0196 41.2716 22.016C41.5433 22.0022 41.819 22.0035 42.0943 22.0204C42.3695 22.0408 42.6437 22.0766 42.9112 22.1292C43.1789 22.1799 43.4372 22.2578 43.6813 22.3471C43.9259 22.4361 44.1528 22.548 44.3573 22.6701C44.5643 22.7889 44.7407 22.9312 44.8936 23.0693C45.0466 23.2082 45.1695 23.3523 45.2667 23.4864C45.3649 23.6197 45.4382 23.7437 45.4898 23.8492C45.5471 23.9519 45.5766 24.0395 45.6001 24.0972C45.6228 24.1549 45.635 24.1858 45.635 24.1858C45.635 24.1858 45.6169 24.158 45.5823 24.1057C45.5485 24.0535 45.4996 23.977 45.4284 23.886C45.3614 23.7927 45.2693 23.687 45.1597 23.5726C45.1037 23.5162 45.045 23.4558 44.9759 23.3998C44.9105 23.34 44.837 23.2826 44.7594 23.2246C44.6016 23.1117 44.4248 22.9979 44.2249 22.9004C44.0256 22.8019 43.8067 22.7165 43.5754 22.6412C43.344 22.5661 43.0969 22.5124 42.8445 22.4648C42.5919 22.4189 42.3311 22.3895 42.0694 22.3734C41.8082 22.3533 41.5447 22.3482 41.2873 22.3572C41.2232 22.3605 41.1595 22.3637 41.096 22.3668L41.0105 22.3724L40.9168 22.3874C40.7929 22.4098 40.6676 22.4212 40.5495 22.4522C40.3109 22.5051 40.0807 22.5623 39.8706 22.6391C39.8179 22.6579 39.7659 22.6767 39.7146 22.695C39.6647 22.7162 39.6157 22.7372 39.5672 22.758C39.4682 22.7956 39.3796 22.8448 39.2913 22.8873C39.119 22.9795 38.9653 23.0731 38.837 23.168C38.7074 23.2613 38.6029 23.3537 38.5188 23.4327C38.4374 23.5138 38.3741 23.5801 38.336 23.6289C38.2966 23.6768 38.2788 23.7051 38.2788 23.7051Z" fill="#2A1807"/>
</g>
<path d="M35.1112 33.8869C35.1112 39.4568 30.4975 43.9722 24.8052 43.9722C19.1139 43.9722 14.5 39.457 14.5 33.8869C14.5 28.3174 19.1137 23.8013 24.8052 23.8013C30.4973 23.8013 35.1112 28.3174 35.1112 33.8869Z" fill="#6EBEBF"/>
<mask id="mask3_277_99646" style="mask-type:luminance" maskUnits="userSpaceOnUse" x="14" y="23" width="22" height="21">
<path d="M35.1112 33.8869C35.1112 39.4568 30.4975 43.9722 24.8052 43.9722C19.1139 43.9722 14.5 39.457 14.5 33.8869C14.5 28.3174 19.1137 23.8013 24.8052 23.8013C30.4973 23.8013 35.1112 28.3174 35.1112 33.8869Z" fill="white"/>
</mask>
<g mask="url(#mask3_277_99646)">
<path d="M29.4683 35.1061C29.4683 35.1061 28.1349 39.5165 25.7793 39.7935V38.7883C25.7793 38.7883 28.1939 34.3827 29.4683 35.1061Z" fill="#432918"/>
<path d="M25.8189 38.6599H23.792V39.8401H25.8189V38.6599Z" fill="#F8BB94"/>
<path d="M23.9075 39.5409C24.1475 39.3068 24.4556 39.1748 24.7936 39.1502C25.0833 39.1287 25.5777 39.1896 25.7321 38.8942C25.7555 38.8479 25.7862 38.8126 25.8189 38.7858V38.6599H23.792V39.6793C23.8262 39.6311 23.8635 39.5843 23.9075 39.5409Z" fill="#C6C6C6"/>
<path d="M29.8792 34.8763C29.8792 35.3639 29.4607 35.7596 28.9444 35.7596C28.4284 35.7596 28.0103 35.3639 28.0103 34.8763C28.0103 34.3886 28.4284 33.9929 28.9444 33.9929C29.4607 33.9929 29.8792 34.3884 29.8792 34.8763Z" fill="#F8BB94"/>
<path d="M29.0671 34.3842C29.0671 34.3842 29.0898 34.3808 29.1299 34.3822C29.17 34.384 29.228 34.3893 29.2948 34.4143C29.3615 34.4385 29.4395 34.4841 29.4944 34.5639C29.5072 34.583 29.5171 34.6055 29.5281 34.6272C29.5372 34.6501 29.5438 34.6738 29.5504 34.6977L29.5579 34.7713C29.5588 34.7953 29.5564 34.8195 29.5546 34.8438C29.5517 34.8895 29.5393 34.9377 29.5257 34.9812C29.5124 35.026 29.4908 35.0671 29.4684 35.1055C29.4213 35.1822 29.3571 35.2427 29.2929 35.2758C29.2625 35.2953 29.2294 35.3031 29.2027 35.3124C29.1739 35.3176 29.1501 35.3236 29.1297 35.3243C29.0887 35.325 29.0669 35.3243 29.0669 35.3243C29.0669 35.3243 29.0877 35.3159 29.1238 35.3013C29.1418 35.2944 29.1616 35.2814 29.1849 35.2705C29.2053 35.2553 29.2308 35.2415 29.2534 35.2201C29.2761 35.2007 29.2983 35.1757 29.3192 35.1488C29.34 35.1219 29.3574 35.0895 29.374 35.0565C29.3911 35.0232 29.4028 34.9862 29.414 34.9481C29.4252 34.9093 29.4332 34.8726 29.4353 34.8309L29.4398 34.7731L29.4356 34.7174C29.4309 34.7 29.4274 34.6819 29.4232 34.665C29.4159 34.6487 29.4115 34.6318 29.403 34.6165C29.37 34.5555 29.3166 34.5085 29.2639 34.4744C29.2114 34.4409 29.1608 34.419 29.1248 34.4047C29.0889 34.3907 29.0671 34.3842 29.0671 34.3842Z" fill="#DADADA"/>
<path d="M29.1857 34.9187C29.1857 35.0134 29.1184 35.09 29.0342 35.09C28.9507 35.09 28.8833 35.0134 28.8833 34.9187C28.8833 34.8245 28.9507 34.7478 29.0342 34.7478C29.1184 34.7478 29.1857 34.8245 29.1857 34.9187Z" fill="#DADADA"/>
<path d="M19.8584 34.8763C19.8584 35.3639 20.2767 35.7596 20.7927 35.7596C21.3091 35.7596 21.7272 35.3639 21.7272 34.8763C21.7272 34.3886 21.3091 33.9929 20.7927 33.9929C20.2767 33.9929 19.8584 34.3884 19.8584 34.8763Z" fill="#F8BB94"/>
<path d="M20.6729 34.3842C20.6729 34.3842 20.6497 34.3808 20.6096 34.3822C20.5694 34.384 20.5115 34.3893 20.4447 34.4143C20.3782 34.4385 20.3 34.4841 20.2455 34.5639C20.2323 34.583 20.2222 34.6055 20.2105 34.6272C20.2024 34.6501 20.1955 34.6738 20.1892 34.6977L20.1812 34.7713C20.1812 34.7953 20.1827 34.8195 20.1841 34.8438C20.1878 34.8895 20.1998 34.9377 20.2138 34.9812C20.227 35.026 20.2489 35.0671 20.2715 35.1055C20.318 35.1822 20.3824 35.2427 20.4471 35.2758C20.4775 35.2953 20.5097 35.3031 20.5366 35.3124C20.5652 35.3176 20.5897 35.3236 20.6097 35.3243C20.6502 35.325 20.6731 35.3243 20.6731 35.3243C20.6731 35.3243 20.6516 35.3159 20.6153 35.3013C20.5973 35.2944 20.5775 35.2814 20.5546 35.2705C20.5333 35.2553 20.5082 35.2415 20.4864 35.2201C20.4626 35.2007 20.4408 35.1757 20.4202 35.1488C20.3989 35.1219 20.3813 35.0895 20.3649 35.0565C20.3483 35.0232 20.3365 34.9862 20.3251 34.9481C20.3141 34.9093 20.3057 34.8726 20.3042 34.8309L20.2996 34.7731L20.3033 34.7174C20.3087 34.7 20.3122 34.6819 20.316 34.665C20.3234 34.6487 20.3276 34.6318 20.3366 34.6165C20.3691 34.5555 20.4228 34.5085 20.475 34.4744C20.5279 34.4409 20.5785 34.419 20.6141 34.4047C20.6502 34.3907 20.6729 34.3842 20.6729 34.3842Z" fill="#DADADA"/>
<path d="M20.5508 34.9187C20.5508 35.0134 20.619 35.09 20.7028 35.09C20.7862 35.09 20.8542 35.0134 20.8542 34.9187C20.8542 34.8245 20.786 34.7478 20.7028 34.7478C20.619 34.7478 20.5508 34.8245 20.5508 34.9187Z" fill="#DADADA"/>
<path d="M28.9446 33.711C28.9446 36.7116 27.5065 38.8188 24.8048 38.8188C22.1037 38.8188 20.665 36.7116 20.665 33.711C20.665 30.71 22.159 28.2773 24.8599 28.2773C27.5609 28.2772 28.9446 30.7098 28.9446 33.711Z" fill="#F8BB94"/>
<path d="M23.8324 39.7932C23.8324 39.7932 21.2614 40.1259 20.3373 40.9085C19.3949 41.7065 19.1161 42.396 18.7769 43.9722H24.7651H24.8461H30.8342C30.4951 42.396 30.2165 41.7064 29.2741 40.9085C28.3498 40.1259 25.7788 39.7932 25.7788 39.7932H23.8324Z" fill="#F8BB94"/>
<path d="M25.7779 39.7932C25.7779 39.7932 27.1031 39.9645 28.1925 40.3506C28.1925 40.3506 27.5489 41.8758 28.1925 43.9724H21.5518C21.5518 43.9724 22.0098 42.6928 21.7271 40.2482C22.7426 39.9341 23.8318 39.7932 23.8318 39.7932L24.7646 41.5674L25.7779 39.7932Z" fill="#E74645"/>
<path d="M29.0976 34.004C27.7019 33.67 27.0247 31.9725 27.0247 31.9725C26.9474 32.4011 27.0701 32.7944 27.0701 32.7944C24.5555 31.6509 23.0127 29.8289 23.0127 29.8289C21.7276 28.2763 23.7918 27.2566 23.7918 27.2566C27.1023 26.1133 28.526 28.2765 28.526 28.2765C28.526 28.2765 30.8779 30.3577 29.7203 34.3809C29.7201 34.3805 29.5569 34.1135 29.0976 34.004Z" fill="#432918"/>
<path d="M23.3934 28.179C23.3934 28.179 20.4268 28.278 19.8583 32.8673C19.8583 32.8673 19.0388 41.2634 22.8875 42.6926C22.8875 42.6926 22.6348 40.3164 23.7914 39.7983V38.7096C23.7914 38.7096 20.9862 38.2267 21.0227 34.6359C21.0227 34.6359 21.0409 30.4917 23.1951 29.7057L23.3934 28.179Z" fill="#432918"/>
<path d="M29.2579 35.7254C29.2579 35.8943 29.1176 36.031 28.945 36.031C28.7726 36.031 28.6333 35.8943 28.6333 35.7254C28.6333 35.5566 28.7726 35.4197 28.945 35.4197C29.1176 35.4197 29.2579 35.5565 29.2579 35.7254Z" fill="white"/>
</g>
<path d="M50.8547 25.6046C56.5465 25.6046 61.1606 21.0891 61.1606 15.5191C61.1606 9.94902 56.5465 5.43359 50.8547 5.43359C45.1629 5.43359 40.5488 9.94902 40.5488 15.5191C40.5488 21.0891 45.1629 25.6046 50.8547 25.6046Z" fill="#F08046"/>
<mask id="mask4_277_99646" style="mask-type:luminance" maskUnits="userSpaceOnUse" x="40" y="5" width="22" height="21">
<path d="M50.8547 25.6046C56.5465 25.6046 61.1606 21.0891 61.1606 15.5191C61.1606 9.94902 56.5465 5.43359 50.8547 5.43359C45.1629 5.43359 40.5488 9.94902 40.5488 15.5191C40.5488 21.0891 45.1629 25.6046 50.8547 25.6046Z" fill="white"/>
</mask>
<g mask="url(#mask4_277_99646)">
<path d="M51.8685 20.2913H49.8413V21.4715H51.8685V20.2913Z" fill="#F8BB94"/>
<path d="M49.9574 21.1724C50.1964 20.9381 50.5046 20.8061 50.843 20.7815C51.1326 20.7602 51.6272 20.821 51.7811 20.5256C51.8053 20.4793 51.8354 20.4441 51.8685 20.4171V20.2913H49.8413V21.3106C49.8753 21.2626 49.9132 21.2157 49.9574 21.1724Z" fill="#C6C6C6"/>
<path d="M55.9283 16.5082C55.9283 16.9957 55.5102 17.3914 54.994 17.3914C54.478 17.3914 54.0596 16.9959 54.0596 16.5082C54.0596 16.0204 54.478 15.6248 54.994 15.6248C55.5101 15.6248 55.9283 16.0204 55.9283 16.5082Z" fill="#F8BB94"/>
<path d="M55.1139 16.0163C55.1139 16.0163 55.1363 16.0129 55.1766 16.0142C55.2165 16.0161 55.2748 16.0216 55.3417 16.0463C55.4083 16.0706 55.487 16.1162 55.5406 16.1959C55.5542 16.2152 55.5642 16.2376 55.5755 16.2593C55.5839 16.2822 55.5907 16.3057 55.5977 16.3298L55.6052 16.4034C55.6052 16.4275 55.6033 16.4516 55.602 16.4758C55.5989 16.5216 55.5862 16.5698 55.5725 16.6133C55.5593 16.6581 55.5376 16.6992 55.5148 16.7378C55.4684 16.8143 55.404 16.8749 55.3396 16.9079C55.3092 16.9274 55.2762 16.9352 55.2497 16.9444C55.2207 16.9499 55.1967 16.9555 55.1771 16.9564C55.1361 16.9571 55.1138 16.9564 55.1138 16.9564C55.1138 16.9564 55.1344 16.948 55.171 16.9333C55.1888 16.9267 55.2085 16.9135 55.2317 16.9026C55.2527 16.8874 55.2781 16.8736 55.3 16.8522C55.3237 16.8328 55.3455 16.808 55.3659 16.7808C55.3872 16.754 55.405 16.7216 55.4211 16.6886C55.4373 16.6553 55.4499 16.6183 55.461 16.5802C55.4717 16.5416 55.4802 16.5047 55.4821 16.463L55.487 16.4051L55.4827 16.3495C55.4776 16.3319 55.4746 16.3139 55.4705 16.297C55.4633 16.2808 55.4588 16.2639 55.4497 16.2485C55.4169 16.1877 55.364 16.1406 55.3115 16.1066C55.2583 16.073 55.2076 16.0511 55.1719 16.0368C55.1363 16.0228 55.1139 16.0163 55.1139 16.0163Z" fill="#DADADA"/>
<path d="M55.2351 16.5503C55.2351 16.6451 55.1669 16.7216 55.0833 16.7216C54.9997 16.7216 54.9316 16.6451 54.9316 16.5503C54.9316 16.4561 54.9999 16.3794 55.0833 16.3794C55.167 16.3794 55.2351 16.4562 55.2351 16.5503Z" fill="#DADADA"/>
<path d="M45.9077 16.5082C45.9077 16.9957 46.3258 17.3914 46.842 17.3914C47.3584 17.3914 47.7765 16.9959 47.7765 16.5082C47.7765 16.0204 47.3584 15.6248 46.842 15.6248C46.3258 15.6248 45.9077 16.0204 45.9077 16.5082Z" fill="#F8BB94"/>
<path d="M46.7213 16.0163C46.7213 16.0163 46.6987 16.0129 46.6585 16.0142C46.6186 16.0161 46.5603 16.0216 46.4934 16.0463C46.427 16.0706 46.349 16.1162 46.2943 16.1959C46.2812 16.2152 46.2713 16.2376 46.2591 16.2593C46.2514 16.2822 46.2444 16.3057 46.2381 16.3298L46.2305 16.4034C46.2305 16.4275 46.232 16.4516 46.2334 16.4758C46.2366 16.5216 46.2488 16.5698 46.2628 16.6133C46.276 16.6581 46.298 16.6992 46.3202 16.7378C46.3671 16.8143 46.432 16.8749 46.4954 16.9079C46.5261 16.9274 46.5591 16.9352 46.5858 16.9444C46.6142 16.9499 46.6385 16.9555 46.6587 16.9564C46.6997 16.9571 46.7215 16.9564 46.7215 16.9564C46.7215 16.9564 46.7006 16.948 46.6643 16.9333C46.6461 16.9267 46.6268 16.9135 46.6036 16.9026C46.5828 16.8874 46.5571 16.8736 46.5353 16.8522C46.5112 16.8328 46.49 16.808 46.4692 16.7808C46.4482 16.754 46.4303 16.7216 46.4142 16.6886C46.3973 16.6553 46.3854 16.6183 46.3741 16.5802C46.3638 16.5416 46.3552 16.5047 46.3535 16.463L46.3491 16.4051L46.3528 16.3495C46.358 16.3319 46.3608 16.3139 46.365 16.297C46.3723 16.2808 46.3765 16.2639 46.3854 16.2485C46.4181 16.1877 46.472 16.1406 46.5242 16.1066C46.5767 16.073 46.6275 16.0511 46.6634 16.0368C46.6995 16.0228 46.7213 16.0163 46.7213 16.0163Z" fill="#DADADA"/>
<path d="M46.6006 16.5503C46.6006 16.6451 46.6686 16.7216 46.7521 16.7216C46.8358 16.7216 46.9034 16.6451 46.9034 16.5503C46.9034 16.4561 46.8358 16.3794 46.7521 16.3794C46.6685 16.3794 46.6006 16.4562 46.6006 16.5503Z" fill="#DADADA"/>
<path d="M54.9939 15.3465C54.9939 18.3471 53.5544 20.4543 50.8542 20.4543C48.1528 20.4543 46.7139 18.3471 46.7139 15.3465C46.7139 12.3455 48.2073 9.91284 50.9084 9.91284C53.6104 9.91284 54.9939 12.3455 54.9939 15.3465Z" fill="#F8BB94"/>
<path d="M49.8821 21.425C49.8821 21.425 47.3104 21.7579 46.3861 22.5404C45.4439 23.3384 45.1658 24.0278 44.8262 25.6042H50.8141H50.8954H56.8834C56.5439 24.0278 56.2653 23.3384 55.3236 22.5404C54.3989 21.7579 51.8278 21.425 51.8278 21.425H49.8821Z" fill="#F8BB94"/>
<path d="M48.5146 21.6793C48.5146 21.6793 48.7921 21.5642 47.7766 21.8781C48.056 24.3512 47.6011 25.6025 47.6011 25.6025H54.2418C53.5984 23.5057 54.2418 21.9807 54.2418 21.9807C53.6277 21.7631 53.6277 21.7631 53.6277 21.7631C53.6277 21.7631 53.571 24.7751 50.8135 24.5659C50.8135 24.5659 48.424 24.7952 48.5146 21.6793Z" fill="#00B1C3"/>
<path d="M49.4435 9.81104C49.4435 9.81104 46.4767 9.91008 45.9089 14.4994C45.9089 14.4994 45.3555 18.2796 47.2276 21.503C47.2276 21.503 48.4786 21.3136 49.8417 21.4304V20.3417C49.8417 20.3417 47.0369 19.8588 47.0734 16.2679C47.0734 16.2679 47.0917 12.1236 49.2449 11.3377L49.4435 9.81104Z" fill="#732400"/>
<path d="M52.2667 9.81106C52.2667 9.81106 55.6304 9.76 56.1984 14.3495C56.1984 14.3495 56.4902 17.4198 54.4827 21.503C54.4827 21.503 53.2308 21.3136 51.8687 21.4304V20.3417C51.8687 20.3417 54.6729 19.8588 54.6372 16.268C54.6372 16.268 54.6192 12.1237 52.4648 11.3378L52.2667 9.81106Z" fill="#732400"/>
<path d="M48.2511 10.9706C48.2511 10.9706 50.1633 13.9533 54.1483 13.6679L54.9324 15.6219L55.7093 15.9373C55.7093 15.9373 56.8832 15.6219 55.6623 10.9706C55.6623 10.9706 54.4003 7.56983 49.8409 8.58234C49.8409 8.58234 47.5695 8.98826 48.2511 10.9706Z" fill="#732400"/>
</g>
<path d="M51.4338 47.5593C51.4338 53.1289 46.8198 57.6444 41.1281 57.6444C35.4367 57.6444 30.8223 53.129 30.8223 47.5593C30.8223 41.9894 35.4365 37.4736 41.1281 37.4736C46.8198 37.4738 51.4338 41.9894 51.4338 47.5593Z" fill="#E74645"/>
<mask id="mask5_277_99646" style="mask-type:luminance" maskUnits="userSpaceOnUse" x="30" y="37" width="22" height="21">
<path d="M51.4338 47.5593C51.4338 53.1289 46.8198 57.6444 41.1281 57.6444C35.4367 57.6444 30.8223 53.129 30.8223 47.5593C30.8223 41.9894 35.4365 37.4736 41.1281 37.4736C46.8198 37.4738 51.4338 41.9894 51.4338 47.5593Z" fill="white"/>
</mask>
<g mask="url(#mask5_277_99646)">
<path d="M42.1414 52.3345H40.1147V53.5149H42.1414V52.3345Z" fill="#F8BB94"/>
<path d="M40.2304 53.2158C40.4695 52.9814 40.7779 52.8494 41.1166 52.8249C41.4057 52.8036 41.9003 52.8642 42.0542 52.5688C42.0784 52.5223 42.1083 52.4875 42.1414 52.4603V52.3345H40.1147V53.354C40.1489 53.3058 40.1861 53.2592 40.2304 53.2158Z" fill="#C6C6C6"/>
<path d="M46.2041 48.5483C46.2041 49.0358 45.7858 49.4315 45.2696 49.4315C44.7533 49.4315 44.3345 49.036 44.3345 48.5483C44.3345 48.0604 44.7533 47.665 45.2696 47.665C45.7858 47.665 46.2041 48.0605 46.2041 48.5483Z" fill="#F8BB94"/>
<path d="M45.3903 48.0567C45.3903 48.0567 45.4126 48.0533 45.4528 48.0545C45.4927 48.0562 45.551 48.0618 45.6179 48.0862C45.6847 48.1105 45.7627 48.1561 45.8168 48.2358C45.8304 48.2551 45.8404 48.2775 45.8517 48.2992C45.8599 48.3221 45.8669 48.346 45.8732 48.3697L45.8812 48.4433C45.8812 48.4676 45.8793 48.4915 45.8782 48.5161C45.8751 48.5615 45.8622 48.6096 45.8487 48.6532C45.8353 48.6981 45.8135 48.7391 45.791 48.7777C45.7446 48.8542 45.68 48.9148 45.6156 48.9478C45.5851 48.9672 45.5523 48.9751 45.5259 48.9843C45.4968 48.9898 45.4734 48.9956 45.4526 48.9963C45.4125 48.9969 45.3901 48.9964 45.3901 48.9964C45.3901 48.9964 45.4106 48.9881 45.4469 48.9732C45.465 48.9667 45.4847 48.9534 45.5078 48.9425C45.5289 48.9273 45.5542 48.9138 45.5762 48.8921C45.5999 48.8726 45.6217 48.8479 45.6421 48.8207C45.6634 48.7939 45.681 48.7618 45.6973 48.7285C45.714 48.6952 45.7259 48.6581 45.7372 48.6202C45.7473 48.5816 45.7562 48.5446 45.7582 48.5031L45.7627 48.4452L45.759 48.3895C45.7538 48.3719 45.751 48.3543 45.7467 48.3371C45.7393 48.3209 45.7346 48.3039 45.7261 48.2889C45.6933 48.2278 45.6402 48.1807 45.5877 48.1467C45.5343 48.1134 45.4837 48.0913 45.4481 48.077C45.4125 48.0632 45.3903 48.0567 45.3903 48.0567Z" fill="#DADADA"/>
<path d="M45.5104 48.5905C45.5104 48.6849 45.4431 48.7614 45.3595 48.7614C45.2762 48.7614 45.208 48.6849 45.208 48.5905C45.208 48.4959 45.2762 48.4192 45.3595 48.4192C45.4431 48.4192 45.5104 48.496 45.5104 48.5905Z" fill="#DADADA"/>
<path d="M36.1836 48.5483C36.1836 49.0358 36.6017 49.4315 37.1177 49.4315C37.6341 49.4315 38.0522 49.036 38.0522 48.5483C38.0522 48.0604 37.6341 47.665 37.1177 47.665C36.6015 47.665 36.1836 48.0605 36.1836 48.5483Z" fill="#F8BB94"/>
<path d="M36.9969 48.0567C36.9969 48.0567 36.9742 48.0533 36.9341 48.0545C36.8941 48.0562 36.8358 48.0618 36.769 48.0862C36.7024 48.1105 36.6245 48.1561 36.5697 48.2358C36.5565 48.2551 36.5469 48.2775 36.5355 48.2992C36.527 48.3221 36.5203 48.346 36.5135 48.3697L36.5059 48.4433C36.5059 48.4676 36.5076 48.4915 36.5092 48.5161C36.5121 48.5615 36.5249 48.6096 36.5381 48.6532C36.5514 48.6981 36.5736 48.7391 36.5959 48.7777C36.6423 48.8542 36.7071 48.9148 36.7713 48.9478C36.8013 48.9672 36.8345 48.9751 36.8613 48.9843C36.8898 48.9898 36.914 48.9956 36.9343 48.9963C36.9746 48.9969 36.9971 48.9964 36.9971 48.9964C36.9971 48.9964 36.976 48.9881 36.9399 48.9732C36.9222 48.9667 36.902 48.9534 36.8789 48.9425C36.8582 48.9273 36.8325 48.9138 36.8107 48.8921C36.7873 48.8726 36.7655 48.8479 36.7448 48.8207C36.7236 48.7939 36.7064 48.7618 36.6896 48.7285C36.6729 48.6952 36.661 48.6581 36.6495 48.6202C36.6388 48.5816 36.6306 48.5446 36.6291 48.5031L36.6247 48.4452L36.6282 48.3895C36.6332 48.3719 36.6366 48.3543 36.6404 48.3371C36.6479 48.3209 36.6524 48.3039 36.6612 48.2889C36.694 48.2278 36.7474 48.1807 36.7997 48.1467C36.8524 48.1134 36.903 48.0913 36.939 48.077C36.9749 48.0632 36.9969 48.0567 36.9969 48.0567Z" fill="#DADADA"/>
<path d="M36.8765 48.5905C36.8765 48.6849 36.9447 48.7614 37.0281 48.7614C37.1117 48.7614 37.1791 48.6849 37.1791 48.5905C37.1791 48.4959 37.1117 48.4192 37.0281 48.4192C36.9447 48.4192 36.8765 48.496 36.8765 48.5905Z" fill="#DADADA"/>
<path d="M45.2695 47.3817C45.2695 50.3827 43.831 52.4899 41.1292 52.4899C38.428 52.4899 36.9893 50.3827 36.9893 47.3817C36.9893 44.3809 38.4827 41.9482 41.184 41.9482C43.8853 41.9482 45.2695 44.3809 45.2695 47.3817Z" fill="#F8BB94"/>
<path d="M40.1555 53.4651C40.1555 53.4651 37.5837 53.7979 36.6597 54.5804C35.7177 55.3786 35.4385 56.0678 35.0996 57.6442H41.0875H41.1689H47.1568C46.8174 56.0678 46.5387 55.3784 45.5969 54.5804C44.6724 53.7979 42.1011 53.4651 42.1011 53.4651H40.1555Z" fill="#F8BB94"/>
<path d="M43.3486 53.6937C44.1393 53.873 45.1027 54.1624 45.5969 54.5803C46.5389 55.3785 46.8174 56.0677 47.1568 57.6441H41.1689H41.0875H35.0996C35.4385 56.0677 35.7177 55.3783 36.6597 54.5803C37.1675 54.1505 38.1723 53.8562 38.9743 53.6785L41.1282 55.9504L43.3486 53.6937Z" fill="#881719"/>
<path d="M39.7173 41.8511C39.7173 41.8511 36.7506 41.95 36.1826 46.5393C36.1826 46.5393 36.0718 50.4814 36.0718 55.1435C36.0718 55.1435 36.7506 53.9787 40.1156 53.4704V52.3814C40.1156 52.3814 37.3101 51.8985 37.3465 48.3078C37.3465 48.3078 37.3654 44.1635 39.5189 43.3774L39.7173 41.8511Z" fill="#432918"/>
<path d="M42.5398 41.8513C42.5398 41.8513 45.9095 41.6852 46.4775 46.2745C46.4775 46.2745 46.5431 50.3474 46.2025 55.19C46.2025 55.19 45.268 53.8843 42.1416 53.4707V52.3817C42.1416 52.3817 44.9464 51.8987 44.9103 48.3081C44.9103 48.3081 44.8923 44.1638 42.7379 43.3777L42.5398 41.8513Z" fill="#432918"/>
<path d="M40.6692 46.2738L41.0877 44.218V46.2738H43.1674L43.5121 44.8266L43.8709 46.2738H46.478C46.478 44.8091 46.2029 43.6299 46.2029 43.6299C46.2029 43.6299 45.5089 40.432 40.615 40.7144C40.615 40.7144 36.4914 40.7144 36.1929 46.2739H40.6692V46.2738Z" fill="#432918"/>
</g>
<path d="M39.772 4.03808C39.772 4.8081 39.1344 5.43244 38.3472 5.43244C37.5603 5.43244 36.9224 4.8081 36.9224 4.03808C36.9224 3.26773 37.5603 2.64355 38.3472 2.64355C39.1344 2.64355 39.772 3.26773 39.772 4.03808Z" fill="#1DB2A8"/>
<path d="M42.1044 7.27012C42.1044 7.79713 41.6678 8.22457 41.1291 8.22457C40.5906 8.22457 40.1538 7.79713 40.1538 7.27012C40.1538 6.74278 40.5906 6.31567 41.1291 6.31567C41.6678 6.31567 42.1044 6.74278 42.1044 7.27012Z" fill="#E74645"/>
<path d="M45.7824 4.31371C45.7824 5.23605 45.0181 5.98386 44.0749 5.98386C43.1331 5.98386 42.3691 5.23605 42.3691 4.31371C42.3691 3.3912 43.1331 2.64355 44.0749 2.64355C45.0181 2.64355 45.7824 3.39103 45.7824 4.31371Z" fill="#F9B233"/>
<path d="M63.5787 20.77C64.2797 20.77 64.8479 21.3262 64.8479 22.0122C64.8479 22.6986 64.2795 23.2544 63.5787 23.2544C62.8776 23.2544 62.3096 22.6984 62.3096 22.0122C62.3096 21.3262 62.8776 20.77 63.5787 20.77Z" fill="#1DB2A8"/>
<path d="M66.5192 18.7339C66.9986 18.7339 67.3878 19.1145 67.3878 19.5842C67.3878 20.0536 66.9988 20.4343 66.5192 20.4343C66.0395 20.4343 65.6504 20.0536 65.6504 19.5842C65.6506 19.1147 66.0395 18.7339 66.5192 18.7339Z" fill="#E74645"/>
<path d="M63.8295 15.531C64.6694 15.531 65.3501 16.1974 65.3501 17.0191C65.3501 17.8405 64.6696 18.5062 63.8295 18.5062C62.9901 18.5062 62.3096 17.8405 62.3096 17.0191C62.3096 16.1974 62.9903 15.531 63.8295 15.531Z" fill="#F9B233"/>
<path d="M17.444 21.6138C18.0654 21.9309 18.306 22.6809 17.9823 23.2896C17.6583 23.8977 16.8917 24.1339 16.2701 23.8168C15.6483 23.4996 15.4074 22.7494 15.7316 22.1411C16.0558 21.5325 16.8221 21.2963 17.444 21.6138Z" fill="#1DB2A8"/>
<path d="M21.0094 21.1396C21.4348 21.3567 21.6001 21.8703 21.3779 22.2865C21.1563 22.7029 20.6317 22.8642 20.2061 22.6472C19.7809 22.4301 19.6154 21.9168 19.8374 21.5005C20.0594 21.0841 20.5843 20.9227 21.0094 21.1396Z" fill="#E74645"/>
<path d="M20.1418 17.0839C20.8861 17.4636 21.1747 18.3623 20.7864 19.0912C20.3981 19.8197 19.4803 20.1018 18.736 19.722C17.9914 19.342 17.7022 18.444 18.0905 17.7154C18.4784 16.9868 19.3967 16.704 20.1418 17.0839Z" fill="#F9B233"/>
<path d="M27.3095 50.3505C27.922 50.0165 28.6945 50.2316 29.036 50.8309C29.3772 51.4303 29.1575 52.1866 28.5453 52.5208C27.9328 52.8549 27.1601 52.6393 26.8186 52.0403C26.4773 51.4409 26.6968 50.6845 27.3095 50.3505Z" fill="#1DB2A8"/>
<path d="M28.8641 47.1737C29.2829 46.945 29.8124 47.0922 30.0455 47.5027C30.2793 47.9126 30.1289 48.43 29.7098 48.6589C29.2909 48.8874 28.7611 48.7403 28.5282 48.3301C28.2944 47.9203 28.4448 47.4018 28.8641 47.1737Z" fill="#E74645"/>
<path d="M24.9216 45.6542C25.6547 45.2543 26.581 45.512 26.9897 46.2296C27.3982 46.9475 27.1349 47.8531 26.402 48.2532C25.6682 48.653 24.7429 48.3958 24.3339 47.6784C23.9249 46.9605 24.188 46.054 24.9216 45.6542Z" fill="#F9B233"/>
<path d="M54.5138 48.5991C54.8558 49.1984 54.6354 49.9544 54.0233 50.2888C53.4108 50.6224 52.6375 50.4074 52.2966 49.8084C51.9552 49.209 52.1751 48.4526 52.7869 48.1186C53.4 47.7847 54.1728 47.9992 54.5138 48.5991Z" fill="#1DB2A8"/>
<path d="M57.7601 50.1206C57.9939 50.5304 57.8432 51.0484 57.4237 51.2767C57.0047 51.5055 56.4763 51.3585 56.2424 50.9479C56.0088 50.5381 56.1592 50.02 56.5778 49.792C56.9972 49.5631 57.5268 49.7102 57.7601 50.1206Z" fill="#E74645"/>
<path d="M59.3117 46.2642C59.7207 46.9817 59.4574 47.8879 58.7238 48.288C57.99 48.6879 57.0647 48.4302 56.6561 47.7128C56.2472 46.9949 56.5104 46.0891 57.2436 45.6892C57.9764 45.2889 58.9031 45.5464 59.3117 46.2642Z" fill="#F9B233"/>
<path d="M12.5518 76.6443L14.7918 70.4203C14.9411 70.0363 15.1438 69.743 15.3998 69.5403C15.6558 69.327 16.0718 69.2203 16.6478 69.2203C17.1598 69.2203 17.5491 69.3163 17.8158 69.5083C18.0931 69.7003 18.3064 70.0043 18.4558 70.4203L20.7438 76.6443H18.9678L18.2798 74.7243H14.4878L13.8158 76.6443H12.5518ZM14.7438 74.0363H17.9758L16.9678 71.1083C16.9251 70.9696 16.8664 70.847 16.7918 70.7403C16.7278 70.6336 16.5838 70.5803 16.3598 70.5803C16.1251 70.5803 15.9704 70.639 15.8958 70.7563C15.8211 70.863 15.7624 70.9803 15.7198 71.1083L14.7438 74.0363ZM23.4793 76.7083C22.9139 76.7083 22.5086 76.5963 22.2633 76.3723C22.0179 76.1376 21.8953 75.727 21.8953 75.1403V69.2043C21.8953 69.0336 21.9059 68.9056 21.9273 68.8203C21.9593 68.7243 22.0179 68.6603 22.1033 68.6283C22.1886 68.5856 22.3166 68.5643 22.4873 68.5643H23.4153C23.4153 68.5856 23.4046 68.671 23.3832 68.8203C23.3726 68.9696 23.3673 69.1456 23.3673 69.3483V74.9483C23.3673 75.343 23.4153 75.6256 23.5113 75.7963C23.6073 75.967 23.7886 76.0523 24.0553 76.0523C24.1406 76.0523 24.2419 76.0416 24.3593 76.0203C24.4873 75.999 24.5673 75.983 24.5993 75.9723V76.5803C24.5353 76.591 24.4233 76.6123 24.2633 76.6443C24.1033 76.687 23.8419 76.7083 23.4793 76.7083ZM27.1824 76.7083C26.617 76.7083 26.2117 76.5963 25.9664 76.3723C25.721 76.1376 25.5984 75.727 25.5984 75.1403V69.2043C25.5984 69.0336 25.609 68.9056 25.6304 68.8203C25.6624 68.7243 25.721 68.6603 25.8064 68.6283C25.8917 68.5856 26.0197 68.5643 26.1904 68.5643H27.1184C27.1184 68.5856 27.1077 68.671 27.0864 68.8203C27.0757 68.9696 27.0704 69.1456 27.0704 69.3483V74.9483C27.0704 75.343 27.1184 75.6256 27.2144 75.7963C27.3104 75.967 27.4917 76.0523 27.7584 76.0523C27.8437 76.0523 27.945 76.0416 28.0624 76.0203C28.1904 75.999 28.2704 75.983 28.3024 75.9723V76.5803C28.2384 76.591 28.1264 76.6123 27.9664 76.6443C27.8064 76.687 27.545 76.7083 27.1824 76.7083ZM41.2803 73.3483C41.2803 73.8496 41.2536 74.3083 41.2003 74.7243C41.1576 75.1403 41.0136 75.4976 40.7683 75.7963C40.5336 76.0843 40.1549 76.3083 39.6323 76.4683C39.1203 76.6176 38.3949 76.6923 37.4563 76.6923C36.7096 76.6923 36.0963 76.6443 35.6163 76.5483C35.1469 76.4416 34.7789 76.2923 34.5123 76.1003C34.2563 75.9083 34.0696 75.6843 33.9523 75.4283C33.8349 75.1616 33.7656 74.863 33.7443 74.5323C33.7229 74.191 33.7122 73.8336 33.7122 73.4603V70.0843C33.7122 69.8603 33.7176 69.695 33.7283 69.5883C33.7389 69.471 33.7869 69.391 33.8723 69.3483C33.9683 69.3056 34.1229 69.2843 34.3363 69.2843H35.3603V74.0043C35.3603 74.4736 35.4296 74.8363 35.5683 75.0923C35.7069 75.3376 35.9309 75.5083 36.2403 75.6043C36.5603 75.7003 36.9709 75.7483 37.4723 75.7483C38.2509 75.7483 38.8056 75.615 39.1363 75.3483C39.4669 75.0816 39.6323 74.6336 39.6323 74.0043V69.2843H40.6403C40.8536 69.2843 41.0029 69.3056 41.0883 69.3483C41.1843 69.391 41.2376 69.471 41.2483 69.5883C41.2696 69.695 41.2803 69.8603 41.2803 70.0843V73.3483ZM45.6878 76.7083C45.4851 76.7083 45.2451 76.703 44.9678 76.6923C44.6904 76.6816 44.4078 76.6603 44.1198 76.6283C43.8424 76.5856 43.5918 76.527 43.3678 76.4523C43.2291 76.4203 43.1171 76.3776 43.0318 76.3243C42.9571 76.271 42.8984 76.1803 42.8558 76.0523C42.8238 75.9136 42.8078 75.7056 42.8078 75.4283C43.0744 75.5456 43.3731 75.6416 43.7038 75.7163C44.0344 75.7803 44.3598 75.823 44.6798 75.8443C45.0104 75.8656 45.2931 75.8763 45.5278 75.8763C45.8158 75.8763 46.0984 75.8656 46.3758 75.8443C46.6638 75.823 46.9251 75.775 47.1598 75.7003C47.4051 75.6256 47.5971 75.5083 47.7358 75.3483C47.8851 75.1883 47.9598 74.9696 47.9598 74.6923C47.9598 74.319 47.8638 74.079 47.6718 73.9723C47.4798 73.8656 47.2131 73.8123 46.8718 73.8123H45.1918C44.7758 73.8123 44.3864 73.7856 44.0238 73.7323C43.6718 73.679 43.3838 73.5403 43.1598 73.3163C42.9464 73.0923 42.8398 72.7136 42.8398 72.1803C42.8398 71.5936 42.9838 71.1563 43.2718 70.8683C43.5598 70.5803 43.9651 70.3936 44.4878 70.3083C45.0211 70.223 45.6451 70.1803 46.3598 70.1803C46.6264 70.1803 46.9358 70.1856 47.2878 70.1963C47.6504 70.207 47.9864 70.239 48.2958 70.2923C48.5518 70.3136 48.7544 70.3563 48.9038 70.4203C49.0638 70.4736 49.1811 70.5536 49.2558 70.6603C49.3304 70.7563 49.3678 70.9056 49.3678 71.1083V71.4763C49.2718 71.359 49.1064 71.2736 48.8718 71.2203C48.6371 71.1563 48.3598 71.1083 48.0398 71.0763C47.7304 71.0443 47.4051 71.0283 47.0638 71.0283C46.7331 71.0176 46.4238 71.0123 46.1358 71.0123C45.8264 71.0123 45.5278 71.0336 45.2398 71.0763C44.9624 71.1083 44.7384 71.199 44.5678 71.3483C44.3971 71.4976 44.3118 71.743 44.3118 72.0843C44.3118 72.351 44.3651 72.543 44.4718 72.6603C44.5784 72.7776 44.7278 72.8523 44.9198 72.8843C45.1118 72.9163 45.3304 72.9323 45.5758 72.9323H47.3358C47.7624 72.9323 48.1358 72.9696 48.4558 73.0443C48.7758 73.119 49.0264 73.279 49.2078 73.5243C49.3891 73.7696 49.4798 74.1536 49.4798 74.6763C49.4798 75.2736 49.3144 75.7163 48.9838 76.0043C48.6531 76.2923 48.2051 76.4843 47.6398 76.5803C47.0744 76.6656 46.4238 76.7083 45.6878 76.7083ZM53.9234 76.7403C53.2727 76.7403 52.7234 76.6976 52.2754 76.6123C51.838 76.527 51.486 76.367 51.2194 76.1323C50.9634 75.8976 50.782 75.5723 50.6754 75.1563C50.5687 74.7403 50.5154 74.2016 50.5154 73.5403C50.5154 72.751 50.6167 72.111 50.8194 71.6203C51.022 71.1296 51.3794 70.7723 51.8914 70.5483C52.414 70.3136 53.1394 70.1963 54.0674 70.1963C54.7927 70.1963 55.3687 70.287 55.7954 70.4683C56.2327 70.639 56.5474 70.911 56.7394 71.2843C56.9314 71.6576 57.0274 72.1323 57.0274 72.7083V73.7323H52.5314C52.5314 73.5616 52.5687 73.423 52.6434 73.3163C52.718 73.2096 52.8567 73.1563 53.0594 73.1563H55.6834L55.6674 72.7403C55.6567 72.143 55.5287 71.7056 55.2834 71.4283C55.0487 71.151 54.622 71.0123 54.0034 71.0123C53.4914 71.0123 53.0914 71.0923 52.8034 71.2523C52.5154 71.4123 52.3127 71.6736 52.1954 72.0363C52.078 72.3883 52.0194 72.879 52.0194 73.5083C52.0194 74.159 52.0834 74.655 52.2114 74.9963C52.35 75.327 52.574 75.551 52.8834 75.6683C53.2034 75.7856 53.646 75.8443 54.2114 75.8443C54.414 75.8443 54.6487 75.839 54.9154 75.8283C55.1927 75.8176 55.47 75.8016 55.7474 75.7803C56.0354 75.759 56.2914 75.7323 56.5154 75.7003C56.7394 75.6683 56.8887 75.6363 56.9634 75.6043V75.8283C56.9634 75.9456 56.9367 76.063 56.8834 76.1803C56.83 76.2976 56.718 76.3936 56.5474 76.4683C56.3234 76.575 55.9927 76.6443 55.5554 76.6763C55.1287 76.719 54.5847 76.7403 53.9234 76.7403ZM59.9469 76.6443H58.9229C58.7629 76.6443 58.6402 76.6016 58.5549 76.5163C58.4695 76.431 58.4269 76.271 58.4269 76.0363V70.5803C58.6829 70.5056 59.0402 70.4256 59.4989 70.3403C59.9575 70.255 60.5069 70.2123 61.1469 70.2123C61.7762 70.2123 62.2722 70.255 62.6349 70.3403C62.9975 70.415 63.2642 70.5323 63.4349 70.6923C63.6162 70.8416 63.7282 71.0283 63.7709 71.2523C63.8242 71.4656 63.8509 71.7163 63.8509 72.0043H62.4109L62.3949 71.7803C62.3949 71.5243 62.3255 71.343 62.1869 71.2363C62.0589 71.119 61.9042 71.0443 61.7229 71.0123C61.5415 70.9803 61.3602 70.9643 61.1789 70.9643C60.9015 70.9643 60.6509 70.991 60.4269 71.0443C60.2135 71.0976 60.0535 71.167 59.9469 71.2523V76.6443ZM67.4846 76.7083C67.282 76.7083 67.042 76.703 66.7646 76.6923C66.4873 76.6816 66.2046 76.6603 65.9166 76.6283C65.6393 76.5856 65.3886 76.527 65.1646 76.4523C65.026 76.4203 64.914 76.3776 64.8286 76.3243C64.754 76.271 64.6953 76.1803 64.6526 76.0523C64.6206 75.9136 64.6046 75.7056 64.6046 75.4283C64.8713 75.5456 65.17 75.6416 65.5006 75.7163C65.8313 75.7803 66.1566 75.823 66.4766 75.8443C66.8073 75.8656 67.09 75.8763 67.3246 75.8763C67.6126 75.8763 67.8953 75.8656 68.1726 75.8443C68.4606 75.823 68.722 75.775 68.9566 75.7003C69.202 75.6256 69.394 75.5083 69.5326 75.3483C69.682 75.1883 69.7566 74.9696 69.7566 74.6923C69.7566 74.319 69.6606 74.079 69.4686 73.9723C69.2766 73.8656 69.01 73.8123 68.6686 73.8123H66.9886C66.5726 73.8123 66.1833 73.7856 65.8206 73.7323C65.4686 73.679 65.1806 73.5403 64.9566 73.3163C64.7433 73.0923 64.6366 72.7136 64.6366 72.1803C64.6366 71.5936 64.7806 71.1563 65.0686 70.8683C65.3566 70.5803 65.762 70.3936 66.2846 70.3083C66.818 70.223 67.442 70.1803 68.1566 70.1803C68.4233 70.1803 68.7326 70.1856 69.0846 70.1963C69.4473 70.207 69.7833 70.239 70.0926 70.2923C70.3486 70.3136 70.5513 70.3563 70.7006 70.4203C70.8606 70.4736 70.978 70.5536 71.0526 70.6603C71.1273 70.7563 71.1646 70.9056 71.1646 71.1083V71.4763C71.0686 71.359 70.9033 71.2736 70.6686 71.2203C70.434 71.1563 70.1566 71.1083 69.8366 71.0763C69.5273 71.0443 69.202 71.0283 68.8606 71.0283C68.53 71.0176 68.2206 71.0123 67.9326 71.0123C67.6233 71.0123 67.3246 71.0336 67.0366 71.0763C66.7593 71.1083 66.5353 71.199 66.3646 71.3483C66.194 71.4976 66.1086 71.743 66.1086 72.0843C66.1086 72.351 66.162 72.543 66.2686 72.6603C66.3753 72.7776 66.5246 72.8523 66.7166 72.8843C66.9086 72.9163 67.1273 72.9323 67.3726 72.9323H69.1326C69.5593 72.9323 69.9326 72.9696 70.2526 73.0443C70.5726 73.119 70.8233 73.279 71.0046 73.5243C71.186 73.7696 71.2766 74.1536 71.2766 74.6763C71.2766 75.2736 71.1113 75.7163 70.7806 76.0043C70.45 76.2923 70.002 76.4843 69.4366 76.5803C68.8713 76.6656 68.2206 76.7083 67.4846 76.7083Z" fill="white"/>
</svg>
