<svg width="29" height="26" viewBox="0 0 29 26" fill="none" xmlns="http://www.w3.org/2000/svg">
<path d="M0.130546 1.70415C-0.0698322 1.24546 0.0310838 0.710869 0.384887 0.356797C0.738689 0.00272557 1.27321 -0.0985965 1.73204 0.101433L28.2614 11.4701C28.7094 11.6616 29 12.1019 29 12.5891C29 13.0763 28.7094 13.5166 28.2614 13.7081L1.69432 25.061C1.23779 25.2556 0.708792 25.1536 0.357455 24.803C0.00611839 24.4525 -0.0971538 23.9237 0.0964713 23.4668L3.8836 14.5441C4.06609 14.1143 4.4784 13.8269 4.94478 13.8042L7.90317 13.6594C8.57527 13.6638 9.12365 13.1225 9.12802 12.4504C9.13239 11.7783 8.59109 11.2299 7.91899 11.2255L4.8961 11.0418C4.43917 11.0137 4.03665 10.7315 3.8544 10.3116L0.130546 1.70415Z" fill="white"/>
</svg>
