<svg width="87" height="33" viewBox="0 0 87 33" fill="none" xmlns="http://www.w3.org/2000/svg">
<rect opacity="0.66" x="0.771973" y="15.2617" width="2" height="2" rx="1" fill="white"/>
<rect opacity="0.66" x="6.77197" y="12.2617" width="2" height="8" rx="1" fill="white"/>
<rect opacity="0.66" x="12.772" y="9.26172" width="2" height="14" rx="1" fill="white"/>
<rect opacity="0.66" x="18.772" y="14.2617" width="2" height="4" rx="1" fill="white"/>
<rect opacity="0.66" x="24.772" y="8.26172" width="2" height="16" rx="1" fill="white"/>
<rect opacity="0.66" x="30.772" y="9.26172" width="2" height="14" rx="1" fill="white"/>
<rect opacity="0.66" x="36.772" y="11.2617" width="2" height="10" rx="1" fill="white"/>
<rect opacity="0.66" x="42.772" y="11.2617" width="2" height="10" rx="1" fill="white"/>
<rect opacity="0.66" x="48.772" y="11.2617" width="2" height="10" rx="1" fill="white"/>
<rect opacity="0.66" x="54.772" y="9.26172" width="2" height="14" rx="1" fill="white"/>
<rect opacity="0.66" x="60.772" y="11.2617" width="2" height="10" rx="1" fill="white"/>
<rect opacity="0.66" x="66.772" y="8.26172" width="2" height="16" rx="1" fill="white"/>
<rect opacity="0.66" x="72.772" y="11.2617" width="2" height="10" rx="1" fill="white"/>
<rect opacity="0.66" x="78.772" y="14.2617" width="2" height="4" rx="1" fill="white"/>
<rect opacity="0.66" x="84.772" y="15.2617" width="2" height="2" rx="1" fill="white"/>
</svg>
