<svg width="32" height="17" viewBox="0 0 32 17" fill="none" xmlns="http://www.w3.org/2000/svg">
<path d="M8.22332 16.0475C11.5929 16.0475 14.3246 13.331 14.3246 9.98015C14.3246 6.62927 11.5929 3.91284 8.22332 3.91284C4.85369 3.91284 2.12207 6.62927 2.12207 9.98015C2.12207 13.331 4.85369 16.0475 8.22332 16.0475Z" fill="url(#paint0_radial_277_100002)"/>
<path opacity="0.64" d="M6.92948 8.77228C6.92948 8.77228 6.7655 7.60041 6.04381 7.38904C5.53813 7.24093 4.289 8.04243 4.46931 9.0413C4.46931 9.0413 5.68306 9.80981 6.92948 8.77228Z" fill="url(#paint1_radial_277_100002)"/>
<path opacity="0.64" d="M9.48193 8.60637C9.48193 8.60637 9.62649 7.43052 10.3855 7.20039C10.9175 7.0392 12.2607 7.8078 12.0945 8.81111C12.0945 8.81111 10.8281 9.61096 9.48193 8.60637Z" fill="url(#paint2_radial_277_100002)"/>
<path d="M7.22604 8.59399C7.22604 8.59399 6.33978 9.48475 4.28821 8.95421C4.06567 8.91724 4.25154 9.44271 5.21482 9.56326C6.37861 9.70858 7.55758 8.69781 7.22604 8.59399Z" fill="#FFF200"/>
<path d="M7.19606 8.55078C7.19606 8.55078 6.03131 9.1754 4.3398 8.95235C4.12154 8.91355 4.28505 9.22325 5.22896 9.35095C6.36933 9.50537 7.52139 8.6567 7.19606 8.55078Z" fill="url(#paint3_radial_277_100002)"/>
<path d="M7.21707 8.54614C7.21707 8.54614 6.32602 9.47684 4.31365 8.93147C4.09548 8.89295 4.30983 9.31076 5.25375 9.43855C6.39402 9.59283 7.54226 8.65206 7.21707 8.54614Z" fill="#601B05"/>
<path d="M5.90659 6.94643C5.90659 6.94643 4.91377 6.80194 4.41895 7.54296C4.41895 7.54296 5.10751 7.03473 6.03836 7.12226C6.0695 6.97741 5.90659 6.94643 5.90659 6.94643Z" fill="url(#paint4_radial_277_100002)"/>
<path d="M5.94042 6.99777C5.94042 6.99777 4.98689 6.91977 4.39844 7.57289C4.39844 7.57289 5.07407 7.1063 6.00492 7.19382C6.13434 7.05451 5.94042 6.99777 5.94042 6.99777Z" fill="#FFF200"/>
<path d="M5.92536 6.98768C5.92536 6.98768 4.94589 6.88373 4.39111 7.57963C4.39111 7.57963 5.06707 7.06564 5.99792 7.15321C6.11584 7.04176 5.92536 6.98768 5.92536 6.98768Z" fill="#601B05"/>
<path d="M9.30678 8.54917C9.30678 8.54917 10.3008 9.31923 12.2667 8.531C12.4826 8.46585 12.3663 9.01072 11.4265 9.2533C10.2912 9.54612 8.99139 8.69443 9.30678 8.54917Z" fill="#FFF200"/>
<path d="M9.33037 8.50342C9.33037 8.50342 10.5663 8.97417 12.2147 8.53686C12.4261 8.47052 12.3041 8.79852 11.3845 9.04586C10.2736 9.34458 9.02142 8.65006 9.33037 8.50342Z" fill="url(#paint5_radial_277_100002)"/>
<path d="M9.30912 8.50049C9.30912 8.50049 10.3128 9.30976 12.2383 8.51193C12.4496 8.44559 12.291 8.88733 11.3715 9.13485C10.2605 9.43339 9.00018 8.64703 9.30912 8.50049Z" fill="#601B05"/>
<path d="M10.2023 6.75916C10.2023 6.75916 11.1535 6.44127 11.7731 7.08295C11.7731 7.08295 11.0046 6.70467 10.1043 6.95562C10.0476 6.81859 10.2023 6.75916 10.2023 6.75916Z" fill="url(#paint6_radial_277_100002)"/>
<path d="M10.1778 6.81606C10.1778 6.81606 11.102 6.57064 11.798 7.10911C11.798 7.10911 11.0499 6.76962 10.1494 7.02058C9.99713 6.90629 10.1778 6.81606 10.1778 6.81606Z" fill="#FFF200"/>
<path d="M10.1916 6.80403C10.1916 6.80403 11.1369 6.52823 11.8074 7.11483C11.8074 7.11483 11.0502 6.72872 10.1498 6.97949C10.0139 6.89082 10.1916 6.80403 10.1916 6.80403Z" fill="#601B05"/>
<path d="M2.1665 9.25543C2.71217 7.37065 3.76185 6.39204 7.53023 5.94993C9.32406 5.73952 10.8505 5.51991 11.9951 5.21332C10.9569 4.39965 9.6475 3.91284 8.22298 3.91284C5.1002 3.91289 2.52698 6.2466 2.1665 9.25543Z" fill="url(#paint7_radial_277_100002)"/>
<path d="M3.11377 3.06889C3.11377 3.06889 3.29638 1.60347 5.11229 1.12165C6.9282 0.6396 9.10703 0.708595 9.62031 1.10998C10.1336 1.51155 11.8061 1.21869 12.2533 2.24607C12.7007 3.27358 13.5852 3.77403 13.5852 3.77403C13.5852 3.77403 15.2762 4.58362 14.6865 5.99747" fill="url(#paint8_radial_277_100002)"/>
<path d="M10.585 3.22787L11.5034 2.80375C11.3272 2.29379 10.8924 1.76836 10.494 1.36414C10.1283 1.30681 9.80222 1.25159 9.62085 1.10975C9.32023 0.87463 8.44846 0.753843 7.41309 0.79072C8.6498 1.30393 10.585 3.22787 10.585 3.22787Z" fill="url(#paint9_radial_277_100002)"/>
<path d="M11.182 4.67432L9.57178 5.2508C9.57178 5.2508 12.0565 5.79855 13.1598 7.28446C13.8677 8.23799 14.1614 8.90928 14.2811 9.26839C14.0484 7.28863 12.858 5.60053 11.182 4.67432Z" fill="url(#paint10_radial_277_100002)"/>
<path d="M9.53906 4.89236C9.53906 4.89236 12.0238 5.44016 13.127 6.92602C14.2303 8.41207 14.2811 9.26874 14.2811 9.26874C14.2811 9.26874 15.3241 8.09752 14.7649 6.18867C14.2058 4.27978 12.4495 3.85034 12.4495 3.85034" fill="url(#paint11_radial_277_100002)"/>
<path d="M10.1567 5.06716C10.573 5.20231 11.1466 5.42114 11.7085 5.74013C11.6153 5.14109 11.6344 4.30469 11.6344 4.30469L10.1567 5.06716Z" fill="url(#paint12_radial_277_100002)"/>
<path d="M10.825 2.74877C10.4637 2.05799 9.45752 1.26542 8.91067 0.86705C8.844 0.855795 8.77361 0.845683 8.70068 0.83667C8.87662 0.9613 9.14457 1.15781 9.43397 1.39426C9.93629 1.80342 10.4992 2.33329 10.7377 2.79374L10.825 2.74877Z" fill="#F6D5D1"/>
<path d="M13.0195 5.5219L12.6611 4.98271L13.1111 4.51708L12.8521 3.99779C12.8019 3.97523 12.7553 3.95556 12.7128 3.93872L12.9923 4.49915L12.5355 4.97122L12.8988 5.5181L12.5005 6.03932L12.9211 6.54278L12.872 6.62344C12.8954 6.6481 12.9183 6.67336 12.9409 6.69857L13.0416 6.53381L12.626 6.03648L13.0195 5.5219ZM13.3485 5.55269L12.9902 5.0135L13.4402 4.54792L13.2796 4.22646C13.2265 4.19338 13.1742 4.16222 13.1238 4.13413L13.3211 4.52975L12.8646 5.00224L13.2277 5.54908L12.8294 6.07011L13.25 6.57376L13.0755 6.85948C13.0927 6.88144 13.1107 6.90308 13.1273 6.92541C13.1316 6.93113 13.1355 6.93667 13.1397 6.94261L13.3707 6.56474L12.9551 6.06741L13.3485 5.55269Z" fill="#DA6788"/>
<path opacity="0.45" d="M9.23619 3.50517L8.59934 3.3347L8.54541 2.68176L7.89274 2.59057L7.76377 1.94857L7.10558 1.9289L6.91018 1.3041L6.25391 1.35301L6.06067 0.92298C6.02704 0.928333 5.9935 0.933686 5.95996 0.939451L6.19226 1.45568L6.83951 1.40732L7.03256 2.02489L7.68257 2.0442L7.81011 2.67815L8.45381 2.76782L8.50686 3.41151L9.134 3.57897L9.10115 4.22344L9.69687 4.47769L9.64626 4.72192L9.74182 4.74621L9.80959 4.41935L9.20265 4.16017L9.23619 3.50517ZM9.44369 3.93561L9.47704 3.2802L8.84019 3.10987L8.78645 2.45698L8.13378 2.36579L8.00463 1.72374L7.34661 1.70425L7.15103 1.07923L6.49486 1.12795L6.38172 0.876221C6.34781 0.880613 6.31377 0.885188 6.27986 0.889992L6.43316 1.23099L7.08059 1.18244L7.27369 1.80001L7.9237 1.81932L8.05114 2.45313L8.69481 2.54276L8.74799 3.1865L9.37481 3.35432L9.34196 3.99866L9.93796 4.25286L9.83122 4.76872L9.92655 4.79279L10.0504 4.19453L9.44369 3.93561Z" fill="#DA6788"/>
<path d="M13.75 3.86518C13.6504 3.80478 13.5852 3.77344 13.5852 3.77344C13.5852 3.77344 12.7007 3.27305 12.2534 2.24549C12.1883 2.09583 12.0964 1.97481 11.9866 1.87489C11.7349 1.9179 11.4427 2.00885 11.0993 2.14858C10.0191 2.58854 8.80922 2.43527 6.93239 1.92934C5.43808 1.5268 4.43978 1.85366 3.57284 2.07844C3.17501 2.58264 3.11377 3.0683 3.11377 3.0683L10.0678 4.82809C11.9659 4.51903 13.2692 4.06795 13.75 3.86518Z" fill="url(#paint13_radial_277_100002)"/>
<path d="M11.0118 5.38086C12.3835 5.0439 14.0279 4.54867 14.3823 4.38277C14.0288 3.98632 13.5861 3.7738 13.5861 3.7738C13.5861 3.7738 12.8483 3.35461 12.3798 2.49854C12.1487 2.55477 11.8876 2.64723 11.5873 2.77914C10.4999 3.25638 9.26344 3.14516 7.33752 2.70438C5.44413 2.27105 4.35299 2.92399 3.31982 3.12068L11.0118 5.38086Z" fill="url(#paint14_radial_277_100002)"/>
<path d="M2.05582 9.09952C2.05582 9.09952 0.313611 8.22798 1.16316 5.78565C1.1154 5.01577 1.85679 2.96111 2.88595 2.78084C3.91521 2.60062 4.98873 1.92092 6.88079 2.36761C8.77275 2.81447 9.98692 2.92954 11.0527 2.45609C12.1184 1.98264 12.697 2.0041 13.0958 2.5077C13.4945 3.01135 14.2138 3.82712 13.9347 3.99896C13.6556 4.17076 11.0664 5.27954 7.13627 5.5584C3.20631 5.83726 2.64625 7.3541 2.44942 8.05558C2.27155 8.68971 2.23617 9.24611 2.05582 9.09952Z" fill="url(#paint15_radial_277_100002)"/>
<path d="M10.8243 2.54736C10.114 2.80271 9.32343 2.81511 8.30844 2.65667C6.75367 3.37896 4.93187 5.57377 4.55469 6.04182C5.19356 5.81342 6.03184 5.63718 7.13632 5.55881C7.44233 5.53703 7.73908 5.5099 8.02824 5.47892C8.26542 5.15248 8.63795 4.73274 9.20685 4.30459C10.1834 3.56975 10.6709 2.81474 10.8243 2.54736Z" fill="url(#paint16_radial_277_100002)"/>
<path d="M5.86257 2.22333L5.75206 2.54405L5.09184 2.56661L4.98142 3.2136L4.33302 3.33516L4.31609 3.99094L3.69028 4.19641L3.75464 4.84857L3.15727 5.124L3.29258 5.76468L2.72769 6.10027L2.92948 6.72338L2.4094 7.12266L2.58055 7.67481C2.59882 7.63166 2.6198 7.58691 2.64225 7.54157L2.52355 7.15853L3.0445 6.7587L2.84538 6.14438L3.40346 5.81258L3.26985 5.17996L3.85936 4.908L3.79605 4.26463L4.41261 4.06226L4.42945 3.41678L5.06708 3.29732L5.17566 2.66164L5.82337 2.63945L5.96467 2.22909C5.9303 2.22676 5.8962 2.22488 5.86257 2.22333ZM2.76827 6.57871L2.56923 5.9642L3.12709 5.63259L2.99352 4.99992L3.58308 4.72792L3.51949 4.08459L4.13628 3.882L4.15299 3.2367L4.79071 3.11706L4.8992 2.48137L5.54682 2.45936L5.62977 2.21875C5.59448 2.21893 5.55979 2.21971 5.52524 2.22044L5.47582 2.36401L4.81551 2.38634L4.70509 3.0337L4.05669 3.15508L4.03967 3.81049L3.41404 4.01614L3.47827 4.66826L2.88099 4.94387L3.01648 5.58455L2.4515 5.92014L2.65329 6.54307L2.1333 6.94235L2.41938 7.8661L2.51347 7.83723L2.24726 6.97845L2.76827 6.57871Z" fill="#DA6788"/>
<path d="M6.55718 5.61194C6.76118 5.37362 7.05775 5.03546 7.41018 4.65955C8.00268 4.0273 8.75031 3.29178 9.46377 2.76004C9.41155 2.75986 9.35924 2.75926 9.30573 2.75757C8.13495 3.65611 6.91167 5.04237 6.41455 5.62782C6.46107 5.62224 6.50956 5.6173 6.55718 5.61194Z" fill="#F6D5D1"/>
<path d="M2.65416 7.51686C1.37908 7.2332 1.26194 5.93579 1.33422 5.55256C1.67864 3.64431 3.30238 2.69014 3.30238 2.69014L3.2987 2.68726C3.15915 2.72491 3.02214 2.75758 2.88595 2.78151C1.85683 2.96177 1.11545 5.01643 1.16316 5.78631C0.313611 8.22864 2.05582 9.10018 2.05582 9.10018C2.23622 9.24677 2.27155 8.69037 2.44947 8.0562C2.49138 7.90695 2.55023 7.72042 2.65416 7.51686Z" fill="url(#paint17_radial_277_100002)"/>
<path d="M0.994141 6.40777C1.01415 7.00333 1.26955 7.86097 2.39087 8.2807C2.39864 8.24877 2.40674 8.2167 2.41507 8.18417C1.28653 7.7551 1.09398 6.8906 1.0909 6.31604C1.0909 6.13829 1.11027 5.99243 1.12747 5.89648C1.06996 6.07519 1.02538 6.24604 0.994141 6.40777Z" fill="#F6D5D1"/>
<path d="M14.6521 5.86258C14.6518 5.8618 14.6515 5.86084 14.6512 5.86011C14.6366 6.68883 14.4426 7.71693 14.0127 8.39988C14.2629 8.96333 14.2812 9.26951 14.2812 9.26951C14.2812 9.26951 15.0219 8.43749 14.9201 7.03344C14.9006 6.76931 14.8523 6.48719 14.765 6.18939C14.7481 6.13165 14.73 6.07547 14.711 6.02043C14.6924 5.96657 14.6727 5.914 14.6521 5.86258Z" fill="url(#paint18_radial_277_100002)"/>
<mask id="mask0_277_100002" style="mask-type:luminance" maskUnits="userSpaceOnUse" x="4" y="10" width="4" height="3">
<g opacity="0.72">
<path d="M7.03584 11.3392C6.95201 11.8349 6.23465 12.1279 5.43364 11.9941C4.63272 11.8598 4.05154 11.3495 4.13551 10.8541C4.21929 10.3585 4.93661 10.0652 5.73748 10.1992C6.53849 10.3333 7.11962 10.8441 7.03584 11.3392Z" fill="url(#paint19_radial_277_100002)"/>
</g>
</mask>
<g mask="url(#mask0_277_100002)">
<path opacity="0.72" d="M7.03535 11.3392C6.95153 11.8349 6.23416 12.1279 5.43315 11.9941C4.63223 11.8598 4.05105 11.3495 4.13502 10.8541C4.2188 10.3585 4.93612 10.0652 5.73699 10.1992C6.538 10.3333 7.11914 10.8441 7.03535 11.3392Z" fill="#ED1C24"/>
</g>
<mask id="mask1_277_100002" style="mask-type:luminance" maskUnits="userSpaceOnUse" x="9" y="10" width="4" height="2">
<g opacity="0.72">
<path d="M12.3644 10.6086C12.5 11.0929 11.9755 11.661 11.1933 11.8779C10.4107 12.0944 9.66679 11.8777 9.53116 11.3937C9.39543 10.9097 9.91979 10.3412 10.7021 10.1245C11.4846 9.9078 12.2288 10.125 12.3644 10.6086Z" fill="url(#paint20_radial_277_100002)"/>
</g>
</mask>
<g mask="url(#mask1_277_100002)">
<path opacity="0.72" d="M12.3644 10.6086C12.5 11.0929 11.9755 11.661 11.1933 11.8779C10.4107 12.0944 9.66679 11.8777 9.53116 11.3937C9.39543 10.9097 9.91979 10.3412 10.7021 10.1245C11.4846 9.9078 12.2288 10.125 12.3644 10.6086Z" fill="#ED1C24"/>
</g>
<path d="M11.1057 10.9146C11.1274 10.9651 9.88758 11.915 8.25901 11.9378C6.63086 11.9821 5.35269 11.084 5.37229 11.0326C5.38306 10.9578 6.65446 11.5024 8.24898 11.4575C9.8441 11.4368 11.0919 10.8403 11.1057 10.9146Z" fill="#FFF200"/>
<path d="M11.1406 10.8663C11.1622 10.9187 9.88472 11.7679 8.2562 11.7902C6.62805 11.8349 5.36548 11.0379 5.38499 10.9848C5.39575 10.9074 6.63334 11.2654 8.22795 11.2198C9.82293 11.1997 11.1266 10.7894 11.1406 10.8663Z" fill="url(#paint21_radial_277_100002)"/>
<path d="M11.1063 10.9136C11.1278 10.9564 9.88512 11.7667 8.2566 11.791C6.62836 11.8336 5.35314 11.0753 5.37278 11.0316C5.38387 10.9679 6.65343 11.4264 8.24804 11.3833C9.84312 11.3608 11.0926 10.8505 11.1063 10.9136Z" fill="#601B05"/>
<mask id="mask2_277_100002" style="mask-type:luminance" maskUnits="userSpaceOnUse" x="3" y="10" width="10" height="7">
<g opacity="0.87">
<path d="M8.11224 16.212C5.65565 16.1285 3.70599 14.6865 3.75683 12.9914C3.80845 11.2963 5.84231 9.98985 8.29963 10.0734C10.7558 10.1568 12.7063 11.5986 12.6547 13.2938C12.603 14.9889 10.5692 16.2955 8.11224 16.212Z" fill="url(#paint22_radial_277_100002)"/>
</g>
</mask>
<g mask="url(#mask2_277_100002)">
<path opacity="0.87" d="M8.11175 16.8001C5.65516 16.7087 3.7055 15.1286 3.75634 13.2712C3.80796 11.4138 5.84182 9.98221 8.29914 10.0737C10.7553 10.1652 12.7058 11.745 12.6542 13.6025C12.6026 15.4599 10.5687 16.8916 8.11175 16.8001Z" fill="#ED1C24"/>
</g>
<path d="M4.71018 11.1086C4.71018 11.1086 4.52693 10.5879 4.08189 10.5879C3.63675 10.5879 3.85934 12.0589 3.99019 12.7488" fill="url(#paint23_radial_277_100002)"/>
<path d="M6.56445 16.0081C6.56445 16.0081 5.30782 16.1123 4.22565 13.6823C3.80674 12.6409 4.12093 11.8078 4.5398 10.9747C4.9587 10.1415 5.62183 8.9265 6.0757 10.0026C6.5645 9.3778 7.21027 9.95063 6.93542 10.4453C7.45895 10.1675 7.79937 10.8618 7.52451 11.2784C8.03502 11.2393 8.17024 11.7731 7.96067 12.2244C7.75129 12.6755 7.36735 13.2657 7.61165 13.9947C7.85609 14.7238 8.44947 16.2511 6.56445 16.0081Z" fill="url(#paint24_radial_277_100002)"/>
<path d="M7.52473 11.278C7.54397 11.2487 7.55942 11.218 7.57286 11.1865C7.25908 11.6377 6.71659 12.449 6.63557 12.7892C6.55667 13.1169 6.53017 13.34 6.52998 13.3416C6.52653 13.3701 6.5471 13.396 6.57608 13.3996C6.57811 13.3998 6.58031 13.3999 6.58234 13.3999C6.60829 13.3999 6.63097 13.3805 6.63415 13.3539C6.63415 13.3532 6.65991 13.1358 6.73766 12.8132C6.78427 12.6036 7.07192 12.1233 7.34581 11.7085C7.4485 11.5523 7.54926 11.4042 7.63515 11.28C7.60028 11.2766 7.56393 11.275 7.52473 11.278ZM7.04615 10.4007C7.01031 10.411 6.97369 10.4247 6.93564 10.4449C6.96168 10.398 6.97935 10.3505 6.98984 10.3033C6.6779 10.7076 5.89138 11.7492 5.79803 12.1384C5.71894 12.4659 5.6923 12.6893 5.6923 12.6907C5.68894 12.7193 5.70923 12.7452 5.73827 12.7487C5.7402 12.7489 5.74231 12.749 5.7442 12.749C5.77052 12.749 5.79329 12.7295 5.79656 12.7031C5.79656 12.7023 5.82205 12.4849 5.89989 12.1623C5.94526 11.9557 6.27238 11.4541 6.58556 11.0202C6.7597 10.7776 6.92947 10.5528 7.04615 10.4007ZM6.02403 9.89185C5.82375 10.1487 5.25145 10.9076 4.88568 11.6455C4.77604 11.9181 4.71117 12.3088 4.71066 12.3105C4.70597 12.3391 4.72529 12.366 4.75373 12.371C4.75663 12.3714 4.75948 12.3716 4.76238 12.3716C4.78754 12.3716 4.80995 12.3536 4.81414 12.328C4.81414 12.3271 4.87979 11.9395 4.98129 11.6878C5.32216 10.9994 5.85255 10.2853 6.07404 9.99808C6.05766 9.95942 6.04086 9.92451 6.02403 9.89185Z" fill="#EC8F23"/>
<path d="M11.5264 11.1433C11.5264 11.1433 11.7096 10.6226 12.1547 10.6226C12.5997 10.6226 12.3772 12.0936 12.2463 12.7835" fill="url(#paint25_radial_277_100002)"/>
<path d="M9.67209 16.0418C9.67209 16.0418 10.9287 16.1459 12.0109 13.716C12.4298 12.6745 12.1157 11.8415 11.6968 11.0083C11.2779 10.1751 10.6148 8.96022 10.1609 10.0363C9.67209 9.41148 9.02632 9.98435 9.30113 10.479C8.7776 10.2012 8.43718 10.8956 8.71208 11.3121C8.20148 11.273 8.0663 11.8068 8.27583 12.2581C8.48521 12.7092 8.86911 13.2994 8.62485 14.0284C8.38049 14.7574 7.78708 16.2847 9.67209 16.0418Z" fill="url(#paint26_radial_277_100002)"/>
<path d="M8.60156 11.3146C8.68746 11.4389 8.78817 11.587 8.89091 11.7431C9.1648 12.1579 9.45245 12.6382 9.49914 12.8478C9.57681 13.1706 9.60253 13.3879 9.60253 13.3886C9.60575 13.4152 9.62843 13.4346 9.65438 13.4346C9.65636 13.4346 9.65861 13.4345 9.66059 13.4343C9.68962 13.4308 9.71019 13.4049 9.70678 13.3763C9.70655 13.3747 9.6801 13.1515 9.60101 12.8239C9.52012 12.4837 8.97759 11.6724 8.66386 11.2212C8.67734 11.2527 8.69289 11.2834 8.71208 11.3127C8.67274 11.3097 8.63644 11.3112 8.60156 11.3146ZM9.6512 11.0549C9.96429 11.4887 10.2916 11.9904 10.3369 12.197C10.4147 12.5196 10.4402 12.7369 10.4402 12.7378C10.4435 12.7642 10.4662 12.7836 10.4926 12.7836C10.4945 12.7836 10.4966 12.7835 10.4985 12.7834C10.5276 12.7799 10.5478 12.754 10.5445 12.7253C10.5445 12.7239 10.5179 12.5006 10.4388 12.1731C10.3453 11.7838 9.55886 10.7422 9.24693 10.3379C9.25742 10.3851 9.27508 10.4326 9.30112 10.4796C9.26307 10.4594 9.22641 10.4457 9.19066 10.4353C9.30724 10.5875 9.47711 10.8122 9.6512 11.0549ZM10.1626 10.0328C10.3842 10.3199 10.9146 11.034 11.2554 11.7225C11.357 11.9741 11.4225 12.3619 11.4225 12.3627C11.4268 12.3882 11.4491 12.4063 11.4743 12.4063C11.4772 12.4063 11.4801 12.4061 11.483 12.4056C11.5116 12.4006 11.5308 12.3738 11.5261 12.3452C11.5256 12.3435 11.4607 11.9528 11.3511 11.6801C10.9853 10.9423 10.413 10.1834 10.2128 9.92651C10.1959 9.95923 10.1791 9.99409 10.1626 10.0328Z" fill="#EC8F23"/>
<path d="M23.9971 15.0487C27.2626 15.0487 29.9097 12.4015 29.9097 9.13603C29.9097 5.87057 27.2626 3.22339 23.9971 3.22339C20.7316 3.22339 18.0845 5.87057 18.0845 9.13603C18.0845 12.4015 20.7316 15.0487 23.9971 15.0487Z" fill="url(#paint27_radial_277_100002)"/>
<mask id="mask3_277_100002" style="mask-type:luminance" maskUnits="userSpaceOnUse" x="20" y="8" width="4" height="3">
<g opacity="0.72">
<path d="M23.0139 9.37487C22.9326 9.85792 22.2373 10.1434 21.4612 10.013C20.685 9.88213 20.1218 9.38486 20.2031 8.90204C20.2843 8.41913 20.9795 8.1332 21.7556 8.26379C22.5318 8.39452 23.095 8.89227 23.0139 9.37487Z" fill="url(#paint28_radial_277_100002)"/>
</g>
</mask>
<g mask="url(#mask3_277_100002)">
<path opacity="0.72" d="M23.0139 9.37487C22.9326 9.85792 22.2373 10.1434 21.4612 10.013C20.685 9.88213 20.1218 9.38486 20.2031 8.90204C20.2843 8.41913 20.9795 8.1332 21.7556 8.26379C22.5318 8.39452 23.095 8.89227 23.0139 9.37487Z" fill="#ED1C24"/>
</g>
<mask id="mask4_277_100002" style="mask-type:luminance" maskUnits="userSpaceOnUse" x="25" y="8" width="4" height="2">
<g opacity="0.72">
<path d="M28.1784 8.66418C28.3098 9.13608 27.8017 9.68979 27.0435 9.90108C26.2852 10.1121 25.5641 9.9009 25.4328 9.42932C25.3013 8.9576 25.8094 8.40366 26.5675 8.19241C27.3258 7.9813 28.0469 8.1929 28.1784 8.66418Z" fill="url(#paint29_radial_277_100002)"/>
</g>
</mask>
<g mask="url(#mask4_277_100002)">
<path opacity="0.72" d="M28.1779 8.66393C28.3093 9.13583 27.8012 9.68955 27.043 9.90084C26.2847 10.1119 25.5636 9.90066 25.4323 9.42907C25.3009 8.95735 25.809 8.40342 26.5671 8.19217C27.3253 7.98106 28.0465 8.19266 28.1779 8.66393Z" fill="#ED1C24"/>
</g>
<path d="M26.9598 8.96181C26.9807 9.01104 25.7792 9.9366 24.2011 9.95885C22.6232 10.002 21.3846 9.12683 21.4035 9.07671C21.4141 9.00377 22.6461 9.53456 24.1914 9.49078C25.7371 9.47067 26.9462 8.88936 26.9598 8.96181Z" fill="#FFF200"/>
<path d="M26.9935 8.91606C27.0144 8.96712 25.7763 9.79463 24.1982 9.81657C22.6204 9.85995 21.3968 9.0834 21.4157 9.03159C21.4263 8.95615 22.6255 9.30503 24.1708 9.26071C25.7165 9.24101 26.9799 8.8412 26.9935 8.91606Z" fill="url(#paint30_radial_277_100002)"/>
<path d="M26.9594 8.95985C26.9801 9.00163 25.7759 9.79116 24.1977 9.81492C22.6199 9.85643 21.3841 9.11742 21.403 9.07479C21.4139 9.01282 22.6441 9.4597 24.1895 9.41757C25.7352 9.39572 26.946 8.89837 26.9594 8.95985Z" fill="#601B05"/>
<path d="M22.5154 5.46396C22.5154 5.46396 21.5533 5.3232 21.0737 6.04527C21.0737 6.04527 21.741 5.55005 22.6431 5.63534C22.6732 5.49414 22.5154 5.46396 22.5154 5.46396Z" fill="url(#paint31_radial_277_100002)"/>
<path d="M22.5475 5.51356C22.5475 5.51356 21.6235 5.43759 21.0532 6.07401C21.0532 6.07401 21.7079 5.61941 22.61 5.70466C22.7354 5.56885 22.5475 5.51356 22.5475 5.51356Z" fill="#FFF200"/>
<path d="M22.5332 5.50463C22.5332 5.50463 21.584 5.40333 21.0464 6.08148C21.0464 6.08148 21.7015 5.58065 22.6036 5.66594C22.7178 5.55733 22.5332 5.50463 22.5332 5.50463Z" fill="#601B05"/>
<path d="M25.3429 5.54268C25.3429 5.54268 26.262 5.22519 26.8675 5.84538C26.8675 5.84538 26.1197 5.48298 25.2493 5.73485C25.1935 5.60172 25.3429 5.54268 25.3429 5.54268Z" fill="url(#paint32_radial_277_100002)"/>
<path d="M25.3191 5.59886C25.3191 5.59886 26.2129 5.35216 26.8916 5.87132C26.8916 5.87132 26.1638 5.54647 25.2933 5.79829C25.1448 5.68825 25.3191 5.59886 25.3191 5.59886Z" fill="#FFF200"/>
<path d="M25.3329 5.58671C25.3329 5.58671 26.2466 5.31037 26.9012 5.87661C26.9012 5.87661 26.1643 5.5065 25.2938 5.75823C25.1614 5.67281 25.3329 5.58671 25.3329 5.58671Z" fill="#601B05"/>
<mask id="mask5_277_100002" style="mask-type:luminance" maskUnits="userSpaceOnUse" x="18" y="11" width="6" height="5">
<g opacity="0.87">
<path d="M23.5902 14.9316C23.2327 15.6992 21.8506 15.8131 20.5034 15.1854C19.1561 14.5578 18.354 13.4266 18.7116 12.6589C19.0691 11.8913 20.4513 11.7775 21.7983 12.4051C23.1458 13.0327 23.9479 14.164 23.5902 14.9316Z" fill="url(#paint33_radial_277_100002)"/>
</g>
</mask>
<g mask="url(#mask5_277_100002)">
<path opacity="0.87" d="M23.5902 14.9316C23.2327 15.6992 21.8506 15.8131 20.5034 15.1854C19.1561 14.5578 18.354 13.4266 18.7116 12.6589C19.0691 11.8913 20.4513 11.7775 21.7983 12.4051C23.1458 13.0327 23.9479 14.164 23.5902 14.9316Z" fill="#ED1C24"/>
</g>
<mask id="mask6_277_100002" style="mask-type:luminance" maskUnits="userSpaceOnUse" x="22" y="10" width="7" height="6">
<g opacity="0.87">
<path d="M28.4097 12.0218C28.7647 13.1168 27.8139 14.4064 26.2858 14.9019C24.7577 15.3974 23.2311 14.9109 22.8761 13.8159C22.521 12.721 23.4718 11.4313 24.9999 10.9359C26.5279 10.4405 28.0547 10.9268 28.4097 12.0218Z" fill="url(#paint34_radial_277_100002)"/>
</g>
</mask>
<g mask="url(#mask6_277_100002)">
<path opacity="0.87" d="M28.4092 12.0218C28.7642 13.1168 27.8134 14.4064 26.2853 14.9019C24.7573 15.3974 23.2306 14.9109 22.8756 13.8159C22.5205 12.721 23.4713 11.4313 24.9994 10.9359C26.5275 10.4405 28.0542 10.9268 28.4092 12.0218Z" fill="#ED1C24"/>
</g>
<path d="M18.1274 8.42978C18.6562 6.59306 19.6735 5.63941 23.3253 5.20862C25.0636 5.00353 26.5429 4.78956 27.6522 4.49075C26.6461 3.69783 25.3772 3.22339 23.9967 3.22339C20.9704 3.22343 18.4768 5.49768 18.1274 8.42978Z" fill="url(#paint35_radial_277_100002)"/>
<path d="M19.0459 2.40055C19.0459 2.40055 19.2229 0.972501 20.9827 0.502921C22.7424 0.0331634 24.8538 0.100444 25.3512 0.491552C25.8486 0.882883 27.4695 0.597533 27.9029 1.59867C28.3364 2.60002 29.1936 3.08766 29.1936 3.08766C29.1936 3.08766 30.8323 3.87665 30.2608 5.25441" fill="url(#paint36_radial_277_100002)"/>
<path d="M26.2862 2.55595L27.1762 2.14264C27.0055 1.64568 26.5841 1.13366 26.1979 0.739698C25.8437 0.683876 25.5276 0.630016 25.3518 0.4918C25.0605 0.262717 24.2157 0.144965 23.2124 0.180946C24.4109 0.681067 26.2862 2.55595 26.2862 2.55595Z" fill="url(#paint37_radial_277_100002)"/>
<path d="M26.8655 3.96436L25.3052 4.52614C25.3052 4.52614 27.713 5.05997 28.7821 6.5079C29.4682 7.4372 29.7528 8.09132 29.8689 8.44128C29.6432 6.51204 28.4897 4.867 26.8655 3.96436Z" fill="url(#paint38_radial_277_100002)"/>
<path d="M25.2725 4.17682C25.2725 4.17682 27.6803 4.7107 28.7494 6.15867C29.8186 7.60682 29.8679 8.44161 29.8679 8.44161C29.8679 8.44161 30.8787 7.30021 30.3367 5.44008C29.7949 3.57991 28.0929 3.16138 28.0929 3.16138" fill="url(#paint39_radial_277_100002)"/>
<path d="M25.8711 4.34772C26.2745 4.47942 26.8303 4.69268 27.3749 5.00353C27.2846 4.41981 27.303 3.60474 27.303 3.60474L25.8711 4.34772Z" fill="url(#paint40_radial_277_100002)"/>
<path d="M26.5196 2.08795C26.1693 1.41479 25.1944 0.64238 24.6644 0.254214C24.5998 0.243202 24.5316 0.233348 24.4609 0.224609C24.6314 0.346062 24.8911 0.537514 25.1715 0.767934C25.6583 1.16667 26.2038 1.68302 26.4349 2.13173L26.5196 2.08795Z" fill="#F6D5D1"/>
<path d="M28.645 4.79086L28.2977 4.26541L28.7338 3.81166L28.4829 3.30561C28.4343 3.28358 28.3891 3.26441 28.3478 3.24805L28.6187 3.79414L28.1761 4.25422L28.5282 4.78707L28.1421 5.29499L28.5497 5.78561L28.502 5.86426C28.5248 5.8883 28.547 5.91286 28.5689 5.93747L28.6665 5.77688L28.2637 5.29227L28.645 4.79086ZM28.9639 4.82077L28.6166 4.29533L29.0528 3.84158L28.8972 3.52836C28.8457 3.49612 28.7951 3.46576 28.7461 3.43838L28.9373 3.82388L28.495 4.28436L28.8469 4.81721L28.4608 5.32495L28.8685 5.81575L28.6994 6.09424C28.716 6.11559 28.7334 6.13668 28.7495 6.15849C28.7537 6.16406 28.7576 6.16945 28.7616 6.17521L28.9854 5.80702L28.5826 5.32237L28.9639 4.82077Z" fill="#DA6788"/>
<path opacity="0.45" d="M24.9791 2.82574L24.362 2.65957L24.3097 2.02328L23.6772 1.93446L23.5522 1.30883L22.9143 1.28962L22.725 0.680751L22.0891 0.728413L21.9018 0.309305C21.8692 0.314521 21.8367 0.319782 21.8042 0.325356L22.0293 0.828375L22.6565 0.781292L22.8436 1.38307L23.4735 1.40188L23.5971 2.01971L24.2208 2.10706L24.2723 2.73438L24.88 2.89752L24.8483 3.52565L25.4256 3.77341L25.3766 4.0115L25.4691 4.03509L25.5348 3.71657L24.9466 3.46403L24.9791 2.82574ZM25.1802 3.2452L25.2125 2.60646L24.5953 2.44056L24.5433 1.80427L23.9108 1.71541L23.7856 1.08978L23.1479 1.07079L22.9584 0.461744L22.3225 0.509228L22.2129 0.263916C22.1801 0.268241 22.147 0.27261 22.1142 0.277336L22.2627 0.609636L22.8901 0.562286L23.0772 1.16406L23.7071 1.18292L23.8307 1.80057L24.4544 1.88792L24.5059 2.51524L25.1134 2.67878L25.0815 3.30664L25.6591 3.55436L25.5557 4.05707L25.648 4.08052L25.7681 3.49756L25.1802 3.2452Z" fill="#DA6788"/>
<path d="M29.3538 3.17722C29.2572 3.11836 29.1941 3.08782 29.1941 3.08782C29.1941 3.08782 28.3369 2.60018 27.9034 1.59883C27.8403 1.45299 27.7514 1.33506 27.6449 1.23764C27.401 1.27955 27.1178 1.36823 26.785 1.50435C25.7382 1.93313 24.5657 1.78377 22.7469 1.29069C21.2988 0.898426 20.3314 1.21695 19.4913 1.436C19.1057 1.92734 19.0464 2.40066 19.0464 2.40066L25.7854 4.11557C27.6248 3.81439 28.8878 3.37478 29.3538 3.17722Z" fill="url(#paint41_radial_277_100002)"/>
<path d="M26.6993 4.65351C28.0286 4.32518 29.622 3.84258 29.9655 3.68087C29.6229 3.29462 29.194 3.08747 29.194 3.08747C29.194 3.08747 28.4791 2.67897 28.0249 1.84473C27.8011 1.89952 27.548 1.98963 27.257 2.11817C26.2032 2.58329 25.005 2.47482 23.1386 2.04536C21.3038 1.62309 20.2463 2.25933 19.2451 2.45101L26.6993 4.65351Z" fill="url(#paint42_radial_277_100002)"/>
<path d="M18.021 8.27788C18.021 8.27788 16.3327 7.42847 17.1559 5.04847C17.1096 4.29822 17.8281 2.29591 18.8255 2.12024C19.8229 1.94466 20.8632 1.28229 22.6967 1.71763C24.5302 2.15306 25.7068 2.26524 26.7396 1.80386C27.7724 1.34248 28.3331 1.36335 28.7195 1.85411C29.1059 2.34491 29.803 3.13992 29.5325 3.30739C29.2621 3.47481 26.7529 4.55531 22.9444 4.82706C19.1359 5.09885 18.5931 6.57697 18.4024 7.26052C18.2301 7.87852 18.1958 8.42073 18.021 8.27788Z" fill="url(#paint43_radial_277_100002)"/>
<path d="M26.5182 1.89258C25.8298 2.14141 25.0637 2.15354 24.0801 1.99914C22.5734 2.70297 20.8079 4.84181 20.4424 5.29797C21.0615 5.07539 21.8739 4.9036 22.9442 4.82727C23.2407 4.80601 23.5284 4.77961 23.8086 4.74943C24.0384 4.43126 24.3993 4.02227 24.9507 3.60504C25.8971 2.88885 26.3695 2.15314 26.5182 1.89258Z" fill="url(#paint44_radial_277_100002)"/>
<path d="M21.7092 1.57584L21.602 1.88843L20.9623 1.91032L20.8553 2.54086L20.2269 2.65932L20.2105 3.29837L19.604 3.49861L19.6664 4.13409L19.0875 4.40254L19.2186 5.02688L18.6712 5.35396L18.8668 5.96118L18.3628 6.35028L18.5286 6.88835C18.5463 6.8463 18.5667 6.8027 18.5884 6.75856L18.4734 6.38528L18.9783 5.99565L18.7853 5.39699L19.3261 5.07361L19.1966 4.45707L19.7679 4.19205L19.7065 3.56509L20.304 3.36784L20.3203 2.73886L20.9382 2.62245L21.0434 2.00293L21.6711 1.98135L21.808 1.58145C21.7748 1.57914 21.7417 1.57735 21.7092 1.57584ZM18.7106 5.82011L18.5177 5.22128L19.0583 4.89812L18.9289 4.28163L19.5002 4.01661L19.4385 3.38964L20.0363 3.19217L20.0525 2.56333L20.6704 2.44674L20.7755 1.82721L21.4032 1.80586L21.4835 1.57129C21.4493 1.57147 21.4157 1.57223 21.3822 1.57298L21.3343 1.71285L20.6945 1.73465L20.5875 2.3655L19.9591 2.48379L19.9426 3.12248L19.3363 3.32285L19.3986 3.95838L18.8197 4.22696L18.951 4.85126L18.4036 5.17834L18.5991 5.78538L18.0952 6.17448L18.3725 7.07467L18.4636 7.04654L18.2057 6.20961L18.7106 5.82011Z" fill="#DA6788"/>
<path d="M22.3828 4.8792C22.5806 4.64695 22.868 4.31746 23.2095 3.9511C23.7837 3.33496 24.5082 2.6182 25.1996 2.10002C25.149 2.09984 25.0983 2.09926 25.0465 2.09766C23.9118 2.97324 22.7264 4.32419 22.2446 4.89462C22.2897 4.88927 22.3367 4.88446 22.3828 4.8792Z" fill="#F6D5D1"/>
<path d="M18.6008 6.73522C17.3651 6.45883 17.2516 5.19446 17.3217 4.82105C17.6554 2.96146 19.229 2.03162 19.229 2.03162L19.2254 2.02881C19.0902 2.0655 18.9574 2.09734 18.8255 2.12061C17.8281 2.29628 17.1096 4.29859 17.1559 5.04884C16.3327 7.42884 18.021 8.27825 18.021 8.27825C18.1958 8.4211 18.23 7.87889 18.4025 7.26089C18.4431 7.1154 18.5 6.93362 18.6008 6.73522Z" fill="url(#paint45_radial_277_100002)"/>
<path d="M16.9927 5.65425C17.0121 6.23468 17.2596 7.07035 18.3462 7.47938C18.3538 7.44835 18.3616 7.41705 18.3697 7.38535C17.2761 6.96722 17.0894 6.12477 17.0864 5.56486C17.0864 5.39164 17.1053 5.24955 17.1219 5.15601C17.0662 5.33016 17.0229 5.49669 16.9927 5.65425Z" fill="#F6D5D1"/>
<path d="M30.2276 5.12208C30.2273 5.12128 30.2269 5.12039 30.2267 5.11963C30.2125 5.92726 30.0245 6.92915 29.6079 7.59469C29.8504 8.14372 29.8682 8.44213 29.8682 8.44213C29.8682 8.44213 30.5859 7.63134 30.4873 6.26313C30.4684 6.00573 30.4215 5.73077 30.3369 5.4406C30.3206 5.38434 30.3031 5.32963 30.2846 5.27595C30.2666 5.22338 30.2475 5.1722 30.2276 5.12208Z" fill="url(#paint46_radial_277_100002)"/>
<mask id="mask7_277_100002" style="mask-type:luminance" maskUnits="userSpaceOnUse" x="19" y="12" width="5" height="5">
<g opacity="0.87">
<path d="M23.2981 15.6168C22.9002 16.1848 21.8634 16.1452 20.9825 15.5281C20.1016 14.9111 19.7104 13.9503 20.1083 13.3824C20.506 12.8144 21.5428 12.8539 22.4237 13.4709C23.3044 14.0879 23.6958 15.0488 23.2981 15.6168Z" fill="url(#paint47_radial_277_100002)"/>
</g>
</mask>
<g mask="url(#mask7_277_100002)">
<path opacity="0.87" d="M23.2981 15.6168C22.9002 16.1848 21.8634 16.1452 20.9825 15.5281C20.1016 14.9111 19.7104 13.9503 20.1083 13.3824C20.506 12.8144 21.5428 12.8539 22.4237 13.4709C23.3044 14.0879 23.6958 15.0488 23.2981 15.6168Z" fill="#ED1C24"/>
</g>
<mask id="mask8_277_100002" style="mask-type:luminance" maskUnits="userSpaceOnUse" x="25" y="12" width="3" height="4">
<g opacity="0.87">
<path d="M26.795 12.514C27.1903 12.6388 27.2723 13.4974 26.9776 14.4319C26.6829 15.3662 26.1233 16.0227 25.7278 15.8979C25.3323 15.7732 25.2504 14.9146 25.5451 13.9802C25.8398 13.0457 26.3994 12.3893 26.795 12.514Z" fill="url(#paint48_radial_277_100002)"/>
</g>
</mask>
<g mask="url(#mask8_277_100002)">
<path opacity="0.87" d="M26.795 12.514C27.1903 12.6388 27.2723 13.4974 26.9776 14.4319C26.6829 15.3662 26.1233 16.0227 25.7278 15.8979C25.3323 15.7732 25.2504 14.9146 25.5451 13.9802C25.8398 13.0457 26.3994 12.3893 26.795 12.514Z" fill="#ED1C24"/>
</g>
<path d="M23.2666 6.73074C23.6777 7.34995 23.5995 8.15089 23.0206 8.42572C22.4436 8.70287 21.665 8.45533 21.353 7.96666C21.039 7.47568 21.2299 6.82361 21.7079 6.41578C22.188 6.01018 22.8538 6.10899 23.2666 6.73074Z" fill="url(#paint49_radial_277_100002)"/>
<path d="M23.3404 6.82424C23.7513 7.44345 23.6733 8.24439 23.0943 8.51909C22.5174 8.79619 21.7389 8.54874 21.4268 8.06025C21.1127 7.56923 21.3036 6.91698 21.7816 6.50919C22.2617 6.10368 22.9276 6.20258 23.3404 6.82424Z" fill="#FFF200"/>
<path d="M23.2544 6.80497C23.6472 7.3969 23.5725 8.1623 23.0192 8.42505C22.4678 8.68984 21.7236 8.45323 21.4253 7.98623C21.1252 7.51705 21.3076 6.89361 21.7646 6.50379C22.2234 6.11621 22.8597 6.21077 23.2544 6.80497Z" fill="url(#paint50_radial_277_100002)"/>
<path d="M22.9051 6.43896C23.0061 6.51793 23.1011 6.61896 23.183 6.74237C23.5717 7.32556 23.5047 8.09694 22.9527 8.36477C22.5453 8.57192 22.0224 8.48876 21.6777 8.25941C22.024 8.51997 22.5799 8.62528 23.0095 8.41016C23.5635 8.14447 23.6297 7.37255 23.238 6.78553C23.1411 6.63969 23.0268 6.52314 22.9051 6.43896Z" fill="url(#paint51_radial_277_100002)"/>
<path d="M23.0801 7.0669C23.3386 7.37944 23.2848 7.85067 22.9601 8.11931C22.6353 8.38807 22.1625 8.35249 21.904 8.03999C21.6453 7.72744 21.6989 7.25639 22.0238 6.98762C22.3486 6.71881 22.8213 6.75435 23.0801 7.0669Z" fill="url(#paint52_radial_277_100002)"/>
<path d="M22.8726 7.23933C23.0395 7.44131 23.0049 7.74583 22.795 7.91954C22.5852 8.09307 22.2795 8.0701 22.1125 7.86795C21.9456 7.66624 21.9801 7.36163 22.1898 7.1881C22.3997 7.01449 22.7053 7.03745 22.8726 7.23933Z" fill="#3C2415"/>
<path d="M22.2167 7.07833C22.3173 7.1997 22.2963 7.38286 22.17 7.48737C22.0438 7.59214 21.86 7.57796 21.7593 7.45669C21.659 7.33501 21.6797 7.15177 21.806 7.04744C21.9324 6.94306 22.1162 6.95666 22.2167 7.07833Z" fill="#F2F2F2"/>
<path d="M22.947 7.37378C22.9884 7.42336 22.9797 7.49808 22.9282 7.54053C22.8768 7.58338 22.8017 7.57763 22.7607 7.52818C22.7199 7.47865 22.7283 7.40396 22.7798 7.36121C22.8313 7.31885 22.9061 7.32442 22.947 7.37378Z" fill="#F2F2F2"/>
<path d="M25.2504 6.66823C24.8393 7.28744 24.9175 8.08838 25.4965 8.36321C26.0735 8.64035 26.852 8.39281 27.164 7.90415C27.4781 7.41317 27.2871 6.7611 26.8091 6.35327C26.329 5.94767 25.6632 6.04652 25.2504 6.66823Z" fill="url(#paint53_radial_277_100002)"/>
<path d="M25.1766 6.76079C24.7656 7.38 24.8437 8.18095 25.4227 8.45569C25.9995 8.73274 26.7781 8.48529 27.0902 7.99681C27.4042 7.50578 27.2134 6.85353 26.7353 6.44575C26.2553 6.04019 25.5894 6.13909 25.1766 6.76079Z" fill="#FFF200"/>
<path d="M25.2623 6.7402C24.8696 7.33213 24.9442 8.09753 25.4976 8.36032C26.049 8.62508 26.7931 8.38846 27.0915 7.92146C27.3915 7.45229 27.2091 6.82884 26.7521 6.43902C26.2933 6.05157 25.657 6.14605 25.2623 6.7402Z" fill="url(#paint54_radial_277_100002)"/>
<path d="M25.6117 6.37476C25.5107 6.45372 25.4157 6.55475 25.3338 6.67816C24.9451 7.26135 25.0121 8.03273 25.5641 8.30056C25.9715 8.50771 26.4944 8.42455 26.8391 8.1952C26.4928 8.45576 25.9368 8.56108 25.5073 8.34595C24.9533 8.08026 24.8871 7.30834 25.2788 6.72132C25.3757 6.57553 25.49 6.45893 25.6117 6.37476Z" fill="url(#paint55_radial_277_100002)"/>
<path d="M25.4361 7.00366C25.1775 7.31621 25.2313 7.78744 25.556 8.05607C25.8808 8.32488 26.3536 8.28925 26.6121 7.97675C26.8708 7.6642 26.8172 7.19315 26.4923 6.92439C26.1675 6.65562 25.6947 6.69107 25.4361 7.00366Z" fill="url(#paint56_radial_277_100002)"/>
<path d="M25.6442 7.17512C25.4773 7.3771 25.5119 7.68162 25.7217 7.85533C25.9315 8.02886 26.2373 8.0059 26.4043 7.80374C26.5712 7.60204 26.5367 7.29742 26.3269 7.1239C26.117 6.95028 25.8114 6.97324 25.6442 7.17512Z" fill="#3C2415"/>
<path d="M26.3242 7.07102C26.2153 7.20224 26.2381 7.40043 26.3747 7.51341C26.5113 7.62674 26.71 7.61145 26.8189 7.48028C26.9275 7.34857 26.905 7.15048 26.7684 7.03745C26.6318 6.92465 26.4329 6.93936 26.3242 7.07102Z" fill="#F2F2F2"/>
<path d="M25.5686 7.31034C25.5273 7.35996 25.536 7.43464 25.5875 7.47709C25.639 7.51993 25.7139 7.51418 25.755 7.46474C25.7958 7.41525 25.7873 7.34052 25.7359 7.29776C25.6844 7.25536 25.6095 7.26093 25.5686 7.31034Z" fill="#F2F2F2"/>
<mask id="mask9_277_100002" style="mask-type:luminance" maskUnits="userSpaceOnUse" x="19" y="9" width="6" height="6">
<g opacity="0.87">
<path d="M22.0207 14.0463C20.8504 14.0088 19.9345 12.9595 19.9744 11.7028C20.0149 10.4461 20.9967 9.45791 22.1672 9.49568C23.3372 9.53317 24.2535 10.5823 24.213 11.839C24.1727 13.0956 23.1909 14.084 22.0207 14.0463Z" fill="url(#paint57_radial_277_100002)"/>
</g>
</mask>
<g mask="url(#mask9_277_100002)">
<path opacity="0.87" d="M22.0202 14.0466C20.8499 14.009 19.934 12.9598 19.9739 11.7031C20.0144 10.4464 20.9962 9.45816 22.1667 9.49592C23.3367 9.53342 24.253 10.5825 24.2125 11.8393C24.1722 13.0959 23.1904 14.0843 22.0202 14.0466Z" fill="#ED1C24"/>
</g>
<mask id="mask10_277_100002" style="mask-type:luminance" maskUnits="userSpaceOnUse" x="22" y="9" width="5" height="5">
<g opacity="0.87">
<path d="M24.1828 13.6636C23.0125 13.6259 22.0966 12.5768 22.1365 11.32C22.177 10.0633 23.1588 9.07518 24.3293 9.11286C25.4993 9.15044 26.4156 10.1995 26.3751 11.4562C26.3348 12.7128 25.353 13.7012 24.1828 13.6636Z" fill="url(#paint58_radial_277_100002)"/>
</g>
</mask>
<g mask="url(#mask10_277_100002)">
<path opacity="0.87" d="M24.1828 13.6636C23.0125 13.6259 22.0966 12.5768 22.1365 11.32C22.177 10.0633 23.1588 9.07518 24.3293 9.11286C25.4993 9.15044 26.4156 10.1995 26.3751 11.4562C26.3348 12.7128 25.353 13.7012 24.1828 13.6636Z" fill="#ED1C24"/>
</g>
<mask id="mask11_277_100002" style="mask-type:luminance" maskUnits="userSpaceOnUse" x="25" y="9" width="5" height="6">
<g opacity="0.87">
<path d="M27.3966 14.1885C26.125 14.1476 25.1298 13.0075 25.1732 11.6421C25.2173 10.2766 26.284 9.20284 27.556 9.24381C28.8272 9.28461 29.8227 10.4245 29.7788 11.7901C29.735 13.1554 28.6682 14.2294 27.3966 14.1885Z" fill="url(#paint59_radial_277_100002)"/>
</g>
</mask>
<g mask="url(#mask11_277_100002)">
<path opacity="0.87" d="M27.3966 14.1885C26.125 14.1476 25.1298 13.0075 25.1732 11.6421C25.2173 10.2766 26.284 9.20284 27.556 9.24381C28.8272 9.28461 29.8227 10.4245 29.7788 11.7901C29.735 13.1554 28.6682 14.2294 27.3966 14.1885Z" fill="#ED1C24"/>
</g>
<path d="M27.1806 11.8741C27.1806 11.8741 27.2261 11.7543 27.0038 11.4675C26.7814 11.1808 26.8831 10.6015 26.9816 10.4091C27.0798 10.2165 27.2616 10.3487 27.4343 10.3213C27.6071 10.2941 27.7425 10.3373 27.7276 10.5487C27.9481 10.4174 28.0861 10.4759 28.1994 10.6834C28.3126 10.8908 28.5176 11.0676 28.7134 11.085C28.9092 11.1024 29.0521 11.1926 28.8878 11.4758C28.7234 11.7592 28.4976 12.1649 28.0225 12.1111C27.5475 12.0575 27.4747 12.0046 27.3774 12.1005" fill="url(#paint60_radial_277_100002)"/>
<path opacity="0.61" d="M28.4609 12.009L27.7682 10.5279C27.7547 10.5347 27.7418 10.5402 27.7276 10.5486C27.7425 10.3373 27.6072 10.294 27.4344 10.3212C27.3056 10.3417 27.1717 10.2734 27.0711 10.3172L27.9037 12.0965C27.9406 12.1013 27.9794 12.1063 28.0226 12.111C28.2002 12.1313 28.3431 12.087 28.4609 12.009ZM27.6259 12.0576L26.9259 10.5612C26.8557 10.8168 26.8249 11.2367 27.0038 11.4675C27.226 11.7542 27.1806 11.874 27.1806 11.874L27.3775 12.1004C27.437 12.0418 27.4876 12.0389 27.6259 12.0576ZM28.8879 11.4757C28.9483 11.3713 28.9669 11.2931 28.9567 11.2351L28.925 11.1673C28.8822 11.1167 28.8036 11.0929 28.7135 11.0849C28.5176 11.0675 28.3127 10.8907 28.1995 10.6832C28.1448 10.5827 28.0838 10.5179 28.0107 10.4921L28.643 11.8435C28.7432 11.7269 28.8207 11.5914 28.8879 11.4757Z" fill="#F2F2F2"/>
<path d="M24.8556 15.4872C24.8556 15.4872 24.8101 15.5892 25.0324 15.8333C25.2547 16.0775 25.1531 16.5707 25.0547 16.7346C24.9565 16.8986 24.7745 16.7861 24.6018 16.8092C24.4293 16.8325 24.2937 16.7958 24.3086 16.6157C24.0882 16.7276 23.9499 16.6776 23.8369 16.501C23.7235 16.3244 23.5185 16.1739 23.3228 16.159C23.1269 16.1443 22.9842 16.0674 23.1486 15.8261C23.3129 15.5848 23.5386 15.2394 24.0136 15.2851C24.4888 15.3307 24.5614 15.3759 24.659 15.2941" fill="url(#paint61_radial_277_100002)"/>
<path opacity="0.61" d="M23.1486 15.826C23.1209 15.8665 23.1028 15.902 23.0913 15.9337L23.2039 16.1388C23.2392 16.1492 23.2796 16.1557 23.3228 16.159C23.5186 16.1738 23.7235 16.3243 23.8369 16.5009C23.9085 16.613 23.9904 16.6735 24.0967 16.6747L23.4365 15.4726C23.3149 15.5799 23.2248 15.7141 23.1486 15.826ZM25.0145 16.7835L24.2021 15.3053C24.1473 15.2988 24.0856 15.292 24.0136 15.2851C23.8606 15.2704 23.7337 15.2965 23.6263 15.3464L24.4277 16.805C24.4764 16.8181 24.5364 16.818 24.6017 16.8091C24.7533 16.7888 24.9114 16.8726 25.0145 16.7835ZM24.4792 15.3375L25.1322 16.5259C25.1846 16.308 25.191 16.0075 25.0324 15.8332C24.8102 15.5891 24.8557 15.4871 24.8557 15.4871L24.6591 15.2941C24.6104 15.3347 24.5681 15.344 24.4792 15.3375Z" fill="#F2F2F2"/>
<path d="M27.1793 11.7617C27.1793 11.7617 25.6191 11.7667 24.9962 12.203C24.3732 12.6392 24.1104 13.4208 24.2915 14.2612C24.4723 15.1017 24.4847 15.18 24.5219 15.4157C24.5647 15.5859 24.6765 15.6808 24.7946 15.6139C24.9127 15.5469 25.5217 15.5313 26.1075 15.471C26.6934 15.4106 28.0792 15.015 27.752 13.2483C27.4932 12.0179 27.4932 12.0179 27.4932 12.0179C27.4932 12.0179 27.4282 11.7064 27.1793 11.7617Z" fill="url(#paint62_radial_277_100002)"/>
<path d="M26.2415 15.2082C25.3659 15.3465 24.5438 14.7485 24.4056 13.8729C24.2673 12.9972 24.8652 12.1753 25.7409 12.037C26.6165 11.8987 27.4386 12.4967 27.5769 13.3722C27.7152 14.2478 27.1173 15.0699 26.2415 15.2082Z" fill="url(#paint63_radial_277_100002)"/>
<mask id="mask12_277_100002" style="mask-type:luminance" maskUnits="userSpaceOnUse" x="24" y="12" width="2" height="3">
<path d="M25.0087 12.726C25.4187 12.6614 25.8214 13.0536 25.908 13.6021C25.9946 14.1507 25.7324 14.648 25.3222 14.7127C24.9121 14.7774 24.5094 14.3851 24.4228 13.8367C24.3362 13.2879 24.5985 12.7908 25.0087 12.726Z" fill="url(#paint64_linear_277_100002)"/>
</mask>
<g mask="url(#mask12_277_100002)">
<path d="M25.0092 12.726C25.4192 12.6614 25.8219 13.0536 25.9085 13.6021C25.9951 14.1507 25.7329 14.648 25.3227 14.7127C24.9125 14.7774 24.5099 14.3851 24.4233 13.8367C24.3367 13.2879 24.599 12.7908 25.0092 12.726Z" fill="#F2F2F2"/>
</g>
<mask id="mask13_277_100002" style="mask-type:luminance" maskUnits="userSpaceOnUse" x="25" y="12" width="3" height="3">
<path d="M26.8949 14.4819C26.4848 14.5466 26.0821 14.1544 25.9955 13.6057C25.909 13.0574 26.1712 12.56 26.5813 12.4953C26.9915 12.4305 27.3943 12.8228 27.4808 13.3712C27.5675 13.9199 27.3051 14.4171 26.8949 14.4819Z" fill="url(#paint65_linear_277_100002)"/>
</mask>
<g mask="url(#mask13_277_100002)">
<path d="M26.8949 14.4819C26.4848 14.5466 26.0821 14.1544 25.9955 13.6057C25.909 13.0574 26.1712 12.56 26.5813 12.4953C26.9915 12.4305 27.3943 12.8228 27.4808 13.3712C27.5675 13.9199 27.3051 14.4171 26.8949 14.4819Z" fill="#F2F2F2"/>
</g>
<path d="M27.4729 13.4222C27.4322 13.4287 27.3872 13.3566 27.3721 13.2612C27.3571 13.1659 27.3778 13.0835 27.4182 13.0771C27.4589 13.0706 27.5039 13.1427 27.519 13.2381C27.5339 13.3334 27.5132 13.4158 27.4729 13.4222Z" fill="#F2F2F2"/>
<path d="M27.096 12.4174C27.0771 12.4409 27.0174 12.4241 26.9624 12.38C26.9074 12.3362 26.878 12.2813 26.8968 12.2579C26.9156 12.2345 26.9753 12.2513 27.0302 12.2955C27.0852 12.3394 27.1146 12.3942 27.096 12.4174Z" fill="#F2F2F2"/>
<path opacity="0.61" d="M24.2354 13.7451L25.075 15.5585C25.252 15.5395 25.49 15.5238 25.7454 15.5035L24.4733 12.7845C24.3173 13.0663 24.2357 13.3942 24.2354 13.7451ZM26.6543 15.3474L25.1426 12.116C25.0896 12.1429 25.0398 12.1718 24.9952 12.2029C24.8629 12.2955 24.748 12.4044 24.6489 12.5255L26.0304 15.4783C26.0559 15.4759 26.0812 15.4735 26.1064 15.4709C26.2523 15.456 26.4479 15.4201 26.6543 15.3474ZM27.7939 13.5855L26.9439 11.7683C26.7789 11.7758 26.5422 11.7911 26.2843 11.8232L27.59 14.6137C27.7387 14.3537 27.8234 14.0179 27.7939 13.5855ZM27.4098 14.8633L26.0064 11.8637C25.7945 11.8993 25.5809 11.9478 25.391 12.0129L26.902 15.2426C27.0832 15.1522 27.2609 15.0291 27.4098 14.8633Z" fill="#F2F2F2"/>
<path d="M26.3427 10.6966C26.3427 10.6966 26.3862 10.576 26.1592 10.2931C25.932 10.0101 26.0241 9.42927 26.1193 9.23514C26.2144 9.04106 26.3984 9.17014 26.5705 9.14C26.7428 9.10981 26.879 9.1507 26.8677 9.36235C27.0859 9.22725 27.2251 9.28356 27.3416 9.48902C27.4582 9.69469 27.6661 9.868 27.8623 9.88213C28.0583 9.89609 28.2026 9.98401 28.0431 10.27C27.8835 10.5561 27.6644 10.9655 27.1885 10.9196C26.7127 10.8738 26.6392 10.8222 26.5432 10.9197" fill="#2A3990"/>
<path opacity="0.5" d="M27.6252 10.8101L26.908 9.34095C26.8946 9.34799 26.8818 9.35374 26.8679 9.3623C26.8792 9.15065 26.743 9.10977 26.5707 9.13995C26.4423 9.16238 26.3073 9.0963 26.2075 9.142L27.0696 10.9072C27.1065 10.9113 27.1454 10.9155 27.1887 10.9196C27.3667 10.9368 27.5089 10.8901 27.6252 10.8101Z" fill="#99DBF9"/>
<path opacity="0.5" d="M26.7905 10.872L26.0657 9.38745C25.9998 9.64427 25.976 10.0646 26.1586 10.2923C26.3856 10.5752 26.3422 10.6958 26.3422 10.6958L26.5427 10.9189C26.6013 10.8593 26.652 10.8556 26.7905 10.872Z" fill="#99DBF9"/>
<path opacity="0.5" d="M28.0434 10.269C28.1022 10.1635 28.1195 10.0852 28.1083 10.0273L28.0755 9.95997C28.0317 9.90999 27.9528 9.88765 27.8626 9.88109C27.6665 9.86696 27.4586 9.69365 27.342 9.48798C27.2855 9.38846 27.2235 9.32484 27.1499 9.30005L27.8047 10.6408C27.9031 10.5225 27.9782 10.3856 28.0434 10.269Z" fill="#99DBF9"/>
<path d="M24.0797 14.3827C24.0797 14.3827 24.0363 14.5033 24.2632 14.7863C24.4902 15.0692 24.3984 15.6501 24.3032 15.8442C24.2081 16.0383 24.024 15.9092 23.8519 15.9394C23.6797 15.9696 23.5435 15.9287 23.5548 15.717C23.3365 15.8521 23.1975 15.7959 23.0809 15.5904C22.9642 15.3847 22.7565 15.2114 22.5602 15.1973C22.3642 15.1833 22.2197 15.0954 22.3795 14.8094C22.5391 14.5233 22.758 14.114 23.2338 14.1598C23.7098 14.2054 23.7833 14.2572 23.8793 14.1597" fill="#2A3990"/>
<path opacity="0.5" d="M22.3799 14.8086C22.353 14.8564 22.3356 14.8985 22.3247 14.9358L22.4414 15.1746C22.477 15.1864 22.5174 15.1933 22.5607 15.1964C22.7569 15.2105 22.9646 15.3838 23.0813 15.5895C23.1553 15.7197 23.2383 15.7894 23.3447 15.7891L22.6608 14.3887C22.5414 14.5167 22.4539 14.6757 22.3799 14.8086Z" fill="#99DBF9"/>
<path opacity="0.5" d="M24.2636 15.9025L23.4224 14.1802C23.3675 14.1737 23.3056 14.1666 23.2335 14.1597C23.0804 14.145 22.954 14.1779 22.8477 14.2381L23.6773 15.9375C23.7263 15.952 23.7862 15.9509 23.8515 15.9394C24.0025 15.913 24.1621 16.0087 24.2636 15.9025Z" fill="#99DBF9"/>
<path opacity="0.5" d="M23.7002 14.2131L24.3762 15.5977C24.4242 15.3409 24.4249 14.9881 24.2629 14.7861C24.036 14.5031 24.0794 14.3825 24.0794 14.3825L23.879 14.1594C23.8312 14.2078 23.789 14.2193 23.7002 14.2131Z" fill="#99DBF9"/>
<path d="M26.3395 10.5823C26.3395 10.5823 24.7797 10.6132 24.164 11.0599C23.5483 11.5064 23.2987 12.2924 23.4937 13.1296C23.6886 13.9667 23.7022 14.0449 23.7434 14.2798C23.7891 14.4495 23.9024 14.5425 24.0193 14.4737C24.1363 14.4047 24.7448 14.3789 25.3297 14.3089C25.9145 14.2389 27.2935 13.8201 26.9369 12.0591C26.6576 10.8332 26.6576 10.8332 26.6576 10.8332C26.6576 10.8332 26.5875 10.5227 26.3395 10.5823Z" fill="#2A3990"/>
<path d="M25.4613 14.0449C24.5881 14.1979 23.7562 13.6138 23.6034 12.7404C23.4505 11.8672 24.0346 11.0353 24.9078 10.8824C25.7811 10.7297 26.613 11.3137 26.7658 12.187C26.9187 13.0602 26.3346 13.8921 25.4613 14.0449Z" fill="url(#paint66_radial_277_100002)"/>
<mask id="mask14_277_100002" style="mask-type:luminance" maskUnits="userSpaceOnUse" x="23" y="11" width="3" height="3">
<path d="M24.1856 11.584C24.5948 11.5125 25.0037 11.8979 25.0995 12.4449C25.1953 12.992 24.9413 13.4936 24.5324 13.5652C24.1234 13.6368 23.7141 13.2512 23.6183 12.7042C23.5226 12.157 23.7767 11.6556 24.1856 11.584Z" fill="url(#paint67_linear_277_100002)"/>
</mask>
<g mask="url(#mask14_277_100002)">
<path d="M24.1856 11.584C24.5948 11.5125 25.0037 11.8979 25.0995 12.4449C25.1953 12.992 24.9413 13.4936 24.5324 13.5652C24.1234 13.6368 23.7141 13.2512 23.6183 12.7042C23.5226 12.157 23.7767 11.6556 24.1856 11.584Z" fill="#F2F2F2"/>
</g>
<mask id="mask15_277_100002" style="mask-type:luminance" maskUnits="userSpaceOnUse" x="25" y="11" width="2" height="3">
<path d="M26.1019 13.3063C25.6929 13.3779 25.2837 12.9925 25.1882 12.4454C25.0924 11.8983 25.3463 11.3968 25.7553 11.3252C26.1643 11.2537 26.5735 11.6392 26.6693 12.1862C26.7651 12.7333 26.511 13.2347 26.1019 13.3063Z" fill="url(#paint68_linear_277_100002)"/>
</mask>
<g mask="url(#mask15_277_100002)">
<path d="M26.1019 13.3063C25.6929 13.3779 25.2837 12.9925 25.1882 12.4454C25.0924 11.8983 25.3463 11.3968 25.7553 11.3252C26.1643 11.2537 26.5735 11.6392 26.6693 12.1862C26.7651 12.7333 26.511 13.2347 26.1019 13.3063Z" fill="#F2F2F2"/>
</g>
<path d="M26.5576 12.0781C26.5742 12.1731 26.6204 12.2445 26.6608 12.2374C26.7012 12.2304 26.7205 12.1476 26.7039 12.0525C26.6873 11.9574 26.6411 11.8861 26.6007 11.8932C26.5602 11.9002 26.5409 11.983 26.5576 12.0781Z" fill="#F2F2F2"/>
<path d="M26.2679 11.241C26.2493 11.2646 26.1895 11.2488 26.1337 11.2057C26.078 11.1628 26.0476 11.1084 26.0659 11.0848C26.0843 11.061 26.1444 11.0768 26.2001 11.12C26.2558 11.163 26.2862 11.2173 26.2679 11.241Z" fill="#F2F2F2"/>
<path d="M20.9782 12.1077C20.9782 12.1077 20.8669 12.0442 20.549 12.219C20.2312 12.3938 19.6748 12.2032 19.5 12.0759C19.3252 11.9487 19.4841 11.7897 19.4841 11.615C19.4841 11.4401 19.5478 11.313 19.7544 11.3607C19.659 11.1223 19.7384 10.9951 19.961 10.9157C20.1835 10.8362 20.3901 10.6613 20.4377 10.4706C20.4854 10.2799 20.5969 10.1528 20.8511 10.3594C21.1054 10.566 21.4709 10.8522 21.3438 11.3131C21.2166 11.774 21.1532 11.8375 21.2326 11.9488" fill="url(#paint69_linear_277_100002)"/>
<path d="M24.2203 14.9714C24.2203 14.9714 24.3316 15.035 24.6494 14.8602C24.9673 14.6853 25.5236 14.876 25.6985 15.0032C25.8732 15.1304 25.7144 15.2894 25.7144 15.4642C25.7144 15.639 25.6507 15.7661 25.4441 15.7185C25.5395 15.9569 25.4601 16.0841 25.2375 16.1635C25.0149 16.2429 24.8083 16.4178 24.7607 16.6085C24.713 16.7993 24.6017 16.9263 24.3474 16.7197C24.0931 16.5132 23.7276 16.227 23.8547 15.766C23.9819 15.3051 24.0453 15.2417 23.9659 15.1303" fill="url(#paint70_linear_277_100002)"/>
<path d="M20.8667 12.0918C20.8667 12.0918 20.6282 13.6337 20.9621 14.317C21.2958 15.0004 22.027 15.3819 22.8853 15.3342C23.7435 15.2865 23.823 15.2865 24.0614 15.2865C24.2363 15.2707 24.3476 15.1752 24.2998 15.048C24.2522 14.921 24.3317 14.317 24.3635 13.7289C24.3952 13.1407 24.2205 11.7103 22.4244 11.758C21.1688 11.8216 21.1688 11.8216 21.1688 11.8216C21.1688 11.8216 20.8508 11.8375 20.8667 12.0918Z" fill="url(#paint71_linear_277_100002)"/>
<path d="M22.5198 15.1593C23.4064 15.1593 24.1251 14.4406 24.1251 13.554C24.1251 12.6674 23.4064 11.9487 22.5198 11.9487C21.6333 11.9487 20.9146 12.6674 20.9146 13.554C20.9146 14.4406 21.6333 15.1593 22.5198 15.1593Z" fill="url(#paint72_linear_277_100002)"/>
<path opacity="0.52" d="M20.9146 13.5542C20.9146 13.7207 20.94 13.8813 20.987 14.0324H24.0526C24.0997 13.8813 24.1251 13.7207 24.1251 13.5542C24.1251 13.362 24.0896 13.1786 24.0277 13.0078H21.012C20.9501 13.1786 20.9146 13.362 20.9146 13.5542Z" fill="#F2F2F2"/>
<mask id="mask16_277_100002" style="mask-type:luminance" maskUnits="userSpaceOnUse" x="21" y="13" width="3" height="3">
<path d="M22.487 15.1353C23.0424 15.1353 23.4926 14.7987 23.4926 14.3836C23.4926 13.9684 23.0424 13.6318 22.487 13.6318C21.9317 13.6318 21.4814 13.9684 21.4814 14.3836C21.4814 14.7987 21.9317 15.1353 22.487 15.1353Z" fill="url(#paint73_linear_277_100002)"/>
</mask>
<g mask="url(#mask16_277_100002)">
<path d="M22.487 15.1353C23.0424 15.1353 23.4926 14.7987 23.4926 14.3836C23.4926 13.9684 23.0424 13.6318 22.487 13.6318C21.9317 13.6318 21.4814 13.9684 21.4814 14.3836C21.4814 14.7987 21.9317 15.1353 22.487 15.1353Z" fill="#F2F2F2"/>
</g>
<mask id="mask17_277_100002" style="mask-type:luminance" maskUnits="userSpaceOnUse" x="21" y="12" width="3" height="2">
<path d="M22.5032 13.5474C23.0586 13.5474 23.5088 13.2108 23.5088 12.7957C23.5088 12.3805 23.0586 12.0439 22.5032 12.0439C21.9478 12.0439 21.4976 12.3805 21.4976 12.7957C21.4976 13.2108 21.9478 13.5474 22.5032 13.5474Z" fill="url(#paint74_linear_277_100002)"/>
</mask>
<g mask="url(#mask17_277_100002)">
<path d="M22.5032 13.5474C23.0586 13.5474 23.5088 13.2108 23.5088 12.7957C23.5088 12.3805 23.0586 12.0439 22.5032 12.0439C21.9478 12.0439 21.4976 12.3805 21.4976 12.7957C21.4976 13.2108 21.9478 13.5474 22.5032 13.5474Z" fill="#F2F2F2"/>
</g>
<path d="M22.3764 12.1329C22.473 12.1329 22.5512 12.0997 22.5512 12.0587C22.5512 12.0176 22.473 11.9844 22.3764 11.9844C22.2799 11.9844 22.2017 12.0176 22.2017 12.0587C22.2017 12.0997 22.2799 12.1329 22.3764 12.1329Z" fill="#F2F2F2"/>
<path d="M21.5017 12.2757C21.5219 12.298 21.496 12.3543 21.4438 12.4018C21.3918 12.4493 21.3332 12.4697 21.313 12.4476C21.2929 12.4254 21.3187 12.369 21.3709 12.3216C21.4229 12.2741 21.4816 12.2537 21.5017 12.2757Z" fill="#F2F2F2"/>
<path d="M23.3716 10.814C23.3716 10.814 23.3304 10.6926 22.9766 10.6126C22.6227 10.5326 22.3329 10.0209 22.2865 9.80975C22.24 9.59859 22.4644 9.58499 22.5803 9.45413C22.6963 9.32327 22.8282 9.27048 22.9513 9.44311C23.0379 9.20146 23.1817 9.15888 23.401 9.24711C23.6203 9.33535 23.8908 9.34146 24.0531 9.23035C24.2152 9.11929 24.3828 9.09811 24.4361 9.42127C24.4893 9.74452 24.573 10.2011 24.1722 10.4617C23.7714 10.7223 23.6817 10.7277 23.6674 10.8637" fill="url(#paint75_radial_277_100002)"/>
<path opacity="0.61" d="M24.4456 10.1042L22.9694 9.40143C22.9633 9.4152 22.9569 9.42769 22.9514 9.44312C22.8283 9.27048 22.6964 9.32327 22.5804 9.45413C22.4939 9.55173 22.3472 9.58414 22.2974 9.68187L24.0713 10.5262C24.1027 10.5063 24.1358 10.4854 24.1723 10.4617C24.3221 10.3643 24.4043 10.2393 24.4456 10.1042ZM23.8321 10.6726L22.3403 9.9625C22.4488 10.2045 22.6919 10.5481 22.9766 10.6126C23.3305 10.6925 23.3716 10.8139 23.3716 10.8139L23.6674 10.8636C23.6761 10.7806 23.7135 10.7461 23.8321 10.6726ZM24.4362 9.42127C24.4165 9.30205 24.3812 9.22995 24.3365 9.19169L24.2688 9.15946C24.2035 9.14764 24.1278 9.17921 24.0531 9.23035C23.8909 9.34146 23.6204 9.33531 23.401 9.24712C23.2948 9.20436 23.2066 9.19312 23.1338 9.2197L24.4811 9.86089C24.4842 9.70698 24.4579 9.55302 24.4362 9.42127Z" fill="#F2F2F2"/>
<path d="M23.8973 15.1084C23.8973 15.1084 23.9385 15.2298 24.2923 15.3098C24.6461 15.3898 24.936 15.9015 24.9824 16.1127C25.0289 16.3238 24.8045 16.3374 24.6886 16.4682C24.5726 16.599 24.4406 16.6519 24.3177 16.4792C24.2309 16.7209 24.0871 16.7634 23.8679 16.6752C23.6486 16.587 23.3781 16.5809 23.2158 16.692C23.0536 16.8031 22.8861 16.8243 22.8328 16.501C22.7795 16.1778 22.6958 15.7212 23.0967 15.4606C23.4975 15.2 23.5872 15.1947 23.6015 15.0586" fill="url(#paint76_radial_277_100002)"/>
<path opacity="0.61" d="M22.8326 16.501C22.8415 16.5552 22.854 16.5989 22.8688 16.635L23.1089 16.7492C23.1439 16.7362 23.1799 16.7165 23.2157 16.692C23.378 16.5809 23.6485 16.587 23.8678 16.6752C24.0068 16.7311 24.1152 16.7339 24.1981 16.6674L22.791 15.9975C22.7772 16.1721 22.8078 16.3509 22.8326 16.501ZM24.9877 16.1827L23.2571 15.359C23.21 15.388 23.1573 15.4211 23.0965 15.4605C22.9675 15.5445 22.8891 15.6489 22.8433 15.7623L24.5508 16.5751C24.5982 16.556 24.6445 16.5178 24.6884 16.4682C24.79 16.3535 24.9746 16.3289 24.9877 16.1827ZM23.4951 15.2121L24.8861 15.8743C24.7639 15.6434 24.5446 15.367 24.2922 15.3098C23.9383 15.2298 23.8972 15.1084 23.8972 15.1084L23.6014 15.0586C23.5943 15.1262 23.5684 15.1615 23.4951 15.2121Z" fill="#F2F2F2"/>
<path d="M23.2987 10.7282C23.2987 10.7282 22.0976 11.7239 21.8941 12.4567C21.6905 13.1895 21.9846 13.9599 22.6586 14.4936C23.3325 15.0272 23.3919 15.0799 23.5703 15.238C23.7117 15.3423 23.8582 15.3445 23.9069 15.2178C23.9555 15.091 24.4156 14.6918 24.8295 14.2728C25.2433 13.8538 26.0615 12.6674 24.6858 11.5117C23.704 10.7264 23.704 10.7264 23.704 10.7264C23.704 10.7264 23.4556 10.5273 23.2987 10.7282Z" fill="url(#paint77_radial_277_100002)"/>
<path d="M24.7674 13.9831C24.1794 14.6464 23.1648 14.7075 22.5015 14.1195C21.838 13.5315 21.7769 12.5169 22.3649 11.8534C22.9529 11.19 23.9677 11.1289 24.631 11.7169C25.2944 12.3049 25.3554 13.3196 24.7674 13.9831Z" fill="url(#paint78_radial_277_100002)"/>
<mask id="mask18_277_100002" style="mask-type:luminance" maskUnits="userSpaceOnUse" x="22" y="12" width="2" height="3">
<path d="M22.2377 12.8516C22.5132 12.5409 23.0733 12.5876 23.4889 12.9561C23.9046 13.3244 24.0182 13.8749 23.7429 14.1857C23.4674 14.4964 22.9071 14.4497 22.4915 14.0812C22.0759 13.7128 21.9624 13.1623 22.2377 12.8516Z" fill="url(#paint79_linear_277_100002)"/>
</mask>
<g mask="url(#mask18_277_100002)">
<path d="M23.4888 12.9558C23.0731 12.5874 22.5129 12.5407 22.2375 12.8514C21.9621 13.1621 22.0759 13.7126 22.4915 14.081C22.9072 14.4494 23.4674 14.4962 23.7428 14.1855C24.0181 13.8748 23.9044 13.3242 23.4888 12.9558Z" fill="#F2F2F2"/>
</g>
<mask id="mask19_277_100002" style="mask-type:luminance" maskUnits="userSpaceOnUse" x="23" y="11" width="2" height="3">
<path d="M24.8082 13.0073C24.5328 13.318 23.9727 13.2712 23.557 12.9027C23.1414 12.5344 23.0278 11.9838 23.3031 11.6731C23.5786 11.3624 24.1389 11.4092 24.5544 11.7775C24.9701 12.1459 25.0837 12.6966 24.8082 13.0073Z" fill="url(#paint80_linear_277_100002)"/>
</mask>
<g mask="url(#mask19_277_100002)">
<path d="M24.8082 13.0073C24.5328 13.318 23.9727 13.2712 23.557 12.9027C23.1414 12.5344 23.0278 11.9838 23.3031 11.6731C23.5786 11.3624 24.1389 11.4092 24.5544 11.7775C24.9701 12.1459 25.0837 12.6966 24.8082 13.0073Z" fill="#F2F2F2"/>
</g>
<path d="M24.4008 11.7611C24.473 11.8251 24.5536 11.8521 24.5809 11.8214C24.6081 11.7906 24.5716 11.7138 24.4994 11.6498C24.4272 11.5858 24.3466 11.5588 24.3194 11.5896C24.2921 11.6203 24.3286 11.6971 24.4008 11.7611Z" fill="#F2F2F2"/>
<path d="M23.6513 11.2873C23.6516 11.3173 23.5951 11.3421 23.5249 11.3431C23.4548 11.3442 23.3974 11.3206 23.397 11.2908C23.3966 11.261 23.4532 11.236 23.5235 11.2351C23.5936 11.2341 23.6509 11.2576 23.6513 11.2873Z" fill="#F2F2F2"/>
<path opacity="0.61" d="M22.2886 14.1301L24.0895 14.9961C24.214 14.8689 24.3878 14.7055 24.572 14.5275L21.8616 13.2373C21.9203 13.554 22.0658 13.8591 22.2886 14.1301ZM25.1743 13.8292L21.9532 12.2957C21.9293 12.3503 21.9092 12.4043 21.8947 12.4567C21.8514 12.6122 21.832 12.7693 21.8325 12.9257L24.7761 14.3268C24.7942 14.3088 24.8123 14.2907 24.8301 14.2726C24.9332 14.1684 25.0613 14.0165 25.1743 13.8292ZM24.9339 11.7446L23.1226 10.8823C23 10.993 22.8271 11.1553 22.6483 11.344L25.4301 12.6679C25.3796 12.3727 25.2315 12.0596 24.9339 11.7446ZM25.4498 12.9751L22.4595 11.5519C22.3187 11.7142 22.1846 11.8873 22.0794 12.0583L25.299 13.5906C25.3814 13.4057 25.4403 13.1978 25.4498 12.9751Z" fill="#F2F2F2"/>
<path d="M20.6238 13.7517C20.6989 13.7673 20.7761 13.7685 20.8495 13.7592C20.7928 13.5524 20.7782 13.3561 20.7769 13.2211C20.4807 13.206 20.0809 13.1879 19.7013 12.9369C18.7123 12.3768 18.3208 10.7183 18.3208 10.7183C16.8811 11.8966 17.1972 14.4657 19.0993 15.305C21.0016 16.1443 21.7043 15.1814 21.8153 14.6637C21.9261 14.1461 21.1314 13.9604 20.6238 13.7517Z" fill="url(#paint81_radial_277_100002)"/>
<path d="M29.8654 9.95483C29.8654 9.95483 29.6094 11.6395 28.6688 12.2777C28.3186 12.5524 27.9322 12.6064 27.6402 12.6452C27.6547 12.739 27.6666 12.8337 27.6717 12.9305C27.6766 13.0176 27.6766 13.1037 27.6738 13.1892C27.7213 13.1858 27.7688 13.1781 27.8153 13.1644C27.3262 13.4135 26.5491 13.6628 26.7016 14.1699C26.854 14.6768 27.6323 15.5797 29.4604 14.5893C31.2884 13.5989 31.3957 11.0127 29.8654 9.95483Z" fill="url(#paint82_radial_277_100002)"/>
<defs>
<radialGradient id="paint0_radial_277_100002" cx="0" cy="0" r="1" gradientUnits="userSpaceOnUse" gradientTransform="translate(8.2725 6.89759) scale(9.00427 8.95419)">
<stop offset="0.0714" stop-color="#F9EC00"/>
<stop offset="0.3407" stop-color="#F2BE1D"/>
<stop offset="0.6868" stop-color="#ED9D23"/>
<stop offset="1" stop-color="#E87326"/>
</radialGradient>
<radialGradient id="paint1_radial_277_100002" cx="0" cy="0" r="1" gradientUnits="userSpaceOnUse" gradientTransform="translate(6.20785 6.67833) scale(2.16494 2.5359)">
<stop offset="0.0714" stop-color="#F2BE1D"/>
<stop offset="0.6868" stop-color="#ED9D23"/>
<stop offset="1" stop-color="#E87326"/>
</radialGradient>
<radialGradient id="paint2_radial_277_100002" cx="0" cy="0" r="1" gradientUnits="userSpaceOnUse" gradientTransform="translate(10.1942 6.4941) rotate(178.591) scale(2.29394 2.53598)">
<stop offset="0.0714" stop-color="#F2BE1D"/>
<stop offset="0.6868" stop-color="#ED9D23"/>
<stop offset="1" stop-color="#E87326"/>
</radialGradient>
<radialGradient id="paint3_radial_277_100002" cx="0" cy="0" r="1" gradientUnits="userSpaceOnUse" gradientTransform="translate(5.81423 8.52848) scale(1.6737 1.66439)">
<stop offset="0.0714" stop-color="#F2BE1D"/>
<stop offset="0.6868" stop-color="#ED9D23"/>
<stop offset="1" stop-color="#E87326"/>
</radialGradient>
<radialGradient id="paint4_radial_277_100002" cx="0" cy="0" r="1" gradientUnits="userSpaceOnUse" gradientTransform="translate(5.66901 6.27955) rotate(3.20959) scale(0.914387 0.909333)">
<stop offset="0.0714" stop-color="#F2BE1D"/>
<stop offset="0.6868" stop-color="#ED9D23"/>
<stop offset="1" stop-color="#E87326"/>
</radialGradient>
<radialGradient id="paint5_radial_277_100002" cx="0" cy="0" r="1" gradientUnits="userSpaceOnUse" gradientTransform="translate(10.7933 8.81155) scale(1.09039 1.08433)">
<stop offset="0.0714" stop-color="#F2BE1D"/>
<stop offset="0.6868" stop-color="#ED9D23"/>
<stop offset="1" stop-color="#E87326"/>
</radialGradient>
<radialGradient id="paint6_radial_277_100002" cx="0" cy="0" r="1" gradientUnits="userSpaceOnUse" gradientTransform="translate(10.3169 6.06083) rotate(166.593) scale(0.914205 0.90967)">
<stop offset="0.0714" stop-color="#F2BE1D"/>
<stop offset="0.6868" stop-color="#ED9D23"/>
<stop offset="1" stop-color="#E87326"/>
</radialGradient>
<radialGradient id="paint7_radial_277_100002" cx="0" cy="0" r="1" gradientUnits="userSpaceOnUse" gradientTransform="translate(7.08082 6.58415) scale(3.96019 3.93817)">
<stop offset="0.0714" stop-color="#F9EC00"/>
<stop offset="0.3407" stop-color="#F2BE1D"/>
<stop offset="0.6868" stop-color="#ED9D23"/>
<stop offset="1" stop-color="#E87326"/>
</radialGradient>
<radialGradient id="paint8_radial_277_100002" cx="0" cy="0" r="1" gradientUnits="userSpaceOnUse" gradientTransform="translate(8.96255 3.39081) scale(4.53207 4.50686)">
<stop stop-color="white"/>
<stop offset="1" stop-color="#CEDAD9"/>
</radialGradient>
<radialGradient id="paint9_radial_277_100002" cx="0" cy="0" r="1" gradientUnits="userSpaceOnUse" gradientTransform="translate(9.45823 2.00602) scale(1.68708 1.67769)">
<stop stop-color="#F1A7B8"/>
<stop offset="1" stop-color="#EE87A6"/>
</radialGradient>
<radialGradient id="paint10_radial_277_100002" cx="0" cy="0" r="1" gradientUnits="userSpaceOnUse" gradientTransform="translate(11.9265 6.97133) scale(2.33238 2.31941)">
<stop offset="0.0714" stop-color="#F9EC00"/>
<stop offset="0.3407" stop-color="#F2BE1D"/>
<stop offset="0.6868" stop-color="#ED9D23"/>
<stop offset="1" stop-color="#E87326"/>
</radialGradient>
<radialGradient id="paint11_radial_277_100002" cx="0" cy="0" r="1" gradientUnits="userSpaceOnUse" gradientTransform="translate(12.2344 6.5595) scale(2.70991 2.69483)">
<stop stop-color="white"/>
<stop offset="1" stop-color="#CEDAD9"/>
</radialGradient>
<radialGradient id="paint12_radial_277_100002" cx="0" cy="0" r="1" gradientUnits="userSpaceOnUse" gradientTransform="translate(10.9326 5.02247) scale(0.749296 0.745128)">
<stop stop-color="#F1A7B8"/>
<stop offset="1" stop-color="#EE87A6"/>
</radialGradient>
<radialGradient id="paint13_radial_277_100002" cx="0" cy="0" r="1" gradientUnits="userSpaceOnUse" gradientTransform="translate(8.43193 3.28357) scale(3.91757 3.89578)">
<stop stop-color="white"/>
<stop offset="1" stop-color="#CEDAD9"/>
</radialGradient>
<radialGradient id="paint14_radial_277_100002" cx="0" cy="0" r="1" gradientUnits="userSpaceOnUse" gradientTransform="translate(8.85104 3.9397) scale(4.04319 4.0207)">
<stop stop-color="white"/>
<stop offset="1" stop-color="#CEDAD9"/>
</radialGradient>
<radialGradient id="paint15_radial_277_100002" cx="0" cy="0" r="1" gradientUnits="userSpaceOnUse" gradientTransform="translate(7.46354 5.61912) scale(5.24919 5.21999)">
<stop stop-color="white"/>
<stop offset="1" stop-color="#CEDAD9"/>
</radialGradient>
<radialGradient id="paint16_radial_277_100002" cx="0" cy="0" r="1" gradientUnits="userSpaceOnUse" gradientTransform="translate(7.6895 4.29462) scale(2.54107 2.52694)">
<stop stop-color="#F1A7B8"/>
<stop offset="1" stop-color="#EE87A6"/>
</radialGradient>
<radialGradient id="paint17_radial_277_100002" cx="0" cy="0" r="1" gradientUnits="userSpaceOnUse" gradientTransform="translate(2.11605 5.9056) scale(2.43731 2.42375)">
<stop stop-color="#F1A7B8"/>
<stop offset="1" stop-color="#EE87A6"/>
</radialGradient>
<radialGradient id="paint18_radial_277_100002" cx="0" cy="0" r="1" gradientUnits="userSpaceOnUse" gradientTransform="translate(14.4712 7.56482) scale(1.25476 1.24779)">
<stop stop-color="#F1A7B8"/>
<stop offset="1" stop-color="#EE87A6"/>
</radialGradient>
<radialGradient id="paint19_radial_277_100002" cx="0" cy="0" r="1" gradientUnits="userSpaceOnUse" gradientTransform="translate(5.58564 11.0966) rotate(9.50083) scale(1.19307 0.738324)">
<stop stop-color="white"/>
<stop offset="1"/>
</radialGradient>
<radialGradient id="paint20_radial_277_100002" cx="0" cy="0" r="1" gradientUnits="userSpaceOnUse" gradientTransform="translate(10.9479 11.0012) rotate(-15.4827) scale(1.19276 0.738482)">
<stop stop-color="white"/>
<stop offset="1"/>
</radialGradient>
<radialGradient id="paint21_radial_277_100002" cx="0" cy="0" r="1" gradientUnits="userSpaceOnUse" gradientTransform="translate(8.10001 10.2296) rotate(-1.1795) scale(1.40225 1.39446)">
<stop offset="0.0714" stop-color="#F2BE1D"/>
<stop offset="0.6868" stop-color="#ED9D23"/>
<stop offset="1" stop-color="#E87326"/>
</radialGradient>
<radialGradient id="paint22_radial_277_100002" cx="0" cy="0" r="1" gradientUnits="userSpaceOnUse" gradientTransform="translate(8.20579 13.1427) rotate(91.7333) scale(2.49124 3.61146)">
<stop stop-color="white"/>
<stop offset="1"/>
</radialGradient>
<radialGradient id="paint23_radial_277_100002" cx="0" cy="0" r="1" gradientUnits="userSpaceOnUse" gradientTransform="translate(3.57132 9.75478) scale(2.92673 2.91045)">
<stop offset="0.0714" stop-color="#F9EC00"/>
<stop offset="0.3407" stop-color="#F2BE1D"/>
<stop offset="0.6868" stop-color="#ED9D23"/>
<stop offset="1" stop-color="#E87326"/>
</radialGradient>
<radialGradient id="paint24_radial_277_100002" cx="0" cy="0" r="1" gradientUnits="userSpaceOnUse" gradientTransform="translate(6.05783 11.1666) scale(4.32227 4.29823)">
<stop offset="0.0714" stop-color="#F9EC00"/>
<stop offset="0.3407" stop-color="#F2BE1D"/>
<stop offset="0.6868" stop-color="#ED9D23"/>
<stop offset="1" stop-color="#E87326"/>
</radialGradient>
<radialGradient id="paint25_radial_277_100002" cx="0" cy="0" r="1" gradientUnits="userSpaceOnUse" gradientTransform="translate(12.6652 9.78944) rotate(180) scale(2.92671 2.91043)">
<stop offset="0.0714" stop-color="#F9EC00"/>
<stop offset="0.3407" stop-color="#F2BE1D"/>
<stop offset="0.6868" stop-color="#ED9D23"/>
<stop offset="1" stop-color="#E87326"/>
</radialGradient>
<radialGradient id="paint26_radial_277_100002" cx="0" cy="0" r="1" gradientUnits="userSpaceOnUse" gradientTransform="translate(10.1788 11.2003) rotate(180) scale(4.32227 4.29823)">
<stop offset="0.0714" stop-color="#F9EC00"/>
<stop offset="0.3407" stop-color="#F2BE1D"/>
<stop offset="0.6868" stop-color="#ED9D23"/>
<stop offset="1" stop-color="#E87326"/>
</radialGradient>
<radialGradient id="paint27_radial_277_100002" cx="0" cy="0" r="1" gradientUnits="userSpaceOnUse" gradientTransform="translate(24.0448 6.132) scale(8.72589 8.7259)">
<stop offset="0.0714" stop-color="#F9EC00"/>
<stop offset="0.3407" stop-color="#F2BE1D"/>
<stop offset="0.6868" stop-color="#ED9D23"/>
<stop offset="1" stop-color="#E87326"/>
</radialGradient>
<radialGradient id="paint28_radial_277_100002" cx="0" cy="0" r="1" gradientUnits="userSpaceOnUse" gradientTransform="translate(21.6085 9.1384) rotate(9.553) scale(1.1564 0.719411)">
<stop stop-color="white"/>
<stop offset="1"/>
</radialGradient>
<radialGradient id="paint29_radial_277_100002" cx="0" cy="0" r="1" gradientUnits="userSpaceOnUse" gradientTransform="translate(26.8056 9.04667) rotate(-15.5651) scale(1.15636 0.719375)">
<stop stop-color="white"/>
<stop offset="1"/>
</radialGradient>
<radialGradient id="paint30_radial_277_100002" cx="0" cy="0" r="1" gradientUnits="userSpaceOnUse" gradientTransform="translate(24.0468 8.29566) rotate(-1.18609) scale(1.35892)">
<stop offset="0.0714" stop-color="#F2BE1D"/>
<stop offset="0.6868" stop-color="#ED9D23"/>
<stop offset="1" stop-color="#E87326"/>
</radialGradient>
<radialGradient id="paint31_radial_277_100002" cx="0" cy="0" r="1" gradientUnits="userSpaceOnUse" gradientTransform="translate(22.2851 4.81413) rotate(3.22751) scale(0.886134)">
<stop offset="0.0714" stop-color="#F2BE1D"/>
<stop offset="0.6868" stop-color="#ED9D23"/>
<stop offset="1" stop-color="#E87326"/>
</radialGradient>
<radialGradient id="paint32_radial_277_100002" cx="0" cy="0" r="1" gradientUnits="userSpaceOnUse" gradientTransform="translate(25.4482 4.86143) rotate(166.043) scale(0.886029)">
<stop offset="0.0714" stop-color="#F2BE1D"/>
<stop offset="0.6868" stop-color="#ED9D23"/>
<stop offset="1" stop-color="#E87326"/>
</radialGradient>
<radialGradient id="paint33_radial_277_100002" cx="0" cy="0" r="1" gradientUnits="userSpaceOnUse" gradientTransform="translate(21.1509 13.7953) rotate(24.9777) scale(2.18321 1.24417)">
<stop stop-color="white"/>
<stop offset="1"/>
</radialGradient>
<radialGradient id="paint34_radial_277_100002" cx="0" cy="0" r="1" gradientUnits="userSpaceOnUse" gradientTransform="translate(25.643 12.9189) rotate(-17.9623) scale(2.35969 1.69123)">
<stop stop-color="white"/>
<stop offset="1"/>
</radialGradient>
<radialGradient id="paint35_radial_277_100002" cx="0" cy="0" r="1" gradientUnits="userSpaceOnUse" gradientTransform="translate(22.8898 5.8266) scale(3.83777 3.83777)">
<stop offset="0.0714" stop-color="#F9EC00"/>
<stop offset="0.3407" stop-color="#F2BE1D"/>
<stop offset="0.6868" stop-color="#ED9D23"/>
<stop offset="1" stop-color="#E87326"/>
</radialGradient>
<radialGradient id="paint36_radial_277_100002" cx="0" cy="0" r="1" gradientUnits="userSpaceOnUse" gradientTransform="translate(24.7139 2.71422) scale(4.39196 4.39196)">
<stop stop-color="white"/>
<stop offset="1" stop-color="#CEDAD9"/>
</radialGradient>
<radialGradient id="paint37_radial_277_100002" cx="0" cy="0" r="1" gradientUnits="userSpaceOnUse" gradientTransform="translate(25.1943 1.36528) scale(1.63487)">
<stop stop-color="#F1A7B8"/>
<stop offset="1" stop-color="#EE87A6"/>
</radialGradient>
<radialGradient id="paint38_radial_277_100002" cx="0" cy="0" r="1" gradientUnits="userSpaceOnUse" gradientTransform="translate(27.587 6.20284) scale(2.26026)">
<stop offset="0.0714" stop-color="#F9EC00"/>
<stop offset="0.3407" stop-color="#F2BE1D"/>
<stop offset="0.6868" stop-color="#ED9D23"/>
<stop offset="1" stop-color="#E87326"/>
</radialGradient>
<radialGradient id="paint39_radial_277_100002" cx="0" cy="0" r="1" gradientUnits="userSpaceOnUse" gradientTransform="translate(27.8845 5.8015) scale(2.62609 2.62609)">
<stop stop-color="white"/>
<stop offset="1" stop-color="#CEDAD9"/>
</radialGradient>
<radialGradient id="paint40_radial_277_100002" cx="0" cy="0" r="1" gradientUnits="userSpaceOnUse" gradientTransform="translate(26.623 4.30415) scale(0.726105)">
<stop stop-color="#F1A7B8"/>
<stop offset="1" stop-color="#EE87A6"/>
</radialGradient>
<radialGradient id="paint41_radial_277_100002" cx="0" cy="0" r="1" gradientUnits="userSpaceOnUse" gradientTransform="translate(24.2001 2.61044) scale(3.79647)">
<stop stop-color="white"/>
<stop offset="1" stop-color="#CEDAD9"/>
</radialGradient>
<radialGradient id="paint42_radial_277_100002" cx="0" cy="0" r="1" gradientUnits="userSpaceOnUse" gradientTransform="translate(24.6053 3.2491) scale(3.91817)">
<stop stop-color="white"/>
<stop offset="1" stop-color="#CEDAD9"/>
</radialGradient>
<radialGradient id="paint43_radial_277_100002" cx="0" cy="0" r="1" gradientUnits="userSpaceOnUse" gradientTransform="translate(23.2615 4.88618) scale(5.08687 5.08687)">
<stop stop-color="white"/>
<stop offset="1" stop-color="#CEDAD9"/>
</radialGradient>
<radialGradient id="paint44_radial_277_100002" cx="0" cy="0" r="1" gradientUnits="userSpaceOnUse" gradientTransform="translate(23.4803 3.59528) scale(2.46252 2.46252)">
<stop stop-color="#F1A7B8"/>
<stop offset="1" stop-color="#EE87A6"/>
</radialGradient>
<radialGradient id="paint45_radial_277_100002" cx="0" cy="0" r="1" gradientUnits="userSpaceOnUse" gradientTransform="translate(18.0793 5.16509) scale(2.36196)">
<stop stop-color="#F1A7B8"/>
<stop offset="1" stop-color="#EE87A6"/>
</radialGradient>
<radialGradient id="paint46_radial_277_100002" cx="0" cy="0" r="1" gradientUnits="userSpaceOnUse" gradientTransform="translate(30.0522 6.78087) scale(1.21597)">
<stop stop-color="#F1A7B8"/>
<stop offset="1" stop-color="#EE87A6"/>
</radialGradient>
<radialGradient id="paint47_radial_277_100002" cx="0" cy="0" r="1" gradientUnits="userSpaceOnUse" gradientTransform="translate(21.7032 14.4995) rotate(35.0102) scale(1.57982 1.01887)">
<stop stop-color="white"/>
<stop offset="1"/>
</radialGradient>
<radialGradient id="paint48_radial_277_100002" cx="0" cy="0" r="1" gradientUnits="userSpaceOnUse" gradientTransform="translate(26.2613 14.2059) rotate(-72.497) scale(1.43933 0.609279)">
<stop stop-color="white"/>
<stop offset="1"/>
</radialGradient>
<radialGradient id="paint49_radial_277_100002" cx="0" cy="0" r="1" gradientUnits="userSpaceOnUse" gradientTransform="translate(21.51 6.52086) rotate(-33.1787) scale(1.23179 1.29327)">
<stop offset="0.0714" stop-color="#F2BE1D"/>
<stop offset="0.6868" stop-color="#ED9D23"/>
<stop offset="1" stop-color="#E87326"/>
</radialGradient>
<radialGradient id="paint50_radial_277_100002" cx="0" cy="0" r="1" gradientUnits="userSpaceOnUse" gradientTransform="translate(22.3868 7.46746) rotate(-33.1787) scale(1.09454 1.14917)">
<stop offset="0.2802" stop-color="white"/>
<stop offset="0.648" stop-color="#FBFEFF"/>
<stop offset="0.7804" stop-color="#F3FAFE"/>
<stop offset="0.8749" stop-color="#E7F6FD"/>
<stop offset="0.9507" stop-color="#D6EFFB"/>
<stop offset="1" stop-color="#C5E9FA"/>
</radialGradient>
<radialGradient id="paint51_radial_277_100002" cx="0" cy="0" r="1" gradientUnits="userSpaceOnUse" gradientTransform="translate(22.5646 7.68557) rotate(-33.18) scale(0.94188 0.994753)">
<stop offset="0.2802" stop-color="white"/>
<stop offset="0.6375" stop-color="#F8FAFC"/>
<stop offset="0.7662" stop-color="#EBF1F4"/>
<stop offset="0.8579" stop-color="#D7E4EB"/>
<stop offset="0.9315" stop-color="#BFD3DC"/>
<stop offset="0.9944" stop-color="#A0BDCB"/>
<stop offset="1" stop-color="#9DBBC9"/>
</radialGradient>
<radialGradient id="paint52_radial_277_100002" cx="0" cy="0" r="1" gradientUnits="userSpaceOnUse" gradientTransform="translate(22.492 7.55342) rotate(-33.18) scale(0.749013)">
<stop offset="0.2802" stop-color="#9BB9C7"/>
<stop offset="0.6174" stop-color="#9AB7C5"/>
<stop offset="0.7389" stop-color="#96B3C0"/>
<stop offset="0.8255" stop-color="#8EAAB7"/>
<stop offset="0.8954" stop-color="#839DAA"/>
<stop offset="0.9547" stop-color="#768D99"/>
<stop offset="1" stop-color="#687E88"/>
</radialGradient>
<radialGradient id="paint53_radial_277_100002" cx="0" cy="0" r="1" gradientUnits="userSpaceOnUse" gradientTransform="translate(27.007 6.4583) rotate(-146.821) scale(1.2318 1.29328)">
<stop offset="0.0714" stop-color="#F2BE1D"/>
<stop offset="0.6868" stop-color="#ED9D23"/>
<stop offset="1" stop-color="#E87326"/>
</radialGradient>
<radialGradient id="paint54_radial_277_100002" cx="0" cy="0" r="1" gradientUnits="userSpaceOnUse" gradientTransform="translate(26.1299 7.40271) rotate(-146.821) scale(1.09454 1.14917)">
<stop offset="0.2802" stop-color="white"/>
<stop offset="0.648" stop-color="#FBFEFF"/>
<stop offset="0.7804" stop-color="#F3FAFE"/>
<stop offset="0.8749" stop-color="#E7F6FD"/>
<stop offset="0.9507" stop-color="#D6EFFB"/>
<stop offset="1" stop-color="#C5E9FA"/>
</radialGradient>
<radialGradient id="paint55_radial_277_100002" cx="0" cy="0" r="1" gradientUnits="userSpaceOnUse" gradientTransform="translate(25.9522 7.62137) rotate(-146.82) scale(0.941902 0.994776)">
<stop offset="0.2802" stop-color="white"/>
<stop offset="0.6375" stop-color="#F8FAFC"/>
<stop offset="0.7662" stop-color="#EBF1F4"/>
<stop offset="0.8579" stop-color="#D7E4EB"/>
<stop offset="0.9315" stop-color="#BFD3DC"/>
<stop offset="0.9944" stop-color="#A0BDCB"/>
<stop offset="1" stop-color="#9DBBC9"/>
</radialGradient>
<radialGradient id="paint56_radial_277_100002" cx="0" cy="0" r="1" gradientUnits="userSpaceOnUse" gradientTransform="translate(26.0242 7.4902) rotate(-146.82) scale(0.749031)">
<stop offset="0.2802" stop-color="#9BB9C7"/>
<stop offset="0.6174" stop-color="#9AB7C5"/>
<stop offset="0.7389" stop-color="#96B3C0"/>
<stop offset="0.8255" stop-color="#8EAAB7"/>
<stop offset="0.8954" stop-color="#839DAA"/>
<stop offset="0.9547" stop-color="#768D99"/>
<stop offset="1" stop-color="#687E88"/>
</radialGradient>
<radialGradient id="paint57_radial_277_100002" cx="0" cy="0" r="1" gradientUnits="userSpaceOnUse" gradientTransform="translate(22.0937 11.7711) rotate(91.8391) scale(1.84687 1.72025)">
<stop stop-color="white"/>
<stop offset="1"/>
</radialGradient>
<radialGradient id="paint58_radial_277_100002" cx="0" cy="0" r="1" gradientUnits="userSpaceOnUse" gradientTransform="translate(24.2558 11.3883) rotate(91.8391) scale(1.84689 1.72026)">
<stop stop-color="white"/>
<stop offset="1"/>
</radialGradient>
<radialGradient id="paint59_radial_277_100002" cx="0" cy="0" r="1" gradientUnits="userSpaceOnUse" gradientTransform="translate(27.476 11.7162) rotate(91.8391) scale(2.00679 1.86921)">
<stop stop-color="white"/>
<stop offset="1"/>
</radialGradient>
<radialGradient id="paint60_radial_277_100002" cx="0" cy="0" r="1" gradientUnits="userSpaceOnUse" gradientTransform="translate(27.9156 11.1665) rotate(81.0312) scale(0.997144)">
<stop offset="0.0055" stop-color="#F38EB2"/>
<stop offset="0.8901" stop-color="#EE5488"/>
</radialGradient>
<radialGradient id="paint61_radial_277_100002" cx="0" cy="0" r="1" gradientUnits="userSpaceOnUse" gradientTransform="translate(24.1206 16.0896) rotate(-100.5) scale(0.853022 0.992569)">
<stop offset="0.0055" stop-color="#F38EB2"/>
<stop offset="0.8901" stop-color="#EE5488"/>
</radialGradient>
<radialGradient id="paint62_radial_277_100002" cx="0" cy="0" r="1" gradientUnits="userSpaceOnUse" gradientTransform="translate(26.008 13.6765) rotate(81.0313) scale(1.79093)">
<stop offset="0.0055" stop-color="#F38EB2"/>
<stop offset="0.8901" stop-color="#EE5488"/>
</radialGradient>
<radialGradient id="paint63_radial_277_100002" cx="0" cy="0" r="1" gradientUnits="userSpaceOnUse" gradientTransform="translate(25.9913 13.6226) rotate(81.0313) scale(1.60527)">
<stop offset="0.0055" stop-color="#FFFEF2"/>
<stop offset="0.8901" stop-color="#F2839B"/>
</radialGradient>
<linearGradient id="paint64_linear_277_100002" x1="24.0083" y1="13.902" x2="25.1654" y2="13.7193" gradientUnits="userSpaceOnUse">
<stop stop-color="white"/>
<stop offset="1"/>
</linearGradient>
<linearGradient id="paint65_linear_277_100002" x1="27.8952" y1="13.306" x2="26.7382" y2="13.4886" gradientUnits="userSpaceOnUse">
<stop stop-color="white"/>
<stop offset="1"/>
</linearGradient>
<radialGradient id="paint66_radial_277_100002" cx="0" cy="0" r="1" gradientUnits="userSpaceOnUse" gradientTransform="translate(25.1846 12.4637) rotate(80.0723) scale(1.60527)">
<stop offset="0.0055" stop-color="#FFFEF2"/>
<stop offset="0.8901" stop-color="#1B75BC"/>
</radialGradient>
<linearGradient id="paint67_linear_277_100002" x1="23.205" y1="12.7766" x2="24.359" y2="12.5746" gradientUnits="userSpaceOnUse">
<stop stop-color="white"/>
<stop offset="1"/>
</linearGradient>
<linearGradient id="paint68_linear_277_100002" x1="27.0827" y1="12.1138" x2="25.9288" y2="12.3158" gradientUnits="userSpaceOnUse">
<stop stop-color="white"/>
<stop offset="1"/>
</linearGradient>
<linearGradient id="paint69_linear_277_100002" x1="19.418" y1="11.2714" x2="21.3698" y2="11.2714" gradientUnits="userSpaceOnUse">
<stop stop-color="#009445"/>
<stop offset="1" stop-color="#006838"/>
</linearGradient>
<linearGradient id="paint70_linear_277_100002" x1="25.7805" y1="15.8078" x2="23.8287" y2="15.8078" gradientUnits="userSpaceOnUse">
<stop stop-color="#009445"/>
<stop offset="1" stop-color="#006838"/>
</linearGradient>
<linearGradient id="paint71_linear_277_100002" x1="20.7842" y1="13.5475" x2="24.3666" y2="13.5475" gradientUnits="userSpaceOnUse">
<stop stop-color="#009445"/>
<stop offset="1" stop-color="#006838"/>
</linearGradient>
<linearGradient id="paint72_linear_277_100002" x1="22.8238" y1="13.5343" x2="19.5099" y2="13.7488" gradientUnits="userSpaceOnUse">
<stop stop-color="#7FB539"/>
<stop offset="1" stop-color="#006838"/>
</linearGradient>
<linearGradient id="paint73_linear_277_100002" x1="22.487" y1="15.5552" x2="22.487" y2="14.3837" gradientUnits="userSpaceOnUse">
<stop stop-color="white"/>
<stop offset="1"/>
</linearGradient>
<linearGradient id="paint74_linear_277_100002" x1="22.5032" y1="11.6241" x2="22.5032" y2="12.7956" gradientUnits="userSpaceOnUse">
<stop stop-color="white"/>
<stop offset="1"/>
</linearGradient>
<radialGradient id="paint75_radial_277_100002" cx="0" cy="0" r="1" gradientUnits="userSpaceOnUse" gradientTransform="translate(23.489 9.80058) rotate(41.5541) scale(0.99713)">
<stop offset="0.0055" stop-color="#F38EB2"/>
<stop offset="0.8901" stop-color="#EE5488"/>
</radialGradient>
<radialGradient id="paint76_radial_277_100002" cx="0" cy="0" r="1" gradientUnits="userSpaceOnUse" gradientTransform="translate(23.7798 16.1218) rotate(-138.446) scale(0.997161)">
<stop offset="0.0055" stop-color="#F38EB2"/>
<stop offset="0.8901" stop-color="#EE5488"/>
</radialGradient>
<radialGradient id="paint77_radial_277_100002" cx="0" cy="0" r="1" gradientUnits="userSpaceOnUse" gradientTransform="translate(23.6118 12.951) rotate(41.5541) scale(1.79093)">
<stop offset="0.0055" stop-color="#F38EB2"/>
<stop offset="0.8901" stop-color="#EE5488"/>
</radialGradient>
<radialGradient id="paint78_radial_277_100002" cx="0" cy="0" r="1" gradientUnits="userSpaceOnUse" gradientTransform="translate(23.5662 12.9182) rotate(41.5541) scale(1.60528)">
<stop offset="0.0055" stop-color="#FFFEF2"/>
<stop offset="0.8901" stop-color="#F2839B"/>
</radialGradient>
<linearGradient id="paint79_linear_277_100002" x1="22.2132" y1="14.3953" x2="22.9903" y2="13.5187" gradientUnits="userSpaceOnUse">
<stop stop-color="white"/>
<stop offset="1"/>
</linearGradient>
<linearGradient id="paint80_linear_277_100002" x1="24.8328" y1="11.4635" x2="24.0557" y2="12.3401" gradientUnits="userSpaceOnUse">
<stop stop-color="white"/>
<stop offset="1"/>
</linearGradient>
<radialGradient id="paint81_radial_277_100002" cx="0" cy="0" r="1" gradientUnits="userSpaceOnUse" gradientTransform="translate(22.3986 13.3428) rotate(7.25578) scale(6.12911 6.12911)">
<stop offset="0.0714" stop-color="#F9EC00"/>
<stop offset="0.3407" stop-color="#F2BE1D"/>
<stop offset="0.6868" stop-color="#ED9D23"/>
<stop offset="1" stop-color="#E87326"/>
</radialGradient>
<radialGradient id="paint82_radial_277_100002" cx="0" cy="0" r="1" gradientUnits="userSpaceOnUse" gradientTransform="translate(24.9436 11.9949) rotate(-7.9729) scale(6.77119 6.77119)">
<stop offset="0.0714" stop-color="#F9EC00"/>
<stop offset="0.3407" stop-color="#F2BE1D"/>
<stop offset="0.6868" stop-color="#ED9D23"/>
<stop offset="1" stop-color="#E87326"/>
</radialGradient>
</defs>
</svg>
