<svg width="143" height="125" viewBox="0 0 143 125" fill="none" xmlns="http://www.w3.org/2000/svg">
<path d="M122.231 0.0102539H86.8126V34.442H122.231V0.0102539Z" fill="#E0E0E0"/>
<path d="M119.832 0.0102539H84.4138V34.442H119.832V0.0102539Z" fill="#FAFAFA"/>
<path d="M119.843 34.452H84.4028V0H119.843L119.843 34.452ZM84.4249 34.4317H119.821V0.0202805H84.4249V34.4317Z" fill="#E0E0E0"/>
<path d="M115.071 4.63867H89.175V29.8131H115.071V4.63867Z" fill="white"/>
<path d="M89.1751 29.9806C89.1956 30.0032 88.9494 30.2666 88.5359 30.6733C88.1224 31.0804 87.5413 31.6312 86.8898 32.2297C86.2381 32.8284 85.6396 33.3612 85.1981 33.7398C84.7565 34.1181 84.4719 34.342 84.4495 34.3212C84.4272 34.3 84.6714 34.0381 85.0852 33.6311C85.4987 33.2243 86.0814 32.672 86.7351 32.0718C87.3884 31.4716 87.9885 30.9373 88.43 30.559C88.8716 30.1804 89.1549 29.9579 89.1751 29.9806Z" fill="#E0E0E0"/>
<path d="M115.071 29.9186C115.095 29.8995 115.378 30.1287 115.814 30.5144C116.251 30.9003 116.841 31.442 117.483 32.0495C118.125 32.6573 118.697 33.2155 119.102 33.6273C119.508 34.039 119.748 34.3044 119.726 34.3253C119.703 34.3462 119.422 34.1184 118.986 33.7328C118.549 33.3469 117.957 32.8037 117.314 32.1941C116.671 31.5848 116.098 31.0252 115.692 30.6134C115.285 30.2016 115.047 29.9377 115.071 29.9186Z" fill="#E0E0E0"/>
<path d="M115 4.706C114.98 4.68337 115.226 4.42002 115.639 4.01323C116.053 3.60616 116.634 3.05535 117.285 2.45693C117.937 1.85822 118.536 1.32505 118.977 0.946483C119.419 0.568209 119.703 0.344242 119.726 0.365111C119.748 0.385979 119.504 0.648155 119.09 1.05494C118.677 1.46202 118.094 2.014 117.44 2.61447C116.787 3.21466 116.187 3.74871 115.745 4.12728C115.304 4.50584 115.021 4.72863 115 4.706Z" fill="#E0E0E0"/>
<path d="M89.1041 4.76772C89.0799 4.78682 88.7975 4.55757 88.3613 4.17165C87.9248 3.78603 87.3342 3.24404 86.6925 2.63651C86.0505 2.02869 85.4788 1.47053 85.0732 1.05875C84.6673 0.646972 84.4274 0.381564 84.4498 0.360695C84.4722 0.339827 84.753 0.567614 85.1895 0.953236C85.626 1.33886 86.2182 1.88231 86.8614 2.4919C87.505 3.1012 88.078 3.66082 88.4836 4.0726C88.8898 4.48467 89.1284 4.74861 89.1041 4.76772Z" fill="#E0E0E0"/>
<path d="M115 29.8134C114.998 29.8116 114.996 29.7705 114.995 29.6911C114.993 29.6053 114.991 29.4895 114.989 29.3399C114.986 29.0242 114.982 28.5704 114.977 27.9808C114.971 26.7884 114.962 25.0531 114.951 22.8501C114.939 18.4411 114.921 12.1597 114.9 4.63892L115 4.73209C107.462 4.73621 98.6086 4.74091 89.1779 4.74591H89.1754L89.2901 4.63892C89.2841 13.8789 89.2784 22.5233 89.274 29.8134L89.1754 29.7217C96.9139 29.7411 103.357 29.7572 107.874 29.7684C110.131 29.7787 111.907 29.7869 113.127 29.7922C113.729 29.7969 114.193 29.8005 114.516 29.8028C114.669 29.8052 114.787 29.8066 114.875 29.8081C114.956 29.8102 114.998 29.8119 115 29.8134C115.002 29.8152 114.964 29.8169 114.886 29.8187C114.801 29.8199 114.686 29.8216 114.538 29.824C114.219 29.8263 113.761 29.8298 113.167 29.8345C111.952 29.8401 110.184 29.8484 107.937 29.8586C103.404 29.8698 96.9398 29.8863 89.1751 29.9057L89.0767 29.906V29.8137C89.072 22.5236 89.0663 13.8794 89.0607 4.63921V4.53223H89.1754H89.1779C98.6086 4.53722 107.462 4.54193 115 4.54604H115.1L115.1 4.63921C115.079 12.1847 115.062 18.4863 115.049 22.9098C115.038 25.1039 115.029 26.8319 115.023 28.0196C115.018 28.6013 115.014 29.0492 115.012 29.3608C115.009 29.5062 115.007 29.6185 115.006 29.702C115.004 29.7778 115.002 29.8154 115 29.8134Z" fill="#E0E0E0"/>
<path d="M106.444 13.1968H97.8027V21.2552H106.444V13.1968Z" fill="#EBEBEB"/>
<path d="M128.263 91.048C130.194 90.1189 132.467 89.9981 134.611 90.3285C135.762 90.506 136.963 90.8273 137.747 91.6341C138.53 92.4409 138.678 93.8605 137.779 94.5536C137.243 94.9663 136.496 95.0289 135.802 95.0215C134.124 95.0033 132.262 94.7276 130.921 95.6693C130.156 96.2066 129.647 97.0995 128.733 97.3638C127.838 97.6221 126.828 97.1298 126.354 96.3768C125.88 95.6238 125.864 94.6823 126.085 93.8338C126.085 93.8338 126.318 91.9839 128.263 91.048Z" fill="#EBEBEB"/>
<path d="M123.84 83.0846C125.02 84.6571 127.315 84.1366 128.379 83.1766C129.443 82.2167 129.893 80.8256 130.302 79.4988C131.237 76.4676 132.18 73.2877 131.484 70.201C131.276 69.2781 130.906 68.3578 130.211 67.6733C129.516 66.9887 128.447 66.5814 127.469 66.8221C126.312 67.1072 125.593 68.1638 125.073 69.1693C123.545 72.1244 122.736 75.4004 122.724 78.6808C122.719 80.213 122.913 81.8199 123.84 83.0846Z" fill="#EBEBEB"/>
<path d="M120.345 89.8964C121.627 88.4777 121.87 86.4082 121.3 84.6309C120.73 82.8533 119.441 81.3413 117.956 80.1069C116.214 78.6596 114.167 77.5333 111.967 76.8117C111.101 76.5278 110.188 76.3038 109.274 76.385C108.361 76.4664 107.44 76.902 107.014 77.6603C106.384 78.7813 106.988 80.141 107.642 81.2502C108.793 83.2045 110.11 85.0741 111.575 86.8361C112.754 88.2537 114.104 89.6519 115.901 90.2923C117.698 90.9328 119.564 90.8575 120.517 89.6954" fill="#EBEBEB"/>
<path d="M123.759 106.806C123.782 106.808 123.817 106.553 123.866 106.092C123.921 105.572 123.989 104.919 124.07 104.142C124.167 103.321 124.296 102.345 124.54 101.281C124.784 100.221 125.165 99.0711 125.655 97.9054C126.162 96.7465 126.781 95.693 127.503 94.8507C128.221 94.0045 129.056 93.3919 129.84 93.0387C130.622 92.6783 131.324 92.5322 131.808 92.467C132.297 92.4203 132.571 92.3844 132.571 92.3641C132.572 92.3438 132.297 92.3406 131.795 92.353C131.298 92.3838 130.567 92.5014 129.743 92.8509C128.916 93.193 128.031 93.8149 127.278 94.6787C126.519 95.5387 125.878 96.6154 125.361 97.7949C124.863 98.9811 124.487 100.142 124.255 101.226C124.022 102.308 123.916 103.295 123.847 104.123C123.78 104.951 123.755 105.621 123.743 106.085C123.732 106.548 123.738 106.805 123.759 106.806Z" fill="#E0E0E0"/>
<path d="M123.904 105.306C123.914 105.305 123.921 105.191 123.924 104.974C123.923 104.725 123.922 104.411 123.921 104.026C123.919 103.203 123.919 102.012 123.966 100.542C124.044 97.6006 124.316 94.4356 124.84 89.9734C125.337 85.7774 126.003 80.8945 126.707 77.7196C126.858 76.9974 127.01 76.3476 127.153 75.7788C127.289 75.2086 127.406 74.7169 127.518 74.3192C127.615 73.9448 127.693 73.6397 127.756 73.3975C127.807 73.1859 127.828 73.0733 127.818 73.0704C127.807 73.0674 127.765 73.1747 127.694 73.3813C127.617 73.62 127.519 73.9207 127.399 74.2898C127.268 74.684 127.134 75.1725 126.981 75.7403C126.821 76.307 126.654 76.9551 126.489 77.6761C125.793 80.5527 125.055 84.5735 124.526 89.0463C124.001 93.5177 123.764 97.5891 123.743 100.537C123.724 102.011 123.758 103.205 123.798 104.028C123.823 104.413 123.844 104.727 123.86 104.976C123.878 105.193 123.893 105.306 123.904 105.306Z" fill="#E0E0E0"/>
<path d="M123.673 102.009C123.695 102.008 123.691 101.656 123.665 101.019C123.626 100.382 123.532 99.462 123.34 98.3351C123.136 97.2108 122.851 95.8759 122.404 94.4254C122.21 93.7623 121.754 92.1734 120.651 89.7991C119.197 86.5821 117.221 83.9519 115.503 82.323C115.099 81.8906 114.65 81.5788 114.291 81.2731C114.105 81.1267 113.941 80.9803 113.774 80.8648C113.606 80.7567 113.449 80.6561 113.304 80.5627C112.738 80.202 112.422 80.0116 112.41 80.0289C112.359 80.0933 113.677 80.8163 115.341 82.4673C116.998 84.1144 118.918 86.7265 120.36 89.9164C121.164 91.6467 121.725 93.1897 122.123 94.5C122.583 95.9364 122.888 97.2579 123.119 98.3709C123.338 99.4864 123.466 100.397 123.542 101.028C123.605 101.66 123.651 102.01 123.673 102.009Z" fill="#E0E0E0"/>
<path d="M115.786 111.305L116.63 122.085H131.48L132.323 111.305H115.786Z" fill="#E0E0E0"/>
<path d="M134.095 107.056H114.352V111.305H134.095V107.056Z" fill="#E0E0E0"/>
<path d="M114.352 121.673V122.851H115.279H133.769V121.673H114.352Z" fill="#EBEBEB"/>
<path d="M116.189 124.923L115.279 122.85H133.062L132.001 124.923H116.189Z" fill="#E0E0E0"/>
<path d="M132.048 114.828C132.051 114.831 132.028 114.864 131.978 114.927C131.919 115 131.846 115.09 131.757 115.202C131.546 115.453 131.256 115.799 130.891 116.234L130.853 116.28L130.816 116.232C130.272 115.531 129.546 114.594 128.691 113.491H128.813C128.181 114.325 127.477 115.255 126.721 116.254L126.655 116.34L126.582 116.259C125.809 115.402 124.971 114.472 124.1 113.506L124.243 113.504C124.2 113.554 124.153 113.609 124.107 113.664C123.337 114.563 122.592 115.434 121.888 116.258L121.814 116.344L121.745 116.254C120.992 115.26 120.288 114.332 119.652 113.492L119.774 113.497C118.742 114.594 117.867 115.523 117.196 116.237L117.15 116.285L117.115 116.231C116.775 115.698 116.504 115.274 116.308 114.966C116.223 114.829 116.155 114.718 116.101 114.629C116.055 114.552 116.034 114.511 116.037 114.509C116.041 114.507 116.071 114.543 116.124 114.616C116.184 114.701 116.26 114.808 116.353 114.94C116.559 115.242 116.844 115.659 117.2 116.182L117.12 116.176C117.781 115.453 118.641 114.512 119.656 113.403L119.72 113.333L119.778 113.408C120.42 114.244 121.13 115.169 121.891 116.158L121.749 116.155C122.451 115.33 123.194 114.458 123.962 113.556C124.009 113.501 124.056 113.447 124.099 113.397L124.169 113.314L124.242 113.395C125.11 114.363 125.946 115.295 126.716 116.154L126.577 116.159C127.341 115.165 128.052 114.24 128.691 113.41L128.753 113.329L128.813 113.41C129.65 114.525 130.361 115.472 130.894 116.181L130.818 116.179C131.197 115.755 131.498 115.418 131.718 115.173C131.815 115.067 131.895 114.982 131.959 114.913C132.014 114.854 132.044 114.826 132.048 114.828Z" fill="#F5F5F5"/>
<path d="M132.53 111.234C132.53 111.282 128.809 111.32 124.22 111.32C119.63 111.32 115.91 111.282 115.91 111.234C115.91 111.186 119.63 111.148 124.22 111.148C128.809 111.148 132.53 111.186 132.53 111.234Z" fill="#F5F5F5"/>
<path d="M133.28 122.966C133.28 123.014 129.236 123.053 124.249 123.053C119.26 123.053 115.217 123.014 115.217 122.966C115.217 122.919 119.26 122.88 124.249 122.88C129.236 122.88 133.28 122.919 133.28 122.966Z" fill="#F5F5F5"/>
<path d="M5.59888 112.029V124.83H25.6717H47.811V112.029H5.59888Z" fill="#F5F5F5"/>
<path d="M3.828 108.451V112.029H49.2869V108.451H25.6717H3.828Z" fill="#E0E0E0"/>
<path d="M26.5574 124.83H47.8111V112.029H49.287V108.451H25.6718V111.698L26.5574 124.83Z" fill="#E0E0E0"/>
<path d="M20.063 114.094H11.5026V116.021H20.063V114.094Z" fill="#E0E0E0"/>
<path d="M21.393 118.43H10.4011V122.499H21.393V118.43Z" fill="white"/>
<path d="M12.0931 95.6665V108.467H32.1659H54.3053V95.6665H12.0931Z" fill="#F5F5F5"/>
<path d="M10.3223 92.0874V95.6665H55.7812V92.0874H32.166H10.3223Z" fill="#E0E0E0"/>
<path d="M33.0516 108.467H54.3053V95.6665H55.7813V92.0874H32.166V95.3352L33.0516 108.467Z" fill="#E0E0E0"/>
<path d="M26.5577 97.731H17.9972V99.6579H26.5577V97.731Z" fill="#E0E0E0"/>
<path d="M27.8873 102.066H16.8953V106.135H27.8873V102.066Z" fill="white"/>
<path d="M143 124.924C143 124.966 110.986 125 71.5035 125C32.0074 125 0 124.966 0 124.924C0 124.881 32.0074 124.847 71.5035 124.847C110.986 124.847 143 124.881 143 124.924Z" fill="#263238"/>
<path d="M55.63 105L18.7463 104.979C14.3104 104.977 10.7156 101.594 10.7166 97.4225L10.7339 10.4675C10.7348 6.29375 14.3343 2.91116 18.7728 2.91358L55.6564 2.93409C60.0924 2.93681 63.6868 6.3194 63.3805 10.4911L63.3631 97.446C63.6682 101.62 60.0687 105.003 55.63 105Z" fill="#263238"/>
<path d="M55.6769 5.42238L48.5258 5.41845C47.5668 5.41815 46.7889 6.19575 46.7892 7.15561L46.7886 8.39761C46.7886 9.35747 46.0108 10.1354 45.0521 10.1348L31.113 10.1269C30.1539 10.1266 29.3768 9.34781 29.3768 8.38795L29.3771 7.14596C29.3771 6.1861 28.5999 5.40759 27.6408 5.40699L25.1258 5.40548L18.867 5.40186C15.7585 5.40035 13.2375 7.81192 13.2369 10.7881L13.2192 97.2011C13.2186 100.176 15.7358 102.588 18.8427 102.59L55.6526 102.61C58.7608 102.612 61.2817 100.2 61.2827 97.224L61.3003 10.8107C61.301 7.83606 58.7838 5.42419 55.6769 5.42238Z" fill="#FF725E"/>
<path d="M57.78 15.3696C57.7803 15.3944 56.7879 15.4221 55.5641 15.4318C54.3397 15.4414 53.3472 15.4294 53.3469 15.4046C53.3466 15.3799 54.3387 15.3521 55.5632 15.3422C56.7873 15.3325 57.78 15.3449 57.78 15.3696Z" fill="white"/>
<path d="M57.7895 16.4563C57.7899 16.481 56.7974 16.5088 55.5736 16.5184C54.3492 16.5281 53.3568 16.516 53.3564 16.4913C53.3561 16.4665 54.3483 16.4388 55.5727 16.4291C56.7968 16.4195 57.7892 16.4315 57.7895 16.4563Z" fill="white"/>
<path d="M57.7989 17.542C57.7993 17.5667 56.8068 17.5945 55.583 17.6041C54.3586 17.6138 53.3662 17.6017 53.3658 17.577C53.3655 17.5522 54.3577 17.5245 55.5821 17.5145C56.8062 17.5049 57.7986 17.5172 57.7989 17.542Z" fill="white"/>
<path d="M17.4693 18.817C17.4709 18.8152 17.5027 18.8134 17.5616 18.8112C17.6341 18.8088 17.7186 18.8061 17.8179 18.8031C18.0596 18.7977 18.376 18.7904 18.7643 18.7817L18.7381 18.807C18.7347 18.6061 18.7312 18.3867 18.7271 18.1498C18.7284 18.0276 18.7161 17.9126 18.7287 17.7714C18.7542 17.6308 18.8853 17.5065 19.0464 17.492C19.1989 17.4893 19.3332 17.4826 19.4986 17.4899C19.6691 17.5098 19.8141 17.667 19.8091 17.8399C19.8125 18.1465 19.8163 18.4663 19.8204 18.7983L19.7766 18.7569C20.1598 18.7533 20.5592 18.7494 20.9708 18.7452L20.9254 18.7892C20.9213 18.3287 20.9165 17.8526 20.9121 17.3647C20.9112 17.2431 20.9099 17.1221 20.909 17.002C20.9084 16.89 20.8374 16.8152 20.741 16.7319C20.5642 16.5653 20.3902 16.4009 20.2191 16.2394C20.0483 16.078 19.8803 15.9193 19.7155 15.7636C19.6332 15.686 19.5519 15.6088 19.4715 15.5328C19.3877 15.4552 19.3218 15.3752 19.2244 15.3562C19.1302 15.3321 19.0262 15.3511 18.9506 15.4063C18.8784 15.4649 18.8012 15.5475 18.7284 15.6157C18.5815 15.7579 18.4384 15.8958 18.3001 16.0294C18.0306 16.2974 17.7498 16.5424 17.5459 16.7735C17.4598 16.9015 17.492 17.0578 17.4857 17.2002C17.4854 17.3417 17.485 17.4763 17.4847 17.603C17.4832 17.8499 17.4819 18.0665 17.4806 18.2518C17.4787 18.4175 17.4772 18.5545 17.4759 18.6667C17.4734 18.7633 17.4715 18.8149 17.4693 18.817C17.4671 18.8191 17.4642 18.772 17.4611 18.6794C17.4579 18.5689 17.4538 18.4341 17.4491 18.2708C17.4447 18.084 17.4397 17.8659 17.4337 17.6166C17.4311 17.4875 17.4286 17.3505 17.4258 17.2059C17.4245 17.1329 17.4233 17.0578 17.422 16.9811C17.4214 16.9 17.4431 16.8161 17.4879 16.7419C17.7088 16.4827 17.9723 16.2533 18.244 15.9775C18.3814 15.8426 18.5232 15.7035 18.6691 15.5605C18.7457 15.4887 18.8084 15.4169 18.8995 15.342C18.995 15.2717 19.1261 15.2464 19.2459 15.2769C19.3729 15.3037 19.4554 15.4033 19.5327 15.473C19.6137 15.5487 19.6953 15.6254 19.7779 15.7029C19.943 15.858 20.1116 16.0161 20.2831 16.177C20.4545 16.3384 20.6291 16.5023 20.8062 16.6685C20.8482 16.7111 20.8986 16.747 20.9396 16.8067C20.978 16.8638 21.0004 16.9311 21.0023 16.9995C21.0035 17.1202 21.0045 17.2419 21.0057 17.3641C21.0095 17.852 21.0133 18.3281 21.0171 18.7886L21.0174 18.8327L20.9717 18.833C20.5604 18.8354 20.1611 18.8378 19.7775 18.8402L19.7337 18.8405L19.7334 18.7989C19.7315 18.4669 19.73 18.1468 19.7281 17.8405C19.7331 17.7023 19.6209 17.5804 19.487 17.5629C19.3496 17.556 19.1876 17.5605 19.0539 17.5617C18.9257 17.572 18.8185 17.6706 18.7964 17.7841C18.7851 17.8991 18.7939 18.033 18.7914 18.1495C18.7914 18.3864 18.7917 18.6058 18.7917 18.8067V18.8324L18.7656 18.8321C18.3707 18.8293 18.0492 18.8272 17.803 18.8257C17.7057 18.8242 17.6234 18.8227 17.5525 18.8215C17.4958 18.8203 17.4677 18.8188 17.4693 18.817Z" fill="white"/>
<path d="M39.492 90.3544C43.2783 90.3544 46.3478 87.4156 46.3478 83.7905C46.3478 80.1653 43.2783 77.2266 39.492 77.2266C35.7057 77.2266 32.6362 80.1653 32.6362 83.7905C32.6362 87.4156 35.7057 90.3544 39.492 90.3544Z" fill="white"/>
<path d="M35.2871 85.3007L36.999 84.9151C37.2105 84.8674 37.3596 84.6869 37.3596 84.479V84.1411C37.3596 84.1411 37.2858 83.5674 37.8515 83.5315C38.2568 83.5059 40.8324 83.5315 40.8324 83.5315C40.8324 83.5315 41.51 83.5192 41.498 84.0303V84.5213C41.498 84.6902 41.6136 84.8393 41.7826 84.8885L43.6395 85.4259C43.8365 85.4829 44.0467 85.3876 44.1255 85.2056L44.3625 84.6577C44.406 84.5569 44.4274 84.4495 44.4214 84.3408C44.4101 84.1263 44.3234 83.7907 44.1025 83.5195C43.7344 83.0678 41.9991 81.9996 38.6892 82.1532C35.5376 82.2995 34.8502 83.5717 34.6696 83.8755C34.5571 84.0644 34.5234 84.527 34.6107 84.7231C34.6432 84.7956 34.6961 84.9172 34.7481 85.0367C34.836 85.2391 35.0642 85.3511 35.2871 85.3007Z" fill="#FF725E"/>
<g opacity="0.2">
<path d="M39.4919 67.3056C42.1143 67.3056 44.2402 65.2703 44.2402 62.7595C44.2402 60.2488 42.1143 58.2134 39.4919 58.2134C36.8695 58.2134 34.7437 60.2488 34.7437 62.7595C34.7437 65.2703 36.8695 67.3056 39.4919 67.3056Z" fill="white"/>
</g>
<path d="M38.1941 63.2943C38.4992 63.2943 38.7466 63.0574 38.7466 62.7653C38.7466 62.4732 38.4992 62.2363 38.1941 62.2363C37.889 62.2363 37.6416 62.4732 37.6416 62.7653C37.6416 63.0574 37.889 63.2943 38.1941 63.2943Z" fill="white"/>
<path d="M40.0444 62.7653C40.0444 63.0574 39.797 63.2943 39.4919 63.2943C39.1869 63.2943 38.9395 63.0574 38.9395 62.7653C38.9395 62.4732 39.1869 62.2363 39.4919 62.2363C39.797 62.2363 40.0444 62.4732 40.0444 62.7653Z" fill="white"/>
<path d="M41.3423 62.7653C41.3423 63.0574 41.0949 63.2943 40.7898 63.2943C40.4847 63.2943 40.2373 63.0574 40.2373 62.7653C40.2373 62.4732 40.4847 62.2363 40.7898 62.2363C41.0949 62.2363 41.3423 62.4732 41.3423 62.7653Z" fill="white"/>
<path d="M38.7466 61.5031C38.7466 61.7952 38.4992 62.0321 38.1941 62.0321C37.889 62.0321 37.6416 61.7952 37.6416 61.5031C37.6416 61.211 37.889 60.9741 38.1941 60.9741C38.4992 60.9741 38.7466 61.211 38.7466 61.5031Z" fill="white"/>
<path d="M40.0444 61.5031C40.0444 61.7952 39.797 62.0321 39.4919 62.0321C39.1869 62.0321 38.9395 61.7952 38.9395 61.5031C38.9395 61.211 39.1869 60.9741 39.4919 60.9741C39.797 60.9741 40.0444 61.211 40.0444 61.5031Z" fill="white"/>
<path d="M41.3423 61.5031C41.3423 61.7952 41.0949 62.0321 40.7898 62.0321C40.4847 62.0321 40.2373 61.7952 40.2373 61.5031C40.2373 61.211 40.4847 60.9741 40.7898 60.9741C41.0949 60.9741 41.3423 61.211 41.3423 61.5031Z" fill="white"/>
<path d="M38.7466 64.0143C38.7466 64.3064 38.4992 64.5433 38.1941 64.5433C37.889 64.5433 37.6416 64.3064 37.6416 64.0143C37.6416 63.7222 37.889 63.4854 38.1941 63.4854C38.4992 63.4854 38.7466 63.7222 38.7466 64.0143Z" fill="white"/>
<path d="M40.0444 64.0143C40.0444 64.3064 39.797 64.5433 39.4919 64.5433C39.1869 64.5433 38.9395 64.3064 38.9395 64.0143C38.9395 63.7222 39.1869 63.4854 39.4919 63.4854C39.797 63.4854 40.0444 63.7222 40.0444 64.0143Z" fill="white"/>
<path d="M41.3423 64.0143C41.3423 64.3064 41.0949 64.5433 40.7898 64.5433C40.4847 64.5433 40.2373 64.3064 40.2373 64.0143C40.2373 63.7222 40.4847 63.4854 40.7898 63.4854C41.0949 63.4854 41.3423 63.7222 41.3423 64.0143Z" fill="white"/>
<g opacity="0.2">
<path d="M25.8589 67.3056C28.4813 67.3056 30.6072 65.2703 30.6072 62.7595C30.6072 60.2488 28.4813 58.2134 25.8589 58.2134C23.2365 58.2134 21.1107 60.2488 21.1107 62.7595C21.1107 65.2703 23.2365 67.3056 25.8589 67.3056Z" fill="white"/>
</g>
<path d="M23.6298 62.1658V63.2427C23.6298 63.2883 23.6685 63.3254 23.7161 63.3254H24.3364C24.3556 63.3254 24.3745 63.3314 24.3896 63.3429L25.3569 64.0668C25.4136 64.1093 25.4965 64.0704 25.4965 64.0016V61.4862C25.4965 61.4189 25.4167 61.3797 25.3597 61.4189L24.4227 62.0638C24.4082 62.0737 24.3906 62.0792 24.3726 62.0792L23.7155 62.0828C23.6682 62.0831 23.6298 62.1202 23.6298 62.1658Z" fill="white"/>
<path d="M27.2948 64.5771C27.2689 64.5771 27.2428 64.5684 27.2223 64.5506C27.1775 64.5122 27.1737 64.4462 27.2138 64.4033C27.7546 63.8258 28.0108 63.2286 27.9758 62.629C27.9232 61.731 27.2295 61.1294 27.2226 61.1233C27.1775 61.085 27.1734 61.0192 27.2134 60.9764C27.2535 60.9335 27.3219 60.9293 27.3669 60.9679C27.3984 60.9948 28.1353 61.6339 28.193 62.6173C28.2314 63.2745 27.9566 63.9223 27.3758 64.5427C27.3543 64.5654 27.3247 64.5771 27.2948 64.5771Z" fill="white"/>
<path d="M26.6953 64.0689C26.6663 64.0689 26.6373 64.0578 26.6159 64.0361C26.5749 63.9941 26.5771 63.9283 26.6206 63.8888C27.0042 63.5445 27.1993 63.1694 27.1996 62.7738C27.2005 62.0949 26.6266 61.5696 26.6206 61.5644C26.5768 61.5249 26.5746 61.4591 26.6159 61.4172C26.6575 61.3752 26.7265 61.3731 26.7697 61.4124C26.7962 61.4359 27.4174 62.0023 27.4174 62.7723C27.4174 63.2283 27.1996 63.6549 26.7697 64.0406C26.7486 64.0596 26.7221 64.0689 26.6953 64.0689Z" fill="white"/>
<path d="M26.1646 63.544C26.1365 63.544 26.1085 63.5337 26.0873 63.5132C26.0451 63.4722 26.0454 63.4064 26.0883 63.3656C26.7568 62.7314 26.111 62.0138 26.0832 61.9836C26.0435 61.9405 26.048 61.8747 26.093 61.8367C26.1381 61.7987 26.2068 61.8026 26.2462 61.8454C26.2544 61.8545 27.0571 62.7398 26.2415 63.5138C26.22 63.534 26.1923 63.544 26.1646 63.544Z" fill="white"/>
<g opacity="0.2">
<path d="M51.9577 67.3056C54.5801 67.3056 56.706 65.2703 56.706 62.7595C56.706 60.2488 54.5801 58.2134 51.9577 58.2134C49.3353 58.2134 47.2095 60.2488 47.2095 62.7595C47.2095 65.2703 49.3353 67.3056 51.9577 67.3056Z" fill="white"/>
</g>
<path d="M51.9868 64.3318C51.9064 64.3318 51.8418 64.2697 51.8418 64.193V61.3258C51.8418 61.2489 51.9067 61.187 51.9868 61.187C52.0668 61.187 52.1317 61.2492 52.1317 61.3258V64.193C52.1321 64.2697 52.0671 64.3318 51.9868 64.3318Z" fill="white"/>
<path d="M53.41 62.8987H50.5054C50.4254 62.8987 50.3605 62.8365 50.3605 62.7599C50.3605 62.6833 50.4254 62.6211 50.5054 62.6211H53.41C53.4904 62.6211 53.555 62.6833 53.555 62.7599C53.5553 62.8365 53.4904 62.8987 53.41 62.8987Z" fill="white"/>
<path d="M33.5801 32.1052C34.8786 33.4462 35.5281 35.3746 35.5281 37.8915C35.5281 39.6745 35.1799 41.2026 34.484 42.4757C33.7875 43.749 32.8057 44.7152 31.5385 45.3743C30.2712 46.0336 28.8079 46.3628 27.1495 46.3628C26.273 46.3628 25.4363 46.2689 24.6383 46.0819C23.8403 45.8948 23.1595 45.6289 22.5963 45.2843L24.0045 42.6102C24.8025 43.1347 25.8271 43.3969 27.0789 43.3969C28.4713 43.3969 29.5744 43.0037 30.3881 42.2171C31.2016 41.4307 31.6396 40.2958 31.7024 38.8128C30.7165 39.7566 29.3553 40.2283 27.6188 40.2283C26.5702 40.2283 25.6159 40.0261 24.7555 39.6214C23.8948 39.2171 23.214 38.6441 22.7136 37.9024C22.2125 37.161 21.9625 36.3034 21.9625 35.3297C21.9625 34.2811 22.2361 33.3599 22.7842 32.5657C23.3316 31.7718 24.0785 31.1613 25.0256 30.7344C25.972 30.3074 27.0241 30.0938 28.1823 30.0938C30.482 30.0941 32.2813 30.7645 33.5801 32.1052ZM30.4937 36.8463C31.0178 36.4045 31.28 35.839 31.28 35.1495C31.28 34.4606 31.0254 33.8988 30.5173 33.4643C30.0087 33.0301 29.3087 32.8125 28.4168 32.8125C27.603 32.8125 26.9418 33.0225 26.4338 33.4416C25.9251 33.8611 25.6711 34.4302 25.6711 35.1492C25.6711 35.8683 25.9254 36.4413 26.4338 36.8683C26.9421 37.2953 27.6191 37.5086 28.4637 37.5086C29.2929 37.5092 29.9696 37.2883 30.4937 36.8463Z" fill="white"/>
<path d="M43.5548 30.3633V46.0928H39.7526V33.2845H36.467V30.3633H43.5548Z" fill="white"/>
<path d="M52.7547 30.3633V46.0928H48.9526V33.2845H45.667V30.3633H52.7547Z" fill="white"/>
<path d="M23.1898 52.4342V52.9653H21.1526V50.5356H23.1428V51.0667H21.863V51.4762H22.9903V51.9901H21.863V52.4342H23.1898Z" fill="white"/>
<path d="M25.8797 52.9656L25.8725 51.6778L25.2201 52.726H24.9011L24.2522 51.7125V52.9653H23.5888V50.5356H24.1797L25.0717 51.9379L25.9415 50.5356H26.5324L26.5397 52.9653L25.8797 52.9656Z" fill="white"/>
<path d="M29.0843 52.4342V52.9653H27.0471V50.5356H29.0374V51.0667H27.7575V51.4762H28.8848V51.9901H27.7575V52.4342H29.0843Z" fill="white"/>
<path d="M30.5923 52.3196H30.2009V52.9653H29.4833V50.5356H30.6434C30.8731 50.5356 31.0723 50.5722 31.2416 50.6449C31.4108 50.7179 31.5413 50.822 31.633 50.9572C31.7247 51.0927 31.7707 51.2517 31.7707 51.4343C31.7707 51.6102 31.7279 51.7635 31.6421 51.8941C31.5561 52.0248 31.4335 52.1271 31.274 52.2013L31.8215 52.9647H31.0531L30.5923 52.3196ZM30.933 51.1708C30.858 51.1084 30.7468 51.077 30.5993 51.077H30.2006V51.7885H30.5993C30.7468 51.7885 30.858 51.7577 30.933 51.6965C31.0077 51.6352 31.0452 51.5477 31.0452 51.4343C31.0455 51.3214 31.0077 51.2333 30.933 51.1708Z" fill="white"/>
<path d="M33.8657 51.6983H34.5001V52.7047C34.3551 52.8042 34.1884 52.8806 33.9999 52.9337C33.8115 52.9868 33.623 53.0137 33.4345 53.0137C33.1685 53.0137 32.9293 52.9599 32.7169 52.8522C32.5042 52.7448 32.3375 52.5948 32.2167 52.4029C32.0957 52.2107 32.0355 51.9934 32.0355 51.7502C32.0355 51.5073 32.0957 51.2898 32.2167 51.0976C32.3375 50.9056 32.5054 50.7557 32.7207 50.6483C32.9359 50.5405 33.1786 50.4868 33.4493 50.4868C33.686 50.4868 33.8988 50.5251 34.0876 50.6015C34.276 50.6778 34.4333 50.7877 34.5587 50.9313L34.1021 51.3269C33.9303 51.1464 33.7251 51.0562 33.4859 51.0562C33.2684 51.0562 33.0929 51.1193 32.9602 51.2454C32.8272 51.3715 32.7607 51.5399 32.7607 51.7502C32.7607 51.8845 32.791 52.0043 32.8515 52.1093C32.912 52.2146 32.9965 52.2967 33.1052 52.3558C33.2139 52.4147 33.3384 52.4443 33.4787 52.4443C33.6164 52.4443 33.7456 52.4177 33.8663 52.3646V51.6983H33.8657Z" fill="white"/>
<path d="M36.9943 52.4342V52.9653H34.957V50.5356H36.9473V51.0667H35.6677V51.4762H36.7951V51.9901H35.6677V52.4342H36.9943Z" fill="white"/>
<path d="M39.8071 50.5356V52.9653H39.2162L38.0961 51.6708V52.9653H37.3929V50.5356H37.9839L39.104 51.8304V50.5356H39.8071Z" fill="white"/>
<path d="M40.8639 52.8522C40.6524 52.7448 40.4863 52.5948 40.3653 52.4029C40.2443 52.2107 40.1841 51.9934 40.1841 51.7502C40.1841 51.5073 40.2443 51.2898 40.3653 51.0976C40.486 50.9056 40.6521 50.7557 40.8639 50.6483C41.0754 50.5405 41.3139 50.4868 41.5799 50.4868C41.8119 50.4868 42.0209 50.5263 42.2071 50.6048C42.3931 50.6836 42.5478 50.797 42.671 50.9449L42.2144 51.3405C42.0502 51.151 41.8507 51.0559 41.6162 51.0559C41.4785 51.0559 41.3555 51.0849 41.2484 51.1428C41.1409 51.2004 41.0574 51.2822 40.9981 51.3875C40.9389 51.4928 40.9093 51.6138 40.9093 51.7502C40.9093 51.8869 40.9389 52.0076 40.9981 52.1129C41.0574 52.2182 41.1409 52.2997 41.2484 52.3577C41.3559 52.4153 41.4785 52.4443 41.6162 52.4443C41.8507 52.4443 42.0502 52.3495 42.2144 52.1597L42.671 52.5553C42.5478 52.7035 42.3931 52.8169 42.2071 52.8954C42.0209 52.9741 41.8119 53.0134 41.5799 53.0134C41.3143 53.0137 41.0754 52.9599 40.8639 52.8522Z" fill="white"/>
<path d="M44.3386 52.0944V52.9655H43.6209V52.0841L42.6531 50.5361H43.4107L44.0127 51.5011L44.6143 50.5361H45.3102L44.3386 52.0944Z" fill="white"/>
<path d="M47.0953 52.8522C46.8838 52.7448 46.7177 52.5948 46.597 52.4029C46.476 52.2107 46.4158 51.9934 46.4158 51.7502C46.4158 51.5073 46.476 51.2898 46.597 51.0976C46.7177 50.9056 46.8838 50.7557 47.0953 50.6483C47.3067 50.5405 47.5453 50.4868 47.811 50.4868C48.043 50.4868 48.2519 50.5263 48.4382 50.6048C48.6241 50.6836 48.7789 50.797 48.9021 50.9449L48.4454 51.3405C48.2812 51.151 48.0817 51.0559 47.8472 51.0559C47.7095 51.0559 47.5866 51.0849 47.4795 51.1428C47.372 51.2004 47.2885 51.2822 47.2292 51.3875C47.17 51.4928 47.1403 51.6138 47.1403 51.7502C47.1403 51.8869 47.17 52.0076 47.2292 52.1129C47.2885 52.2182 47.372 52.2997 47.4795 52.3577C47.5869 52.4153 47.7095 52.4443 47.8472 52.4443C48.0817 52.4443 48.2809 52.3495 48.4454 52.1597L48.9021 52.5553C48.7789 52.7035 48.6241 52.8169 48.4382 52.8954C48.2519 52.9741 48.043 53.0134 47.811 53.0134C47.5456 53.0137 47.3067 52.9599 47.0953 52.8522Z" fill="white"/>
<path d="M50.8783 52.4934H49.8052L49.606 52.9653H48.8735L49.9936 50.5356H50.7005L51.8241 52.9653H51.0775L50.8783 52.4934ZM50.6681 51.9868L50.3419 51.2091L50.0157 51.9868H50.6681Z" fill="white"/>
<path d="M52.0273 50.5356H52.745V52.4204H53.9558V52.9653H52.0273V50.5356Z" fill="white"/>
<path d="M54.2385 50.5356H54.9562V52.4204H56.167V52.9653H54.2385V50.5356Z" fill="white"/>
<path d="M120.367 12.987L113.974 8.61876L113.157 15.8186L105.032 16.6116L111.272 22.4318L106.495 26.678L113.262 27.1418L114.048 32.8062L119.402 28.5876L126.657 32.8062L128.684 25.8251L136.694 24.7758L129.674 20.1175L133.459 13.9158L127.363 15.2161L125.649 7.58887L120.367 12.987Z" fill="white"/>
<path d="M120.367 12.9868C120.367 12.9868 120.484 12.8592 120.714 12.6202C120.946 12.3798 121.287 12.0274 121.732 11.5671C122.626 10.6463 123.938 9.29542 125.62 7.56336L125.672 7.50928L125.688 7.5807C126.163 9.67252 126.747 12.2505 127.417 15.205L127.351 15.1653C129.204 14.7676 131.259 14.3267 133.445 13.8576L133.586 13.8274L133.515 13.9443C132.346 15.8628 131.074 17.951 129.735 20.1493L129.715 20.0631C131.937 21.5354 134.289 23.0943 136.738 24.7171L136.894 24.8205L136.705 24.8455C134.154 25.1806 131.462 25.5345 128.695 25.898L128.761 25.8439C128.115 28.0698 127.432 30.4241 126.736 32.8254L126.707 32.9245L126.614 32.8701C124.827 31.8314 122.935 30.7309 121.018 29.6167C120.463 29.294 119.91 28.9721 119.359 28.6521L119.456 28.6456C117.641 30.0746 115.854 31.4825 114.1 32.8633L113.987 32.953L113.968 32.8151C113.701 30.8908 113.44 29.0012 113.183 27.1504L113.256 27.2148C110.939 27.0549 108.682 26.8994 106.49 26.7483L106.318 26.7366L106.443 26.6255C108.089 25.1644 109.685 23.7477 111.223 22.3822L111.222 22.4792C109.01 20.4132 106.927 18.4672 104.986 16.654L104.89 16.564L105.025 16.5508C107.996 16.2645 110.706 16.0032 113.152 15.7675L113.103 15.8128C113.429 12.9973 113.705 10.6048 113.935 8.61441L113.943 8.55004L113.998 8.58855C116.058 10.0073 117.648 11.1021 118.727 11.8449C119.264 12.2167 119.673 12.4997 119.951 12.6925C120.226 12.8842 120.367 12.9868 120.367 12.9868C120.367 12.9868 120.227 12.8974 119.951 12.7122C119.672 12.5238 119.261 12.247 118.722 11.8837C117.634 11.1456 116.03 10.0578 113.95 8.64851L114.013 8.62235C113.792 10.6136 113.525 13.007 113.211 15.8237L113.207 15.8645L113.163 15.8689C110.717 16.1105 108.008 16.378 105.038 16.6713L105.077 16.5685C107.022 18.3787 109.108 20.3212 111.324 22.3836L111.376 22.4327L111.322 22.4806C109.786 23.8479 108.192 25.2664 106.548 26.7295L106.501 26.6064C108.693 26.7557 110.95 26.9097 113.267 27.0675L113.332 27.0719L113.34 27.1319C113.597 28.9824 113.86 30.872 114.128 32.796L113.995 32.7478C115.748 31.3664 117.535 29.9582 119.349 28.5286L119.395 28.4927L119.445 28.5221C119.996 28.8422 120.549 29.1638 121.104 29.4868C123.021 30.6016 124.913 31.702 126.699 32.7411L126.577 32.7857C127.275 30.3847 127.959 28.0304 128.606 25.8052L128.62 25.7578L128.672 25.7511C131.439 25.3895 134.132 25.038 136.683 24.7047L136.649 24.8332C134.203 23.2075 131.852 21.6456 129.632 20.1707L129.58 20.136L129.612 20.0843C130.955 17.8884 132.231 15.8025 133.404 13.8861L133.473 13.9731C131.286 14.4369 129.23 14.8731 127.375 15.2661L127.32 15.2779L127.309 15.2264C126.651 12.2696 126.076 9.68957 125.61 7.59628L125.679 7.61362C123.976 9.34039 122.649 10.6868 121.743 11.6047C121.295 12.0574 120.951 12.4036 120.717 12.6399C120.486 12.8724 120.367 12.9868 120.367 12.9868Z" fill="#263238"/>
<path d="M119.349 15.6433L118.926 21.3506C118.891 21.8173 118.489 22.1868 117.988 22.2118C117.459 22.2382 117.002 21.8738 116.947 21.3829L116.303 15.6409C116.254 15.2062 116.625 14.8297 117.094 14.8385L118.587 14.8662C119.032 14.8744 119.379 15.2289 119.349 15.6433Z" fill="#FF725E"/>
<path d="M116.404 24.8784C116.659 25.6103 117.502 26.0103 118.287 25.7722C119.072 25.5339 119.501 24.7476 119.245 24.0158C118.99 23.2839 118.147 22.8839 117.362 23.122C116.577 23.3603 116.148 24.1466 116.404 24.8784Z" fill="#FF725E"/>
<path d="M124.409 15.6433L123.986 21.3506C123.951 21.8173 123.549 22.1868 123.048 22.2118C122.52 22.2382 122.062 21.8738 122.007 21.3829L121.363 15.6409C121.314 15.2062 121.685 14.8297 122.154 14.8385L123.647 14.8662C124.092 14.8744 124.44 15.2289 124.409 15.6433Z" fill="#FF725E"/>
<path d="M121.464 24.8784C121.72 25.6103 122.563 26.0103 123.347 25.7722C124.132 25.5339 124.561 24.7476 124.306 24.0158C124.051 23.2839 123.207 22.8839 122.422 23.122C121.638 23.3603 121.208 24.1466 121.464 24.8784Z" fill="#FF725E"/>
<path d="M116.237 87.1494C116.218 86.5943 115.86 86.1036 115.364 85.7971C107.612 81.008 101.77 70.3937 101.181 61.4082C101.165 60.8964 101.148 60.3771 101.13 59.8538C101.13 59.8517 101.13 59.8494 101.13 59.8473C100.646 46.3363 98.6203 30.7849 96.8349 27.2631C93.0368 19.7711 82.0905 18.8707 82.0905 18.8707C66.9787 17.8614 64.28 28.6996 62.7546 38.5717C61.806 44.7104 58.151 66.6406 58.151 66.6406L60.9285 67.6438C64.2009 76.6945 71.5694 84.0141 81.1466 87.3803C83.9324 88.3596 86.291 88.7523 87.3979 87.9104C91.7976 92.0732 97.3048 95.2191 103.3 96.9215C105.741 97.6146 108.299 98.0776 110.839 97.8558C112.488 97.7116 114.228 97.2033 115.211 95.959C116.058 94.887 116.174 93.3541 115.498 92.1815C114.821 91.0086 113.386 90.2559 111.961 90.3262C112.532 88.592 116.301 89.1021 116.237 87.1494Z" fill="#263238"/>
<path d="M87.4908 60.4721C87.4908 60.4721 93.0135 58.2573 95.8663 57.7549C98.7192 57.2521 118.65 52.4568 118.65 52.4568L98.0778 36.002L102.616 30.8481C102.616 30.8481 117.897 39.3591 128.761 46.1421C128.761 46.1421 128.839 46.1801 128.964 46.2719C135.143 50.8103 132.979 58.72 126.637 62.4339C123.478 64.2834 109.632 69.8585 106.947 71.0793C101.585 73.5166 101.669 73.4354 101.669 73.4354L87.4908 60.4721Z" fill="#FFBF9D"/>
<path d="M84.1007 22.8606L83.1552 22.0195L72.9386 25.8629C71.4604 25.9391 70.2906 27.0587 70.2455 28.4398L70.3353 59.5111C70.3224 61.6183 70.7746 63.443 72.1377 65.1224L73.5727 66.8907C76.8444 70.9223 83.5744 70.5905 86.1647 66.1485C86.3456 65.8382 86.4714 65.5658 86.5259 65.3448C86.5807 65.068 86.6614 64.8856 86.6778 64.65C86.982 62.1501 86.9993 59.9827 86.9993 59.9827C87.1815 57.2381 87.2413 56.112 87.242 56.1376C87.242 56.1376 93.4995 55.466 95.1913 47.9687C96.0325 44.2401 95.874 39.1103 95.6376 34.0617C95.3099 27.0746 90.1175 22.8535 84.1007 22.8606Z" fill="#FFBF9D"/>
<path d="M83.4688 39.0462C83.4606 39.5589 82.9888 39.9755 82.4149 39.9772C81.8422 39.9793 81.3833 39.5663 81.3912 39.0532C81.3994 38.5405 81.8715 38.1236 82.4439 38.1216C83.0181 38.1195 83.477 38.5334 83.4688 39.0462Z" fill="#263238"/>
<path d="M93.6064 39.3157C93.5982 39.8284 93.1264 40.245 92.5524 40.2468C91.9798 40.2488 91.5209 39.8358 91.5288 39.3228C91.537 38.81 92.0091 38.3932 92.5814 38.3911C93.1557 38.3891 93.6145 38.803 93.6064 39.3157Z" fill="#263238"/>
<path d="M94.5686 36.0587C94.4331 36.179 93.6754 35.5989 92.5578 35.5492C91.4425 35.4848 90.5934 35.9831 90.479 35.8496C90.4223 35.7902 90.566 35.5684 90.9357 35.3421C91.3003 35.1171 91.9124 34.9103 92.6083 34.9453C93.3041 34.9815 93.8768 35.2483 94.2002 35.5086C94.5308 35.771 94.6348 36.0052 94.5686 36.0587Z" fill="#263238"/>
<path d="M83.2286 36.1667C83.0802 36.2735 82.3897 35.6237 81.2841 35.4675C80.1816 35.2963 79.2822 35.7105 79.1832 35.5669C79.1337 35.5025 79.2995 35.2951 79.6938 35.1062C80.0811 34.9171 80.7127 34.77 81.401 34.8715C82.0893 34.9742 82.6292 35.2945 82.9226 35.5846C83.2217 35.8767 83.3002 36.1197 83.2286 36.1667Z" fill="#263238"/>
<path d="M87.1325 43.759C87.1303 43.6996 87.8309 43.6202 88.9639 43.5384C89.2507 43.5243 89.5237 43.484 89.5813 43.3045C89.6589 43.1151 89.5552 42.8227 89.4332 42.5061C89.1994 41.849 88.9551 41.1603 88.6982 40.4387C87.6815 37.4964 86.9607 35.0824 87.0881 35.0454C87.2154 35.008 88.1432 37.3628 89.1596 40.3052C89.4033 41.0303 89.6368 41.7216 89.8584 42.3829C89.9501 42.6906 90.1174 43.0427 89.9501 43.4351C89.8625 43.6308 89.6453 43.7652 89.46 43.8026C89.2744 43.8461 89.1136 43.8414 88.9721 43.8426C87.8366 43.8467 87.1335 43.8184 87.1325 43.759Z" fill="#263238"/>
<path d="M87.2416 56.1372C87.2416 56.1372 81.777 56.2102 76.5427 52.9302C76.5427 52.9302 78.9884 58.2894 87.1303 57.9614L87.2416 56.1372Z" fill="#FF9A6C"/>
<path d="M79.2856 32.1047C79.3253 31.8049 80.4464 31.7034 81.6903 31.2863C82.9441 30.8921 83.8899 30.3223 84.1206 30.5341C84.2255 30.6367 84.1095 30.9353 83.7581 31.2924C83.4102 31.6484 82.8126 32.0438 82.0641 32.2876C81.3153 32.5303 80.5838 32.5668 80.0745 32.4894C79.5614 32.4126 79.2718 32.2459 79.2856 32.1047Z" fill="#263238"/>
<path d="M93.8165 32.0944C93.6073 32.3221 92.8506 32.0403 91.9255 31.9853C91.0027 31.9003 90.2073 32.0644 90.0406 31.8082C89.9678 31.6841 90.1042 31.4529 90.4585 31.2443C90.808 31.0366 91.3825 30.8804 92.0176 30.928C92.6526 30.9769 93.1922 31.2169 93.5011 31.4749C93.8153 31.7338 93.9095 31.9827 93.8165 32.0944Z" fill="#263238"/>
<path d="M70.4494 41.6999C70.4494 41.6999 76.1725 43.3626 79.4111 30.1784C80.5186 25.6702 84.9961 22.0196 84.9961 22.0196L83.1801 21.5098C83.1801 21.5098 71.8941 24.4774 71.7044 24.6103C71.5146 24.7433 68.8572 30.0587 68.8572 30.0587L70.4494 41.6999Z" fill="#263238"/>
<path d="M71.8597 41.2087C71.8884 40.6459 71.2628 39.2863 70.6718 39.1718C69.0941 38.8659 66.2214 38.8512 65.9923 42.6192C65.679 47.7705 71.2845 47.0012 71.3031 46.8541C71.3179 46.7391 71.7601 43.1523 71.8597 41.2087Z" fill="#FFBF9D"/>
<path d="M69.7358 44.8137C69.7125 44.7957 69.6359 44.8713 69.4692 44.9322C69.3065 44.9914 69.0311 45.024 68.7496 44.9078C68.1789 44.6772 67.7405 43.7873 67.7701 42.8574C67.7843 42.3877 67.9167 41.947 68.1171 41.5866C68.3084 41.2189 68.5855 40.9692 68.8823 40.9365C69.178 40.8888 69.3759 41.0639 69.4348 41.2121C69.5001 41.3604 69.4588 41.4613 69.4874 41.4713C69.5019 41.4851 69.611 41.3916 69.5795 41.1766C69.5628 41.0727 69.5057 40.948 69.3819 40.8421C69.2558 40.7347 69.0642 40.6729 68.8581 40.6826C68.4307 40.6876 68.0257 41.033 67.8054 41.4284C67.5618 41.8243 67.4011 42.3191 67.385 42.8466C67.3573 43.8865 67.8672 44.8878 68.6523 45.1455C69.0346 45.2605 69.3652 45.1685 69.5398 45.0558C69.7185 44.9378 69.7544 44.824 69.7358 44.8137Z" fill="#FF9A6C"/>
<path d="M74.3309 39.1792C74.3287 39.1621 74.6354 39.161 75.1579 39.0236C75.6773 38.888 76.4072 38.5711 77.1233 37.959C77.4791 37.6533 77.8299 37.278 78.1482 36.8382C78.4609 36.3949 78.7417 35.8877 78.9821 35.3326C79.471 34.223 79.7839 32.9295 80.1709 31.5866C80.5586 30.2431 80.979 28.9741 81.4404 27.8459C81.8958 26.716 82.4007 25.732 82.8785 24.9357C83.3582 24.1397 83.8098 23.5307 84.1426 23.1257C84.3056 22.9209 84.4477 22.7729 84.5382 22.6688C84.6308 22.5661 84.6816 22.5138 84.6853 22.5167C84.6891 22.5197 84.6463 22.5779 84.5612 22.6859C84.4783 22.7953 84.3437 22.9483 84.1887 23.1571C83.8713 23.5704 83.4351 24.1844 82.9696 24.9825C82.506 25.7808 82.0134 26.7631 81.5671 27.8904C81.1148 29.0159 80.6998 30.2811 80.3131 31.6219C79.927 32.9607 79.6087 34.2601 79.1076 35.3803C78.8608 35.9404 78.5724 36.4528 78.2494 36.9014C77.9207 37.3462 77.5595 37.7242 77.1929 38.0305C76.4558 38.6438 75.7044 38.953 75.1734 39.0745C74.6382 39.1983 74.3309 39.1792 74.3309 39.1792Z" fill="#263238"/>
<path d="M66.7881 61.1581C66.7818 61.159 66.7619 61.0743 66.7282 60.9093C66.6938 60.7281 66.6475 60.4854 66.5889 60.1771C66.4713 59.5158 66.3043 58.5747 66.0925 57.3804L66.2258 57.3624C66.2539 57.5495 66.2848 57.7566 66.3166 57.9708L66.3106 57.9517C66.3453 58.0211 66.3856 58.1014 66.4263 58.1829L66.2879 58.2305C65.6343 56.1228 64.9173 53.2888 64.5183 49.9381C64.3121 48.2646 64.1952 46.4634 64.181 44.5739C64.2006 42.6912 64.1861 40.6911 64.7266 38.6934C64.9491 37.868 65.2885 37.0764 65.7304 36.3551C66.1716 35.6335 66.6982 34.9772 67.2564 34.3715C68.3787 33.1609 69.5877 32.1207 70.6917 31.0873C72.919 29.0419 74.9259 27.199 76.6168 25.6463C78.2997 24.1131 79.666 22.8679 80.6266 21.9927C81.0934 21.5744 81.4608 21.2452 81.7259 21.0078C81.8447 20.9046 81.9402 20.8219 82.0162 20.756C82.0827 20.7001 82.118 20.6731 82.1211 20.676C82.1243 20.6789 82.0946 20.7119 82.0341 20.7731C81.9629 20.8434 81.8731 20.9316 81.7615 21.0417C81.5047 21.2867 81.1482 21.6265 80.6956 22.058C79.7482 22.9461 78.4012 24.2093 76.7422 25.7649C75.0624 27.3278 73.0683 29.1829 70.8549 31.2418C69.755 32.2793 68.5486 33.3254 67.4439 34.5218C66.3393 35.7126 65.3884 37.1223 64.9705 38.7526C64.4404 40.7064 64.4489 42.6983 64.4256 44.5733C64.4351 46.4543 64.5441 48.2478 64.7404 49.9155C65.1199 53.2543 65.8085 56.0831 66.4304 58.1932L66.292 58.2408C66.2526 58.1591 66.2135 58.0782 66.1801 58.0081L66.1754 57.9984L66.1741 57.9887C66.1458 57.7743 66.118 57.5666 66.0931 57.3792L66.2264 57.3613C66.4118 58.5594 66.5577 59.5037 66.6604 60.1671C66.7046 60.4774 66.7392 60.7219 66.7654 60.9043C66.7862 61.0708 66.7944 61.1573 66.7881 61.1581Z" fill="#455A64"/>
<path d="M62.4433 37.3437C62.4354 37.3399 62.4691 37.2652 62.54 37.1257C62.6264 36.9634 62.7326 36.7636 62.8618 36.5212C63.1414 35.9961 63.5829 35.2536 64.1615 34.3546C64.7367 33.4533 65.4751 32.4102 66.345 31.2847C67.2256 30.1671 68.2439 28.9716 69.3876 27.777C70.5389 26.5882 71.7044 25.516 72.8018 24.5799C73.9083 23.653 74.9411 22.8567 75.8403 22.2271C76.7366 21.5947 77.4804 21.1057 78.0102 20.7907C78.2547 20.6451 78.4561 20.5253 78.62 20.428C78.7609 20.3471 78.8372 20.3079 78.8419 20.3147C78.8466 20.3215 78.7798 20.3738 78.648 20.4671C78.4917 20.5742 78.2995 20.706 78.0659 20.866C77.5544 21.2037 76.8283 21.7117 75.9496 22.3586C75.0678 23.0026 74.0511 23.8086 72.9584 24.7399C71.8749 25.6807 70.7204 26.7518 69.5751 27.9343C68.4374 29.1228 67.4191 30.3077 66.5322 31.4129C65.6564 32.5258 64.9056 33.5548 64.3134 34.4417C63.7175 35.3263 63.2535 36.0541 62.9482 36.5648C62.8026 36.7986 62.6825 36.9913 62.5851 37.1475C62.4997 37.2799 62.4508 37.3475 62.4433 37.3437Z" fill="#455A64"/>
<path d="M70.0815 59.5118C70.0815 59.5118 70.073 59.5089 70.061 59.5049C70.0692 59.5077 70.0727 59.5089 70.0815 59.5118Z" fill="#455A64"/>
<path d="M70.061 59.5047C70.039 59.4979 70.0213 59.4923 70.0052 59.4873C70.0267 59.4941 70.0465 59.5002 70.061 59.5047Z" fill="#455A64"/>
<path d="M111.57 124.631L103.658 102.121L103.035 80.728C102.84 77.039 102.549 71.6448 102.549 71.6448C99.9679 64.1081 91.7604 57.7446 91.7604 57.7446L87.1026 58.3942C86.9242 63.098 79.2332 67.3696 73.7021 64.252C71.6564 62.8815 70.0818 59.5111 70.0818 59.5111L60.6824 63.754L67.1369 106.814C67.1369 106.814 60.7716 117.9 60.7716 124.631H111.57V124.631Z" fill="#455A64"/>
<path d="M70.0056 59.4875C69.9861 59.4816 69.9672 59.4757 69.9514 59.4707C69.964 59.4748 69.9817 59.4801 70.0056 59.4875Z" fill="#455A64"/>
<path d="M69.9513 59.4699C69.9094 59.4579 69.9189 59.4606 69.9513 59.4699V59.4699Z" fill="#455A64"/>
<g opacity="0.3">
<path d="M66.5072 101.676C67.6629 104.429 69.934 106.853 72.906 107.878C75.878 108.902 79.5317 108.323 81.6691 106.14C82.9811 104.8 83.6395 103.013 84.0571 101.24C84.4243 99.681 84.6313 98.0937 84.8274 96.5078C85.823 88.4546 86.5472 80.3198 85.7499 72.2475L84.5702 62.9287L81.1617 64.7223L79.5786 97.9122L66.5072 101.676Z" fill="black"/>
</g>
<path d="M87.1936 58.2264C87.1936 58.2264 94.0427 56.6208 99.6117 56.4828L108.849 54.3071L110.426 69.7102L101.62 74.9856L87.1936 58.2264Z" fill="#455A64"/>
<path d="M70.9038 81.9116L54.6867 89.5063C54.6867 89.5063 50.1947 67.0433 60.6357 63.7539L61.2393 66.9445L70.9038 81.9116Z" fill="#455A64"/>
<path d="M102.036 62.5864C102.039 62.5861 102.044 62.6206 102.05 62.6879C102.057 62.7632 102.065 62.8621 102.075 62.9868C102.094 63.2592 102.121 63.6452 102.155 64.1373C102.224 65.1366 102.306 66.583 102.404 68.371C102.596 71.9467 102.821 76.8879 103.035 82.3462C103.25 87.8066 103.416 92.7502 103.524 96.3285C103.572 98.1109 103.612 99.5565 103.64 100.567C103.649 101.06 103.656 101.446 103.662 101.719C103.662 101.845 103.663 101.943 103.663 102.019C103.662 102.087 103.661 102.121 103.658 102.121C103.655 102.121 103.651 102.087 103.646 102.02C103.642 101.944 103.636 101.845 103.629 101.72C103.616 101.447 103.598 101.061 103.576 100.568C103.536 99.5585 103.479 98.1135 103.408 96.332C103.27 92.7464 103.08 87.8078 102.871 82.3518C102.644 76.8982 102.438 71.9611 102.288 68.376C102.206 66.5948 102.138 65.1501 102.091 64.1405C102.07 63.6478 102.054 63.2616 102.042 62.9886C102.038 62.8632 102.035 62.7644 102.033 62.6888C102.032 62.6211 102.033 62.5867 102.036 62.5864Z" fill="#263238"/>
<path d="M54.6867 89.5062C54.6854 89.5038 54.7075 89.4906 54.7516 89.4671C54.8049 89.44 54.8698 89.4065 54.9495 89.3659C55.1374 89.2741 55.3939 89.1485 55.7185 88.9896C56.4021 88.6628 57.3697 88.2004 58.5601 87.6317C60.9774 86.4933 64.2964 84.9301 67.9624 83.2033C68.6377 82.8873 69.3012 82.577 69.9337 82.281L69.8943 82.3761C69.5744 81.5874 69.3005 80.8211 68.9116 80.128C68.5476 79.4167 68.2659 78.7113 67.9926 78.0459C67.4562 76.7133 66.9009 75.5536 66.4461 74.5811C65.9885 73.6097 65.6333 72.8246 65.4032 72.2786C65.2888 72.0053 65.2021 71.7935 65.1476 71.6485C65.0922 71.5038 65.0657 71.4276 65.0704 71.4258C65.0751 71.424 65.1114 71.497 65.1757 71.6382C65.245 71.7909 65.3389 71.9971 65.4571 72.2577C65.7036 72.7967 66.0733 73.5741 66.5441 74.5402C67.0121 75.5069 67.5797 76.6647 68.1266 77.9979C68.4039 78.6613 68.6894 79.364 69.0512 80.0645C69.4452 80.7596 69.7282 81.5427 70.0459 82.3216L70.0721 82.3861L70.0065 82.4167C69.3743 82.7132 68.7109 83.0241 68.0361 83.3404C64.3616 85.0516 61.035 86.6004 58.6121 87.7288C57.4119 88.2795 56.4365 88.7269 55.7472 89.0432C55.4169 89.1911 55.1557 89.3079 54.9647 89.3935C54.8818 89.4288 54.8143 89.4577 54.7592 89.4812C54.7125 89.5 54.688 89.5085 54.6867 89.5062Z" fill="#263238"/>
<path d="M88.4452 46.2889C87.8237 45.8859 87.0866 45.6396 86.3324 45.5832C86.0954 45.5655 85.8492 45.5673 85.6292 45.6517C85.2967 45.7791 85.0695 46.0809 84.9617 46.401C84.8536 46.721 84.8483 47.0622 84.8435 47.3979C84.8416 47.5256 84.8416 47.6591 84.9056 47.7718C85.0235 47.9786 85.3075 48.0389 85.5577 48.0583C86.4096 48.1248 87.2797 47.9757 88.0503 47.6306" fill="#FF9A6C"/>
<path d="M56.7498 88.5402C60.0628 95.7297 66.3629 103.027 70.2454 104.362C76.0302 106.352 80.8188 105.363 83.0357 98.7794C85.2522 92.1961 83.8318 62.9502 83.8318 62.9502L74.1875 62.4336L72.4014 87.6309C72.4014 87.6309 71.3362 85.6746 69.461 82.5873" fill="#FFBF9D"/>
<path d="M98.0778 36.0021L95.6504 34.3497L95.2782 31.5074C95.2782 31.5074 90.8908 31.6133 90.622 29.4188C90.622 29.4188 88.0922 30.0457 88.2151 27.7261C88.2151 27.7261 86.9276 26.911 87.3979 26.1588C87.8681 25.4063 91.5022 24.2873 91.704 24.2246C91.9053 24.1619 94.2814 23.693 94.2814 23.693L93.5776 22.9611L91.6967 23.1491C91.6967 23.1491 90.5549 24.1522 89.6144 24.2776C88.674 24.4029 88.6068 24.0266 88.6068 24.0266C88.6068 24.0266 87.5321 22.9608 88.9428 21.8951C90.3535 20.8293 92.1669 20.453 93.1074 20.3904C94.0478 20.3277 95.3085 22.0192 95.3085 22.0192L96.3315 23.713C96.3315 23.713 98.3467 23.4621 99.0183 24.9041V25.9073C99.0183 25.9073 100.496 25.7193 101.101 27.3493L101.504 28.7913C101.504 28.7913 103.25 30.9229 103.317 31.8007" fill="#FFBF9D"/>
<path d="M103.317 31.8014C103.31 31.8023 103.303 31.7238 103.26 31.5787C103.215 31.4334 103.124 31.2248 102.982 30.9621C102.691 30.4394 102.191 29.7031 101.471 28.8153L101.466 28.8091L101.464 28.8017C101.341 28.3708 101.203 27.8851 101.054 27.3615L101.055 27.3647C100.921 27.0049 100.701 26.6378 100.351 26.3613C100.006 26.0889 99.5169 25.923 99.0259 25.9615L98.9606 25.9665L98.9603 25.908C98.9594 25.5988 98.9584 25.2561 98.9572 24.9049L98.9622 24.9275C98.7677 24.5221 98.4041 24.1644 97.9212 23.9812C97.446 23.7908 96.8865 23.7282 96.3404 23.7767L96.2937 23.7808L96.272 23.7449C95.9505 23.2148 95.6029 22.6418 95.2455 22.0529L95.2489 22.0582C95.0309 21.7757 94.7853 21.4998 94.5181 21.2407C94.2486 20.9853 93.953 20.7385 93.6098 20.5746C93.4355 20.4946 93.2555 20.4532 93.0655 20.4658C92.866 20.4799 92.6659 20.5079 92.4654 20.5396C92.0652 20.6067 91.6646 20.7011 91.2691 20.8232C90.4799 21.068 89.7052 21.4242 89.0295 21.9272C88.6932 22.1708 88.4077 22.4918 88.3185 22.8768C88.2366 23.2598 88.3907 23.6767 88.6655 23.975L88.6794 23.99L88.6866 24.0147C88.7061 24.0815 88.8171 24.1624 88.934 24.1885C89.0534 24.2215 89.1868 24.2288 89.3204 24.2259C89.5927 24.2177 89.8568 24.165 90.1124 24.0609C90.6227 23.8535 91.0938 23.534 91.5313 23.1845C91.5678 23.1539 91.6044 23.1233 91.6397 23.0936L91.6608 23.076L91.687 23.0733C92.3204 23.0101 92.9476 22.9474 93.5676 22.8854L93.6091 22.8812L93.6372 22.9104C93.8736 23.156 94.1077 23.3999 94.3406 23.6423L94.4339 23.7393L94.2968 23.7676C93.4702 23.9376 92.6548 24.105 91.8531 24.27C91.0658 24.4865 90.3106 24.7631 89.5779 25.0413C89.2117 25.182 88.8552 25.3341 88.5107 25.4967C88.17 25.6609 87.8268 25.8362 87.5684 26.0709C87.4496 26.1877 87.3752 26.3401 87.3727 26.4981C87.3686 26.6563 87.43 26.8143 87.5183 26.957C87.7017 27.2406 87.9734 27.478 88.2551 27.6695L88.2857 27.6904L88.2873 27.7295C88.293 27.8751 88.2848 28.0216 88.3008 28.164C88.3298 28.3037 88.339 28.4487 88.4017 28.5764C88.4956 28.84 88.6787 29.0724 88.9312 29.2074C89.4361 29.4828 90.067 29.4672 90.6037 29.3586L90.6797 29.3433L90.6873 29.4116C90.7402 29.8961 91.0459 30.3094 91.4389 30.5797C91.831 30.8559 92.2836 31.0269 92.7267 31.1486C93.6189 31.3866 94.4907 31.4578 95.2761 31.4599L95.3224 31.4602L95.3277 31.5017C95.4696 32.6277 95.5877 33.5667 95.6858 34.3454L95.6709 34.3222C96.4526 34.8629 97.0542 35.2794 97.4674 35.5653C97.6647 35.7045 97.8169 35.8116 97.9256 35.888C98.0277 35.9613 98.0766 36.0022 98.0766 36.0022C98.0766 36.0022 98.0199 35.971 97.914 35.9028C97.8027 35.8295 97.647 35.7271 97.4447 35.5942C97.0268 35.3144 96.4179 34.9067 95.6275 34.3775L95.6149 34.3689L95.613 34.3539C95.5071 33.5761 95.3794 32.638 95.2266 31.5134L95.2783 31.5549C94.4799 31.5581 93.6044 31.4925 92.693 31.2551C92.2407 31.1328 91.7752 30.9616 91.3623 30.6739C90.9492 30.3941 90.6126 29.947 90.5546 29.426L90.6378 29.4789C90.3481 29.5431 90.0522 29.5684 89.7481 29.5536C89.4465 29.5372 89.1335 29.4736 88.858 29.3192C88.5779 29.1706 88.3695 28.9082 88.2668 28.622C88.1984 28.4814 88.1877 28.3287 88.1565 28.1787C88.1388 28.0281 88.1464 27.8754 88.1407 27.7224L88.1729 27.7824C87.871 27.578 87.5933 27.3385 87.3891 27.0276C87.292 26.8717 87.2176 26.6899 87.2217 26.4954C87.2246 26.3007 87.3147 26.1139 87.4587 25.9724C87.7477 25.71 88.0931 25.5376 88.4401 25.3679C88.7897 25.202 89.1493 25.0478 89.5177 24.9057C90.2552 24.6242 91.0122 24.3459 91.8036 24.1271C92.6107 23.9603 93.4314 23.7905 94.2634 23.6184L94.2196 23.7438C93.9867 23.5017 93.7519 23.2578 93.5159 23.0122L93.5855 23.0372C92.9653 23.0992 92.3384 23.1619 91.7049 23.2254L91.7522 23.2051C91.7153 23.236 91.6772 23.2681 91.6391 23.2999C91.1909 23.6573 90.7134 23.9826 90.1764 24.2015C89.9088 24.3112 89.6119 24.3709 89.3251 24.3783C89.1802 24.3812 89.0323 24.3742 88.8864 24.3342C88.7452 24.2918 88.5851 24.2238 88.5256 24.0397L88.5467 24.0791C88.2353 23.7411 88.0689 23.2881 88.1596 22.8474C88.2094 22.6303 88.3185 22.4341 88.4509 22.2585C88.5243 22.1767 88.5965 22.0932 88.6765 22.0187C88.761 21.9493 88.842 21.874 88.9296 21.8105C89.6242 21.2948 90.4159 20.9329 91.2199 20.685C91.6227 20.5611 92.0302 20.4658 92.4386 20.3984C92.6432 20.3664 92.8474 20.3384 93.0529 20.324C93.2694 20.3084 93.491 20.3611 93.6756 20.4482C94.0469 20.6273 94.3479 20.8829 94.6237 21.1448C94.8963 21.4113 95.1427 21.6893 95.3665 21.9814L95.3684 21.9837L95.3703 21.9867C95.7252 22.5768 96.0706 23.151 96.3902 23.6823L96.3221 23.6505C96.8998 23.6017 97.4693 23.6679 97.9726 23.8703C98.4806 24.0647 98.8718 24.4512 99.0735 24.8819L99.0785 24.8928V24.9046C99.0776 25.2558 99.0763 25.5985 99.0754 25.9077L99.0098 25.8544C99.5471 25.8153 100.052 25.9953 100.419 26.2854C100.786 26.5802 101.011 26.9646 101.145 27.335L101.146 27.3371L101.146 27.3385C101.29 27.8633 101.423 28.3502 101.542 28.7823L101.535 28.7688C102.248 29.6675 102.739 30.4117 103.019 30.9439C103.156 31.2113 103.242 31.4246 103.28 31.5734C103.317 31.7223 103.317 31.8014 103.317 31.8014Z" fill="#FF9A6C"/>
<path d="M98.9972 32.9546C98.9783 32.9708 98.816 32.8151 98.5166 32.6127C98.2184 32.4092 97.7728 32.1715 97.2424 31.9897C96.7072 31.8144 96.2165 31.6564 95.8557 31.5943C95.4935 31.5299 95.26 31.537 95.259 31.5117C95.2568 31.4949 95.4913 31.4484 95.873 31.4872C96.2566 31.5249 96.7558 31.6682 97.2997 31.8461C97.845 32.0329 98.2998 32.2956 98.5881 32.5274C98.8787 32.759 99.012 32.9431 98.9972 32.9546Z" fill="#FF9A6C"/>
<path d="M99.7072 28.8289C99.7076 28.8395 99.5774 28.8533 99.3423 28.8692C99.0722 28.8836 98.7394 28.9013 98.346 28.9221C97.5049 28.9601 96.3426 29.0019 95.0586 29.0386C94.4185 29.0548 93.809 29.0701 93.2483 29.0845C92.6926 29.0901 92.1959 29.1136 91.7806 29.1628C91.3655 29.2092 91.0346 29.2766 90.8121 29.3413C90.5892 29.4049 90.4736 29.4611 90.4669 29.4499C90.4622 29.4431 90.5691 29.3678 90.7909 29.2851C91.0119 29.2013 91.3456 29.1166 91.7645 29.0557C92.1827 28.9921 92.6882 28.9568 93.2454 28.9436C93.8061 28.9257 94.4156 28.9063 95.0557 28.886C96.3397 28.8492 97.5023 28.8245 98.3442 28.8142C98.7378 28.8127 99.0709 28.8112 99.3413 28.8101C99.5764 28.8121 99.7069 28.8183 99.7072 28.8289Z" fill="#FF9A6C"/>
<path d="M97.6861 26.1904C97.6874 26.201 97.5556 26.2251 97.3164 26.2598C97.0432 26.2978 96.7047 26.3451 96.3035 26.401C95.4484 26.5193 94.2691 26.6911 92.9725 26.9143C91.6759 27.1382 90.5083 27.3706 89.6646 27.5453C89.2687 27.6268 88.9343 27.6957 88.6645 27.751C88.4279 27.7983 88.2958 27.8195 88.2926 27.8092C88.2898 27.7989 88.4165 27.7583 88.6485 27.693C88.8801 27.6274 89.218 27.5406 89.6375 27.4397C90.4758 27.2376 91.6428 26.9879 92.9426 26.7634C94.2423 26.5399 95.4276 26.3842 96.288 26.2936C96.7182 26.248 97.0671 26.2166 97.3085 26.2007C97.5506 26.1839 97.6849 26.1798 97.6861 26.1904Z" fill="#FF9A6C"/>
<path d="M93.6945 21.8613C93.7355 21.8481 93.8518 22.0955 93.8335 22.4206C93.8174 22.7459 93.6753 22.9813 93.6359 22.9645C93.5918 22.9486 93.6558 22.7097 93.6696 22.4132C93.6873 22.1167 93.6488 21.8728 93.6945 21.8613Z" fill="#FF9A6C"/>
<path d="M63.7338 41.7096C66.4001 45.0052 73.3415 54.5443 76.1695 57.9582C76.7655 58.6777 78.5011 58.4118 79.2669 57.8493C81.0883 56.5115 84.2784 54.1878 86.181 52.9134C86.9875 52.3733 87.1539 51.3187 86.5485 50.5848L73.0242 34.1868C72.3979 33.4275 71.2098 33.3304 70.4518 33.9764L63.9522 39.516C63.2837 40.0852 63.1882 41.0354 63.7338 41.7096Z" fill="#455A64"/>
<path d="M73.9419 91.4993L72.4011 87.6304L74.1872 62.4331C74.1872 62.4331 70.6299 56.3826 70.2344 55.0544C69.8391 53.7262 69.7399 49.8776 69.7399 49.8776L72.2256 52.5695C72.2256 52.5695 72.294 47.9425 72.294 46.3931C72.294 46.3931 72.6488 40.5753 72.7093 39.7686C72.7699 38.962 73.646 38.5278 74.2108 38.5278C74.7756 38.5278 75.3233 39.4895 75.3233 39.4895L76.0838 49.0039C76.0838 49.0039 77.3369 44.0009 77.8112 43.3367C78.2855 42.6727 79.9241 42.3556 81.0309 42.4294C81.042 42.4303 81.053 42.4309 81.0637 42.4318C81.9229 42.5047 82.2021 43.5549 81.4952 44.0165L80.0357 44.9693L79.4829 49.7417C79.4829 49.7417 80.8267 45.6097 81.5384 45.0932C82.2497 44.5766 83.5147 45.0932 83.7517 45.6836C83.9891 46.274 83.1192 47.4545 83.1192 47.4545L82.8819 50.4059C82.8819 50.4059 83.8305 49.1515 84.2967 48.4873C84.7628 47.8234 85.9648 48.4873 86.1104 48.7824C86.2557 49.0774 85.2535 52.2621 85.2535 52.2621L83.8305 62.9494L84.2787 78.3366" fill="#FFBF9D"/>
<path d="M84.2799 78.337C84.2799 78.337 84.2724 78.2473 84.2648 78.0717C84.2579 77.8928 84.2481 77.6316 84.2349 77.2895C84.2115 76.5973 84.1775 75.5792 84.1331 74.2607C84.0505 71.6164 83.9304 67.771 83.7798 62.9513V62.9477L83.7804 62.9439C84.1973 59.7836 84.6704 56.1977 85.1907 52.2552L85.1914 52.2505L85.1929 52.2455C85.3767 51.6527 85.5566 51.047 85.7253 50.4293C85.8088 50.1204 85.8917 49.8083 85.961 49.4926C85.996 49.3347 86.0266 49.1761 86.0483 49.0175C86.0556 48.9399 86.0606 48.8572 86.0489 48.8075C86.0187 48.7516 85.955 48.6948 85.8942 48.6442C85.6358 48.446 85.3048 48.3001 84.9708 48.2712C84.8044 48.2589 84.6357 48.2877 84.5068 48.3768C84.3801 48.4607 84.2947 48.6136 84.1873 48.7516C83.7769 49.3088 83.3612 49.8733 82.9411 50.444L82.793 50.6452L82.8125 50.401C82.8853 49.4879 82.966 48.4763 83.0476 47.4496L83.0489 47.432L83.0602 47.4161C83.2758 47.1098 83.4712 46.7789 83.6055 46.4315C83.6704 46.2582 83.7218 46.0767 83.7177 45.9008C83.7177 45.726 83.6253 45.5698 83.4911 45.4384C83.2203 45.1786 82.8349 45.0133 82.4438 44.9639C82.0577 44.913 81.6184 45.0165 81.4129 45.3377C81.1853 45.651 81.0104 46.0117 80.8443 46.3715C80.6807 46.7339 80.5251 47.1025 80.3798 47.477C80.086 48.2244 79.815 48.989 79.5584 49.7633L79.4069 49.7344C79.5799 48.2356 79.7674 46.6109 79.9578 44.9621L79.9615 44.9286L79.9912 44.9091C80.4494 44.61 80.9096 44.309 81.3719 44.0072C81.6061 43.8713 81.7659 43.6713 81.8056 43.4265C81.8437 43.1879 81.7678 42.9288 81.59 42.7517C81.4145 42.5625 81.1554 42.4972 80.8736 42.4984C80.5928 42.4893 80.3095 42.5034 80.0284 42.5343C79.4683 42.5993 78.9017 42.7211 78.4043 42.9685C78.1601 43.0947 77.9338 43.2571 77.8191 43.4877C77.6996 43.7219 77.6066 43.9819 77.5171 44.2387C77.3397 44.755 77.1815 45.2807 77.0286 45.8096C76.7239 46.8677 76.4383 47.9403 76.1644 49.0217L76.0425 49.5035L76.0031 49.0099C75.9003 47.7267 75.7903 46.3512 75.6797 44.9659C75.5325 43.1238 75.3866 41.2991 75.2426 39.4955L75.252 39.5255C75.0711 39.2293 74.8493 38.933 74.5653 38.7336C74.2886 38.5144 73.9025 38.6183 73.5814 38.7577C73.2608 38.906 72.987 39.1531 72.8656 39.4614C72.8023 39.6152 72.7884 39.7758 72.7799 39.9541L72.7471 40.4754C72.6598 41.8639 72.5732 43.2382 72.4877 44.5976C72.4502 45.2774 72.3907 45.9526 72.3718 46.6253C72.3642 47.2984 72.3566 47.9676 72.3491 48.6325C72.3339 49.9624 72.3188 51.2756 72.304 52.5705L72.3018 52.7626L72.1672 52.6167C71.3257 51.7045 70.4984 50.8079 69.6828 49.9239L69.8167 49.8756C69.8539 51.0706 69.9163 52.2499 70.0348 53.4033C70.1013 53.9776 70.1625 54.555 70.3267 55.0942C70.5177 55.6255 70.7821 56.14 71.0377 56.646C72.0853 58.6655 73.1855 60.5758 74.2467 62.4026L74.2561 62.4191L74.2549 62.4374C73.4124 74.0592 72.7667 82.9679 72.4288 87.6323L72.4272 87.6217C72.9369 88.9175 73.3176 89.885 73.5722 90.5322C73.6967 90.8529 73.79 91.0935 73.8534 91.2571C73.9148 91.418 73.9422 91.4995 73.9422 91.4995C73.9422 91.4995 73.906 91.4212 73.8401 91.2618C73.7736 91.0991 73.6759 90.8602 73.5457 90.5416C73.2857 89.8965 72.8968 88.9316 72.3759 87.6396L72.374 87.6346L72.3743 87.629C72.6976 82.9638 73.315 74.0533 74.1203 62.4294L74.1285 62.4638C73.0632 60.6367 71.9605 58.7284 70.9075 56.7048C70.65 56.1956 70.3859 55.6861 70.1864 55.134C70.0156 54.573 69.9554 53.9964 69.887 53.4178C69.7663 52.2584 69.703 51.0788 69.6645 49.8798L69.6582 49.6797L69.7984 49.8315C70.615 50.7152 71.443 51.6112 72.2851 52.5226L72.1483 52.5691C72.1622 51.2735 72.1764 49.9598 72.1905 48.6295C72.1978 47.9644 72.205 47.2949 72.2123 46.6215C72.2306 45.9484 72.2898 45.2724 72.327 44.592C72.4121 43.2315 72.4981 41.8556 72.5848 40.4657L72.6176 39.9438C72.6252 39.7747 72.6406 39.582 72.7131 39.4084C72.8524 39.0563 73.1587 38.7836 73.5086 38.6215C73.6847 38.54 73.8745 38.4824 74.0733 38.46C74.1688 38.4503 74.282 38.4465 74.3853 38.4788C74.49 38.5047 74.577 38.5574 74.6608 38.6097C74.9823 38.838 75.2023 39.1384 75.3964 39.4537L75.4043 39.4667L75.4055 39.484C75.5499 41.2879 75.6958 43.1126 75.843 44.9544C75.9536 46.3397 76.0636 47.7152 76.166 48.9984L76.0047 48.9866C76.2792 47.9032 76.565 46.8304 76.871 45.7696C77.0242 45.2392 77.1831 44.7123 77.3624 44.1917C77.4538 43.931 77.5442 43.6733 77.6747 43.418C77.8087 43.1521 78.0693 42.9673 78.3265 42.8355C78.8547 42.5737 79.4336 42.4516 80.0091 42.3843C80.2978 42.3525 80.5887 42.3384 80.8793 42.3478C81.1617 42.3431 81.5081 42.424 81.7088 42.6502C81.9209 42.8632 82.0092 43.1662 81.9641 43.4489C81.9376 43.5898 81.8837 43.728 81.793 43.8448C81.705 43.9593 81.5783 44.0593 81.4636 44.129C81.001 44.4308 80.5405 44.7312 80.0822 45.0303L80.1157 44.9777C79.924 46.6265 79.7353 48.2509 79.5613 49.7497L79.4097 49.7209C79.6684 48.9431 79.9401 48.178 80.236 47.4272C80.3823 47.0516 80.5389 46.6809 80.7044 46.3153C80.8736 45.9508 81.047 45.5896 81.2906 45.2551C81.3442 45.1707 81.4346 45.0918 81.5166 45.0236C81.6076 44.9612 81.7079 44.9147 81.8125 44.878C82.0237 44.8085 82.2484 44.8003 82.4624 44.825C82.8897 44.8806 83.2963 45.0536 83.5992 45.343C83.7476 45.4851 83.8667 45.6857 83.8655 45.897C83.8696 46.1029 83.8122 46.2947 83.7445 46.4774C83.6023 46.8421 83.4047 47.1751 83.1806 47.4931L83.1932 47.4596C83.11 48.4863 83.0281 49.4976 82.954 50.411L82.8254 50.3678C83.2459 49.7986 83.6613 49.2361 84.0716 48.6804L84.2254 48.4724C84.2821 48.403 84.3423 48.3242 84.4262 48.2727C84.5882 48.1609 84.7946 48.1291 84.9812 48.1436C85.3587 48.1783 85.6985 48.3315 85.9828 48.548C86.0515 48.6072 86.1211 48.6631 86.1719 48.7543C86.2053 48.8649 86.1873 48.9466 86.1826 49.0317C86.1596 49.197 86.128 49.3585 86.0924 49.5182C86.0218 49.8374 85.938 50.1501 85.8539 50.4602C85.6837 51.08 85.5021 51.6854 85.3168 52.2796L85.319 52.2702C84.7895 56.2115 84.308 59.7966 83.8834 62.956L83.8838 62.9486C84.0139 67.7686 84.1179 71.6146 84.1895 74.2592C84.2219 75.578 84.2471 76.5964 84.2642 77.2889C84.2711 77.6313 84.2761 77.8925 84.2799 78.0717C84.2821 78.2473 84.2799 78.337 84.2799 78.337Z" fill="#FF9A6C"/>
<path d="M72.401 57.9578C72.3783 57.9587 72.3459 57.5592 72.3118 56.9129C72.2778 56.2666 72.2415 55.3732 72.2122 54.3863C72.1826 53.3991 72.1653 52.5051 72.1605 51.8579C72.1561 51.2107 72.1646 50.8104 72.1873 50.8101C72.21 50.8098 72.2425 51.2092 72.2765 51.8555C72.3109 52.5018 72.3465 53.3949 72.3761 54.3819C72.4057 55.3685 72.4231 56.2619 72.4275 56.9091C72.4322 57.5563 72.4237 57.9572 72.401 57.9578Z" fill="#FF9A6C"/>
<path d="M88.0499 47.6309C88.0543 47.6391 87.9484 47.7015 87.742 47.788C87.5356 47.873 87.2264 47.9801 86.828 48.0548C86.4293 48.1283 85.9456 48.1704 85.4029 48.1124C85.2667 48.0921 85.1205 48.058 84.99 47.9706C84.8548 47.8871 84.7747 47.7232 84.7672 47.5788C84.7574 47.2952 84.7609 47.0246 84.8006 46.7292C84.8412 46.4389 84.9449 46.1506 85.1343 45.9244C85.3159 45.6943 85.6049 45.5423 85.8854 45.5175C86.4416 45.477 86.9131 45.5932 87.3011 45.7064C87.6868 45.8276 87.9765 45.9762 88.1668 46.0897C88.3572 46.2041 88.4508 46.2818 88.4451 46.2895C88.4291 46.3159 88.0269 46.0259 87.2664 45.81C86.8911 45.7126 86.4101 45.6123 85.9062 45.6579C85.6572 45.6855 85.4249 45.8114 85.2623 46.0165C85.0962 46.2183 85.0023 46.4763 84.9635 46.751C84.9257 47.0222 84.9213 47.312 84.9279 47.5659C84.9301 47.8206 85.1778 47.9406 85.4274 47.9739C85.9386 48.0362 86.419 48.0077 86.8079 47.9492C87.5923 47.8253 88.0386 47.6032 88.0499 47.6309Z" fill="#263238"/>
<path d="M124.202 54.0495C124.202 54.0677 123.876 54.0915 123.349 54.0621C122.822 54.0333 122.096 53.9383 121.32 53.7309C120.544 53.522 119.874 53.2422 119.412 53.006C118.948 52.7698 118.686 52.588 118.696 52.5727C118.71 52.5521 118.993 52.7004 119.464 52.9095C119.935 53.119 120.601 53.3782 121.365 53.5838C122.129 53.7879 122.841 53.8985 123.359 53.9544C123.878 54.0106 124.202 54.0253 124.202 54.0495Z" fill="#FF9A6C"/>
</svg>
