<svg width="25" height="25" viewBox="0 0 25 25" fill="none" xmlns="http://www.w3.org/2000/svg">
<path opacity="0.4" d="M19.3946 9.56249C19.0046 9.56249 18.6946 9.87249 18.6946 10.2625V11.8425C18.6946 15.3825 15.8146 18.2625 12.2746 18.2625C8.73459 18.2625 5.85459 15.3825 5.85459 11.8425V10.2525C5.85459 9.86249 5.54459 9.55249 5.15459 9.55249C4.76459 9.55249 4.45459 9.86249 4.45459 10.2525V11.8325C4.45459 15.9025 7.58459 19.2525 11.5746 19.6125V21.7425C11.5746 22.1325 11.8846 22.4425 12.2746 22.4425C12.6646 22.4425 12.9746 22.1325 12.9746 21.7425V19.6125C16.9546 19.2625 20.0946 15.9025 20.0946 11.8325V10.2525C20.0846 9.87249 19.7746 9.56249 19.3946 9.56249Z" fill="#292D32"/>
<path d="M12.2745 2.44238C9.83449 2.44238 7.85449 4.42238 7.85449 6.86238V11.9824C7.85449 14.4224 9.83449 16.4024 12.2745 16.4024C14.7145 16.4024 16.6945 14.4224 16.6945 11.9824V6.86238C16.6945 4.42238 14.7145 2.44238 12.2745 2.44238ZM13.5845 9.39238C13.5145 9.65238 13.2845 9.82238 13.0245 9.82238C12.9745 9.82238 12.9245 9.81238 12.8745 9.80238C12.4845 9.69238 12.0745 9.69238 11.6845 9.80238C11.3645 9.89238 11.0545 9.70238 10.9745 9.39238C10.8845 9.08238 11.0745 8.76238 11.3845 8.68238C11.9745 8.52238 12.5945 8.52238 13.1845 8.68238C13.4845 8.76238 13.6645 9.08238 13.5845 9.39238ZM14.1145 7.45238C14.0245 7.69238 13.8045 7.83238 13.5645 7.83238C13.4945 7.83238 13.4345 7.82238 13.3645 7.80238C12.6645 7.54238 11.8845 7.54238 11.1845 7.80238C10.8845 7.91238 10.5445 7.75238 10.4345 7.45238C10.3245 7.15238 10.4845 6.81238 10.7845 6.71238C11.7445 6.36238 12.8045 6.36238 13.7645 6.71238C14.0645 6.82238 14.2245 7.15238 14.1145 7.45238Z" fill="#1C274C"/>
</svg>
