<svg width="23" height="23" viewBox="0 0 23 23" fill="none" xmlns="http://www.w3.org/2000/svg">
<path d="M2.49823 21.2535C3.06247 20.5984 3.97411 18.5457 3.93164 17.5454C2.86777 16.3631 2.16032 14.787 2.02435 13.0482C1.85855 10.9268 2.55877 8.91501 3.83632 7.34604L4.29576 5.88574C1.98324 7.51891 0.560668 10.2398 0.789707 13.169C0.925684 14.9078 1.63313 16.4839 2.697 17.6662C2.73947 18.6665 1.82738 20.7192 1.26359 21.3743C1.11316 21.6053 1.31329 21.9176 1.55723 21.8322C1.86352 21.7251 2.16077 21.5936 2.44719 21.4405C2.44448 21.3783 2.45938 21.3131 2.49823 21.2535Z" fill="#EBECED"/>
<path d="M21.6162 15.8891C20.6594 15.648 19.7618 15.1926 18.9748 14.5557C18.6469 14.2903 18.2091 14.2772 17.8671 14.5188C16.5982 15.4145 15.0803 16.0059 13.4224 16.1686C8.50865 16.6498 4.22333 13.1783 3.85108 8.41578C3.82578 8.08975 3.81991 7.76676 3.83121 7.44629C3.68574 8.18781 3.6365 8.95713 3.69749 9.74111C4.06973 14.5041 8.35505 17.9752 13.2688 17.494C15.1851 17.3064 16.9135 16.5452 18.2877 15.4044C19.3575 16.4578 20.6915 17.1406 22.1258 17.3474L22.1303 17.3469C22.3946 17.3211 22.5066 16.9607 22.3169 16.7529C22.068 16.48 21.8344 16.1909 21.6162 15.8891Z" fill="#EBECED"/>
<path d="M22.4703 16.6725C21.7782 15.926 21.204 15.0621 20.7636 14.1048C20.7238 14.0178 20.6285 13.9834 20.5508 14.0284C20.4731 14.0729 20.4428 14.1801 20.4826 14.2665C20.9388 15.2582 21.5338 16.1534 22.2507 16.9273C22.3122 16.9935 22.2864 17.0698 22.2769 17.0916C22.2674 17.1133 22.23 17.1836 22.1455 17.1714C20.7478 16.9702 19.4499 16.3131 18.3919 15.2709C18.3358 15.2158 18.2532 15.2117 18.1931 15.2618C16.789 16.4274 15.0814 17.1386 13.2545 17.317C8.4357 17.7886 4.21859 14.3828 3.85448 9.72488C3.6783 7.47303 4.41872 5.26616 5.93977 3.51017C7.46624 1.7471 9.5949 0.650234 11.9336 0.421763C14.2723 0.192787 16.5388 0.859498 18.316 2.29907C20.0859 3.73308 21.1579 5.76253 21.3337 8.01438C21.4552 9.57072 21.1268 11.1488 20.4044 12.5221C20.3059 12.7193 20.2368 12.8274 20.1546 12.9624C19.8673 13.4037 19.5696 13.668 19.4336 13.7757C19.3622 13.8323 19.3455 13.9425 19.3957 14.0224C19.4264 14.0714 19.4752 14.0972 19.5249 14.0972C19.5565 14.0972 19.5881 14.0866 19.6161 14.0648C19.7828 13.9329 20.1013 13.6412 20.3918 13.2015C20.4844 13.061 20.5761 12.9033 20.6628 12.7289C21.4285 11.2863 21.7773 9.6243 21.6495 7.98406C21.4651 5.62858 20.3475 3.50814 18.5021 2.01297C16.6635 0.523867 14.3211 -0.1666 11.907 0.0699581C9.4928 0.306011 7.29322 1.44078 5.71344 3.26502C5.05343 4.02726 4.53482 4.8719 4.16709 5.76809C3.0097 6.59655 2.07096 7.69746 1.45071 8.95607C0.80154 10.2733 0.518743 11.7356 0.631681 13.1848C0.764496 14.8822 1.44122 16.4976 2.53988 17.7416C2.53808 18.7121 1.67613 20.6394 1.14894 21.2521C1.14397 21.2581 1.13945 21.2642 1.13493 21.2708C1.02561 21.4386 1.02471 21.6564 1.13313 21.8258C1.21489 21.9536 1.34048 22.0244 1.47375 22.0244C1.51666 22.0244 1.56003 22.0173 1.6034 22.0022C2.87011 21.5599 3.98278 20.7254 4.82891 19.585C6.30388 20.3811 7.98169 20.7127 9.69022 20.5459C11.4986 20.369 13.1791 19.6512 14.5502 18.471C14.6193 18.4113 14.6324 18.3001 14.5791 18.2228C14.5258 18.1455 14.4268 18.1308 14.3573 18.1904C13.0341 19.3298 11.4109 20.0223 9.66266 20.1931C7.96859 20.3589 6.30614 20.0177 4.85647 19.2059C4.78961 19.1685 4.70874 19.1887 4.66221 19.2534C3.84635 20.3953 2.75582 21.2288 1.50898 21.6645C1.44212 21.6878 1.40373 21.6413 1.39017 21.62C1.37707 21.5998 1.35177 21.5473 1.38566 21.4876C1.97429 20.7936 2.89812 18.6969 2.8543 17.6592C2.85249 17.6152 2.83578 17.5733 2.80777 17.5419C1.73576 16.35 1.0744 14.7922 0.946553 13.155C0.838584 11.7761 1.10873 10.3835 1.72718 9.12793C2.25076 8.06493 3.01287 7.11819 3.94754 6.36302C3.59111 7.44877 3.44926 8.59668 3.54006 9.75723C3.89604 14.31 7.76485 17.7163 12.365 17.7163C12.6677 17.7163 12.9745 17.7017 13.2825 17.6713C15.1234 17.4914 16.8482 16.7863 18.2794 15.6313C19.3672 16.666 20.6872 17.3195 22.1053 17.5237C22.2986 17.5515 22.478 17.4429 22.562 17.2462C22.6469 17.0486 22.6108 16.8237 22.4703 16.6725Z" fill="#2A3853"/>
<path d="M10.1176 8.89402C10.1176 7.91661 9.3264 7.12207 8.35468 7.12207C7.38296 7.12207 6.5918 7.9173 6.5918 8.89402C6.5918 9.87074 7.38296 10.666 8.35468 10.666C9.3264 10.666 10.1176 9.87143 10.1176 8.89402ZM7.07352 8.89402C7.07352 8.18399 7.64829 7.60697 8.35399 7.60697C9.05969 7.60697 9.63446 8.18469 9.63446 8.89402C9.63446 9.60335 9.05969 10.1811 8.35399 10.1811C7.64829 10.1811 7.07352 9.60405 7.07352 8.89402Z" fill="#1C274C"/>
<path d="M14.3637 8.89402C14.3637 7.91661 13.5725 7.12207 12.6008 7.12207C11.6291 7.12207 10.8379 7.9173 10.8379 8.89402C10.8379 9.87074 11.6291 10.666 12.6008 10.666C13.5725 10.666 14.3637 9.87143 14.3637 8.89402ZM11.3196 8.89402C11.3196 8.18399 11.8944 7.60697 12.6001 7.60697C13.3058 7.60697 13.8805 8.18469 13.8805 8.89402C13.8805 9.60335 13.3058 10.1811 12.6001 10.1811C11.8944 10.1811 11.3196 9.60405 11.3196 8.89402Z" fill="#1C274C"/>
<path d="M18.6078 8.89402C18.6078 7.91661 17.8166 7.12207 16.8449 7.12207C15.8732 7.12207 15.082 7.9173 15.082 8.89402C15.082 9.87074 15.8732 10.666 16.8449 10.666C17.8166 10.666 18.6078 9.87143 18.6078 8.89402ZM15.5638 8.89402C15.5638 8.18399 16.1385 7.60697 16.8442 7.60697C17.5499 7.60697 18.1247 8.18469 18.1247 8.89402C18.1247 9.60335 17.5499 10.1811 16.8442 10.1811C16.1385 10.1811 15.5638 9.60405 15.5638 8.89402Z" fill="#1C274C"/>
</svg>
