<svg width="23" height="23" viewBox="0 0 23 23" fill="none" xmlns="http://www.w3.org/2000/svg">
<path d="M20.4236 18.9443C20.3192 18.9443 20.2344 19.0159 20.2344 19.104V22.546C20.2344 22.634 20.3192 22.7056 20.4236 22.7056C20.5279 22.7056 20.6128 22.634 20.6128 22.546V19.104C20.6128 19.0159 20.5279 18.9443 20.4236 18.9443Z" fill="#424852"/>
<path d="M20.4036 14.2111H17.4522L16.489 11.6046C17.2236 11.5963 17.9625 11.6853 18.683 11.8741L21.3549 12.5737C21.5528 12.6253 21.7652 12.5892 21.9236 12.4761C22.0814 12.3635 22.1592 12.1924 22.1317 12.0196L20.863 4.1043C20.8219 3.84707 20.5587 3.65278 20.2506 3.65278H20.1398C20.0355 3.65278 19.9506 3.72438 19.9506 3.8124C19.9506 3.90043 20.0355 3.97203 20.1398 3.97203H20.2506C20.3701 3.97203 20.4722 4.04729 20.4879 4.14717L21.7565 12.062C21.7668 12.1277 21.7387 12.1897 21.6792 12.2321C21.6192 12.275 21.542 12.2882 21.4674 12.2686L18.7955 11.569C16.9209 11.0782 14.9279 11.226 13.183 11.9845C12.843 12.1322 12.6317 12.4246 12.6317 12.7475V12.7575C12.6317 13.147 12.2565 13.4635 11.7949 13.4635C11.3333 13.4635 10.9582 13.147 10.9582 12.7575C10.9582 12.4337 10.7463 12.1409 10.4047 11.9936L10.3663 11.9767C8.62141 11.2228 6.63006 11.0796 4.75871 11.5726L2.12357 12.2672C2.04898 12.2869 1.97114 12.2736 1.91168 12.2312C1.85168 12.1883 1.82357 12.1263 1.83384 12.0606L3.10249 4.14717C3.11817 4.04729 3.22033 3.97203 3.33979 3.97203H4.05438L3.17979 10.1788C3.15168 10.3772 3.24195 10.5738 3.42141 10.7043C3.60033 10.8347 3.84411 10.8817 4.07276 10.8292L5.23546 10.5633C6.40519 10.2961 7.62898 10.3312 8.77438 10.6659C9.91979 11.0002 10.9074 11.6109 11.6311 12.4314H11.6328C11.6452 12.4497 11.6625 12.4656 11.6836 12.4789C11.7176 12.4998 11.7565 12.5099 11.796 12.5099C11.8538 12.5099 11.9111 12.4875 11.9484 12.4451C12.6695 11.6205 13.6571 11.0066 14.8036 10.6687C15.9501 10.3312 17.176 10.2933 18.3484 10.5601L19.5344 10.8297C19.763 10.8817 20.0063 10.8347 20.1852 10.7043C20.3641 10.5738 20.4544 10.3772 20.4263 10.1793L19.4009 2.90982C19.3582 2.60789 19.0544 2.38031 18.6944 2.38031H18.3117L18.2414 1.79653C18.216 1.58536 18.0463 1.40247 17.8095 1.33041L16.7311 1.00294C15.0911 0.505358 13.2987 0.643551 11.7955 1.37967C10.2847 0.638534 8.48087 0.501254 6.83546 1.00614L5.77925 1.32995C5.54357 1.40201 5.37492 1.5849 5.34952 1.79561L5.27925 2.38031H4.91114C4.5506 2.38031 4.24681 2.60789 4.20465 2.90982L4.09979 3.65278H3.34033C3.03222 3.65278 2.76898 3.84707 2.72789 4.1043L1.45925 12.0182C1.43168 12.1915 1.50952 12.3626 1.66789 12.4752C1.82627 12.5879 2.03925 12.6244 2.23708 12.5724L4.87222 11.8777C6.64789 11.4098 8.53817 11.5457 10.1944 12.2613L10.2328 12.2782C10.4474 12.3708 10.5803 12.5546 10.5803 12.758C10.5803 13.3235 11.1252 13.7833 11.7955 13.7833C12.4657 13.7833 13.0106 13.3235 13.0106 12.758V12.748C13.0106 12.5455 13.143 12.3617 13.3565 12.2686C14.2225 11.8919 15.1528 11.6743 16.0982 11.6187L17.056 14.2111H6.53492L7.25654 12.2686C7.28789 12.1847 7.23222 12.0948 7.13276 12.0684C7.03276 12.0419 6.92681 12.0889 6.89546 12.1728L6.13816 14.2106H3.18681C1.86789 14.2106 0.794922 15.1159 0.794922 16.2288V16.2598C0.794922 17.3238 1.77654 18.1981 3.016 18.272V22.5464C3.016 22.6344 3.10087 22.706 3.20519 22.706C3.30952 22.706 3.39438 22.6344 3.39438 22.5464V18.2688C3.79762 18.236 4.16844 18.1074 4.47438 17.9112H19.1149C19.4733 18.1411 19.9192 18.2775 20.403 18.2775C21.7219 18.2775 22.7949 17.3722 22.7949 16.2593V16.2283C22.7955 15.1164 21.7225 14.2111 20.4036 14.2111ZM18.6944 2.69957C18.863 2.69957 19.0052 2.80629 19.0252 2.94767L20.0501 10.2176C20.0636 10.312 20.0219 10.4014 19.9371 10.4634C19.8517 10.5255 19.7409 10.5469 19.6322 10.5223L18.4463 10.2527C17.1998 9.9695 15.8965 10.0092 14.6782 10.3681C14.3057 10.4776 13.9495 10.6153 13.6122 10.7777C13.9328 10.572 14.2798 10.3923 14.6506 10.2422C15.8101 9.77339 17.0895 9.6352 18.3517 9.84226L18.3592 9.84363C18.5652 9.87737 18.7728 9.82812 18.9279 9.70862C19.083 9.58913 19.1598 9.41901 19.1387 9.24251L18.3501 2.69957H18.6944ZM16.603 1.30396L17.6814 1.63142C17.7819 1.66198 17.8538 1.73951 17.8647 1.82936L18.7625 9.27489C18.7717 9.34969 18.7387 9.42221 18.6728 9.47283C18.6068 9.52346 18.5187 9.54444 18.4311 9.5303H18.4306L18.4236 9.52938C17.0814 9.3091 15.7203 9.45641 14.4874 9.95491C13.4647 10.3686 12.6101 10.9911 11.9847 11.7738V1.65605C13.3911 0.967369 15.0684 0.838298 16.603 1.30396ZM5.90898 1.63051L6.96519 1.30669C8.50465 0.834649 10.1928 0.962352 11.6068 1.65651V11.7738C10.9771 10.9857 10.1155 10.3595 9.08465 9.94624C8.22898 9.60327 7.31222 9.42905 6.38303 9.42905C5.97654 9.42905 5.56735 9.46234 5.16033 9.52984C5.07276 9.54398 4.98411 9.52346 4.91817 9.47283C4.85222 9.42221 4.81925 9.34969 4.82844 9.27489L5.72627 1.82891C5.73708 1.7386 5.80844 1.66107 5.90898 1.63051ZM4.91114 2.69957H5.24033L4.45168 9.2416C4.4306 9.4181 4.50735 9.58822 4.66303 9.70771C4.81871 9.82721 5.02627 9.87646 5.23276 9.84226C6.48952 9.63474 7.76519 9.7702 8.92195 10.234C9.29979 10.3854 9.65276 10.5679 9.97871 10.7772C9.63708 10.6126 9.27546 10.4739 8.89816 10.364C7.68087 10.0083 6.37979 9.97087 5.13654 10.255L3.97384 10.5214C3.86519 10.546 3.75384 10.525 3.66898 10.463C3.58357 10.401 3.54249 10.3111 3.556 10.2167L4.58087 2.94767C4.60033 2.80629 4.74249 2.69957 4.91114 2.69957ZM22.4171 16.2598C22.4171 17.1966 21.5138 17.9587 20.4036 17.9587C19.436 17.9587 18.649 17.2946 18.649 16.4782C18.649 15.8429 19.2614 15.3262 20.0144 15.3262C20.596 15.3262 21.069 15.7253 21.069 16.216C21.069 16.5909 20.7074 16.896 20.263 16.896C19.9284 16.896 19.656 16.6661 19.656 16.3838C19.656 16.2958 19.5711 16.2242 19.4668 16.2242C19.3625 16.2242 19.2776 16.2958 19.2776 16.3838C19.2776 16.8422 19.7198 17.2153 20.263 17.2153C20.916 17.2153 21.4474 16.7669 21.4474 16.216C21.4474 15.5492 20.8047 15.0069 20.0144 15.0069C19.0528 15.0069 18.2706 15.6669 18.2706 16.4782C18.2706 16.8987 18.443 17.2855 18.7301 17.592H4.86033C5.14789 17.2855 5.31979 16.8983 5.31979 16.4782C5.31979 15.6669 4.53762 15.0069 3.576 15.0069C2.78573 15.0069 2.14303 15.5492 2.14303 16.216C2.14303 16.7669 2.67438 17.2153 3.32735 17.2153C3.8706 17.2153 4.31276 16.8422 4.31276 16.3838C4.31276 16.2958 4.22789 16.2242 4.12357 16.2242C4.01925 16.2242 3.93438 16.2958 3.93438 16.3838C3.93438 16.6661 3.66195 16.896 3.32735 16.896C2.88303 16.896 2.52141 16.5909 2.52141 16.216C2.52141 15.7253 2.99438 15.3262 3.576 15.3262C4.32898 15.3262 4.94141 15.8429 4.94141 16.4782C4.94141 17.2946 4.15438 17.9587 3.18681 17.9587C2.07654 17.9587 1.1733 17.1966 1.1733 16.2598V16.2288C1.1733 15.292 2.07654 14.5299 3.18681 14.5299H20.4036C21.5138 14.5299 22.4171 15.292 22.4171 16.2288V16.2598Z" fill="#424852"/>
<path d="M16.3158 15.416H7.27688C6.96499 15.416 6.71094 15.6304 6.71094 15.8935V16.3063C6.71094 16.5694 6.96499 16.7838 7.27688 16.7838H16.3153C16.6272 16.7838 16.8812 16.5694 16.8812 16.3063V15.8935C16.8817 15.6304 16.6277 15.416 16.3158 15.416ZM7.08932 16.3063V15.8935C7.08932 15.8064 7.17364 15.7353 7.27688 15.7353H7.80229C7.85202 16.0422 8.06175 16.3058 8.35796 16.4645H7.27688C7.17364 16.4645 7.08932 16.3934 7.08932 16.3063Z" fill="#424852"/>
<path d="M17.7062 21.817H5.88238C5.62238 21.817 5.41211 21.6391 5.41211 21.4202V19.262C5.41211 19.0426 5.62292 18.8652 5.88238 18.8652H17.7056C17.9656 18.8652 18.1759 19.0431 18.1759 19.262V21.4202C18.1764 21.6396 17.9656 21.817 17.7062 21.817Z" fill="#1C274C" fill-opacity="0.5"/>
<path d="M15.2158 12.2379L15.1034 12.2648C14.4947 12.4094 14.0088 12.7962 13.8018 13.3001C13.6796 13.5984 13.9423 13.909 14.3158 13.909H15.6801C16.0547 13.909 16.3169 13.5975 16.1942 13.2992L15.8769 12.5289C15.7823 12.2999 15.4926 12.1722 15.2158 12.2379Z" fill="#D4E1E8"/>
<path d="M8.36298 12.2379L8.47542 12.2648C9.08407 12.4094 9.57001 12.7962 9.77704 13.3001L9.91542 13.6381C9.97001 13.7708 9.85271 13.9094 9.68623 13.9094H7.89812C7.52352 13.9094 7.26136 13.5979 7.38406 13.2997L7.70136 12.5293C7.79596 12.2999 8.08569 12.1722 8.36298 12.2379Z" fill="#D4E1E8"/>
</svg>
