<svg width="23" height="23" viewBox="0 0 23 23" fill="none" xmlns="http://www.w3.org/2000/svg">
<path d="M4.34654 12.6279C4.10937 12.6279 3.91602 12.8208 3.91602 13.0584V14.1964C3.91602 14.4335 4.10892 14.6269 4.34654 14.6269H9.12204C9.35921 14.6269 9.55256 14.434 9.55256 14.1964V13.0584C9.55256 12.8213 9.35966 12.6279 9.12204 12.6279H4.34654ZM9.23588 13.0584V14.1964C9.23588 14.2591 9.18483 14.3106 9.12158 14.3106H7.62357C8.15122 14.0635 8.52979 13.5508 8.58626 12.9446H9.12158C9.18483 12.9441 9.23588 12.9952 9.23588 13.0584Z" fill="#1C274C" fill-opacity="0.5"/>
<path d="M22.5121 15.585H21.7564C21.4559 15.585 21.1619 15.7075 20.9504 15.9207L19.8744 17.0053H14.4687V16.9574C14.4687 16.7419 14.2934 16.5667 14.0779 16.5667H13.037V15.8222H18.7838C19.9019 15.8222 20.8117 14.9124 20.8117 13.7944V11.1734C20.8117 11.0862 20.7408 11.0153 20.6536 11.0153C20.5664 11.0153 20.4955 11.0862 20.4955 11.1734V13.7944C20.4955 14.738 19.7275 15.506 18.7838 15.506H2.94394C2.00023 15.506 1.23224 14.738 1.23224 13.7944V3.76762C1.23224 2.82394 2.00023 2.05599 2.94394 2.05599H11.8891V9.77797C11.8891 10.2681 12.288 10.667 12.7782 10.667H20.6938C21.184 10.667 21.5829 10.2681 21.5829 9.77797V1.86265C21.5829 1.37252 21.184 0.973633 20.6938 0.973633H12.7782C12.3296 0.973633 11.9587 1.30747 11.8986 1.73978H2.94394C1.82585 1.73978 0.916016 2.64957 0.916016 3.76762V13.7944C0.916016 14.9124 1.82585 15.8222 2.94394 15.8222H12.7213V16.7248V19.4867V20.7976H9.00694V19.4867V16.7248V16.3634C9.00694 16.2762 8.93602 16.2053 8.84883 16.2053C8.76164 16.2053 8.69071 16.2762 8.69071 16.3634V16.5667H7.64987C7.43438 16.5667 7.2591 16.7419 7.2591 16.9574V19.2545C7.2591 19.47 7.43438 19.6452 7.64987 19.6452H8.69071V20.7981H8.20011C8.03928 20.7981 7.88749 20.8604 7.7732 20.9738L7.08969 21.6518C6.98173 21.7589 6.91983 21.9071 6.91983 22.0589V22.6271C6.91983 22.8182 7.07524 22.9736 7.26633 22.9736H14.4619C14.653 22.9736 14.8084 22.8182 14.8084 22.6271V22.0589C14.8084 21.9071 14.7465 21.7589 14.6385 21.6518L13.9546 20.9738C13.8403 20.8604 13.6889 20.7981 13.5276 20.7981H13.037V19.6452H14.0779C14.2934 19.6452 14.4687 19.47 14.4687 19.2545V19.2066H19.2816C19.3688 19.2066 19.4398 19.1357 19.4398 19.0485C19.4398 18.9613 19.3688 18.8904 19.2816 18.8904H14.4687V17.3215H19.7817V19.0485C19.7817 19.0901 19.798 19.1303 19.8278 19.1596L20.95 20.2912C21.1619 20.5044 21.4555 20.6269 21.7559 20.6269H22.5117C22.7349 20.6269 22.916 20.4453 22.916 20.2221V18.9166V17.2953V15.9893C22.9165 15.7662 22.7349 15.585 22.5121 15.585ZM12.2054 1.86265C12.2054 1.54689 12.4624 1.28985 12.7782 1.28985H20.6938C21.0096 1.28985 21.2667 1.54689 21.2667 1.86265V9.77797C21.2667 10.0937 21.0096 10.3508 20.6938 10.3508H12.7782C12.4624 10.3508 12.2054 10.0937 12.2054 9.77797V1.86265ZM7.64987 19.329C7.60876 19.329 7.57533 19.2956 7.57533 19.2545V16.9574C7.57533 16.9163 7.60876 16.8829 7.64987 16.8829H8.69071V19.3286H7.64987V19.329ZM13.7323 21.1983L14.4163 21.8764C14.4646 21.9242 14.4921 21.9907 14.4921 22.0589V22.6271C14.4921 22.6439 14.4786 22.6574 14.4619 22.6574H12.9982C13.3212 22.4184 13.4481 21.9514 13.2069 21.5651L12.9255 21.1147H13.5281C13.6049 21.1143 13.6776 21.1441 13.7323 21.1983ZM14.1524 19.2545C14.1524 19.2956 14.119 19.329 14.0779 19.329H13.037V16.8833H14.0779C14.119 16.8833 14.1524 16.9168 14.1524 16.9579V17.1639V19.0489V19.2545ZM22.5121 20.3111H21.7564C21.5395 20.3111 21.3276 20.2226 21.175 20.069L20.0984 18.9834V17.2289L21.175 16.1434C21.3276 15.9893 21.5395 15.9013 21.7564 15.9013H22.5121C22.5609 15.9013 22.6002 15.941 22.6002 15.9898V17.1377H21.9199C21.68 17.1377 21.4388 17.1589 21.2021 17.2009L20.5267 17.3206C20.4409 17.336 20.3835 17.4182 20.3988 17.504C20.4142 17.5898 20.496 17.6468 20.5822 17.6319L21.2576 17.5121C21.4758 17.4733 21.699 17.4539 21.9203 17.4539H22.6007V18.7589H21.9203C21.699 18.7589 21.4758 18.7395 21.2576 18.7007L20.5822 18.5809C20.496 18.566 20.4142 18.623 20.3988 18.7088C20.3835 18.7946 20.4409 18.8768 20.5267 18.8922L21.2021 19.0119C21.4383 19.0539 21.68 19.0751 21.9199 19.0751H22.6002V20.223C22.6002 20.2713 22.5605 20.3111 22.5121 20.3111Z" fill="#1C274C" fill-opacity="0.5"/>
<path d="M14.2011 13.4688C14.1139 13.4688 14.043 13.5397 14.043 13.6269C14.043 13.7141 14.1139 13.785 14.2011 13.785H18.4507C18.5379 13.785 18.6089 13.7141 18.6089 13.6269C18.6089 13.5397 18.5379 13.4688 18.4507 13.4688H14.2011Z" fill="#1C274C" fill-opacity="0.5"/>
<path d="M16.7355 2.82715C15.0825 2.82715 13.7422 4.16745 13.7422 5.82035C13.7422 7.47325 15.0825 8.81355 16.7355 8.81355C18.3885 8.81355 19.7288 7.47325 19.7288 5.82035C19.7288 4.16745 18.3885 2.82715 16.7355 2.82715ZM16.7355 6.67233C16.2648 6.67233 15.8835 6.29106 15.8835 5.82035C15.8835 5.34964 16.2648 4.96838 16.7355 4.96838C17.2062 4.96838 17.5875 5.34964 17.5875 5.82035C17.5875 6.29106 17.2062 6.67233 16.7355 6.67233Z" fill="#1C274C" fill-opacity="0.5"/>
<path d="M10.028 3.49316H3.43731C2.97562 3.49316 2.60156 3.8672 2.60156 4.32888V10.9193C2.60156 11.3809 2.97562 11.755 3.43731 11.755H10.028C10.4897 11.755 10.8637 11.3809 10.8637 10.9193V4.32888C10.8637 3.8672 10.4892 3.49316 10.028 3.49316ZM4.56398 8.38908C4.52333 8.38908 4.48312 8.37372 4.45195 8.34255C4.39006 8.28066 4.39006 8.18083 4.45195 8.11894L6.86251 5.70848C6.9244 5.64659 7.02424 5.64659 7.08613 5.70848C7.14802 5.77037 7.14802 5.8702 7.08613 5.93209L4.67557 8.34255C4.64485 8.37372 4.60419 8.38908 4.56398 8.38908ZM5.95765 8.92529L5.60799 9.27493C5.57727 9.30565 5.53661 9.32146 5.49641 9.32146C5.45575 9.32146 5.41554 9.3061 5.38437 9.27493C5.32248 9.21305 5.32248 9.11321 5.38437 9.05132L5.73403 8.70168C5.79592 8.63979 5.89576 8.63979 5.95765 8.70168C6.01954 8.76357 6.01954 8.86385 5.95765 8.92529ZM8.99479 5.88827L6.53996 8.343C6.50924 8.37372 6.46858 8.38953 6.42792 8.38953C6.38727 8.38953 6.34706 8.37417 6.31589 8.343C6.254 8.28111 6.254 8.18128 6.31589 8.11939L8.77072 5.66466C8.83261 5.60277 8.93245 5.60277 8.99434 5.66466C9.05668 5.72655 9.05668 5.82638 8.99479 5.88827Z" fill="#1C274C" fill-opacity="0.5"/>
<path d="M10.9574 20.0589H10.0507C9.84383 20.0589 9.67578 19.8913 9.67578 19.684V17.1154C9.67578 16.8575 9.93012 16.6768 10.1736 16.7612L10.5296 16.885C11.0098 17.0517 11.3319 17.5048 11.3319 18.013V19.6835C11.3324 19.8913 11.1643 20.0589 10.9574 20.0589Z" fill="#D4E1E8"/>
</svg>
