<svg width="23" height="23" viewBox="0 0 23 23" fill="none" xmlns="http://www.w3.org/2000/svg">
<path opacity="0.5" d="M12.4606 7.05519H9.85453C9.64085 7.05519 9.45112 6.91832 9.38336 6.71596L9.07617 5.79492H13.239L12.9318 6.71596C12.8641 6.91832 12.6743 7.05519 12.4606 7.05519Z" fill="#1C274C"/>
<path d="M14.8142 9.55608V20.7467C14.8142 21.5607 14.1542 22.2206 13.3401 22.2206H9.49667C9.04854 22.2206 8.63022 22.4438 8.38086 22.8155H13.8257C14.7003 22.8155 15.4096 22.1063 15.4096 21.2318V8.43945C15.0373 8.68925 14.8142 9.10798 14.8142 9.55608Z" fill="#EBECED"/>
<path d="M18.9434 6.5264C19.0848 6.73103 19.218 6.94152 19.3432 7.15699L19.9318 6.57067C19.7985 6.36198 19.6589 6.15826 19.5117 5.95996L18.9434 6.5264Z" fill="#EBECED"/>
<path d="M3.36928 6.5264C3.22788 6.73103 3.09462 6.94152 2.96948 7.15699L2.38086 6.57067C2.51412 6.36198 2.65371 6.15826 2.80098 5.95996L3.36928 6.5264Z" fill="#EBECED"/>
<path d="M1.69391 19.7771H1.5873C1.25662 19.7771 0.988281 19.5088 0.988281 19.1781V14.7943C0.988281 14.4636 1.25662 14.1953 1.5873 14.1953H1.69391V19.7771Z" fill="#EBECED"/>
<path opacity="0.5" d="M5.28105 21.3205H3.64979C3.3923 21.3205 3.18359 21.1118 3.18359 20.8544V13.0628C3.18359 12.8054 3.3923 12.5967 3.64979 12.5967H5.28105C5.53854 12.5967 5.74725 12.8054 5.74725 13.0628V20.8544C5.74725 21.1118 5.53854 21.3205 5.28105 21.3205Z" fill="#1C274C"/>
<path d="M20.6211 19.7771H20.7277C21.0584 19.7771 21.3267 19.5088 21.3267 19.1781V14.7943C21.3267 14.4636 21.0584 14.1953 20.7277 14.1953H20.6211V19.7771Z" fill="#EBECED"/>
<path opacity="0.5" d="M17.0307 21.3205H18.6619C18.9194 21.3205 19.1281 21.1118 19.1281 20.8544V13.0628C19.1281 12.8054 18.9194 12.5967 18.6619 12.5967H17.0307C16.7732 12.5967 16.5645 12.8054 16.5645 13.0628V20.8544C16.5645 21.1118 16.7732 21.3205 17.0307 21.3205Z" fill="#1C274C"/>
<path d="M1.48148 5.75291C1.47289 5.75291 1.46431 5.75201 1.45573 5.75065L0.294741 5.56139C0.208458 5.54739 0.150182 5.46608 0.164187 5.3798C0.178191 5.29353 0.259957 5.2348 0.345788 5.24926L1.50677 5.43852C1.59306 5.45253 1.65133 5.53383 1.63733 5.62011C1.62468 5.6978 1.55782 5.75291 1.48148 5.75291Z" fill="#F46E94"/>
<path d="M3.61988 2.87958C3.56341 2.87958 3.5092 2.84931 3.48029 2.79646L2.92329 1.76025C2.88173 1.68346 2.91064 1.58769 2.98789 1.54614C3.06469 1.50503 3.16046 1.53349 3.20202 1.61073L3.75902 2.6465C3.80058 2.72329 3.77167 2.81905 3.69442 2.86061C3.67093 2.87325 3.64518 2.87958 3.61988 2.87958Z" fill="#F46E94"/>
<path d="M18.6383 2.89496C18.6162 2.89496 18.5936 2.89044 18.5724 2.8805C18.4928 2.84391 18.4585 2.74996 18.4951 2.67091L18.9871 1.60262C19.0236 1.52312 19.1176 1.48879 19.1967 1.52538C19.2762 1.56196 19.3105 1.65592 19.2739 1.73497L18.782 2.80326C18.7553 2.86108 18.6984 2.89496 18.6383 2.89496Z" fill="#F46E94"/>
<path d="M20.8377 5.72272C20.7654 5.72272 20.7004 5.67303 20.6837 5.59985C20.6643 5.51493 20.7176 5.43001 20.8029 5.41059L21.9499 5.1495C22.0353 5.13008 22.1198 5.18338 22.1392 5.26875C22.1586 5.35367 22.1053 5.43859 22.0199 5.45802L20.873 5.71911C20.8612 5.72136 20.8495 5.72272 20.8377 5.72272Z" fill="#F46E94"/>
<g opacity="0.5">
<path d="M13.8231 5.63672H8.48802C7.52761 5.63672 6.74609 6.41817 6.74609 7.37851V18.285C6.74609 18.3722 6.81702 18.4431 6.9042 18.4431C6.99139 18.4431 7.06232 18.3722 7.06232 18.285V7.37851C7.06232 6.59253 7.70199 5.95291 8.48802 5.95291H13.8236C14.6096 5.95291 15.2493 6.59253 15.2493 7.37851V21.2319C15.2493 22.0179 14.6096 22.6575 13.8236 22.6575H8.48802C7.70199 22.6575 7.06232 22.0179 7.06232 21.2319V19.2508C7.06232 19.1636 6.99139 19.0927 6.9042 19.0927C6.81702 19.0927 6.74609 19.1636 6.74609 19.2508V21.2319C6.74609 22.1923 7.52761 22.9737 8.48802 22.9737H13.8236C14.784 22.9737 15.5655 22.1923 15.5655 21.2319V7.37851C15.5651 6.41817 14.784 5.63672 13.8231 5.63672Z" fill="#2A3853"/>
<path d="M21.5405 12.2971C21.6679 12.2971 21.7926 12.2573 21.9001 12.1796C22.0627 12.0622 22.1558 11.8797 22.1558 11.6791V11.5838C22.1558 11.2916 21.9475 11.0395 21.6602 10.9848L20.7098 10.8037C20.5363 9.2688 19.996 7.8125 19.1467 6.54636L19.4932 6.19945C20.3429 7.38699 20.9483 8.77012 21.2275 10.2833C21.2433 10.3692 21.3259 10.4261 21.4118 10.4103C21.4976 10.3945 21.5545 10.3118 21.5387 10.226C21.2473 8.6477 20.6122 7.2063 19.72 5.97224C19.9282 5.75406 19.9463 5.41393 19.7593 5.17452C18.7605 3.89573 17.4676 2.83828 16.0197 2.116C14.5014 1.35758 12.8652 0.973633 11.1562 0.973633C9.4473 0.973633 7.81108 1.35758 6.29276 2.1151C4.84537 2.83738 3.55247 3.89483 2.55366 5.17362C2.36574 5.41393 2.38426 5.75587 2.59522 5.97404C1.53407 7.44119 0.864135 9.1622 0.663108 10.9826L0.654525 10.9844C0.367215 11.039 0.15896 11.2911 0.15896 11.5834V11.6787C0.15896 11.8792 0.252472 12.0617 0.4151 12.1792C0.522615 12.2569 0.647297 12.2966 0.774689 12.2966C0.79818 12.2966 0.822123 12.2948 0.845613 12.2921L1.46315 13.9598H0.946804C0.51087 13.9598 0.15625 14.3144 0.15625 14.7503V19.1675C0.15625 19.6034 0.51087 19.958 0.946804 19.958H1.53453C1.54808 20.5416 2.02648 21.0123 2.61374 21.0123C2.70093 21.0123 2.77186 20.9414 2.77186 20.8542C2.77186 20.767 2.70093 20.6961 2.61374 20.6961C2.19272 20.6961 1.8503 20.3537 1.8503 19.9327V13.9846C1.8503 13.5636 2.19272 13.2213 2.61374 13.2213C2.70093 13.2213 2.77186 13.1503 2.77186 13.0632C2.77186 12.976 2.70093 12.9051 2.61374 12.9051C2.18368 12.9051 1.8119 13.158 1.63843 13.5225L1.15054 12.2049L1.48619 12.0938C1.73646 12.0111 1.90405 11.7785 1.90405 11.5147V10.9501C2.05629 9.44181 2.57444 8.00899 3.40069 6.76318C3.50052 6.83003 3.61843 6.86662 3.73995 6.86662C3.7535 6.86662 3.7675 6.86617 3.78151 6.86526C3.95678 6.85352 4.11851 6.76634 4.22512 6.62631C5.01974 5.58015 6.05785 4.71378 7.22607 4.12068C8.4503 3.49959 9.77301 3.18429 11.1562 3.18429C12.5395 3.18429 13.8622 3.49959 15.0873 4.12114C16.2556 4.71378 17.2932 5.58015 18.0883 6.62676C18.1944 6.76679 18.3562 6.85397 18.5319 6.86572C18.6679 6.8752 18.8011 6.83816 18.9123 6.76363C19.7372 8.00763 20.2553 9.43819 20.4084 10.9442C20.4089 10.9464 20.4098 11.5151 20.4098 11.5151C20.4098 11.7785 20.5779 12.0111 20.8281 12.0942L21.1611 12.2045L20.6736 13.5203C20.4997 13.1571 20.1284 12.9055 19.6992 12.9055C19.612 12.9055 19.5411 12.9764 19.5411 13.0636C19.5411 13.1508 19.612 13.2217 19.6992 13.2217C20.1202 13.2217 20.4627 13.5641 20.4627 13.9851V19.9332C20.4627 20.3542 20.1202 20.6966 19.6992 20.6966C19.612 20.6966 19.5411 20.7675 19.5411 20.8547C19.5411 20.9418 19.612 21.0128 19.6992 21.0128C20.286 21.0128 20.7649 20.5421 20.7784 19.9585H21.3657C21.8016 19.9585 22.1562 19.6039 22.1562 19.168V14.7507C22.1562 14.3148 21.8016 13.9602 21.3657 13.9602H20.8475L21.4655 12.2925C21.4908 12.2948 21.5157 12.2971 21.5405 12.2971ZM2.8211 6.20125L3.16578 6.54591C2.31604 7.8125 1.77621 9.26835 1.60274 10.8037L0.988365 10.9212C1.19346 9.20782 1.82816 7.5889 2.8211 6.20125ZM0.472472 19.1675V14.7503C0.472472 14.4887 0.685244 14.276 0.946804 14.276H1.53407V19.6418H0.946804C0.685244 19.6418 0.472472 19.4291 0.472472 19.1675ZM1.58738 11.5151C1.58738 11.6421 1.50652 11.7541 1.3859 11.7939L0.870459 11.9646C0.7774 11.9953 0.678919 11.98 0.599412 11.923C0.519905 11.8657 0.47473 11.7767 0.47473 11.6787V11.5834C0.47473 11.4424 0.575018 11.3214 0.713252 11.2947L1.58738 11.128V11.5151ZM18.5531 6.54997C18.4673 6.5441 18.3919 6.50345 18.3399 6.43524C17.5164 5.35114 16.4412 4.45359 15.2305 3.83927C13.9607 3.19468 12.5901 2.8681 11.1562 2.8681C9.72241 2.8681 8.35182 3.19468 7.08241 3.83882C5.87173 4.45314 4.79658 5.35069 3.97305 6.43479C3.9211 6.50299 3.84565 6.5441 3.75982 6.54952C3.67535 6.55539 3.59223 6.52422 3.53214 6.46415L2.82561 5.75768C2.72081 5.65288 2.71087 5.4853 2.80257 5.36785C4.8273 2.7764 7.87206 1.28983 11.1562 1.28983C14.4404 1.28983 17.4852 2.7764 19.5099 5.3683C19.6016 5.48575 19.5917 5.65333 19.4869 5.75813L18.7804 6.4646C18.7207 6.52468 18.6376 6.55584 18.5531 6.54997ZM20.726 11.5151V11.128L21.6015 11.2952C21.7397 11.3214 21.84 11.4429 21.84 11.5834V11.6787C21.84 11.7767 21.7944 11.8657 21.7153 11.923C21.6358 11.9804 21.5374 11.9958 21.4443 11.9646L20.9271 11.7939C20.8069 11.7541 20.726 11.6421 20.726 11.5151ZM21.84 14.7503V19.1675C21.84 19.4291 21.6273 19.6418 21.3657 19.6418H20.7784V14.276H21.3657C21.6273 14.276 21.84 14.4887 21.84 14.7503Z" fill="#2A3853"/>
</g>
<path opacity="0.5" d="M12.0736 15.3656C12.0736 15.1334 11.8308 14.9768 11.3454 14.6635C10.8532 14.346 10.6072 14.1873 10.4237 14.3038C10.2402 14.4204 10.2402 14.7355 10.2402 15.3656C10.2402 15.9958 10.2402 16.3109 10.4237 16.4274C10.6072 16.544 10.8532 16.3852 11.3454 16.0677C11.8308 15.7545 12.0736 15.5979 12.0736 15.3656Z" fill="#1C274C" stroke="#1C274C" stroke-width="0.9" stroke-linecap="round"/>
</svg>
