<svg width="19" height="21" viewBox="0 0 19 21" fill="none" xmlns="http://www.w3.org/2000/svg">
<path d="M1.88867 9.33008H13.8887C15.7743 9.33008 16.7171 9.33008 17.3029 9.91586C17.8887 10.5017 17.8887 11.4445 17.8887 13.3301V14.3301C17.8887 17.1585 17.8887 18.5727 17.01 19.4514C16.1313 20.3301 14.7171 20.3301 11.8887 20.3301H7.88867C5.06024 20.3301 3.64603 20.3301 2.76735 19.4514C1.88867 18.5727 1.88867 17.1585 1.88867 14.3301V9.33008Z" stroke="#1C274C"/>
<path d="M1.88947 9.32973C1.40567 7.5242 1.16378 6.62143 1.37183 5.84497C1.50812 5.3363 1.77592 4.87248 2.14829 4.50011C2.71669 3.9317 3.61946 3.6898 5.425 3.20601L12.428 1.32957C13.1012 1.14918 13.4378 1.05898 13.7327 1.03966C14.9434 0.9603 16.0828 1.61812 16.6195 2.70637C16.7502 2.97137 16.8404 3.30799 17.0208 3.98122C17.0809 4.20563 17.111 4.31784 17.1174 4.41612C17.1438 4.81972 16.9246 5.19951 16.5618 5.3784C16.4735 5.42196 16.3613 5.45202 16.1369 5.51215L1.88947 9.32973Z" stroke="#1C274C"/>
<path opacity="0.5" d="M12.5901 1.27142L11.9523 6.61869" stroke="#1C274C" stroke-linecap="round"/>
<path opacity="0.5" d="M6.31076 2.95404L5.673 8.30131" stroke="#1C274C" stroke-linecap="round"/>
</svg>
