<svg width="21" height="19" viewBox="0 0 21 19" fill="none" xmlns="http://www.w3.org/2000/svg">
<ellipse cx="10.7956" cy="10.9362" rx="3.16665" ry="3.16665" stroke="#1C274C"/>
<path opacity="0.5" d="M8.68583 18.3245H12.908C15.873 18.3245 17.3555 18.3245 18.4204 17.6129C18.8814 17.3048 19.2773 16.909 19.5853 16.448C20.2969 15.383 20.2969 13.9006 20.2969 10.9356C20.2969 7.97065 20.2967 6.4884 19.5851 5.42346C19.2771 4.96244 18.8813 4.56661 18.4202 4.25856C17.3553 3.54699 15.8728 3.54699 12.9079 3.54699H8.68567C5.72071 3.54699 4.23823 3.54699 3.17329 4.25856C2.71227 4.56661 2.31644 4.96244 2.00839 5.42346C1.29698 6.48817 1.29698 7.96999 1.29698 10.9336L1.29698 10.9356C1.29698 13.9006 1.29698 15.383 2.00855 16.448C2.31659 16.909 2.71243 17.3048 3.17345 17.6129C4.23839 18.3245 5.72087 18.3245 8.68583 18.3245Z" stroke="#1C274C"/>
<path d="M17.1313 7.76953H16.6035" stroke="#1C274C" stroke-linecap="round"/>
<path opacity="0.5" d="M13.436 0.908203H8.1582" stroke="#1C274C" stroke-linecap="round"/>
</svg>
