<svg width="30" height="30" viewBox="0 0 30 30" fill="none" xmlns="http://www.w3.org/2000/svg">
<path opacity="0.5" d="M5.79858 27.5703H25.1319" stroke="#1C274C" stroke-width="1.5" stroke-linecap="round"/>
<path d="M18.6426 4.51768L17.7466 5.41367L9.50945 13.6509C8.95152 14.2088 8.67256 14.4878 8.43265 14.7953C8.14965 15.1582 7.90701 15.5508 7.70905 15.9662C7.54123 16.3183 7.41647 16.6926 7.16696 17.4411L6.10967 20.613L5.85122 21.3883C5.72843 21.7567 5.8243 22.1628 6.09886 22.4374C6.37342 22.7119 6.77954 22.8078 7.1479 22.685L7.92324 22.4265L11.0951 21.3693L11.0952 21.3692C11.8437 21.1197 12.2179 20.995 12.5701 20.8272C12.9855 20.6292 13.378 20.3866 13.7409 20.1036C14.0485 19.8637 14.3274 19.5847 14.8853 19.0268L14.8853 19.0268L23.1225 10.7896L24.0185 9.89358C25.503 8.40907 25.503 6.0022 24.0185 4.51768C22.534 3.03317 20.1271 3.03317 18.6426 4.51768Z" stroke="#1C274C" stroke-width="1.5"/>
<path opacity="0.5" d="M17.7465 5.41309C17.7465 5.41309 17.8585 7.31705 19.5385 8.99702C21.2185 10.677 23.1224 10.789 23.1224 10.789M7.92313 22.426L6.10956 20.6124" stroke="#1C274C" stroke-width="1.5"/>
</svg>
