<svg width="25" height="25" viewBox="0 0 25 25" fill="none" xmlns="http://www.w3.org/2000/svg">
<path fill-rule="evenodd" clip-rule="evenodd" d="M18.0215 11.3975C15.9002 11.3975 14.8395 11.3975 14.1805 10.7385C13.5215 10.0794 13.5215 9.01878 13.5215 6.89746C13.5215 4.77614 13.5215 3.71548 14.1805 3.05647C14.8395 2.39746 15.9002 2.39746 18.0215 2.39746C20.1428 2.39746 21.2035 2.39746 21.8625 3.05647C22.5215 3.71548 22.5215 4.77614 22.5215 6.89746C22.5215 9.01878 22.5215 10.0794 21.8625 10.7385C21.2035 11.3975 20.1428 11.3975 18.0215 11.3975ZM18.7715 4.89746C18.7715 4.48325 18.4357 4.14746 18.0215 4.14746C17.6073 4.14746 17.2715 4.48325 17.2715 4.89746V6.14746H16.0215C15.6073 6.14746 15.2715 6.48325 15.2715 6.89746C15.2715 7.31167 15.6073 7.64746 16.0215 7.64746H17.2715V8.89746C17.2715 9.31167 17.6073 9.64746 18.0215 9.64746C18.4357 9.64746 18.7715 9.31167 18.7715 8.89746V7.64746H20.0215C20.4357 7.64746 20.7715 7.31167 20.7715 6.89746C20.7715 6.48325 20.4357 6.14746 20.0215 6.14746H18.7715V4.89746Z" fill="#1C274C"/>
<path opacity="0.5" d="M22.5213 13.0953C22.5198 14.5649 22.5086 15.814 22.4251 16.8389C22.3282 18.0282 22.1296 19.022 21.6851 19.8474C21.4891 20.2115 21.2482 20.5375 20.9548 20.8308C20.1225 21.6632 19.062 22.0403 17.718 22.221C16.405 22.3975 14.7222 22.3975 12.5749 22.3975H12.4681C10.3208 22.3975 8.63794 22.3975 7.32493 22.221C5.98099 22.0403 4.9205 21.6632 4.08812 20.8308C3.35019 20.0929 2.96911 19.1744 2.76646 18.0351C2.56739 16.9158 2.53097 15.5233 2.52341 13.7942C2.52148 13.3544 2.52148 12.8892 2.52148 12.3984V12.3441C2.52147 10.1967 2.52146 8.51392 2.69799 7.20091C2.87868 5.85697 3.25574 4.79648 4.08812 3.9641C4.9205 3.13172 5.98099 2.75466 7.32493 2.57397C8.4926 2.41698 9.99495 2.39961 11.8235 2.3977C12.2088 2.39729 12.5215 2.70982 12.5215 3.09513C12.5215 3.48045 12.2087 3.79266 11.8234 3.79307C9.96898 3.79503 8.58899 3.81192 7.51086 3.95688C6.32165 4.11676 5.6047 4.42085 5.07478 4.95076C4.54487 5.48067 4.24078 6.19762 4.0809 7.38684C3.91832 8.59612 3.91683 10.1852 3.91683 12.3975C3.91683 12.6676 3.91683 12.9289 3.91715 13.1819L4.84844 12.367C5.69613 11.6253 6.97373 11.6678 7.77021 12.4643L11.7607 16.4547C12.3999 17.094 13.4063 17.1812 14.1459 16.6614L14.4233 16.4664C15.4877 15.7184 16.9278 15.805 17.8948 16.6753L20.5279 19.0451C20.7929 18.4885 20.9503 17.7572 21.0343 16.7256C21.1135 15.7535 21.1244 14.5729 21.1259 13.0953C21.1263 12.71 21.4385 12.3975 21.8238 12.3975C22.2091 12.3975 22.5216 12.71 22.5213 13.0953Z" fill="#1C274C"/>
</svg>
